<?xml version="1.0" encoding="utf-8"?>
<!-- Generator: Adobe Illustrator 19.1.0, SVG Export Plug-In . SVG Version: 6.00 Build 0)  -->
<svg version="1.1" id="Layer_1" xmlns="http://www.w3.org/2000/svg" xmlns:xlink="http://www.w3.org/1999/xlink" x="0px" y="0px"
	 viewBox="8 136.3 612 568.6" enable-background="new 8 136.3 612 568.6" xml:space="preserve">
<g>
	<g>
		
			<linearGradient id="SVGID_1_" gradientUnits="userSpaceOnUse" x1="130.9175" y1="723.0182" x2="114.981" y2="495.1179" gradientTransform="matrix(1 0 0 1 8.5 -297.2709)">
			<stop  offset="4.900000e-03" style="stop-color:#F15A29"/>
			<stop  offset="0.4074" style="stop-color:#F15E29"/>
			<stop  offset="0.8892" style="stop-color:#FBB040"/>
		</linearGradient>
		<path fill="url(#SVGID_1_)" d="M249.2,378.8c-4.8-34.7-23.9-88.9-77.8-130.9C105,196.1,11,205.7,11,205.7s27.9,116.7,94.4,168.5
			c37.9,29.5,69.5,37.3,94.1,47.3C212.6,404.8,228.6,391.2,249.2,378.8z"/>
		
			<linearGradient id="SVGID_2_" gradientUnits="userSpaceOnUse" x1="312.1854" y1="631.9985" x2="134.5308" y2="482.9287" gradientTransform="matrix(1 0 0 1 8.5 -297.2709)">
			<stop  offset="0.3237" style="stop-color:#EF4136"/>
			<stop  offset="1" style="stop-color:#FBB040"/>
		</linearGradient>
		<path fill="url(#SVGID_2_)" d="M257.1,375.2c12.4-5.5,25.7-10,39.7-13.3c0.5-0.1,0.9-0.2,1.4-0.3c6.8-25.8,29.8-76.4-0.3-129.3
			c-32.8-57.6-120.1-88-120.1-88s-9.5,52.1-2.2,95C229,279.4,249.3,340,257.1,375.2z"/>
		
			<linearGradient id="SVGID_3_" gradientUnits="userSpaceOnUse" x1="307.4084" y1="636.5469" x2="426.0842" y2="826.4681" gradientTransform="matrix(1 0 0 1 8.5 -297.2709)">
			<stop  offset="0.237" style="stop-color:#F04C29"/>
			<stop  offset="0.3588" style="stop-color:#F2622B"/>
			<stop  offset="0.5805" style="stop-color:#F68B32"/>
			<stop  offset="0.7121" style="stop-color:#F68C32"/>
			<stop  offset="0.7613" style="stop-color:#F79134"/>
			<stop  offset="0.7967" style="stop-color:#F89937"/>
			<stop  offset="0.8253" style="stop-color:#FAA53C"/>
			<stop  offset="0.842" style="stop-color:#FBB040"/>
		</linearGradient>
		<path fill="url(#SVGID_3_)" d="M600,233.7c-7.3-0.9-14.1,3.8-16,10.8c-8.3,0.6-21.8,2.3-36.7,7.3c-0.2,0.1-0.4,0.1-0.6,0.2
			c-23.9,8.2-42.6,22.3-55.1,41.3c-0.8,0.1-1.6,0.2-2.4,0.4c2.7-20.7,12.5-39.6,29.4-56.3c10.5-10.4,21.4-17.5,28.3-21.4
			c3.8,3.9,9.7,5.5,15.2,3.7c7.7-2.6,11.8-10.9,9.2-18.6c-2.6-7.7-11-11.8-18.6-9.2c-7,2.4-11,9.5-9.7,16.6
			c-7.3,4.2-19,11.7-30.3,22.9c-19,18.8-29.9,40.9-32.2,64.8c-17.6,6.5-32.2,21.8-39,41.8c-0.6-0.8-1.2-1.5-1.9-2.3
			c-25.8-29.2-73.7-28.9-107,0.6c-11.2,9.9-19.3,21.9-24.2,34.5c-37.3-0.7-83.5,27.9-116.1,75.9c-0.1,0.1-0.1,0.2-0.2,0.3
			c0,0,0,0,0,0c0,0,0,0,0,0c-39.6,58.2-45.4,124.4-15.6,155c-8.5,26.1,1.7,87.5,1.7,87.5c2.6-43.6,14-61.6,19.5-74.2
			c39.3,13.4,96.4-16.3,134.8-72.8c0.1-0.1,0.1-0.2,0.2-0.3c-27-6.8-53.6-18.5-78.5-35.4c-24.9-16.9-45.6-37.3-62-59.8
			c4.6-6.8,9.6-13.1,14.7-19.1c22.2,20.1,47.2,39.8,74.5,58.3c20.8,14.1,41.7,26.7,62.4,37.7c-3.4,6.4-7.2,12.7-11.5,18.9
			c0.1-0.2,0.3-0.4,0.4-0.6c17.5-25.8,28.4-53.1,32.6-78.2c20.7,1.1,42.9-6.3,60.8-22.1c11.9-10.5,20.3-23.3,25-36.8
			c9.1,12.2,22.2,20.6,37.6,22.6c27.4,3.6,52-14.8,62.6-42.5c-9.5-7.1-11.9-23-6.6-39.3c1.8-5.7,4.6-10.7,7.8-14.7
			c-8.1-20.2-24.9-35.2-46.1-38c-1.3-0.2-2.7-0.3-4-0.4c11.3-14.8,27-25.8,47.2-32.7c0.2-0.1,0.3-0.1,0.5-0.2
			c13.8-4.7,26.4-6.3,34.2-6.8c1.8,5.2,6.3,9.2,12.1,9.9c8.1,1,15.4-4.7,16.4-12.8C613.8,242,608.1,234.7,600,233.7z M223.5,551.8
			c22.7,15.4,47.1,25.9,71.9,31.9c-6.4,5.5-13,10.3-19.7,14.5c-22.9,0.5-47.5-6.4-69.4-21.2c-21.9-14.8-37.4-35.1-45.4-56.6
			c1.5-7.7,3.5-15.6,6.3-23.6C182,517.6,200.8,536.4,223.5,551.8z M506.1,336c8.1,17.6,4.5,37.4-8,44c-12.5,6.7-29.2-2.2-37.3-19.8
			c-8.1-17.6-4.5-37.3,8-44C481.3,309.5,498,318.4,506.1,336z"/>
	</g>
	<path fill="none" stroke="#F15A29" stroke-width="1.95" stroke-miterlimit="10" d="M540.4,401.8c7.9-11.7,16.3-26.5,17.5-43.6
		c1.2-17.1-6.8-30.2-12.6-38.7"/>
</g>
</svg>
