<?xml version="1.0" encoding="UTF-8" standalone="no"?>
<svg width="107px" height="144px" viewBox="0 0 107 144" version="1.1" xmlns="http://www.w3.org/2000/svg" xmlns:xlink="http://www.w3.org/1999/xlink">
    <!-- Generator: Sketch 40 (33762) - http://www.bohemiancoding.com/sketch -->
    <title>tint copy</title>
    <desc>Created with Sketch.</desc>
    <defs>
        <filter x="-50%" y="-50%" width="200%" height="200%" filterUnits="objectBoundingBox" id="filter-1">
            <feOffset dx="0" dy="2" in="SourceAlpha" result="shadowOffsetOuter1"></feOffset>
            <feGaussianBlur stdDeviation="2" in="shadowOffsetOuter1" result="shadowBlurOuter1"></feGaussianBlur>
            <feColorMatrix values="0 0 0 0 0.314369351   0 0 0 0 0.8883757   0 0 0 0 0.759899616  0 0 0 1 0" type="matrix" in="shadowBlurOuter1" result="shadowMatrixOuter1"></feColorMatrix>
            <feMerge>
                <feMergeNode in="shadowMatrixOuter1"></feMergeNode>
                <feMergeNode in="SourceGraphic"></feMergeNode>
            </feMerge>
        </filter>
    </defs>
    <g id="Page-1" stroke="none" stroke-width="1" fill="none" fill-rule="evenodd">
        <g id="ms-icon-144x144" transform="translate(-19.000000, 0.000000)" fill="#00BCD4">
            <g id="tint-copy" filter="url(#filter-1)" transform="translate(23.000000, 1.000000)">
                <path d="M84.4047188,128.427989 C74.7625313,138.142663 63.127625,143 49.5,143 C35.872375,143 24.2374688,138.142663 14.5952813,128.427989 C4.95309375,118.713315 0.132,106.990942 0.132,93.2608696 C0.132,83.8700181 2.73539063,74.9649004 7.94217188,66.5455163 C8.32785938,65.9626359 10.3366484,63.0320426 13.9685391,57.7537364 C17.6004297,52.4754303 20.8466328,47.5857111 23.7071484,43.0845788 C26.5676641,38.5834466 29.7656563,32.8194067 33.301125,25.7924592 C36.8365938,18.7655118 39.5042656,12.2404891 41.3041406,6.2173913 C41.8826719,4.27445652 42.9754531,2.75249094 44.5824844,1.65149457 C46.1895156,0.550498188 47.8286875,0 49.5,0 C51.1713125,0 52.8265547,0.550498188 54.4657266,1.65149457 C56.1048984,2.75249094 57.1816094,4.27445652 57.6958594,6.2173913 C59.4957344,12.2404891 62.1634063,18.7655118 65.698875,25.7924592 C69.2343438,32.8194067 72.4323359,38.5834466 75.2928516,43.0845788 C78.1533672,47.5857111 81.3995703,52.4754303 85.0314609,57.7537364 C88.6633516,63.0320426 90.6721406,65.9626359 91.0578281,66.5455163 C96.2646094,74.7706069 98.868,83.6757246 98.868,93.2608696 C98.868,106.990942 94.0469063,118.713315 84.4047188,128.427989 Z M42.2954017,86.3332102 C39.1188865,88.167172 37.0723132,90.8577799 36.1556202,94.4051143 C35.2389273,97.9524488 35.7009032,101.320123 37.5415618,104.508237 C39.3822205,107.696351 42.0585205,109.764331 45.5705422,110.712237 C49.0825638,111.660144 52.4267821,111.217123 55.6032972,109.383161 C58.7798124,107.5492 60.8514712,104.865362 61.8183359,101.331569 C62.7852006,97.7977765 62.3483101,94.4368733 60.5076515,91.2487589 L38.8616139,53.7567221 C37.7940319,51.9076158 37.5140578,50.0288964 38.0216833,48.1205074 C38.5293088,46.2121185 39.7042933,44.7260973 41.546672,43.6623995 C43.4525811,42.5620223 45.3495669,42.2531868 47.2376864,42.7358836 C49.1258059,43.2185804 50.6220407,44.4163451 51.7264359,46.3292137 L73.3724735,83.8212505 C77.311483,90.6438151 78.2765569,97.7804966 76.2677242,105.231509 C74.2588914,112.682521 69.8556699,118.370281 63.0579275,122.29496 C56.2601851,126.219638 49.1487119,127.17989 41.7232947,125.175745 C34.2978775,123.171599 28.6157494,118.75831 24.6767398,111.935745 C20.7009171,105.049419 19.6856723,97.8991958 21.6309747,90.4848626 C23.5762772,83.0705295 27.9794987,77.3827694 34.8407714,73.4214118 C36.7466805,72.3210347 38.6528694,72.0281394 40.5593955,72.5427174 C42.4659215,73.0572953 43.9713596,74.2710004 45.0757548,76.1838689 C46.18015,78.0967375 46.4693272,79.9913973 45.9432951,81.8679051 C45.4172631,83.7444129 44.2013108,85.2328331 42.2954017,86.3332102 Z" id="Combined-Shape"></path>
            </g>
        </g>
    </g>
</svg>