<svg width="300" height="300" xmlns="http://www.w3.org/2000/svg">
 <metadata id="metadata8">image/svg+xml</metadata>

 <g>
  <title>background</title>
  <rect fill="none" id="canvas_background" height="302" width="302" y="-1" x="-1"/>
 </g>
 <g>
  <title>Layer 1</title>
  <g id="g10" transform="matrix(1.3333333,0,0,-1.3333333,0,302.36) ">
   <g id="g12" transform="translate(4.5,3) scale(0.10000000149011612) ">
    <path fill="#3c62b7" fill-rule="nonzero" d="m1070.713549,272.579895c504.5,0 913.48,408.984 913.48,913.485c0,504.51 -408.98,913.49 -913.48,913.49c-504.513,0 -913.497,-408.98 -913.497,-913.49c0,-504.501 408.984,-913.485 913.497,-913.485" id="path14"/>
    <path fill="none" stroke="#ffffff" stroke-width="130" stroke-miterlimit="4" d="m1070.713549,272.579895c504.5,0 913.48,408.984 913.48,913.485c0,504.51 -408.98,913.49 -913.48,913.49c-504.513,0 -913.497,-408.98 -913.497,-913.49c0,-504.501 408.984,-913.485 913.497,-913.485z" id="path16"/>
    <path fill="#6b9ad8" fill-rule="nonzero" d="m1442.613549,1489.994895l-783.819,0c-104.066,0 -164.57,-85.36 -164.57,-173.24c0,-85.37 48.402,-173.25 164.57,-173.25l263.805,0l0,-821.82c0,-125.539 77.444,-195.84 181.514,-195.84c104.07,0 181.51,70.301 181.51,195.84l0,821.82l156.99,0l0,346.49" id="path18"/>
    <path fill="#ffffff" fill-rule="nonzero" d="m1884.583549,1661.544895l-866.66,0c-104.066,0 -164.57,-82.29 -164.57,-167c0,-82.29 48.402,-166.99 164.57,-166.99l263.8,0l0,-1060.155c134.2,30.707 257.45,89.945 363.04,171.156l0,888.999l358.02,0c-18.11,120.32 -59.13,233.08 -118.2,333.99" id="path20"/>
   </g>
  </g>
 </g>
</svg>