<?xml version="1.0" encoding="utf-8"?>
<!-- Generator: Adobe Illustrator 23.0.3, SVG Export Plug-In . SVG Version: 6.00 Build 0)  -->
<svg version="1.1" id="ScandiPWA" xmlns="http://www.w3.org/2000/svg" xmlns:xlink="http://www.w3.org/1999/xlink" x="0px" y="0px"
	 viewBox="0 0 159 23" style="enable-background:new 0 0 159 23;" xml:space="preserve">
<style type="text/css">
	.st0{fill-rule:evenodd;clip-rule:evenodd;fill:#F26323;}
	.st1{fill-rule:evenodd;clip-rule:evenodd;fill:#505865;}
</style>
<path class="st0" d="M115.7,22.3c0-0.1-0.1-0.2-0.1-0.2c-1-1.5-2-3-3-4.6c0,0,0-0.1-0.1-0.1l3.1-8.6l3.5,6.1l4.9-13.5h4.8
	c1.5,4.5,3,8.9,4.5,13.4c0.1,0,0.1,0,0.1,0c0,0,0,0,0,0c0-0.1,0.1-0.1,0.1-0.1l6.3-13.2c0,0,0,0,0,0h6.2c0,0.1-0.1,0.2-0.1,0.2
	c-1,2.1-1.9,4.3-2.9,6.4c-1,2.3-2.1,4.6-3.1,6.9c-1.1,2.3-2.1,4.7-3.2,7c0,0.1-0.1,0.2-0.1,0.3h-6.2c0-0.1,0-0.2-0.1-0.3
	c-0.7-2-1.4-4-2.1-6l-1.5-4.4l-0.5-1.3c-0.1,0.1-0.1,0.2-0.2,0.3c-0.3,0.8-0.5,1.5-0.8,2.3c-0.9,2.4-1.7,4.7-2.6,7.1
	c-0.3,0.8-0.6,1.6-0.9,2.5C121.8,22.3,115.7,22.3,115.7,22.3z M96.6,22.3c0-0.1,0-0.2,0-0.3l0-20.2V1.5c0.1,0,0.1,0,0.2,0
	c3.3,0,6.5,0,9.8,0c1.2,0,2.4,0.2,3.5,0.6c1.3,0.5,2.3,1.3,3.1,2.4l-3.8,10.4c-0.3,0.1-0.7,0.2-1.1,0.2c-0.7,0.1-1.4,0.1-2.1,0.1
	h-3.8c0,0.1,0,0.2,0,0.4v6c0,0.3,0,0.6,0,0.9L96.6,22.3L96.6,22.3z M102.5,11.1c0.1,0,0.2,0,0.2,0c0.7,0,1.4,0,2,0
	c0.5,0,1,0,1.5-0.1c1-0.2,1.6-0.7,1.9-1.5c0.3-0.8,0.3-1.6,0-2.4c-0.3-0.6-0.7-1.1-1.4-1.3c-0.6-0.2-1.1-0.3-1.7-0.3
	c-0.8,0-1.6,0-2.3,0c-0.1,0-0.1,0-0.2,0L102.5,11.1L102.5,11.1z M152.1,22.3c0-0.1,0-0.2-0.1-0.2c-0.5-1.1-0.9-2.3-1.4-3.4
	c0,0,0,0-0.1-0.1c-0.1,0-0.2,0-0.3,0c-2.5,0-5.1,0-7.6,0c-0.1,0-0.2,0-0.4,0l1.8-4h5.2l-2.4-6.1l3.1-6.9c0.1,0.3,0.2,0.5,0.3,0.8
	l4.5,10.6l3.8,9.1c0,0.1,0.1,0.2,0.2,0.3c0,0,0,0.1,0,0.1c-0.1,0-0.2,0-0.2,0L152.1,22.3L152.1,22.3z"/>
<path class="st1" d="M2.6,2.5C4.1,1.5,6,0.9,8.3,0.9c2.7,0,5,0.6,7,1.7v5.1c-1.8-1.4-4-2-6.5-2C6.9,5.7,6.1,6.2,6.1,7
	c0,0.4,0.3,0.8,0.8,1.1c0.5,0.3,1.2,0.6,2,0.8c0.8,0.2,1.7,0.5,2.6,0.9c0.9,0.4,1.8,0.8,2.6,1.3c0.8,0.5,1.5,1.2,2,2
	c0.5,0.9,0.8,1.9,0.8,3.1c0,4.2-2.8,6.4-8.3,6.4c-3,0-5.7-0.6-8-1.9v-5.2c2.3,1.6,4.8,2.3,7.6,2.3c1.1,0,1.9-0.1,2.4-0.3
	c0.5-0.2,0.7-0.6,0.7-1.1c0-0.5-0.4-1-1.1-1.4c-0.7-0.4-1.6-0.8-2.7-1.1c-1.1-0.4-2.1-0.8-3.2-1.2c-1.1-0.5-2-1.2-2.7-2.2
	c-0.7-1-1.1-2.1-1.1-3.5C0.4,5.1,1.2,3.6,2.6,2.5 M20.9,9.4c1.6-1.3,3.6-2,5.8-2c1.6,0,3,0.3,4.4,1v4.3c-1.1-0.6-2.4-1-3.6-1
	c-1.1,0-2,0.3-2.7,0.8c-0.7,0.5-1.1,1.4-1.1,2.5c0,1.1,0.4,1.9,1.1,2.4c0.7,0.6,1.6,0.8,2.6,0.8c1.5,0,2.8-0.3,3.9-1v4.3
	c-1.5,0.6-3.2,1-4.9,1c-2.2,0-4-0.6-5.6-1.9c-1.5-1.2-2.3-3-2.3-5.4C18.5,12.7,19.3,10.8,20.9,9.4 M38.6,18.8
	c0.3,0.3,0.7,0.4,1.2,0.4c0.9,0,1.7-0.2,2.3-0.7v-1.9c-0.6-0.2-1.2-0.3-1.8-0.3c-1.5,0-2.3,0.5-2.3,1.5
	C38.1,18.2,38.3,18.6,38.6,18.8 M48.2,19c0.2,0,0.4,0,0.6-0.1v3.1c-0.8,0.3-1.6,0.4-2.6,0.4c-1.6,0-2.7-0.5-3.4-1.6
	c-1.5,1.2-3.1,1.7-5,1.7c-1.4,0-2.6-0.4-3.5-1.2c-1-0.8-1.4-1.9-1.4-3.2c0-0.9,0.2-1.6,0.6-2.2c0.4-0.6,0.9-1.1,1.5-1.5
	c0.6-0.3,1.3-0.6,2-0.7c0.7-0.2,1.4-0.2,2.2-0.2c1.1,0,2.1,0.1,3.1,0.3v-0.5c0-0.5-0.3-1-0.8-1.3c-0.5-0.3-1.2-0.5-2.2-0.5
	c-1.5,0-3.2,0.4-5,1.1V8.4c1.9-0.6,3.8-1,5.6-1c2.4,0,4.3,0.5,5.6,1.5c1.3,1,1.9,2.7,1.9,5.1v4C47.3,18.7,47.6,19,48.2,19 M59.6,7.5
	c1.9,0,3.3,0.6,4.3,1.7c1,1.1,1.5,2.5,1.5,4.2v8.9h-5.1V14c0-0.7-0.2-1.3-0.6-1.7c-0.4-0.4-0.9-0.6-1.6-0.6c-1,0-1.8,0.4-2.4,1.2
	v9.2h-5.1V7.9h4.5v1.6C56.4,8.2,57.9,7.5,59.6,7.5 M77.5,12.2c-0.5-0.3-1.1-0.5-1.8-0.5c-1,0-1.8,0.3-2.3,1
	c-0.5,0.7-0.8,1.5-0.8,2.4s0.3,1.7,0.8,2.4c0.5,0.7,1.3,1,2.3,1c0.7,0,1.2-0.2,1.8-0.5s0.9-0.8,1.1-1.3v-3.3
	C78.4,12.9,78.1,12.5,77.5,12.2z M83.7,1.4v20.8h-4.5v-1.9c-0.4,0.7-1,1.2-1.8,1.7c-0.8,0.5-1.8,0.7-3,0.7c-1.2,0-2.2-0.2-3.1-0.7
	c-0.9-0.4-1.6-1-2.2-1.8c-0.5-0.7-0.9-1.6-1.2-2.4c-0.3-0.9-0.4-1.8-0.4-2.8c0-1,0.1-1.9,0.4-2.8c0.3-0.9,0.7-1.7,1.2-2.4
	c0.5-0.7,1.3-1.3,2.2-1.8c0.9-0.4,1.9-0.7,3.1-0.7c1.8,0,3.2,0.5,4.3,1.6V1.4L83.7,1.4L83.7,1.4z M86.8,22.2h5.1V7.9h-5.1V22.2z
	 M91.4,5.2c-0.5,0.5-1.2,0.7-2.1,0.7c-0.8,0-1.5-0.2-2.1-0.7c-0.5-0.5-0.8-1.2-0.8-2.1c0-0.9,0.3-1.6,0.8-2.1
	c0.6-0.5,1.2-0.7,2.1-0.7c0.8,0,1.5,0.2,2.1,0.7c0.5,0.5,0.8,1.2,0.8,2.1C92.2,4,91.9,4.7,91.4,5.2L91.4,5.2z"/>
</svg>
