<?xml version="1.0" encoding="UTF-8"?>
<svg width="213px" height="25px" viewBox="0 0 213 25" version="1.1" xmlns="http://www.w3.org/2000/svg" xmlns:xlink="http://www.w3.org/1999/xlink">
    <!-- Generator: Sketch 59.1 (86144) - https://sketch.com -->
    <title>logo copy 4</title>
    <desc>Created with Sketch.</desc>
    <g id="Homepage" stroke="none" stroke-width="1" fill="none" fill-rule="evenodd">
        <g id="home-page_1" transform="translate(-24.000000, -24.000000)">
            <g id="logo-copy-4" transform="translate(24.000000, 23.877100)">
                <g id="_1" fill-rule="nonzero">
                    <path d="M126.36,11.4111658 L128.7,11.4111658 C129.48,11.4111658 130.195,11.5359639 130.91,11.7855602 C131.495,12.0351565 131.95,12.3471518 132.275,12.8463444 C132.6,13.3455369 132.795,13.9071285 132.86,14.4687201 C132.925,15.1551099 132.925,15.8414996 132.73,16.5278894 C132.6,17.2142791 132.405,17.8382698 132.08,18.4622605 C131.755,19.0238521 131.365,19.5854437 130.91,20.0222372 C130.39,20.4590307 129.805,20.8334251 129.22,21.0830214 C128.505,21.3326177 127.725,21.4574158 127.01,21.4574158 L124.41,21.4574158 L126.36,11.4111658 L126.36,11.4111658 Z M145.73,21.644613 C145.015,21.644613 144.3,21.5198149 143.65,21.2078195 C143.13,20.9582232 142.675,20.5214298 142.35,20.0222372 C142.025,19.5230447 141.83,18.899054 141.765,18.3374624 C141.7,17.6510726 141.7,16.9646829 141.895,16.3406922 C142.025,15.6543024 142.285,14.9679127 142.61,14.343922 C142.935,13.7199313 143.325,13.1583397 143.845,12.6591472 C144.365,12.1599546 144.95,11.7855602 145.6,11.4735649 C146.315,11.1615695 147.03,11.0367714 147.81,11.0367714 C148.525,11.0367714 149.24,11.1615695 149.825,11.4735649 C150.345,11.7231611 150.8,12.1599546 151.125,12.6591472 C151.45,13.1583397 151.645,13.7823304 151.71,14.343922 C151.775,15.0303118 151.775,15.7167015 151.645,16.3406922 C151.515,17.0270819 151.255,17.7134717 150.93,18.3374624 C150.605,18.9614531 150.215,19.5230447 149.695,20.0222372 C148.655,21.0830214 147.225,21.644613 145.73,21.644613 Z M145.08,24.8269655 C147.095,24.8269655 149.11,24.2653739 150.8,23.2045897 C152.425,22.2062046 153.79,20.771026 154.635,19.0238521 C155.09,18.1502652 155.415,17.2766782 155.61,16.2782931 C155.805,15.4047062 155.805,14.4687201 155.74,13.5951332 C155.61,12.7839453 155.415,11.9727574 155.025,11.2863677 C154.635,10.5999779 154.115,9.91358815 153.53,9.4143956 C152.88,8.85280399 152.1,8.47840958 151.32,8.22881331 C150.41,7.91681796 149.435,7.79201983 148.525,7.79201983 C146.51,7.79201983 144.495,8.35361144 142.805,9.4143956 C141.96,9.91358815 141.245,10.5375788 140.595,11.2239686 C139.295,12.6591472 138.385,14.4063211 137.995,16.2782931 C137.8,17.1518801 137.8,18.0878661 137.865,19.0238521 C137.93,19.83504 138.19,20.6462279 138.58,21.3326177 C138.97,22.0190074 139.49,22.6429981 140.075,23.1421906 C140.725,23.6413832 141.505,24.0781767 142.285,24.3277729 C143.195,24.6397683 144.17,24.8269655 145.08,24.8269655 L145.08,24.8269655 Z M154.44,22.6429981 C154.44,22.7053972 154.375,22.7677962 154.375,22.8301953 C154.375,22.8925944 154.375,22.9549934 154.31,23.0173925 C154.245,23.3293878 154.245,23.6413832 154.375,23.8909795 C154.505,24.1405757 154.7,24.3277729 154.895,24.4525711 C155.155,24.5773692 155.48,24.6397683 155.805,24.6397683 C156.195,24.6397683 156.585,24.5773692 156.91,24.4525711 C157.17,24.3277729 157.43,24.1405757 157.625,23.8909795 C157.82,23.6413832 158.015,23.3293878 158.145,23.0173925 L161.525,13.6575323 L161.59,13.6575323 L162.76,23.3293878 C162.76,23.516585 162.825,23.7661813 162.955,23.9533785 C163.085,24.2029748 163.28,24.3277729 163.475,24.4525711 C163.8,24.6397683 164.19,24.7021673 164.515,24.7021673 C164.905,24.7021673 165.295,24.6397683 165.685,24.4525711 C165.945,24.3277729 166.205,24.1405757 166.465,23.9533785 C166.66,23.7661813 166.79,23.5789841 166.92,23.3293878 L171.925,13.6575323 L171.99,13.6575323 L171.665,23.0173925 C171.665,23.3293878 171.665,23.6413832 171.795,23.8909795 C171.925,24.1405757 172.055,24.3277729 172.315,24.4525711 C172.965,24.7021673 173.68,24.7021673 174.33,24.4525711 C174.655,24.3277729 174.915,24.1405757 175.11,23.8909795 C175.305,23.6413832 175.5,23.3293878 175.565,23.0173925 C175.565,22.9549934 175.565,22.8925944 175.63,22.8301953 L175.63,22.6429981 L175.76,9.78879001 C175.76,9.60159281 175.695,9.35199654 175.63,9.16479933 C175.5,8.97760213 175.37,8.72800585 175.175,8.60320772 C174.98,8.41601051 174.72,8.29121237 174.46,8.16641424 C174.2,8.0416161 173.875,7.97921703 173.55,7.97921703 C173.16,7.97921703 172.705,8.0416161 172.315,8.22881331 C171.925,8.35361144 171.6,8.60320772 171.275,8.85280399 C171.015,9.10240026 170.82,9.35199654 170.625,9.66399188 L165.75,18.7742559 L165.685,18.7742559 L164.45,9.66399188 C164.385,9.35199654 164.255,9.10240026 164.125,8.85280399 C163.93,8.60320772 163.67,8.35361144 163.345,8.22881331 C163.02,8.0416161 162.63,7.97921703 162.24,7.97921703 C161.915,7.97921703 161.59,8.0416161 161.265,8.16641424 C160.94,8.29121237 160.68,8.41601051 160.42,8.60320772 C160.16,8.79040492 159.965,8.97760213 159.77,9.16479933 C159.575,9.35199654 159.445,9.53919374 159.38,9.78879001 L154.44,22.6429981 L154.44,22.6429981 Z M6.63,3.79847946 L0.715,6.98083194 C0.065,7.35522635 -0.195,8.22881331 0.26,8.91520306 C0.65,9.53919374 1.495,9.78879001 2.145,9.4143956 L6.63,6.98083194 L6.63,3.79847946 Z M10.66,11.0991704 L14.885,11.0991704 C15.405,11.0991704 15.795,11.4735649 15.795,11.9727574 L15.795,16.0286968 C15.795,16.5278894 15.405,16.9022838 14.885,16.9022838 L10.66,16.9022838 C10.14,16.9022838 9.75,16.5278894 9.75,16.0286968 L9.75,11.9727574 C9.75,11.4735649 10.14,11.0991704 10.66,11.0991704 Z M21.515,11.5359639 C21.515,10.8495742 20.93,10.2879826 20.215,10.2879826 C19.5,10.2879826 18.915,10.8495742 18.915,11.5359639 L18.915,22.1438055 L6.565,22.1438055 L6.565,11.5359639 C6.565,10.8495742 5.98,10.2879826 5.265,10.2879826 C4.55,10.2879826 3.965,10.8495742 3.965,11.5359639 L3.965,23.3917869 C3.965,24.0781767 4.55,24.6397683 5.265,24.6397683 L20.215,24.6397683 C20.93,24.6397683 21.515,24.0781767 21.515,23.3917869 L21.515,11.5359639 Z M25.415,8.85280399 C25.805,8.16641424 25.545,7.35522635 24.895,6.98083194 L12.805,0.428929766 L9.295,2.30090182 L9.295,5.4832543 L12.805,3.54888318 L23.465,9.35199654 C24.18,9.78879001 25.025,9.53919374 25.415,8.85280399 Z M120.25,22.8301953 C120.185,23.0797916 120.185,23.3917869 120.25,23.6413832 C120.315,23.8285804 120.445,24.0157776 120.64,24.2029748 C120.835,24.3277729 121.03,24.4525711 121.225,24.5149701 C121.42,24.5773692 121.68,24.5773692 121.875,24.5773692 L126.36,24.5773692 C127.595,24.5773692 128.895,24.390172 130.065,24.0157776 C131.17,23.6413832 132.21,23.1421906 133.185,22.3934018 C134.095,21.7070121 134.875,20.8334251 135.46,19.8974391 C136.11,18.899054 136.5,17.7758708 136.76,16.5902885 C137.02,15.4671052 137.02,14.2815229 136.825,13.0959406 C136.5,11.0991704 135.07,9.4143956 133.055,8.72800585 C131.885,8.29121237 130.585,8.10401517 129.35,8.10401517 L125.06,8.10401517 C124.67,8.10401517 124.345,8.16641424 123.955,8.35361144 C123.63,8.47840958 123.37,8.72800585 123.11,8.97760213 C122.915,9.2271984 122.72,9.60159281 122.655,9.91358815 L120.25,22.8301953 Z" id="Shape" fill="#202020"></path>
                    <path d="M11.115,11.9727574 L14.56,11.9727574 C14.755,11.9727574 14.95,12.1599546 14.95,12.3471518 L14.95,15.6543024 C14.95,15.8414996 14.755,16.0286968 14.56,16.0286968 L11.115,16.0286968 C10.92,16.0286968 10.725,15.8414996 10.725,15.6543024 L10.725,12.3471518 C10.725,12.1599546 10.855,11.9727574 11.115,11.9727574" id="Path" fill="#FFCC29"></path>
                </g>
                <path d="M207.74,20.1470354 C208.585,20.1470354 208.975,20.5214298 208.975,21.2702186 C208.975,21.5822139 208.845,21.8318102 208.585,22.0814065 C208.325,22.2686037 208.065,22.3934018 207.74,22.3934018 L200.915,22.3934018 C200.46,22.3934018 200.07,22.2686037 199.81,22.0814065 C199.55,21.8318102 199.42,21.5822139 199.42,21.2078195 C199.42,20.8958242 199.55,20.5214298 199.745,20.2718335 L205.335,12.7839453 L200.785,12.7839453 C199.94,12.7839453 199.55,12.4095509 199.55,11.7231611 C199.55,11.4111658 199.68,11.1615695 199.94,10.9119732 C200.2,10.662377 200.46,10.5999779 200.785,10.5999779 L207.155,10.5999779 C207.61,10.5999779 208,10.724776 208.26,10.9743723 C208.52,11.2239686 208.585,11.4735649 208.585,11.7855602 C208.585,12.1599546 208.455,12.534349 208.195,12.8463444 L202.67,20.2718335 L207.74,20.2718335 L207.74,20.1470354 Z M189.28,11.598363 C189.28,11.2863677 189.41,10.9743723 189.67,10.724776 C189.93,10.4751798 190.255,10.3503816 190.58,10.3503816 C190.97,10.3503816 191.295,10.4751798 191.49,10.662377 C191.75,10.9119732 191.88,11.1615695 191.88,11.598363 L191.88,15.217509 L196.17,10.8495742 C196.495,10.5375788 196.82,10.4127807 197.145,10.4127807 C197.47,10.4127807 197.795,10.5375788 198.055,10.724776 C198.315,10.9743723 198.445,11.2239686 198.445,11.598363 C198.445,11.9103583 198.185,12.4095509 197.6,12.9087434 L194.35,16.0286968 L198.38,20.0222372 C198.835,20.5214298 199.095,20.9582232 199.095,21.2702186 C199.095,21.644613 198.965,21.9566083 198.705,22.1438055 C198.445,22.3310027 198.12,22.4558009 197.795,22.4558009 C197.405,22.4558009 197.015,22.2062046 196.495,21.644613 L192.01,16.9646829 L192.01,21.2078195 C192.01,21.5198149 191.88,21.8318102 191.62,22.0814065 C191.36,22.3310027 191.035,22.4558009 190.71,22.4558009 C190.32,22.4558009 189.995,22.3310027 189.8,22.1438055 C189.54,21.9566083 189.41,21.644613 189.41,21.2702186 L189.41,11.598363 L189.28,11.598363 Z M187.85,7.72962076 L210.08,7.72962076 C211.185,7.72962076 212.03,8.60320772 212.03,9.60159281 L212.03,22.8925944 C212.03,23.9533785 211.12,24.7645664 210.08,24.7645664 L187.85,24.7645664 C186.745,24.7645664 185.9,23.8909795 185.9,22.8925944 L185.9,9.60159281 C185.9,8.60320772 186.81,7.72962076 187.85,7.72962076 L187.85,7.72962076 Z M111.28,21.5822139 C110.5,21.5822139 109.785,21.4574158 109.135,21.1454204 C108.55,20.8958242 108.03,20.4590307 107.64,19.9598382 C107.25,19.4606456 106.925,18.899054 106.73,18.2750633 C106.535,17.6510726 106.47,16.9646829 106.47,16.2782931 C106.47,15.5919034 106.6,14.9055136 106.795,14.2815229 C106.99,13.6575323 107.315,13.0959406 107.705,12.5967481 C108.095,12.0975555 108.615,11.7231611 109.2,11.4111658 C109.785,11.0991704 110.5,10.9743723 111.28,10.9743723 C112.06,10.9743723 112.775,11.0991704 113.36,11.4111658 C113.945,11.7231611 114.465,12.0975555 114.855,12.5967481 C115.245,13.0959406 115.57,13.6575323 115.765,14.2815229 C115.96,14.9055136 116.09,15.5919034 116.09,16.2782931 C116.09,16.9646829 115.96,17.6510726 115.83,18.2750633 C115.635,18.899054 115.31,19.4606456 114.92,19.9598382 C114.53,20.4590307 114.01,20.8334251 113.425,21.1454204 C112.84,21.4574158 112.125,21.5822139 111.28,21.5822139 L111.28,21.5822139 Z M85.605,22.8301953 C85.605,23.2045897 85.67,23.516585 85.865,23.8285804 C85.995,24.0781767 86.255,24.2653739 86.515,24.4525711 C86.775,24.5773692 87.1,24.6397683 87.49,24.6397683 C87.88,24.6397683 88.205,24.5773692 88.465,24.4525711 C88.725,24.3277729 88.985,24.1405757 89.115,23.8285804 C89.31,23.5789841 89.375,23.2045897 89.375,22.8301953 L89.375,14.2815229 L89.44,14.2815229 L97.5,23.8285804 C97.63,23.9533785 97.76,24.0781767 97.955,24.2029748 C98.15,24.3277729 98.345,24.390172 98.54,24.4525711 C98.735,24.5149701 98.93,24.5773692 99.06,24.5773692 C99.45,24.5773692 99.775,24.5149701 100.035,24.390172 C100.295,24.2653739 100.555,24.0781767 100.685,23.7661813 C100.88,23.516585 100.945,23.1421906 100.945,22.7677962 L100.945,9.78879001 C100.945,9.4143956 100.88,9.10240026 100.685,8.79040492 C100.49,8.54080865 100.295,8.35361144 100.035,8.16641424 C99.775,8.0416161 99.45,7.97921703 99.06,7.97921703 C98.67,7.97921703 98.345,8.0416161 98.085,8.16641424 C97.825,8.29121237 97.565,8.47840958 97.435,8.79040492 C97.305,9.04000119 97.175,9.4143956 97.175,9.78879001 L97.175,18.4622605 L97.11,18.4622605 L89.05,8.72800585 C88.92,8.60320772 88.79,8.47840958 88.595,8.35361144 C88.4,8.22881331 88.205,8.16641424 88.01,8.10401517 C87.815,8.0416161 87.62,7.97921703 87.425,7.97921703 C87.035,7.97921703 86.71,8.0416161 86.45,8.16641424 C86.19,8.29121237 85.93,8.47840958 85.8,8.79040492 C85.605,9.04000119 85.54,9.4143956 85.54,9.78879001 L85.54,22.8301953 L85.605,22.8301953 Z M68.965,22.8301953 C68.965,23.2045897 69.03,23.516585 69.225,23.8285804 C69.42,24.0781767 69.615,24.2653739 69.875,24.4525711 C70.135,24.5773692 70.46,24.6397683 70.85,24.6397683 C71.24,24.6397683 71.565,24.5773692 71.825,24.4525711 C72.085,24.3277729 72.345,24.1405757 72.475,23.8285804 C72.67,23.5789841 72.735,23.2045897 72.735,22.8301953 L72.735,17.8382698 L79.755,17.8382698 L79.755,22.8301953 C79.755,23.2045897 79.82,23.516585 80.015,23.8285804 C80.145,24.0781767 80.405,24.2653739 80.665,24.4525711 C80.925,24.5773692 81.25,24.6397683 81.64,24.6397683 C82.03,24.6397683 82.355,24.5773692 82.615,24.4525711 C82.875,24.3277729 83.135,24.1405757 83.265,23.8285804 C83.46,23.5789841 83.525,23.2045897 83.525,22.8301953 L83.525,9.78879001 C83.525,9.4143956 83.46,9.10240026 83.265,8.79040492 C83.07,8.54080865 82.875,8.35361144 82.615,8.16641424 C82.355,8.0416161 82.03,7.97921703 81.64,7.97921703 C81.25,7.97921703 80.925,8.0416161 80.665,8.16641424 C80.405,8.29121237 80.145,8.47840958 80.015,8.79040492 C79.82,9.04000119 79.755,9.4143956 79.755,9.78879001 L79.755,14.6559173 L72.8,14.6559173 L72.8,9.78879001 C72.8,9.4143956 72.735,9.10240026 72.54,8.79040492 C72.345,8.54080865 72.15,8.35361144 71.89,8.16641424 C71.63,8.0416161 71.305,7.97921703 70.915,7.97921703 C70.525,7.97921703 70.2,8.0416161 69.94,8.16641424 C69.68,8.29121237 69.42,8.47840958 69.29,8.79040492 C69.095,9.04000119 69.03,9.4143956 69.03,9.78879001 L69.03,22.8301953 L68.965,22.8301953 Z M53.495,16.2782931 C53.495,17.2142791 53.625,18.1502652 53.885,18.9614531 C54.145,19.83504 54.535,20.5838288 55.055,21.2702186 C55.575,21.9566083 56.16,22.580599 56.875,23.0797916 C57.59,23.5789841 58.435,24.0157776 59.28,24.2653739 C60.19,24.5149701 61.165,24.7021673 62.205,24.7021673 C62.53,24.7021673 62.855,24.7021673 63.31,24.6397683 C63.7,24.6397683 64.155,24.5773692 64.545,24.4525711 C65,24.390172 65.39,24.2653739 65.78,24.1405757 C66.17,24.0157776 66.56,23.8285804 66.885,23.6413832 C67.21,23.454186 67.47,23.2045897 67.665,22.8925944 C67.86,22.6429981 67.925,22.2686037 67.99,21.9566083 C67.99,21.8318102 67.925,21.644613 67.86,21.5198149 C67.795,21.3326177 67.665,21.1454204 67.535,21.0206223 C67.405,20.8334251 67.21,20.708627 67.015,20.5838288 C66.82,20.4590307 66.56,20.3966316 66.3,20.3966316 C66.04,20.3966316 65.78,20.4590307 65.52,20.5214298 C65.26,20.6462279 65,20.708627 64.675,20.8334251 C64.35,20.9582232 64.025,21.0830214 63.635,21.1454204 C63.245,21.2702186 62.79,21.2702186 62.27,21.2702186 C61.49,21.2702186 60.775,21.1454204 60.19,20.8334251 C59.605,20.5838288 59.085,20.2094344 58.695,19.7102419 C58.305,19.2110493 57.98,18.7118568 57.785,18.0878661 C57.59,17.4638754 57.46,16.8398847 57.46,16.153495 C57.46,15.4671052 57.59,14.7807155 57.785,14.1567248 C57.98,13.5327341 58.305,12.9711425 58.695,12.47195 C59.085,11.9727574 59.605,11.598363 60.19,11.3487667 C60.775,11.0991704 61.49,10.9119732 62.27,10.9119732 C62.79,10.9119732 63.245,10.9743723 63.635,11.0367714 C64.025,11.0991704 64.35,11.2239686 64.61,11.2863677 C64.87,11.4111658 65.13,11.4735649 65.39,11.5359639 C65.65,11.598363 65.91,11.6607621 66.105,11.6607621 C66.43,11.6607621 66.69,11.598363 66.95,11.4735649 C67.21,11.3487667 67.34,11.1615695 67.47,10.9119732 C67.6,10.662377 67.665,10.4127807 67.665,10.1631844 C67.665,9.85118908 67.535,9.53919374 67.405,9.28959747 C67.21,9.04000119 66.95,8.79040492 66.69,8.60320772 C66.365,8.41601051 66.04,8.22881331 65.65,8.10401517 C65.26,7.97921703 64.87,7.8544189 64.48,7.79201983 L63.31,7.60482262 C62.92,7.54242355 62.595,7.54242355 62.27,7.54242355 C61.23,7.54242355 60.255,7.66722169 59.345,7.97921703 C58.435,8.22881331 57.655,8.66560678 56.94,9.16479933 C56.225,9.66399188 55.575,10.2879826 55.12,10.9743723 C54.6,11.6607621 54.21,12.47195 53.95,13.2831378 C53.625,14.4687201 53.495,15.3423071 53.495,16.2782931 L53.495,16.2782931 Z M42.38,22.7677962 C42.38,23.1421906 42.445,23.3917869 42.64,23.7037823 C42.835,23.9533785 43.03,24.1405757 43.355,24.3277729 C43.68,24.4525711 44.005,24.5149701 44.33,24.5149701 L50.895,24.5149701 C51.285,24.5149701 51.61,24.4525711 51.87,24.2653739 C52.13,24.1405757 52.325,23.8909795 52.455,23.7037823 C52.585,23.454186 52.65,23.2045897 52.65,22.9549934 C52.65,22.7053972 52.585,22.4558009 52.455,22.2062046 C52.325,21.9566083 52.13,21.7694111 51.87,21.644613 C51.61,21.5198149 51.285,21.3950167 50.83,21.3950167 L46.15,21.3950167 L46.15,17.9006689 L50.31,17.9006689 C50.7,17.9006689 51.09,17.8382698 51.35,17.6510726 C51.61,17.5262745 51.805,17.2766782 52,17.089481 C52.13,16.8398847 52.195,16.5902885 52.195,16.3406922 C52.195,16.0910959 52.13,15.8414996 52,15.5919034 C51.87,15.3423071 51.675,15.1551099 51.35,15.0303118 C51.09,14.9055136 50.7,14.7807155 50.31,14.7807155 L46.15,14.7807155 L46.15,11.4111658 L50.7,11.4111658 C51.09,11.4111658 51.415,11.3487667 51.675,11.1615695 C51.935,11.0367714 52.13,10.7871751 52.26,10.5999779 C52.39,10.3503816 52.455,10.1007854 52.455,9.85118908 C52.455,9.60159281 52.39,9.35199654 52.26,9.10240026 C52.13,8.85280399 51.935,8.66560678 51.675,8.54080865 C51.415,8.41601051 51.09,8.29121237 50.635,8.29121237 L44.33,8.29121237 C43.875,8.29121237 43.485,8.35361144 43.225,8.54080865 C42.9,8.72800585 42.705,8.97760213 42.575,9.2271984 C42.445,9.53919374 42.38,9.85118908 42.38,10.2255835 L42.38,22.7677962 L42.38,22.7677962 Z M33.215,22.8301953 C33.215,23.2045897 33.28,23.516585 33.475,23.8285804 C33.67,24.0781767 33.865,24.2653739 34.125,24.4525711 C34.385,24.5773692 34.71,24.6397683 35.1,24.6397683 C35.49,24.6397683 35.815,24.5773692 36.075,24.4525711 C36.335,24.3277729 36.595,24.1405757 36.725,23.8285804 C36.855,23.5789841 36.985,23.2045897 36.985,22.8301953 L36.985,11.2863677 L39.78,11.2863677 C40.17,11.2863677 40.495,11.2239686 40.755,11.0367714 C41.015,10.9119732 41.21,10.662377 41.34,10.4751798 C41.47,10.2255835 41.535,9.97598722 41.535,9.72639095 C41.535,9.47679467 41.47,9.2271984 41.34,8.97760213 C41.21,8.72800585 41.015,8.54080865 40.755,8.41601051 C40.495,8.29121237 40.17,8.16641424 39.845,8.16641424 L30.485,8.16641424 C30.095,8.16641424 29.835,8.22881331 29.575,8.41601051 C29.315,8.54080865 29.12,8.79040492 28.99,8.97760213 C28.86,9.2271984 28.795,9.47679467 28.795,9.72639095 C28.795,9.97598722 28.86,10.2255835 28.99,10.4751798 C29.12,10.724776 29.315,10.9119732 29.575,11.0367714 C29.835,11.1615695 30.16,11.2863677 30.55,11.2863677 L33.345,11.2863677 L33.345,22.8301953 L33.215,22.8301953 Z M111.28,24.7645664 C112.32,24.7645664 113.295,24.6397683 114.205,24.3277729 C115.115,24.0781767 115.895,23.6413832 116.61,23.1421906 C117.325,22.6429981 117.975,22.0190074 118.43,21.3326177 C118.95,20.6462279 119.34,19.83504 119.6,19.0238521 C119.86,18.1502652 119.99,17.2766782 119.99,16.3406922 C119.99,15.4047062 119.86,14.5311192 119.6,13.6575323 C119.34,12.7839453 118.95,12.0351565 118.43,11.3487667 C117.91,10.662377 117.325,10.0383863 116.545,9.53919374 C115.83,9.04000119 114.985,8.60320772 114.14,8.35361144 C113.23,8.0416161 112.32,7.91681796 111.28,7.91681796 C110.24,7.91681796 109.265,8.0416161 108.355,8.35361144 C107.445,8.60320772 106.665,9.04000119 105.95,9.53919374 C105.235,10.0383863 104.585,10.662377 104.13,11.3487667 C103.61,12.0351565 103.22,12.8463444 102.96,13.6575323 C102.7,14.5311192 102.57,15.4047062 102.57,16.3406922 C102.57,17.2766782 102.7,18.2126642 102.96,19.0238521 C103.22,19.8974391 103.61,20.6462279 104.13,21.3326177 C104.65,22.0190074 105.235,22.6429981 105.95,23.1421906 C106.665,23.6413832 107.51,24.0781767 108.355,24.3277729 C109.33,24.5773692 110.305,24.7645664 111.28,24.7645664 Z M181.025,21.0830214 C182,21.0830214 182.845,21.8318102 182.845,22.8301953 C182.845,23.7661813 182.065,24.5773692 181.025,24.5773692 C180.05,24.5773692 179.205,23.8285804 179.205,22.8301953 C179.205,21.8318102 179.985,21.0830214 181.025,21.0830214 Z" id="Shape" fill="#FF7112"></path>
            </g>
        </g>
    </g>
</svg>