<?xml version="1.0" standalone="no"?>
<!DOCTYPE svg PUBLIC "-//W3C//DTD SVG 20010904//EN"
 "http://www.w3.org/TR/2001/REC-SVG-20010904/DTD/svg10.dtd">
<svg version="1.0" xmlns="http://www.w3.org/2000/svg"
 width="400.000000pt" height="384.000000pt" viewBox="0 0 400.000000 384.000000"
 preserveAspectRatio="xMidYMid meet">
<metadata>
Created by potrace 1.15, written by Peter Selinger 2001-2017
</metadata>
<g transform="translate(0.000000,384.000000) scale(0.100000,-0.100000)"
fill="#000000" stroke="none">
<path d="M2065 3169 c-38 -4 -85 -12 -104 -18 -19 -6 -38 -8 -42 -5 -5 3 -9 1
-9 -5 0 -6 -6 -8 -13 -5 -7 2 -24 -4 -36 -15 -13 -11 -49 -30 -80 -41 -31 -12
-75 -37 -98 -56 -23 -19 -46 -34 -51 -34 -8 0 -49 -40 -111 -107 -12 -13 -21
-28 -21 -33 0 -6 -10 -30 -22 -53 -15 -28 -24 -69 -29 -122 -5 -70 -3 -89 19
-150 34 -97 67 -160 119 -230 57 -77 102 -151 147 -242 20 -39 40 -74 46 -78
5 -3 22 -31 36 -61 25 -54 26 -56 8 -77 -11 -12 -25 -26 -32 -30 -21 -14 -7
-79 35 -159 21 -40 44 -77 52 -82 7 -4 9 -11 4 -15 -18 -13 -44 -62 -37 -73
11 -18 -49 1 -66 21 -8 9 -24 23 -35 31 -20 14 -20 14 0 -10 12 -14 40 -46 63
-72 23 -26 42 -57 42 -68 0 -11 6 -20 13 -20 11 0 67 -55 67 -66 0 -2 18 -21
40 -44 42 -43 80 -52 107 -24 17 16 68 16 68 -1 0 -5 10 -20 23 -32 17 -18 22
-35 23 -75 0 -29 5 -80 10 -113 8 -54 30 -409 32 -527 1 -27 5 -48 9 -48 4 0
8 -7 8 -15 0 -8 -6 -15 -12 -15 -10 0 -10 -2 -1 -8 7 -4 11 -27 10 -55 -1 -34
2 -46 10 -43 7 3 15 0 19 -6 10 -16 24 14 17 39 -3 13 -1 23 4 23 5 0 7 16 5
35 -2 19 -8 35 -14 35 -5 0 -7 4 -4 8 2 4 -2 41 -10 82 -7 40 -13 89 -11 107
2 30 5 33 37 34 31 1 32 2 10 8 -23 6 -25 12 -28 71 -1 36 -16 178 -33 316
-23 193 -28 260 -21 288 9 32 8 36 -8 36 -10 0 -49 -24 -87 -54 -52 -41 -77
-54 -97 -52 -23 3 -26 0 -20 -18 6 -18 5 -19 -9 -8 -13 11 -14 17 -5 32 9 15
9 25 -2 45 -8 15 -16 22 -18 16 -2 -6 -7 -9 -12 -6 -14 8 1 45 19 46 9 1 32 2
51 3 94 5 100 6 100 20 0 8 -20 29 -45 47 -25 18 -45 33 -45 34 0 5 186 -68
195 -76 5 -5 17 -9 26 -9 30 0 31 -18 2 -34 -15 -8 -22 -15 -15 -16 6 0 12 -7
12 -15 0 -19 17 -19 28 0 6 12 15 13 37 6 17 -5 64 -12 105 -15 l75 -7 -45 25
c-25 14 -71 38 -103 54 -56 29 -57 30 -35 44 37 25 87 80 114 126 15 24 35 53
45 63 10 10 19 24 19 29 0 6 7 10 16 10 14 0 14 3 4 15 -9 11 -9 15 -1 15 7 0
9 5 6 10 -4 6 -2 17 4 24 6 7 15 41 20 77 5 35 14 75 19 89 26 61 30 128 18
288 -4 60 -3 109 2 115 5 7 12 23 15 37 3 14 10 43 16 65 31 114 49 241 34
232 -5 -3 -8 18 -9 46 -2 134 -43 275 -96 334 -11 12 -17 26 -13 33 3 6 1 9
-6 8 -6 -2 -14 3 -17 11 -3 9 0 11 8 6 9 -5 11 -4 6 4 -4 6 -12 9 -17 6 -5 -4
-12 0 -15 9 -14 36 -83 66 -187 80 -110 15 -144 16 -252 5z m348 -556 c61 -78
91 -123 84 -129 -2 -3 -49 -9 -103 -13 -127 -11 -237 7 -271 45 -27 29 -29 47
-8 64 8 7 13 16 10 20 -9 15 18 60 39 65 30 7 83 12 143 13 l52 2 54 -67z
m-64 -251 c9 -29 22 -47 43 -58 31 -16 93 -16 93 1 0 6 4 16 8 23 5 8 2 15
-10 20 -22 9 -30 34 -8 26 8 -4 15 -10 15 -16 0 -5 10 -8 23 -6 37 5 67 -68
67 -165 0 -110 -36 -176 -55 -100 -8 35 -32 73 -45 73 -6 0 -10 -16 -10 -35 0
-41 -7 -43 -45 -13 l-27 21 22 17 c14 11 19 20 12 24 -6 3 -14 1 -17 -4 -5 -7
-12 -5 -20 7 -10 14 -25 18 -64 16 -28 -1 -60 -7 -71 -13 -17 -9 -20 -8 -20
10 0 13 7 20 20 20 11 0 23 8 26 18 3 9 10 25 15 35 6 10 7 27 3 39 -9 30 5
110 19 105 7 -2 18 -22 26 -45z m-269 -134 c8 -1 31 2 51 6 36 8 36 7 31 -24
-6 -42 -34 -57 -108 -59 -68 -1 -87 12 -97 63 l-5 28 57 -6 c31 -4 63 -7 71
-8z"/>
<path d="M3125 1094 c-3 -22 -16 -77 -30 -124 -13 -47 -27 -103 -31 -125 -13
-74 -54 -234 -73 -282 -15 -41 -17 -61 -9 -143 4 -52 14 -106 22 -120 17 -31
32 -115 19 -107 -5 3 -10 -9 -11 -27 -2 -23 3 -36 13 -40 11 -4 15 -21 15 -66
l0 -60 139 0 140 0 -4 37 c-2 21 -8 65 -13 97 -7 45 -6 66 4 85 18 33 17 61
-1 85 -8 11 -15 30 -15 42 0 13 -4 26 -10 29 -5 3 -10 17 -10 31 0 19 -5 24
-25 24 -21 0 -25 5 -25 28 0 15 6 34 13 41 10 11 8 13 -11 8 -17 -4 -22 -2
-18 8 3 10 0 12 -12 8 -14 -5 -15 -3 -4 8 16 18 15 29 -3 29 -9 0 -15 6 -14
13 1 6 -2 21 -6 31 -5 11 -3 45 4 80 18 85 31 231 24 272 -7 45 -29 43 -38 -3
-10 -59 -54 -195 -71 -223 -8 -14 -13 -18 -10 -10 52 163 78 298 70 362 -8 56
-11 58 -19 12z"/>
<path d="M1161 1083 c6 -17 17 -34 25 -37 8 -3 14 -14 14 -25 0 -11 4 -22 8
-25 5 -3 9 -21 10 -41 1 -20 4 -39 6 -44 3 -4 7 -54 9 -112 3 -57 3 -93 0 -79
-2 14 -9 40 -14 57 -9 29 -16 67 -23 123 -1 9 -5 20 -9 26 -3 6 -8 28 -11 48
-4 30 -25 66 -39 66 -2 0 -2 -13 1 -29 3 -22 -1 -29 -17 -34 -24 -6 -29 -37
-6 -37 13 0 13 -2 3 -14 -9 -10 -15 -11 -20 -2 -5 7 -8 5 -8 -6 0 -9 -8 -22
-17 -27 -15 -9 -16 -10 -2 -11 9 0 16 -7 16 -15 0 -21 -13 -19 -36 6 -22 24
-41 18 -41 -12 0 -10 -7 -19 -15 -19 -12 0 -14 -10 -9 -52 3 -29 6 -60 6 -68
1 -8 6 -18 12 -22 7 -5 3 -8 -9 -8 -18 0 -18 -1 3 -16 13 -9 21 -22 18 -29 -3
-8 0 -29 5 -47 22 -69 38 -144 39 -174 0 -16 4 -34 9 -40 10 -11 41 -123 41
-150 0 -16 -3 -15 -26 9 -14 15 -26 38 -26 50 -1 12 -5 27 -9 32 -4 6 -10 26
-14 45 -4 19 -14 43 -23 53 -9 10 -11 17 -4 17 9 0 9 6 0 25 -6 14 -14 25 -18
25 -3 0 -4 15 -2 34 2 18 -2 44 -9 57 -7 13 -13 28 -14 33 0 11 -65 17 -65 6
0 -5 6 -10 13 -13 9 -3 9 -8 -2 -21 -8 -9 -20 -15 -27 -12 -25 10 -24 -26 1
-48 25 -22 26 -22 6 -40 -13 -12 -27 -16 -41 -11 -17 5 -21 3 -18 -6 3 -8 12
-13 21 -13 9 1 14 -2 12 -7 -3 -4 3 -12 12 -18 15 -9 15 -12 4 -20 -10 -6 -10
-10 -1 -16 7 -4 9 -17 5 -32 -5 -20 -3 -24 8 -20 15 6 57 -18 57 -33 0 -4 -16
-4 -35 0 -20 4 -35 4 -35 -1 0 -5 5 -9 10 -9 6 0 10 -4 10 -10 0 -5 -18 -10
-40 -10 -22 0 -40 -5 -40 -10 0 -6 19 -9 43 -8 28 2 41 -1 40 -9 -3 -13 2 -15
85 -33 39 -9 52 -16 50 -28 -2 -9 -7 -14 -12 -13 -5 2 -12 -2 -16 -8 -9 -16
-175 17 -315 64 -11 3 -4 -3 15 -13 50 -28 181 -69 245 -77 68 -9 95 -26 76
-49 -12 -14 -10 -16 10 -16 13 -1 35 -7 49 -15 24 -14 23 -14 -26 -15 -75 0
-251 35 -365 73 -97 32 -101 33 -110 14 -10 -17 -49 -125 -49 -134 0 -1 133
-3 295 -3 229 0 295 3 295 13 0 6 11 22 25 35 13 13 27 40 31 60 8 42 29 78
38 64 3 -5 8 -46 12 -90 l7 -82 349 0 c230 0 347 3 343 10 -3 6 1 10 10 10 9
0 13 -4 10 -10 -4 -6 24 -10 77 -9 46 1 75 3 66 6 -10 2 -18 9 -18 15 0 5 7 7
15 4 50 -20 48 -20 34 3 -8 11 -19 21 -26 21 -13 0 -7 60 8 70 10 7 -1 60 -12
60 -16 0 -9 36 11 57 14 15 16 23 7 27 -9 3 -9 7 2 14 7 6 14 30 15 58 1 42
-2 49 -17 47 -11 0 -23 9 -29 23 -22 47 -34 27 -34 -53 0 -50 -4 -78 -11 -80
-7 -3 -9 -11 -6 -19 3 -8 0 -14 -6 -14 -6 0 -8 -6 -5 -14 3 -7 -2 -16 -10 -19
-12 -5 -15 -16 -11 -48 5 -35 3 -40 -10 -35 -17 6 -40 -38 -31 -61 9 -22 -23
-28 -39 -7 -20 27 -18 33 8 27 19 -4 20 -3 5 6 -12 8 -16 22 -14 51 3 36 1 40
-15 35 -11 -4 -19 -2 -19 4 0 10 13 15 32 12 4 0 0 12 -7 26 -9 17 -11 31 -5
38 6 7 7 15 4 18 -7 7 -14 43 -18 90 -2 15 -6 30 -9 34 -4 3 -2 12 4 19 11 14
-3 31 -54 68 -15 10 -24 23 -21 28 3 5 -4 19 -16 30 -17 16 -19 22 -8 29 10 7
9 9 -5 9 -10 0 -16 4 -13 9 4 5 0 12 -6 14 -9 4 -8 6 2 6 9 1 16 11 17 24 2
21 1 21 -12 4 -11 -15 -17 -17 -34 -7 -12 6 -20 19 -19 28 2 11 -4 17 -18 17
-12 1 -28 6 -35 12 -24 20 -45 -6 -44 -54 0 -24 -2 -43 -5 -43 -15 1 -26 18
-25 39 0 36 -22 37 -40 1 -25 -49 -30 -27 -6 24 14 29 22 64 22 98 0 55 -9
129 -16 137 -3 2 0 10 6 18 9 9 8 13 0 13 -6 0 -11 7 -11 16 0 9 -7 14 -17 12
-13 -2 -20 -17 -24 -49 -10 -65 -26 -93 -43 -77 -8 7 -11 15 -7 18 9 6 7 257
-2 266 -4 4 -7 -1 -7 -10 0 -12 -5 -16 -15 -12 -11 4 -15 -1 -15 -19 0 -14 -5
-25 -11 -25 -5 0 -7 -5 -4 -10 4 -6 1 -17 -5 -25 -7 -8 -10 -21 -7 -29 3 -8 0
-17 -7 -19 -8 -3 -12 -17 -10 -32 2 -19 -1 -24 -8 -17 -5 5 -11 22 -11 36 -1
14 -5 26 -9 26 -5 0 -6 10 -5 21 4 26 -17 92 -31 97 -14 4 -24 -28 -13 -42 9
-11 12 -106 4 -106 -7 0 -33 28 -33 34 0 4 -15 21 -33 39 -18 17 -45 48 -60
67 l-27 35 11 -32z"/>
<path d="M2766 570 c-4 -19 -5 -52 -2 -73 4 -32 3 -38 -10 -33 -9 3 -17 6 -20
6 -2 0 -1 7 2 15 4 8 2 15 -4 15 -5 0 -7 11 -4 25 3 17 0 25 -9 25 -11 0 -11
2 1 10 13 8 13 10 -2 10 -29 0 -49 -12 -40 -24 11 -13 26 -67 23 -80 -4 -18
11 -46 25 -46 8 0 12 -5 9 -10 -4 -6 -2 -16 3 -23 14 -17 35 -124 27 -137 -3
-5 -2 -10 4 -10 6 0 8 -6 5 -14 -3 -8 0 -17 5 -21 6 -3 9 -11 5 -16 -3 -5 0
-16 6 -24 6 -8 10 -29 9 -47 -2 -18 3 -52 11 -76 13 -41 14 -42 57 -42 l44 0
-6 56 c-8 66 -8 67 -35 185 -12 52 -26 101 -30 111 -5 9 -11 36 -14 60 -3 23
-16 77 -29 118 -24 74 -24 74 -31 40z"/>
</g>
</svg>
