<?xml version="1.0" encoding="utf-8"?>
<!DOCTYPE svg PUBLIC "-//W3C//DTD SVG 1.1//EN" "http://www.w3.org/Graphics/SVG/1.1/DTD/svg11.dtd">
<svg id="Favicon" data-name="Calque 1" xmlns="http://www.w3.org/2000/svg" viewBox="0 0 16 16"><defs><style>.cls-1{fill:transparent;}.cls-2{opacity:0.75;}.cls-3{fill:#139cd8;}</style></defs><title>Favicon ACT</title><rect class="cls-1" width="16" height="16"/><path d="M12.59,13.31H10.8L7.88,4.5,5,13.31H3.33L0,2.69H1.71l2.53,8.89L7.13,2.69H8.66l3,8.94,2.69-8.94H16Z" transform="translate(0 0)"/><g class="cls-2"><path class="cls-3" d="M4.41,11.8a6.13,6.13,0,0,1,.35-2.24h0A7.17,7.17,0,0,1,6,7.63H6L8.3,4.88l.86,1L6.85,8.66a5.31,5.31,0,0,0-1,1.51h0a4.31,4.31,0,0,0-.24,1.63H4.41Z" transform="translate(0 0)"/><path class="cls-3" d="M2.49,11.8A8.05,8.05,0,0,1,4.34,6.73h0L7,3.61l.86,1L5.2,7.76a6.48,6.48,0,0,0-1.5,4H2.49Z" transform="translate(0 0)"/><path class="cls-3" d="M.63,11.8a11,11,0,0,1,.51-3.05h0A8.39,8.39,0,0,1,2.57,5.9h0l3-3.56h0a.55.55,0,0,1,.86,0h0a.81.81,0,0,1,0,1h0l-3,3.56A6.94,6.94,0,0,0,2.28,9.25h0a9.6,9.6,0,0,0-.44,2.55h0a.68.68,0,0,1-.6.73h0a.68.68,0,0,1-.61-.73Z" transform="translate(0 0)"/><path class="cls-3" d="M7.7,11.12Zm-.86-1L9.15,7.34a5.31,5.31,0,0,0,1-1.51h0a4.31,4.31,0,0,0,.24-1.63h1.22a6.16,6.16,0,0,1-.35,2.24h0A7.17,7.17,0,0,1,10,8.37h0L7.7,11.12l-.86-1Z" transform="translate(0 0)"/><path class="cls-3" d="M8.18,11.37,10.8,8.24a6.48,6.48,0,0,0,1.5-4h1.21a8,8,0,0,1-1.85,5.06h0L9,12.39H9l-.86-1Z" transform="translate(0 0)"/><path class="cls-3" d="M9.58,13.66a.81.81,0,0,1,0-1h0l3-3.56a6.94,6.94,0,0,0,1.15-2.33h0a9.6,9.6,0,0,0,.44-2.55h0a.68.68,0,0,1,.6-.73h0a.68.68,0,0,1,.61.73h0a11,11,0,0,1-.51,3.05h0a8.48,8.48,0,0,1-1.43,2.85h0l-3,3.56a.56.56,0,0,1-.43.21h0a.57.57,0,0,1-.43-.21Z" transform="translate(0 0)"/></g></svg>