<?xml version="1.0" encoding="utf-8"?>
<!-- Generator: Adobe Illustrator 16.0.0, SVG Export Plug-In . SVG Version: 6.00 Build 0)  -->
<!DOCTYPE svg PUBLIC "-//W3C//DTD SVG 1.1//EN" "http://www.w3.org/Graphics/SVG/1.1/DTD/svg11.dtd">
<svg version="1.1" id="Ebene_1" xmlns="http://www.w3.org/2000/svg" xmlns:xlink="http://www.w3.org/1999/xlink" x="0px" y="0px"
	 width="101.66px" height="101.695px" viewBox="0 0 101.66 101.695" enable-background="new 0 0 101.66 101.695"
	 xml:space="preserve">
<g id="Background">
	<line fill="none" x1="0" y1="101.696" x2="0" y2="0"/>
	<line fill="none" x1="101.66" y1="0" x2="101.66" y2="101.696"/>
</g>
<ellipse fill="#FFFFFF" cx="52.661" cy="51.222" rx="48.88" ry="49.527"/>
<g id="Layer_1">
	<path id="ahlogo" fill="#FE5000" d="M75.609,53.218h-7.988c-8.098,0-10.8,2.026-10.8,7.091c0,5.621,2.702,7.312,10.236,7.312
		c5.31,0,8.019-2.331,8.552-6.809V53.218z M51.156,0C79.078,0.18,101.66,22.869,101.66,50.833c0,5.909-1.019,11.578-2.869,16.853
		h-7.317V38.481c0-13.609-5.063-20.473-22.611-20.473c-16.188,0-22.358,4.508-24.942,15.444l15.055,4.074l0.323,0.055
		c1.013-5.179,2.476-6.754,9.002-6.754c6.299,0,7.312,2.703,7.312,7.204v4.158h-7.426c-20.136,0-26.998,6.306-26.998,19.124
		c0,12.604,6.184,18.675,18.901,18.675c8.772,0,12.711-2.926,15.521-7.198v6.413h17.403c-9.134,13.55-24.613,22.462-42.187,22.462
		c-28.069,0-50.825-22.763-50.825-50.833C0.001,22.762,22.756,0,50.826,0H51.156z"/>
</g>
</svg>
