<?xml version="1.0" encoding="utf-8"?>
<!-- Generator: Adobe Illustrator 16.0.0, SVG Export Plug-In . SVG Version: 6.00 Build 0)  -->
<!DOCTYPE svg PUBLIC "-//W3C//DTD SVG 1.1//EN" "http://www.w3.org/Graphics/SVG/1.1/DTD/svg11.dtd">
<svg version="1.1" id="Ebene_1" xmlns="http://www.w3.org/2000/svg" xmlns:xlink="http://www.w3.org/1999/xlink" x="0px" y="0px"
	 width="101.659px" height="101.695px" viewBox="0 0 101.659 101.695" enable-background="new 0 0 101.659 101.695"
	 xml:space="preserve">
<g id="Background">
	<line fill="#FFFFFF" x1="0" y1="101.696" x2="0" y2="0"/>
	<line fill="#FFFFFF" x1="101.659" y1="0" x2="101.659" y2="101.696"/>
</g>
<g id="Layer_1">
	<path id="ahlogo" fill="#FE5000" d="M75.609,53.218h-7.989c-8.097,0-10.799,2.026-10.799,7.09c0,5.621,2.702,7.312,10.236,7.312
		c5.309,0,8.018-2.331,8.552-6.809V53.218z M51.156,0c27.922,0.18,50.503,22.869,50.503,50.833c0,5.909-1.018,11.578-2.868,16.852
		h-7.318V38.481c0-13.609-5.064-20.472-22.611-20.472c-16.188,0-22.358,4.507-24.942,15.444l15.055,4.074l0.324,0.055
		c1.012-5.179,2.475-6.754,9.001-6.754c6.299,0,7.312,2.703,7.312,7.204v4.158h-7.426c-20.136,0-26.998,6.306-26.998,19.124
		c0,12.604,6.184,18.675,18.902,18.675c8.772,0,12.711-2.926,15.521-7.198v6.413h17.403c-9.133,13.55-24.613,22.462-42.187,22.462
		c-28.069,0-50.825-22.763-50.825-50.833C0.001,22.762,22.756,0,50.826,0H51.156z"/>
</g>
</svg>
