<svg xmlns="http://www.w3.org/2000/svg" xmlns:xlink="http://www.w3.org/1999/xlink" viewBox="0 0 1000 1000" height="1000" width="1000"><defs><linearGradient id="a"><stop offset="0" stop-color="#cfcfcf" stop-opacity=".267"/><stop offset="1" stop-opacity="0"/></linearGradient><filter id="c" color-interpolation-filters="sRGB"><feFlood result="flood" flood-color="#87680D" flood-opacity="1"/><feComposite result="composite1" operator="in" in2="SourceGraphic" in="flood"/><feGaussianBlur result="blur" stdDeviation="8" in="composite1"/><feOffset result="offset"/><feComposite result="composite2" in2="offset" in="SourceGraphic"/></filter><linearGradient gradientUnits="userSpaceOnUse" y2="824.437" x2="474.872" y1="716.957" x1="380.411" id="d" xlink:href="#a"/><filter height="1.418" y="-.209" width="1.418" x="-.209" id="b" color-interpolation-filters="sRGB"><feGaussianBlur stdDeviation="64.963"/></filter></defs><g transform="translate(0 253.295)"><circle cx="500" cy="246.705" r="373.352" filter="url(#b)"/><circle cx="500" cy="246.705" r="373.352" fill="#fff" filter="url(#c)"/></g><path d="M353.54 685.468l-43.84 74.61 123.902 124.13c23.287-35.38 83.81-43.423 72.01-61.633 16.106-2.793 11.016-31.52 20.172-46.288l-88.782-89.164z" fill="url(#d)" transform="translate(126.648 -153.083)"/><path d="M744 349.53L631.76 256l-31.476 37.072 112.24 93.53zM399.472 293.072L368.24 256 256 349.287l31.476 37.073zM436.344 460.99v146.02l127.312-72.977-127.312-73.043z" fill="#00b0ff"/><path d="M500 307.853c-121.267 0-219.6 97.648-219.6 218.073C280.4 646.35 378.49 744 500 744c121.27 0 219.6-97.65 219.6-218.074 0-120.425-98.33-218.073-219.6-218.073zm0 48.46c94.43 0 170.8 75.84 170.8 169.613 0 93.77-76.37 169.613-170.8 169.613-94.427 0-170.8-75.843-170.8-169.614 0-93.772 76.373-169.612 170.8-169.612z" fill="#00b0ff"/></svg>