<?xml version="1.0" standalone="no"?>
<!DOCTYPE svg PUBLIC "-//W3C//DTD SVG 20010904//EN"
 "http://www.w3.org/TR/2001/REC-SVG-20010904/DTD/svg10.dtd">
<svg version="1.0" xmlns="http://www.w3.org/2000/svg"
 width="620.000000pt" height="620.000000pt" viewBox="0 0 620.000000 620.000000"
 preserveAspectRatio="xMidYMid meet">
<metadata>
Created by potrace 1.11, written by Peter Selinger 2001-2013
</metadata>
<g transform="translate(0.000000,620.000000) scale(0.100000,-0.100000)"
fill="#ff6a00" stroke="none">
<path d="M2890 6194 c-132 -12 -319 -38 -424 -60 -927 -195 -1714 -801 -2140
-1651 -427 -854 -434 -1866 -17 -2728 647 -1337 2131 -2025 3572 -1655 667
171 1275 579 1695 1136 713 947 822 2213 283 3274 -194 383 -480 733 -819
1006 -449 360 -965 580 -1550 659 -110 15 -504 27 -600 19z m1006 -1598 c314
-62 474 -200 499 -431 9 -79 -14 -187 -60 -285 -68 -143 -174 -288 -480 -659
-220 -267 -258 -338 -204 -387 18 -16 35 -19 112 -17 249 6 644 89 1019 214
166 55 545 201 611 235 16 9 31 13 34 11 14 -15 -403 -236 -692 -367 -809
-367 -1329 -456 -1442 -247 -12 22 -18 54 -17 104 0 63 4 80 42 155 51 103
120 194 316 418 254 291 356 418 440 547 64 99 86 155 86 216 -1 133 -111 209
-454 312 l-118 35 -34 -21 c-19 -11 -34 -22 -34 -23 0 -2 27 -24 60 -50 33
-26 60 -51 60 -55 0 -4 -46 -16 -102 -25 -149 -26 -427 -89 -619 -141 -181
-48 -628 -192 -643 -206 -6 -5 2 -37 19 -80 l28 -71 -108 -108 -107 -107 31
-11 c72 -25 228 -36 332 -22 148 18 335 89 434 164 20 14 19 15 -12 42 -18 15
-33 31 -33 35 0 13 62 -11 98 -38 39 -29 60 -68 69 -128 l6 -45 -32 0 c-29 0
-31 2 -31 39 0 22 -4 42 -8 45 -4 2 -30 -9 -57 -26 -81 -51 -224 -114 -315
-139 -74 -21 -107 -24 -255 -24 -145 1 -181 4 -248 23 -42 12 -79 22 -82 22
-3 0 -5 -57 -5 -127 l0 -128 -89 -43 c-159 -78 -287 -195 -312 -284 -52 -194
263 -282 759 -213 134 19 332 57 444 85 44 12 82 19 84 17 5 -5 -177 -90 -309
-143 -337 -136 -739 -195 -984 -145 -175 36 -302 121 -360 239 -35 73 -44 205
-19 302 74 290 407 712 776 983 386 285 931 502 1425 567 101 13 385 5 481
-14z m-2193 -2611 l97 -195 -65 0 -65 0 -20 40 -20 40 -106 0 -106 0 -15 -40
-16 -40 -59 0 c-32 0 -58 3 -58 6 0 4 44 91 98 195 l97 189 70 0 70 0 98 -195z
m217 -1 l0 -195 -52 3 -53 3 -2 193 -2 192 55 0 54 0 0 -196z m180 161 l0 -35
-55 0 -55 0 0 35 0 35 55 0 55 0 0 -35z m180 -35 c0 -38 3 -70 8 -70 4 1 18 7
32 15 33 19 114 19 150 0 41 -21 60 -63 60 -134 0 -49 -4 -65 -25 -89 -13 -16
-38 -35 -55 -42 -39 -16 -115 -8 -141 16 -19 17 -21 18 -30 1 -7 -12 -23 -17
-59 -17 l-50 0 0 195 0 195 55 0 55 0 0 -70z m810 -5 l0 -75 40 21 c51 27 138
23 171 -7 47 -41 62 -124 35 -189 -31 -73 -138 -99 -210 -50 -34 23 -36 23
-36 5 0 -18 -7 -20 -55 -20 l-55 0 0 195 0 195 55 0 55 0 0 -75z m1058 -45
c36 -22 36 -23 21 -51 -10 -19 -10 -19 -36 1 -37 29 -86 26 -124 -8 -26 -24
-32 -36 -32 -72 0 -36 6 -48 32 -72 38 -34 87 -37 124 -8 26 20 26 20 36 1 15
-28 15 -29 -21 -51 -96 -58 -218 15 -218 131 0 112 124 186 218 129z m293 -2
c41 -23 79 -84 79 -128 0 -13 -9 -42 -20 -65 -38 -79 -141 -109 -211 -62 -94
62 -90 199 7 254 49 29 96 29 145 1z m-2343 -130 l3 -138 -56 0 -55 0 0 141 0
140 53 -3 52 -3 3 -137z m769 122 c34 -22 43 -54 43 -160 l0 -100 -45 0 c-29
0 -48 5 -51 14 -4 11 -12 10 -42 -5 -22 -12 -57 -19 -90 -19 -46 0 -58 4 -83
29 -31 31 -35 53 -19 95 14 39 59 56 143 56 40 0 76 3 80 6 11 11 -5 35 -29
45 -25 9 -74 -6 -74 -23 0 -4 -25 -8 -55 -8 -40 0 -55 4 -55 14 0 19 47 64 73
70 43 9 182 0 204 -14z m803 2 c50 -24 60 -52 60 -164 l0 -98 -49 0 c-33 0
-51 5 -54 14 -5 12 -12 11 -44 -5 -44 -23 -113 -25 -152 -4 -31 16 -41 33 -41
71 0 66 47 94 155 94 73 0 76 1 73 23 -2 18 -10 23 -44 25 -27 2 -45 -2 -54
-13 -8 -10 -29 -15 -61 -15 -41 0 -49 3 -49 18 0 22 25 47 60 61 43 17 161 13
200 -7z m950 3 c0 -19 9 -19 34 0 28 21 92 19 114 -3 17 -17 19 -17 47 0 43
26 91 23 120 -7 24 -23 25 -30 25 -140 l0 -115 -25 0 -25 0 0 110 c0 98 -2
110 -19 120 -28 14 -52 12 -73 -7 -15 -14 -18 -32 -18 -120 l0 -103 -25 0 -25
0 0 104 c0 82 -3 108 -16 120 -22 23 -51 20 -79 -9 -23 -22 -25 -32 -25 -120
0 -95 0 -95 -25 -95 l-25 0 0 133 c0 74 3 137 7 140 12 13 33 7 33 -8z m-750
-245 c0 -13 -7 -20 -20 -20 -13 0 -20 7 -20 20 0 13 7 20 20 20 13 0 20 -7 20
-20z"/>
<path d="M1492 2015 l-32 -65 65 0 c36 0 65 2 65 4 0 12 -54 126 -59 126 -4 0
-21 -29 -39 -65z"/>
<path d="M2313 2008 c-27 -13 -47 -68 -38 -100 13 -40 36 -58 75 -58 49 0 73
27 73 82 0 33 -6 47 -27 65 -29 25 -49 28 -83 11z"/>
<path d="M3115 1995 c-32 -31 -34 -96 -5 -125 20 -20 74 -27 96 -12 19 12 34
49 34 82 0 38 -39 80 -75 80 -14 0 -37 -11 -50 -25z"/>
<path d="M4299 2001 c-62 -62 -20 -171 66 -171 47 0 71 13 90 50 19 38 19 65
-2 100 -33 57 -107 67 -154 21z"/>
<path d="M2708 1903 c-41 -11 -26 -63 18 -63 27 0 74 20 74 31 0 4 3 14 6 23
5 13 -2 16 -37 15 -24 -1 -51 -3 -61 -6z"/>
<path d="M3523 1900 c-41 -17 -21 -60 27 -60 34 0 70 26 70 51 0 15 -7 19 -37
18 -21 0 -48 -4 -60 -9z"/>
</g>
</svg>
