<?xml version="1.0" encoding="utf-8"?>
<!-- Generator: Adobe Illustrator 22.0.0, SVG Export Plug-In . SVG Version: 6.00 Build 0)  -->
<svg version="1.1" id="Layer_1" xmlns="http://www.w3.org/2000/svg" xmlns:xlink="http://www.w3.org/1999/xlink" x="0px" y="0px"
	 viewBox="0 0 1000 200" style="enable-background:new 0 0 1000 200;" xml:space="preserve">
<style type="text/css">
	.st0{fill:#ED1C24;}
</style>
<g>
	<g>
		<path class="st0" d="M543.3,86.1c19.5,0,35.3,16.8,35.3,36.5c0,20.1-15.7,36.8-35.3,36.8S508,142.7,508,122.6
			C508,102.9,523.8,86.1,543.3,86.1z M543.3,144.4c11,0,19.7-9.8,19.7-21.8c0-11.7-8.7-21.3-19.7-21.3s-19.7,9.6-19.7,21.3
			C523.6,134.6,532.3,144.4,543.3,144.4z"/>
		<path class="st0" d="M587.3,91.2c0-1.7,1.6-3.3,3.3-3.3h5.1c1.4,0,2.4,0.9,2.8,2.1l2.1,5.9c1.2-1.4,10.5-9.8,24.4-9.8
			c21.3,0,29.1,15,29.1,33.2v35.1c0,1.7-1.6,3.3-3.3,3.3h-9.9c-1.9,0-3.3-1.6-3.3-3.3v-35.8c0-11.2-5.4-17.3-14.5-17.3
			c-11,0-18.5,8-19.4,10.5v42.6c0,2.3-1,3.3-4,3.3h-9.1c-1.7,0-3.3-1.6-3.3-3.3V91.2z"/>
		<path class="st0" d="M697,86.1c18.2,0,32.1,13.6,32.1,32.3c0,1.2-0.2,3.5-0.3,4.7c-0.2,1.7-1.6,3-3.1,3h-47.5
			c0.5,9.4,8.7,18.7,20.1,18.7c6.3,0,12-2.8,15.5-5.1c2.1-1.2,3.3-1.9,4.7-0.2l4.9,6.6c1.2,1.4,1.7,2.8-0.3,4.5
			c-5.1,4.4-14.1,8.7-25.8,8.7c-21.1,0-35.1-16.6-35.1-36.6C662.1,103,676.1,86.1,697,86.1z M712.9,115.1
			c-0.5-8.4-7.5-15.5-16.1-15.5c-9.4,0-16.8,6.8-17.8,15.5H712.9z"/>
		<path class="st0" d="M753.9,184.6c0,1.9-1.2,3.3-3.7,3.3h-9.8c-1.7,0-3.3-1.6-3.3-3.3V91.2c0-1.7,1.6-3.3,3.3-3.3h5.2
			c1.4,0,2.3,0.7,3,2.3l1.7,4.5c1.2-1.2,8.4-8.5,21.3-8.5c19.2,0,33.3,16.8,33.3,36.8c0,20.4-15,36.5-34,36.5
			c-9.1,0-15.9-4-17.1-4.7V184.6z M768.9,144.4c11.5,0,19.9-9.6,19.9-21.5c0-11.7-7.3-21.6-19.2-21.6c-10.1,0-15.4,8-16.1,10.1v27.9
			C753.6,139.3,759.7,144.4,768.9,144.4z"/>
		<path class="st0" d="M836.8,113.5c7.3,0,13.8,2.1,13.8,2.1c0.2-11-1.9-15.4-10.8-15.4c-8,0-15.9,2.1-19.5,3.1
			c-2.1,0.5-3.3-0.9-3.8-2.8l-1.4-6.5c-0.5-2.3,0.7-3.5,2.3-4c1.2-0.5,11.2-4,24.1-4c22.3,0,24.4,13.6,24.4,31.1v37.2
			c0,1.7-1.6,3.3-3.3,3.3h-4.9c-1.6,0-2.3-0.7-3-2.4l-1.7-4.7c-3.8,3.7-10.6,8.9-21.5,8.9c-13.1,0-22.5-8.9-22.5-23.4
			C808.9,123.3,819,113.5,836.8,113.5z M834.7,147c7,0,13.6-5.2,15.7-8.7v-11.2c-1-0.7-5.9-2.8-12.2-2.8c-8.4,0-14.1,4.4-14.1,11.5
			C824.1,142.1,828.3,147,834.7,147z"/>
		<path class="st0" d="M874.8,148.6l3.7-6.8c0.7-1.4,2.6-1.9,4.4-0.9c0,0,7.7,4.5,16.2,4.5c5.2,0,8.6-2.1,8.6-5.9
			c0-4.7-3.8-7-13.4-11.3c-10.8-4.7-19.9-11.3-19.9-22.9c0-8.7,7.2-19.2,23.9-19.2c9.8,0,17.1,3.1,20.6,5.4c1.6,1,2.4,3.3,1.4,5.1
			l-3.1,5.9c-0.9,1.6-3.1,2.1-4.5,1.4c0,0-7.7-3.7-14.3-3.7c-5.9,0-7.9,2.6-7.9,5.2c0,4.5,4.4,6.5,11.2,9.4
			c12.7,5.6,23.2,11,23.2,24.1c0,10.8-10.3,20.4-25.8,20.4c-11.7,0-19.4-4.2-23-7.2C874.8,151.6,874.1,150,874.8,148.6z"/>
		<path class="st0" d="M928.6,148.6l3.7-6.8c0.7-1.4,2.6-1.9,4.4-0.9c0,0,7.7,4.5,16.2,4.5c5.2,0,8.6-2.1,8.6-5.9
			c0-4.7-3.8-7-13.4-11.3c-10.8-4.7-19.9-11.3-19.9-22.9c0-8.7,7.2-19.2,23.9-19.2c9.8,0,17.1,3.1,20.6,5.4c1.6,1,2.4,3.3,1.4,5.1
			l-3.1,5.9c-0.9,1.6-3.1,2.1-4.5,1.4c0,0-7.7-3.7-14.3-3.7c-5.9,0-7.9,2.6-7.9,5.2c0,4.5,4.4,6.5,11.2,9.4
			c12.7,5.6,23.2,11,23.2,24.1c0,10.8-10.3,20.4-25.8,20.4c-11.7,0-19.4-4.2-23-7.2C928.6,151.6,927.9,150,928.6,148.6z"/>
	</g>
	<g>
		<path d="M325.4,38.8h-31.5c-2.3,0-3.9-1.9-3.9-3.9V18c0-2.1,1.6-3.9,3.9-3.9h89.9c2.3,0,3.9,1.9,3.9,3.9v16.9
			c0,2.1-1.6,3.9-3.9,3.9h-31.5v115.4c0,2.1-1.9,3.9-3.9,3.9h-19.1c-2.1,0-3.9-1.9-3.9-3.9V38.8z"/>
		<path d="M390.4,138l7.4-12.8c1.6-2.9,5.1-2.9,7-1.4c1,0.6,17.7,12.8,31.1,12.8c10.7,0,18.7-7,18.7-15.8c0-10.5-8.8-17.7-26.1-24.7
			c-19.3-7.8-38.7-20.2-38.7-44.4c0-18.3,13.6-39.5,46.3-39.5c21,0,37,10.7,41.2,13.8c2.1,1.2,2.7,4.7,1.2,6.8l-7.8,11.7
			c-1.6,2.5-4.7,4.1-7.2,2.5c-1.6-1-17.3-11.3-28.6-11.3c-11.7,0-18.1,7.8-18.1,14.4c0,9.7,7.6,16.3,24.3,23c20,8,43,20,43,46.5
			c0,21.2-18.3,40.7-47.3,40.7c-25.9,0-41.2-12.1-45.3-16C389.6,142.3,388.6,141.3,390.4,138z"/>
		<path d="M256.5,99.9c17.9-7.2,30.5-22.6,30.5-41.6c0-24.5-20.2-44.2-44.9-44.2h-58.8c-2.3,0-3.9,1.9-3.9,3.9v136.2
			c0,2.1,1.6,3.9,3.9,3.9h18.9c2.2,0,3.9-1.8,3.9-3.9v-16.6v-35.8v-63h0.2h7.4l25.9,0c11,0,20.6,9,20.6,20
			c0,11.5-9.5,20.9-20.4,20.9h-16.3c-2.6,0-4.4,2.8-3.2,5.2l8.5,16.9h0l27.4,54.5c0.4,0.8,1.4,1.9,3.3,1.9h21.6c3.5,0,4.9-3.3,3.5-6
			L256.5,99.9z"/>
		<path d="M126.6,17.6c1.2-2.2-0.4-4.8-2.8-4.8H98.5c-1.2,0-2.3,0.7-2.8,1.7l-49.9,93.2l0,0l-23.6,43.8c-1.6,3,0,6.7,3.9,6.7h24.2
			c2.1,0,3.2-1.2,3.7-2.1l16.4-32.6h24.9h18.1c1.9,0,3.4-1.5,3.4-3.4v-17.7c0-1.9-1.5-3.4-3.4-3.4H83.1l5.1-9.5v0L126.6,17.6z"/>
		<path class="st0" d="M158.3,14.1h-9.5c-1.4,0-2.6,0.7-3.2,1.9l-27.4,51.2c-1,1.8,0.3,4.1,2.4,4.1h14.7v29.3v26v17.9v9.7
			c0,2.1,1.6,3.9,3.9,3.9h18.9c2.2,0,3.9-1.8,3.9-3.9v-16.6v-11.4v-5.3V67.8V52.9V17.8C162,15.7,160.3,14.1,158.3,14.1z"/>
	</g>
</g>
</svg>
