<?xml version="1.0" encoding="utf-8"?>
<!-- Generator: Adobe Illustrator 16.0.0, SVG Export Plug-In . SVG Version: 6.00 Build 0)  -->
<!DOCTYPE svg PUBLIC "-//W3C//DTD SVG 1.1//EN" "http://www.w3.org/Graphics/SVG/1.1/DTD/svg11.dtd">
<svg version="1.1" id="Layer_1" xmlns="http://www.w3.org/2000/svg" xmlns:xlink="http://www.w3.org/1999/xlink" x="0px" y="0px"
	 width="2000px" height="2000px" viewBox="0 0 2000 2000" enable-background="new 0 0 2000 2000" xml:space="preserve">
<g>
	<g display="none">
		<g display="inline">
			<g>
				<path fill="#F6851F" d="M715.336,1721.139l-0.418-73.32l-27.675,0.158l-0.056-9.811l66.58-0.379l0.056,9.811l-27.79,0.158
					l0.418,73.318L715.336,1721.139z"/>
			</g>
			<g>
				<path fill="#F6851F" d="M771.179,1720.818l31.784-83.313l11.975-0.068l34.854,82.934l-12.663,0.072l-9.941-25.121l-35.123,0.199
					l-9.082,25.23L771.179,1720.818z M795.222,1686.545l28.477-0.164l-8.897-22.971c-2.714-6.979-4.734-12.713-6.058-17.205
					c-1.04,5.336-2.518,10.639-4.436,15.904L795.222,1686.545z"/>
			</g>
			<g>
				<path fill="#F6851F" d="M921.262,1687.355l-0.056-9.752l35.582-0.26l0.176,30.848c-5.439,4.34-11.054,7.615-16.847,9.82
					c-5.793,2.207-11.746,3.328-17.858,3.363c-8.25,0.047-15.757-1.658-22.519-5.117c-6.762-3.457-11.881-8.486-15.356-15.082
					c-3.476-6.594-5.237-13.977-5.283-22.141c-0.046-8.09,1.62-15.652,4.999-22.684c3.378-7.031,8.267-12.268,14.665-15.707
					c6.397-3.438,13.779-5.182,22.145-5.229c6.075-0.035,11.569,0.906,16.489,2.826s8.783,4.609,11.592,8.07
					c2.807,3.463,4.955,7.986,6.437,13.572l-10.009,2.779c-1.285-4.225-2.871-7.543-4.756-9.953c-1.887-2.408-4.57-4.33-8.055-5.766
					s-7.348-2.143-11.587-2.117c-5.08,0.029-9.469,0.818-13.166,2.371c-3.697,1.553-6.674,3.582-8.932,6.09
					c-2.259,2.508-4.01,5.26-5.253,8.254c-2.11,5.152-3.147,10.734-3.113,16.746c0.042,7.408,1.366,13.602,3.974,18.576
					c2.606,4.975,6.381,8.66,11.322,11.051s10.181,3.57,15.72,3.539c4.813-0.027,9.507-0.971,14.08-2.83
					c4.572-1.859,8.037-3.836,10.395-5.93l-0.09-15.48L921.262,1687.355z"/>
			</g>
			<g>
				<path fill="#F6851F" d="M996.427,1719.533l-0.475-83.129l11.117-0.063l0.418,73.318l41.369-0.236l0.057,9.811L996.427,1719.533z
					"/>
			</g>
			<g>
				<path fill="#F6851F" d="M1087.509,1719.014l-0.475-83.129l11.115-0.063l0.475,83.129L1087.509,1719.014z"/>
			</g>
			<g>
				<path fill="#F6851F" d="M1141.573,1718.705l-0.475-83.129l11.404-0.064l44.49,65.014l-0.373-65.266l10.658-0.061l0.475,83.129
					l-11.404,0.064l-44.49-65.072l0.373,65.324L1141.573,1718.705z"/>
			</g>
			<g>
				<path fill="#F6851F" d="M1250.13,1718.086l-0.475-83.129l60.736-0.346l0.055,9.809l-49.619,0.283l0.145,25.461l46.469-0.266
					l0.055,9.754l-46.467,0.264l0.16,28.297l51.568-0.295l0.057,9.811L1250.13,1718.086z"/>
			</g>
		</g>
		<g display="inline">
			<path fill="#282561" d="M184.161,1550.398c-9.288,4.662-27.89,9.377-51.758,9.514c-55.303,0.316-97.124-34.014-97.487-97.674
				c-0.347-60.781,41.042-102.211,101.875-102.559c24.45-0.139,39.906,4.959,46.621,8.377l-5.995,20.486
				c-9.632-4.553-23.332-7.932-39.632-7.84c-45.989,0.264-76.385,29.531-76.094,80.518c0.271,47.529,28.097,77.906,75.833,77.633
				c15.427-0.088,31.126-3.346,41.286-8.301L184.161,1550.398z"/>
			<path fill="#282561" d="M338.934,1484.988c0.294,51.563-35.671,74.236-69.726,74.432c-38.13,0.217-67.686-27.27-67.938-71.342
				c-0.266-46.664,30.431-74.207,69.435-74.43C311.163,1413.418,338.69,1442.355,338.934,1484.988z M227.17,1487.066
				c0.174,30.533,18.061,53.477,43.093,53.334c24.45-0.139,42.657-23,42.478-54.398c-0.134-23.621-12.24-53.512-42.511-53.338
				C239.96,1432.836,227.02,1460.564,227.17,1487.066z"/>
			<path fill="#282561" d="M371.064,1453.982c-0.082-14.402-0.44-26.211-1.379-37.73l22.412-0.127l1.292,22.463l0.873-0.006
				c7.783-13.295,20.811-25.756,44.096-25.889c19.211-0.111,33.831,11.328,40.036,27.713l0.583-0.004
				c4.321-7.801,9.817-13.883,15.614-18.236c8.405-6.385,17.699-9.895,31.088-9.973c18.628-0.105,46.349,11.836,46.625,60.229
				l0.469,82.096l-25.032,0.145l-0.45-78.928c-0.153-26.791-10.142-42.865-30.808-42.748c-14.554,0.084-25.845,10.807-30.14,23.219
				c-1.145,3.463-1.992,8.076-1.966,12.686l0.492,86.129l-25.032,0.143l-0.477-83.535c-0.126-22.182-10.115-38.256-29.617-38.145
				c-16.008,0.092-27.579,12.832-31.582,25.529c-1.434,3.754-1.992,8.078-1.967,12.398l0.48,84.113l-25.032,0.143L371.064,1453.982z
				"/>
			<path fill="#282561" d="M613.86,1460.375c-0.103-17.861-0.767-32.26-1.424-45.508l22.995-0.131l1.3,23.902l0.583-0.004
				c10.381-17.055,26.915-27.23,49.91-27.363c34.055-0.193,59.832,28.178,60.074,70.523c0.286,50.121-30.426,75.07-63.608,75.26
				c-18.628,0.105-34.975-7.867-43.494-21.646l-0.582,0.004l0.432,75.76l-25.323,0.145L613.86,1460.375z M639.395,1497.389
				c0.021,3.744,0.624,7.199,1.223,10.363c4.758,17.545,20.254,29.557,38.591,29.451c27.07-0.154,42.662-22.137,42.479-54.111
				c-0.159-27.941-15.14-51.766-42.21-51.611c-17.464,0.1-33.693,12.58-38.532,31.619c-0.855,3.174-1.707,6.924-1.688,10.381
				L639.395,1497.389z"/>
			<path fill="#282561" d="M858.017,1552.891l-2.138-17.561l-0.873,0.006c-7.797,10.99-22.876,20.871-42.96,20.986
				c-28.524,0.162-43.191-19.631-43.307-39.795c-0.192-33.703,29.974-52.311,84.405-52.334l-0.016-2.881
				c-0.066-11.521-3.386-32.242-32.202-32.078c-13.098,0.074-26.755,4.186-36.616,10.578l-5.917-16.674
				c11.6-7.557,28.455-12.549,46.21-12.65c43.078-0.246,53.723,28.787,53.882,56.73l0.298,52.137
				c0.069,12.1,0.719,23.906,2.519,33.402L858.017,1552.891z M853.827,1481.762c-27.946-0.416-59.646,4.662-59.491,31.738
				c0.094,16.42,11.199,24.135,24.297,24.061c18.337-0.105,29.915-11.695,33.922-23.527c0.858-2.598,1.424-5.482,1.409-8.074
				L853.827,1481.762z"/>
			<path fill="#282561" d="M919.724,1450.852c-0.082-14.402-0.44-26.211-1.38-37.73l22.702-0.129l1.588,23.037l0.582-0.004
				c6.91-13.289,23.134-26.346,46.422-26.479c19.501-0.111,49.837,11.238,50.111,59.055l0.475,83.25l-25.613,0.145l-0.459-80.367
				c-0.129-22.469-8.676-41.145-32.835-41.006c-16.884,0.096-29.913,11.98-34.198,26.121c-1.146,3.176-1.703,7.5-1.68,11.82
				l0.479,83.824l-25.613,0.146L919.724,1450.852z"/>
			<path fill="#282561" d="M1086.583,1412.162l31.324,82.209c3.254,9.199,6.809,20.125,9.184,28.465l0.582-0.002
				c2.572-8.369,5.424-19.045,8.857-29.146l27.477-81.967l27.07-0.154l-37.854,99.598c-18.066,47.924-30.441,72.48-47.82,87.559
				c-12.453,11.018-24.943,15.408-31.342,16.598l-6.525-21.279c6.393-2.053,14.811-6.135,22.342-12.516
				c6.955-5.512,15.631-15.355,21.379-28.352c1.148-2.6,2.01-4.621,2.002-6.061s-0.602-3.453-1.783-6.615l-52.834-128.178
				L1086.583,1412.162z"/>
			<path fill="#282561" d="M1277.731,1550.496l-1.107-194.15l27.65-0.158l63.432,97.867c14.684,22.674,26.152,43.063,35.58,62.885
				l0.582-0.291c-2.479-25.912-3.195-49.529-3.367-79.775l-0.463-81.232l23.867-0.135l1.107,194.148l-25.613,0.146l-62.852-98.158
				c-13.803-21.527-27.029-43.633-37.045-64.605l-0.871,0.295c1.594,24.475,2.311,47.805,2.494,80.066l0.473,82.961
				L1277.731,1550.496z"/>
			<path fill="#282561" d="M1546.386,1548.963l-2.137-17.561l-0.875,0.006c-7.795,10.99-22.875,20.871-42.959,20.984
				c-28.525,0.164-43.191-19.629-43.307-39.793c-0.191-33.703,29.973-52.311,84.406-52.334l-0.018-2.881
				c-0.064-11.521-3.385-32.244-32.201-32.078c-13.098,0.074-26.756,4.184-36.615,10.578l-5.918-16.674
				c11.6-7.557,28.455-12.549,46.209-12.65c43.078-0.246,53.725,28.787,53.883,56.729l0.299,52.139
				c0.068,12.098,0.717,23.906,2.518,33.402L1546.386,1548.963z M1542.196,1477.834c-27.945-0.416-59.645,4.662-59.49,31.738
				c0.094,16.42,11.199,24.135,24.297,24.061c18.338-0.105,29.914-11.695,33.922-23.529c0.859-2.596,1.424-5.48,1.41-8.072
				L1542.196,1477.834z"/>
			<path fill="#282561" d="M1608.093,1446.922c-0.082-14.402-0.441-26.211-1.379-37.729l22.412-0.127l1.291,22.463l0.873-0.006
				c7.785-13.297,20.813-25.758,44.098-25.891c19.211-0.109,33.83,11.33,40.035,27.715l0.582-0.004
				c4.322-7.803,9.818-13.883,15.615-18.238c8.404-6.385,17.699-9.895,31.088-9.971c18.629-0.105,46.35,11.836,46.625,60.229
				l0.469,82.096l-25.031,0.143l-0.451-78.928c-0.152-26.789-10.141-42.863-30.807-42.746
				c-14.553,0.084-25.844,10.807-30.139,23.219c-1.145,3.463-1.992,8.076-1.967,12.686l0.492,86.129l-25.031,0.143l-0.477-83.537
				c-0.127-22.18-10.115-38.254-29.617-38.143c-16.01,0.09-27.58,12.832-31.582,25.529c-1.434,3.754-1.992,8.078-1.967,12.398
				l0.479,84.113l-25.031,0.143L1608.093,1446.922z"/>
			<path fill="#282561" d="M1865.315,1482.039c0.777,34.275,22.979,48.264,48.594,48.119c18.338-0.105,29.379-3.338,38.963-7.424
				l4.469,18.121c-9,4.084-24.4,8.783-46.813,8.91c-43.369,0.248-69.436-27.836-69.676-69.891
				c-0.24-42.057,24.602-75.326,65.645-75.561c45.988-0.262,58.441,39.707,58.588,65.346c0.029,5.186-0.529,9.221-0.807,11.814
				L1865.315,1482.039z M1940.308,1463.463c0.199-16.133-6.93-41.154-35.746-40.99c-25.904,0.148-37.121,23.834-39.059,41.418
				L1940.308,1463.463z"/>
		</g>
	</g>
	<g>
		<path fill="#FFFFFF" d="M1000.002,375.121c-501.161,0-907.433,173.148-907.433,386.738c0,213.592,406.271,386.741,907.433,386.741
			c501.157,0,907.429-173.149,907.429-386.741C1907.431,548.27,1501.159,375.121,1000.002,375.121z M1000.002,1129.451
			c-409.488,0-741.444-164.578-741.444-367.592c0-203.014,331.956-367.589,741.444-367.589c409.485,0,741.44,164.575,741.44,367.589
			C1741.442,964.874,1409.487,1129.451,1000.002,1129.451z"/>
		<g>
			<path fill="#F6851F" d="M1250.782,833.436l7.529-1.537l42.154-8.625l293.174-59.925l-292.873-61.4l-42.105-8.83l-7.514-1.585
				c-7.896-28.25-20.436-54.583-36.748-78.093l125.113-189.399l-190.031,124.163c-23.434-16.424-49.686-29.091-77.904-37.128
				l-1.537-7.53l-8.623-42.154l-59.925-293.174l-61.401,292.873l-8.83,42.106l-1.585,7.515
				c-28.25,7.895-54.583,20.435-78.093,36.748L662.184,422.345l124.163,190.033c-16.424,23.431-29.091,49.684-37.128,77.903
				l-7.53,1.538l-42.154,8.624L406.36,760.369l292.874,61.399l42.106,8.83l7.514,1.586c7.895,28.25,20.435,54.583,36.748,78.092
				L660.488,1099.68l190.033-124.165c23.431,16.424,49.685,29.09,77.903,37.127l1.538,7.533l8.623,42.152l59.927,293.178
				l61.397-292.875l8.83-42.107l1.586-7.516c28.25-7.895,54.582-20.434,78.094-36.747l189.396,125.114l-124.162-190.037
				C1230.077,887.909,1242.745,861.655,1250.782,833.436z M999.541,947.153c-102.349-0.254-185.087-83.421-184.833-185.754
				c0.254-102.349,83.42-185.087,185.753-184.833c102.349,0.254,185.085,83.42,184.831,185.753
				C1185.038,864.667,1101.874,947.407,999.541,947.153z"/>
			<polygon fill="#F6851F" points="1074.202,868.575 998.57,654.154 925.799,869.563 999.453,786.646 			"/>
		</g>
	</g>
	<g display="none">
		<g display="inline">
			<path fill="#9E2064" d="M-718.808,1919.443c-255.678,0-462.945,88.336-462.945,197.303s207.268,197.303,462.945,197.303
				c255.677,0,462.945-88.336,462.945-197.303S-463.131,1919.443-718.808,1919.443z M-718.808,2304.279
				c-208.909,0-378.263-83.961-378.263-187.533s169.354-187.533,378.263-187.533c208.908,0,378.262,83.961,378.262,187.533
				S-509.9,2304.279-718.808,2304.279z"/>
			<g>
				<path fill="#A57EB1" d="M-590.866,2153.264l3.842-0.785l21.505-4.4l149.569-30.572l-149.416-31.324l-21.481-4.504l-3.833-0.809
					c-4.028-14.414-10.425-27.848-18.748-39.842l63.829-96.625l-96.949,63.344c-11.954-8.379-25.347-14.842-39.744-18.941
					l-0.785-3.842l-4.399-21.506l-30.572-149.568l-31.324,149.414l-4.505,21.482l-0.809,3.834
					c-14.413,4.027-27.847,10.424-39.841,18.746l-96.626-63.828l63.344,96.949c-8.379,11.953-14.841,25.348-18.941,39.744
					l-3.842,0.783l-21.506,4.4l-149.569,30.572l149.415,31.324l21.481,4.504l3.834,0.811c4.028,14.412,10.425,27.846,18.748,39.84
					l-63.83,96.625l96.949-63.344c11.954,8.379,25.348,14.842,39.744,18.941l0.785,3.842l4.4,21.506l30.572,149.57l31.324-149.416
					l4.505-21.482l0.809-3.832c14.413-4.029,27.847-10.426,39.841-18.748l96.625,63.83l-63.344-96.949
					C-601.429,2181.053-594.967,2167.66-590.866,2153.264z M-719.043,2211.277c-52.215-0.129-94.426-42.559-94.296-94.766
					c0.129-52.215,42.558-94.426,94.765-94.297c52.215,0.131,94.426,42.559,94.296,94.766
					C-624.407,2169.195-666.835,2211.406-719.043,2211.277z"/>
				<polygon fill="#A57EB1" points="-680.953,2171.189 -719.539,2061.799 -756.664,2171.693 -719.088,2129.393 				"/>
			</g>
		</g>
		<g display="inline">
			<path fill="#046938" d="M427.064,1919.443c-255.677,0-462.945,88.336-462.945,197.303s207.268,197.303,462.945,197.303
				c255.678,0,462.945-88.336,462.945-197.303S682.742,1919.443,427.064,1919.443z M427.064,2304.279
				c-208.908,0-378.262-83.961-378.262-187.533s169.354-187.533,378.262-187.533s378.263,83.961,378.263,187.533
				S635.973,2304.279,427.064,2304.279z"/>
			<g>
				<path fill="#45B974" d="M555.007,2153.264l3.841-0.785l21.506-4.4l149.569-30.572l-149.415-31.324l-21.481-4.504l-3.834-0.809
					c-4.027-14.414-10.425-27.848-18.747-39.842l63.829-96.625l-96.949,63.344c-11.954-8.379-25.348-14.842-39.744-18.941
					l-0.784-3.842l-4.4-21.506l-30.572-149.568L396.5,1963.303l-4.505,21.482l-0.809,3.834
					c-14.413,4.027-27.847,10.424-39.841,18.746l-96.625-63.828l63.344,96.949c-8.379,11.953-14.841,25.348-18.942,39.744
					l-3.842,0.783l-21.505,4.4l-149.569,30.572l149.415,31.324l21.482,4.504l3.833,0.811c4.028,14.412,10.425,27.846,18.748,39.84
					l-63.83,96.625l96.95-63.344c11.954,8.379,25.347,14.842,39.744,18.941l0.784,3.842l4.4,21.506l30.572,149.57l31.324-149.416
					l4.505-21.482l0.809-3.832c14.413-4.029,27.847-10.426,39.841-18.748l96.626,63.83l-63.345-96.949
					C544.444,2181.053,550.906,2167.66,555.007,2153.264z M426.83,2211.277c-52.216-0.129-94.426-42.559-94.296-94.766
					c0.129-52.215,42.558-94.426,94.765-94.297c52.216,0.131,94.426,42.559,94.296,94.766
					C521.466,2169.195,479.037,2211.406,426.83,2211.277z"/>
				<polygon fill="#45B974" points="464.92,2171.189 426.334,2061.799 389.209,2171.693 426.785,2129.393 				"/>
			</g>
		</g>
		<g display="inline">
			<path fill="#BE202E" d="M1572.937,1919.443c-255.678,0-462.945,88.336-462.945,197.303s207.268,197.303,462.945,197.303
				c255.676,0,462.945-88.336,462.945-197.303S1828.612,1919.443,1572.937,1919.443z M1572.937,2304.279
				c-208.91,0-378.264-83.961-378.264-187.533s169.354-187.533,378.264-187.533c208.908,0,378.262,83.961,378.262,187.533
				S1781.845,2304.279,1572.937,2304.279z"/>
			<g>
				<path fill="#E17B6E" d="M1700.878,2153.264l3.842-0.785l21.506-4.4l149.568-30.572l-149.414-31.324l-21.482-4.504l-3.834-0.809
					c-4.027-14.414-10.426-27.848-18.748-39.842l63.83-96.625l-96.949,63.344c-11.953-8.379-25.348-14.842-39.744-18.941
					l-0.785-3.842l-4.398-21.506l-30.572-149.568l-31.324,149.414l-4.506,21.482l-0.809,3.834
					c-14.412,4.027-27.846,10.424-39.84,18.746l-96.627-63.828l63.344,96.949c-8.379,11.953-14.84,25.348-18.941,39.744
					l-3.842,0.783l-21.504,4.4l-149.57,30.572l149.416,31.324l21.48,4.504l3.834,0.811c4.027,14.412,10.426,27.846,18.748,39.84
					l-63.83,96.625l96.949-63.344c11.955,8.379,25.348,14.842,39.744,18.941l0.785,3.842l4.4,21.506l30.57,149.57l31.324-149.416
					l4.506-21.482l0.809-3.832c14.412-4.029,27.846-10.426,39.842-18.748l96.625,63.83l-63.344-96.949
					C1690.315,2181.053,1696.778,2167.66,1700.878,2153.264z M1572.7,2211.277c-52.215-0.129-94.426-42.559-94.295-94.766
					c0.129-52.215,42.559-94.426,94.766-94.297c52.215,0.131,94.426,42.559,94.295,94.766
					C1667.337,2169.195,1624.909,2211.406,1572.7,2211.277z"/>
				<polygon fill="#E17B6E" points="1610.792,2171.189 1572.206,2061.799 1535.081,2171.693 1572.655,2129.393 				"/>
			</g>
		</g>
		<g display="inline">
			<path fill="#F6851F" d="M2718.808,1919.443c-255.676,0-462.943,88.336-462.943,197.303s207.268,197.303,462.943,197.303
				c255.678,0,462.945-88.336,462.945-197.303S2974.485,1919.443,2718.808,1919.443z M2718.808,2304.279
				c-208.908,0-378.262-83.961-378.262-187.533s169.354-187.533,378.262-187.533s378.264,83.961,378.264,187.533
				S2927.716,2304.279,2718.808,2304.279z"/>
			<g>
				<path fill="#FAE087" d="M2846.751,2153.264l3.842-0.785l21.504-4.4l149.57-30.572l-149.416-31.324l-21.48-4.504l-3.834-0.809
					c-4.027-14.414-10.426-27.848-18.748-39.842l63.83-96.625l-96.949,63.344c-11.955-8.379-25.348-14.842-39.744-18.941
					l-0.785-3.842l-4.398-21.506l-30.572-149.568l-31.324,149.414l-4.506,21.482l-0.809,3.834
					c-14.412,4.027-27.848,10.424-39.842,18.746l-96.625-63.828l63.344,96.949c-8.379,11.953-14.84,25.348-18.941,39.744
					l-3.842,0.783l-21.506,4.4l-149.568,30.572l149.416,31.324l21.48,4.504l3.834,0.811c4.027,14.412,10.426,27.846,18.748,39.84
					l-63.83,96.625l96.949-63.344c11.953,8.379,25.348,14.842,39.744,18.941l0.785,3.842l4.398,21.506l30.572,149.57l31.324-149.416
					l4.506-21.482l0.809-3.832c14.412-4.029,27.846-10.426,39.84-18.748l96.627,63.83l-63.344-96.949
					C2836.188,2181.053,2842.649,2167.66,2846.751,2153.264z M2718.573,2211.277c-52.215-0.129-94.426-42.559-94.295-94.766
					c0.129-52.215,42.557-94.426,94.766-94.297c52.215,0.131,94.426,42.559,94.295,94.766
					C2813.21,2169.195,2770.78,2211.406,2718.573,2211.277z"/>
				<polygon fill="#FAE087" points="2756.663,2171.189 2718.079,2061.799 2680.952,2171.693 2718.528,2129.393 				"/>
			</g>
		</g>
	</g>
</g>
<g>
</g>
<g>
	<path fill="#FFFFFF" d="M184.746,1694.596c-2.808,15.29-4.209,28.374-4.209,39.249c0,10.871,1.963,19.045,5.893,24.518
		c-16.978,0-28.904-1.757-35.776-5.262c-14.593-7.297-21.887-20.766-21.887-40.406c0-29.742,12.485-71.553,37.46-125.428
		c7.855-16.836,16.484-33.461,25.885-49.877c-13.469,0.842-24.517,2.914-33.146,6.209c-8.628,3.298-14.416,8.664-17.362,16.1
		c1.263,0,2.525,1.439,3.788,4.313c1.263,2.878,1.894,6.419,1.894,10.628s-2.351,7.823-7.05,10.838
		c-4.703,3.019-9.648,4.525-14.837,4.525c-9.401,0-16.593-2.21-21.571-6.63c-4.981-4.419-7.471-10.417-7.471-17.993
		c0-14.869,8.346-27.496,25.043-37.881c16.974-10.381,37.95-15.573,62.924-15.573c5.751,0,13.258,0.421,22.518,1.263
		c23.288-36.618,48.015-66.956,74.183-91.02c26.165-24.06,51.383-36.092,75.657-36.092c14.59,0,25.954,2.035,34.093,6.104
		l-67.554,317.146h-62.083l33.041-156.363c-19.082-8.698-38.302-13.891-57.663-15.574
		C210.7,1594.494,193.443,1646.896,184.746,1694.596z M245.566,1518.87c20.062,3.93,37.598,8.912,52.612,14.942l25.043-117.22
		C298.527,1430.062,272.642,1464.153,245.566,1518.87z"/>
	<path fill="#FFFFFF" d="M563.134,1632.093c-17.819,20.765-39.775,38.723-65.871,53.875c-16.277,17.256-38.864,25.885-67.765,25.885
		c-20.203,0-35.744-5.505-46.615-16.521c-10.871-11.012-16.31-22.729-16.31-35.145c0-12.417,2.387-22.062,7.155-28.937
		c4.771-6.873,10.029-11.713,15.784-14.521c20.203-36.197,37.881-78.777,53.033-127.742l63.766-8.418
		c1.121,26.938,2.243,49.455,3.367,67.554l5.261,68.396c0.559,6.734,0.842,13.4,0.842,19.993c0,6.597-0.563,12.348-1.684,17.257
		c12.627-7.293,22.939-14.521,30.936-21.676H563.134z M412.031,1677.76c27.497,0,41.248-13.327,41.248-39.985
		c0-7.435-0.563-16.205-1.684-26.307l-2.525-24.622c-1.545-15.711-2.877-32.758-3.999-51.14
		c-7.297,23.57-18.94,50.719-34.935,81.444c6.593,3.088,9.891,7.682,9.891,13.784c0,6.104-1.72,11.364-5.156,15.784
		c-3.439,4.419-8.069,6.629-13.89,6.629c-5.823,0-9.647-1.894-11.469-5.683C389.513,1667.73,397.017,1677.76,412.031,1677.76z"/>
	<path fill="#FFFFFF" d="M678.25,1632.093c-18.52,53.174-49.456,79.76-92.808,79.76c-11.364,0-21.538-4.067-30.515-12.206
		c-8.839-8.135-13.258-21.255-13.258-39.354c0-8.135,1.125-17.536,3.367-28.199l25.885-121.009H556.61l3.578-17.257h14.1
		l13.048-59.557l63.766-8.629l-14.731,68.186h25.885l-3.367,17.257h-25.885L605.434,1640.3c-1.125,5.192-1.684,10.313-1.684,15.363
		c0,9.68,5.82,14.521,17.467,14.521c8.418,0,16.237-3.646,23.465-10.943c7.225-7.293,12.38-16.343,15.468-27.147H678.25z"/>
	<path fill="#FFFFFF" d="M643.736,1709.327l45.667-215.5h62.083l-5.472,26.727c7.155-6.313,15.047-12.344,23.676-18.098
		c8.628-5.752,17.957-8.629,27.989-8.629c10.029,0,17.573,3.298,22.624,9.891c5.051,6.597,7.576,12.91,7.576,18.941
		c0,10.384-2.772,18.802-8.313,25.254c-5.544,6.454-12.242,9.68-20.098,9.68c-7.859,0-13.048-1.788-15.573-5.366
		c-2.525-3.577-4.071-7.224-4.63-10.943c-0.563-3.716-1.299-6.662-2.21-8.839c-0.914-2.173-2.841-3.262-5.787-3.262
		c-5.893,0-11.085,1.368-15.573,4.104c-4.492,2.736-9.612,6.84-15.363,12.312l-34.514,163.729H643.736z"/>
	<path fill="#FFFFFF" d="M1032.016,1518.45l-7.367,15.152c-10.385,20.623-22.729,34.796-37.039,42.51
		c-2.808,40.828-13.679,73.52-32.62,98.07c-18.94,24.553-42.231,36.828-69.869,36.828c-33.113,0-54.438-12.206-63.977-36.618
		c-3.367-8.556-5.051-18.026-5.051-28.411c0-10.381,0.842-20.939,2.525-31.672c1.684-10.733,4.419-21.781,8.208-33.146
		c8.418-25.954,20.482-46.788,36.197-62.503c19.361-19.078,42.649-28.621,69.869-28.621c33.951,0,52.191,19.361,54.717,58.084
		c9.397-2.104,18.027-9.397,25.886-21.887l4.84-7.786H1032.016z M950.992,1582.637c-6.876-2.663-10.312-9.365-10.312-20.098
		c0-10.733,4.067-17.993,12.206-21.782c-0.704-9.118-2.246-15.5-4.63-19.15c-2.387-3.646-6.912-5.472-13.574-5.472
		c-6.666,0-13.364,4.351-20.098,13.048c-13.189,17.119-23.149,40.899-29.884,71.342c-2.946,13.891-4.419,25.327-4.419,34.304
		c0,15.573,1.578,25.711,4.735,30.41c3.156,4.702,8.171,7.05,15.047,7.05c12.206,0,22.903-8.592,32.094-25.78
		C941.344,1629.323,947.625,1608.032,950.992,1582.637z"/>
	<path fill="#FFFFFF" d="M1304.756,1472.361c12.906-7.435,19.361-20.762,19.361-39.985c0-5.609-2.281-11.364-6.84-17.257
		c-4.561-5.893-12.908-8.839-25.043-8.839c-12.137,0-21.781,3.262-28.938,9.786c-7.154,6.523-10.732,15.047-10.732,25.569
		s1.4,18.94,4.209,25.254c5.051,11.647,13.891,23.012,26.518,34.093l17.678,15.994c15.711,14.031,26.375,25.675,31.988,34.935
		c11.08,18.661,16.625,37.602,16.625,56.821c0,35.776-12.348,63.418-37.039,82.917c-22.309,17.815-50.369,26.727-84.18,26.727
		c-41.811,0-69.801-13.396-83.969-40.195c-4.914-9.397-7.367-20.341-7.367-32.83c0-22.587,6.453-40.195,19.361-52.822
		s27.359-18.941,43.354-18.941s27.428,4.841,34.303,14.521c2.664,3.65,4.137,8.28,4.42,13.89c-22.027,0-37.322,7.228-45.879,21.677
		c-3.086,5.191-4.629,11.016-4.629,17.467c0,12.206,3.611,22.38,10.838,30.516c7.225,8.138,17.783,12.205,31.672,12.205
		c13.891,0,25.498-4.978,34.83-14.941c9.328-9.96,13.994-22.587,13.994-37.881c0-15.29-2.176-27.885-6.523-37.775
		c-4.35-9.892-9.822-19.115-16.414-27.674c-6.598-8.557-13.68-16.731-21.256-24.518c-7.576-7.787-14.662-15.679-21.256-23.676
		c-15.293-18.52-22.939-36.546-22.939-54.086c0-22.166,9.576-40.58,28.727-55.242c19.152-14.659,42.754-21.992,70.816-21.992
		c34.652,0,56.539,10.522,65.66,31.567c2.525,5.613,3.789,13.574,3.789,23.886c0,10.313-3.158,19.539-9.471,27.674
		c-6.314,8.139-14.205,12.207-23.676,12.207S1309.945,1478.396,1304.756,1472.361z"/>
	<path fill="#FFFFFF" d="M1504.264,1632.093c-18.52,53.174-49.457,79.76-92.809,79.76c-11.365,0-21.539-4.067-30.516-12.206
		c-8.838-8.135-13.258-21.255-13.258-39.354c0-8.135,1.125-17.536,3.367-28.199l46.088-215.922l63.766-8.628l-49.455,232.757
		c-1.125,5.192-1.684,10.313-1.684,15.363c0,9.68,5.82,14.521,17.467,14.521c8.418,0,16.238-3.646,23.465-10.943
		c7.225-7.293,12.381-16.343,15.469-27.147H1504.264z"/>
	<path fill="#FFFFFF" d="M1730.916,1632.093c-18.238,53.174-47.07,79.76-86.494,79.76c-25.395,0-39.494-13.186-42.301-39.564
		c-18.801,26.379-40.721,39.564-65.764,39.564c-25.045,0-42.059-12.275-51.035-36.828c-3.225-8.84-4.84-18.904-4.84-30.2
		c0-11.292,0.982-22.587,2.945-33.882c1.967-11.292,4.979-22.551,9.051-33.777c8.977-24.691,21.814-45.105,38.512-61.24
		c16.695-16.133,36.828-24.202,60.398-24.202c12.344,0,21.256,2.071,26.727,6.208c5.473,4.141,8.209,9.365,8.209,15.679v3.157
		l4.629-22.939h62.082L1662.1,1640.3c-1.262,4.913-1.895,9.543-1.895,13.89c0,12.348,5.893,18.52,17.678,18.52
		c15.291,0,26.938-13.538,34.936-40.616H1730.916z M1622.324,1534.864c0-2.663-1.229-6.066-3.682-10.206
		c-2.457-4.137-7.682-6.208-15.68-6.208c-7.996,0-15.783,4.281-23.359,12.837c-18.24,20.624-29.674,50.229-34.303,88.81
		c-0.703,5.893-1.053,12.137-1.053,18.73c0,12.768,2.664,21.676,7.998,26.727c3.084,3.088,6.943,4.63,11.574,4.63
		c8.557,0,16.342-3.4,23.359-10.207c7.014-6.803,11.855-16.099,14.521-27.884L1622.324,1534.864z"/>
	<path fill="#FFFFFF" d="M1771.955,1651.243c0,12.627,4.277,18.94,12.836,18.94c15.152,0,26.654-12.696,34.514-38.091
		l29.254-138.266h62.502l-52.611,250.014c-5.473,27.496-16.557,47.42-33.252,59.768c-12.205,8.977-26.168,13.469-41.879,13.469
		c-15.715,0-28.693-4.351-38.934-13.048c-10.102-8.839-15.152-19.151-15.152-30.937s1.928-21.117,5.787-27.989
		c3.857-6.876,9.924-13.189,18.205-18.94c8.135-5.893,24.971-12.627,50.508-20.203l4.42-18.94
		c-14.594,16.557-32.131,24.833-52.613,24.833c-12.91,0-23.854-4.067-32.83-12.206c-8.838-8.135-13.258-21.255-13.258-39.354
		c0-8.135,1.125-17.536,3.367-28.199l29.252-138.266h62.082l-30.936,146.473C1772.375,1643.95,1771.955,1647.597,1771.955,1651.243z
		 M1800.785,1719.64c-15.436,5.471-26.096,10.591-31.988,15.362c-10.664,8.839-15.994,18.657-15.994,29.463
		c0,3.226,1.717,6.419,5.156,9.575c3.436,3.157,7.436,4.735,11.996,4.735c4.557,0,9.293-2.456,14.205-7.366
		c4.91-4.912,8.697-13.679,11.365-26.306L1800.785,1719.64z"/>
</g>
<g>
</g>
<g>
</g>
<g>
</g>
<g>
</g>
<g>
</g>
<g>
</g>
</svg>
