<svg xmlns="http://www.w3.org/2000/svg" viewBox="0 0 1024 1024"><title>aurora-icon</title><g id="38f17a5a-de6e-4918-8fe3-cbab8736451f" data-name="Background"><rect width="1024" height="1024" style="fill:#18181c"/></g><g id="b7302d3f-ef8d-4d81-945e-a95a2c34fad6" data-name="Icon"><path d="M522.26,786.32l4,109.68a386.14,386.14,0,0,0,64-7.73L568,780.8A275.32,275.32,0,0,1,522.26,786.32Z" style="fill:#fff"/><path d="M422.32,885.72a384.91,384.91,0,0,0,63.74,9.68l7.32-109.51A275.06,275.06,0,0,1,447.86,779Z" style="fill:#fff"/><path d="M595.8,773.48,629.28,878a382.19,382.19,0,0,0,59.56-24.82l-50.59-97.39A272.84,272.84,0,0,1,595.8,773.48Z" style="fill:#fff"/><path d="M324.83,847.61a383.48,383.48,0,0,0,58.78,26.64l36.68-103.44a272.37,272.37,0,0,1-41.92-19Z" style="fill:#fff"/><path d="M663.07,741.19l60.52,91.54a386.69,386.69,0,0,0,50.57-39.92l-74.92-80.18A276.37,276.37,0,0,1,663.07,741.19Z" style="fill:#fff"/><path d="M318.7,706.79l-77.32,77.87a385.87,385.87,0,0,0,49.34,41.44L354,736.45A276.1,276.1,0,0,1,318.7,706.79Z" style="fill:#fff"/><path d="M719.26,691.86l82.86,71.93a385.5,385.5,0,0,0,38-52l-93.69-57.1A277.92,277.92,0,0,1,719.26,691.86Z" style="fill:#fff"/><path d="M273.3,647.41l-95.39,54.21a385.33,385.33,0,0,0,36.41,53.18l85-69.38A276.85,276.85,0,0,1,273.3,647.41Z" style="fill:#fff"/><path d="M760.11,629.29l99.18,46.93a383.12,383.12,0,0,0,22.57-60.51L776.2,586.18A273.59,273.59,0,0,1,760.11,629.29Z" style="fill:#fff"/><path d="M245.68,578.11,139.16,604.4a383.59,383.59,0,0,0,20.7,61.14l100.57-43.87A273,273,0,0,1,245.68,578.11Z" style="fill:#fff"/><path d="M896,511.22l-109.72.39v.52a277.22,277.22,0,0,1-3.83,46l108.19,18.23A387.51,387.51,0,0,0,896,512.13Z" style="fill:#fff"/><path d="M237.71,512.13c0-2.78,0-5.6.13-8.39l-109.67-3.27c-.11,3.87-.17,7.79-.17,11.66a388,388,0,0,0,3.58,52.63l108.7-14.92A278.53,278.53,0,0,1,237.71,512.13Z" style="fill:#fff"/><path d="M784.73,482.71l109.1-11.62a384.12,384.12,0,0,0-12.19-63.35L776,437.52A273.84,273.84,0,0,1,784.73,482.71Z" style="fill:#fff"/><path d="M250.17,430.09,145.46,397.32a383.42,383.42,0,0,0-14,63L240.2,475A273.87,273.87,0,0,1,250.17,430.09Z" style="fill:#fff"/><path d="M766.78,410.28l101.87-40.76a383.89,383.89,0,0,0-28.91-57.65l-93.58,57.29A274.31,274.31,0,0,1,766.78,410.28Z" style="fill:#fff"/><path d="M282,362.56l-91.92-59.92a384.21,384.21,0,0,0-30.55,56.83L260.2,403.12A274,274,0,0,1,282,362.56Z" style="fill:#fff"/><path d="M729.85,345.4l87.08-66.77a386.8,386.8,0,0,0-43.31-47.69l-74.77,80.33A276.18,276.18,0,0,1,729.85,345.4Z" style="fill:#fff"/><path d="M330.94,306l-72.46-82.41a388,388,0,0,0-44.65,46.44L299,339.26A277.23,277.23,0,0,1,330.94,306Z" style="fill:#fff"/><path d="M676.75,292.74l66-87.69a384.77,384.77,0,0,0-54.58-34.33l-50.39,97.49A275.66,275.66,0,0,1,676.75,292.74Z" style="fill:#fff"/><path d="M393.2,264.74l-47.6-98.89a385.71,385.71,0,0,0-55.51,32.76l63.46,89.52A274.86,274.86,0,0,1,393.2,264.74Z" style="fill:#fff"/><path d="M651.37,154.1a381.3,381.3,0,0,0-61.93-18.27l-22,107.51a272.74,272.74,0,0,1,44.12,13Z" style="fill:#fff"/><path d="M464.19,241.9l-19-108.1a381.31,381.31,0,0,0-62.38,16.49l36.9,103.36A272.19,272.19,0,0,1,464.19,241.9Z" style="fill:#fff"/><path d="M549.57,129.82C537.16,128.61,524.52,128,512,128c-8.91,0-17.91.31-26.77.92l7.55,109.49c6.36-.44,12.82-.66,19.22-.66,9,0,18.06.44,27,1.3Z" style="fill:#fff"/><g style="opacity:0.66"><path d="M518.41,683.45,520.93,752a241.37,241.37,0,0,0,40-4.83L547,680A171.66,171.66,0,0,1,518.41,683.45Z" style="fill:#fff"/><path d="M456,745.57a239.42,239.42,0,0,0,39.84,6l4.57-68.44a170.73,170.73,0,0,1-28.44-4.32Z" style="fill:#fff"/><path d="M564.38,675.43l20.92,65.32a239.77,239.77,0,0,0,37.23-15.51l-31.62-60.87A170.78,170.78,0,0,1,564.38,675.43Z" style="fill:#fff"/><path d="M395,721.76a239.85,239.85,0,0,0,36.74,16.65l22.92-64.65a171,171,0,0,1-26.2-11.88Z" style="fill:#fff"/><path d="M606.42,655.24l37.82,57.22a242.12,242.12,0,0,0,31.61-25L629,637.39A171.91,171.91,0,0,1,606.42,655.24Z" style="fill:#fff"/><path d="M391.19,633.75l-48.33,48.66a241.3,241.3,0,0,0,30.84,25.9l39.55-56A173.45,173.45,0,0,1,391.19,633.75Z" style="fill:#fff"/><path d="M641.53,624.41l51.8,45a242.28,242.28,0,0,0,23.76-32.53l-58.56-35.69A172.54,172.54,0,0,1,641.53,624.41Z" style="fill:#fff"/><path d="M362.82,596.63l-59.63,33.88A240.94,240.94,0,0,0,326,663.75l53.13-43.36A172.08,172.08,0,0,1,362.82,596.63Z" style="fill:#fff"/><path d="M667.07,585.3l62,29.34a238.9,238.9,0,0,0,14.11-37.82l-66-18.46A169.46,169.46,0,0,1,667.07,585.3Z" style="fill:#fff"/><path d="M345.55,553.32,279,569.75A238.65,238.65,0,0,0,291.91,608l62.86-27.41A170.13,170.13,0,0,1,345.55,553.32Z" style="fill:#fff"/><path d="M752,511.51l-68.57.25v.32A174.14,174.14,0,0,1,681,540.81l67.62,11.39A242.08,242.08,0,0,0,752,512.08Z" style="fill:#fff"/><path d="M340.57,512.08c0-1.74,0-3.5.08-5.24l-68.54-2c-.07,2.41-.11,4.87-.11,7.28a242.24,242.24,0,0,0,2.24,32.9l67.93-9.33A174.54,174.54,0,0,1,340.57,512.08Z" style="fill:#fff"/><path d="M682.46,493.69l68.18-7.26A239.23,239.23,0,0,0,743,446.84l-66,18.61A171.77,171.77,0,0,1,682.46,493.69Z" style="fill:#fff"/><path d="M348.36,460.8l-65.45-20.48a240.38,240.38,0,0,0-8.74,39.38l67.95,9.17A171.19,171.19,0,0,1,348.36,460.8Z" style="fill:#fff"/><path d="M671.24,448.42,734.91,423a240.22,240.22,0,0,0-18.07-36l-58.49,35.8A171.93,171.93,0,0,1,671.24,448.42Z" style="fill:#fff"/><path d="M368.25,418.6l-57.44-37.45a239.52,239.52,0,0,0-19.1,35.52L354.63,444A171.76,171.76,0,0,1,368.25,418.6Z" style="fill:#fff"/><path d="M648.16,407.87l54.42-41.73a242.63,242.63,0,0,0-27.07-29.8l-46.73,50.2A172.51,172.51,0,0,1,648.16,407.87Z" style="fill:#fff"/><path d="M398.84,383.26l-45.29-51.5a242.13,242.13,0,0,0-27.9,29L378.87,404A172,172,0,0,1,398.84,383.26Z" style="fill:#fff"/><path d="M615,375l41.24-54.8a240.75,240.75,0,0,0-34.12-21.46L590.6,359.63A172.82,172.82,0,0,1,615,375Z" style="fill:#fff"/><path d="M437.75,357.46,408,295.66a240.66,240.66,0,0,0-34.7,20.47L413,372.08A171.44,171.44,0,0,1,437.75,357.46Z" style="fill:#fff"/><path d="M599.11,288.31a239.11,239.11,0,0,0-38.71-11.42l-13.77,67.2a169.78,169.78,0,0,1,27.58,8.14Z" style="fill:#fff"/><path d="M482.12,343.18l-11.86-67.56a239.47,239.47,0,0,0-39,10.31l23.07,64.6A170.41,170.41,0,0,1,482.12,343.18Z" style="fill:#fff"/><path d="M535.48,273.14c-7.75-.76-15.65-1.14-23.48-1.14-5.57,0-11.19.19-16.73.58L500,341c4-.28,8-.42,12-.42,5.62,0,11.29.28,16.84.82Z" style="fill:#fff"/></g><g style="opacity:0.33"><path d="M515.61,608.44,517,647a135.6,135.6,0,0,0,22.49-2.72l-7.83-37.78A96.91,96.91,0,0,1,515.61,608.44Z" style="fill:#fff"/><path d="M480.47,643.38a135.22,135.22,0,0,0,22.41,3.41l2.57-38.5a96.75,96.75,0,0,1-16-2.43Z" style="fill:#fff"/><path d="M541.46,603.93l11.77,36.74A134.88,134.88,0,0,0,574.17,632l-17.78-34.24A96.81,96.81,0,0,1,541.46,603.93Z" style="fill:#fff"/><path d="M446.2,630a134.61,134.61,0,0,0,20.66,9.36L479.76,603A96.67,96.67,0,0,1,465,596.31Z" style="fill:#fff"/><path d="M565.11,592.57l21.28,32.19a136.47,136.47,0,0,0,17.78-14l-26.34-28.19A97.46,97.46,0,0,1,565.11,592.57Z" style="fill:#fff"/><path d="M444,580.48l-27.18,27.38a137.06,137.06,0,0,0,17.34,14.57l22.25-31.52A97.22,97.22,0,0,1,444,580.48Z" style="fill:#fff"/><path d="M584.86,575.23,614,600.52a136,136,0,0,0,13.36-18.3l-32.94-20.07A96.92,96.92,0,0,1,584.86,575.23Z" style="fill:#fff"/><path d="M428.08,559.61l-33.53,19a134.42,134.42,0,0,0,12.8,18.7L437.23,573A97.14,97.14,0,0,1,428.08,559.61Z" style="fill:#fff"/><path d="M599.23,553.23l34.86,16.5A133.34,133.34,0,0,0,642,548.46l-37.15-10.38A96.49,96.49,0,0,1,599.23,553.23Z" style="fill:#fff"/><path d="M418.37,535.24l-37.45,9.24A134.67,134.67,0,0,0,388.2,566l35.36-15.42A96.26,96.26,0,0,1,418.37,535.24Z" style="fill:#fff"/><path d="M647,511.73l-38.57.13v.19a96.62,96.62,0,0,1-1.35,16.15l38,6.41A136,136,0,0,0,647,512.05Z" style="fill:#fff"/><path d="M415.57,512.05c0-1,0-2,.05-2.95L377.06,508c0,1.36-.06,2.74-.06,4.1a135.93,135.93,0,0,0,1.26,18.5l38.21-5.25A97.44,97.44,0,0,1,415.57,512.05Z" style="fill:#fff"/><path d="M607.88,501.7l38.36-4.08A135.38,135.38,0,0,0,642,475.35l-37.12,10.46A97.13,97.13,0,0,1,607.88,501.7Z" style="fill:#fff"/><path d="M420,483.2l-36.81-11.52a135,135,0,0,0-4.92,22.15L416.44,499A97.63,97.63,0,0,1,420,483.2Z" style="fill:#fff"/><path d="M601.57,476.24l35.81-14.33a134.69,134.69,0,0,0-10.16-20.27l-32.9,20.14A95.31,95.31,0,0,1,601.57,476.24Z" style="fill:#fff"/><path d="M431.14,459.46,398.83,438.4a134.3,134.3,0,0,0-10.74,20l35.39,15.34A97.35,97.35,0,0,1,431.14,459.46Z" style="fill:#fff"/><path d="M588.59,453.43,619.2,430A135.22,135.22,0,0,0,604,413.19l-26.28,28.24A97.57,97.57,0,0,1,588.59,453.43Z" style="fill:#fff"/><path d="M448.35,439.58l-25.48-29a136,136,0,0,0-15.69,16.33l29.93,24.33A97,97,0,0,1,448.35,439.58Z" style="fill:#fff"/><path d="M569.92,434.92l23.2-30.83A135.26,135.26,0,0,0,573.93,392l-17.72,34.27A96.58,96.58,0,0,1,569.92,434.92Z" style="fill:#fff"/><path d="M470.23,425.07,453.5,390.31A135.28,135.28,0,0,0,434,401.82L456.3,433.3A96.7,96.7,0,0,1,470.23,425.07Z" style="fill:#fff"/><path d="M561,386.18a134.08,134.08,0,0,0-21.78-6.43l-7.74,37.8A94.89,94.89,0,0,1,547,422.13Z" style="fill:#fff"/><path d="M495.19,417l-6.67-38a135.92,135.92,0,0,0-21.93,5.79l13,36.34A96,96,0,0,1,495.19,417Z" style="fill:#fff"/><path d="M525.21,377.64c-4.36-.42-8.81-.64-13.21-.64-3.13,0-6.3.11-9.41.32l2.65,38.5c2.24-.16,4.51-.24,6.76-.24,3.16,0,6.35.16,9.47.46Z" style="fill:#fff"/></g></g></svg>