<?xml version="1.0" encoding="utf-8"?>
<!-- Generator: Adobe Illustrator 16.0.0, SVG Export Plug-In . SVG Version: 6.00 Build 0)  -->
<!DOCTYPE svg PUBLIC "-//W3C//DTD SVG 1.1//EN" "http://www.w3.org/Graphics/SVG/1.1/DTD/svg11.dtd">
<svg version="1.1" id="Layer_1" xmlns="http://www.w3.org/2000/svg" xmlns:xlink="http://www.w3.org/1999/xlink" x="0px" y="0px"
	 width="154px" height="154px" viewBox="0 0 154 154" enable-background="new 0 0 154 154" xml:space="preserve">
<title>auto-privacy-icon</title>
<desc>Created with Sketch.</desc>
<g id="Icon">
	<g id="auto-privacy-icon">
		<g id="aplogo-eye" transform="translate(0.000000, 16.000000)">
			<g id="aplogo-sm">
				<path id="Shape" fill="#FFC506" d="M138.107,51.136C126.05,30.076,103.562,16,77.943,16c-25.63,0-48.112,14.085-60.164,35.136
					c-1.895,3.31-1.895,7.418,0,10.728C29.837,82.924,52.324,97,77.943,97c25.631,0,48.112-14.086,60.164-35.137
					C140.002,58.554,140.002,54.446,138.107,51.136z M78.424,86c-16.219,0-29.348-13.418-29.348-30c0-16.58,13.126-30,29.348-30
					c16.221,0,29.35,13.417,29.35,30C107.773,72.58,94.647,86,78.424,86z M100.076,57c0,12.703-9.91,23-22.133,23
					C65.72,80,55.812,69.703,55.812,57c0-3.916,0.943-7.603,2.604-10.831v0.007c0,5.23,4.08,9.47,9.113,9.47s9.113-4.24,9.113-9.47
					c0-5.231-4.08-9.471-9.113-9.471h-0.007C70.627,34.98,74.175,34,77.943,34C90.166,34,100.076,44.297,100.076,57z"/>
			</g>
		</g>
	</g>
</g>
</svg>
