<svg xmlns="http://www.w3.org/2000/svg" viewBox="0 0 346 193.2">
    <path d="M126.6 127c0 .1 0 .2-.1.3-.1.1-.2.1-.3.1-.1 0-.2 0-.4-.2-.1-.1-.3-.2-.4-.2-.2 0-.3 0-.5.1-.1.1-.2.2-.3.4-.1.2-.2.6-.3 1.2 0 .2-.1.4-.1.5h1.1v.3l-.1.1h-1l-.7 3c-.1.5-.3 1-.5 1.4-.2.4-.5.7-.7.9-.3.2-.5.3-.8.3-.2 0-.4-.1-.5-.2-.1-.1-.2-.2-.2-.4s.1-.4.4-.4c.1 0 .2.1.4.2.1.1.3.2.4.2.2 0 .3-.1.4-.2.1-.1.2-.4.3-.9l.8-3.9c0-.1 0-.1-.1-.1h-.7s-.1 0-.1-.1c0 0 0-.1.1-.1.6-.1.9-.2.9-.3.1-.4.3-.9.5-1.3.3-.4.6-.8.9-1 .3-.2.7-.4 1-.4.4.2.6.4.6.7m5.1 3.4c0 .4-.1.8-.3 1.3-.2.4-.5.8-.8 1-.3.3-.7.4-1 .4-.3 0-.5-.1-.7-.4-.2-.3-.3-.6-.3-1s.1-.8.3-1.3c.2-.4.5-.8.8-1 .3-.3.7-.4 1-.4.3 0 .5.1.7.4.2.3.3.7.3 1m-.7-.5c0-.2 0-.3-.1-.4 0-.1-.1-.1-.3-.1-.2 0-.4.2-.7.5-.2.3-.4.7-.6 1.2-.2.5-.2.9-.2 1.3 0 .2 0 .3.1.4 0 .1.1.1.3.1.2 0 .4-.2.7-.5.2-.3.4-.7.6-1.2.1-.4.2-.9.2-1.3m8.1-.3c0 .1 0 .3-.1.4-.1.1-.2.1-.3.1-.1 0-.2-.1-.3-.2-.1-.1-.2-.1-.2-.1-.2 0-.4.3-.8.9-.4.6-.7 1.3-1.1 2.2 0 .1-.2.1-.4.1h-.2c-.1 0-.1-.1-.1-.1l.9-2.7c.1-.2.1-.4.1-.4 0-.1 0-.1-.1-.1s-.3.2-.5.5c-.1.2-.2.2-.2.2s-.1 0-.1-.1v-.1s.1-.2.3-.4c.2-.2.4-.4.6-.5.2-.1.3-.2.5-.2.3 0 .5.1.5.4 0 .1 0 .4-.1.6l-.2.5c.6-1 1-1.5 1.5-1.5.2 0 .3 0 .4.1-.1.1-.1.2-.1.4m14.6.1c0 .2 0 .3-.1.5l-1 1.9-.2.4c0 .1 0 .1.1.1s.3-.2.6-.5c.2-.2.2-.3.3-.3h.1v.1s-.1.2-.3.4l-.6.6c-.2.1-.4.2-.5.2-.3 0-.4-.1-.4-.4 0-.2.1-.4.2-.7l.9-1.9c.1-.1.1-.2.1-.3 0-.1-.1-.2-.2-.2s-.3.1-.6.4c-.2.3-.7 1-1.4 2l-.3.7c-.1.1-.2.2-.4.2s-.4 0-.4-.1l1.3-2.7c.1-.1.1-.2.1-.3 0-.2-.1-.2-.2-.2-.2 0-.4.2-.6.5-.3.3-.7 1-1.3 2l-.3.7c-.1.1-.2.2-.4.2s-.4 0-.4-.1l1.2-2.7c.1-.2.1-.4.1-.4 0-.1 0-.1-.1-.1s-.3.2-.6.5l-.2.2h-.1v-.1s.1-.2.3-.4l.6-.6c.2-.1.4-.2.5-.2.3 0 .4.1.4.4 0 .2-.1.4-.2.6l-.2.4c.2-.4.5-.8.8-1 .3-.3.6-.4.9-.4.2 0 .3.1.4.2.1.1.1.2.1.4 0 .1 0 .3-.1.4l-.2.4c.3-.4.5-.8.8-1 .3-.2.6-.4.8-.4.2 0 .3.1.4.2.2.1.3.2.3.4m6.6.1c0 .4-.2.8-.6 1.1-.4.3-.9.5-1.4.5v.5c0 .3 0 .4.1.6.1.1.2.2.4.2.4 0 .7-.2 1-.6h.1v.1c0 .1-.1.2-.3.4-.2.2-.4.4-.6.5-.2.1-.4.2-.6.2-.3 0-.5-.1-.7-.3-.2-.2-.3-.5-.3-.8 0-.4.1-.9.3-1.3.2-.5.5-.8.8-1.1.3-.3.7-.5.9-.5.2 0 .4.1.5.2.4-.1.4.1.4.3m-.6.1c0-.2-.1-.4-.3-.4-.2 0-.4.1-.6.4-.2.3-.3.6-.4 1.1.2 0 .5-.1.7-.2l.5-.4.1-.5m8.2-.2c0 .2-.1.4-.2.7l-.7 1.6-.2.4c0 .1 0 .1.1.1s.3-.2.6-.5l.2-.2h.1v.1s-.1.2-.3.4c-.2.2-.4.4-.6.5-.2.1-.4.2-.5.2-.1 0-.2 0-.3-.1-.1-.1-.1-.1-.1-.2 0-.2.1-.4.2-.7l.7-1.7c.1-.2.1-.3.1-.5s-.1-.2-.2-.2c-.2 0-.4.2-.7.6-.3.4-.7 1-1.1 1.7l-.3.8s-.1.1-.2.1h-.5c-.1 0-.1-.1-.1-.1l.9-2.7c.1-.2.1-.3.1-.4 0-.1 0-.1-.1-.1s-.3.2-.5.5c-.1.2-.2.2-.2.2s-.1 0-.1-.1v-.1s.1-.2.3-.4c.2-.2.4-.4.6-.5.2-.1.3-.2.5-.2.3 0 .4.1.4.4 0 .2 0 .4-.1.6l-.3.7c.3-.6.7-1 1-1.3.3-.3.6-.5.9-.5.2 0 .3.1.4.2.2.4.2.5.2.7m10.2 3c0 .1 0 .2-.1.3-.1.1-.2.1-.3.1-.1 0-.2 0-.3-.1-.1-.1-.1-.2-.1-.3 0-.1 0-.2.1-.3.1-.1.2-.1.3-.1.1 0 .2 0 .3.1.1 0 .1.1.1.3m14-5.7c0 .1 0 .2-.1.3-.1.1-.2.1-.3.1-.1 0-.2 0-.4-.2-.1-.1-.3-.2-.4-.2-.2 0-.4 0-.5.1-.1.1-.2.2-.3.4-.1.2-.2.6-.3 1.2 0 .2-.1.4-.1.5h1.1v.3l-.1.1h-1l-.7 3c-.1.5-.3 1-.5 1.4-.2.4-.5.7-.7.9-.3.2-.5.3-.8.3-.2 0-.4-.1-.5-.2-.1-.1-.2-.2-.2-.4s.1-.4.4-.4c.1 0 .2.1.4.2.1.1.3.2.4.2.2 0 .3-.1.4-.2.1-.1.2-.4.3-.9l.8-3.9c0-.1 0-.1-.1-.1h-.9c-.1 0-.1 0-.1-.1 0 0 0-.1.1-.1.6-.1.9-.2.9-.3.1-.4.3-.9.5-1.3.3-.4.6-.8.9-1 .3-.2.7-.4 1-.4.6.2.8.4.8.7m5.2 3.4c0 .4-.1.8-.3 1.3-.2.4-.5.8-.8 1-.3.3-.7.4-1 .4-.3 0-.5-.1-.7-.4-.2-.3-.3-.6-.3-1s.1-.8.3-1.3c.2-.4.5-.8.8-1 .3-.3.7-.4 1-.4.3 0 .5.1.7.4.2.3.3.7.3 1m-.7-.5c0-.2 0-.3-.1-.4 0-.1-.1-.1-.3-.1-.2 0-.4.2-.7.5-.2.3-.4.7-.6 1.2-.2.5-.2.9-.2 1.3 0 .2 0 .3.1.4 0 .1.1.1.3.1.2 0 .4-.2.7-.5.2-.3.4-.7.6-1.2.1-.4.2-.9.2-1.3m8.1-.3c0 .1 0 .3-.1.4-.1.1-.2.1-.3.1-.1 0-.2-.1-.3-.2-.1-.1-.2-.1-.2-.1-.2 0-.5.3-.8.9-.4.6-.7 1.3-1.1 2.2 0 .1-.2.1-.4.1h-.2c-.1 0-.1-.1-.1-.1l.9-2.7c.1-.2.1-.4.1-.4 0-.1 0-.1-.1-.1s-.3.2-.5.5c-.1.2-.2.2-.2.2s-.1 0-.1-.1v-.1s.1-.2.3-.4c.2-.2.4-.4.6-.5.2-.1.3-.2.5-.2.3 0 .5.1.5.4 0 .1 0 .4-.1.6l-.2.5c.6-1 1-1.5 1.5-1.5.2 0 .3 0 .4.1-.2.1-.1.2-.1.4m14.6.1c0 .2 0 .3-.1.5l-1 1.9-.2.4c0 .1 0 .1.1.1s.3-.2.6-.5c.2-.2.2-.3.3-.3h.1v.1s-.1.2-.3.4l-.6.6c-.2.1-.4.2-.5.2-.3 0-.4-.1-.4-.4 0-.2.1-.4.2-.7l.9-1.9c.1-.1.1-.2.1-.3 0-.1-.1-.2-.2-.2s-.3.1-.6.4c-.2.3-.7 1-1.4 2l-.4.7c-.1.1-.2.2-.4.2s-.4 0-.4-.1l1.3-2.7c.1-.1.1-.2.1-.3 0-.2-.1-.2-.2-.2-.2 0-.4.2-.6.5-.3.3-.7 1-1.3 2l-.3.7c-.1.1-.2.2-.4.2s-.4 0-.4-.1l1.2-2.7c.1-.2.1-.4.1-.4 0-.1 0-.1-.1-.1s-.3.2-.6.5l-.2.2h-.1v-.1s.1-.2.3-.4l.6-.6c.2-.1.4-.2.5-.2.3 0 .4.1.4.4 0 .2-.1.4-.2.6l-.2.4c.2-.4.5-.8.8-1 .3-.3.6-.4.9-.4.2 0 .3.1.4.2.1.1.1.2.1.4 0 .1 0 .3-.1.4l-.2.4c.3-.4.5-.8.8-1 .3-.2.6-.4.8-.4.2 0 .3.1.4.2.3.1.4.2.4.4m6.6.1c0 .4-.2.8-.6 1.1-.4.3-.9.5-1.4.5v.5c0 .3 0 .4.1.6.1.1.2.2.4.2.4 0 .7-.2 1-.6h.1v.1c0 .1-.1.2-.3.4-.2.2-.4.4-.6.5-.2.1-.4.2-.6.2-.3 0-.5-.1-.7-.3-.2-.2-.3-.5-.3-.8 0-.4.1-.9.3-1.3.2-.5.5-.8.8-1.1.3-.3.7-.5.9-.5.2 0 .4.1.5.2.3-.1.4.1.4.3m-.6.1c0-.2-.1-.4-.3-.4-.2 0-.4.1-.6.4-.2.3-.3.6-.4 1.1.2 0 .5-.1.7-.2l.5-.4.1-.5m-8.5-33.6h20.4l.7-4.5h-20.2m-126.9 20.5h-5.1v-16.3h4.7c2.5 0 3.7 1.2 3.7 2.8 0 1.7-1.2 2.9-3.6 2.9h-1.7l-.7 3.7h3.1c2.8 0 3.9 1.6 3.9 3.5.1 2-1.5 3.4-4.3 3.4m5-9.2c2.5-1.1 3.6-2.9 3.6-4.9 0-3.9-2.8-6.4-8.2-6.4h-11v24.7h11.4c5.8 0 9-3.2 9-7.2 0-3-1.5-5.4-4.8-6.2m56.3 9.2h-5.1v-16.3h4.7c2.5 0 3.7 1.2 3.7 2.8 0 1.7-1.2 2.9-3.6 2.9h-1.7l-.7 3.7h3.1c2.8 0 3.9 1.6 3.9 3.5 0 2-1.5 3.4-4.3 3.4m5-9.2c2.5-1.1 3.6-2.9 3.6-4.9 0-3.9-2.8-6.4-8.2-6.4h-10.9v24.7h11.4c5.8 0 9-3.2 9-7.2-.1-3-1.7-5.4-4.9-6.2m-39.4-11.3l-9.4 24.7h5.5l6.6-18.8 3.1 9.2h-4.2l-1.4 4.1h7.1l1.8 5.5h5.7l-9.3-24.7m78.4 10.2l-2.9-.6c-4-.8-4.6-1.9-4.6-3.2 0-1.6 1.5-2.7 3.7-2.7 2.7 0 4.1 1.1 4.7 3.7l5.2-1c-1-5-4.9-6.9-9.7-6.9-5.3 0-9.2 3-9.2 7.5 0 3.6 2.2 5.9 7 7l2.9.7c3.9.9 4.7 1.9 4.7 3.3 0 2-1.9 3.2-5.1 3.2-2.4 0-4.5-1.1-5.1-4.4l-5.1 1.1c.8 5.3 4.9 7.5 10.1 7.5 6.9 0 10.4-3.6 10.4-7.7.1-4-2.4-6.6-7-7.5m23.2-3.4h5.5v17.9h-5.5zm32-6.8h-5.6l-9.3 24.7h5.5l6.6-18.8 3.1 9.2h-4.2l-1.4 4.1h7l1.9 5.5h5.6m-93.6-24.7h5.5v24.7h-5.5zm.7-52.6c-11.8 0-21.3 9.5-21.4 21.3 0 11.8 9.5 21.3 21.2 21.3 11.8 0 21.3-9.5 21.3-21.2.2-11.8-9.3-21.3-21.1-21.4zm1.4 32.5h-8.3c-3.4 0-5.3-1.5-5.1-4 .2-2.7 2.6-3.3 3.2-3.4-.8 0-4.2-.8-3.9-4 .2-2.8 2.5-4.5 5.9-4.5h6.5l-.4 2.2h-5.8c-1.9 0-3.1.9-3.3 2.5-.1 1.6 1 2.5 2.9 2.5h.6l-.4 2.2c-1.4 0-2.4.9-2.6 2.1-.1 1.1.6 2.2 2.7 2.2h5.7l.4-2.1h2.5l-.6 4.3zm-2.3-12.2l-1.6 8.5h-2.5l1.6-8.5h2.5zm13.5 1.2c-.2 2.8-2.5 4.5-5.9 4.5h-6.5l.4-2.2h5.8c1.9 0 3.1-.9 3.3-2.5.1-1.6-1-2.5-2.9-2.5h-.6l.4-2.2c1.4 0 2.4-.9 2.5-2.1.1-1.1-.5-2.2-2.7-2.2h-5.7l-.4 2.1h-2.5l.8-4.2h8.3c3.4 0 5.3 1.5 5.1 4-.2 2.7-2.6 3.3-3.2 3.4.7-.1 4.1.7 3.8 3.9zm-11.7.8l1.6-8.5h2.5l-1.6 8.5h-2.5z" fill="#FFF"/>
</svg>
