<svg width="580" height="400" xmlns="http://www.w3.org/2000/svg"><g><title>background</title><rect fill="none" id="canvas_background" height="402" width="582" y="-1" x="-1" /><g display="none" overflow="visible" y="0" x="0" height="100%" width="100%" id="canvasGrid"><rect fill="url(#gridpattern)" stroke-width="0" y="0" x="0" height="100%" width="100%" /></g></g><g><title>Layer 1</title><path stroke="#000" id="svg_1" d="m386.733206,60.802214c-26.343334,-23.042072 -54.75607,-41.500213 -78.063274,-44.016614c-1.26883,-0.163226 -2.582976,-0.258441 -3.972647,-0.285646l-153.392522,0c-2.44703,0 -4.86385,0.856937 -6.585834,2.44839c-1.706879,1.550647 -2.718922,3.726994 -2.718922,5.944147l0,350.255811c0,2.203551 0.951623,4.311887 2.718922,5.916943c1.767299,1.577851 4.093488,2.434788 6.585834,2.434788l277.390474,0c2.44703,0 4.788324,-0.843334 6.555623,-2.434788c1.767299,-1.591454 2.749132,-3.69979 2.749132,-5.916943l0,-233.073139c-0.543784,-27.054711 -24.077566,-56.557812 -51.266787,-81.27295zm32.627065,305.926348l-258.780963,0l0,-333.497941l144.133081,0l0,0.027204c6.283731,-0.340054 11.70647,5.250437 15.860379,18.036474c3.776281,12.17394 4.727903,28.047669 4.712798,39.051823c0.03021,8.066085 -0.407838,13.479748 -0.407838,13.479748l-0.740151,8.868613l9.908961,0.095215c0.045315,0 22.899366,0.244839 45.315368,4.828769c21.539905,4.189468 38.382117,12.541198 39.95305,21.994705c0.06042,0.843334 0.075526,1.686669 0.06042,2.475594l0,224.639795l-0.015105,0z" stroke-width="1.5" fill="#fff" /><text style="cursor: move;" font-weight="bold" font-style="normal" font-size="24" font-family="'Palatino Linotype', 'Book Antiqua', Palatino, serif" transform="matrix(2.7000856399536133,0,0,2.555555582046509,-388.46956872940063,-206.88889241218567) " xml:space="preserve" text-anchor="start" id="svg_2" y="166.977919" x="214.926362" fill="#fff" fill-opacity="1" stroke="#000" stroke-opacity="1" stroke-width="1" stroke-linecap="butt" stroke-linejoin="miter">Base</text><text font-size="24" font-weight="bold" font-family="'Palatino Linotype', 'Book Antiqua', Palatino, serif" transform="matrix(2.375,0,0,2.40625,-370.5625,-336.09375) " xml:space="preserve" text-anchor="start" id="svg_3" y="242.805195" x="295.184211" fill="#fff" fill-opacity="1" stroke="#000" stroke-opacity="1" stroke-width="1" stroke-linecap="butt" stroke-linejoin="miter">64</text></g></svg>