<?xml version="1.0" encoding="UTF-8"?>
<svg width="100px" height="100px" viewBox="0 0 100 100" version="1.1" xmlns="http://www.w3.org/2000/svg" xmlns:xlink="http://www.w3.org/1999/xlink">
    <!-- Generator: Sketch 48.2 (47327) - http://www.bohemiancoding.com/sketch -->
    <title>00 App</title>
    <desc>Created with Sketch.</desc>
    <defs>
        <polygon id="path-1" points="33.3963452 49.8038931 33.3963452 0.0663826083 0.116219281 0.0663826083 0.116219281 49.8038931 33.3963452 49.8038931"></polygon>
    </defs>
    <g id="01.-App-icon" stroke="none" stroke-width="1" fill="none" fill-rule="evenodd">
        <g id="00-App">
            <g id="Group">
                <polygon id="Fill-1" fill="#1765A5" points="0 100 100 100 100 0 0 0"></polygon>
                <polygon id="Fill-2" fill="#0C457F" points="0 0.000249991676 100.189036 99.996087 100.189036 0.000249991676"></polygon>
                <polygon id="Fill-3" fill="#1F355C" points="0 99.9966703 100.189036 99.9966703 100.189036 50.2591598"></polygon>
                <g id="Group-15" transform="translate(13.552937, 38.646512)">
                    <g id="Group-6" transform="translate(53.239754, 11.545849)">
                        <mask id="mask-2" fill="white">
                            <use xlink:href="#path-1"></use>
                        </mask>
                        <g id="Clip-5"></g>
                        <polygon id="Fill-4" fill="#1B2542" mask="url(#mask-2)" points="33.3965122 0.0663826083 0.116219281 16.5883325 33.3965122 49.8038931"></polygon>
                    </g>
                    <path d="M27.5937818,9.99486845 L29.48318,7.17996218 C29.9607478,6.47331904 30.0626066,6.03000047 30.0626066,5.53501695 C30.0626066,4.15339629 28.8453098,2.99260161 27.4426633,2.99260161 L24.5371813,2.99260161 L24.5371813,19.6253811 L26.1468852,19.6253811 C28.8411353,19.6253811 30.8849916,18.1737628 30.8849916,14.7722094 C30.8849916,11.9681361 29.565836,10.4706859 27.5937818,9.99486845 M28.7242481,22.66278 L19.2079595,22.66278 L19.2079595,0.0410332249 L29.0715701,0.0410332249 C33.6944592,0.0410332249 35.3066677,3.80257464 32.9655839,7.27329241 L31.8584951,8.91240449 C39.6156312,12.9331039 37.0933722,22.66278 28.7242481,22.66278" id="Fill-7" fill="#FEFEFE"></path>
                    <path d="M8.42678439,9.99486845 L10.3161826,7.17996218 C10.7945853,6.47331904 10.8956092,6.03000047 10.8956092,5.53501695 C10.8956092,4.15339629 9.67831242,2.99260161 8.27650083,2.99260161 L5.3710188,2.99260161 L5.3710188,19.6253811 L6.97988773,19.6253811 C9.67413788,19.6253811 11.7179942,18.1737628 11.7179942,14.7722094 C11.7179942,11.9681361 10.3996735,10.4706859 8.42678439,9.99486845 M9.55808558,22.66278 L0.0409621055,22.66278 L0.0409621055,0.0410332249 L9.90540757,0.0410332249 C14.5282967,0.0410332249 16.1405052,3.80257464 13.7985865,7.27329241 L12.6914977,8.91240449 C20.4486338,12.9331039 17.9263748,22.66278 9.55808558,22.66278" id="Fill-9" fill="#FEFEFE"></path>
                    <path d="M51.2378098,0.041199886 L54.8137234,0.041199886 L47.9073592,22.6537803 L42.4712692,22.650447 L35.06229,0.0445331083 L39.0648419,0.041199886 C40.6119276,0.041199886 41.0176932,0.439519956 41.8258848,3.00110133 L46.1139755,17.2172946 L51.2378098,0.041199886 Z" id="Fill-11" fill="#FEFEFE"></path>
                    <path d="M58.1734793,14.4641363 L61.2676506,4.14947976 L64.4035675,14.4641363 L58.1734793,14.4641363 Z M66.1693992,2.35203961 C65.5306941,0.464602454 65.0998812,0.0487829668 63.4258894,0.0487829668 L59.0960533,0.0454497445 L52.1613022,22.6571968 L55.6954704,22.6571968 L57.1816078,17.7756927 L65.4246607,17.7756927 L66.9174773,22.6555302 L73.042367,22.6555302 L66.1693992,2.35203961 Z" id="Fill-13" fill="#FEFEFE"></path>
                </g>
            </g>
        </g>
    </g>
</svg>