<svg xmlns="http://www.w3.org/2000/svg" viewBox="0 0 120 120">
<path fill="#14171B" d="M119,99c0,11-9,20-20,20H21c-11,0-20-9-20-20V21C1,10,10,1,21,1h78c11,0,20,9,20,20V99z"/>
<g fill="#FFFFFF">
<circle cx="25" cy="60" r="2"/>
<circle cx="60" cy="60" r="2"/>
<circle cx="60" cy="95" r="2"/>
<circle cx="95" cy="25" r="2"/>
<circle cx="95" cy="95" r="2"/>
</g>
<g fill="none" stroke-width="14" stroke-linecap="round">
<line stroke="#999" x1="25" y1="25" x2="95" y2="60"/>
<line stroke="#CCC" x1="95" y1="60" x2="25" y2="95"/>
<line stroke="#FFF" x1="25" y1="95" x2="60" y2="25"/>
</g>
<circle fill="#999" cx="60" cy="25" r="3.5"/>
</svg>
