<svg xmlns="http://www.w3.org/2000/svg" width="239" height="238" viewBox="0 0 847.5 842.9"><style>.a{fill:none;}.b{fill-opacity:0.6;fill:#00f;}.c{fill:#00f;}.d{fill:#fff;}</style><g transform="translate(5.4596681 -139.27841)matrix(4.5809971 0 0 4.5809971 -5.4596681 139.27841)"><path d="M0 0.5 0 0 0.5 0 1 0 0.9 0.4Q0.8 0.8 0.4 0.9L0 1 0 0.5" class="a"/><path d="M0.9 0.4 1 0 1.5 0 2 0 2 0.5Q2 1 1.6 1.1L1.3 1.3 1.5 1.2 1.8 1.1 1.6 1.1Q1.4 1.2 1.3 1.3L1.2 1.4 1.3 1.4 1.3 1.3 1 1 0.7 0.7 0.6 0.8 0.6 0.8 0.7 0.7Q0.8 0.6 0.9 0.4L0.9 0.2 0.8 0.5 0.8 0.8 0.9 0.4" class="b"/><path d="M2 0.5 2 0 2.5 0 3 0 3.5 0 4 0 4.5 0 5 0 5.5 0 6 0 6.5 0 7 0 7.5 0 8 0 8.5 0 9 0 9.5 0 10 0 10.5 0 11 0 11.5 0 12 0 12.5 0 13 0 13.5 0 14 0 14.5 0 15 0 15.5 0 16 0 16.5 0 17 0 17.5 0 18 0 18.5 0 19 0 19.5 0 20 0 20.5 0 21 0 21.5 0 22 0 22.5 0 23 0 23.5 0 24 0 24.5 0 25 0 25.5 0 26 0 26.5 0 27 0 27.5 0 28 0 28.5 0 29 0 29.5 0 30 0 30.5 0 31 0 31.5 0 32 0 32.5 0 33 0 33.5 0 34 0 34.5 0 35 0 35.5 0 36 0 36.5 0 37 0 37.5 0 38 0 38.5 0 39 0 39.5 0 40 0 40.5 0 41 0 41.5 0 42 0 42.5 0 43 0 43.5 0 44 0 44.5 0 45 0 45.5 0 46 0 46.5 0 47 0 47.5 0 48 0 48 0.5q0 0.5 0 1 0 0.5 0 1 0 0.5 0 1 0 0.5 0 1 0 0.5 0 1 0 0.5 0 1 0 0.5 0 1 0 0.5 0 1 0 0.5 0 1 0 0.5 0 1 0 0.5 0 1 0 0.5 0 1 0 0.5 0 1 0 0.5 0 1 0 0.5 0 1 0 0.5 0 1 0 0.5 0 1 0 0.5 0 1 0 0.5 0 1 0 0.5 0 1 0 0.5 0 1 0 0.5 0 1 0 0.5 0 1 0 0.5 0 1 0 0.5 0 1 0 0.5 0 1 0 0.5 0 1 0 0.5 0 1 0 0.5 0 1 0 0.5 0 1 0 0.5 0 1 0 0.5 0 1 0 0.5 0 1 0 0.5 0 1 0 0.5 0 1 0 0.5 0 1 0 0.5 0 1 0 0.5 0 1 0 0.5 0 1 0 0.5 0 1 0 0.5 0 1 0 0.5 0 1 0 0.5 0 1 0 0.5 0 1 0 0.5 0 1 0 0.5 0 1 0 0.5-0.1 0.9-0.1 0.4-0.5 0.5Q47 48 46.5 48q-0.5 0-1 0-0.5 0-1 0-0.5 0-1 0-0.5 0-1 0-0.5 0-1 0-0.5 0-1 0-0.5 0-1 0-0.5 0-1 0-0.5 0-1 0-0.5 0-1 0-0.5 0-1 0-0.5 0-1 0-0.5 0-1 0-0.5 0-1 0-0.5 0-1 0-0.5 0-1 0-0.5 0-1 0-0.5 0-1 0-0.5 0-1 0-0.5 0-1 0-0.5 0-1 0-0.5 0-1 0-0.5 0-1 0-0.5 0-1 0-0.5 0-1 0-0.5 0-1 0-0.5 0-1 0-0.5 0-1 0-0.5 0-1 0-0.5 0-1 0-0.5 0-1 0-0.5 0-1 0-0.5 0-1 0-0.5 0-1 0-0.5 0-1 0-0.5 0-1 0-0.5 0-1 0-0.5 0-1 0-0.5 0-1 0-0.5 0-1 0-0.5 0-1 0-0.5 0-1 0-0.5 0-1 0-0.5 0-1 0-0.5 0-1 0-0.5 0-1 0L0 48 0 47.5 0 47 0 46.5 0 46 0 45.5 0 45 0 44.5 0 44 0 43.5 0 43 0 42.5 0 42 0 41.5 0 41 0 40.5 0 40 0 39.5 0 39 0 38.5 0 38 0 37.5 0 37 0 36.5 0 36 0 35.5 0 35 0 34.5 0 34 0 33.5 0 33 0 32.5 0 32 0 31.5 0 31 0 30.5 0 30 0 29.5 0 29 0 28.5 0 28 0 27.5 0 27 0 26.5 0 26 0 25.5 0 25 0 24.5 0 24 0 23.5 0 23 0 22.5 0 22 0 21.5 0 21 0 20.5 0 20 0 19.5 0 19 0 18.5 0 18 0 17.5 0 17 0 16.5 0 16 0 15.5 0 15 0 14.5 0 14 0 13.5 0 13 0 12.5 0 12 0 11.5 0 11 0 10.5 0 10 0 9.5 0 9 0 8.5 0 8 0 7.5 0 7 0 6.5 0 6 0 5.5 0 5 0 4.5 0 4 0 3.5 0 3 0 2.5 0 2 0.5 2Q1 2 1.1 1.6 1.3 1.3 1.6 1.1 2 1 2 0.5" class="c"/><path d="m48 0.5 0-0.5 0.5 0 0.5 0 0.5 0 0.5 0 0.5 0 0.5 0 0.5 0 0.5 0 0.5 0 0.5 0 0.5 0 0.5 0 0.5 0 0.5 0 0.5 0 0.5 0 0.5 0 0.5 0 0.5 0 0.5 0 0.5 0 0.5 0 0.5 0 0.5 0 0.5 0 0.5 0 0.5 0 0.5 0 0.5 0 0.5 0 0.5 0 0.5 0 0.5 0 0.5 0 0.5 0 0.5 0 0.5 0 0.5 0 0.5 0 0.5 0 0.5 0 0.5 0 0.5 0 0.5 0 0.5 0 0.5 0 0.5 0 0.5 0 0.5 0 0.5 0 0.5 0 0.5 0 0.5 0 0.5 0 0.5 0 0.5 0 0.5 0 0.5 0 0.5 0 0.5 0 0.5 0 0.5 0 0.5 0 0.5 0 0.5 0 0.5 0 0.5 0 0.5 0 0.5 0 0.5 0 0.5 0 0.5 0 0.5 0 0.5 0 0.5 0 0.5 0 0.5 0 0.5 0 0.5 0 0.5 0 0.5 0 0.5 0 0.5 0 0.5 0 0.5 0 0.5 0 0.5 0 0.5 0 0.5 0 0.5 0 0.5 0 0.5 0 0.5 0 0.5 0 0.5 0 0.5 0 0.5 0 0.5 0 0.5 0 0.5 0 0.5 0 0.5 0 0.5 0 0.5 0 0.5 0 0.5 0 0.5 0 0.5 0 0.5 0 0.5 0 0.5 0 0.5 0 0.5 0 0.5 0 0.5 0 0.5 0 0.5 0 0.5 0 0.5 0 0.5 0 0.5 0 0.5 0 0.5 0 0.5 0 0.5 0 0.5 0 0.5 0 0.5 0 0.5 0 0.5 0 0.5 0 0.5 0 0.5 0 0.5 0 0.5 0 0.5 0 0.5 0 0.5 0 0.5 0 0.5 0 0.5 0 0.5 0 0.5 0 0.5 0 0.5 0 0.5 0 0.5 0 0.5 0 0.5 0 0.5 0 0.5 0 0.5 0 0.5 0 0.5 0 0.5 0 0.5 0 0.5 0 0.5 0 0.5 0 0.5 0 0.5 0 0.5 0 0.5 0 0.5 0 0.5 0 0.5 0 0.5 0 0.5 0 0.5 0 0.5 0 0.5 0 0.5 0 0.5 0 0.5 0 0.5 0 0.5 0 0.5 0 0.5 0 0 0.5q0 0.5 0 1 0 0.5 0 1 0 0.5 0 1 0 0.5 0 1 0 0.5 0 1 0 0.5 0 1 0 0.5 0 1 0 0.5 0 1 0 0.5 0 1 0 0.5 0 1 0 0.5 0 1 0 0.5 0 1 0 0.5 0 1 0 0.5 0 1 0 0.5 0 1 0 0.5 0 1 0 0.5 0 1 0 0.5 0 1 0 0.5 0 1 0 0.5 0 1 0 0.5 0 1 0 0.5 0 1 0 0.5 0 1 0 0.5 0 1 0 0.5 0 1 0 0.5 0 1 0 0.5 0 1 0 0.5 0 1 0 0.5 0 1 0 0.5 0 1 0 0.5 0 1 0 0.5 0 1 0 0.5 0 1 0 0.5 0 1 0 0.5 0 1 0 0.5 0 1 0 0.5 0 1 0 0.5 0 1 0 0.5 0 1 0 0.5 0 1 0 0.5 0 1 0 0.5 0 1 0 0.5 0 1 0 0.5 0 1 0 0.5 0 1 0 0.5 0 1 0 0.5 0.1 0.9 0.1 0.4 0.5 0.5Q138 48 138.5 48q0.5 0 1 0 0.5 0 1 0 0.5 0 1 0 0.5 0 1 0 0.5 0 1 0 0.5 0 1 0 0.5 0 1 0 0.5 0 1 0 0.5 0 1 0 0.5 0 1 0 0.5 0 1 0 0.5 0 1 0 0.5 0 1 0 0.5 0 1 0 0.5 0 1 0 0.5 0 1 0 0.5 0 1 0 0.5 0 1 0 0.5 0 1 0 0.5 0 1 0 0.5 0 1 0 0.5 0 1 0 0.5 0 1 0 0.5 0 1 0 0.5 0 1 0 0.5 0 1 0 0.5 0 1 0 0.5 0 1 0 0.5 0 1 0 0.5 0 1 0 0.5 0 1 0 0.5 0 1 0 0.5 0 1 0 0.5 0 1 0 0.5 0 1 0 0.5 0 1 0 0.5 0 1 0 0.5 0 1 0 0.5 0 1 0 0.5 0 1 0 0.5 0 1 0 0.5 0 1 0 0.5 0 1 0 0.5 0 1 0 0.5 0 1 0 0.5 0 1 0l0.5 0 0 0.5 0 0.5 0 0.5 0 0.5 0 0.5 0 0.5 0 0.5 0 0.5 0 0.5 0 0.5 0 0.5 0 0.5 0 0.5 0 0.5 0 0.5 0 0.5 0 0.5 0 0.5 0 0.5 0 0.5 0 0.5 0 0.5 0 0.5 0 0.5 0 0.5 0 0.5 0 0.5 0 0.5 0 0.5 0 0.5 0 0.5 0 0.5 0 0.5 0 0.5 0 0.5 0 0.5 0 0.5 0 0.5 0 0.5 0 0.5 0 0.5 0 0.5 0 0.5 0 0.5 0 0.5 0 0.5 0 0.5 0 0.5 0 0.5 0 0.5 0 0.5 0 0.5 0 0.5 0 0.5-0.5 0q-0.5 0-1 0-0.5 0-1 0-0.5 0-1 0-0.5 0-1 0-0.5 0-1 0-0.5 0-1 0-0.5 0-1 0-0.5 0-1 0-0.5 0-1 0-0.5 0-1 0-0.5 0-1 0-0.5 0-1 0-0.5 0-1 0-0.5 0-1 0-0.5 0-1 0-0.5 0-1 0-0.5 0-1 0-0.5 0-1 0-0.5 0-1 0-0.5 0-1 0-0.5 0-1 0-0.5 0-1 0-0.5 0-1 0-0.5 0-1 0-0.5 0-1 0-0.5 0-1 0-0.5 0-1 0-0.5 0-1 0-0.5 0-1 0-0.5 0-1 0-0.5 0-1 0-0.5 0-1 0-0.5 0-1 0-0.5 0-1 0-0.5 0-1 0-0.5 0-1 0-0.5 0-1 0-0.5 0-1 0-0.5 0-1 0-0.5 0-1 0-0.5 0-1 0-0.5 0-1 0-0.5 0-1 0-0.5 0-1 0-0.5 0-1 0-0.5 0-1 0-0.5 0-1 0-0.5 0-1 0-0.5 0-1 0-0.5 0-1 0-0.5 0-1 0-0.5 0-1 0-0.5 0-1 0-0.5 0-1 0-0.5 0-1 0-0.5 0-1 0-0.5 0-1 0-0.5 0-0.9 0.1-0.4 0.1-0.5 0.5Q126 76 126 76.5q0 0.5 0 1 0 0.5 0 1 0 0.5 0 1 0 0.5 0 1 0 0.5 0 1 0 0.5 0 1 0 0.5 0 1 0 0.5 0 1 0 0.5 0 1 0 0.5 0 1 0 0.5 0 1 0 0.5 0 1 0 0.5 0 1 0 0.5 0 1 0 0.5 0 1 0 0.5 0 1 0 0.5 0 1 0 0.5 0 1 0 0.5 0 1 0 0.5 0 1 0 0.5 0 1 0 0.5 0 1 0 0.5 0 1 0 0.5 0 1 0 0.5 0 1 0 0.5 0 1 0 0.5 0 1 0 0.5 0 1 0 0.5 0 1 0 0.5 0 1 0 0.5 0 1 0 0.5 0.1 0.9 0.1 0.4 0.5 0.5Q127 109 127.5 109q0.5 0 1 0 0.5 0 1 0 0.5 0 1 0 0.5 0 1 0 0.5 0 1 0 0.5 0 1 0 0.5 0 1 0 0.5 0 1 0 0.5 0 1 0 0.5 0 1 0 0.5 0 1 0 0.5 0 1 0 0.5 0 1 0 0.5 0 1 0 0.5 0 1 0 0.5 0 1 0 0.5 0 1 0 0.5 0 1 0 0.5 0 1 0 0.5 0 1 0 0.5 0 1 0 0.5 0 1 0 0.5 0 1 0 0.5 0 1 0 0.5 0 1 0 0.5 0 1 0 0.5 0 1 0 0.5 0 1 0 0.5 0 1 0 0.5 0 1 0 0.5 0 1 0 0.5 0 1 0 0.5 0 1 0 0.5 0 1 0 0.5 0 1 0 0.5 0 1 0 0.5 0 1 0 0.5 0 1 0 0.5 0 1 0 0.5 0 1 0 0.5 0 1 0 0.5 0 1 0 0.5 0 1 0 0.5 0 1 0 0.5 0 1 0 0.5 0 1 0 0.5 0 1 0 0.5 0 1 0 0.5 0 1 0 0.5 0 1 0 0.5 0 1 0 0.5 0 1 0 0.5 0 1 0 0.5 0 1 0 0.5 0 1 0 0.5 0 1 0 0.5 0 1 0l0.5 0 0 0.5 0 0.5 0 0.5 0 0.5 0 0.5 0 0.5 0 0.5 0 0.5 0 0.5 0 0.5 0 0.5 0 0.5 0 0.5 0 0.5 0 0.5 0 0.5 0 0.5 0 0.5 0 0.5 0 0.5 0 0.5 0 0.5 0 0.5 0 0.5 0 0.5 0 0.5 0 0.5 0 0.5 0 0.5 0 0.5 0 0.5 0 0.5 0 0.5 0 0.5 0 0.5 0 0.5 0 0.5 0 0.5 0 0.5 0 0.5 0 0.5 0 0.5 0 0.5 0 0.5 0 0.5 0 0.5 0 0.5 0 0.5 0 0.5 0 0.5 0 0.5 0 0.5 0 0.5 0 0.5-0.5 0q-0.5 0-1 0-0.5 0-1 0-0.5 0-1 0-0.5 0-1 0-0.5 0-1 0-0.5 0-1 0-0.5 0-1 0-0.5 0-1 0-0.5 0-1 0-0.5 0-1 0-0.5 0-1 0-0.5 0-1 0-0.5 0-1 0-0.5 0-1 0-0.5 0-1 0-0.5 0-1 0-0.5 0-1 0-0.5 0-1 0-0.5 0-1 0-0.5 0-1 0-0.5 0-1 0-0.5 0-1 0-0.5 0-1 0-0.5 0-1 0-0.5 0-1 0-0.5 0-1 0-0.5 0-1 0-0.5 0-1 0-0.5 0-1 0-0.5 0-1 0-0.5 0-1 0-0.5 0-1 0-0.5 0-1 0-0.5 0-1 0-0.5 0-1 0-0.5 0-1 0-0.5 0-1 0-0.5 0-1 0-0.5 0-1 0-0.5 0-1 0-0.5 0-1 0-0.5 0-1 0-0.5 0-1 0-0.5 0-1 0-0.5 0-1 0-0.5 0-1 0-0.5 0-0.9 0.1-0.4 0.1-0.5 0.5Q137 137 137 137.5q0 0.5 0 1 0 0.5 0 1 0 0.5 0 1 0 0.5 0 1 0 0.5 0 1 0 0.5 0 1 0 0.5 0 1 0 0.5 0 1 0 0.5 0 1 0 0.5 0 1 0 0.5 0 1 0 0.5 0 1 0 0.5 0 1 0 0.5 0 1 0 0.5 0 1 0 0.5 0 1 0 0.5 0 1 0 0.5 0 1 0 0.5 0 1 0 0.5 0 1 0 0.5 0 1 0 0.5 0 1 0 0.5 0 1 0 0.5 0 1 0 0.5 0 1 0 0.5 0 1 0 0.5 0 1 0 0.5 0 1 0 0.5 0 1 0 0.5 0 1 0 0.5 0 1 0 0.5 0 1 0 0.5 0 1 0 0.5 0 1 0 0.5 0 1 0 0.5 0 1 0 0.5 0 1 0 0.5 0 1 0 0.5 0 1 0 0.5 0 1 0 0.5 0 1 0 0.5 0 1 0 0.5 0 1 0 0.5 0 1 0 0.5 0 1 0 0.5 0 1l0 0.5-0.5 0-0.5 0-0.5 0-0.5 0-0.5 0-0.5 0-0.5 0-0.5 0-0.5 0-0.5 0-0.5 0-0.5 0-0.5 0-0.5 0-0.5 0-0.5 0-0.5 0-0.5 0-0.5 0-0.5 0-0.5 0-0.5 0-0.5 0-0.5 0-0.5 0-0.5 0-0.5 0-0.5 0-0.5 0-0.5 0-0.5 0-0.5 0-0.5 0-0.5 0-0.5 0-0.5 0-0.5 0-0.5 0-0.5 0-0.5 0-0.5 0-0.5 0-0.5 0-0.5 0-0.5 0-0.5 0-0.5 0-0.5 0-0.5 0-0.5 0-0.5 0-0.5 0-0.5 0-0.5 0-0.5 0-0.5 0 0-0.5q0-0.5 0-1 0-0.5 0-1 0-0.5 0-1 0-0.5 0-1 0-0.5 0-1 0-0.5 0-1 0-0.5 0-1 0-0.5 0-1 0-0.5 0-1 0-0.5 0-1 0-0.5 0-1 0-0.5 0-1 0-0.5 0-1 0-0.5 0-1 0-0.5 0-1 0-0.5 0-1 0-0.5 0-1 0-0.5 0-1 0-0.5 0-1 0-0.5 0-1 0-0.5 0-1 0-0.5 0-1 0-0.5 0-1 0-0.5 0-1 0-0.5 0-1 0-0.5 0-1 0-0.5 0-1 0-0.5 0-1 0-0.5 0-1 0-0.5 0-1 0-0.5 0-1 0-0.5 0-1 0-0.5 0-1 0-0.5 0-1 0-0.5 0-1 0-0.5 0-1 0-0.5 0-1 0-0.5 0-1 0-0.5 0-1 0-0.5 0-1 0-0.5 0-1 0-0.5 0-1 0-0.5 0-1 0-0.5 0-1 0-0.5 0-1 0-0.5 0-1 0-0.5 0-1 0-0.5 0-1 0-0.5 0-1 0-0.5 0-1 0-0.5 0-1 0-0.5 0-1 0-0.5 0-1 0-0.5 0-1 0-0.5 0-1 0-0.5 0-1 0-0.5-0.1-0.9-0.1-0.4-0.5-0.5Q108 126 107.5 126q-0.5 0-1 0-0.5 0-1 0-0.5 0-1 0-0.5 0-1 0-0.5 0-1 0-0.5 0-1 0-0.5 0-1 0-0.5 0-1 0-0.5 0-1 0-0.5 0-1 0-0.5 0-1 0-0.5 0-1 0-0.5 0-1 0-0.5 0-1 0-0.5 0-1 0-0.5 0-1 0-0.5 0-1 0-0.5 0-1 0-0.5 0-1 0-0.5 0-1 0-0.5 0-1 0-0.5 0-1 0-0.5 0-1 0-0.5 0-1 0-0.5 0-1 0-0.5 0-1 0-0.5 0-1 0-0.5 0-1 0-0.5 0-1 0-0.5 0-1 0-0.5 0-1 0-0.5 0-0.9 0.1-0.4 0.1-0.5 0.5Q75 127 75 127.5q0 0.5 0 1 0 0.5 0 1 0 0.5 0 1 0 0.5 0 1 0 0.5 0 1 0 0.5 0 1 0 0.5 0 1 0 0.5 0 1 0 0.5 0 1 0 0.5 0 1 0 0.5 0 1 0 0.5 0 1 0 0.5 0 1 0 0.5 0 1 0 0.5 0 1 0 0.5 0 1 0 0.5 0 1 0 0.5 0 1 0 0.5 0 1 0 0.5 0 1 0 0.5 0 1 0 0.5 0 1 0 0.5 0 1 0 0.5 0 1 0 0.5 0 1 0 0.5 0 1 0 0.5 0 1 0 0.5 0 1 0 0.5 0 1 0 0.5 0 1 0 0.5 0 1 0 0.5 0 1 0 0.5 0 1 0 0.5 0 1 0 0.5 0 1 0 0.5 0 1 0 0.5 0 1 0 0.5 0 1 0 0.5 0 1 0 0.5 0 1 0 0.5 0 1 0 0.5 0 1 0 0.5 0 1 0 0.5 0 1 0 0.5 0 1 0 0.5 0 1 0 0.5 0 1 0 0.5 0 1 0 0.5 0 1 0 0.5 0 1 0 0.5 0 1 0 0.5 0 1 0 0.5 0 1 0 0.5 0 1 0 0.5 0 1 0 0.5 0 1l0 0.5-0.5 0-0.5 0-0.5 0-0.5 0-0.5 0-0.5 0-0.5 0-0.5 0-0.5 0-0.5 0-0.5 0-0.5 0-0.5 0-0.5 0-0.5 0-0.5 0-0.5 0-0.5 0-0.5 0-0.5 0-0.5 0-0.5 0-0.5 0-0.5 0-0.5 0-0.5 0-0.5 0-0.5 0-0.5 0-0.5 0-0.5 0-0.5 0-0.5 0-0.5 0-0.5 0-0.5 0-0.5 0-0.5 0-0.5 0-0.5 0-0.5 0-0.5 0-0.5 0-0.5 0-0.5 0-0.5 0-0.5 0-0.5 0-0.5 0-0.5 0-0.5 0-0.5 0-0.5 0-0.5 0 0-0.5q0-0.5 0-1 0-0.5 0-1 0-0.5 0-1 0-0.5 0-1 0-0.5 0-1 0-0.5 0-1 0-0.5 0-1 0-0.5 0-1 0-0.5 0-1 0-0.5 0-1 0-0.5 0-1 0-0.5 0-1 0-0.5 0-1 0-0.5 0-1 0-0.5 0-1 0-0.5 0-1 0-0.5 0-1 0-0.5 0-1 0-0.5 0-1 0-0.5 0-1 0-0.5 0-1 0-0.5 0-1 0-0.5 0-1 0-0.5 0-1 0-0.5 0-1 0-0.5 0-1 0-0.5 0-1 0-0.5 0-1 0-0.5 0-1 0-0.5 0-1 0-0.5 0-1 0-0.5 0-1 0-0.5 0-1 0-0.5 0-1 0-0.5 0-1 0-0.5 0-1 0-0.5 0-1 0-0.5 0-1 0-0.5 0-1 0-0.5 0-1 0-0.5 0-1 0-0.5 0-1 0-0.5 0-1 0-0.5 0-1 0-0.5 0-1 0-0.5 0-1 0-0.5-0.1-0.9-0.1-0.4-0.5-0.5Q47 136 46.5 136q-0.5 0-1 0-0.5 0-1 0-0.5 0-1 0-0.5 0-1 0-0.5 0-1 0-0.5 0-1 0-0.5 0-1 0-0.5 0-1 0-0.5 0-1 0-0.5 0-1 0-0.5 0-1 0-0.5 0-1 0-0.5 0-1 0-0.5 0-1 0-0.5 0-1 0-0.5 0-1 0-0.5 0-1 0-0.5 0-1 0-0.5 0-1 0-0.5 0-1 0-0.5 0-1 0-0.5 0-1 0-0.5 0-1 0-0.5 0-1 0-0.5 0-1 0-0.5 0-1 0-0.5 0-1 0-0.5 0-1 0-0.5 0-1 0-0.5 0-1 0-0.5 0-1 0-0.5 0-1 0-0.5 0-1 0-0.5 0-1 0-0.5 0-1 0-0.5 0-1 0-0.5 0-1 0-0.5 0-1 0-0.5 0-1 0-0.5 0-1 0-0.5 0-1 0-0.5 0-1 0-0.5 0-1 0-0.5 0-1 0-0.5 0-1 0-0.5 0-1 0L0 136 0 135.5 0 135 0 134.5 0 134 0 133.5 0 133 0 132.5 0 132 0 131.5 0 131 0 130.5 0 130 0 129.5 0 129 0 128.5 0 128 0 127.5 0 127 0 126.5 0 126 0 125.5 0 125 0 124.5 0 124 0 123.5 0 123 0 122.5 0 122 0 121.5 0 121 0 120.5 0 120 0 119.5 0 119 0 118.5 0 118 0 117.5 0 117 0 116.5 0 116 0 115.5 0 115 0 114.5 0 114 0 113.5 0 113 0 112.5 0 112 0 111.5 0 111 0 110.5 0 110 0 109.5 0 109 0 108.5 0 108 0 107.5 0 107 0 106.5 0 106 0 105.5 0 105 0 104.5 0 104 0 103.5 0 103 0 102.5 0 102 0 101.5 0 101 0 100.5 0 100 0 99.5 0 99 0 98.5 0 98 0 97.5 0 97 0 96.5 0 96 0 95.5 0 95 0 94.5 0 94 0 93.5 0 93 0 92.5 0 92 0 91.5 0 91 0 90.5 0 90 0 89.5 0 89 0 88.5 0 88 0 87.5 0 87 0 86.5 0 86 0 85.5 0 85 0 84.5 0 84 0 83.5 0 83 0 82.5 0 82 0 81.5 0 81 0 80.5 0 80 0 79.5 0 79 0 78.5 0 78 0 77.5 0 77 0 76.5 0 76 0 75.5 0 75 0 74.5 0 74 0 73.5 0 73 0 72.5 0 72 0 71.5 0 71 0 70.5 0 70 0 69.5 0 69 0 68.5 0 68 0 67.5 0 67 0 66.5 0 66 0 65.5 0 65 0 64.5 0 64 0 63.5 0 63 0 62.5 0 62 0 61.5 0 61 0 60.5 0 60 0 59.5 0 59 0 58.5 0 58 0 57.5 0 57 0 56.5 0 56 0 55.5 0 55 0 54.5 0 54 0 53.5 0 53 0 52.5 0 52 0 51.5 0 51 0 50.5 0 50 0 49.5 0 49 0 48.5 0 48 0.5 48q0.5 0 1 0 0.5 0 1 0 0.5 0 1 0 0.5 0 1 0 0.5 0 1 0 0.5 0 1 0 0.5 0 1 0 0.5 0 1 0 0.5 0 1 0 0.5 0 1 0 0.5 0 1 0 0.5 0 1 0 0.5 0 1 0 0.5 0 1 0 0.5 0 1 0 0.5 0 1 0 0.5 0 1 0 0.5 0 1 0 0.5 0 1 0 0.5 0 1 0 0.5 0 1 0 0.5 0 1 0 0.5 0 1 0 0.5 0 1 0 0.5 0 1 0 0.5 0 1 0 0.5 0 1 0 0.5 0 1 0 0.5 0 1 0 0.5 0 1 0 0.5 0 1 0 0.5 0 1 0 0.5 0 1 0 0.5 0 1 0 0.5 0 1 0 0.5 0 1 0 0.5 0 1 0 0.5 0 1 0 0.5 0 1 0 0.5 0 1 0 0.5 0 1 0 0.5 0 1 0 0.5 0 1 0 0.5 0 1 0 0.5 0 1 0 0.5 0 1 0 0.5 0 0.9-0.1 0.4-0.1 0.5-0.5Q48 47 48 46.5q0-0.5 0-1 0-0.5 0-1 0-0.5 0-1 0-0.5 0-1 0-0.5 0-1 0-0.5 0-1 0-0.5 0-1 0-0.5 0-1 0-0.5 0-1 0-0.5 0-1 0-0.5 0-1 0-0.5 0-1 0-0.5 0-1 0-0.5 0-1 0-0.5 0-1 0-0.5 0-1 0-0.5 0-1 0-0.5 0-1 0-0.5 0-1 0-0.5 0-1 0-0.5 0-1 0-0.5 0-1 0-0.5 0-1 0-0.5 0-1 0-0.5 0-1 0-0.5 0-1 0-0.5 0-1 0-0.5 0-1 0-0.5 0-1 0-0.5 0-1 0-0.5 0-1 0-0.5 0-1 0-0.5 0-1 0-0.5 0-1 0-0.5 0-1 0-0.5 0-1 0-0.5 0-1 0-0.5 0-1 0-0.5 0-1 0-0.5 0-1 0-0.5 0-1 0-0.5 0-1 0-0.5 0-1 0-0.5 0-1 0-0.5 0-1 0-0.5 0-1M39.5 126q0.5 0 0.9-0.1 0.4-0.1 0.5-0.5Q41 125 41 124.5q0-0.5 0-1 0-0.5 0-1 0-0.5 0-1 0-0.5 0-1 0-0.5 0-1 0-0.5 0-1 0-0.5 0-1 0-0.5 0-1 0-0.5 0-1 0-0.5 0-1 0-0.5 0-1 0-0.5 0-1 0-0.5 0-1 0-0.5 0-1 0-0.5 0-1 0-0.5 0-1 0-0.5 0-1 0-0.5 0-1 0-0.5 0-1 0-0.5 0-1 0-0.5 0-1 0-0.5 0-1 0-0.5 0-1 0-0.5 0-1 0-0.5 0-1 0-0.5 0-1 0-0.5 0-1 0-0.5 0-1 0-0.5 0-1 0-0.5 0-1 0-0.5 0-1 0-0.5 0-1 0-0.5 0-1 0-0.5 0-1 0-0.5 0-1 0-0.5 0-1 0-0.5 0-1 0-0.5 0-1 0-0.5 0-1 0-0.5 0-1 0-0.5 0-1 0-0.5 0-1 0-0.5 0-1 0-0.5 0-1 0-0.5 0-1 0-0.5 0-1 0-0.5 0-1 0-0.5 0-1 0-0.5 0-1 0-0.5 0-1 0-0.5 0-1 0-0.5 0-1 0-0.5 0-1 0-0.5 0-1 0-0.5 0-1 0-0.5 0-1 0-0.5 0-1 0-0.5 0-1 0-0.5 0-1 0-0.5 0-1 0-0.5 0-1 0-0.5 0-1 0-0.5 0-1 0-0.5 0-1 0-0.5 0-1 0-0.5-0.1-0.9-0.1-0.4-0.5-0.5Q40 58 39.5 58q-0.5 0-1 0-0.5 0-1 0-0.5 0-1 0-0.5 0-1 0-0.5 0-1 0-0.5 0-1 0-0.5 0-1 0-0.5 0-1 0-0.5 0-1 0-0.5 0-1 0-0.5 0-1 0-0.5 0-1 0-0.5 0-1 0-0.5 0-1 0-0.5 0-1 0-0.5 0-1 0-0.5 0-1 0-0.5 0-1 0-0.5 0-1 0-0.5 0-1 0-0.5 0-1 0-0.5 0-1 0-0.5 0-1 0-0.5 0-1 0-0.5 0-1 0-0.5 0-1 0-0.5 0-1 0-0.5 0-1 0-0.5 0-1 0-0.5 0-1 0Q9 58 8.5 58 8 58 7.5 58 7 58 6.6 58.1 6.3 58.3 6.1 58.6 6 59 6 59.5q0 0.5 0 1 0 0.5 0 1 0 0.5 0 1 0 0.5 0 1 0 0.5 0 1 0 0.5 0 1 0 0.5 0 1 0 0.5 0 1 0 0.5 0 1 0 0.5 0 1 0 0.5 0 1 0 0.5 0 1 0 0.5 0 1 0 0.5 0 1 0 0.5 0 1 0 0.5 0 1 0 0.5 0 1 0 0.5 0 1 0 0.5 0 1 0 0.5 0 1 0 0.5 0 1 0 0.5 0 1 0 0.5 0 1 0 0.5 0 1 0 0.5 0 1 0 0.5 0 1 0 0.5 0 1 0 0.5 0 1 0 0.5 0 1 0 0.5 0 1 0 0.5 0 1 0 0.5 0 1 0 0.5 0 1 0 0.5 0 1 0 0.5 0 1 0 0.5 0 1 0 0.5 0 1 0 0.5 0 1 0 0.5 0 1 0 0.5 0 1 0 0.5 0 1 0 0.5 0 1 0 0.5 0 1 0 0.5 0 1 0 0.5 0 1 0 0.5 0 1 0 0.5 0 1 0 0.5 0 1 0 0.5 0 1 0 0.5 0 1 0 0.5 0 1 0 0.5 0 1 0 0.5 0 1 0 0.5 0 1 0 0.5 0 1 0 0.5 0 1 0 0.5 0 1 0 0.5 0 1 0 0.5 0 1 0 0.5 0 1 0 0.5 0 1 0 0.5 0 1 0 0.5 0 1 0 0.5 0 1 0 0.5 0 1 0 0.5 0.1 0.9 0.1 0.4 0.5 0.5Q7 126 7.5 126q0.5 0 1 0 0.5 0 1 0 0.5 0 1 0 0.5 0 1 0 0.5 0 1 0 0.5 0 1 0 0.5 0 1 0 0.5 0 1 0 0.5 0 1 0 0.5 0 1 0 0.5 0 1 0 0.5 0 1 0 0.5 0 1 0 0.5 0 1 0 0.5 0 1 0 0.5 0 1 0 0.5 0 1 0 0.5 0 1 0 0.5 0 1 0 0.5 0 1 0 0.5 0 1 0 0.5 0 1 0 0.5 0 1 0 0.5 0 1 0 0.5 0 1 0 0.5 0 1 0 0.5 0 1 0 0.5 0 1 0 0.5 0 1 0 0.5 0 1 0 0.5 0 1 0 0.5 0 1 0m75-10q0.5 0 0.9-0.1 0.4-0.1 0.5-0.5Q116 115 116 114.5q0-0.5 0-1 0-0.5 0-1 0-0.5 0-1 0-0.5 0-1 0-0.5 0-1 0-0.5 0-1 0-0.5 0-1 0-0.5 0-1 0-0.5 0-1 0-0.5 0-1 0-0.5 0-1 0-0.5 0-1 0-0.5 0-1 0-0.5 0-1 0-0.5 0-1 0-0.5 0-1 0-0.5 0-1 0-0.5 0-1 0-0.5 0-1 0-0.5 0-1 0-0.5 0-1 0-0.5 0-1 0-0.5 0-1 0-0.5 0-1 0-0.5 0-1 0-0.5 0-1 0-0.5 0-1 0-0.5 0-1 0-0.5 0-1 0-0.5 0-1 0-0.5 0-1 0-0.5 0-1 0-0.5 0-1 0-0.5 0-1 0-0.5 0-1 0-0.5 0-1 0-0.5 0-1 0-0.5 0-1 0-0.5 0-1 0-0.5 0-1 0-0.5 0-1 0-0.5 0-1 0-0.5 0-1 0-0.5 0-1 0-0.5 0-1 0-0.5-0.1-0.9-0.1-0.4-0.5-0.5Q115 68 114.5 68q-0.5 0-1 0-0.5 0-1 0-0.5 0-1 0-0.5 0-1 0-0.5 0-1 0-0.5 0-1 0-0.5 0-1 0-0.5 0-1 0-0.5 0-1 0-0.5 0-1 0-0.5 0-1 0-0.5 0-1 0-0.5 0-1 0-0.5 0-1 0-0.5 0-1 0-0.5 0-1 0-0.5 0-1 0-0.5 0-1 0-0.5 0-1 0-0.5 0-1 0-0.5 0-1 0-0.5 0-1 0-0.5 0-1 0-0.5 0-1 0-0.5 0-1 0-0.5 0-1 0-0.5 0-1 0-0.5 0-1 0-0.5 0-1 0-0.5 0-1 0-0.5 0-1 0-0.5 0-1 0-0.5 0-1 0-0.5 0-1 0-0.5 0-1 0-0.5 0-1 0-0.5 0-1 0-0.5 0-1 0-0.5 0-1 0-0.5 0-1 0-0.5 0-1 0-0.5 0-1 0-0.5 0-1 0-0.5 0-1 0-0.5 0-1 0-0.5 0-0.9 0.1-0.4 0.1-0.5 0.5Q68 69 68 69.5q0 0.5 0 1 0 0.5 0 1 0 0.5 0 1 0 0.5 0 1 0 0.5 0 1 0 0.5 0 1 0 0.5 0 1 0 0.5 0 1 0 0.5 0 1 0 0.5 0 1 0 0.5 0 1 0 0.5 0 1 0 0.5 0 1 0 0.5 0 1 0 0.5 0 1 0 0.5 0 1 0 0.5 0 1 0 0.5 0 1 0 0.5 0 1 0 0.5 0 1 0 0.5 0 1 0 0.5 0 1 0 0.5 0 1 0 0.5 0 1 0 0.5 0 1 0 0.5 0 1 0 0.5 0 1 0 0.5 0 1 0 0.5 0 1 0 0.5 0 1 0 0.5 0 1 0 0.5 0 1 0 0.5 0 1 0 0.5 0 1 0 0.5 0 1 0 0.5 0 1 0 0.5 0 1 0 0.5 0 1 0 0.5 0 1 0 0.5 0 1 0 0.5 0 1 0 0.5 0 1 0 0.5 0 1 0 0.5 0 1 0 0.5 0 1 0 0.5 0.1 0.9 0.1 0.4 0.5 0.5Q69 116 69.5 116q0.5 0 1 0 0.5 0 1 0 0.5 0 1 0 0.5 0 1 0 0.5 0 1 0 0.5 0 1 0 0.5 0 1 0 0.5 0 1 0 0.5 0 1 0 0.5 0 1 0 0.5 0 1 0 0.5 0 1 0 0.5 0 1 0 0.5 0 1 0 0.5 0 1 0 0.5 0 1 0 0.5 0 1 0 0.5 0 1 0 0.5 0 1 0 0.5 0 1 0 0.5 0 1 0 0.5 0 1 0 0.5 0 1 0 0.5 0 1 0 0.5 0 1 0 0.5 0 1 0 0.5 0 1 0 0.5 0 1 0 0.5 0 1 0 0.5 0 1 0 0.5 0 1 0 0.5 0 1 0 0.5 0 1 0 0.5 0 1 0 0.5 0 1 0 0.5 0 1 0 0.5 0 1 0 0.5 0 1 0 0.5 0 1 0 0.5 0 1 0 0.5 0 1 0 0.5 0 1 0 0.5 0 1 0 0.5 0 1 0 0.5 0 1 0m10-75q0.5 0 0.9-0.1 0.4-0.1 0.5-0.5Q126 40 126 39.5q0-0.5 0-1 0-0.5 0-1 0-0.5 0-1 0-0.5 0-1 0-0.5 0-1 0-0.5 0-1 0-0.5 0-1 0-0.5 0-1 0-0.5 0-1 0-0.5 0-1 0-0.5 0-1 0-0.5 0-1 0-0.5 0-1 0-0.5 0-1 0-0.5 0-1 0-0.5 0-1 0-0.5 0-1 0-0.5 0-1 0-0.5 0-1 0-0.5 0-1 0-0.5 0-1 0-0.5 0-1 0-0.5 0-1 0-0.5 0-1 0-0.5 0-1 0-0.5 0-1 0-0.5 0-1 0-0.5 0-1 0-0.5 0-1 0-0.5 0-1 0-0.5 0-1 0-0.5-0.1-0.9-0.1-0.4-0.5-0.5Q125 7 124.5 7q-0.5 0-1 0-0.5 0-1 0-0.5 0-1 0-0.5 0-1 0-0.5 0-1 0-0.5 0-1 0-0.5 0-1 0-0.5 0-1 0-0.5 0-1 0-0.5 0-1 0-0.5 0-1 0-0.5 0-1 0-0.5 0-1 0-0.5 0-1 0-0.5 0-1 0-0.5 0-1 0-0.5 0-1 0-0.5 0-1 0-0.5 0-1 0-0.5 0-1 0-0.5 0-1 0-0.5 0-1 0-0.5 0-1 0-0.5 0-1 0-0.5 0-1 0Q99 7 98.5 7 98 7 97.5 7 97 7 96.5 7 96 7 95.5 7 95 7 94.5 7 94 7 93.5 7 93 7 92.5 7 92 7 91.5 7 91 7 90.5 7 90 7 89.5 7 89 7 88.5 7 88 7 87.5 7 87 7 86.5 7 86 7 85.5 7 85 7 84.5 7 84 7 83.5 7 83 7 82.5 7 82 7 81.5 7 81 7 80.5 7 80 7 79.5 7 79 7 78.5 7 78 7 77.5 7 77 7 76.5 7 76 7 75.5 7 75 7 74.5 7 74 7 73.5 7 73 7 72.5 7 72 7 71.5 7 71 7 70.5 7 70 7 69.5 7 69 7 68.5 7 68 7 67.5 7 67 7 66.5 7 66 7 65.5 7 65 7 64.5 7 64 7 63.5 7 63 7 62.5 7 62 7 61.5 7 61 7 60.5 7 60 7 59.5 7 59 7 58.6 7.1 58.3 7.3 58.1 7.6 58 8 58 8.5q0 0.5 0 1 0 0.5 0 1 0 0.5 0 1 0 0.5 0 1 0 0.5 0 1 0 0.5 0 1 0 0.5 0 1 0 0.5 0 1 0 0.5 0 1 0 0.5 0 1 0 0.5 0 1 0 0.5 0 1 0 0.5 0 1 0 0.5 0 1 0 0.5 0 1 0 0.5 0 1 0 0.5 0 1 0 0.5 0 1 0 0.5 0 1 0 0.5 0 1 0 0.5 0 1 0 0.5 0 1 0 0.5 0 1 0 0.5 0 1 0 0.5 0 1 0 0.5 0 1 0 0.5 0 1 0 0.5 0 1 0 0.5 0 1 0 0.5 0 1 0 0.5 0 1 0 0.5 0.1 0.9 0.1 0.4 0.5 0.5Q59 41 59.5 41q0.5 0 1 0 0.5 0 1 0 0.5 0 1 0 0.5 0 1 0 0.5 0 1 0 0.5 0 1 0 0.5 0 1 0 0.5 0 1 0 0.5 0 1 0 0.5 0 1 0 0.5 0 1 0 0.5 0 1 0 0.5 0 1 0 0.5 0 1 0 0.5 0 1 0 0.5 0 1 0 0.5 0 1 0 0.5 0 1 0 0.5 0 1 0 0.5 0 1 0 0.5 0 1 0 0.5 0 1 0 0.5 0 1 0 0.5 0 1 0 0.5 0 1 0 0.5 0 1 0 0.5 0 1 0 0.5 0 1 0 0.5 0 1 0 0.5 0 1 0 0.5 0 1 0 0.5 0 1 0 0.5 0 1 0 0.5 0 1 0 0.5 0 1 0 0.5 0 1 0 0.5 0 1 0 0.5 0 1 0 0.5 0 1 0 0.5 0 1 0 0.5 0 1 0 0.5 0 1 0 0.5 0 1 0 0.5 0 1 0 0.5 0 1 0 0.5 0 1 0 0.5 0 1 0 0.5 0 1 0 0.5 0 1 0 0.5 0 1 0 0.5 0 1 0 0.5 0 1 0 0.5 0 1 0 0.5 0 1 0 0.5 0 1 0 0.5 0 1 0 0.5 0 1 0 0.5 0 1 0 0.5 0 1 0 0.5 0 1 0 0.5 0 1 0 0.5 0 1 0 0.5 0 1 0 0.5 0 1 0 0.5 0 1 0" class="a"/><path d="m137 0.5 0-0.5 0.5 0 0.5 0 0.5 0 0.5 0 0.5 0 0.5 0 0.5 0 0.5 0 0.5 0 0.5 0 0.5 0 0.5 0 0.5 0 0.5 0 0.5 0 0.5 0 0.5 0 0.5 0 0.5 0 0.5 0 0.5 0 0.5 0 0.5 0 0.5 0 0.5 0 0.5 0 0.5 0 0.5 0 0.5 0 0.5 0 0.5 0 0.5 0 0.5 0 0.5 0 0.5 0 0.5 0 0.5 0 0.5 0 0.5 0 0.5 0 0.5 0 0.5 0 0.5 0 0.5 0 0.5 0 0.5 0 0.5 0 0.5 0 0.5 0 0.5 0 0.5 0 0.5 0 0.5 0 0.5 0 0.5 0 0.5 0 0.5 0 0.5 0 0.5 0 0.5 0 0.5 0 0.5 0 0.5 0 0.5 0 0.5 0 0.5 0 0.5 0 0.5 0 0.5 0 0.5 0 0.5 0 0.5 0 0.5 0 0.5 0 0.5 0 0.5 0 0.5 0 0.5 0 0.5 0 0.5 0 0.5 0 0.5 0 0.5 0 0.5 0 0.5 0 0.5 0 0.5 0 0.5 0 0.5 0 0.5 0 0.5 0 0.5 0 0.5 0 0.5 0 0.5 0 0.5 0 0 0.5 0 0.5 0 0.5 0 0.5 0 0.5 0 0.5 0 0.5 0 0.5 0 0.5 0 0.5 0 0.5 0 0.5 0 0.5 0 0.5 0 0.5 0 0.5 0 0.5 0 0.5 0 0.5 0 0.5 0 0.5 0 0.5 0 0.5 0 0.5 0 0.5 0 0.5 0 0.5 0 0.5 0 0.5 0 0.5 0 0.5 0 0.5 0 0.5 0 0.5 0 0.5 0 0.5 0 0.5 0 0.5 0 0.5 0 0.5 0 0.5 0 0.5 0 0.5 0 0.5 0 0.5 0 0.5 0 0.5 0 0.5 0 0.5 0 0.5 0 0.5 0 0.5 0 0.5 0 0.5 0 0.5 0 0.5 0 0.5 0 0.5 0 0.5 0 0.5 0 0.5 0 0.5 0 0.5 0 0.5 0 0.5 0 0.5 0 0.5 0 0.5 0 0.5 0 0.5 0 0.5 0 0.5 0 0.5 0 0.5 0 0.5 0 0.5 0 0.5 0 0.5 0 0.5 0 0.5 0 0.5 0 0.5 0 0.5 0 0.5 0 0.5 0 0.5 0 0.5 0 0.5 0 0.5 0 0.5 0 0.5 0 0.5 0 0.5 0 0.5 0 0.5 0 0.5-0.5 0q-0.5 0-1 0-0.5 0-1 0-0.5 0-1 0-0.5 0-1 0-0.5 0-1 0-0.5 0-1 0-0.5 0-1 0-0.5 0-1 0-0.5 0-1 0-0.5 0-1 0-0.5 0-1 0-0.5 0-1 0-0.5 0-1 0-0.5 0-1 0-0.5 0-1 0-0.5 0-1 0-0.5 0-1 0-0.5 0-1 0-0.5 0-1 0-0.5 0-1 0-0.5 0-1 0-0.5 0-1 0-0.5 0-1 0-0.5 0-1 0-0.5 0-1 0-0.5 0-1 0-0.5 0-1 0-0.5 0-1 0-0.5 0-1 0-0.5 0-1 0-0.5 0-1 0-0.5 0-1 0-0.5 0-1 0-0.5 0-1 0-0.5 0-1 0-0.5 0-1 0-0.5 0-1 0-0.5 0-1 0-0.5 0-1 0-0.5 0-1 0-0.5 0-1 0-0.5 0-1 0-0.5 0-1 0-0.5 0-1 0-0.5 0-1 0-0.5 0-1 0-0.5 0-0.9-0.1-0.4-0.1-0.5-0.5Q137 47 137 46.5q0-0.5 0-1 0-0.5 0-1 0-0.5 0-1 0-0.5 0-1 0-0.5 0-1 0-0.5 0-1 0-0.5 0-1 0-0.5 0-1 0-0.5 0-1 0-0.5 0-1 0-0.5 0-1 0-0.5 0-1 0-0.5 0-1 0-0.5 0-1 0-0.5 0-1 0-0.5 0-1 0-0.5 0-1 0-0.5 0-1 0-0.5 0-1 0-0.5 0-1 0-0.5 0-1 0-0.5 0-1 0-0.5 0-1 0-0.5 0-1 0-0.5 0-1 0-0.5 0-1 0-0.5 0-1 0-0.5 0-1 0-0.5 0-1 0-0.5 0-1 0-0.5 0-1 0-0.5 0-1 0-0.5 0-1 0-0.5 0-1 0-0.5 0-1 0-0.5 0-1 0-0.5 0-1 0-0.5 0-1 0-0.5 0-1 0-0.5 0-1 0-0.5 0-1 0-0.5 0-1 0-0.5 0-1 0-0.5 0-1 0-0.5 0-1 0-0.5 0-1" class="c"/><path d="M0 1.5 0 1 0.4 0.9 0.8 0.8 0.5 0.8 0.2 0.9 0.4 0.9Q0.6 0.8 0.7 0.7L0.8 0.6 0.8 0.6 0.7 0.7 1 1 1.3 1.3 1.4 1.3 1.4 1.2 1.3 1.3Q1.2 1.4 1.1 1.6L1.1 1.8 1.2 1.5 1.3 1.3 1.1 1.6Q1 2 0.5 2L0 2 0 1.5" class="b"/><path d="M58.1 7.6Q58.3 7.3 58.6 7.1 59 7 59.5 7q0.5 0 1 0 0.5 0 1 0 0.5 0 1 0 0.5 0 1 0 0.5 0 1 0 0.5 0 1 0 0.5 0 1 0 0.5 0 1 0 0.5 0 1 0 0.5 0 1 0 0.5 0 1 0 0.5 0 1 0 0.5 0 1 0 0.5 0 1 0 0.5 0 1 0 0.5 0 1 0 0.5 0 1 0 0.5 0 1 0 0.5 0 1 0 0.5 0 1 0 0.5 0 1 0 0.5 0 1 0 0.5 0 1 0 0.5 0 1 0 0.5 0 1 0 0.5 0 1 0 0.5 0 1 0 0.5 0 1 0 0.5 0 1 0 0.5 0 1 0 0.5 0 1 0 0.5 0 1 0 0.5 0 1 0 0.5 0 1 0 0.5 0 1 0 0.5 0 1 0 0.5 0 1 0 0.5 0 1 0 0.5 0 1 0 0.5 0 1 0 0.5 0 1 0 0.5 0 1 0 0.5 0 1 0 0.5 0 1 0 0.5 0 1 0 0.5 0 1 0 0.5 0 1 0 0.5 0 1 0 0.5 0 1 0 0.5 0 1 0 0.5 0 1 0 0.5 0 1 0 0.5 0 1 0 0.5 0 1 0 0.5 0 1 0 0.5 0 1 0 0.5 0 1 0 0.5 0 1 0 0.5 0 1 0 0.5 0 1 0 0.5 0 1 0 0.5 0 1 0 0.5 0 1 0 0.5 0 1 0 0.5 0 1 0 0.5 0 0.9 0.1 0.4 0.1 0.5 0.5Q126 8 126 8.5q0 0.5 0 1 0 0.5 0 1 0 0.5 0 1 0 0.5 0 1 0 0.5 0 1 0 0.5 0 1 0 0.5 0 1 0 0.5 0 1 0 0.5 0 1 0 0.5 0 1 0 0.5 0 1 0 0.5 0 1 0 0.5 0 1 0 0.5 0 1 0 0.5 0 1 0 0.5 0 1 0 0.5 0 1 0 0.5 0 1 0 0.5 0 1 0 0.5 0 1 0 0.5 0 1 0 0.5 0 1 0 0.5 0 1 0 0.5 0 1 0 0.5 0 1 0 0.5 0 1 0 0.5 0 1 0 0.5 0 1 0 0.5 0 1 0 0.5 0 1 0 0.5 0 1 0 0.5-0.1 0.9-0.1 0.4-0.5 0.5Q125 41 124.5 41q-0.5 0-1 0-0.5 0-1 0-0.5 0-1 0-0.5 0-1 0-0.5 0-1 0-0.5 0-1 0-0.5 0-1 0-0.5 0-1 0-0.5 0-1 0-0.5 0-1 0-0.5 0-1 0-0.5 0-1 0-0.5 0-1 0-0.5 0-1 0-0.5 0-1 0-0.5 0-1 0-0.5 0-1 0-0.5 0-1 0-0.5 0-1 0-0.5 0-1 0-0.5 0-1 0-0.5 0-1 0-0.5 0-1 0-0.5 0-1 0-0.5 0-1 0-0.5 0-1 0-0.5 0-1 0-0.5 0-1 0-0.5 0-1 0-0.5 0-1 0-0.5 0-1 0-0.5 0-1 0-0.5 0-1 0-0.5 0-1 0-0.5 0-1 0-0.5 0-1 0-0.5 0-1 0-0.5 0-1 0-0.5 0-1 0-0.5 0-1 0-0.5 0-1 0-0.5 0-1 0-0.5 0-1 0-0.5 0-1 0-0.5 0-1 0-0.5 0-1 0-0.5 0-1 0-0.5 0-1 0-0.5 0-1 0-0.5 0-1 0-0.5 0-1 0-0.5 0-1 0-0.5 0-1 0-0.5 0-1 0-0.5 0-1 0-0.5 0-1 0-0.5 0-1 0-0.5 0-1 0-0.5 0-1 0-0.5 0-1 0-0.5 0-1 0-0.5 0-1 0-0.5 0-1 0-0.5 0-1 0-0.5 0-1 0-0.5 0-0.9-0.1-0.4-0.1-0.5-0.5Q58 40 58 39.5q0-0.5 0-1 0-0.5 0-1 0-0.5 0-1 0-0.5 0-1 0-0.5 0-1 0-0.5 0-1 0-0.5 0-1 0-0.5 0-1 0-0.5 0-1 0-0.5 0-1 0-0.5 0-1 0-0.5 0-1 0-0.5 0-1 0-0.5 0-1 0-0.5 0-1 0-0.5 0-1 0-0.5 0-1 0-0.5 0-1 0-0.5 0-1 0-0.5 0-1 0-0.5 0-1 0-0.5 0-1 0-0.5 0-1 0-0.5 0-1 0-0.5 0-1 0-0.5 0-1 0-0.5 0-1 0-0.5 0-1 0-0.5 0-1 0-0.5 0-1 0-0.5 0-1 0-0.5 0.1-0.9" class="c"/><path d="M6.1 58.6Q6.3 58.3 6.6 58.1 7 58 7.5 58q0.5 0 1 0 0.5 0 1 0 0.5 0 1 0 0.5 0 1 0 0.5 0 1 0 0.5 0 1 0 0.5 0 1 0 0.5 0 1 0 0.5 0 1 0 0.5 0 1 0 0.5 0 1 0 0.5 0 1 0 0.5 0 1 0 0.5 0 1 0 0.5 0 1 0 0.5 0 1 0 0.5 0 1 0 0.5 0 1 0 0.5 0 1 0 0.5 0 1 0 0.5 0 1 0 0.5 0 1 0 0.5 0 1 0 0.5 0 1 0 0.5 0 1 0 0.5 0 1 0 0.5 0 1 0 0.5 0 1 0 0.5 0 1 0 0.5 0 1 0 0.5 0 1 0 0.5 0 1 0 0.5 0 0.9 0.1 0.4 0.1 0.5 0.5Q41 59 41 59.5q0 0.5 0 1 0 0.5 0 1 0 0.5 0 1 0 0.5 0 1 0 0.5 0 1 0 0.5 0 1 0 0.5 0 1 0 0.5 0 1 0 0.5 0 1 0 0.5 0 1 0 0.5 0 1 0 0.5 0 1 0 0.5 0 1 0 0.5 0 1 0 0.5 0 1 0 0.5 0 1 0 0.5 0 1 0 0.5 0 1 0 0.5 0 1 0 0.5 0 1 0 0.5 0 1 0 0.5 0 1 0 0.5 0 1 0 0.5 0 1 0 0.5 0 1 0 0.5 0 1 0 0.5 0 1 0 0.5 0 1 0 0.5 0 1 0 0.5 0 1 0 0.5 0 1 0 0.5 0 1 0 0.5 0 1 0 0.5 0 1 0 0.5 0 1 0 0.5 0 1 0 0.5 0 1 0 0.5 0 1 0 0.5 0 1 0 0.5 0 1 0 0.5 0 1 0 0.5 0 1 0 0.5 0 1 0 0.5 0 1 0 0.5 0 1 0 0.5 0 1 0 0.5 0 1 0 0.5 0 1 0 0.5 0 1 0 0.5 0 1 0 0.5 0 1 0 0.5 0 1 0 0.5 0 1 0 0.5 0 1 0 0.5 0 1 0 0.5 0 1 0 0.5 0 1 0 0.5 0 1 0 0.5 0 1 0 0.5 0 1 0 0.5 0 1 0 0.5 0 1 0 0.5 0 1 0 0.5 0 1 0 0.5 0 1 0 0.5-0.1 0.9-0.1 0.4-0.5 0.5Q40 126 39.5 126q-0.5 0-1 0-0.5 0-1 0-0.5 0-1 0-0.5 0-1 0-0.5 0-1 0-0.5 0-1 0-0.5 0-1 0-0.5 0-1 0-0.5 0-1 0-0.5 0-1 0-0.5 0-1 0-0.5 0-1 0-0.5 0-1 0-0.5 0-1 0-0.5 0-1 0-0.5 0-1 0-0.5 0-1 0-0.5 0-1 0-0.5 0-1 0-0.5 0-1 0-0.5 0-1 0-0.5 0-1 0-0.5 0-1 0-0.5 0-1 0-0.5 0-1 0-0.5 0-1 0-0.5 0-1 0-0.5 0-1 0-0.5 0-1 0-0.5 0-1 0-0.5 0-1 0-0.5 0-1 0-0.5 0-0.9-0.1-0.4-0.1-0.5-0.5Q6 125 6 124.5q0-0.5 0-1 0-0.5 0-1 0-0.5 0-1 0-0.5 0-1 0-0.5 0-1 0-0.5 0-1 0-0.5 0-1 0-0.5 0-1 0-0.5 0-1 0-0.5 0-1 0-0.5 0-1 0-0.5 0-1 0-0.5 0-1 0-0.5 0-1 0-0.5 0-1 0-0.5 0-1 0-0.5 0-1 0-0.5 0-1 0-0.5 0-1 0-0.5 0-1 0-0.5 0-1 0-0.5 0-1 0-0.5 0-1 0-0.5 0-1 0-0.5 0-1 0-0.5 0-1 0-0.5 0-1 0-0.5 0-1 0-0.5 0-1 0-0.5 0-1 0-0.5 0-1 0-0.5 0-1 0-0.5 0-1 0-0.5 0-1 0-0.5 0-1 0-0.5 0-1 0-0.5 0-1 0-0.5 0-1 0-0.5 0-1 0-0.5 0-1 0-0.5 0-1 0-0.5 0-1 0-0.5 0-1 0-0.5 0-1 0-0.5 0-1 0-0.5 0-1 0-0.5 0-1 0-0.5 0-1 0-0.5 0-1 0-0.5 0-1 0-0.5 0-1 0-0.5 0-1 0-0.5 0-1 0-0.5 0-1 0-0.5 0-1 0-0.5 0-1 0-0.5 0-1 0-0.5 0-1 0-0.5 0-1 0-0.5 0-1 0-0.5 0-1 0-0.5 0-1 0-0.5 0-1 0-0.5 0-1 0-0.5 0-1 0-0.5 0.1-0.9" class="c"/><path d="m68.1 68.6q0.1-0.4 0.5-0.5Q69 68 69.5 68q0.5 0 1 0 0.5 0 1 0 0.5 0 1 0 0.5 0 1 0 0.5 0 1 0 0.5 0 1 0 0.5 0 1 0 0.5 0 1 0 0.5 0 1 0 0.5 0 1 0 0.5 0 1 0 0.5 0 1 0 0.5 0 1 0 0.5 0 1 0 0.5 0 1 0 0.5 0 1 0 0.5 0 1 0 0.5 0 1 0 0.5 0 1 0 0.5 0 1 0 0.5 0 1 0 0.5 0 1 0 0.5 0 1 0 0.5 0 1 0 0.5 0 1 0 0.5 0 1 0 0.5 0 1 0 0.5 0 1 0 0.5 0 1 0 0.5 0 1 0 0.5 0 1 0 0.5 0 1 0 0.5 0 1 0 0.5 0 1 0 0.5 0 1 0 0.5 0 1 0 0.5 0 1 0 0.5 0 1 0 0.5 0 1 0 0.5 0 1 0 0.5 0 1 0 0.5 0 1 0 0.5 0 1 0 0.5 0 1 0 0.5 0 1 0 0.5 0 0.9 0.1 0.4 0.1 0.5 0.5Q116 69 116 69.5q0 0.5 0 1 0 0.5 0 1 0 0.5 0 1 0 0.5 0 1 0 0.5 0 1 0 0.5 0 1 0 0.5 0 1 0 0.5 0 1 0 0.5 0 1 0 0.5 0 1 0 0.5 0 1 0 0.5 0 1 0 0.5 0 1 0 0.5 0 1 0 0.5 0 1 0 0.5 0 1 0 0.5 0 1 0 0.5 0 1 0 0.5 0 1 0 0.5 0 1 0 0.5 0 1 0 0.5 0 1 0 0.5 0 1 0 0.5 0 1 0 0.5 0 1 0 0.5 0 1 0 0.5 0 1 0 0.5 0 1 0 0.5 0 1 0 0.5 0 1 0 0.5 0 1 0 0.5 0 1 0 0.5 0 1 0 0.5 0 1 0 0.5 0 1 0 0.5 0 1 0 0.5 0 1 0 0.5 0 1 0 0.5 0 1 0 0.5 0 1 0 0.5 0 1 0 0.5 0 1 0 0.5 0 1 0 0.5 0 1 0 0.5 0 1 0 0.5-0.1 0.9-0.1 0.4-0.5 0.5Q115 116 114.5 116q-0.5 0-1 0-0.5 0-1 0-0.5 0-1 0-0.5 0-1 0-0.5 0-1 0-0.5 0-1 0-0.5 0-1 0-0.5 0-1 0-0.5 0-1 0-0.5 0-1 0-0.5 0-1 0-0.5 0-1 0-0.5 0-1 0-0.5 0-1 0-0.5 0-1 0-0.5 0-1 0-0.5 0-1 0-0.5 0-1 0-0.5 0-1 0-0.5 0-1 0-0.5 0-1 0-0.5 0-1 0-0.5 0-1 0-0.5 0-1 0-0.5 0-1 0-0.5 0-1 0-0.5 0-1 0-0.5 0-1 0-0.5 0-1 0-0.5 0-1 0-0.5 0-1 0-0.5 0-1 0-0.5 0-1 0-0.5 0-1 0-0.5 0-1 0-0.5 0-1 0-0.5 0-1 0-0.5 0-1 0-0.5 0-1 0-0.5 0-1 0-0.5 0-1 0-0.5 0-1 0-0.5 0-1 0-0.5 0-1 0-0.5 0-1 0-0.5 0-0.9-0.1-0.4-0.1-0.5-0.5Q68 115 68 114.5q0-0.5 0-1 0-0.5 0-1 0-0.5 0-1 0-0.5 0-1 0-0.5 0-1 0-0.5 0-1 0-0.5 0-1 0-0.5 0-1 0-0.5 0-1 0-0.5 0-1 0-0.5 0-1 0-0.5 0-1 0-0.5 0-1 0-0.5 0-1 0-0.5 0-1 0-0.5 0-1 0-0.5 0-1 0-0.5 0-1 0-0.5 0-1 0-0.5 0-1 0-0.5 0-1 0-0.5 0-1 0-0.5 0-1 0-0.5 0-1 0-0.5 0-1 0-0.5 0-1 0-0.5 0-1 0-0.5 0-1 0-0.5 0-1 0-0.5 0-1 0-0.5 0-1 0-0.5 0-1 0-0.5 0-1 0-0.5 0-1 0-0.5 0-1 0-0.5 0-1 0-0.5 0-1 0-0.5 0-1 0-0.5 0-1 0-0.5 0-1 0-0.5 0-1 0-0.5 0-1 0-0.5 0-1 0-0.5 0-1 0-0.5 0-1 0-0.5 0.1-0.9" class="d"/><path d="m126.1 75.6q0.1-0.4 0.5-0.5Q127 75 127.5 75q0.5 0 1 0 0.5 0 1 0 0.5 0 1 0 0.5 0 1 0 0.5 0 1 0 0.5 0 1 0 0.5 0 1 0 0.5 0 1 0 0.5 0 1 0 0.5 0 1 0 0.5 0 1 0 0.5 0 1 0 0.5 0 1 0 0.5 0 1 0 0.5 0 1 0 0.5 0 1 0 0.5 0 1 0 0.5 0 1 0 0.5 0 1 0 0.5 0 1 0 0.5 0 1 0 0.5 0 1 0 0.5 0 1 0 0.5 0 1 0 0.5 0 1 0 0.5 0 1 0 0.5 0 1 0 0.5 0 1 0 0.5 0 1 0 0.5 0 1 0 0.5 0 1 0 0.5 0 1 0 0.5 0 1 0 0.5 0 1 0 0.5 0 1 0 0.5 0 1 0 0.5 0 1 0 0.5 0 1 0 0.5 0 1 0 0.5 0 1 0 0.5 0 1 0 0.5 0 1 0 0.5 0 1 0 0.5 0 1 0 0.5 0 1 0 0.5 0 1 0 0.5 0 1 0 0.5 0 1 0 0.5 0 1 0 0.5 0 1 0 0.5 0 1 0 0.5 0 1 0 0.5 0 1 0 0.5 0 1 0 0.5 0 1 0 0.5 0 1 0 0.5 0 1 0l0.5 0 0 0.5 0 0.5 0 0.5 0 0.5 0 0.5 0 0.5 0 0.5 0 0.5 0 0.5 0 0.5 0 0.5 0 0.5 0 0.5 0 0.5 0 0.5 0 0.5 0 0.5 0 0.5 0 0.5 0 0.5 0 0.5 0 0.5 0 0.5 0 0.5 0 0.5 0 0.5 0 0.5 0 0.5 0 0.5 0 0.5 0 0.5 0 0.5 0 0.5 0 0.5 0 0.5 0 0.5 0 0.5 0 0.5 0 0.5 0 0.5 0 0.5 0 0.5 0 0.5 0 0.5 0 0.5 0 0.5 0 0.5 0 0.5 0 0.5 0 0.5 0 0.5 0 0.5 0 0.5 0 0.5 0 0.5 0 0.5 0 0.5 0 0.5 0 0.5 0 0.5 0 0.5 0 0.5 0 0.5 0 0.5 0 0.5 0 0.5 0 0.5 0 0.5-0.5 0q-0.5 0-1 0-0.5 0-1 0-0.5 0-1 0-0.5 0-1 0-0.5 0-1 0-0.5 0-1 0-0.5 0-1 0-0.5 0-1 0-0.5 0-1 0-0.5 0-1 0-0.5 0-1 0-0.5 0-1 0-0.5 0-1 0-0.5 0-1 0-0.5 0-1 0-0.5 0-1 0-0.5 0-1 0-0.5 0-1 0-0.5 0-1 0-0.5 0-1 0-0.5 0-1 0-0.5 0-1 0-0.5 0-1 0-0.5 0-1 0-0.5 0-1 0-0.5 0-1 0-0.5 0-1 0-0.5 0-1 0-0.5 0-1 0-0.5 0-1 0-0.5 0-1 0-0.5 0-1 0-0.5 0-1 0-0.5 0-1 0-0.5 0-1 0-0.5 0-1 0-0.5 0-1 0-0.5 0-1 0-0.5 0-1 0-0.5 0-1 0-0.5 0-1 0-0.5 0-1 0-0.5 0-1 0-0.5 0-1 0-0.5 0-1 0-0.5 0-1 0-0.5 0-1 0-0.5 0-1 0-0.5 0-1 0-0.5 0-1 0-0.5 0-1 0-0.5 0-1 0-0.5 0-1 0-0.5 0-1 0-0.5 0-1 0-0.5 0-1 0-0.5 0-1 0-0.5 0-0.9-0.1-0.4-0.1-0.5-0.5Q126 108 126 107.5q0-0.5 0-1 0-0.5 0-1 0-0.5 0-1 0-0.5 0-1 0-0.5 0-1 0-0.5 0-1 0-0.5 0-1 0-0.5 0-1 0-0.5 0-1 0-0.5 0-1 0-0.5 0-1 0-0.5 0-1 0-0.5 0-1 0-0.5 0-1 0-0.5 0-1 0-0.5 0-1 0-0.5 0-1 0-0.5 0-1 0-0.5 0-1 0-0.5 0-1 0-0.5 0-1 0-0.5 0-1 0-0.5 0-1 0-0.5 0-1 0-0.5 0-1 0-0.5 0-1 0-0.5 0-1 0-0.5 0-1 0-0.5 0-1 0-0.5 0-1 0-0.5 0-1 0-0.5 0.1-0.9" class="d"/><path d="m75.1 126.6q0.1-0.4 0.5-0.5Q76 126 76.5 126q0.5 0 1 0 0.5 0 1 0 0.5 0 1 0 0.5 0 1 0 0.5 0 1 0 0.5 0 1 0 0.5 0 1 0 0.5 0 1 0 0.5 0 1 0 0.5 0 1 0 0.5 0 1 0 0.5 0 1 0 0.5 0 1 0 0.5 0 1 0 0.5 0 1 0 0.5 0 1 0 0.5 0 1 0 0.5 0 1 0 0.5 0 1 0 0.5 0 1 0 0.5 0 1 0 0.5 0 1 0 0.5 0 1 0 0.5 0 1 0 0.5 0 1 0 0.5 0 1 0 0.5 0 1 0 0.5 0 1 0 0.5 0 1 0 0.5 0 1 0 0.5 0 1 0 0.5 0 0.9 0.1 0.4 0.1 0.5 0.5Q109 127 109 127.5q0 0.5 0 1 0 0.5 0 1 0 0.5 0 1 0 0.5 0 1 0 0.5 0 1 0 0.5 0 1 0 0.5 0 1 0 0.5 0 1 0 0.5 0 1 0 0.5 0 1 0 0.5 0 1 0 0.5 0 1 0 0.5 0 1 0 0.5 0 1 0 0.5 0 1 0 0.5 0 1 0 0.5 0 1 0 0.5 0 1 0 0.5 0 1 0 0.5 0 1 0 0.5 0 1 0 0.5 0 1 0 0.5 0 1 0 0.5 0 1 0 0.5 0 1 0 0.5 0 1 0 0.5 0 1 0 0.5 0 1 0 0.5 0 1 0 0.5 0 1 0 0.5 0 1 0 0.5 0 1 0 0.5 0 1 0 0.5 0 1 0 0.5 0 1 0 0.5 0 1 0 0.5 0 1 0 0.5 0 1 0 0.5 0 1 0 0.5 0 1 0 0.5 0 1 0 0.5 0 1 0 0.5 0 1 0 0.5 0 1 0 0.5 0 1 0 0.5 0 1 0 0.5 0 1 0 0.5 0 1 0 0.5 0 1 0 0.5 0 1 0 0.5 0 1 0 0.5 0 1 0 0.5 0 1 0 0.5 0 1 0 0.5 0 1 0 0.5 0 1l0 0.5-0.5 0-0.5 0-0.5 0-0.5 0-0.5 0-0.5 0-0.5 0-0.5 0-0.5 0-0.5 0-0.5 0-0.5 0-0.5 0-0.5 0-0.5 0-0.5 0-0.5 0-0.5 0-0.5 0-0.5 0-0.5 0-0.5 0-0.5 0-0.5 0-0.5 0-0.5 0-0.5 0-0.5 0-0.5 0-0.5 0-0.5 0-0.5 0-0.5 0-0.5 0-0.5 0-0.5 0-0.5 0-0.5 0-0.5 0-0.5 0-0.5 0-0.5 0-0.5 0-0.5 0-0.5 0-0.5 0-0.5 0-0.5 0-0.5 0-0.5 0-0.5 0-0.5 0-0.5 0-0.5 0-0.5 0-0.5 0-0.5 0-0.5 0-0.5 0-0.5 0-0.5 0-0.5 0-0.5 0-0.5 0-0.5 0-0.5 0-0.5 0-0.5 0 0-0.5q0-0.5 0-1 0-0.5 0-1 0-0.5 0-1 0-0.5 0-1 0-0.5 0-1 0-0.5 0-1 0-0.5 0-1 0-0.5 0-1 0-0.5 0-1 0-0.5 0-1 0-0.5 0-1 0-0.5 0-1 0-0.5 0-1 0-0.5 0-1 0-0.5 0-1 0-0.5 0-1 0-0.5 0-1 0-0.5 0-1 0-0.5 0-1 0-0.5 0-1 0-0.5 0-1 0-0.5 0-1 0-0.5 0-1 0-0.5 0-1 0-0.5 0-1 0-0.5 0-1 0-0.5 0-1 0-0.5 0-1 0-0.5 0-1 0-0.5 0-1 0-0.5 0-1 0-0.5 0-1 0-0.5 0-1 0-0.5 0-1 0-0.5 0-1 0-0.5 0-1 0-0.5 0-1 0-0.5 0-1 0-0.5 0-1 0-0.5 0-1 0-0.5 0-1 0-0.5 0-1 0-0.5 0-1 0-0.5 0-1 0-0.5 0-1 0-0.5 0-1 0-0.5 0-1 0-0.5 0-1 0-0.5 0-1 0-0.5 0-1 0-0.5 0-1 0-0.5 0-1 0-0.5 0-1 0-0.5 0-1 0-0.5 0-1 0-0.5 0-1 0-0.5 0.1-0.9" class="d"/><path d="m0 136.5 0-0.5 0.5 0q0.5 0 1 0 0.5 0 1 0 0.5 0 1 0 0.5 0 1 0 0.5 0 1 0 0.5 0 1 0 0.5 0 1 0 0.5 0 1 0 0.5 0 1 0 0.5 0 1 0 0.5 0 1 0 0.5 0 1 0 0.5 0 1 0 0.5 0 1 0 0.5 0 1 0 0.5 0 1 0 0.5 0 1 0 0.5 0 1 0 0.5 0 1 0 0.5 0 1 0 0.5 0 1 0 0.5 0 1 0 0.5 0 1 0 0.5 0 1 0 0.5 0 1 0 0.5 0 1 0 0.5 0 1 0 0.5 0 1 0 0.5 0 1 0 0.5 0 1 0 0.5 0 1 0 0.5 0 1 0 0.5 0 1 0 0.5 0 1 0 0.5 0 1 0 0.5 0 1 0 0.5 0 1 0 0.5 0 1 0 0.5 0 1 0 0.5 0 1 0 0.5 0 1 0 0.5 0 1 0 0.5 0 1 0 0.5 0 1 0 0.5 0 1 0 0.5 0 1 0 0.5 0 0.9 0.1 0.4 0.1 0.5 0.5Q48 137 48 137.5q0 0.5 0 1 0 0.5 0 1 0 0.5 0 1 0 0.5 0 1 0 0.5 0 1 0 0.5 0 1 0 0.5 0 1 0 0.5 0 1 0 0.5 0 1 0 0.5 0 1 0 0.5 0 1 0 0.5 0 1 0 0.5 0 1 0 0.5 0 1 0 0.5 0 1 0 0.5 0 1 0 0.5 0 1 0 0.5 0 1 0 0.5 0 1 0 0.5 0 1 0 0.5 0 1 0 0.5 0 1 0 0.5 0 1 0 0.5 0 1 0 0.5 0 1 0 0.5 0 1 0 0.5 0 1 0 0.5 0 1 0 0.5 0 1 0 0.5 0 1 0 0.5 0 1 0 0.5 0 1 0 0.5 0 1 0 0.5 0 1 0 0.5 0 1 0 0.5 0 1 0 0.5 0 1 0 0.5 0 1 0 0.5 0 1 0 0.5 0 1 0 0.5 0 1 0 0.5 0 1 0 0.5 0 1 0 0.5 0 1 0 0.5 0 1 0 0.5 0 1l0 0.5-0.5 0-0.5 0-0.5 0-0.5 0-0.5 0-0.5 0-0.5 0-0.5 0-0.5 0-0.5 0-0.5 0-0.5 0-0.5 0-0.5 0-0.5 0-0.5 0-0.5 0-0.5 0-0.5 0-0.5 0-0.5 0-0.5 0-0.5 0-0.5 0-0.5 0-0.5 0-0.5 0-0.5 0-0.5 0-0.5 0-0.5 0-0.5 0-0.5 0-0.5 0-0.5 0-0.5 0-0.5 0-0.5 0-0.5 0-0.5 0-0.5 0-0.5 0-0.5 0-0.5 0-0.5 0-0.5 0-0.5 0-0.5 0-0.5 0-0.5 0-0.5 0-0.5 0-0.5 0-0.5 0-0.5 0-0.5 0-0.5 0-0.5 0-0.5 0-0.5 0-0.5 0-0.5 0-0.5 0-0.5 0-0.5 0-0.5 0-0.5 0-0.5 0-0.5 0-0.5 0-0.5 0-0.5 0-0.5 0-0.5 0-0.5 0-0.5 0-0.5 0-0.5 0-0.5 0-0.5 0-0.5 0-0.5 0-0.5 0-0.5 0-0.5 0-0.5 0-0.5 0-0.5 0-0.5 0-0.5 0-0.5 0-0.5 0 0-0.5Q2 183 1.6 182.9 1.3 182.8 1.1 182.4 1 182 0.5 182l-0.5 0 0-0.5 0-0.5 0-0.5 0-0.5 0-0.5 0-0.5 0-0.5 0-0.5 0-0.5 0-0.5 0-0.5 0-0.5 0-0.5 0-0.5 0-0.5 0-0.5 0-0.5 0-0.5 0-0.5 0-0.5 0-0.5 0-0.5 0-0.5 0-0.5 0-0.5 0-0.5 0-0.5 0-0.5 0-0.5 0-0.5 0-0.5 0-0.5 0-0.5 0-0.5 0-0.5 0-0.5 0-0.5 0-0.5 0-0.5 0-0.5 0-0.5 0-0.5 0-0.5 0-0.5 0-0.5 0-0.5 0-0.5 0-0.5 0-0.5 0-0.5 0-0.5 0-0.5 0-0.5 0-0.5 0-0.5 0-0.5 0-0.5 0-0.5 0-0.5 0-0.5 0-0.5 0-0.5 0-0.5 0-0.5 0-0.5 0-0.5 0-0.5 0-0.5 0-0.5 0-0.5 0-0.5 0-0.5 0-0.5 0-0.5 0-0.5 0-0.5 0-0.5 0-0.5 0-0.5 0-0.5 0-0.5 0-0.5 0-0.5 0-0.5 0-0.5 0-0.5 0-0.5 0-0.5 0-0.5 0-0.5 0-0.5" class="c"/><path d="m137.1 136.6q0.1-0.4 0.5-0.5Q138 136 138.5 136q0.5 0 1 0 0.5 0 1 0 0.5 0 1 0 0.5 0 1 0 0.5 0 1 0 0.5 0 1 0 0.5 0 1 0 0.5 0 1 0 0.5 0 1 0 0.5 0 1 0 0.5 0 1 0 0.5 0 1 0 0.5 0 1 0 0.5 0 1 0 0.5 0 1 0 0.5 0 1 0 0.5 0 1 0 0.5 0 1 0 0.5 0 1 0 0.5 0 1 0 0.5 0 1 0 0.5 0 1 0 0.5 0 1 0 0.5 0 1 0 0.5 0 1 0 0.5 0 1 0 0.5 0 1 0 0.5 0 1 0 0.5 0 1 0 0.5 0 1 0 0.5 0 1 0 0.5 0 1 0 0.5 0 1 0 0.5 0 1 0 0.5 0 1 0 0.5 0 1 0 0.5 0 1 0 0.5 0 1 0 0.5 0 1 0 0.5 0 1 0 0.5 0 1 0 0.5 0 1 0 0.5 0 1 0 0.5 0 1 0 0.5 0 1 0 0.5 0 1 0l0.5 0 0 0.5 0 0.5 0 0.5 0 0.5 0 0.5 0 0.5 0 0.5 0 0.5 0 0.5 0 0.5 0 0.5 0 0.5 0 0.5 0 0.5 0 0.5 0 0.5 0 0.5 0 0.5 0 0.5 0 0.5 0 0.5 0 0.5 0 0.5 0 0.5 0 0.5 0 0.5 0 0.5 0 0.5 0 0.5 0 0.5 0 0.5 0 0.5 0 0.5 0 0.5 0 0.5 0 0.5 0 0.5 0 0.5 0 0.5 0 0.5 0 0.5 0 0.5 0 0.5 0 0.5 0 0.5 0 0.5 0 0.5 0 0.5 0 0.5 0 0.5 0 0.5 0 0.5 0 0.5 0 0.5 0 0.5 0 0.5 0 0.5 0 0.5 0 0.5 0 0.5 0 0.5 0 0.5 0 0.5 0 0.5 0 0.5 0 0.5 0 0.5 0 0.5 0 0.5 0 0.5 0 0.5 0 0.5 0 0.5 0 0.5 0 0.5 0 0.5 0 0.5 0 0.5 0 0.5 0 0.5 0 0.5 0 0.5 0 0.5 0 0.5 0 0.5 0 0.5 0 0.5 0 0.5 0 0.5 0 0.5 0 0.5 0 0.5 0 0.5 0 0.5 0 0.5 0 0.5-0.5 0-0.5 0-0.5 0-0.5 0-0.5 0-0.5 0-0.5 0-0.5 0-0.5 0-0.5 0-0.5 0-0.5 0-0.5 0-0.5 0-0.5 0-0.5 0-0.5 0-0.5 0-0.5 0-0.5 0-0.5 0-0.5 0-0.5 0-0.5 0-0.5 0-0.5 0-0.5 0-0.5 0-0.5 0-0.5 0-0.5 0-0.5 0-0.5 0-0.5 0-0.5 0-0.5 0-0.5 0-0.5 0-0.5 0-0.5 0-0.5 0-0.5 0-0.5 0-0.5 0-0.5 0-0.5 0-0.5 0-0.5 0-0.5 0-0.5 0-0.5 0-0.5 0-0.5 0-0.5 0-0.5 0-0.5 0-0.5 0-0.5 0-0.5 0-0.5 0-0.5 0-0.5 0-0.5 0-0.5 0-0.5 0-0.5 0-0.5 0-0.5 0-0.5 0-0.5 0-0.5 0-0.5 0-0.5 0-0.5 0-0.5 0-0.5 0-0.5 0-0.5 0-0.5 0-0.5 0-0.5 0-0.5 0-0.5 0-0.5 0-0.5 0-0.5 0-0.5 0-0.5 0-0.5 0-0.5 0-0.5 0-0.5 0-0.5 0-0.5 0-0.5 0-0.5 0 0-0.5q0-0.5 0-1 0-0.5 0-1 0-0.5 0-1 0-0.5 0-1 0-0.5 0-1 0-0.5 0-1 0-0.5 0-1 0-0.5 0-1 0-0.5 0-1 0-0.5 0-1 0-0.5 0-1 0-0.5 0-1 0-0.5 0-1 0-0.5 0-1 0-0.5 0-1 0-0.5 0-1 0-0.5 0-1 0-0.5 0-1 0-0.5 0-1 0-0.5 0-1 0-0.5 0-1 0-0.5 0-1 0-0.5 0-1 0-0.5 0-1 0-0.5 0-1 0-0.5 0-1 0-0.5 0-1 0-0.5 0-1 0-0.5 0-1 0-0.5 0-1 0-0.5 0-1 0-0.5 0-1 0-0.5 0-1 0-0.5 0-1 0-0.5 0-1 0-0.5 0-1 0-0.5 0-1 0-0.5 0-1 0-0.5 0-1 0-0.5 0-1 0-0.5 0-1 0-0.5 0-1 0-0.5 0-1 0-0.5 0-1 0-0.5 0-1 0-0.5 0-1 0-0.5 0.1-0.9" class="c"/><path d="m0 182.5 0-0.5 0.5 0q0.5 0 0.6 0.4L1.3 182.8 1.2 182.5 1.1 182.2 1.1 182.4q0.1 0.2 0.2 0.3l0.1 0.1L1.4 182.8 1.3 182.7 1 183l-0.3 0.3 0.1 0.1 0.1 0.1-0.1-0.1Q0.6 183.2 0.4 183.1L0.2 183.1 0.5 183.2 0.8 183.3 0.4 183.1 0 183 0 182.5" class="b"/><path d="m0 183.5 0-0.5 0.4 0.1q0.4 0.1 0.5 0.5L1 184 0.5 184 0 184 0 183.5" class="a"/><path d="M0.9 183.6 0.8 183.3 0.8 183.5 0.9 183.8 0.9 183.6q-0.1-0.2-0.2-0.3l-0.1-0.1 0.1 0.1 0.1 0.1L1 183 1.3 182.7 1.3 182.6l-0.1-0.1 0.1 0.1q0.1 0.1 0.3 0.2L1.8 182.9 1.5 182.8 1.3 182.8 1.6 182.9Q2 183 2 183.5l0 0.5-0.5 0-0.5 0-0.1-0.4" class="b"/></g></svg>
