<?xml version="1.0" encoding="utf-8"?>
<!-- Generator: Adobe Illustrator 21.0.0, SVG Export Plug-In . SVG Version: 6.00 Build 0)  -->
<svg version="1.1" xmlns="http://www.w3.org/2000/svg" xmlns:xlink="http://www.w3.org/1999/xlink" x="0px" y="0px"
	 viewBox="0 0 1500 1500" style="enable-background:new 0 0 1500 1500;" xml:space="preserve">
<style type="text/css">
	.st0{fill:#FFFFFF;}
	.st1{fill:#1A237E;}
</style>
<g id="Layer_2">
	<circle class="st0" cx="750" cy="750" r="296"/>
</g>
<g id="Layer_1">
	<g>
		<path class="st1" d="M750,136c-338.9,0-614,275.1-614,614s275.1,614,614,614s614-275.1,614-614S1088.9,136,750,136z M1026.3,995.6
			H504.4c-101.9,0-184.2-82.3-184.2-184.2s82.3-184.2,184.2-184.2l8.6,0.6C540,521.6,635.2,443,750,443
			c135.7,0,245.6,109.9,245.6,245.6h30.7c84.7,0,153.5,68.8,153.5,153.5S1111,995.6,1026.3,995.6z"/>
	</g>
</g>
</svg>
