<svg width="122" height="115" xmlns="http://www.w3.org/2000/svg" xmlns:xlink="http://www.w3.org/1999/xlink">
  <defs>
    <path id="a" d="M.175.587h77.017v106.684H.175z"/>
    <path d="M24.3.278a14.697 14.697 0 0 1-10.711 7.493A14.71 14.71 0 0 1 .312 2.923V.278H24.3z" id="c"/>
  </defs>
  <g fill="none" fill-rule="evenodd">
    <path d="M47.63 104.586l48.973 9.568c4.555.89 9.01-2.108 9.9-6.664l14.877-76.14c.89-4.555-2.11-9.01-6.664-9.9l-48.973-9.568c-4.554-.89-9.01 2.108-9.9 6.664l-14.876 76.14c-.891 4.555 2.108 9.01 6.664 9.9" fill="#FFF" opacity=".5"/>
    <path d="M16.327 111.548l49.603-8.07a4.687 4.687 0 0 0 3.862-5.364L59.5 34.847c-.413-2.537-2.826-4.276-5.363-3.862l-49.604 8.07A4.686 4.686 0 0 0 .67 44.418l10.294 63.268c.412 2.537 2.826 4.274 5.363 3.862" fill="#FFF" opacity=".4"/>
    <g transform="translate(21 -.587)">
      <mask id="b" fill="#fff">
        <use xlink:href="#a"/>
      </mask>
      <path d="M6.62 105.27l60.681 1.998c3.663.12 6.76-2.778 6.88-6.442l3.007-91.358c.121-3.663-2.777-6.76-6.44-6.88L10.065.59C6.403.47 3.307 3.37 3.186 7.033L.18 98.39c-.12 3.662 2.778 6.758 6.441 6.88" fill="#FFF" mask="url(#b)"/>
    </g>
    <path d="M69.853 45.371a5.66 5.66 0 1 0 11.32.07 5.66 5.66 0 0 0-11.32-.07m-31.369-.195a5.66 5.66 0 1 0 11.32.071 5.66 5.66 0 0 0-11.32-.071m8.368 13.157a2.794 2.794 0 0 0-2.127 3.797c2.486 6.193 8.98 10.099 15.864 9.055 6.886-1.044 11.93-6.7 12.468-13.353a2.793 2.793 0 0 0-3.157-2.995l-11.398 1.55-11.65 1.946z" fill="#293243"/>
    <g transform="translate(47 63.413)">
      <mask id="d" fill="#fff">
        <use xlink:href="#c"/>
      </mask>
      <path d="M.348 9.195c.537 3.668 7.03 5.754 14.504 4.66 7.473-1.096 13.095-4.958 12.557-8.626C26.87 1.56 20.377-.526 12.905.57 5.432 1.665-.19 5.526.348 9.195" fill="#EC6173" mask="url(#d)"/>
    </g>
  </g>
</svg>
