<?xml version="1.0" encoding="UTF-8"?>
<svg id="svg8" width="203.24mm" height="201.58mm" version="1.1" viewBox="0 0 203.24 201.58" xmlns="http://www.w3.org/2000/svg"><g id="layer3" transform="translate(-7.0969 -31.354)"><g id="g846"><ellipse id="path815" cx="108.72" cy="132.15" rx="101.46" ry="100.63" style="fill-rule:evenodd;fill:#000000;stroke-width:.32017;stroke:#000000"/><path id="path819" transform="scale(.26458)" d="m425.56 169.33-84.602 34.713v242.26c-7.5482.6483-14.815 1.6326-21.754 3.0879v-222.21l-84.602 34.713v261.41l-125.37-89.555-30.689 101.7 162.72 116.23c21.194 74.038 99.998 129.2 195.12 129.2 97.972 0 174.71-44.072 192.15-132.48l.0703-.0293v-.32226c2.2502-11.524 3.5075-23.789 3.6621-36.816.32908-27.729-.95469-50.959-3.6621-70.465v-211.76l-84.6 34.715v79.473c-4.6932-.39334-9.5355-.59064-14.504-.65234v-203.79l-84.602 34.713v172.66c-2.8251.0522-5.6623.0859-8.5195.0859-3.6272 0-7.2316-.0281-10.816-.0723z" style="fill-rule:evenodd;fill:#ffffff;stroke-width:1.4804;stroke:#ffffff"/><path id="path941" transform="scale(.26458)" d="m525.46 488.59a81.856 79.638 0 0 0-81.855 79.639 81.856 79.638 0 0 0 81.855 79.639 81.856 79.638 0 0 0 81.855-79.639 81.856 79.638 0 0 0-81.855-79.639zm-178.85 2.957a81.856 79.638 0 0 0-81.855 79.639 81.856 79.638 0 0 0 81.855 79.639 81.856 79.638 0 0 0 81.855-79.639 81.856 79.638 0 0 0-81.855-79.639z" style="fill-rule:evenodd;fill:#000000;stroke-width:1.3584;stroke:#000000"/><path id="text947" transform="scale(.26458)" d="m516.12 532.41-23.285 71.293h16.385l4.3594-14.412h23.371l4.3594 14.412h16.809l-23.285-71.293zm-166.22 1.0898c-5.8846 0-11.32.90582-16.305 2.7188-4.95 1.8129-9.1033 4.3814-12.461 7.7051-3.4961 3.458-6.1615 7.605-7.9961 12.439-1.8346 4.8345-2.752 10.222-2.752 16.164 0 6.3788.95164 12.003 2.8555 16.871 1.9384 4.8681 4.6562 8.9309 8.1523 12.188 3.4961 3.2566 7.6676 5.7065 12.514 7.3516 4.8807 1.6451 10.193 2.4668 15.939 2.4668 3.8769 0 6.9233-.18343 9.1387-.55273 2.2154-.36931 4.5864-.9063 7.1133-1.6113 1.9384-.53717 3.7913-1.1755 5.5566-1.9141 1.7654-.7386 3.6162-1.5279 5.5547-2.3672v-17.928h-2.0762c-.93461.80575-2.1282 1.7632-3.582 2.8711-1.4538 1.1079-3.0304 2.1475-4.7266 3.1211-2.0077 1.2086-4.2053 2.1661-6.5938 2.8711-2.3538.70503-4.743 1.0566-7.166 1.0566-2.5269 0-5.0875-.38602-7.6836-1.1582-2.5961-.80575-4.951-2.13-7.0625-3.9766-2.0769-1.8129-3.8068-4.2992-5.1914-7.4551-1.35-3.1558-2.0254-7.083-2.0254-11.783 0-4.4988.62299-8.3266 1.8691-11.482 1.2808-3.1558 2.9421-5.6899 4.9844-7.6035 2.1462-1.9808 4.4829-3.3912 7.0098-4.2305 2.5269-.87289 5.1923-1.3086 7.9961-1.3086 2.5269 0 4.8979.36882 7.1133 1.1074 2.2154.7386 4.2758 1.6444 6.1797 2.7188 1.8692 1.0743 3.5305 2.1655 4.9844 3.2734 1.4884 1.1079 2.7183 2.0653 3.6875 2.8711h2.2832v-18.18c-1.4192-.67145-3.0805-1.3938-4.9844-2.166-1.8692-.80575-3.964-1.5281-6.2832-2.166-2.2154-.57074-4.6368-1.0236-7.2676-1.3594-2.5961-.3693-5.5216-.55274-8.7754-.55274zm175.37 17.152 7.748 25.568h-15.496z" style="fill:#ffffff"/></g></g></svg>
