<svg data-v-423bf9ae="" xmlns="http://www.w3.org/2000/svg" viewBox="0 0 382.2304164963677 60" class="font"><!----><!----><defs data-v-423bf9ae=""><linearGradient data-v-423bf9ae="" gradientTransform="rotate(25)" id="5e545d3a-1561-49fc-8398-e7f1617defb3" x1="0%" y1="0%" x2="100%" y2="0%"><stop data-v-423bf9ae="" offset="0%" style="stop-color: rgb(148, 80, 105); stop-opacity: 1;"></stop><stop data-v-423bf9ae="" offset="100%" style="stop-color: rgb(134, 200, 102); stop-opacity: 1;"></stop></linearGradient></defs><g data-v-423bf9ae="" id="d691cfd8-c5ee-408e-a550-682dc0e31080" fill="url(#5e545d3a-1561-49fc-8398-e7f1617defb3)" transform="matrix(5.529953722625812,0,0,5.529953722625812,-3.2626697615080786,-21.622120245362396)"><path d="M7.97 12.17L7.14 12.19C7.14 12.19 7.14 12.71 7.11 12.85C7.11 12.99 7.01 13.31 6.92 13.64C6.33 13.82 5.59 13.94 5.01 13.94C3.01 13.94 2.03 12.03 2.03 9.60C2.03 7.18 3.01 5.28 5.03 5.28C5.56 5.28 6.24 5.42 6.79 5.60C6.87 5.88 6.96 6.17 6.96 6.30L6.96 6.96L7.78 7.01L7.92 4.94C7.04 4.72 6.17 4.47 5.03 4.47C2.09 4.47 0.59 6.57 0.59 9.62C0.59 12.67 2.09 14.76 5.03 14.76C6.16 14.76 7.17 14.50 8.05 14.28ZM8.82 4.65L9.88 4.87C9.88 4.87 10.02 5.66 10.02 5.94L10.02 12.63C10.02 12.91 9.91 13.57 9.88 13.69L8.81 13.92L8.88 14.62C8.88 14.62 10.15 14.55 10.43 14.55C11.55 14.55 12.24 14.62 12.24 14.62L12.33 13.79L11.24 13.69C11.23 13.58 11.16 12.82 11.16 12.21L11.16 10.71C11.17 9.34 11.84 8.36 12.95 8.36C14.13 8.36 14.39 9.51 14.39 10.68L14.39 12.63C14.39 12.98 14.32 13.38 14.25 13.69L13.31 13.92L13.38 14.62C13.38 14.62 14.53 14.55 14.81 14.55C15.93 14.55 16.62 14.62 16.62 14.62L16.72 13.79L15.62 13.69C15.62 13.69 15.53 12.91 15.53 12.21L15.53 10.68C15.53 8.75 15.09 7.50 13.16 7.50C12.21 7.50 11.54 8.01 11.16 8.57L11.16 6.36C11.16 5.70 11.21 4.65 11.26 4.21L10.99 3.96L10.18 3.96C9.90 3.96 8.89 3.91 8.89 3.91ZM20.89 13.79L19.80 13.69C19.80 13.69 19.70 12.91 19.70 12.21L19.70 10.02C19.70 9.32 19.80 7.88 19.80 7.88L19.53 7.63L18.72 7.63C18.44 7.63 17.43 7.57 17.43 7.57L17.36 8.32L18.42 8.54C18.42 8.54 18.56 9.32 18.56 9.60L18.56 12.63C18.56 12.91 18.42 13.69 18.42 13.69L17.36 13.92L17.43 14.62C17.43 14.62 18.70 14.55 18.98 14.55C20.10 14.55 20.79 14.62 20.79 14.62ZM19.14 4.47C18.61 4.47 18.31 4.84 18.31 5.38C18.31 5.91 18.61 6.27 19.14 6.27C19.67 6.27 19.96 5.91 19.96 5.38C19.96 4.80 19.66 4.47 19.14 4.47ZM21.35 4.65L22.41 4.87C22.41 4.87 22.55 5.66 22.55 5.94L22.55 12.63C22.55 12.91 22.44 13.57 22.41 13.69L21.34 13.92L21.41 14.62C21.41 14.62 22.68 14.55 22.96 14.55C24.08 14.55 24.77 14.62 24.77 14.62L24.86 13.79L23.77 13.69C23.76 13.58 23.69 12.82 23.69 12.21L23.69 6.36C23.69 5.70 23.74 4.65 23.79 4.21L23.52 3.96L22.71 3.96C22.43 3.96 21.42 3.91 21.42 3.91ZM25.45 4.65L26.52 4.87C26.52 4.87 26.66 5.66 26.66 5.94L26.66 12.63C26.66 12.91 26.54 13.57 26.52 13.69L25.44 13.92L25.51 14.62C25.51 14.62 26.78 14.55 27.06 14.55C28.18 14.55 28.87 14.62 28.87 14.62L28.97 13.79L27.87 13.69C27.86 13.58 27.79 12.82 27.79 12.21L27.79 6.36C27.79 5.70 27.85 4.65 27.89 4.21L27.62 3.96L26.81 3.96C26.53 3.96 25.52 3.91 25.52 3.91ZM33.31 13.79L32.21 13.69C32.21 13.69 32.12 12.91 32.12 12.21L32.12 10.02C32.12 9.32 32.21 7.88 32.21 7.88L31.95 7.63L31.14 7.63C30.86 7.63 29.85 7.57 29.85 7.57L29.78 8.32L30.84 8.54C30.84 8.54 30.98 9.32 30.98 9.60L30.98 12.63C30.98 12.91 30.84 13.69 30.84 13.69L29.78 13.92L29.85 14.62C29.85 14.62 31.12 14.55 31.40 14.55C32.52 14.55 33.21 14.62 33.21 14.62ZM31.56 4.47C31.02 4.47 30.73 4.84 30.73 5.38C30.73 5.91 31.02 6.27 31.56 6.27C32.09 6.27 32.38 5.91 32.38 5.38C32.38 4.80 32.07 4.47 31.56 4.47ZM44.59 12.17L43.76 12.19C43.76 12.19 43.76 12.71 43.74 12.85C43.74 12.99 43.64 13.31 43.54 13.64C42.95 13.82 42.21 13.94 41.64 13.94C39.63 13.94 38.65 12.03 38.65 9.60C38.65 7.18 39.63 5.28 41.65 5.28C42.18 5.28 42.87 5.42 43.41 5.60C43.50 5.88 43.58 6.17 43.58 6.30L43.58 6.96L44.41 7.01L44.55 4.94C43.67 4.72 42.80 4.47 41.65 4.47C38.71 4.47 37.21 6.57 37.21 9.62C37.21 12.67 38.71 14.76 41.65 14.76C42.78 14.76 43.79 14.50 44.67 14.28ZM45.44 4.65L46.51 4.87C46.51 4.87 46.65 5.66 46.65 5.94L46.65 12.63C46.65 12.91 46.54 13.57 46.51 13.69L45.43 13.92L45.50 14.62C45.50 14.62 46.77 14.55 47.05 14.55C48.17 14.55 48.86 14.62 48.86 14.62L48.96 13.79L47.87 13.69C47.85 13.58 47.78 12.82 47.78 12.21L47.78 6.36C47.78 5.70 47.84 4.65 47.88 4.21L47.61 3.96L46.80 3.96C46.52 3.96 45.51 3.91 45.51 3.91ZM56.27 11.10C56.27 8.93 55.20 7.50 53.05 7.50C50.92 7.50 49.83 8.96 49.83 11.10C49.83 13.23 50.92 14.69 53.05 14.69C55.17 14.69 56.27 13.23 56.27 11.10ZM54.95 11.10C54.95 12.54 54.49 13.89 53.05 13.89C51.60 13.89 51.14 12.54 51.14 11.10C51.14 9.66 51.60 8.30 53.05 8.30C54.49 8.30 54.95 9.66 54.95 11.10ZM63.70 8.37L63.66 7.56C63.66 7.56 63.06 7.63 61.94 7.63C61.66 7.63 60.76 7.59 60.76 7.59L60.69 8.32L61.74 8.47C61.64 8.92 61.53 9.45 61.46 9.63L60.30 13.10L59.09 9.66C59.02 9.48 58.88 8.95 58.76 8.47L59.60 8.37L59.56 7.56C59.56 7.56 58.86 7.63 57.74 7.63C57.46 7.63 56.49 7.59 56.49 7.59L56.42 8.32L57.27 8.47C57.53 8.93 57.78 9.53 57.85 9.73C57.96 10.04 59.68 14.55 59.68 14.55L60.62 14.55L62.23 10.08C62.31 9.87 62.66 9.04 62.93 8.46ZM67.02 7.50C64.96 7.50 63.97 9.02 63.97 11.12C63.97 13.23 65.07 14.69 67.19 14.69C68.77 14.69 69.66 13.85 69.66 13.85L69.27 13.20C69.27 13.20 68.38 13.78 67.19 13.78C65.93 13.78 65.32 12.49 65.28 11.23L69.47 11.23L69.71 10.77C69.71 8.81 68.98 7.50 67.02 7.50ZM66.96 8.23C67.96 8.23 68.42 9.02 68.42 10.01C68.42 10.08 68.40 10.29 68.40 10.29L65.30 10.53C65.39 9.37 65.81 8.23 66.96 8.23Z"></path></g><!----><!----></svg>