<svg xmlns="http://www.w3.org/2000/svg" viewBox="0 0 292.89 57.74"><defs><style>.cls-1{fill:#231f20;}</style></defs><title>Asset 2</title><g id="Layer_2" data-name="Layer 2"><g id="Layer_1-2" data-name="Layer 1"><path class="cls-1" d="M4.22,41.4c0-17,12.49-28.54,28.37-28.54A24.48,24.48,0,0,1,53.52,23.78L47.81,27a18.55,18.55,0,0,0-15.22-8C20.51,19,11.33,28.16,11.33,41.4c0,13.07,9.18,22.42,21.26,22.42a18.77,18.77,0,0,0,15.22-8l5.79,3.14c-4.63,6.37-11.25,11-21,11C16.71,69.93,4.22,58.35,4.22,41.4Z" transform="translate(-4.22 -12.2)"/><path class="cls-1" d="M61,19.15a4.24,4.24,0,0,1,4.22-4.22,4.17,4.17,0,0,1,4.14,4.22,4.1,4.1,0,0,1-4.14,4.14A4.17,4.17,0,0,1,61,19.15Zm1.08,49.8V29h6.2v40Z" transform="translate(-4.22 -12.2)"/><path class="cls-1" d="M107.78,68.94V42.8c0-7.11-3.64-9.26-9-9.26a15.56,15.56,0,0,0-11.83,6.2v29.2h-6.2V29h6.2v5.79A19.55,19.55,0,0,1,101.24,28c8.27,0,12.66,4.22,12.66,12.9v28Z" transform="translate(-4.22 -12.2)"/><path class="cls-1" d="M124.07,48.92c0-11.58,8.27-20.93,19.69-20.93,12.08,0,19.19,9.43,19.19,21.42V51H130.69c.5,7.53,5.71,13.81,14.31,13.81a17.39,17.39,0,0,0,12.41-5.13l3,4.05a22,22,0,0,1-15.88,6.2C132.59,69.93,124.07,61.41,124.07,48.92Zm19.6-15.8c-8.52,0-12.74,7.2-13.07,13.23h26.22C156.74,40.49,152.77,33.13,143.67,33.13Z" transform="translate(-4.22 -12.2)"/><path class="cls-1" d="M171.71,68.94V13.77h11.83V58.6h23.33V68.94Z" transform="translate(-4.22 -12.2)"/><path class="cls-1" d="M213.57,18.4a6.25,6.25,0,0,1,12.49,0,6.25,6.25,0,1,1-12.49,0Zm1,50.54V29h10.51v40Z" transform="translate(-4.22 -12.2)"/><path class="cls-1" d="M232,63.73l4.55-7.61a22.65,22.65,0,0,0,13.81,5.54c4.55,0,6.7-1.74,6.7-4.22,0-6.54-23.66-1.16-23.66-16.87,0-6.7,5.79-12.57,16.38-12.57a25.45,25.45,0,0,1,16,5.46l-4.22,7.44a17.22,17.22,0,0,0-11.83-4.63c-3.8,0-6.29,1.65-6.29,3.89,0,5.87,23.74.91,23.74,17,0,7.36-6.29,12.74-17.37,12.74C242.93,69.93,236.23,67.62,232,63.73Z" transform="translate(-4.22 -12.2)"/><path class="cls-1" d="M277.09,58.93V38.17h-6.62V29h6.62V18.07h10.5V29h8.11v9.18h-8.11V56.12c0,2.56,1.32,4.47,3.64,4.47a5.29,5.29,0,0,0,3.64-1.24l2.23,8c-1.57,1.41-4.38,2.56-8.77,2.56C281,69.93,277.09,66.13,277.09,58.93Z" transform="translate(-4.22 -12.2)"/></g></g></svg>