<?xml version="1.0" encoding="UTF-8" standalone="no"?>
<svg
   xmlns:dc="http://purl.org/dc/elements/1.1/"
   xmlns:cc="http://creativecommons.org/ns#"
   xmlns:rdf="http://www.w3.org/1999/02/22-rdf-syntax-ns#"
   xmlns:svg="http://www.w3.org/2000/svg"
   xmlns="http://www.w3.org/2000/svg"
   xmlns:sodipodi="http://sodipodi.sourceforge.net/DTD/sodipodi-0.dtd"
   xmlns:inkscape="http://www.inkscape.org/namespaces/inkscape"
   id="svg"
   version="1.1"
   width="400"
   height="400"
   style="display:block"
   inkscape:version="0.91 r13725"
   sodipodi:docname="icon.svg">
  <metadata
     id="metadata10">
    <rdf:RDF>
      <cc:Work
         rdf:about="">
        <dc:format>image/svg+xml</dc:format>
        <dc:type
           rdf:resource="http://purl.org/dc/dcmitype/StillImage" />
      </cc:Work>
    </rdf:RDF>
  </metadata>
  <defs
     id="defs8" />
  <sodipodi:namedview
     pagecolor="#000000"
     bordercolor="#666666"
     borderopacity="1"
     objecttolerance="10"
     gridtolerance="10"
     guidetolerance="10"
     inkscape:pageopacity="0"
     inkscape:pageshadow="2"
     inkscape:window-width="1680"
     inkscape:window-height="987"
     id="namedview6"
     showgrid="false"
     inkscape:zoom="1.3350176"
     inkscape:cx="202.92471"
     inkscape:cy="285.60255"
     inkscape:window-x="1672"
     inkscape:window-y="-8"
     inkscape:window-maximized="1"
     inkscape:current-layer="svg" />
  <g
     id="svgg">
    <path
       id="path1"
       d="m 145.568,233.093 -2.984,-2.838 c -17.715,-16.847 -43.896,-19.283 -69.707,-6.485 -31.624,15.681 -27.504,51.441 6.807,59.074 23.845,5.305 54.968,-6.246 62.628,-23.244 0.991,-2.2 2.129,-4.612 2.527,-5.36 l 59.06113,-158.176271 130.81852,54.564231 -49.5067,137.38073 c 0,0 -2.02495,-2.30469 -6.48295,-6.46069 -30.491,-28.421 -99.177,-1.578 -87.589,34.23 3.534,10.921 15.933,19.801 30.61,21.923 8.176,1.182 26.845,-0.001 31.182,-1.976 1.467,-0.669 5.349,-2.334 8.625,-3.701 12.079,-5.041 20.05,-14.14 25.598,-29.224 L 356.975,107.822 212.62331,51.162712"
       inkscape:connector-curvature="0"
       style="fill:#4b006b;fill-rule:evenodd;stroke:none"
       sodipodi:nodetypes="ccccccccccccccccc" />
  </g>
</svg>
