<?xml version="1.0" encoding="UTF-8" standalone="no"?>
<svg
   xmlns:dc="http://purl.org/dc/elements/1.1/"
   xmlns:cc="http://creativecommons.org/ns#"
   xmlns:rdf="http://www.w3.org/1999/02/22-rdf-syntax-ns#"
   xmlns:svg="http://www.w3.org/2000/svg"
   xmlns="http://www.w3.org/2000/svg"
   viewBox="0 0 320 320"
   height="320"
   width="320"
   version="1.1"
   id="svg2">
  <metadata
     id="metadata8">
    <rdf:RDF>
      <cc:Work
         rdf:about="">
        <dc:format>image/svg+xml</dc:format>
        <dc:type
           rdf:resource="http://purl.org/dc/dcmitype/StillImage" />
        <dc:title></dc:title>
      </cc:Work>
    </rdf:RDF>
  </metadata>
  <defs
     id="defs6" />
  <circle
     r="160"
     cy="160"
     cx="160"
     id="path4138"
     style="fill:#fa7921;fill-opacity:1;stroke:none;stroke-width:1.39999998;stroke-miterlimit:0;stroke-dasharray:none;stroke-dashoffset:0;stroke-opacity:1" />
  <path
     d="m 202.23177,166.09715 -45.90799,45.90799 q -0.89664,0.80697 -2.06227,0.80697 -1.16564,0 -2.06228,-0.80697 l -25.82324,-25.82325 q -0.80698,-0.89664 -0.80698,-2.06227 0,-1.16563 0.80698,-1.97261 l 4.12454,-4.12455 q 0.80698,-0.80697 1.97261,-0.80697 1.16564,0 2.06228,0.80697 l 19.72609,19.72609 39.81083,-39.81083 q 0.89664,-0.80698 2.06227,-0.80698 1.16564,0 1.97261,0.80698 l 4.12455,4.12455 q 0.80697,0.80697 0.80697,1.9726 0,1.16564 -0.80697,2.06228 z m -105.355252,62.76483 126.246972,0 0,-91.81598 -126.246972,0 0,91.81598 z m 34.430992,-109.03148 0,-25.823243 q 0,-1.255296 -0.80698,-2.062273 -0.80697,-0.806976 -2.06227,-0.806976 l -5.7385,0 q -1.25529,0 -2.06227,0.806976 -0.80698,0.806977 -0.80698,2.062273 l 0,25.823243 q 0,1.2553 0.80698,2.06227 0.80698,0.80698 2.06227,0.80698 l 5.7385,0 q 1.2553,0 2.06227,-0.80698 0.80698,-0.80697 0.80698,-2.06227 z m 68.86198,0 0,-25.823243 q 0,-1.255296 -0.80697,-2.062273 -0.80698,-0.806976 -2.06227,-0.806976 l -5.7385,0 q -1.2553,0 -2.06228,0.806976 -0.80697,0.806977 -0.80697,2.062273 l 0,25.823243 q 0,1.2553 0.80697,2.06227 0.80698,0.80698 2.06228,0.80698 l 5.7385,0 q 1.25529,0 2.06227,-0.80698 0.80697,-0.80697 0.80697,-2.06227 z m 34.431,-5.7385 0,114.76998 q 0,4.66253 -3.40724,8.06976 -3.40723,3.40723 -8.06976,3.40723 l -126.246972,0 q -4.66253,0 -8.069764,-3.40723 -3.407233,-3.40723 -3.407233,-8.06976 l 0,-114.76998 q 0,-4.66253 3.407233,-8.06976 3.407234,-3.40723 8.069764,-3.40723 l 11.477002,0 0,-8.607753 q 0,-5.917826 4.21421,-10.132036 4.21421,-4.21421 10.13203,-4.21421 l 5.7385,0 q 5.91783,0 10.13204,4.21421 4.21421,4.21421 4.21421,10.132036 l 0,8.607753 34.43099,0 0,-8.607753 q 0,-5.917826 4.21421,-10.132036 4.21421,-4.21421 10.13204,-4.21421 l 5.7385,0 q 5.91782,0 10.13203,4.21421 4.21421,4.21421 4.21421,10.132036 l 0,8.607753 11.477,0 q 4.66253,0 8.06976,3.40723 3.40724,3.40723 3.40724,8.06976 z"
     style="font-style:normal;font-weight:normal;font-size:medium;line-height:125%;font-family:sans-serif;letter-spacing:0px;word-spacing:0px;fill:#ffffff;fill-opacity:1;stroke:none;stroke-width:1px;stroke-linecap:butt;stroke-linejoin:miter;stroke-opacity:1"
     id="path4164" />
</svg>
