<?xml version="1.0" encoding="UTF-8" standalone="no"?>
<svg
   xmlns:dc="http://purl.org/dc/elements/1.1/"
   xmlns:cc="http://creativecommons.org/ns#"
   xmlns:rdf="http://www.w3.org/1999/02/22-rdf-syntax-ns#"
   xmlns:svg="http://www.w3.org/2000/svg"
   xmlns="http://www.w3.org/2000/svg"
   xmlns:xlink="http://www.w3.org/1999/xlink"
   xmlns:sodipodi="http://sodipodi.sourceforge.net/DTD/sodipodi-0.dtd"
   xmlns:inkscape="http://www.inkscape.org/namespaces/inkscape"
   id="svg3268"
   viewBox="0 0 288 288"
   version="1.1"
   sodipodi:docname="coachaide-logo.svg"
   inkscape:version="0.92+devel unknown"
   inkscape:export-filename="/home/kaosko/personal/tacticboard/resources/public/img/coachaide-logo-384.png"
   inkscape:export-xdpi="128"
   inkscape:export-ydpi="128"
   width="288"
   height="288">
  <defs
     id="defs3538">
    <linearGradient
       inkscape:collect="always"
       id="linearGradient4396">
      <stop
         style="stop-color:#1f1f1f;stop-opacity:1;"
         offset="0"
         id="stop4392" />
      <stop
         style="stop-color:#1f1f1f;stop-opacity:0;"
         offset="1"
         id="stop4394" />
    </linearGradient>
    <linearGradient
       inkscape:collect="always"
       id="linearGradient4388">
      <stop
         style="stop-color:#484848;stop-opacity:1;"
         offset="0"
         id="stop4384" />
      <stop
         style="stop-color:#484848;stop-opacity:0;"
         offset="1"
         id="stop4386" />
    </linearGradient>
    <linearGradient
       inkscape:collect="always"
       xlink:href="#linearGradient4388"
       id="linearGradient4382"
       x1="232.03937"
       y1="275.67328"
       x2="343.47232"
       y2="275.67328"
       gradientUnits="userSpaceOnUse"
       gradientTransform="translate(0,-8)" />
    <linearGradient
       inkscape:collect="always"
       xlink:href="#linearGradient4396"
       id="linearGradient4398"
       x1="183.28328"
       y1="329.50848"
       x2="473.53604"
       y2="329.50848"
       gradientUnits="userSpaceOnUse"
       gradientTransform="translate(0,-8)" />
  </defs>
  <sodipodi:namedview
     pagecolor="#ffffff"
     bordercolor="#666666"
     inkscape:document-rotation="0"
     borderopacity="1"
     objecttolerance="10"
     gridtolerance="10"
     guidetolerance="10"
     inkscape:pageopacity="0"
     inkscape:pageshadow="2"
     inkscape:window-width="1920"
     inkscape:window-height="1051"
     id="namedview3536"
     showgrid="false"
     inkscape:zoom="2.1253386"
     inkscape:cx="123.67525"
     inkscape:cy="107.8389"
     inkscape:window-x="0"
     inkscape:window-y="0"
     inkscape:window-maximized="1"
     inkscape:current-layer="layer1"
     fit-margin-top="0"
     fit-margin-left="0"
     fit-margin-right="0"
     fit-margin-bottom="0" />
  <g
     id="layer1"
     transform="translate(-183.28328,-178.24946)">
    <ellipse
       style="fill:#f4f4f4;fill-opacity:1;stroke:none;stroke-width:18.89763832;stroke-miterlimit:4;stroke-dasharray:none;stroke-opacity:1"
       id="path877"
       ry="132.68474"
       rx="142.33028"
       cy="321.33261"
       cx="328.13278" />
    <path
       style="clip-rule:evenodd;fill:#000000;fill-opacity:0;fill-rule:evenodd;stroke:url(#linearGradient4398);stroke-width:10.25629997;stroke-opacity:1"
       inkscape:connector-curvature="0"
       fill="#ececec"
       d="m 329.53618,189.89586 c 44.91091,-0.0697 77.10486,19.39976 99.78048,40.91634 22.03801,20.91273 39.58106,52.47259 39.08083,92.00537 -0.54249,42.88718 -20.20268,72.74828 -43.44193,93.97952 -24.21152,22.12375 -56.58513,36.05562 -98.14947,36.32105 -44.84045,0.28534 -76.36861,-18.59683 -99.31548,-40.43525 -23.57391,-22.42568 -39.2781,-51.36109 -39.07731,-92.00537 0.21136,-42.89049 19.7236,-73.68724 42.46262,-94.02596 11.78696,-10.54429 24.55675,-19.25378 41.67002,-26.14506 15.97192,-6.44004 36.21688,-10.57746 56.99024,-10.61064 z m -43.58284,7.57145 c 0.4192,6.08834 -0.0352,12.91658 -0.0846,19.40639 20.50212,1.33048 36.77699,6.26088 49.24031,14.41628 13.73853,-5.6172 30.81305,-7.75725 49.5045,-8.20517 1.78248,-6.09498 1.46544,-12.90995 1.58521,-19.79127 -24.3031,-13.65648 -73.61386,-16.37715 -100.24547,-5.82623 z m 100.58718,26.17159 c 15.21101,10.36844 25.08866,25.25918 35.58983,39.629 11.38185,3.51034 21.37222,8.21512 30.14375,13.94182 1.33158,-2.00733 3.21622,-3.45726 4.24485,-5.79637 -13.80546,-29.8611 -35.51234,-53.01673 -67.92822,-67.08131 -0.0599,7.09036 -1.20477,13.04267 -2.05021,19.30686 z m -60.43192,64.03879 c 3.8186,-2.77045 10.88162,-5.95231 11.81513,-9.58541 0.74329,-2.89653 -0.53193,-7.91319 -0.83488,-11.59274 -0.97931,-12.04398 -1.8001,-23.19213 -3.53327,-33.90231 -5.62927,-3.90848 -12.71342,-7.40223 -21.04813,-9.80771 -7.74642,-2.23295 -23.08425,-5.56744 -29.73511,-3.30131 -8.79266,3.0027 -16.40874,6.44004 -25.27185,13.5503 -4.55133,3.65301 -18.09611,14.54568 -19.73416,19.82777 -1.1484,3.69946 -0.44386,9.21713 -0.24307,13.38773 0.61295,13.12893 2.36021,24.53587 5.37564,35.83996 17.33873,3.726 33.21202,8.70285 48.78235,13.93186 10.1031,-9.60532 22.33392,-19.55239 34.42735,-28.34814 z M 210.83881,252.01358 c -5.59757,9.00478 -12.74865,21.11844 -16.66237,35.21951 -4.84019,17.45547 -8.1163,44.14134 0.84544,55.94975 6.89393,1.96751 17.47612,2.92971 24.46163,1.19444 3.71645,-17.88679 12.53025,-30.43841 21.95699,-42.36294 -4.7803,-13.94845 -5.62575,-31.24135 -5.62575,-49.24759 -7.85562,-2.12346 -17.44793,-2.51165 -24.97594,-0.75317 z m 196.94006,31.34421 c -2.58918,3.3743 -12.17445,13.05593 -12.70285,16.93456 -0.40159,2.95625 2.31793,9.3233 3.20565,13.09243 3.2585,13.83896 5.79837,27.32622 5.94984,43.2621 11.46287,4.61188 22.24938,9.80439 32.511,15.44482 5.4778,-4.13078 10.79356,-10.176 15.15466,-16.8118 3.52622,-5.38163 9.23652,-15.36519 10.50821,-21.65925 1.90578,-9.43611 -0.81726,-20.46812 -2.80407,-29.2506 -2.01498,-8.91852 -5.33689,-17.34267 -7.94721,-24.87098 -8.13744,-6.42014 -18.14543,-11.251 -30.10852,-14.41296 -4.31178,5.56744 -8.23959,11.07515 -13.76671,18.27168 z m -104.85316,24.44628 c -3.40998,2.89321 -9.33516,7.63117 -9.90583,10.60069 -0.65523,3.45394 1.58873,8.96829 2.22634,13.0493 2.19464,14.04467 4.3611,27.25987 7.11233,40.08024 16.20795,8.35115 34.6528,14.80115 55.34162,19.34003 13.06569,-6.67229 23.62675,-15.66048 34.74439,-25.10323 3.45929,-2.93634 8.95823,-6.59266 9.88117,-10.13618 1.05329,-4.05448 -0.15147,-10.63387 -0.63056,-15.28225 -1.51828,-14.65848 -5.40382,-27.86372 -8.58482,-40.15654 -16.66942,-7.65772 -33.72633,-14.99691 -54.36231,-19.28696 -11.06832,8.18858 -24.33128,17.14028 -35.82233,26.8949 z m 160.79716,28.64675 c -4.21667,10.24236 -11.1423,21.8351 -17.82486,29.62885 -2.38487,2.77044 -6.41484,4.90385 -7.77108,7.47191 -1.90578,3.60324 -1.76135,8.57677 -3.1352,12.32268 -2.80407,7.67098 -6.78472,14.77461 -10.48708,21.20138 -1.47601,2.5581 -6.08018,6.29406 -2.48702,9.58541 3.73406,-0.0896 5.90404,-3.6895 8.17971,-6.06512 2.51873,-2.64768 4.967,-5.53094 7.33073,-8.42415 13.59058,-16.63595 27.14945,-38.9256 27.6532,-65.63801 -0.48613,-0.0332 -0.96874,-0.0564 -1.4584,-0.0829 z m -268.83133,9.03464 c 0.53193,3.33449 -0.58829,8.99151 0.24307,13.41427 2.19464,11.62592 11.09651,26.33086 18.59281,36.48695 4.03349,5.46126 7.80278,10.103 12.88252,15.41164 8.77504,9.17068 17.01816,17.22322 34.97688,15.11636 -3.48042,-9.4892 -8.49323,-21.48672 -7.82744,-35.96604 -15.1159,-11.61265 -26.68797,-26.24127 -34.87473,-43.75315 -6.50642,1.17454 -16.89487,0.28866 -23.99311,-0.71003 z m 60.35795,44.07499 c 0.14795,14.51581 3.54031,26.28108 8.78561,36.46704 13.48137,7.44536 33.03588,19.49266 54.85901,19.31349 8.39811,-0.0697 18.19474,-2.51829 26.304,-5.64375 5.74552,-2.20972 18.15599,-7.60462 19.36076,-12.91658 1.09908,-4.86736 -2.3426,-12.09043 -3.46634,-17.26635 -1.35624,-6.25424 -2.13123,-11.90795 -3.94895,-17.28958 -21.51665,-4.1341 -39.41196,-11.34722 -56.32797,-19.38649 -14.37966,6.42345 -29.51318,12.05393 -45.56612,16.72222 z m 156.40083,37.21356 c 4.36463,-3.01929 12.69581,-8.28148 6.47825,-10.76658 -13.10093,8.40424 -30.08738,12.74073 -51.6921,12.253 -11.35719,11.36713 -28.24501,16.94783 -48.16236,19.36327 0.465,1.36365 0.2642,3.28804 0.72568,4.65169 37.99936,2.04383 69.66491,-9.59205 92.65053,-25.50138 z"
       id="path172"
       inkscape:export-xdpi="96"
       inkscape:export-ydpi="96" />
    <path
       style="clip-rule:evenodd;fill:#b4b4b4;fill-opacity:1;fill-rule:evenodd;stroke:#d2d2d2;stroke-width:10.25629997;stroke-opacity:1"
       inkscape:connector-curvature="0"
       fill="#f9f9f9"
       d="m 388.73963,204.32872 c 32.41589,14.06127 54.12276,37.22021 67.92823,67.08131 -1.02863,2.33912 -2.91328,3.78904 -4.24486,5.79637 -8.768,-5.73001 -18.75838,-10.4348 -30.14374,-13.94182 -10.49765,-14.36982 -20.3753,-29.26056 -35.58984,-39.62899 0.84897,-6.26752 1.99385,-12.21983 2.05021,-19.30687 z"
       id="path176" />
    <path
       style="clip-rule:evenodd;fill:#ffffff;fill-opacity:1;fill-rule:evenodd;stroke:url(#linearGradient4382);stroke-width:10.25629997;stroke-opacity:1"
       inkscape:connector-curvature="0"
       fill="#f9f9f9"
       d="m 291.83015,316.00924 c -15.57033,-5.22901 -31.44362,-10.20586 -48.78235,-13.93186 -3.0119,-11.30409 -4.76269,-22.71103 -5.37564,-35.83996 -0.20431,-4.1706 -0.90533,-9.68827 0.24307,-13.38773 1.63806,-5.28209 15.18284,-16.17476 19.73417,-19.82777 8.86311,-7.11026 16.47919,-10.5476 25.27185,-13.5503 6.65438,-2.26613 21.98869,1.06836 29.73511,3.30131 8.33118,2.40548 15.41885,5.89923 21.04813,9.80771 1.73317,10.71018 2.55396,21.85833 3.53327,33.90231 0.30295,3.67955 1.57817,8.69621 0.83488,11.59274 -0.93704,3.6331 -8.00005,6.81496 -11.81514,9.58541 -12.09343,8.79575 -24.32424,18.74282 -34.42735,28.34814 z"
       id="path178" />
    <path
       inkscape:connector-curvature="0"
       style="clip-rule:evenodd;fill:#000000;fill-opacity:0;fill-rule:evenodd;stroke:#d2d2d2;stroke-width:10.25629997;stroke-opacity:1"
       fill="#666"
       d="m 465.32313,336.51386 c -0.50375,26.71241 -14.0591,49.00538 -27.6532,65.63802 -2.36373,2.89321 -4.812,5.77646 -7.33073,8.42414 -2.27567,2.37562 -4.44917,5.97554 -8.17971,6.06513 -3.59316,-3.28804 1.01101,-7.024 2.48702,-9.58542 3.70236,-6.42677 7.68301,-13.53039 10.48708,-21.20138 1.37385,-3.74591 1.22942,-8.71944 3.1352,-12.32268 1.35624,-2.56805 5.38621,-4.70146 7.77108,-7.47191 6.67904,-7.79375 13.60467,-19.38649 17.82486,-29.62885 0.48613,0.0299 0.96874,0.0531 1.4584,0.083 z"
       id="path186" />
    <path
       style="clip-rule:evenodd;fill:none;fill-rule:evenodd;stroke:#000000;stroke-width:8.85247707;stroke-miterlimit:4;stroke-dasharray:none;stroke-opacity:1"
       d="m 442.70674,355.5127 c -1.03461,1.38792 -2.0977,2.64534 -3.1713,3.73243 -5.94673,-4.39054 -12.20183,-8.435 -18.84697,-12.02233 -0.0878,-12.40457 -1.56224,-22.90312 -3.44919,-33.67543 -0.51461,-2.93651 -2.09116,-7.89264 -1.85835,-10.19122 0.30632,-3.01914 5.86301,-10.55537 7.36398,-13.18195 3.20412,-5.60181 5.48112,-9.88903 7.98071,-14.22276 v 0 c 1.84506,0.6548 3.60989,1.40157 5.29543,2.23911"
       id="path873"
       inkscape:connector-curvature="0" />
    <path
       style="clip-rule:evenodd;fill:none;fill-rule:evenodd;stroke:none;stroke-width:12.39999962;stroke-miterlimit:4;stroke-dasharray:none;stroke-opacity:1"
       d="m 436.73713,275.41457 c 8.02123,2.62813 15.00139,6.04213 20.9739,10.21413 2.61032,6.66837 5.93223,14.12402 7.94721,22.02032 1.98328,7.77585 4.70985,17.54634 2.80407,25.89796 -1.27169,5.57264 -6.98199,14.41191 -10.50821,19.17671 -2.88435,3.8889 -6.19005,7.5487 -9.68418,10.63949"
       id="path182"
       inkscape:connector-curvature="0" />
    <path
       style="clip-rule:evenodd;fill:#2db71f;fill-opacity:1;fill-rule:evenodd;stroke:none;stroke-width:7.55905533;stroke-miterlimit:4;stroke-dasharray:none;stroke-opacity:1"
       inkscape:connector-curvature="0"
       fill="#f9f9f9"
       d="m 215.43406,345.98162 c 7.00125,16.25182 16.89759,29.8335 29.82458,40.61262 -0.56938,13.44001 3.71451,24.57329 6.69396,33.38444 -15.35815,1.95873 -22.40759,-5.51889 -29.91194,-14.03132 -4.34114,-4.92759 -7.56761,-9.23615 -11.01702,-14.30541 -6.41078,-9.43019 -14.02659,-23.07654 -15.90041,-33.86798 -0.71097,-4.10529 0.25004,-9.35627 -0.20787,-12.45141 6.07035,0.92701 14.95447,1.74929 20.5187,0.65906 z"
       id="path188" />
    <path
       style="clip-rule:evenodd;fill:#000000;fill-opacity:0;fill-rule:evenodd;stroke:#000000;stroke-width:10.4305191;stroke-miterlimit:4;stroke-dasharray:none;stroke-opacity:1"
       inkscape:connector-curvature="0"
       fill="#666"
       d="m 343.59258,296.87172 c 12.55585,3.05328 22.93579,8.27666 33.08207,13.72675 1.93367,8.74657 4.30033,18.14725 5.22429,28.57986 0.29155,3.30831 1.02472,7.9933 0.38372,10.87656 -0.56164,2.51959 -3.90588,5.12421 -6.01316,7.21404 -6.76564,6.72286 -13.19256,13.11986 -21.14365,17.86626 -12.59015,-3.23038 -23.81473,-7.82328 -33.67804,-13.76453 -1.6721,-9.1244 -2.99264,-18.5298 -4.32818,-28.52557 -0.38802,-2.90215 -1.75145,-6.82912 -1.35485,-9.28735 0.34516,-2.11579 3.95304,-5.48549 6.02818,-7.54462 6.99072,-6.94247 15.06186,-13.31349 21.79962,-19.1414 z"
       id="path184" />
    <path
       style="clip-rule:evenodd;fill:#000000;fill-opacity:0;fill-rule:evenodd;stroke:#d2d2d2;stroke-width:10.25629997;stroke-opacity:1"
       inkscape:connector-curvature="0"
       fill="#ccc"
       d="m 319.16631,452.27539 c -0.46148,-1.36365 -0.26068,-3.28804 -0.72568,-4.65169 19.91735,-2.41543 36.80517,-7.99614 48.16235,-19.36327 21.60472,0.48442 38.59118,-3.84876 51.6921,-12.253 6.22109,2.4851 -2.11362,7.74729 -6.47824,10.76658 -22.98562,15.90602 -54.65117,27.54189 -92.65053,25.50138 z"
       id="path192" />
    <path
       style="clip-rule:evenodd;fill:#e98d16;fill-opacity:1;fill-rule:evenodd;stroke:none;stroke-width:7.55905533;stroke-miterlimit:4;stroke-dasharray:none;stroke-opacity:1"
       inkscape:connector-curvature="0"
       fill="#f2f2f2"
       d="m 300.89794,378.71581 c 16.91953,8.03927 34.81132,15.25238 56.32797,19.38649 1.81771,5.38163 2.59271,11.03533 3.94895,17.28957 1.12374,5.17924 4.56542,12.39899 3.46633,17.26635 -1.20476,5.31196 -13.61523,10.70687 -19.36076,12.91659 -8.10925,3.12546 -17.90588,5.57739 -26.304,5.64375 -21.82312,0.17916 -41.37763,-11.86813 -54.859,-19.3135 -5.2453,-10.18595 -8.63766,-21.95123 -8.78562,-36.46704 16.05647,-4.6716 31.18999,-10.30208 45.56613,-16.72221 z"
       id="path190" />
    <path
       style="fill:#596d00;fill-opacity:0;stroke-width:0.33270311"
       d="m 350.26866,383.64287 c -10.40073,-2.67837 -20.85288,-6.06834 -29.39858,-9.53492 -6.20233,-2.51598 -14.01917,-6.13994 -14.01917,-6.49941 0,-0.16523 -0.60193,-3.47827 -1.33761,-7.36232 -0.73568,-3.88404 -2.23711,-12.49752 -3.33651,-19.14106 -1.0994,-6.64353 -2.44379,-13.90102 -2.98753,-16.12775 -0.54375,-2.22673 -0.98864,-4.40308 -0.98864,-4.83633 0,-2.08433 11.84179,-11.84725 32.63943,-26.90947 l 9.18386,-6.6512 4.45307,1.11805 c 8.79534,2.20828 16.88116,4.86531 26.41928,8.68149 5.92187,2.36933 17.12816,7.25883 17.50868,7.63935 0.63535,0.63535 5.33562,19.89664 6.59854,27.04026 1.0023,5.66941 2.34339,17.40443 2.33772,20.45597 -0.005,2.52861 -0.0608,2.73048 -1.08128,3.8931 -2.01121,2.29125 -20.76391,17.62694 -27.17211,22.22098 -3.24344,2.32522 -11.83438,7.67245 -12.29195,7.65084 -0.11321,-0.005 -3.05045,-0.74226 -6.5272,-1.63758 z"
       id="path4362"
       inkscape:connector-curvature="0" />
    <path
       style="fill:#596d00;fill-opacity:0;stroke-width:0.33270311"
       d="m 205.50143,339.70235 c -1.30367,-0.13741 -3.4266,-0.43861 -4.71762,-0.66933 l -2.34732,-0.41949 -0.84744,-1.88834 c -5.55981,-12.38891 -2.2709,-41.48346 7.01055,-62.01715 2.01831,-4.46519 3.29703,-6.90119 7.05545,-13.44081 1.91267,-3.32803 2.74298,-4.47474 3.36979,-4.6539 1.13879,-0.32548 10.64086,-0.30784 13.33878,0.0248 l 2.19323,0.27039 0.21111,8.04719 c 0.3337,12.72018 1.58032,23.55003 3.66947,31.87794 l 1.06118,4.23014 -0.77623,0.9412 c -1.90908,2.3148 -7.19614,9.9177 -9.2149,13.25121 -4.10471,6.77798 -8.36597,16.47406 -9.84876,22.40991 -0.33461,1.3395 -0.63936,1.85612 -1.22662,2.07939 -0.90154,0.34277 -5.47948,0.32067 -8.93067,-0.0431 z"
       id="path4364"
       inkscape:connector-curvature="0" />
    <path
       style="fill:#596d00;fill-opacity:0;stroke-width:0.33270311"
       d="m 313.82051,439.86041 c -6.03632,-0.58265 -12.45579,-2.13449 -19.44597,-4.70087 -3.88161,-1.4251 -15.74138,-7.14429 -22.12476,-10.66932 l -3.82609,-2.11285 -1.23589,-2.49067 c -3.07373,-6.19446 -6.23846,-18.8524 -6.2375,-24.94814 l 2.3e-4,-1.49716 6.56456,-2.11195 c 8.58083,-2.76063 18.58373,-6.44399 26.78444,-9.86281 l 6.59841,-2.75083 5.55493,2.48981 c 15.00463,6.72534 30.5509,12.05516 43.14932,14.79313 l 3.51186,0.76322 0.30933,1.16769 c 0.17013,0.64223 0.91877,4.15663 1.66363,7.80979 0.74485,3.65315 1.94073,8.54608 2.6575,10.87317 0.71677,2.3271 1.4724,5.16407 1.67918,6.30438 0.33914,1.87024 0.31364,2.15759 -0.26035,2.934 -1.16236,1.57229 -3.85318,3.35494 -8.56197,5.67228 -12.5763,6.18917 -26.45114,9.33419 -36.78086,8.33713 z"
       id="path4366"
       inkscape:connector-curvature="0" />
    <path
       style="fill:#596d00;fill-opacity:0;stroke-width:0.33270311"
       d="m 250.79043,380.35717 c -6.23604,-5.61769 -11.57723,-11.57574 -16.2768,-18.15661 -4.20589,-5.88958 -9.67874,-15.51068 -9.57261,-16.82836 0.0371,-0.46099 0.37591,-2.03589 0.75284,-3.49979 2.49074,-9.67336 7.96383,-20.50453 15.31496,-30.30805 1.35418,-1.80594 2.55801,-3.41808 2.67518,-3.58254 0.46329,-0.65027 21.18938,4.94447 36.44353,9.83746 l 7.3787,2.36683 0.2205,1.69381 c 0.12128,0.9316 0.65085,3.49042 1.17682,5.68626 0.52597,2.19584 1.71313,8.63364 2.63813,14.30623 0.925,5.67259 2.35252,13.94483 3.17227,18.38275 0.81975,4.43791 1.49046,8.22649 1.49046,8.41906 0,0.96042 -21.92881,9.43405 -34.74609,13.42643 -3.282,1.02229 -6.12661,1.85744 -6.32136,1.85589 -0.19475,-0.002 -2.15069,-1.62127 -4.34653,-3.59937 z"
       id="path4368"
       inkscape:connector-curvature="0" />
    <path
       style="fill:#6d0000;fill-opacity:0;stroke-width:0.33270311"
       d="m 205.50143,339.70235 c -1.30367,-0.13741 -3.4266,-0.43861 -4.71762,-0.66933 l -2.34732,-0.41949 -0.84744,-1.88834 c -5.55981,-12.38891 -2.2709,-41.48346 7.01055,-62.01715 2.01831,-4.46519 3.29703,-6.90119 7.05545,-13.44081 1.91267,-3.32803 2.74298,-4.47474 3.36979,-4.6539 1.13879,-0.32548 10.64086,-0.30784 13.33878,0.0248 l 2.19323,0.27039 0.21111,8.04719 c 0.3337,12.72018 1.58032,23.55003 3.66947,31.87794 l 1.06118,4.23014 -0.77623,0.9412 c -1.90908,2.3148 -7.19614,9.9177 -9.2149,13.25121 -4.10471,6.77798 -8.36597,16.47406 -9.84876,22.40991 -0.33461,1.3395 -0.63936,1.85612 -1.22662,2.07939 -0.90154,0.34277 -5.47948,0.32067 -8.93067,-0.0431 z"
       id="path4374"
       inkscape:connector-curvature="0" />
    <path
       style="fill:#f7f423;fill-opacity:1;stroke:none;stroke-width:7.55905533;stroke-miterlimit:4;stroke-dasharray:none;stroke-opacity:1"
       d="m 205.50143,339.70235 c -1.30367,-0.13741 -3.4266,-0.43861 -4.71762,-0.66933 l -2.34732,-0.41949 -0.84744,-1.88834 c -5.55981,-12.38891 -2.2709,-41.48346 7.01055,-62.01715 2.01831,-4.46519 3.29703,-6.90119 7.05545,-13.44081 1.91267,-3.32803 2.74298,-4.47474 3.36979,-4.6539 1.13879,-0.32548 10.64086,-0.30784 13.33878,0.0248 l 2.19323,0.27039 0.21111,8.04719 c 0.3337,12.72018 1.58032,23.55003 3.66947,31.87794 l 1.06118,4.23014 -0.77623,0.9412 c -1.90908,2.3148 -7.19614,9.9177 -9.2149,13.25121 -4.10471,6.77798 -8.36597,16.47406 -9.84876,22.40991 -0.33461,1.3395 -0.63936,1.85612 -1.22662,2.07939 -0.90154,0.34277 -5.47948,0.32067 -8.93067,-0.0431 z"
       id="path4376"
       inkscape:connector-curvature="0" />
    <path
       style="fill:#174fe3;fill-opacity:1;stroke:none;stroke-width:7.55905533;stroke-miterlimit:4;stroke-dasharray:none;stroke-opacity:1"
       d="m 232.68877,246.65054 c -1.17256,-0.24309 -4.46104,-0.62649 -7.30774,-0.85201 l -5.17582,-0.41002 2.45777,-2.82798 c 1.35178,-1.55539 4.34083,-4.70741 6.64233,-7.0045 14.23198,-14.20468 30.34121,-24.61668 48.57453,-31.39553 l 3.02022,-1.12287 -0.0372,2.71042 c -0.0205,1.49072 -0.13277,4.10591 -0.24953,5.81153 l -0.21228,3.10111 -3.49339,1.30886 c -4.9926,1.87056 -12.23909,5.53467 -16.30245,8.24317 -7.8056,5.20292 -21.4097,17.12439 -25.13687,22.02779 -0.6456,0.84934 -0.65429,0.85062 -2.77954,0.41003 z"
       id="path4378"
       inkscape:connector-curvature="0" />
    <path
       style="fill:#e7451a;fill-opacity:1;stroke:none;stroke-width:3.77952766;stroke-miterlimit:4;stroke-dasharray:none;stroke-opacity:1"
       d="m 331.63729,223.08147 c -10.61201,-5.64408 -21.14277,-8.63397 -38.67674,-10.98112 l -1.41399,-0.18928 v -5.43277 -5.43276 l 2.74407,-0.74043 c 10.9937,-2.96642 22.91804,-4.22578 36.68125,-3.87401 18.17698,0.46459 34.91993,3.5775 46.88251,8.71657 l 2.85661,1.22718 v 4.23923 c 0,2.33157 -0.092,4.91071 -0.20453,5.73143 l -0.20453,1.4922 -6.20001,0.4052 c -14.05713,0.91869 -26.62931,3.0972 -35.61933,6.1721 -1.3587,0.46473 -2.55643,0.83256 -2.66162,0.81741 -0.10519,-0.0151 -1.98785,-0.98308 -4.18369,-2.15095 z"
       id="path4380"
       inkscape:connector-curvature="0" />
    <flowRoot
       xml:space="preserve"
       id="flowRoot4382"
       style="font-style:normal;font-variant:normal;font-weight:normal;font-stretch:normal;font-size:40px;font-family:Comfortaa;-inkscape-font-specification:Comfortaa;fill:#000000;fill-opacity:1;stroke:none"
       transform="matrix(1.3460112,0,0,1.2022835,152.6559,168.9626)"><flowRegion
         id="flowRegion4384"
         style="font-style:normal;font-variant:normal;font-weight:normal;font-stretch:normal;font-family:Comfortaa;-inkscape-font-specification:Comfortaa"><rect
           id="rect4386"
           width="35.266529"
           height="40.922485"
           x="49.572765"
           y="140.73341"
           style="-inkscape-font-specification:Comfortaa;font-family:Comfortaa;font-weight:normal;font-style:normal;font-stretch:normal;font-variant:normal;" /></flowRegion><flowPara
         id="flowPara4388">AAsddsf</flowPara></flowRoot>    <text
       xml:space="preserve"
       style="font-style:normal;font-variant:normal;font-weight:bold;font-stretch:normal;font-size:71.70021057px;font-family:Padauk;-inkscape-font-specification:'Padauk Bold';fill:#000000;fill-opacity:1;stroke:none;stroke-width:1.79250538"
       x="234.6259"
       y="382.71011"
       id="text4392"
       transform="matrix(0.82197033,-0.28679153,0.16213388,1.1600192,0,0)"><tspan
         sodipodi:role="line"
         id="tspan4390"
         x="234.6259"
         y="382.71011"
         style="font-style:normal;font-variant:normal;font-weight:bold;font-stretch:normal;font-family:Padauk;-inkscape-font-specification:'Padauk Bold';stroke-width:1.79250538">A</tspan></text>
    <rect
       style="fill:#000000;fill-opacity:0;stroke:none;stroke-opacity:1"
       id="rect845"
       width="48.907356"
       height="45.580326"
       x="318.52747"
       y="349.45804" />
    <rect
       style="fill:#000000;fill-opacity:0;stroke:none;stroke-opacity:1"
       id="rect847"
       width="50.238171"
       height="62.548187"
       x="317.19666"
       y="340.47507" />
    <rect
       style="fill:#ffffff;fill-opacity:1;stroke:none;stroke-width:0.70148522;stroke-opacity:1"
       id="rect849"
       width="35.763157"
       height="37.144215"
       x="437.30914"
       y="231.20282"
       transform="matrix(0.96004253,0.27985414,-0.35415197,0.93518789,0,0)" />
    <rect
       style="fill:#ffffff;fill-opacity:1;stroke:none;stroke-width:0.75492692;stroke-opacity:1"
       id="rect851"
       width="42.452274"
       height="35.062477"
       x="441.74637"
       y="-28.092831"
       transform="matrix(0.71646848,0.69761947,-0.82491428,0.56525785,0,0)" />
    <text
       xml:space="preserve"
       style="font-style:normal;font-weight:normal;font-size:40px;font-family:sans-serif;fill:#000000;fill-opacity:1;stroke:none"
       x="116.57667"
       y="346.13101"
       id="text876"><tspan
         sodipodi:role="line"
         id="tspan874"
         x="116.57667"
         y="381.52164" /></text>
    <text
       xml:space="preserve"
       style="font-style:normal;font-weight:normal;font-size:40px;font-family:sans-serif;fill:#000000;fill-opacity:1;stroke:none"
       x="142.04483"
       y="318.27426"
       id="text880"><tspan
         sodipodi:role="line"
         id="tspan878"
         x="142.04483"
         y="353.66489" /></text>
    <ellipse
       style="fill:#000000;fill-opacity:1;stroke:#000000;stroke-width:14.68937111;stroke-miterlimit:4;stroke-dasharray:none;stroke-opacity:1"
       id="path882"
       cx="493.25336"
       cy="866.32501"
       rx="1.1012707"
       ry="3.1736953"
       transform="matrix(0.22128908,-0.97520826,0.38353552,0.92352613,0,0)" />
    <text
       xml:space="preserve"
       style="font-style:normal;font-weight:normal;font-size:40px;font-family:sans-serif;fill:#000000;fill-opacity:1;stroke:none"
       x="136.20616"
       y="282.91742"
       id="text886"><tspan
         sodipodi:role="line"
         id="tspan884"
         x="136.20616"
         y="318.30804" /></text>
    <ellipse
       style="fill:#000000;fill-opacity:0;stroke:none;stroke-width:12.39999962;stroke-miterlimit:4;stroke-dasharray:none"
       id="path875"
       cx="186.97885"
       cy="185.11902"
       rx="3.5288494"
       ry="0.23525663" />
  </g>
  <metadata
     id="metadata3533">
    <rdf:RDF>
      <cc:Work>
        <dc:format>image/svg+xml</dc:format>
        <dc:type
           rdf:resource="http://purl.org/dc/dcmitype/StillImage" />
        <cc:license
           rdf:resource="http://creativecommons.org/publicdomain/zero/1.0/" />
        <dc:publisher>
          <cc:Agent
             rdf:about="http://openclipart.org/">
            <dc:title>Openclipart</dc:title>
          </cc:Agent>
        </dc:publisher>
        <dc:title></dc:title>
        <dc:date>2010-09-10T17:07:55</dc:date>
        <dc:description>a very simple soccer ball. useful for icons etc</dc:description>
        <dc:source>http://openclipart.org/detail/84241/soccer-ball-by-wildchief</dc:source>
        <dc:creator>
          <cc:Agent>
            <dc:title>wildchief</dc:title>
          </cc:Agent>
        </dc:creator>
        <dc:subject>
          <rdf:Bag>
            <rdf:li>ball</rdf:li>
            <rdf:li>clip art</rdf:li>
            <rdf:li>clipart</rdf:li>
            <rdf:li>football</rdf:li>
            <rdf:li>soccer</rdf:li>
            <rdf:li>sports</rdf:li>
          </rdf:Bag>
        </dc:subject>
      </cc:Work>
      <cc:License
         rdf:about="http://creativecommons.org/publicdomain/zero/1.0/">
        <cc:permits
           rdf:resource="http://creativecommons.org/ns#Reproduction" />
        <cc:permits
           rdf:resource="http://creativecommons.org/ns#Distribution" />
        <cc:permits
           rdf:resource="http://creativecommons.org/ns#DerivativeWorks" />
      </cc:License>
    </rdf:RDF>
  </metadata>
</svg>
