<svg id="svg" xmlns="http://www.w3.org/2000/svg" xmlns:xlink="http://www.w3.org/1999/xlink" width="400" height="400" viewBox="0, 0, 400,400"><g id="svgg"><path id="path0" d="M181.200 9.460 C 174.362 10.268,161.534 12.136,159.600 12.606 C 159.050 12.740,157.790 13.030,156.800 13.250 C 154.228 13.822,149.233 15.098,147.600 15.600 C 147.050 15.769,145.790 16.136,144.800 16.416 C 141.736 17.282,132.275 20.428,130.800 21.071 C 130.030 21.407,129.040 21.819,128.600 21.987 C 128.160 22.155,127.350 22.473,126.800 22.693 C 126.250 22.913,125.350 23.273,124.800 23.493 C 122.242 24.516,121.685 24.751,120.000 25.515 C 112.891 28.739,108.704 30.843,104.068 33.521 C 101.135 35.214,98.391 36.796,97.971 37.036 C 97.550 37.275,96.875 37.770,96.471 38.136 C 96.067 38.501,95.603 38.800,95.439 38.800 C 95.275 38.800,93.253 40.105,90.945 41.700 C 88.637 43.295,86.445 44.780,86.074 45.000 C 85.703 45.220,84.344 46.210,83.054 47.200 C 81.764 48.190,80.322 49.270,79.850 49.600 C 79.379 49.930,78.566 50.560,78.044 51.000 C 72.104 56.011,69.843 58.013,65.293 62.294 C 62.374 65.040,57.819 69.707,55.170 72.666 C 52.522 75.624,50.005 78.395,49.577 78.823 C 49.150 79.250,48.798 79.735,48.797 79.900 C 48.795 80.065,48.210 80.837,47.497 81.616 C 46.783 82.395,46.020 83.322,45.800 83.677 C 45.580 84.031,43.906 86.364,42.081 88.861 C 34.070 99.817,24.520 116.628,20.358 127.100 C 19.443 129.402,19.226 129.921,18.440 131.696 C 17.978 132.738,17.600 133.776,17.600 134.001 C 17.600 134.226,17.428 134.723,17.218 135.105 C 16.844 135.784,14.589 142.600,12.885 148.200 C 12.416 149.740,11.644 152.710,11.169 154.800 C 10.693 156.890,10.141 159.320,9.942 160.200 C 9.471 162.275,8.814 166.122,8.539 168.400 C 8.420 169.390,8.160 170.371,7.961 170.580 C 7.763 170.789,7.600 172.148,7.600 173.600 C 7.600 175.052,7.433 176.411,7.229 176.620 C 5.945 177.936,5.945 224.464,7.229 225.780 C 7.433 225.989,7.600 227.348,7.600 228.800 C 7.600 230.252,7.763 231.611,7.961 231.820 C 8.160 232.029,8.420 233.010,8.539 234.000 C 8.807 236.225,9.484 240.326,9.760 241.400 C 9.873 241.840,10.432 244.180,11.003 246.600 C 12.469 252.820,13.822 257.623,15.172 261.400 C 15.566 262.500,16.108 264.120,16.377 265.000 C 16.647 265.880,17.212 267.363,17.634 268.296 C 18.055 269.228,18.400 270.139,18.400 270.321 C 18.400 270.502,18.760 271.395,19.200 272.306 C 19.640 273.216,20.000 274.152,20.000 274.386 C 20.000 274.620,20.175 275.123,20.389 275.505 C 20.604 275.887,22.411 279.620,24.406 283.800 C 29.179 293.801,31.804 298.464,37.625 307.277 C 38.161 308.090,40.130 310.853,42.000 313.418 C 43.870 315.983,45.580 318.367,45.800 318.716 C 46.020 319.065,46.671 319.902,47.246 320.575 C 47.821 321.249,49.981 323.775,52.046 326.189 C 57.019 332.003,66.294 341.287,72.000 346.163 C 74.530 348.325,77.135 350.568,77.789 351.147 C 78.443 351.726,79.368 352.470,79.843 352.800 C 80.319 353.130,81.764 354.210,83.054 355.200 C 84.344 356.190,85.703 357.180,86.074 357.400 C 86.445 357.620,88.637 359.105,90.945 360.700 C 93.253 362.295,95.312 363.600,95.521 363.600 C 95.731 363.600,96.129 363.874,96.407 364.209 C 97.504 365.530,113.758 374.286,119.000 376.379 C 119.440 376.555,120.700 377.104,121.800 377.600 C 122.900 378.096,124.160 378.634,124.600 378.797 C 125.705 379.206,127.084 379.781,129.200 380.715 C 131.018 381.518,141.474 385.051,144.800 385.987 C 145.790 386.265,147.050 386.631,147.600 386.800 C 149.310 387.325,151.661 387.930,155.400 388.804 C 157.380 389.268,159.360 389.734,159.800 389.840 C 160.809 390.084,166.923 391.038,172.400 391.805 C 174.710 392.129,177.804 392.395,179.276 392.397 C 180.748 392.399,182.064 392.580,182.200 392.800 C 182.539 393.348,216.661 393.348,217.000 392.800 C 217.136 392.580,218.632 392.394,220.324 392.387 C 224.741 392.369,236.644 390.553,244.100 388.761 C 244.925 388.562,246.275 388.237,247.100 388.039 C 249.458 387.471,253.303 386.418,254.400 386.041 C 254.950 385.852,256.750 385.293,258.400 384.801 C 260.050 384.308,261.760 383.755,262.200 383.573 C 262.640 383.390,263.810 382.978,264.800 382.656 C 266.709 382.037,270.080 380.738,272.400 379.728 C 273.170 379.393,274.160 378.980,274.600 378.810 C 275.040 378.640,276.210 378.133,277.200 377.683 C 278.190 377.232,279.810 376.541,280.800 376.147 C 285.350 374.334,301.813 365.390,302.808 364.190 C 303.078 363.865,303.464 363.600,303.667 363.600 C 303.870 363.600,305.400 362.655,307.068 361.500 C 308.735 360.345,310.436 359.204,310.847 358.964 C 311.258 358.725,311.925 358.230,312.329 357.864 C 312.733 357.499,313.229 357.197,313.431 357.194 C 313.634 357.190,314.409 356.650,315.154 355.994 C 315.899 355.337,316.621 354.800,316.758 354.800 C 316.896 354.800,317.458 354.395,318.008 353.900 C 318.558 353.405,320.087 352.136,321.404 351.079 C 331.669 342.848,342.937 331.601,351.538 321.000 C 352.430 319.900,353.709 318.348,354.380 317.551 C 355.051 316.755,355.600 315.922,355.600 315.700 C 355.600 315.479,355.849 315.091,356.154 314.838 C 356.639 314.436,359.876 309.913,361.003 308.062 C 361.225 307.698,362.502 305.780,363.840 303.800 C 365.178 301.820,366.526 299.721,366.836 299.136 C 367.146 298.550,368.315 296.480,369.433 294.536 C 372.024 290.031,375.810 282.185,379.727 273.200 C 381.325 269.535,384.568 260.404,385.622 256.600 C 386.500 253.434,386.877 252.089,387.249 250.800 C 387.471 250.030,387.809 248.770,388.000 248.000 C 388.191 247.230,388.541 245.880,388.779 245.000 C 389.717 241.528,390.233 238.727,391.650 229.400 C 393.456 217.514,393.435 183.866,391.615 172.600 C 391.366 171.060,390.903 168.180,390.587 166.200 C 389.982 162.417,389.497 160.057,388.779 157.400 C 388.541 156.520,388.191 155.170,388.000 154.400 C 387.655 153.007,387.097 150.979,386.377 148.500 C 386.170 147.785,385.840 146.615,385.645 145.900 C 384.525 141.800,380.933 131.805,378.925 127.200 C 375.638 119.661,368.775 106.071,367.411 104.400 C 367.142 104.070,366.826 103.528,366.710 103.195 C 366.594 102.863,365.127 100.523,363.450 97.995 C 359.522 92.073,359.353 91.828,357.317 89.096 C 356.373 87.828,355.600 86.641,355.600 86.458 C 355.600 86.274,355.224 85.784,354.765 85.369 C 354.306 84.953,353.425 83.864,352.807 82.948 C 352.189 82.032,351.389 80.950,351.029 80.542 C 342.931 71.358,340.728 69.005,334.895 63.300 C 331.689 60.165,328.989 57.600,328.896 57.600 C 328.802 57.600,326.838 55.935,324.531 53.900 C 322.224 51.865,320.043 50.035,319.684 49.833 C 319.325 49.631,318.484 48.969,317.816 48.361 C 316.475 47.143,313.707 45.200,313.314 45.200 C 313.176 45.200,312.733 44.901,312.329 44.536 C 311.925 44.170,311.258 43.675,310.847 43.436 C 310.436 43.196,308.735 42.055,307.068 40.900 C 305.400 39.745,303.870 38.800,303.667 38.800 C 303.464 38.800,303.078 38.535,302.808 38.210 C 301.778 36.969,285.480 28.113,280.800 26.252 C 279.810 25.858,278.190 25.168,277.200 24.717 C 276.210 24.267,274.995 23.741,274.500 23.549 C 272.847 22.908,271.812 22.487,270.300 21.841 C 267.140 20.491,266.149 20.108,264.600 19.635 C 263.720 19.367,262.640 19.000,262.200 18.819 C 261.760 18.639,260.590 18.259,259.600 17.976 C 258.610 17.693,257.629 17.312,257.420 17.130 C 257.211 16.949,256.671 16.797,256.220 16.794 C 255.769 16.791,254.590 16.497,253.600 16.141 C 252.610 15.785,251.170 15.346,250.400 15.165 C 249.630 14.984,248.280 14.657,247.400 14.438 C 245.926 14.070,244.485 13.734,240.200 12.756 C 238.590 12.389,235.557 11.886,225.600 10.335 C 220.452 9.534,186.282 8.860,181.200 9.460 M191.390 18.651 C 191.750 18.790,193.378 21.683,195.007 25.081 C 198.851 33.099,198.764 33.096,202.600 25.336 C 206.364 17.722,205.710 18.262,210.784 18.582 C 244.088 20.683,277.476 31.970,303.776 50.020 C 309.179 53.728,309.764 54.150,313.434 56.990 C 366.975 98.425,393.601 165.887,382.351 231.600 C 365.226 331.625,270.077 398.927,169.200 382.369 C 155.435 380.109,136.313 374.607,127.000 370.226 C 126.340 369.915,124.323 369.011,122.517 368.216 C 75.983 347.730,40.873 308.447,22.936 256.800 C 22.822 256.470,22.401 255.030,22.001 253.600 C 21.602 252.170,20.920 249.740,20.486 248.200 C 18.142 239.876,16.424 230.511,15.630 221.742 C 15.448 219.730,15.178 217.887,15.029 217.646 C 14.586 216.930,14.739 186.362,15.193 184.803 C 15.417 184.034,15.600 182.515,15.600 181.427 C 15.600 180.339,15.772 178.447,15.983 177.224 C 16.194 176.001,16.566 173.740,16.812 172.200 C 29.434 92.905,94.542 30.424,175.600 19.819 C 184.077 18.710,190.336 18.247,191.390 18.651 M185.193 125.839 C 176.067 132.139,167.790 137.660,166.800 138.109 C 140.240 150.152,122.213 180.835,124.742 209.696 C 129.868 268.209,199.007 298.770,247.447 263.935 C 291.808 232.035,288.114 167.914,240.315 140.133 C 237.861 138.707,228.424 132.421,219.345 126.164 C 210.265 119.908,202.600 114.698,202.311 114.587 C 202.022 114.477,194.319 119.540,185.193 125.839 M228.838 186.214 C 236.086 188.771,235.012 198.885,227.426 199.514 C 217.908 200.304,217.363 187.196,226.850 185.641 C 226.987 185.618,227.882 185.876,228.838 186.214 M205.606 186.802 C 216.160 189.644,217.279 217.095,207.054 222.355 C 200.223 225.868,193.111 222.133,190.763 213.800 C 189.875 210.645,189.986 198.500,190.933 195.400 C 193.160 188.101,198.598 184.915,205.606 186.802 M224.789 189.082 C 221.207 191.550,222.590 196.982,226.800 196.982 C 228.640 196.982,230.608 195.383,231.008 193.563 C 231.732 190.268,227.496 187.216,224.789 189.082 M199.400 190.965 C 195.026 192.909,192.972 204.649,195.449 213.540 C 197.109 219.495,203.489 221.238,206.962 216.685 C 209.985 212.722,210.107 197.761,207.153 193.396 C 205.440 190.865,202.030 189.796,199.400 190.965 " stroke="none" fill="#f61c1c" fill-rule="evenodd"></path><path id="path1" d="M186.000 19.466 C 76.605 28.214,-0.467 125.952,17.843 232.713 C 35.476 335.528,137.397 402.647,240.800 379.541 C 333.177 358.899,394.872 271.191,382.567 178.000 C 378.475 147.009,368.254 121.654,348.633 93.818 C 330.479 68.063,299.463 44.299,267.800 31.883 C 249.704 24.788,227.057 19.878,210.672 19.500 L 206.345 19.400 205.196 21.600 C 204.564 22.810,203.233 25.558,202.237 27.707 C 199.287 34.076,198.426 33.835,194.374 25.511 L 191.400 19.400 189.600 19.361 C 188.610 19.340,186.990 19.387,186.000 19.466 M192.218 44.231 C 192.668 44.352,193.497 45.204,194.060 46.125 C 194.622 47.046,196.747 50.545,198.780 53.900 C 200.814 57.255,202.640 60.000,202.839 60.000 C 203.041 60.000,203.200 56.687,203.200 52.480 C 203.200 44.047,203.215 44.000,205.906 44.000 C 209.412 44.000,209.200 43.102,209.200 57.934 C 209.200 72.819,209.399 72.000,205.790 72.000 C 202.734 72.000,202.990 72.273,197.366 63.000 L 193.000 55.800 192.800 63.800 L 192.600 71.800 190.266 71.921 C 186.592 72.111,186.800 72.950,186.800 57.971 C 186.800 45.887,186.856 44.807,187.500 44.432 C 188.259 43.990,190.902 43.877,192.218 44.231 M219.951 125.733 C 229.328 132.179,238.808 138.489,241.018 139.755 C 284.440 164.642,292.452 224.056,256.821 256.958 C 255.843 257.861,254.583 259.069,254.021 259.642 C 251.987 261.718,242.157 268.800,241.311 268.800 C 241.132 268.800,240.359 269.214,239.593 269.720 C 221.914 281.401,188.109 282.106,166.416 271.247 C 112.222 244.116,109.327 171.182,161.222 140.368 C 163.475 139.030,165.716 137.784,166.202 137.599 C 167.306 137.180,169.692 135.621,177.800 130.025 C 181.320 127.595,187.156 123.580,190.768 121.104 C 194.380 118.627,198.325 115.917,199.534 115.083 C 202.265 113.197,199.979 112.005,219.951 125.733 M53.405 187.813 C 68.860 192.211,67.600 191.658,67.600 194.034 C 67.600 196.467,68.268 196.136,56.797 199.393 C 51.629 200.860,47.040 202.208,46.600 202.388 C 45.580 202.805,45.023 202.607,56.200 205.806 C 68.720 209.389,67.661 208.854,67.518 211.525 C 67.381 214.098,68.526 213.524,57.400 216.602 C 38.132 221.932,39.874 221.735,40.076 218.556 L 40.200 216.600 49.800 214.258 C 60.911 211.547,60.573 211.640,60.322 211.389 C 60.216 211.283,55.646 209.882,50.165 208.275 L 40.200 205.353 40.083 202.715 L 39.965 200.077 42.483 199.254 C 45.642 198.221,56.961 194.981,58.700 194.612 C 60.965 194.132,60.213 193.840,50.500 191.431 C 39.726 188.759,40.000 188.885,40.000 186.618 C 40.000 183.768,38.821 183.663,53.405 187.813 M360.548 193.700 C 360.969 195.273,360.829 211.199,360.386 212.026 C 359.852 213.024,357.012 213.131,356.643 212.167 C 356.509 211.819,356.400 208.302,356.400 204.352 L 356.400 197.169 352.900 197.284 L 349.400 197.400 349.290 204.382 C 349.174 211.792,349.121 211.982,347.180 211.994 C 345.322 212.005,345.200 211.519,345.200 204.120 L 345.200 197.200 341.000 197.200 L 336.800 197.200 336.800 204.920 C 336.800 213.749,336.488 214.530,333.433 213.357 C 332.774 213.104,332.424 193.710,333.067 193.067 C 333.213 192.920,339.402 192.800,346.820 192.800 L 360.307 192.800 360.548 193.700 M206.275 335.335 C 211.203 337.837,213.118 344.000,208.966 344.000 C 207.692 344.000,207.520 343.845,206.651 341.900 C 204.203 336.425,193.600 336.656,193.600 342.184 C 193.600 344.276,194.951 345.139,200.626 346.676 C 209.642 349.118,212.565 353.155,209.229 358.554 C 205.147 365.158,190.482 362.671,190.249 355.335 L 190.200 353.800 192.072 353.679 C 193.941 353.559,193.946 353.562,194.737 355.351 C 196.752 359.906,206.320 359.479,205.919 354.852 C 205.756 352.973,204.612 352.253,199.800 350.999 C 191.570 348.853,189.400 347.058,189.400 342.397 C 189.400 335.424,198.747 331.513,206.275 335.335 " stroke="none" fill="#393f45" fill-rule="evenodd"></path><path id="path2" d="M187.782 45.304 C 187.675 45.581,187.636 51.476,187.694 58.404 L 187.800 71.000 189.892 71.121 L 191.983 71.241 192.092 63.121 C 192.181 56.436,192.300 55.000,192.766 55.000 C 193.078 55.000,195.571 58.653,198.306 63.118 L 203.280 71.236 205.740 71.118 L 208.200 71.000 208.200 58.000 L 208.200 45.000 206.200 45.000 L 204.200 45.000 204.000 53.268 C 203.735 64.229,204.190 64.205,197.811 53.600 C 195.230 49.310,192.935 45.575,192.710 45.300 C 192.162 44.629,188.039 44.632,187.782 45.304 M40.605 185.985 C 40.027 187.807,40.773 188.163,50.277 190.594 C 62.508 193.723,62.000 193.568,62.000 194.164 C 62.000 194.488,61.036 194.892,59.500 195.212 C 55.116 196.127,41.053 200.391,40.727 200.905 C 40.318 201.548,40.322 203.658,40.732 204.304 C 41.038 204.786,59.129 210.381,60.424 210.394 C 63.037 210.420,62.630 212.133,59.907 212.568 C 58.525 212.789,46.495 215.699,42.304 216.826 C 41.215 217.119,40.740 217.498,40.559 218.220 C 40.010 220.409,40.689 220.417,48.298 218.310 C 52.204 217.228,57.900 215.651,60.955 214.806 C 66.509 213.270,67.188 212.899,67.188 211.400 C 67.188 209.850,66.422 209.518,55.762 206.455 C 48.130 204.262,44.970 203.186,44.886 202.751 C 44.793 202.271,47.117 201.457,55.608 198.998 C 67.025 195.691,67.546 195.434,67.029 193.372 C 66.843 192.634,66.318 192.285,64.695 191.823 C 63.543 191.496,57.883 189.871,52.118 188.214 C 40.270 184.807,40.938 184.936,40.605 185.985 M225.305 185.989 C 217.086 187.941,219.010 200.212,227.426 199.514 C 233.421 199.017,235.922 191.818,231.527 187.714 C 230.690 186.932,227.526 185.530,226.850 185.641 C 226.712 185.663,226.017 185.820,225.305 185.989 M198.993 186.621 C 192.695 188.220,190.200 193.379,190.200 204.800 C 190.200 218.208,194.193 224.145,202.793 223.523 C 209.958 223.005,213.542 217.414,213.900 206.200 C 214.360 191.763,208.590 184.184,198.993 186.621 M228.609 189.031 C 232.583 190.917,231.203 196.982,226.800 196.982 C 222.590 196.982,221.207 191.550,224.789 189.082 C 226.018 188.235,226.906 188.223,228.609 189.031 M204.574 191.194 C 211.043 194.353,211.150 215.316,204.714 218.645 C 199.422 221.381,195.236 216.892,194.602 207.800 C 193.711 195.049,197.964 187.967,204.574 191.194 M333.780 193.709 C 333.672 193.988,333.633 198.353,333.692 203.409 L 333.800 212.600 334.800 212.600 L 335.800 212.600 335.909 205.030 C 336.041 195.871,335.729 196.400,341.000 196.400 C 346.232 196.400,345.956 195.975,346.090 204.229 L 346.200 211.000 347.200 211.000 L 348.200 211.000 348.310 204.229 C 348.444 195.957,348.205 196.339,353.160 196.486 L 357.000 196.600 357.109 204.276 C 357.225 212.482,357.352 212.931,359.344 212.166 C 360.321 211.791,360.344 193.818,359.367 193.443 C 358.014 192.924,333.985 193.173,333.780 193.709 M196.200 335.084 C 192.219 336.279,190.004 338.825,190.001 342.206 C 189.998 346.414,192.428 348.445,199.579 350.214 C 204.491 351.429,205.686 351.992,206.322 353.389 C 209.104 359.494,197.409 361.642,194.058 355.642 C 192.211 352.336,189.943 353.977,191.607 357.415 C 195.079 364.588,209.600 362.575,209.600 354.921 C 209.600 350.625,207.636 349.183,198.516 346.785 C 195.020 345.865,193.410 344.776,192.973 343.034 C 191.274 336.264,204.158 334.930,207.344 341.545 C 208.084 343.081,208.405 343.381,209.210 343.289 C 210.632 343.125,210.831 342.747,210.370 341.077 C 209.014 336.167,202.196 333.283,196.200 335.084 " stroke="none" fill="#f2f1f0" fill-rule="evenodd"></path><path id="path3" d="M184.400 18.838 C 99.373 26.165,29.944 89.701,16.812 172.200 C 16.566 173.740,16.194 176.001,15.983 177.224 C 15.772 178.447,15.600 180.339,15.600 181.427 C 15.600 182.515,15.417 184.034,15.193 184.803 C 14.739 186.362,14.586 216.930,15.029 217.646 C 15.178 217.887,15.448 219.730,15.630 221.742 C 16.424 230.511,18.142 239.876,20.486 248.200 C 20.920 249.740,21.602 252.170,22.001 253.600 C 22.401 255.030,22.822 256.470,22.936 256.800 C 40.873 308.447,75.983 347.730,122.517 368.216 C 124.323 369.011,126.340 369.915,127.000 370.226 C 144.542 378.478,172.029 384.238,196.000 384.685 C 321.073 387.013,412.077 269.358,377.400 150.162 C 366.344 112.162,340.108 75.293,308.410 53.215 C 288.993 39.691,272.566 31.767,251.200 25.619 C 237.552 21.692,224.750 19.463,210.784 18.582 C 205.710 18.262,206.364 17.722,202.600 25.336 C 198.764 33.096,198.851 33.099,195.007 25.081 C 191.444 17.650,192.305 18.156,184.400 18.838 M194.374 25.511 C 198.426 33.835,199.287 34.076,202.237 27.707 C 203.233 25.558,204.564 22.810,205.196 21.600 L 206.345 19.400 210.672 19.500 C 227.057 19.878,249.704 24.788,267.800 31.883 C 299.463 44.299,330.479 68.063,348.633 93.818 C 364.652 116.543,374.042 136.836,379.350 160.200 C 408.379 287.984,299.149 402.823,168.800 381.563 C 64.548 364.560,-3.746 263.249,19.847 160.600 C 35.394 92.959,89.326 39.341,157.400 23.847 C 167.741 21.494,183.930 19.238,189.600 19.361 L 191.400 19.400 194.374 25.511 M199.534 115.083 C 198.325 115.917,194.380 118.627,190.768 121.104 C 187.156 123.580,181.320 127.595,177.800 130.025 C 169.692 135.621,167.306 137.180,166.202 137.599 C 165.716 137.784,163.475 139.030,161.222 140.368 C 109.327 171.182,112.222 244.116,166.416 271.247 C 188.109 282.106,221.914 281.401,239.593 269.720 C 240.359 269.214,241.132 268.800,241.311 268.800 C 242.157 268.800,251.987 261.718,254.021 259.642 C 254.583 259.069,255.843 257.861,256.821 256.958 C 262.256 251.939,267.946 244.231,271.462 237.124 C 289.058 201.552,276.006 159.808,241.018 139.755 C 238.808 138.489,229.328 132.179,219.951 125.733 C 199.979 112.005,202.265 113.197,199.534 115.083 M219.345 126.164 C 228.424 132.421,237.861 138.707,240.315 140.133 C 288.114 167.914,291.808 232.035,247.447 263.935 C 199.007 298.770,129.868 268.209,124.742 209.696 C 122.213 180.835,140.240 150.152,166.800 138.109 C 167.790 137.660,176.067 132.139,185.193 125.839 C 194.319 119.540,202.022 114.477,202.311 114.587 C 202.600 114.698,210.265 119.908,219.345 126.164 " stroke="none" fill="#853739" fill-rule="evenodd"></path><path id="path4" d="M187.500 44.432 C 186.856 44.807,186.800 45.887,186.800 57.971 C 186.800 72.950,186.592 72.111,190.266 71.921 L 192.600 71.800 192.800 63.800 L 193.000 55.800 197.366 63.000 C 203.005 72.299,202.723 72.000,205.856 72.000 C 209.336 72.000,209.200 72.577,209.200 57.855 C 209.200 43.526,209.308 44.000,206.051 44.000 C 203.197 44.000,203.200 43.990,203.200 52.480 C 203.200 56.760,203.042 60.000,202.834 60.000 C 202.633 60.000,200.344 56.501,197.748 52.224 C 194.669 47.150,192.746 44.372,192.214 44.230 C 190.902 43.877,188.258 43.991,187.500 44.432 M192.710 45.300 C 192.935 45.575,195.230 49.310,197.811 53.600 C 204.190 64.205,203.735 64.229,204.000 53.268 L 204.200 45.000 206.200 45.000 L 208.200 45.000 208.200 58.000 L 208.200 71.000 205.740 71.118 L 203.280 71.236 198.306 63.118 C 195.571 58.653,193.078 55.000,192.766 55.000 C 192.300 55.000,192.181 56.436,192.092 63.121 L 191.983 71.241 189.892 71.121 L 187.800 71.000 187.694 58.404 C 187.636 51.476,187.675 45.581,187.782 45.304 C 188.039 44.632,192.162 44.629,192.710 45.300 M40.267 184.667 C 39.798 185.135,39.981 188.287,40.500 188.689 C 40.775 188.901,45.275 190.135,50.500 191.431 C 60.539 193.921,60.995 194.117,58.300 194.799 C 55.818 195.427,47.121 197.892,43.282 199.054 L 39.965 200.059 40.082 202.706 L 40.200 205.353 50.165 208.275 C 55.646 209.882,60.216 211.283,60.322 211.389 C 60.592 211.658,60.231 211.761,52.600 213.587 C 48.860 214.481,44.540 215.536,43.000 215.930 L 40.200 216.647 40.076 218.579 C 39.898 221.338,40.072 221.378,45.629 219.850 C 57.376 216.619,64.306 214.688,65.800 214.229 C 67.393 213.739,67.400 213.728,67.519 211.507 L 67.638 209.277 65.719 208.667 C 64.663 208.332,59.930 206.943,55.200 205.579 C 46.031 202.936,45.228 202.601,47.042 202.168 C 49.838 201.501,66.267 196.684,66.900 196.346 C 68.302 195.597,67.862 192.146,66.300 191.644 C 63.485 190.740,41.264 184.400,40.910 184.400 C 40.703 184.400,40.413 184.520,40.267 184.667 M52.118 188.214 C 57.883 189.871,63.543 191.496,64.695 191.823 C 66.318 192.285,66.843 192.634,67.029 193.372 C 67.546 195.434,67.025 195.691,55.608 198.998 C 47.117 201.457,44.793 202.271,44.886 202.751 C 44.970 203.186,48.130 204.262,55.762 206.455 C 66.422 209.518,67.188 209.850,67.188 211.400 C 67.188 212.899,66.509 213.270,60.955 214.806 C 57.900 215.651,52.204 217.228,48.298 218.310 C 40.689 220.417,40.010 220.409,40.559 218.220 C 40.740 217.498,41.215 217.119,42.304 216.826 C 46.495 215.699,58.525 212.789,59.907 212.568 C 62.630 212.133,63.037 210.420,60.424 210.394 C 59.129 210.381,41.038 204.786,40.732 204.304 C 40.322 203.658,40.318 201.548,40.727 200.905 C 41.053 200.391,55.116 196.127,59.500 195.212 C 61.036 194.892,62.000 194.488,62.000 194.164 C 62.000 193.568,62.508 193.723,50.277 190.594 C 40.773 188.163,40.027 187.807,40.605 185.985 C 40.938 184.936,40.270 184.807,52.118 188.214 M333.067 193.067 C 332.424 193.710,332.774 213.104,333.433 213.357 C 336.488 214.530,336.800 213.749,336.800 204.920 L 336.800 197.200 341.000 197.200 L 345.200 197.200 345.200 204.120 C 345.200 211.519,345.322 212.005,347.180 211.994 C 349.121 211.982,349.174 211.792,349.290 204.382 L 349.400 197.400 352.900 197.284 L 356.400 197.169 356.400 204.352 C 356.400 208.302,356.509 211.819,356.643 212.167 C 357.012 213.131,359.852 213.024,360.386 212.026 C 360.829 211.199,360.969 195.273,360.548 193.700 L 360.307 192.800 346.820 192.800 C 339.402 192.800,333.213 192.920,333.067 193.067 M359.367 193.443 C 360.344 193.818,360.321 211.791,359.344 212.166 C 357.352 212.931,357.225 212.482,357.109 204.276 L 357.000 196.600 353.160 196.486 C 348.205 196.339,348.444 195.957,348.310 204.229 L 348.200 211.000 347.200 211.000 L 346.200 211.000 346.090 204.229 C 345.956 195.975,346.232 196.400,341.000 196.400 C 335.729 196.400,336.041 195.871,335.909 205.030 L 335.800 212.600 334.800 212.600 L 333.800 212.600 333.692 203.409 C 333.633 198.353,333.672 193.988,333.780 193.709 C 333.985 193.173,358.014 192.924,359.367 193.443 M195.931 334.366 C 190.389 336.171,187.633 341.560,190.090 345.788 C 191.603 348.393,193.770 349.481,201.333 351.432 C 204.799 352.326,206.000 353.233,206.000 354.959 C 206.000 359.514,196.721 359.837,194.737 355.351 C 193.946 353.562,193.941 353.559,192.072 353.679 L 190.200 353.800 190.249 355.335 C 190.482 362.671,205.147 365.158,209.229 358.554 C 212.565 353.155,209.642 349.118,200.626 346.676 C 194.951 345.139,193.600 344.276,193.600 342.184 C 193.600 339.338,196.326 337.756,200.633 338.102 C 204.394 338.404,205.972 339.560,207.182 342.900 C 208.209 345.736,211.889 343.886,211.012 340.975 C 209.441 335.754,201.864 332.434,195.931 334.366 M203.000 334.942 C 208.681 336.456,213.407 342.807,209.210 343.289 C 208.405 343.381,208.084 343.081,207.344 341.545 C 204.158 334.930,191.274 336.264,192.973 343.034 C 193.410 344.776,195.020 345.865,198.516 346.785 C 207.636 349.183,209.600 350.625,209.600 354.921 C 209.600 362.575,195.079 364.588,191.607 357.415 C 189.943 353.977,192.211 352.336,194.058 355.642 C 197.409 361.642,209.104 359.494,206.322 353.389 C 205.686 351.992,204.491 351.429,199.579 350.214 C 192.428 348.445,189.998 346.414,190.001 342.206 C 190.006 336.823,196.480 333.205,203.000 334.942 " stroke="none" fill="#7f8c94" fill-rule="evenodd"></path></g></svg>