<svg xmlns="http://www.w3.org/2000/svg" height="200" width="200" version="1.1" xmlns:cc="http://creativecommons.org/ns#" viewBox="0 0 200 200">
 <g transform="translate(0 -852.36)">
  <g style="shape-rendering:crispEdges" transform="translate(14.992 867.36)">
   <path stroke-linejoin="round" d="m155.78 9.5043c-0.0648-2.8524-2.445-5.1037-5.2966-5.0098-0.8511 0.023175-1.683 0.25786-2.4208 0.68288l-65.646 37.693-65.652 37.692c-3.3935 1.9791-3.3935 6.8822 0 8.8613l4.3279 2.4847 61.324 35.207 65.652 37.692c3.4203 1.9993 7.7194-0.46889 7.7174-4.4306v-75.384z" stroke="#ffffff" stroke-width="0.4" fill="none"/>
   <g>
    <path d="m155.78 9.5043c-0.0648-2.8524-2.445-5.1037-5.2966-5.0098-0.8511 0.023175-1.683 0.25786-2.4208 0.68288l-65.646 37.693-65.652 37.692c-3.3935 1.9791-3.3935 6.8822 0 8.8613l4.3279 2.4847 61.324 35.207 65.652 37.692c3.4203 1.9993 7.7194-0.46889 7.7174-4.4306v-75.384z" fill="#76ff03"/>
    <path d="m69.174 64.84c-5.139 0.762-5.672 15.426-5.672 15.426l-45.58-0.37-1.16 0.666a5.1291 5.1291 0 0 0 -1.4863 1.3125l48.227 0.39062s0.5332-14.664 5.6719-15.426h2.248 5.6328 36.355c0.5553 0 1.0059 0.44926 1.0059 1.252v-2c0-0.80269-0.45056-1.252-1.0059-1.252h-36.355-5.6328-2.248zm6.0254 12.625c-0.04659 0.32429-0.08789 0.64728-0.08789 0.89062 0 1.7132 0.76106 4.873 1.7383 4.7656h36.561c0.55514 0 1.0056 0.44886 1.0059 1.1992v-2c-0.00021-0.75036-0.45072-1.1992-1.0059-1.1992h-36.561c-0.79123 0.08691-1.4318-1.9615-1.6504-3.6562zm-59.926 4.4141a5.1291 5.1291 0 0 0 -0.33008 0.48828c0.09988-0.16852 0.21095-0.33154 0.33008-0.48828zm-0.33008 0.48828a5.1291 5.1291 0 0 0 -0.27148 0.52539c0.08029-0.17991 0.17087-0.35563 0.27148-0.52539zm-0.27148 0.52539a5.1291 5.1291 0 0 0 -0.20898 0.55273c0.05915-0.18826 0.1287-0.37282 0.20898-0.55273zm-0.20898 0.55273a5.1291 5.1291 0 0 0 -0.14453 0.57031c0.03712-0.19353 0.08575-0.38325 0.14453-0.57031zm60.728 11.244c-0.04686 0.37394-0.08008 0.72897-0.08008 1.0156 0 1.6242 0.68404 3.8753 1.5879 3.6973h36.711c0.5553 0 1.0059 0.45077 1.0059 1.334v-2c0-0.88321-0.45056-1.334-1.0059-1.334h-36.711c-0.73015 0.14383-1.3093-1.2973-1.5078-2.7129z" fill-opacity=".44086" fill="#1a1a1a"/>
    <path d="m69.174 66.84c-5.139 0.762-5.672 15.426-5.672 15.426l-48.227-0.391c-0.10094 0.13178-0.19426 0.26853-0.28125 0.4082-0.0062 0.01-0.0134 0.01931-0.01953 0.0293-0.08155 0.13297-0.15587 0.26916-0.22461 0.4082-0.01385 0.02823-0.02576 0.0575-0.03906 0.08594-0.06494 0.13769-0.12543 0.27745-0.17774 0.41992-0.09674 0.26354-0.16637 0.53494-0.21875 0.81055-0.01361 0.07302-0.03056 0.14528-0.04101 0.21875-0.01322 0.09097-0.02097 0.18368-0.0293 0.27539-0.0098 0.1104-0.0168 0.22128-0.01953 0.33203-0.0022 0.08608-0.0021 0.17146 0 0.25781 0.0026 0.10426 0.01073 0.20854 0.01953 0.3125 0.0083 0.09619 0.01355 0.19298 0.02734 0.28906 0.20661 1.4638 1.0343 2.8521 2.4902 3.7012l4.293 2.4648h0.002 0.31445 42.309c0.65099 2.5532 0.35548 14.267 5.4941 15.029h2.248 5.6328 36.355c0.5553 0 1.0059-0.44913 1.0059-1.0039v-5.1777c0-0.88321-0.45056-1.334-1.0059-1.334h-36.711c-0.90385 0.17805-1.5879-2.073-1.5879-3.6973 0-1.5884 0.76947-4.9768 1.7539-5.0684h36.545c0.55514-0.13354 1.0056-0.58405 1.0059-1.1387v-5.1777c-0.00021-0.75036-0.45072-1.1992-1.0059-1.1992h-36.561c-0.97722 0.10734-1.7383-3.0525-1.7383-4.7656 0-1.2017 0.60748-3.7631 1.4336-4.002h36.865c0.5553-0.3285 1.0059-0.77725 1.0059-1.332v-4.9297c0-0.80269-0.45056-1.252-1.0059-1.252h-36.355-5.6328-2.248z" fill="#1a1a1a"/>
   </g>
   <path stroke-linejoin="round" d="m155.78 9.5043c-0.0648-2.8524-2.445-5.1037-5.2966-5.0098-0.8511 0.023175-1.683 0.25786-2.4208 0.68288l-65.646 37.693-65.652 37.692c-3.3935 1.9791-3.3935 6.8822 0 8.8613l4.3279 2.4847 61.324 35.207 65.652 37.692c3.4203 1.9993 7.7194-0.46889 7.7174-4.4306v-75.384z" stroke="#1a1a1a" fill="none"/>
  </g>
 </g>
</svg>
