<?xml version="1.0" standalone="no"?>
<!DOCTYPE svg PUBLIC "-//W3C//DTD SVG 20010904//EN"
 "http://www.w3.org/TR/2001/REC-SVG-20010904/DTD/svg10.dtd">
<svg version="1.0" xmlns="http://www.w3.org/2000/svg"
 width="512.000000pt" height="512.000000pt" viewBox="0 0 512.000000 512.000000"
 preserveAspectRatio="xMidYMid meet">
<metadata>
Created by potrace 1.15, written by Peter Selinger 2001-2017
</metadata>
<g transform="translate(0.000000,512.000000) scale(0.100000,-0.100000)"
fill="#000000" stroke="none">
<path d="M326 4796 c-135 -50 -200 -200 -201 -466 0 -253 46 -386 158 -450 92
-52 211 -47 286 12 43 33 87 104 107 170 27 91 28 435 1 523 -24 81 -80 160
-134 192 -55 32 -158 41 -217 19z m144 -166 c43 -46 55 -112 54 -310 0 -199
-15 -273 -60 -309 -57 -44 -114 -13 -141 77 -22 74 -24 366 -4 460 23 105 94
143 151 82z"/>
<path d="M1040 4801 c-151 -49 -219 -193 -220 -468 -1 -283 66 -434 211 -477
66 -20 92 -20 158 0 139 41 211 200 211 468 0 312 -91 472 -275 482 -33 2 -71
0 -85 -5z m104 -152 c52 -24 76 -126 76 -324 0 -208 -23 -302 -81 -325 -38
-16 -84 2 -104 40 -47 91 -47 480 1 571 22 44 63 58 108 38z"/>
<path d="M2150 4801 c-142 -46 -205 -168 -216 -421 -7 -140 5 -251 38 -349 78
-238 388 -254 489 -26 64 145 63 497 -2 644 -25 56 -71 106 -124 133 -43 22
-144 33 -185 19z m133 -172 c39 -48 49 -119 45 -327 -3 -174 -6 -202 -24 -243
-27 -57 -68 -78 -114 -59 -17 7 -37 25 -45 41 -45 85 -47 469 -3 564 25 55
103 68 141 24z"/>
<path d="M2827 4796 c-60 -22 -101 -60 -134 -123 -51 -99 -58 -139 -58 -358 0
-224 8 -265 71 -361 84 -128 278 -150 384 -44 84 84 113 191 112 418 0 259
-44 381 -159 449 -54 32 -158 41 -216 19z m136 -156 c48 -38 62 -104 61 -310
0 -146 -3 -197 -17 -242 -35 -116 -127 -132 -175 -30 -14 32 -17 70 -17 267 0
210 2 233 20 270 31 63 82 81 128 45z"/>
<path d="M3945 4798 c-141 -50 -205 -200 -205 -478 0 -276 66 -421 211 -464
65 -20 93 -20 153 -2 96 29 152 98 187 229 28 104 29 381 1 483 -25 95 -58
151 -110 191 -67 51 -163 67 -237 41z m128 -158 c52 -41 62 -94 62 -320 0
-188 -2 -209 -22 -252 -26 -57 -61 -82 -102 -73 -34 7 -52 26 -72 75 -11 27
-14 89 -14 260 0 205 2 229 20 265 31 63 82 81 128 45z"/>
<path d="M4636 4795 c-138 -49 -206 -208 -205 -480 0 -192 48 -350 125 -414
51 -41 133 -65 196 -57 177 24 258 174 258 481 0 217 -31 329 -114 410 -74 73
-166 94 -260 60z m119 -145 c17 -6 34 -27 48 -57 21 -45 22 -63 22 -268 0
-215 -1 -221 -25 -270 -31 -63 -75 -80 -118 -48 -15 11 -33 31 -39 45 -44 89
-42 458 2 552 23 49 61 65 110 46z"/>
<path d="M1582 4453 l3 -88 88 -3 87 -3 0 91 0 90 -90 0 -91 0 3 -87z"/>
<path d="M3390 4450 l0 -90 85 0 85 0 0 90 0 90 -85 0 -85 0 0 -90z"/>
<path d="M1587 4033 c-4 -3 -7 -44 -7 -90 l0 -83 90 0 90 0 0 90 0 90 -83 0
c-46 0 -87 -3 -90 -7z"/>
<path d="M3390 3950 l0 -90 85 0 85 0 0 90 0 90 -85 0 -85 0 0 -90z"/>
</g>
</svg>
