<?xml version="1.0" encoding="utf-8"?>
<!-- Generator: Adobe Illustrator 19.0.0, SVG Export Plug-In . SVG Version: 6.00 Build 0)  -->
<svg version="1.1" id="Layer_1" xmlns="http://www.w3.org/2000/svg" xmlns:xlink="http://www.w3.org/1999/xlink" x="0px" y="0px"
	 width="1368px" height="186px" viewBox="0 0 1368 186" style="enable-background:new 0 0 1368 186;" xml:space="preserve">
<style type="text/css">
	.st0{fill:#FFFFFF;}
</style>
<path id="XMLID_4_" class="st0" d="M42,58.3c3.9-5.1,8.7-9.2,14.6-12.3c5.9-3.1,12.8-4.7,20.8-4.7c4.5,0,8.9,0.3,13,1
	c4.1,0.7,9.1,1.9,15,3.6l7.2-18.4c-6.4-2.4-12.5-4.1-18.2-5.2c-5.7-1.1-11.4-1.6-17-1.6c-12,0-22.8,2-32.4,5.9
	c-9.6,3.9-17.7,9.3-24.4,16.1C13.9,49.5,8.8,57.5,5.3,66.6C1.8,75.8,0,85.5,0,95.9c0,10.5,1.7,20.4,5.1,29.5
	c3.4,9.1,8.4,17.1,15,23.9c6.6,6.8,14.7,12.1,24.3,16c9.6,3.9,20.6,5.8,33,5.8c5.6,0,11.4-0.8,17.3-2.3c5.9-1.5,11.9-3.8,17.9-6.9
	l-7.4-18.2c-9.6,4.5-18.9,6.8-27.8,6.8c-8,0-14.9-1.5-20.8-4.6c-5.9-3.1-10.7-7.2-14.6-12.3c-3.9-5.1-6.8-11-8.7-17.5
	c-1.9-6.5-2.9-13.3-2.9-20.2c0-6.9,1-13.7,2.9-20.2C35.2,69.2,38.1,63.4,42,58.3z"/>
<polygon id="XMLID_24_" class="st0" points="213.6,22.9 264,104.3 264,168.9 292,168.9 292,100.9 244.8,22.9 "/>
<path id="XMLID_25_" class="st0" d="M223.5,132.2c-1.7-5.5-3.6-10.7-5.9-15.4c-2.3-4.7-5.4-8.8-9.4-12.3c-0.5-0.4-1.3-0.8-2.2-1.2
	c-0.9-0.4-1.7-0.7-2.2-1l5.6-2.2c6-3.6,10.8-8.3,14.4-14.2c3.3-5.3,5-11.5,5.3-18.5l-24-38.8l-0.7-1.2c-3.2-1.5-6.5-2.8-10.2-3.9
	c-6.9-2-14.3-3-22.2-3c-3.6,0-7,0.1-10.2,0.2c-3.2,0.1-6.5,0.4-9.9,0.7c-3.4,0.3-6.9,0.8-11,1.4c-4.1,0.6-8.9,1.4-13.9,2.3v143.8h29
	V42.3c1-0.1,2.9-0.3,4.2-0.5c1.3-0.2,2.4-0.3,3.6-0.4c1.2-0.1,2.3-0.1,3.6-0.2c1.3-0.1,2.8-0.1,4.7-0.1c3.9,0,7.5,0.6,10.9,1.8
	s6.3,2.9,8.8,5c2.5,2.1,4.4,4.7,5.9,7.6c1.5,2.9,2.2,6.1,2.2,9.6c0,3.2-0.5,6.2-1.6,9c-1.1,2.8-2.5,5.2-4.3,7.3
	c-1.8,2.1-3.9,3.7-6.3,5c-2.4,1.3-5,2-7.8,2.3c-2.3,0.3-4.3,1-6.1,2.2c-1.8,1.2-3.4,2.7-4.8,4.5s-2.6,3.7-3.6,5.8
	c-1,2.1-1.9,4-2.7,5.9c3.5,1.1,6.8,1.7,9.9,1.9c3.1,0.2,6.1,0.2,8.9-0.1c3.7,2.9,6.7,6.7,8.8,11.4c2.1,4.7,4,9.7,5.6,15.2
	c1.6,5.5,3.1,11.2,4.5,17s3.3,11.4,5.7,16.4h29.4c-2.9-7-5.2-12.8-6.9-19C226.8,143.7,225.2,137.8,223.5,132.2z"/>
<path id="XMLID_26_" class="st0" d="M431.5,43.9C431.5,43.9,431.5,43.9,431.5,43.9c-2.7-4.2-6.1-7.9-10.2-11.1
	c-5.1-3.9-11.2-7-18.1-9.1c-6.9-2.1-14.5-3.2-22.6-3.2c-3.6,0-7,0.1-10.2,0.2c-3.2,0.1-6.5,0.4-9.9,0.7c-2.6,0.3-5.4,0.6-8.4,1
	l-3.5,6.1L335,51.1v117.8h29V42.3c2-0.1,3.2-0.3,4.5-0.5c1.3-0.2,2.5-0.3,3.7-0.4c1.2-0.1,2.4-0.1,3.7-0.2c1.3-0.1,2.8-0.1,4.7-0.1
	c4.1,0,7.9,0.7,11.3,2c3.4,1.3,6.3,3.1,8.8,5.4c2.5,2.3,4.4,4.9,5.7,7.9c1.3,3,2,6.2,2,9.7c0,3.2-0.5,6.3-1.6,9.2
	c-1.1,2.9-2.5,5.5-4.3,7.7c-1.8,2.2-3.9,4-6.3,5.4c-2.4,1.4-5,2.2-7.8,2.5c-2.3,0.3-4.3,1-6.1,2.2c-1.8,1.2-3.4,2.7-4.8,4.4
	c-1.4,1.7-2.6,3.6-3.6,5.7c-1,2.1-1.9,4-2.7,5.9c3.7,1.1,7.3,1.7,10.6,1.9c1.4,0.1,2.8,0.1,4.2,0.1c1.8,0,3.6-0.1,5.4-0.2
	c6-0.5,11.8-1.9,17.3-4.2c5.5-2.3,10.5-5.3,14.8-9.1c4.3-3.8,7.8-8.3,10.4-13.6c2.6-5.3,3.9-11.2,3.9-17.9c0-7.1-1.5-13.4-4.4-19
	C432.8,46,432.2,44.9,431.5,43.9z"/>
<path id="XMLID_27_" class="st0" d="M335,31.8l4.3-7.4c-0.1,0-0.3,0-0.4,0l0.9-1.6H309l-18.8,34.2c-1.7,3.2-2.6,6.7-2.5,10.2
	c0.1,3.5,0.6,7,1.6,10.3c1,3.3,2.3,6.3,3.8,9c1.5,2.7,3.1,4.8,4.5,6.5L335,31.4V31.8z"/>
<path id="XMLID_30_" class="st0" d="M637.5,44.8c-5.8-7.3-13.3-13.2-22.4-17.7c-9.1-4.5-20.2-6.8-33.3-6.8c-11.5,0-21.7,2-30.6,5.9
	c-8.9,3.9-16.5,9.3-22.7,16.2c-6.2,6.9-10.9,14.9-14.2,24.1c-3.3,9.2-4.9,19-4.9,29.4c0,10.8,1.6,20.8,4.8,30
	c3.2,9.2,7.9,17.2,14.1,23.9c6.2,6.7,13.8,12,22.7,15.9c8.9,3.9,19.2,5.8,30.8,5.8s21.9-2.1,30.9-6.3s16.5-9.8,22.6-16.8
	c6.1-7,10.7-15,13.9-24.1c3.2-9.1,4.8-18.5,4.8-28.4c0-8.8-1.3-17.7-3.9-26.7C647.5,60.2,643.3,52.1,637.5,44.8z M620.3,119.3
	c-2.3,6.8-5.4,12.5-9.3,17.2c-3.9,4.7-8.3,8.2-13.4,10.7c-5.1,2.5-10.3,3.7-15.8,3.7c-6.9,0-13-1.6-18.2-4.7
	c-5.2-3.1-9.6-7.3-13.1-12.4c-3.5-5.1-6.2-11-8-17.6s-2.7-13.4-2.7-20.3c0-7.3,0.9-14.3,2.7-21c1.8-6.7,4.5-12.5,8-17.6
	c3.5-5.1,7.9-9.1,13.1-12c5.2-2.9,11.3-4.4,18.2-4.4c6.5,0,12.4,1.4,17.6,4.2c5.2,2.8,9.6,6.6,13.2,11.5c3.6,4.9,6.4,10.7,8.3,17.4
	c1.9,6.7,2.9,14,2.9,21.9C623.8,104.7,622.6,112.5,620.3,119.3z"/>
<path id="XMLID_31_" class="st0" d="M521.4,35.7c3.4-3.8,7.6-7.1,11.6-10.2v-2.7H428v2.2c6,4.8,10.9,10.6,14.4,17.4
	c0.2,0.5,0.3,0.9,0.5,1.4H466v125h29v-125h19.6C516.6,40.9,519,38.3,521.4,35.7z"/>
<path id="XMLID_32_" class="st0" d="M1361.1,149.9c-1.7-6.2-3.3-12.1-5-17.6c-1.7-5.5-3.6-10.7-5.9-15.4c-2.3-4.7-5.4-8.8-9.4-12.3
	c-0.5-0.4-1.3-0.8-2.2-1.2c-0.9-0.4-1.7-0.7-2.2-1l5.6-2.2c6-3.6,10.8-8.3,14.4-14.2c3.6-5.9,5.4-12.8,5.4-20.8
	c0-7.1-1.5-13.4-4.5-18.9c-3-5.5-7.1-10.2-12.3-14c-5.2-3.8-11.3-6.7-18.2-8.7c-6.9-2-14.3-3-22.2-3c-3.6,0-7,0.1-10.2,0.2
	c-3.2,0.1-6.5,0.4-9.9,0.7c-3.4,0.3-7.2,0.8-11.3,1.4c-4.1,0.6-8.2,1.4-14.2,2.3v143.8h29V42.3c2-0.1,3.2-0.3,4.5-0.5
	c1.3-0.2,2.5-0.3,3.7-0.4c1.2-0.1,2.4-0.1,3.7-0.2c1.3-0.1,2.8-0.1,4.7-0.1c3.9,0,7.5,0.6,10.9,1.8c3.4,1.2,6.3,2.9,8.8,5
	c2.5,2.1,4.4,4.7,5.9,7.6c1.5,2.9,2.2,6.1,2.2,9.6c0,3.2-0.5,6.2-1.6,9c-1.1,2.8-2.5,5.2-4.3,7.3c-1.8,2.1-3.9,3.7-6.3,5
	c-2.4,1.3-5,2-7.8,2.3c-2.3,0.3-4.3,1-6.1,2.2c-1.8,1.2-3.4,2.7-4.8,4.5c-1.4,1.8-2.6,3.7-3.6,5.8c-1,2.1-1.9,4-2.7,5.9
	c3.5,1.1,6.8,1.7,9.9,1.9c3.1,0.2,6.1,0.2,8.9-0.1c3.7,2.9,6.7,6.7,8.8,11.4c2.1,4.7,4,9.7,5.6,15.2c1.6,5.5,3.1,11.2,4.5,17
	s3.3,11.4,5.7,16.4h29.4C1365,161.9,1362.7,156.1,1361.1,149.9z"/>
<path id="XMLID_33_" class="st0" d="M758,81.9h-35.6c-2.9,0-5.5,0.8-7.7,2.1c-2.2,1.3-4.1,3.1-5.7,5.1c-1.6,2-2.9,4.3-4,6.8
	c-1.1,2.5-1.9,5-2.6,7H758v66h28v-146h-28V81.9z"/>
<rect id="XMLID_34_" x="667" y="22.9" class="st0" width="28" height="146"/>
<path id="XMLID_35_" class="st0" d="M931.6,96.1c0,0,0-0.1,0-0.1c0-0.1,0-0.1,0-0.2V96.1z"/>
<path id="XMLID_38_" class="st0" d="M892.7,27.1c-9.1-4.5-20.2-6.8-33.3-6.8c-11.5,0-21.7,2-30.6,5.9c-8.9,3.9-16.4,9.3-22.6,16.2
	c-4.1,4.5-7.2,9.5-10.2,15v77.8c3,5.4,6,10.2,10,14.5c6.2,6.7,13.7,12,22.6,15.9c8.9,3.9,19.2,5.8,30.8,5.8s21.9-2.1,30.9-6.3
	s16.7-9.8,22.8-16.8c3.3-3.9,5.9-8,8.9-12.5V54.6c-2-3.4-4.2-6.6-6.7-9.7C909.5,37.6,901.8,31.7,892.7,27.1z M897.9,119.3
	c-2.3,6.8-5.4,12.5-9.3,17.2c-3.9,4.7-8.3,8.2-13.4,10.7c-5.1,2.5-10.3,3.7-15.8,3.7c-6.9,0-13-1.6-18.2-4.7
	c-5.2-3.1-9.6-7.3-13.1-12.4c-3.5-5.1-6.2-11-8-17.6s-2.7-13.4-2.7-20.3c0-7.3,0.9-14.3,2.7-21c1.8-6.7,4.5-12.5,8-17.6
	c3.5-5.1,7.9-9.1,13.1-12c5.2-2.9,11.3-4.4,18.2-4.4c6.5,0,12.4,1.4,17.6,4.2c5.2,2.8,9.6,6.6,13.2,11.5c3.6,4.9,6.4,10.7,8.3,17.4
	c1.9,6.7,2.9,14,2.9,21.9C901.4,104.7,900.2,112.5,897.9,119.3z"/>
<polygon id="XMLID_39_" class="st0" points="961,22.9 932,22.9 932,168.9 1013,168.9 1013,147.9 961,147.9 "/>
<path id="XMLID_40_" class="st0" d="M1148.6,64c-3.8-9.3-9.5-17.1-16.8-23.5c-7.3-6.4-16.2-11.3-26.7-14.7
	c-10.5-3.4-22.4-5.1-35.7-5.1c-5.9,0-12.7,0.4-20.4,1.2c-7.7,0.8-16,2.1-25,4v143h28v-126c3-0.5,6-0.9,8.9-1.2
	c2.9-0.3,5.6-0.4,8.3-0.4c9.6,0,17.9,1.4,24.8,4.1c6.9,2.7,12.5,6.5,16.9,11.3s7.7,10.5,9.7,17.2c2.1,6.7,3.1,13.9,3.1,21.8
	c0,6.7-0.8,13.3-2.5,19.8c-1.7,6.5-4.3,12.4-7.9,17.6c-3.6,5.2-8.2,9.4-13.7,12.6c-5.5,3.2-12.1,4.8-19.7,4.8
	c-2.8,0-5.3,0.6-7.4,1.7c-2.1,1.1-4,2.6-5.6,4.3c-1.6,1.7-3,3.6-4.2,5.6c-1.2,2-2.2,3.9-3,5.6c2.9,0.8,5.4,1.4,7.5,1.8
	c2.1,0.4,4,0.7,5.7,1c1.7,0.3,3.4,0.4,4.9,0.5c1.5,0.1,3.2,0.1,5.1,0.1c10.1,0,19.6-1.9,28.3-5.8c8.7-3.9,16.5-9.2,22.8-16
	c6.2-6.7,10.9-14.5,14.9-23.5V64.3C1149,64.2,1148.6,64.1,1148.6,64z"/>
<path id="XMLID_41_" class="st0" d="M1201.2,89c-1.6,2-2.9,4.4-4,6.8c-1.1,2.4-1.9,5-2.6,7h44.4v-21h-24.4c-2.9,0-5.5,0.9-7.7,2.1
	C1204.7,85.3,1202.8,87,1201.2,89z"/>
<polygon id="XMLID_42_" class="st0" points="1187,43.9 1246,43.9 1246,22.9 1159,22.9 1159,168.9 1249,168.9 1249,147.9 1187,147.9 
	"/>
</svg>
