<?xml version="1.0" standalone="no"?>
<!DOCTYPE svg PUBLIC "-//W3C//DTD SVG 20010904//EN"
 "http://www.w3.org/TR/2001/REC-SVG-20010904/DTD/svg10.dtd">
<svg version="1.0" xmlns="http://www.w3.org/2000/svg"
 width="200.000000pt" height="200.000000pt" viewBox="0 0 200.000000 200.000000"
 preserveAspectRatio="xMidYMid meet">

<g transform="translate(0.000000,200.000000) scale(0.100000,-0.100000)"
fill="#000000" stroke="none">
<path d="M1070 1579 c-97 -19 -217 -98 -276 -182 -19 -28 -20 -28 -56 -12 -85
35 -204 7 -277 -66 -39 -39 -70 -102 -71 -141 0 -23 -9 -32 -55 -54 -66 -32
-132 -100 -172 -175 -26 -49 -28 -63 -28 -159 0 -96 2 -110 29 -163 33 -64
111 -144 172 -175 79 -40 134 -43 699 -40 538 3 540 3 597 26 77 31 161 109
201 186 29 57 32 68 32 161 0 88 -3 107 -27 157 -34 73 -103 147 -166 179 -49
24 -49 24 -62 92 -45 250 -289 415 -540 366z m225 -148 c109 -48 184 -159 193
-284 2 -40 8 -80 13 -89 5 -9 33 -23 61 -32 135 -39 208 -179 166 -317 -15
-51 -69 -114 -122 -142 -41 -22 -42 -22 -606 -22 -562 0 -565 0 -606 22 -48
25 -101 83 -120 129 -17 41 -18 123 -2 178 19 62 92 131 161 151 30 9 61 23
68 32 8 8 14 40 15 69 2 62 21 96 67 124 53 32 129 21 166 -24 18 -21 74 -20
93 2 9 9 25 35 36 57 22 45 93 115 141 139 76 40 195 43 276 7z"/>
</g>
</svg>
