<?xml version="1.0" encoding="UTF-8" standalone="no"?>
<!-- Created with Inkscape (http://www.inkscape.org/) -->

<svg
   xmlns:dc="http://purl.org/dc/elements/1.1/"
   xmlns:cc="http://creativecommons.org/ns#"
   xmlns:rdf="http://www.w3.org/1999/02/22-rdf-syntax-ns#"
   xmlns:svg="http://www.w3.org/2000/svg"
   xmlns="http://www.w3.org/2000/svg"
   xmlns:xlink="http://www.w3.org/1999/xlink"
   xmlns:sodipodi="http://sodipodi.sourceforge.net/DTD/sodipodi-0.dtd"
   xmlns:inkscape="http://www.inkscape.org/namespaces/inkscape"
   width="136.53334"
   height="136.53334"
   id="svg2"
   version="1.1"
   inkscape:version="0.92.1 r"
   sodipodi:docname="daves-mapper.svg"
   inkscape:export-filename="/home/dave/projects/DavesMapper/assets/images/logo-600.png"
   inkscape:export-xdpi="421.875"
   inkscape:export-ydpi="421.875">
  <defs
     id="defs4">
    <linearGradient
       id="linearGradient3850">
      <stop
         style="stop-color:#2e2103;stop-opacity:0;"
         offset="0"
         id="stop3852" />
      <stop
         id="stop3858"
         offset="0.77226532"
         style="stop-color:#644d16;stop-opacity:0.05581395" />
      <stop
         style="stop-color:#594005;stop-opacity:0.51627904"
         offset="1"
         id="stop3854" />
    </linearGradient>
    <linearGradient
       id="linearGradient3814">
      <stop
         style="stop-color:#be7d3e;stop-opacity:1;"
         offset="0"
         id="stop3816" />
      <stop
         style="stop-color:#8b5b2d;stop-opacity:1;"
         offset="1"
         id="stop3818" />
    </linearGradient>
    <linearGradient
       id="linearGradient3798">
      <stop
         style="stop-color:#faf2e5;stop-opacity:1;"
         offset="0"
         id="stop3800" />
      <stop
         style="stop-color:#f0d8ad;stop-opacity:1;"
         offset="1"
         id="stop3802" />
    </linearGradient>
    <linearGradient
       id="linearGradient3988">
      <stop
         id="stop3990"
         offset="0"
         style="stop-color:#ffffff;stop-opacity:0;" />
      <stop
         style="stop-color:#ffffff;stop-opacity:0.49803922;"
         offset="0.39487743"
         id="stop3992" />
      <stop
         style="stop-color:#ffffff;stop-opacity:1;"
         offset="0.49607164"
         id="stop3994" />
      <stop
         style="stop-color:#b68222;stop-opacity:1;"
         offset="0.49698523"
         id="stop3996" />
      <stop
         id="stop3998"
         offset="1"
         style="stop-color:#eccf9a;stop-opacity:0;" />
    </linearGradient>
    <linearGradient
       id="linearGradient3974">
      <stop
         id="stop3976"
         offset="0"
         style="stop-color:#ffffff;stop-opacity:0;" />
      <stop
         style="stop-color:#ffffff;stop-opacity:0.49803922;"
         offset="0.4013992"
         id="stop3978" />
      <stop
         style="stop-color:#ffffff;stop-opacity:1;"
         offset="0.50437057"
         id="stop3980" />
      <stop
         style="stop-color:#b68222;stop-opacity:1;"
         offset="0.50942183"
         id="stop3982" />
      <stop
         id="stop3984"
         offset="1"
         style="stop-color:#eccf9a;stop-opacity:0;" />
    </linearGradient>
    <linearGradient
       id="linearGradient3903">
      <stop
         style="stop-color:#ffffff;stop-opacity:0;"
         offset="0"
         id="stop3905" />
      <stop
         id="stop3917"
         offset="0.38483584"
         style="stop-color:#ffffff;stop-opacity:0.49803922;" />
      <stop
         id="stop3913"
         offset="0.47835121"
         style="stop-color:#ffffff;stop-opacity:1;" />
      <stop
         id="stop3911"
         offset="0.48576227"
         style="stop-color:#b68222;stop-opacity:1;" />
      <stop
         style="stop-color:#eccf9a;stop-opacity:0;"
         offset="1"
         id="stop3907" />
    </linearGradient>
    <linearGradient
       inkscape:collect="always"
       xlink:href="#linearGradient3903"
       id="linearGradient3909"
       x1="62.171169"
       y1="940.96576"
       x2="62.900902"
       y2="1033.7585"
       gradientUnits="userSpaceOnUse"
       gradientTransform="translate(-40,1)" />
    <linearGradient
       inkscape:collect="always"
       xlink:href="#linearGradient3903-2"
       id="linearGradient3909-6"
       x1="62.171169"
       y1="940.96576"
       x2="62.900902"
       y2="1033.7585"
       gradientUnits="userSpaceOnUse" />
    <linearGradient
       id="linearGradient3903-2">
      <stop
         style="stop-color:#ffffff;stop-opacity:0;"
         offset="0"
         id="stop3905-2" />
      <stop
         id="stop3917-2"
         offset="0.38483584"
         style="stop-color:#ffffff;stop-opacity:0.49803922;" />
      <stop
         id="stop3913-1"
         offset="0.47835121"
         style="stop-color:#ffffff;stop-opacity:1;" />
      <stop
         id="stop3911-0"
         offset="0.48576227"
         style="stop-color:#b68222;stop-opacity:1;" />
      <stop
         style="stop-color:#eccf9a;stop-opacity:0;"
         offset="1"
         id="stop3907-5" />
    </linearGradient>
    <linearGradient
       inkscape:collect="always"
       xlink:href="#linearGradient3974"
       id="linearGradient3972"
       gradientUnits="userSpaceOnUse"
       gradientTransform="translate(-40,1)"
       x1="112.17117"
       y1="972.49731"
       x2="16.954954"
       y2="972.72253" />
    <linearGradient
       inkscape:collect="always"
       xlink:href="#linearGradient3988"
       id="linearGradient3986"
       gradientUnits="userSpaceOnUse"
       x1="16.675674"
       y1="985.56036"
       x2="112"
       y2="985.56036"
       gradientTransform="translate(-40,1)" />
    <linearGradient
       inkscape:collect="always"
       xlink:href="#linearGradient3798"
       id="linearGradient3804"
       x1="105.51511"
       y1="20.39879"
       x2="97.739624"
       y2="28.75985"
       gradientUnits="userSpaceOnUse"
       gradientTransform="matrix(1.0666667,0,0,1.0666667,0,987.05299)" />
    <linearGradient
       inkscape:collect="always"
       xlink:href="#linearGradient3798-9"
       id="linearGradient3804-4"
       x1="105.51511"
       y1="20.39879"
       x2="97.739624"
       y2="28.75985"
       gradientUnits="userSpaceOnUse" />
    <linearGradient
       inkscape:collect="always"
       id="linearGradient3798-9">
      <stop
         style="stop-color:#edd2a0;stop-opacity:1;"
         offset="0"
         id="stop3800-8" />
      <stop
         style="stop-color:#e4bb6f;stop-opacity:1"
         offset="1"
         id="stop3802-4" />
    </linearGradient>
    <linearGradient
       inkscape:collect="always"
       xlink:href="#linearGradient3814"
       id="linearGradient3820"
       x1="64.026901"
       y1="999.9325"
       x2="63.747627"
       y2="977.86035"
       gradientUnits="userSpaceOnUse"
       gradientTransform="matrix(1.0666667,0,0,1.0666667,0,1.0666688)" />
    <linearGradient
       inkscape:collect="always"
       xlink:href="#linearGradient3903-7"
       id="linearGradient3909-67"
       x1="62.171169"
       y1="940.96576"
       x2="62.900902"
       y2="1033.7585"
       gradientUnits="userSpaceOnUse"
       gradientTransform="translate(0,1)" />
    <linearGradient
       id="linearGradient3903-7">
      <stop
         style="stop-color:#ffffff;stop-opacity:0;"
         offset="0"
         id="stop3905-5" />
      <stop
         id="stop3917-9"
         offset="0.38483584"
         style="stop-color:#ffffff;stop-opacity:0.49803922;" />
      <stop
         id="stop3913-2"
         offset="0.47835121"
         style="stop-color:#ffffff;stop-opacity:1;" />
      <stop
         id="stop3911-9"
         offset="0.48576227"
         style="stop-color:#b68222;stop-opacity:1;" />
      <stop
         style="stop-color:#eccf9a;stop-opacity:0;"
         offset="1"
         id="stop3907-3" />
    </linearGradient>
    <radialGradient
       inkscape:collect="always"
       xlink:href="#linearGradient3850"
       id="radialGradient3856"
       cx="64"
       cy="988.36218"
       fx="64"
       fy="988.36218"
       r="48"
       gradientTransform="matrix(1.0101552,-0.94785961,0.95559538,1.0183994,-945.1243,42.477728)"
       gradientUnits="userSpaceOnUse" />
    <radialGradient
       inkscape:collect="always"
       xlink:href="#linearGradient3850-2"
       id="radialGradient3856-4"
       cx="64"
       cy="988.36218"
       fx="64"
       fy="988.36218"
       r="48"
       gradientTransform="matrix(1.0101552,-0.94785961,0.95559538,1.0183994,-945.1243,42.477728)"
       gradientUnits="userSpaceOnUse" />
    <linearGradient
       id="linearGradient3850-2">
      <stop
         style="stop-color:#2e2103;stop-opacity:0;"
         offset="0"
         id="stop3852-7" />
      <stop
         id="stop3858-7"
         offset="0.77226532"
         style="stop-color:#644d16;stop-opacity:0.05581395" />
      <stop
         style="stop-color:#594005;stop-opacity:0.51627904"
         offset="1"
         id="stop3854-0" />
    </linearGradient>
    <linearGradient
       inkscape:collect="always"
       xlink:href="#linearGradient3903"
       id="linearGradient3914"
       gradientUnits="userSpaceOnUse"
       gradientTransform="matrix(1.0666667,0,0,1.0666667,-42.666667,1.0666667)"
       x1="62.171169"
       y1="940.96576"
       x2="62.900902"
       y2="1033.7585" />
    <linearGradient
       inkscape:collect="always"
       xlink:href="#linearGradient3988"
       id="linearGradient3916"
       gradientUnits="userSpaceOnUse"
       gradientTransform="matrix(1.0666667,0,0,1.0666667,-42.666667,1.0666667)"
       x1="16.675674"
       y1="985.56036"
       x2="112"
       y2="985.56036" />
    <linearGradient
       inkscape:collect="always"
       xlink:href="#linearGradient3974"
       id="linearGradient3918"
       gradientUnits="userSpaceOnUse"
       gradientTransform="matrix(1.0666667,0,0,1.0666667,-42.666667,1.0666667)"
       x1="112.17117"
       y1="972.49731"
       x2="16.954954"
       y2="972.72253" />
  </defs>
  <sodipodi:namedview
     id="base"
     pagecolor="#ffffff"
     bordercolor="#666666"
     borderopacity="1.0"
     inkscape:pageopacity="1"
     inkscape:pageshadow="2"
     inkscape:zoom="3.760196"
     inkscape:cx="63.566678"
     inkscape:cy="63.248159"
     inkscape:document-units="px"
     inkscape:current-layer="layer1"
     showgrid="false"
     showguides="false"
     inkscape:window-width="1080"
     inkscape:window-height="1823"
     inkscape:window-x="0"
     inkscape:window-y="27"
     inkscape:window-maximized="1"
     borderlayer="true">
    <sodipodi:guide
       position="17.066667,119.46667"
       orientation="96,0"
       id="guide2998"
       inkscape:locked="false" />
    <sodipodi:guide
       position="17.066667,17.066663"
       orientation="0,96"
       id="guide3000"
       inkscape:locked="false" />
    <sodipodi:guide
       position="119.46667,17.066663"
       orientation="-96,0"
       id="guide3002"
       inkscape:locked="false" />
    <sodipodi:guide
       position="119.46667,119.46667"
       orientation="0,-96"
       id="guide3004"
       inkscape:locked="false" />
    <inkscape:grid
       type="xygrid"
       id="grid3011"
       empspacing="5"
       visible="true"
       enabled="true"
       snapvisiblegridlinesonly="true"
       originx="0"
       originy="0"
       spacingx="1.0666667"
       spacingy="1.0666667" />
  </sodipodi:namedview>
  <metadata
     id="metadata7">
    <rdf:RDF>
      <cc:Work
         rdf:about="">
        <dc:format>image/svg+xml</dc:format>
        <dc:type
           rdf:resource="http://purl.org/dc/dcmitype/StillImage" />
        <dc:title />
      </cc:Work>
    </rdf:RDF>
  </metadata>
  <g
     inkscape:label="Layer 1"
     inkscape:groupmode="layer"
     id="layer1"
     transform="translate(0,-985.98633)">
    <path
       style="color:#000000;display:inline;overflow:visible;visibility:visible;fill:#ffffff;fill-opacity:1;stroke:none;stroke-width:2.66666675;marker:none;enable-background:accumulate"
       d="m 17.066667,1004.1197 c 7.175606,0.62 14.186385,0.9653 20.41081,0 l 0.960961,7.8126 c 0.268153,-3.4958 0.729703,-6.5403 1.950751,-7.8126 h 1.292493 c 1.002716,4.044 1.494103,8.088 1.861861,12.1321 0.377411,-3.9571 0.941244,-7.8676 0.08889,-12.1321 15.276076,0.9509 30.552152,0.6372 45.828228,0 l 0.389189,8.7687 c 0.502031,-2.9229 0.688003,-5.8458 2.402407,-8.7687 h 9.969963 c 6.80883,3.5939 12.98292,7.9019 17.24445,14.3615 v 23.7838 c -3.80005,2.8942 -8.33897,3.5717 -13.0931,3.6036 4.29103,1.9683 8.49949,2.2161 13.0931,2.6715 v 55.8462 l -51.261652,-2.1333 -1.104191,-5.596 -0.934314,5.596 -49.099842,2.1333 c 0.0044,-9.0301 0.341287,-20.0512 0.611372,-28.9675 0.498854,-3.6093 7.401406,-3.4053 9.820759,-4.0782 -1.945853,-1.8444 -9.461207,-1.9243 -9.6335,-2.7644 0.263447,-11.2261 0.260684,-22.5663 -0.798631,-34.3592 3.465505,-1.7177 7.430347,-2.4366 11.531531,-2.8829 -3.660886,-1.2012 -6.704231,-2.4024 -11.531531,-3.6036 0.741751,-6.0934 0.529651,-14.3267 0,-23.6108 z"
       id="path3006"
       inkscape:connector-curvature="0"
       sodipodi:nodetypes="ccccccccccccccccccccccccccc" />
    <g
       aria-label="DM"
       transform="scale(1.000002,0.999998)"
       style="font-style:normal;font-variant:normal;font-weight:normal;font-stretch:normal;font-size:12.80000019px;line-height:0%;font-family:Arial;-inkscape-font-specification:Arial;text-align:center;letter-spacing:0px;word-spacing:0px;text-anchor:middle;opacity:0.4;fill:#ffffff;fill-opacity:1;stroke:none;stroke-width:1.06666672"
       id="text3013-1">
      <path
         d="m 39.466597,1070.255 h 10.328028 c 8.440847,0 13.175956,-4.4949 13.175956,-12.3181 0,-6.5537 -4.735109,-11.6663 -13.038707,-11.6663 H 39.466597 v 4.5293 h 2.127368 v 14.8916 h -2.127368 z m 9.161407,-4.5635 v -14.8916 h 1.30387 c 3.637113,0 5.146858,3.4655 5.146858,7.137 0,4.289 -1.509745,7.6859 -5.146858,7.7546 z"
         style="font-size:34.31238556px;line-height:1.25;font-family:ChunkFive;-inkscape-font-specification:ChunkFive;fill:#ffffff;stroke-width:1.06666672"
         id="path97" />
      <path
         d="m 88.145686,1052.3096 v 2.0245 11.4603 h -1.921494 v 4.4606 h 10.842714 v -4.4606 h -1.887181 v -15.0975 h 1.887181 v -4.4263 H 83.993887 l -3.293989,12.8329 -3.465551,-12.8329 H 64.229953 v 4.4263 h 1.818557 v 15.1318 h -1.852869 v 4.4263 h 9.298656 v -4.4263 h -1.955806 v -13.5191 h 0.13725 c 0.102937,1.7156 0.548998,3.6715 0.72056,4.2548 l 3.842987,13.6906 h 7.171289 l 3.6028,-13.3475 c 0.240187,-0.7892 0.72056,-3.0538 0.995059,-4.5979 z"
         style="font-size:34.31238556px;line-height:1.25;font-family:ChunkFive;-inkscape-font-specification:ChunkFive;fill:#ffffff;stroke-width:1.06666672"
         id="path99" />
    </g>
    <g
       aria-label="DM"
       transform="scale(1.000002,0.999998)"
       style="color:#000000;font-style:normal;font-variant:normal;font-weight:normal;font-stretch:normal;font-size:12.80000019px;line-height:0%;font-family:ChunkFive;-inkscape-font-specification:ChunkFive;text-align:center;letter-spacing:0px;word-spacing:0px;text-anchor:middle;display:inline;overflow:visible;visibility:visible;fill:url(#linearGradient3820);fill-opacity:1;fill-rule:nonzero;stroke:none;stroke-width:2.68799996;marker:none;enable-background:accumulate"
       id="text3013">
      <path
         d="m 39.466597,1068.1217 h 10.328028 c 8.440847,0 13.175956,-4.4949 13.175956,-12.3181 0,-6.5537 -4.735109,-11.6663 -13.038707,-11.6663 H 39.466597 v 4.5293 h 2.127368 v 14.8916 h -2.127368 z m 9.161407,-4.5635 v -14.8916 h 1.30387 c 3.637113,0 5.146858,3.4655 5.146858,7.137 0,4.289 -1.509745,7.6859 -5.146858,7.7546 z"
         style="color:#000000;font-size:34.31238556px;line-height:1.25;font-family:ChunkFive;-inkscape-font-specification:ChunkFive;display:inline;overflow:visible;visibility:visible;fill:url(#linearGradient3820);fill-opacity:1;fill-rule:nonzero;stroke:none;stroke-width:2.68799996;marker:none;enable-background:accumulate"
         id="path92" />
      <path
         d="m 88.145686,1050.1763 v 2.0245 11.4603 h -1.921494 v 4.4606 h 10.842714 v -4.4606 h -1.887181 v -15.0975 h 1.887181 v -4.4263 H 83.993887 l -3.293989,12.8329 -3.465551,-12.8329 H 64.229953 v 4.4263 h 1.818557 v 15.1318 h -1.852869 v 4.4263 h 9.298656 v -4.4263 h -1.955806 v -13.5191 h 0.13725 c 0.102937,1.7156 0.548998,3.6715 0.72056,4.2548 l 3.842987,13.6906 h 7.171289 l 3.6028,-13.3475 c 0.240187,-0.7892 0.72056,-3.0538 0.995059,-4.5979 z"
         style="color:#000000;font-size:34.31238556px;line-height:1.25;font-family:ChunkFive;-inkscape-font-specification:ChunkFive;display:inline;overflow:visible;visibility:visible;fill:url(#linearGradient3820);fill-opacity:1;fill-rule:nonzero;stroke:none;stroke-width:2.68799996;marker:none;enable-background:accumulate"
         id="path94" />
    </g>
    <g
       id="g3909"
       transform="translate(42.666667)">
      <path
         sodipodi:nodetypes="ccccccccccccccccccccccccccc"
         inkscape:connector-curvature="0"
         id="path3006-4"
         d="m -25.6,1004.1197 c 7.175606,0.62 14.186385,0.9653 20.4108107,0 l 0.960961,7.8126 c 0.2681526,-3.4958 0.7297024,-6.5403 1.950751,-7.8126 h 1.29249277 c 1.00271573,4.044 1.4941024,8.088 1.86186133,12.1321 0.3774101,-3.9571 0.9412437,-7.8676 0.0888853,-12.1321 15.2760759,0.9509 30.5521529,0.6372 45.8282279,0 l 0.38919,8.7687 c 0.502031,-2.9229 0.688002,-5.8458 2.402406,-8.7687 h 9.969969 c 6.808829,3.5939 12.98292,7.9019 17.244445,14.3615 v 23.7838 c -3.800043,2.8942 -8.338965,3.5717 -13.093093,3.6036 4.291024,1.9683 8.499482,2.2161 13.093093,2.6715 v 55.8462 l -51.261652,-2.1333 -1.104191,-5.596 -0.934315,5.596 -49.099842,2.1333 c 0.0044,-9.0301 0.341287,-20.0512 0.611373,-28.9675 0.498853,-3.6093 7.401406,-3.4053 9.820758,-4.0783 -1.945853,-1.8443 -9.461206,-1.9243 -9.6335,-2.7643 0.263447,-11.2261 0.260684,-22.5663 -0.798631,-34.3592 3.465505,-1.7177 7.430348,-2.4366 11.531532,-2.8829 -3.660887,-1.2012 -6.704232,-2.4024 -11.531532,-3.6036 0.741751,-6.0934 0.529651,-14.3267 0,-23.6108 z"
         style="color:#000000;display:inline;overflow:visible;visibility:visible;opacity:0.2;fill:url(#linearGradient3914);fill-opacity:1;stroke:none;stroke-width:2.66666675;marker:none;enable-background:accumulate" />
      <path
         sodipodi:nodetypes="cccccccccccc"
         inkscape:connector-curvature="0"
         id="path3970"
         d="m -24.7,1053.8196 c 0.05132,4.9564 0.01464,9.8815 -0.1,14.7667 0.172293,0.84 7.687481,0.9224 9.633333,2.7667 -2.419352,0.673 -9.33448,0.4573 -9.833333,4.0666 -0.270085,8.9164 -0.595627,19.9366 -0.6,28.9667 l 49.1,-2.1333 0.933333,-5.6 1.1,5.6 51.266667,2.1333 v -49.4666 l -51.966667,-2.4334 z"
         style="color:#000000;display:inline;overflow:visible;visibility:visible;opacity:0.1;fill:url(#linearGradient3916);fill-opacity:1;stroke:none;stroke-width:2.66666675;marker:none;enable-background:accumulate" />
      <path
         inkscape:connector-curvature="0"
         id="path3006-4-0"
         d="m -24.7,1053.8197 49.533333,-1.3334 51.966667,2.4334 v -6.3667 c -4.593611,-0.4554 -8.808971,-0.7317 -13.1,-2.7 4.754133,-0.032 9.299957,-0.7058 13.1,-3.6 v -23.7667 c -4.261525,-6.4596 -10.424501,-10.7727 -17.233333,-14.3666 H 49.6 c -1.714404,2.9229 -1.931302,5.8437 -2.433333,8.7666 L 46.8,1004.1197 c -15.276076,0.6372 -30.557258,0.9509 -45.83333333,0 0.85235843,4.2645 0.27741013,8.1762 -0.1,12.1333 C 0.49890773,1012.2089 0.00271573,1008.1637 -1,1004.1197 h -1.2666667 c -1.2210485,1.2723 -1.6985141,4.3042 -1.9666666,7.8 L -5.2,1004.1197 c -6.224426,0.9653 -13.224394,0.62 -20.4,0 0.529651,9.2841 0.741751,17.5066 0,23.6 4.8273,1.2012 7.872447,2.3988 11.533333,3.6 -4.101184,0.4462 -8.067828,1.1823 -11.533333,2.9 0.598334,6.661 0.833398,13.1668 0.9,19.6 z"
         style="color:#000000;display:inline;overflow:visible;visibility:visible;opacity:0.1;fill:url(#linearGradient3918);fill-opacity:1;stroke:none;stroke-width:2.66666675;marker:none;enable-background:accumulate" />
    </g>
    <path
       style="color:#000000;display:inline;overflow:visible;visibility:visible;fill:#7e542a;fill-opacity:1;fill-rule:nonzero;stroke:none;stroke-width:2.68799996;marker:none;enable-background:accumulate"
       d="m 103.65885,1007.227 c -0.26072,5.0071 1.32756,8.7342 0.532,13.6465 5.45302,-2.278 7.24254,-2.685 11.92104,-3.3556 0,0 -1.18913,-2.7748 -5.39333,-6.1382 -4.2042,-3.3633 -7.05971,-4.1527 -7.05971,-4.1527 z"
       id="path3028-3"
       inkscape:connector-curvature="0"
       sodipodi:nodetypes="cccsc" />
    <path
       style="color:#000000;display:inline;overflow:visible;visibility:visible;fill:url(#linearGradient3804);fill-opacity:1;stroke:none;stroke-width:2.66666675;marker:none;enable-background:accumulate"
       d="m 102.1021,1004.1869 c 1.13702,5.0974 2.23881,10.2475 2.58258,15.1952 6.03145,-2.6499 10.47692,-1.7247 14.77478,-0.7808 0,0 -3.36336,-4.9249 -7.56757,-8.2882 -4.2042,-3.3634 -9.78979,-6.1262 -9.78979,-6.1262 z"
       id="path3028"
       inkscape:connector-curvature="0"
       sodipodi:nodetypes="cccsc" />
  </g>
</svg>
