<svg xmlns="http://www.w3.org/2000/svg" xmlns:xlink="http://www.w3.org/1999/xlink" width="136.533" height="136.533"><defs><linearGradient id="b"><stop offset="0" stop-color="#be7d3e"/><stop offset="1" stop-color="#8b5b2d"/></linearGradient><linearGradient id="a"><stop offset="0" stop-color="#faf2e5"/><stop offset="1" stop-color="#f0d8ad"/></linearGradient><linearGradient id="d"><stop offset="0" stop-color="#fff" stop-opacity="0"/><stop offset=".395" stop-color="#fff" stop-opacity=".498"/><stop offset=".496" stop-color="#fff"/><stop offset=".497" stop-color="#b68222"/><stop offset="1" stop-color="#eccf9a" stop-opacity="0"/></linearGradient><linearGradient id="e"><stop offset="0" stop-color="#fff" stop-opacity="0"/><stop offset=".401" stop-color="#fff" stop-opacity=".498"/><stop offset=".504" stop-color="#fff"/><stop offset=".509" stop-color="#b68222"/><stop offset="1" stop-color="#eccf9a" stop-opacity="0"/></linearGradient><linearGradient id="c"><stop offset="0" stop-color="#fff" stop-opacity="0"/><stop offset=".385" stop-color="#fff" stop-opacity=".498"/><stop offset=".478" stop-color="#fff"/><stop offset=".486" stop-color="#b68222"/><stop offset="1" stop-color="#eccf9a" stop-opacity="0"/></linearGradient><linearGradient xlink:href="#a" id="j" x1="105.515" y1="20.399" x2="97.74" y2="28.76" gradientUnits="userSpaceOnUse" gradientTransform="translate(0 987.053) scale(1.06667)"/><linearGradient xlink:href="#b" id="f" x1="64.027" y1="999.933" x2="63.748" y2="977.86" gradientUnits="userSpaceOnUse" gradientTransform="translate(0 1.067) scale(1.06667)"/><linearGradient xlink:href="#c" id="g" gradientUnits="userSpaceOnUse" gradientTransform="translate(-42.667 1.067) scale(1.06667)" x1="62.171" y1="940.966" x2="62.901" y2="1033.758"/><linearGradient xlink:href="#d" id="h" gradientUnits="userSpaceOnUse" gradientTransform="translate(-42.667 1.067) scale(1.06667)" x1="16.676" y1="985.56" x2="112" y2="985.56"/><linearGradient xlink:href="#e" id="i" gradientUnits="userSpaceOnUse" gradientTransform="translate(-42.667 1.067) scale(1.06667)" x1="112.171" y1="972.497" x2="16.955" y2="972.723"/></defs><path d="M17.067 18.133c7.175.62 14.186.966 20.41 0l.96 7.813c.27-3.496.73-6.54 1.952-7.813h1.29c1 4.044 1.49 8.088 1.86 12.132.37-3.957.94-7.867.09-12.132 15.27.95 30.55.638 45.83 0l.39 8.77c.5-2.924.68-5.847 2.4-8.77h9.97c6.81 3.594 12.98 7.902 17.24 14.362V56.28c-3.8 2.893-8.34 3.57-13.1 3.602 4.29 1.97 8.5 2.216 13.093 2.672V118.4l-51.26-2.133-1.104-5.596-.934 5.6-49.1 2.14c.003-9.03.34-20.05.61-28.962.5-3.61 7.4-3.405 9.82-4.08-1.95-1.843-9.463-1.923-9.636-2.763.265-11.225.26-22.565-.8-34.36 3.468-1.716 7.43-2.435 11.53-2.88-3.66-1.2-6.7-2.404-11.53-3.605.74-6.093.53-14.327 0-23.61z" color="#000" overflow="visible" fill="#fff"/><path d="M39.467 84.267h10.328c8.44 0 13.176-4.495 13.176-12.32 0-6.552-4.73-11.665-13.03-11.665H39.47v4.53h2.127V79.7H39.47zm9.16-4.564V64.81h1.305c3.637 0 5.147 3.467 5.147 7.138 0 4.29-1.51 7.686-5.15 7.755zm39.52-13.383v13.486h-1.923v4.46h10.843v-4.46H95.18V64.708h1.887v-4.426H83.994L80.7 73.115l-3.465-12.833H64.23v4.426h1.82V79.84h-1.854v4.427h9.298V79.84H71.54V66.32h.136c.103 1.717.55 3.673.72 4.256l3.843 13.69h7.17l3.6-13.346c.24-.79.72-3.057.99-4.6z" style="line-height:1.25;-inkscape-font-specification:ChunkFive" font-size="34.312" font-family="ChunkFive" letter-spacing="0" word-spacing="0" text-anchor="middle" opacity=".4" fill="#fff"/><path d="M39.467 1068.122h10.328c8.44 0 13.176-4.495 13.176-12.318 0-6.554-4.73-11.667-13.03-11.667H39.47v4.53h2.127v14.89H39.47zm9.16-4.564v-14.89h1.305c3.637 0 5.147 3.464 5.147 7.136 0 4.29-1.51 7.685-5.15 7.754zm39.52-13.382v13.484h-1.923v4.462h10.843v-4.46H95.18v-15.098h1.887v-4.427H83.994L80.7 1056.97l-3.466-12.833H64.23v4.427h1.82v15.13h-1.854v4.428h9.298v-4.427h-1.956v-13.52h.138c.103 1.717.55 3.673.72 4.256l3.843 13.7h7.17l3.6-13.35c.24-.79.72-3.05.99-4.6z" style="line-height:1.25;-inkscape-font-specification:ChunkFive" overflow="visible" transform="translate(0 -985.986)" color="#000" font-size="34.312" font-family="ChunkFive" letter-spacing="0" word-spacing="0" text-anchor="middle" fill="url(#f)"/><g color="#000"><path d="M-25.6 1004.12c7.176.62 14.186.965 20.41 0l.962 7.812c.268-3.496.73-6.54 1.95-7.812h1.293c1.003 4.044 1.494 8.088 1.862 12.132.377-3.957.94-7.868.09-12.132 15.275.95 30.55.637 45.827 0l.39 8.768c.5-2.923.687-5.845 2.402-8.768h9.97c6.808 3.594 12.982 7.902 17.244 14.36v23.785c-3.8 2.894-8.34 3.572-13.093 3.604 4.29 1.96 8.5 2.21 13.093 2.67v55.84l-51.262-2.14-1.104-5.598-.934 5.596-49.1 2.135c.004-9.03.34-20.05.61-28.967.5-3.61 7.403-3.408 9.822-4.08-1.946-1.845-9.46-1.925-9.633-2.765.26-11.224.26-22.564-.8-34.36 3.46-1.715 7.43-2.434 11.53-2.88-3.66-1.2-6.71-2.4-11.53-3.603.74-6.095.53-14.328 0-23.61z" overflow="visible" opacity=".2" fill="url(#g)" transform="translate(42.667 -985.986)"/><path d="M-24.7 1053.82c.05 4.956.015 9.88-.1 14.766.172.84 7.687.923 9.633 2.767-2.42.673-9.334.457-9.833 4.067-.27 8.916-.596 19.936-.6 28.966l49.1-2.133.933-5.6 1.1 5.6 51.267 2.133v-49.466l-51.967-2.434z" overflow="visible" opacity=".1" fill="url(#h)" transform="translate(42.667 -985.986)"/><path d="M-24.7 1053.82l49.533-1.334 51.967 2.434v-6.367c-4.594-.455-8.81-.732-13.1-2.7 4.754-.032 9.3-.706 13.1-3.6v-23.767c-4.262-6.46-10.425-10.772-17.233-14.366H49.6c-1.714 2.923-1.93 5.843-2.433 8.766l-.367-8.766c-15.276.637-30.557.95-45.833 0 .852 4.264.277 8.176-.1 12.133-.368-4.044-.864-8.09-1.867-12.133h-1.267c-1.22 1.272-1.698 4.304-1.966 7.8l-.967-7.8c-6.224.965-13.224.62-20.4 0 .53 9.284.742 17.506 0 23.6 4.827 1.2 7.872 2.398 11.533 3.6-4.1.446-8.067 1.182-11.533 2.9.598 6.66.833 13.166.9 19.6z" overflow="visible" opacity=".1" fill="url(#i)" transform="translate(42.667 -985.986)"/></g><path d="M103.66 21.24c-.262 5.008 1.326 8.735.53 13.647 5.454-2.278 7.243-2.685 11.922-3.355 0 0-1.19-2.775-5.393-6.14-4.21-3.362-7.06-4.15-7.06-4.15z" color="#000" overflow="visible" fill="#7e542a"/><path d="M102.102 1004.187c1.137 5.097 2.24 10.247 2.583 15.195 6.03-2.65 10.477-1.725 14.774-.78 0 0-3.37-4.926-7.57-8.29-4.21-3.362-9.79-6.125-9.79-6.125z" color="#000" overflow="visible" fill="url(#j)" transform="translate(0 -985.986)"/></svg>