<?xml version="1.0" encoding="UTF-8"?>
<svg width="192px" height="192px" viewBox="0 0 192 192" version="1.1" xmlns="http://www.w3.org/2000/svg" xmlns:xlink="http://www.w3.org/1999/xlink">
    <defs>
        <path d="M96.5,192 C32.8333333,192 0.666666667,160 0,96 C0,32.3333333 32,0.333333333 96,7.34438552e-16 C192,-0.5 192,96 192,96 C192,96 192,192 96.5,192 Z" id="path-1"></path>
        <filter x="-3.4%" y="-3.4%" width="106.8%" height="106.8%" filterUnits="objectBoundingBox" id="filter-2">
            <feMorphology radius="0.5" operator="dilate" in="SourceAlpha" result="shadowSpreadOuter1"></feMorphology>
            <feOffset dx="0" dy="0" in="shadowSpreadOuter1" result="shadowOffsetOuter1"></feOffset>
            <feGaussianBlur stdDeviation="2" in="shadowOffsetOuter1" result="shadowBlurOuter1"></feGaussianBlur>
            <feComposite in="shadowBlurOuter1" in2="SourceAlpha" operator="out" result="shadowBlurOuter1"></feComposite>
            <feColorMatrix values="0 0 0 0 0   0 0 0 0 0   0 0 0 0 0  0 0 0 0.5 0" type="matrix" in="shadowBlurOuter1"></feColorMatrix>
        </filter>
    </defs>
    <g id="Artboard" stroke="none" stroke-width="1" fill="none" fill-rule="evenodd">
        <g id="Circle">
            <use fill="black" fill-opacity="1" filter="url(#filter-2)" xlink:href="#path-1"></use>
            <use stroke="#333333" stroke-width="1" fill="#F8F8F8" fill-rule="evenodd" xlink:href="#path-1"></use>
        </g>
        <path d="M48.3,114.6 C48.3,118.533353 48.699996,120.866663 49.5,121.6 C50.100003,122.200003 50.8833285,122.566666 51.85,122.7 C52.8166715,122.833334 54.999983,122.9 58.4,122.9 L67.2,122.9 C71.800023,122.9 74.866659,122.283339 76.4,121.05 C77.933341,119.81666 78.7,117.333352 78.7,113.6 C78.7,112.599995 78.666667,111.43334 78.6,110.1 C78.466666,107.499987 78.4,105.933336 78.4,105.4 C78.4,102.466652 79.566655,101 81.9,101 C84.700014,101 86.1,102.33332 86.1,105 C86.1,105.800004 86.066667,106.433331 86,106.9 L85.3,112 C85.099999,113.466674 85,114.999992 85,116.6 C85,117.533338 85.0833325,118.916657 85.25,120.75 C85.4166675,122.583343 85.5,123.966662 85.5,124.9 C85.5,127.900015 83.800017,129.4 80.4,129.4 C79.73333,129.4 78.200012,129.333334 75.8,129.2 C74.199992,129.133333 71.73335,129.066667 68.4,129 L60.9,128.9 L44.9,128.9 C43.299992,128.9 40.633352,128.966666 36.9,129.1 C36.366664,129.1 35.4500065,129.166666 34.15,129.3 C32.8499935,129.433334 31.833337,129.5 31.1,129.5 C28.299986,129.5 26.9,128.300012 26.9,125.9 C26.9,123.766656 27.933323,122.7 30,122.7 C30.533336,122.7 31.333328,122.783333 32.4,122.95 C33.466672,123.116668 34.266664,123.2 34.8,123.2 C38.200017,123.2 39.9,120.700025 39.9,115.7 L39.9,75.6 C39.9,70.666642 38.200017,68.2 34.8,68.2 C33.866662,68.2 33.166669,68.266666 32.7,68.4 C31.633328,68.600001 30.733337,68.7 30,68.7 C29.133329,68.7 28.400003,68.3833365 27.8,67.75 C27.199997,67.1166635 26.9,66.333338 26.9,65.4 C26.9,63.066655 28.333319,61.9 31.2,61.9 C31.600002,61.9 32.099997,61.933333 32.7,62 L38,62.6 C40.933348,62.933335 43.099993,63.1 44.5,63.1 C46.233342,63.1 48.366654,62.933335 50.9,62.6 L55.5,62 C56.033336,61.933333 56.466665,61.9 56.8,61.9 C59.800015,61.9 61.3,63.066655 61.3,65.4 C61.3,66.333338 61.000003,67.1166635 60.4,67.75 C59.799997,68.3833365 59.066671,68.7 58.2,68.7 C57.53333,68.7 56.633339,68.600001 55.5,68.4 C55.033331,68.266666 54.333338,68.2 53.4,68.2 C49.999983,68.2 48.3,70.666642 48.3,75.6 L48.3,114.6 Z M111.8,90.5 L143.8,90.5 L143.8,75.8 C143.8,70.799975 142.100017,68.3 138.7,68.3 C138.299998,68.3 137.583339,68.399999 136.55,68.6 C135.516661,68.800001 134.633337,68.9 133.9,68.9 C131.766656,68.9 130.7,67.800011 130.7,65.6 C130.7,63.199988 132.133319,62 135,62 C135.933338,62 137.633321,62.199998 140.1,62.6 C142.566679,63.000002 144.833323,63.2 146.9,63.2 C150.23335,63.2 153.56665,62.966669 156.9,62.5 C158.833343,62.233332 160.099997,62.1 160.7,62.1 C163.633348,62.1 165.1,63.266655 165.1,65.6 C165.1,67.733344 164.066677,68.8 162,68.8 C161.466664,68.8 160.666672,68.7166675 159.6,68.55 C158.533328,68.3833325 157.733336,68.3 157.2,68.3 C153.799983,68.3 152.1,70.799975 152.1,75.8 L152.1,115.7 C152.1,120.700025 153.76665,123.2 157.1,123.2 C157.633336,123.2 158.449995,123.116668 159.55,122.95 C160.650005,122.783333 161.466664,122.7 162,122.7 C164.066677,122.7 165.1,123.766656 165.1,125.9 C165.1,128.300012 163.633348,129.5 160.7,129.5 C160.099997,129.5 158.80001,129.300002 156.8,128.9 C154.466655,128.433331 151.933347,128.2 149.2,128.2 C145.533315,128.2 142.433346,128.399998 139.9,128.8 C136.966652,129.266669 135.366668,129.5 135.1,129.5 C132.166652,129.5 130.7,128.300012 130.7,125.9 C130.7,123.699989 131.766656,122.6 133.9,122.6 C134.433336,122.6 135.233328,122.683333 136.3,122.85 C137.366672,123.016668 138.166664,123.1 138.7,123.1 C141.500014,123.1 143.166664,121.266685 143.7,117.6 C143.766667,117.133331 143.8,114.133361 143.8,108.6 L143.8,97.3 L111.8,97.3 L111.8,108.7 C111.8,114.233361 111.833333,117.233331 111.9,117.7 C112.433336,121.366685 114.099986,123.2 116.9,123.2 C117.433336,123.2 118.249995,123.116668 119.35,122.95 C120.450006,122.783333 121.266664,122.7 121.8,122.7 C123.866677,122.7 124.9,123.766656 124.9,125.9 C124.9,128.300012 123.433348,129.5 120.5,129.5 C120.033331,129.5 118.600012,129.300002 116.2,128.9 C112.999984,128.366664 110.200012,128.1 107.8,128.1 C104.999986,128.1 102.000016,128.366664 98.8,128.9 L96.4,129.3 C95.599996,129.433334 95.166667,129.5 95.1,129.5 C92.033318,129.5 90.5,128.300012 90.5,125.9 C90.5,125.033329 90.8166635,124.26667 91.45,123.6 C92.0833365,122.93333 92.833329,122.6 93.7,122.6 C94.300003,122.6 95.199994,122.699999 96.4,122.9 C97.133337,123.100001 97.83333,123.2 98.5,123.2 C101.900017,123.2 103.6,120.700025 103.6,115.7 L103.6,75.6 C103.6,70.599975 101.900017,68.1 98.5,68.1 C98.033331,68.1 97.300005,68.199999 96.3,68.4 C95.299995,68.600001 94.433337,68.7 93.7,68.7 C92.833329,68.7 92.0833365,68.36667 91.45,67.7 C90.8166635,67.03333 90.5,66.266671 90.5,65.4 C90.5,63.066655 92.033318,61.9 95.1,61.9 C95.700003,61.9 96.933324,62.066665 98.8,62.4 C101.333346,62.866669 104.433315,63.1 108.1,63.1 C109.500007,63.1 111.58332,62.900002 114.35,62.5 C117.116681,62.099998 119.16666,61.9 120.5,61.9 C123.433348,61.9 124.9,63.099988 124.9,65.5 C124.9,66.433338 124.600003,67.2166635 124,67.85 C123.399997,68.4833365 122.666671,68.8 121.8,68.8 C121.066663,68.8 120.166672,68.700001 119.1,68.5 C118.033328,68.299999 117.300002,68.2 116.9,68.2 C113.633317,68.2 111.966667,70.699975 111.9,75.7 L111.8,90.5 Z" id="LH" fill="#F05F40" fill-rule="nonzero"></path>
    </g>
</svg>