<svg xmlns="http://www.w3.org/2000/svg" viewBox="0 0 100 100"><path d="M 81.94542040189171 74.07260092608193 A 40 40 0 1 0 18.054579598108276 74.07260092608192" fill="none" stroke="rgba(0, 0, 0, 0.2)" transform="translate(0, 4)" style="stroke-width: 20px;"></path><path d="M 81.94542040189171 74.07260092608193 A 40 40 0 1 0 18.054579598108276 74.07260092608192" fill="none" stroke="rgb(255, 255, 255)" transform="" style="stroke-width: 20px;"></path><g transform="rotate(-90 50 50)"><path d="M 28.214438599398918 83.54682271781697 A 40 40 0 1 0 28.214438599398918 16.453177282183034" stroke="#7e0023" fill="none" style="stroke-width: 15px;"></path><path d="M 51.495647771053044 89.97202819153594 A 40 40 0 1 0 28.214438599398918 16.453177282183034" stroke="#660099" fill="none" style="stroke-width: 15px;"></path><path d="M 88.1336532282385 62.07578119495607 A 40 40 0 0 0 28.214438599398918 16.453177282183034" stroke="#cc0033" fill="none" style="stroke-width: 15px;"></path><path d="M 88.1336532282385 37.924218805043914 A 40 40 0 0 0 28.214438599398918 16.453177282183034" stroke="#ff9933" fill="none" style="stroke-width: 15px;"></path><path d="M 74.23160175363279 18.175018044728755 A 40 40 0 0 0 28.214438599398918 16.453177282183034" stroke="#ffde33" fill="none" style="stroke-width: 15px;"></path><path d="M 51.49564777105303 10.02797180846406 A 40 40 0 0 0 28.214438599398918 16.453177282183034" stroke="#009966" fill="none" style="stroke-width: 15px;"></path></g><g transform="translate(0, 1)"><g transform="rotate(-123 50 50)"><polygon points="0.5,0 2.5,0 3,60 0,60" fill="rgba(0, 0, 0, 0.3)" transform="rotate(9.84 50 50) translate(48.5,1)"></polygon></g></g><g transform=""><g transform="rotate(-123 50 50)"><polygon points="0.5,0 2.5,0 3,60 0,60" fill="black" transform="rotate(9.84 50 50) translate(48.5,1)"></polygon></g></g><circle cx="50" cy="50" r="4"></circle></svg>