<?xml version="1.0" encoding="UTF-8" standalone="no"?>
<svg
   xmlns:dc="http://purl.org/dc/elements/1.1/"
   xmlns:cc="http://creativecommons.org/ns#"
   xmlns:rdf="http://www.w3.org/1999/02/22-rdf-syntax-ns#"
   xmlns:svg="http://www.w3.org/2000/svg"
   xmlns="http://www.w3.org/2000/svg"
   xmlns:sodipodi="http://sodipodi.sourceforge.net/DTD/sodipodi-0.dtd"
   xmlns:inkscape="http://www.inkscape.org/namespaces/inkscape"
   id="Layer_3"
   data-name="Layer 3"
   viewBox="0 0 600 600"
   version="1.1"
   sodipodi:docname="devmind.svg"
   inkscape:version="0.92.3 (2405546, 2018-03-11)">
  <metadata
     id="metadata23">
    <rdf:RDF>
      <cc:Work
         rdf:about="">
        <dc:format>image/svg+xml</dc:format>
        <dc:type
           rdf:resource="http://purl.org/dc/dcmitype/StillImage" />
        <dc:title>Artboard 1</dc:title>
      </cc:Work>
    </rdf:RDF>
  </metadata>
  <sodipodi:namedview
     pagecolor="#ffffff"
     bordercolor="#666666"
     borderopacity="1"
     objecttolerance="10"
     gridtolerance="10"
     guidetolerance="10"
     inkscape:pageopacity="0"
     inkscape:pageshadow="2"
     inkscape:window-width="1600"
     inkscape:window-height="847"
     id="namedview21"
     showgrid="false"
     inkscape:zoom="0.40953268"
     inkscape:cx="-254.09137"
     inkscape:cy="283.59712"
     inkscape:window-x="-8"
     inkscape:window-y="-8"
     inkscape:window-maximized="1"
     inkscape:current-layer="Layer_3" />
  <defs
     id="defs12">
    <style
       id="style10">.cls-1{fill:#01aaed;}.cls-2{fill:#fff;}</style>
  </defs>
  <title
     id="title14">Artboard 1</title>
  <rect
     style="fill:#01aaed;fill-opacity:1;stroke:none;stroke-width:4.52609253;stroke-miterlimit:4;stroke-dasharray:none;stroke-opacity:1"
     id="rect25"
     width="512"
     height="512"
     x="44"
     y="44"
     rx="53.719769"
     ry="53.719769" />
  <path
     inkscape:connector-curvature="0"
     class="cls-2"
     d="m 280.43225,425.17028 -88.50997,61.41 a 4.66,4.66 0 0 1 -0.68,0.4 c -3,1.48 -23.24,10.44 -28.49,-12.28 a 5.38,5.38 0 0 1 -0.13,-1.2 v -67.21 a 5.22,5.22 0 0 1 0.6,-2.45 c 1.27,-2.46 5.15,-6.52 15.71,-13.08 11.85,-7.36 95.99997,-66.13 119.14997,-82.74 a 5.3,5.3 0 0 0 0,-8.58 l -40.06,-29.37 a 5.3,5.3 0 0 0 -8.43,4.27 v 53 c 0,0 0,12.69 -14.49997,14.5 -14.5,1.81 -59.81,0 -59.81,0 0,0 -12.69,0 -12.69,-14.5 V 126.86029 a 5.31,5.31 0 0 1 0.24,-1.58 c 1.46,-4.58 10,-26.150005 36,-8.24001 29,19.94001 222.93997,163.13 222.93997,163.13 0,0 32.46,23.44 3.84,46.94 a 4.59,4.59 0 0 1 -0.44,0.33 z"
     id="path18-1"
     style="fill:#ffffff" />
</svg>
