<?xml version="1.0" standalone="no"?>
<!DOCTYPE svg PUBLIC "-//W3C//DTD SVG 20010904//EN"
 "http://www.w3.org/TR/2001/REC-SVG-20010904/DTD/svg10.dtd">
<svg version="1.0" xmlns="http://www.w3.org/2000/svg"
 width="200.000000pt" height="200.000000pt" viewBox="0 0 200.000000 200.000000"
 preserveAspectRatio="xMidYMid meet">
<metadata>
Created by potrace 1.14, written by Peter Selinger 2001-2017
</metadata>
<g transform="translate(0.000000,200.000000) scale(0.100000,-0.100000)"
fill="#000000" stroke="none">
<path d="M249 1954 c-85 -26 -140 -71 -179 -148 l-35 -69 -3 -715 c-3 -790 -4
-772 60 -868 26 -38 48 -57 102 -84 l69 -35 736 0 736 0 67 33 c70 34 105 71
141 150 22 47 22 47 22 782 l0 735 -33 68 c-40 80 -96 127 -183 151 -79 23
-1428 23 -1500 0z m1442 -94 c73 -14 122 -48 150 -107 l24 -48 0 -690 c0 -379
-4 -707 -8 -728 l-8 -38 -25 48 c-29 55 -62 93 -80 93 -6 0 -17 7 -24 15 -7 9
-29 23 -49 32 -20 9 -61 33 -91 54 -49 32 -58 43 -73 93 l-18 56 36 35 c38 39
45 78 22 118 -7 12 -12 29 -11 37 1 8 2 20 3 27 1 13 56 43 79 43 8 0 21 8 28
18 16 20 18 88 4 97 -5 3 -10 21 -10 40 0 25 -8 40 -32 60 -48 41 -71 74 -73
109 -5 79 -67 150 -190 217 -18 10 -31 26 -33 40 -2 13 -11 33 -21 44 -9 11
-30 39 -45 63 -16 23 -32 42 -36 42 -4 0 -24 13 -45 30 -52 41 -101 53 -162
39 -136 -32 -408 -119 -471 -151 -78 -40 -134 -144 -117 -220 4 -18 8 -60 9
-93 1 -57 0 -60 -23 -60 -15 0 -27 -8 -31 -20 -4 -12 -15 -27 -25 -35 -23 -19
-45 -64 -45 -93 0 -14 7 -41 15 -60 21 -51 19 -97 -8 -137 -15 -23 -23 -47
-21 -70 2 -42 60 -169 77 -171 7 -1 32 -1 57 0 43 2 46 1 58 -31 6 -19 12 -42
12 -51 0 -9 5 -17 10 -17 6 0 10 -7 10 -15 0 -17 56 -55 81 -55 10 0 20 -16
28 -43 16 -53 25 -63 70 -84 220 -100 261 -122 261 -143 l0 -22 -328 4 c-320
3 -328 3 -375 27 -62 30 -95 80 -108 162 -6 39 -9 320 -7 724 3 609 4 663 21
700 31 69 70 99 150 115 62 12 1323 12 1388 0z m-606 -244 c44 -23 136 -115
147 -148 8 -23 7 -33 -3 -43 -13 -13 -221 -70 -298 -82 -37 -6 -127 11 -178
33 -30 13 -32 17 -28 58 2 32 -1 46 -11 50 -8 3 -14 12 -14 19 0 27 36 46 125
67 50 11 98 25 107 30 10 6 29 10 42 10 14 0 28 5 31 10 9 14 48 12 80 -4z
m-460 -116 c18 -7 19 -8 3 -15 -24 -9 -23 -41 2 -72 11 -14 20 -31 20 -39 0
-16 -111 -124 -127 -124 -7 0 -22 9 -33 20 -38 38 -22 171 25 210 8 7 15 10
15 6 0 -4 12 0 28 8 31 17 39 18 67 6z m758 -205 c53 -50 28 -145 -38 -145
-27 0 -39 7 -59 33 -31 40 -31 48 -10 90 29 55 63 62 107 22z m-325 -182 c18
-30 -13 -58 -91 -83 -39 -12 -82 -27 -94 -33 -32 -15 -77 16 -67 46 3 12 7 22
8 22 0 0 21 10 44 23 24 12 52 22 62 22 11 0 22 5 25 10 3 6 28 10 55 10 36 0
52 -5 58 -17z m-548 -21 c17 -14 22 -29 23 -74 1 -63 -13 -88 -49 -88 -31 0
-74 57 -74 100 0 35 32 77 61 79 9 1 27 -7 39 -17z m1068 -57 c4 -47 -18 -77
-68 -95 -110 -40 -143 -50 -176 -50 -16 0 -45 -4 -64 -10 -19 -5 -49 -11 -65
-14 -17 -3 -57 -15 -90 -26 -92 -32 -165 -51 -215 -57 -25 -3 -49 -9 -54 -14
-6 -5 -23 -9 -38 -9 -16 0 -36 -4 -46 -9 -31 -15 -86 -30 -160 -42 -39 -7 -72
-16 -72 -20 0 -5 -36 -9 -80 -9 l-80 0 0 40 c0 29 4 40 15 40 8 0 23 4 33 9
29 14 87 31 110 31 11 0 24 5 27 10 3 6 17 10 30 10 13 0 27 5 30 10 3 6 21
10 40 10 19 0 37 5 40 10 3 6 21 10 39 10 17 0 36 4 42 9 5 5 28 12 52 15 104
15 122 19 128 27 3 5 16 9 30 9 14 0 36 7 49 16 14 9 25 14 25 10 0 -3 12 -1
28 5 15 6 52 13 82 16 30 3 63 9 72 14 9 5 25 9 35 9 21 0 211 57 233 71 8 4
26 7 40 6 20 -2 26 -8 28 -32z m-297 -255 c14 -8 19 -21 19 -49 0 -45 25 -101
46 -101 8 0 14 -4 14 -10 0 -5 8 -10 19 -10 20 0 30 -25 31 -75 1 -41 43 -86
115 -125 54 -28 120 -70 182 -114 12 -9 29 -30 37 -47 50 -101 -10 -119 -395
-119 l-258 0 -7 23 c-4 12 -9 24 -13 27 -3 3 -19 22 -34 43 -15 20 -34 37 -41
37 -8 0 -19 7 -26 15 -6 8 -15 14 -18 13 -4 -1 -25 6 -46 15 -22 10 -51 18
-65 19 -14 2 -34 10 -45 20 -10 9 -31 20 -47 23 -36 8 -51 28 -47 62 2 19 12
33 33 43 26 13 30 20 31 60 1 25 -5 54 -13 65 -15 22 -17 61 -4 70 11 6 156
44 188 49 13 2 28 7 35 12 7 6 27 11 43 13 17 1 53 9 80 18 43 14 110 27 153
32 7 0 22 -4 33 -9z m-608 -157 c2 -5 7 -25 11 -45 5 -30 3 -41 -14 -58 -39
-39 -117 -17 -134 38 -11 34 36 72 90 72 23 0 45 -3 47 -7z"/>
</g>
</svg>
