<?xml version="1.0" encoding="UTF-8"?>
<svg width="195px" height="154px" viewBox="0 0 195 154" version="1.1" xmlns="http://www.w3.org/2000/svg" xmlns:xlink="http://www.w3.org/1999/xlink">
    <!-- Generator: Sketch 46.2 (44496) - http://www.bohemiancoding.com/sketch -->
    <title>Combined Shape</title>
    <desc>Created with Sketch.</desc>
    <defs></defs>
    <g id="Page-1" stroke="none" stroke-width="1" fill="none" fill-rule="evenodd">
        <g id="Artboard-Copy-4" transform="translate(-330.000000, -197.000000)" fill="#000000">
            <path d="M390.323529,324 L353,351 L353,324 L338,324 L338,324 C333.581722,324 330,320.418278 330,316 L330,205 L330,205 C330,200.581722 333.581722,197 338,197 L338,197 L517,197 C521.418278,197 525,200.581722 525,205 L525,316 L525,316 C525,320.418278 521.418278,324 517,324 L390.323529,324 Z M396,260.5 L357,236 L357,285 L396,260.5 Z M402,236 L402,246 L499,246 L499,236 L402,236 Z M402,255 L402,265 L499,265 L499,255 L402,255 Z M402,275 L402,285 L473,285 L473,275 L402,275 Z" id="Combined-Shape"></path>
        </g>
    </g>
</svg>
