<?xml version="1.0" encoding="utf-8"?>
<!-- Generator: Adobe Illustrator 19.1.0, SVG Export Plug-In . SVG Version: 6.00 Build 0)  -->
<svg version="1.1" id="Layer_1" xmlns="http://www.w3.org/2000/svg" xmlns:xlink="http://www.w3.org/1999/xlink" x="0px" y="0px"
	 viewBox="0 0 612 792" style="enable-background:new 0 0 612 792;" xml:space="preserve">
<style type="text/css">
	.st0{fill:#4A148B;}
	.st1{fill:#8D24A9;}
	.st2{fill:#66BA6A;}
</style>
<g>
	<g>
		<path class="st0" d="M471,653c-95.7,0-191.3,0-287,0c-1.3-1.5-2.6-3.1-4-4.5c-20.5-20.5-41-41-61.4-61.5c-1.5-1.5-3.5-2.6-3.6-5.2
			c1.6,0.8,3.3,1.5,4.9,2.4c46.3,27.2,106.2-5.6,107.9-59.3c0.4-12.2,0.1-24.3,0.1-36.5c0-50.3,0.1-100.6-0.1-151
			c0-4.5,0.8-7.1,5.7-7.9s9.6-2.6,14.5-3.7c29.7-7.1,59.9-11,90.3-13.8c25.7-2.4,51.5-3.9,77.3-4.5c2.7-0.1,4.4,0.2,4.4,3.6
			c-0.1,30.5-0.1,61,0,91.5c0,2.8-0.8,3.4-3.5,2.5c-5.6-1.8-11.3-2.8-17.1-3.1c-45.1-2.3-81.1,37.4-74.5,82.2
			c6.2,42.3,47.6,70.1,88.7,59.4c32.9-8.5,54.4-36.7,54.5-71.4c0-84.8,0-169.6,0-254.4c0-2.3,0.1-4.7,0.2-7c1.5,1.3,3,2.7,4.4,4.1
			c28.7,28.7,57.3,57.3,86,86c1.4,1.4,3,2.6,4.4,4c0,85.7,0,171.3,0,257c-1.3,0.7-0.9,2-1.1,3.1c-6.9,40-29.1,67.4-67.1,82
			C487.1,650.1,478.9,650.8,471,653z"/>
		<path class="st1" d="M115,581.9c0,2.5,2.1,3.7,3.6,5.2c20.5,20.5,41,41,61.4,61.5c1.4,1.4,2.6,3,4,4.5c-14,0-28,0-42,0
			c-0.9-1.4-2.4-0.9-3.6-1.1c-39.7-7.1-66.9-29.3-81.5-67c-2.7-7.1-3.2-14.8-5.9-21.8c0-110.7,0-221.3,0-332c1.8-1.7,1.3-4,1.7-6
			c7.9-37.9,29.9-63.8,65.9-77.9c7.9-3.1,16.3-3.9,24.5-6.1c109.3,0,218.7,0,328,0c0.8,1.3,2.1,0.8,3.2,1
			c39.8,6.4,67.3,28.3,82.4,65.6c3.3,8.2,4.2,16.9,6.4,25.4c0,24,0,48,0,72c-1.5-1.3-3-2.6-4.4-4c-28.7-28.7-57.3-57.3-86-86
			c-1.4-1.4-2.9-2.7-4.4-4.1c-1.6-1.7-3.8-1-5.7-1c-34.3,0-68.6,1.2-102.8,3.8c-38.7,3-77.2,7.7-114.9,17.3
			c-20.8,5.3-41.4,11.6-59.9,23.1c-3.7,2.3-5,4.9-5,9.3c0,61.1,0,122.2,0,183.4c0,1.3-0.1,2.7,0,4c0.2,2.5-0.7,3.2-3.2,2.4
			c-5.6-1.8-11.3-3-17.1-3.2c-27.9-0.7-50.1,10.4-64.7,34.1c-15,24.3-14.6,49.5-0.8,74.5c4.3,7.8,10.9,13.7,16.8,20.2
			c0.4,0.3,0.7,0.6,1.1,0.9l-0.1-0.1c0.5,0.7,1.2,1.1,2,1.1h-0.1C114.3,581.3,114.7,581.6,115,581.9C115.1,582,115,581.9,115,581.9z
			"/>
		<path class="st2" d="M111,579c-5.9-6.5-12.5-12.4-16.8-20.2c-13.8-25-14.2-50.1,0.8-74.5c14.6-23.8,36.8-34.9,64.7-34.1
			c5.8,0.2,11.6,1.3,17.1,3.2c2.5,0.8,3.4,0.2,3.2-2.4c-0.1-1.3,0-2.7,0-4c0-61.1,0-122.3-0.1-183.4c0-4.4,1.4-7,5-9.3
			c18.5-11.5,39-17.8,59.9-23.1c37.7-9.6,76.2-14.3,114.9-17.3c34.2-2.6,68.5-3.8,102.8-3.8c1.9,0,4-0.8,5.7,1
			c-0.1,2.3-0.2,4.7-0.2,7c0,84.8,0,169.6,0,254.4c0,34.7-21.6,62.9-54.5,71.4c-41.1,10.6-82.4-17.1-88.7-59.4
			c-6.6-44.8,29.4-84.5,74.5-82.2c5.8,0.3,11.6,1.3,17.1,3.1c2.7,0.9,3.5,0.3,3.5-2.5c-0.1-30.5-0.1-61,0-91.5
			c0-3.4-1.7-3.7-4.4-3.6c-25.8,0.7-51.6,2.2-77.3,4.5c-30.3,2.8-60.6,6.6-90.3,13.8c-4.9,1.2-9.6,2.9-14.5,3.7
			c-4.9,0.8-5.7,3.4-5.7,7.9c0.2,50.3,0.1,100.6,0.1,151c0,12.2,0.2,24.3-0.1,36.5c-1.7,53.7-61.6,86.5-107.9,59.3
			c-1.6-0.9-3.3-1.6-4.9-2.4v0.1c-0.4-0.3-0.7-0.7-1.1-1h0.1c-0.4-0.9-1-1.3-2-1.1l0.1,0.1C112.1,579.2,111.6,579,111,579z"/>
		<path class="st0" d="M112,579.9c1-0.2,1.6,0.2,2,1.1C113.2,581,112.5,580.6,112,579.9z"/>
		<path class="st0" d="M111,579c0.7,0,1.1,0.2,1.1,0.9C111.7,579.7,111.3,579.3,111,579z"/>
		<path class="st0" d="M114,581c0.4,0.3,0.7,0.7,1.1,1C114.7,581.6,114.3,581.3,114,581z"/>
	</g>
</g>
</svg>
