<svg xmlns="http://www.w3.org/2000/svg" viewBox="0 0 303.82471 114.7373">
  <title>EdgyLabs</title>
  <g>
    <g>
      <path d="M1.16032,2.85872H39.76969v9.5498H12.34733V44.46908H34.31217V54.1556H12.34733V90.30892H39.90592v9.82324H1.16032Z" transform="translate(-1.16032 -1.22103)" fill="#59c6e5"/>
      <path d="M59.68717,2.85872H82.74333c12.82422,0,22.64746,6.54785,22.64746,20.46387v54.708c0,15.00684-9.82324,22.10156-22.92041,22.10156H59.68717ZM81.652,90.30892c9.27734,0,12.27881-6.68457,12.27881-12.415V24.41439c0-6.54883-3.82031-11.86914-12.27881-11.86914H70.87419V90.30892Z" transform="translate(-1.16032 -1.22103)" fill="#59c6e5"/>
      <path d="M125.17155,79.53158V23.73177c0-13.50586,9.41406-22.51074,23.73877-22.51074,13.50634,0,22.37451,8.32227,22.37451,19.78223V31.78158H161.05241V22.36751c0-6.958-4.502-11.59668-12.14209-11.59668-9.00439,0-12.415,6.13965-12.415,13.50684V78.71322c0,8.04883,4.50244,12.96,12.415,12.96,9.00439,0,12.00586-5.32031,12.00586-11.86914V57.97591H148.092V48.971h23.46582V80.6224c0,12.415-8.459,20.874-22.51074,20.874C134.72184,101.49642,125.17155,93.58333,125.17155,79.53158Z" transform="translate(-1.16032 -1.22103)" fill="#59c6e5"/>
      <path d="M207.57389,58.65755,188.883,2.722h11.73291l13.2334,42.15625L226.53727,2.722h10.6416l-18.418,56.209v41.20117h-11.187Z" transform="translate(-1.16032 -1.22103)" fill="#59c6e5"/>
    </g>
    <path d="M253.27848,108.04525H304.985v7.91309H253.27848Z" transform="translate(-1.16032 -1.22103)" fill="#487287"/>
  </g>
</svg>

