<svg xmlns="http://www.w3.org/2000/svg" xmlns:xlink="http://www.w3.org/1999/xlink" width="512" height="512" viewBox="0 0 300 300">
  <g>
    <path fill="#ffffff" stroke="#ffffff" stroke-width="0.7" transform="matrix(6.7,0,0,6.7,-117,-114.2)" d="M 39 49 L 36 49 C 35.3 49 34.6 48.7 34 48.1 L 30.4 44.4 C 29.2 43.2 29.2 41.3 30.4 40.1 L 44.7 25.1 C 44.8 25 44.9 24.9 45.1 24.9 S 45.4 25 45.5 25 L 54.5 34 C 54.7 34.2 54.7 34.5 54.5 34.7 L 41.2 48.1 C 40.7 48.7 39.8 49 39 49 z M 45 26.2 L 31.1 40.8 C 30.3 41.6 30.3 42.9 31.1 43.7 L 34.7 47.4 C 35.1 47.8 35.5 48 36 48 L 39 48 C 39.5 48 40.1 47.8 40.5 47.4 L 53.3 34.5 L 45 26.2 z M 44 45 C 43.9 45 43.7 45 43.6 44.9 L 35.1 36.4 C 34.9 36.2 34.9 35.9 35.1 35.7 S 35.6 35.5 35.8 35.7 L 44.3 44.2 C 44.5 44.4 44.5 44.7 44.3 44.9 C 44.3 45 44.1 45 44 45 z M 31 49 L 25 49 C 24.7 49 24.5 48.8 24.5 48.5 S 24.7 48 25 48 L 31 48 C 31.3 48 31.5 48.2 31.5 48.5 S 31.3 49 31 49 z M 43 52 L 31 52 C 30.7 52 30.5 51.8 30.5 51.5 S 30.7 51 31 51 L 43 51 C 43.3 51 43.5 51.2 43.5 51.5 S 43.3 52 43 52 z"/>
  </g>
</svg>