<?xml version="1.0" encoding="UTF-8" standalone="no"?><!DOCTYPE svg PUBLIC "-//W3C//DTD SVG 1.1//EN" "http://www.w3.org/Graphics/SVG/1.1/DTD/svg11.dtd"><svg width="100%" height="100%" viewBox="0 0 192 192" version="1.1" xmlns="http://www.w3.org/2000/svg" xmlns:xlink="http://www.w3.org/1999/xlink" xml:space="preserve" xmlns:serif="http://www.serif.com/" style="fill-rule:evenodd;clip-rule:evenodd;stroke-linejoin:round;stroke-miterlimit:1.41421;"><path d="M172,32.16c0,-6.711 -5.449,-12.16 -12.16,-12.16l-127.68,0c-6.711,0 -12.16,5.449 -12.16,12.16l0,127.68c0,6.711 5.449,12.16 12.16,12.16l127.68,0c6.711,0 12.16,-5.449 12.16,-12.16l0,-127.68Z" style="fill:#673ab7;"/><rect id="Material-Icon-Grid-400-" serif:id="Material Icon Grid 400%" x="0" y="0" width="192" height="192" style="fill:none;"/><g id="Material-Icon-Grid-400-1" serif:id="Material Icon Grid 400%"><path d="M56.956,123.6l26.483,-25.376l16.239,15.56c2.048,1.964 5.346,1.868 7.245,-0.191l35.826,-38.638c1.748,-1.867 1.648,-4.74 -0.2,-6.559c-1.999,-1.915 -5.347,-1.867 -7.245,0.191l-31.929,34.377l-16.439,-15.752c-1.948,-1.867 -5.096,-1.867 -7.045,0l-30.429,29.206c-1.949,1.867 -1.949,4.883 0,6.751l0.449,0.431c1.949,1.867 5.147,1.867 7.045,0Z" style="fill:#fff;fill-rule:nonzero;"/></g></svg>