<?xml version="1.0" encoding="UTF-8" standalone="no"?>
<!-- Created with Inkscape (http://www.inkscape.org/) -->

<svg
   xmlns:dc="http://purl.org/dc/elements/1.1/"
   xmlns:cc="http://creativecommons.org/ns#"
   xmlns:rdf="http://www.w3.org/1999/02/22-rdf-syntax-ns#"
   xmlns:svg="http://www.w3.org/2000/svg"
   xmlns="http://www.w3.org/2000/svg"
   xmlns:xlink="http://www.w3.org/1999/xlink"
   xmlns:sodipodi="http://sodipodi.sourceforge.net/DTD/sodipodi-0.dtd"
   xmlns:inkscape="http://www.inkscape.org/namespaces/inkscape"
   width="160"
   height="160"
   id="svg2"
   version="1.1"
   inkscape:version="0.92.1 unknown"
   sodipodi:docname="icon.svg"
   inkscape:export-filename="/home/armand/Arwynn/Sunvivanon/Extrange_assets/Exterium/UI/icon_256.png"
   inkscape:export-xdpi="153.60001"
   inkscape:export-ydpi="153.60001">
  <defs
     id="defs4">
    <linearGradient
       inkscape:collect="always"
       id="linearGradient4562">
      <stop
         style="stop-color:#46abe2;stop-opacity:0"
         offset="0"
         id="stop4558" />
      <stop
         id="stop4650"
         offset="0.2"
         style="stop-color:#34d5cf;stop-opacity:0.78431374" />
      <stop
         id="stop4648"
         offset="0.26117837"
         style="stop-color:#46abe2;stop-opacity:0.09803922" />
      <stop
         id="stop4570"
         offset="0.68000001"
         style="stop-color:#46abe2;stop-opacity:0.09803922" />
      <stop
         id="stop4566"
         offset="0.69999999"
         style="stop-color:#34d5cf;stop-opacity:0.78431374" />
      <stop
         style="stop-color:#34d5cf;stop-opacity:0.78431374"
         offset="0.74865687"
         id="stop4568" />
      <stop
         id="stop4572"
         offset="0.77720499"
         style="stop-color:#46abe2;stop-opacity:0.09803922" />
      <stop
         style="stop-color:#46abe2;stop-opacity:0"
         offset="1"
         id="stop4560" />
    </linearGradient>
    <inkscape:path-effect
       effect="spiro"
       id="path-effect3246"
       is_visible="true" />
    <inkscape:path-effect
       effect="spiro"
       id="path-effect3242"
       is_visible="true" />
    <inkscape:path-effect
       effect="spiro"
       id="path-effect3238"
       is_visible="true" />
    <inkscape:path-effect
       effect="spiro"
       id="path-effect3234"
       is_visible="true" />
    <inkscape:path-effect
       effect="spiro"
       id="path-effect3230"
       is_visible="true" />
    <inkscape:path-effect
       effect="spiro"
       id="path-effect3226"
       is_visible="true" />
    <inkscape:path-effect
       effect="spiro"
       id="path-effect3222"
       is_visible="true" />
    <inkscape:path-effect
       effect="spiro"
       id="path-effect3218"
       is_visible="true" />
    <inkscape:path-effect
       effect="spiro"
       id="path-effect3214"
       is_visible="true" />
    <inkscape:path-effect
       effect="spiro"
       id="path-effect3210"
       is_visible="true" />
    <inkscape:path-effect
       effect="spiro"
       id="path-effect3206"
       is_visible="true" />
    <inkscape:path-effect
       effect="spiro"
       id="path-effect3202"
       is_visible="true" />
    <linearGradient
       inkscape:collect="always"
       xlink:href="#linearGradient4562"
       id="linearGradient4634"
       gradientUnits="userSpaceOnUse"
       x1="81.655846"
       y1="996.23187"
       x2="81.655846"
       y2="868.56006"
       gradientTransform="translate(2.992e-4,-1.9368594e-4)" />
  </defs>
  <sodipodi:namedview
     id="base"
     pagecolor="#ffffff"
     bordercolor="#666666"
     borderopacity="1.0"
     inkscape:pageopacity="0"
     inkscape:pageshadow="2"
     inkscape:zoom="1.94375"
     inkscape:cx="-59.366401"
     inkscape:cy="112.47553"
     inkscape:document-units="px"
     inkscape:current-layer="layer1"
     showgrid="true"
     inkscape:window-width="1309"
     inkscape:window-height="744"
     inkscape:window-x="57"
     inkscape:window-y="24"
     inkscape:window-maximized="1"
     borderlayer="false"
     gridtolerance="10"
     showguides="false"
     fit-margin-top="0"
     fit-margin-left="0"
     fit-margin-right="0"
     fit-margin-bottom="0"
     inkscape:guide-bbox="true" />
  <metadata
     id="metadata7">
    <rdf:RDF>
      <cc:Work
         rdf:about="">
        <dc:format>image/svg+xml</dc:format>
        <dc:type
           rdf:resource="http://purl.org/dc/dcmitype/StillImage" />
        <dc:title />
      </cc:Work>
    </rdf:RDF>
  </metadata>
  <g
     inkscape:label="Calque 1"
     inkscape:groupmode="layer"
     id="layer1"
     transform="translate(-1.259749,-852.3613)">
    <path
       style="opacity:1;vector-effect:none;fill:#090515;fill-opacity:0.50196078;fill-rule:nonzero;stroke:none;stroke-width:1px;stroke-linecap:butt;stroke-linejoin:miter;stroke-miterlimit:4;stroke-dasharray:none;stroke-dashoffset:0;stroke-opacity:0.50196078;marker-start:none;marker-end:none"
       d="m 88.747121,856.86076 c -1.689116,2.4e-4 -3.376543,0.65128 -4.670742,1.94624 l -7.442887,7.44284 c -0.0099,0.008 -0.02544,0.0159 -0.04432,0.03 L 11.179715,931.6893 c -2.5881612,2.5881 -2.5882208,6.75303 -4e-5,9.34123 l 37.37882,37.37192 28.030537,28.03075 c 2.588182,2.5882 6.753165,2.5882 9.341426,-1e-4 L 151.3398,941.03046 c 2.58818,-2.58812 2.58818,-6.75297 0,-9.34115 l -23.36004,-23.36001 2.79979,-2.80655 c 2.588,-2.58812 2.588,-6.75313 -2e-5,-9.34131 L 93.408006,858.81129 c -1.293624,-1.29363 -2.981607,-1.94632 -4.670584,-1.94616 z m -7.477171,15.72591 c 1.013207,3.7e-4 2.030012,0.39135 2.806727,1.16785 l 59.796563,59.7964 c 1.55289,1.55291 1.55295,4.05329 4e-5,5.60622 l -59.796583,59.80322 c -1.552913,1.55294 -4.053227,1.55294 -5.60612,8e-5 L 18.6673,939.15714 c -1.552873,-1.55293 -1.552854,-4.05339 5.9e-5,-5.6063 l 59.803298,-59.7964 c 0.776456,-0.77642 1.786304,-1.16807 2.799611,-1.16801 z"
       id="path4654"
       inkscape:connector-curvature="0" />
    <g
       style="fill:#51d565;fill-opacity:1;stroke:#090515;stroke-opacity:1"
       id="g4583"
       transform="translate(2.9924578e-4,-2.0005047e-5)">
      <path
         inkscape:connector-curvature="0"
         id="path4556"
         d="m 81.269651,868.58723 c 1.013207,3.7e-4 2.030012,0.39135 2.806727,1.16785 l 59.796562,59.7964 c 1.55289,1.55291 1.55295,4.05329 4e-5,5.60622 l -59.796582,59.80322 c -1.552913,1.55293 -4.053227,1.55293 -5.60612,8e-5 L 18.667001,935.1577 c -1.552873,-1.55293 -1.552854,-4.05339 5.9e-5,-5.6063 L 78.470358,869.755 c 0.776456,-0.77642 1.786304,-1.16807 2.799611,-1.16801 z"
         style="opacity:1;vector-effect:none;fill:#46abe2;fill-opacity:1;fill-rule:nonzero;stroke:#46abe2;stroke-width:1px;stroke-linecap:butt;stroke-linejoin:miter;stroke-miterlimit:4;stroke-dasharray:none;stroke-dashoffset:0;stroke-opacity:1;marker-start:none;marker-end:none"
         sodipodi:nodetypes="ccccccccccc" />
      <path
         style="opacity:1;vector-effect:none;fill:#51d565;fill-opacity:1;fill-rule:nonzero;stroke:#0e3712;stroke-width:1px;stroke-linecap:butt;stroke-linejoin:miter;stroke-miterlimit:4;stroke-dasharray:none;stroke-dashoffset:0;stroke-opacity:1;marker-start:none;marker-end:none"
         d="m 88.746822,852.86132 c -1.689116,2.4e-4 -3.376543,0.65128 -4.670742,1.94624 l -7.442887,7.44284 c -0.0099,0.008 -0.02544,0.0159 -0.04432,0.03 l -65.409457,65.40946 c -2.5881614,2.5881 -2.588221,6.75303 -4e-5,9.34123 l 37.37882,37.37192 28.030537,28.03069 c 2.588182,2.5882 6.753165,2.5882 9.341426,-1e-4 L 151.3395,937.03102 c 2.58818,-2.58812 2.58818,-6.75297 0,-9.34115 l -23.36004,-23.36001 2.79979,-2.80655 c 2.588,-2.58812 2.588,-6.75313 -2e-5,-9.34131 L 93.407707,854.81185 c -1.293624,-1.29363 -2.981607,-1.94632 -4.670584,-1.94616 z m -7.477171,15.72591 c 1.013207,3.7e-4 2.030012,0.39135 2.806727,1.16785 l 59.796562,59.7964 c 1.55289,1.55291 1.55295,4.05329 4e-5,5.60622 l -59.796582,59.80322 c -1.552913,1.55293 -4.053227,1.55293 -5.60612,8e-5 L 18.667001,935.1577 c -1.552873,-1.55293 -1.552854,-4.05339 5.9e-5,-5.6063 L 78.470358,869.755 c 0.776456,-0.77642 1.786304,-1.16807 2.799611,-1.16801 z"
         id="shell"
         inkscape:connector-curvature="0" />
      <path
         id="content"
         d="m 64.675631,956.77623 c -6.938283,-2.00012 -11.739877,-8.51544 -12.901434,-12.25017 -0.250069,-8.44989 2.809787,-11.963 2.833841,-14.43313 -0.601768,-2.92835 0.03631,-6.51124 2.479963,-10.93729 -1.398903,-3.41048 -3.285705,-7.88739 0.491726,-14.29978 0,0 0.220615,-0.0197 0.614689,-0.0197 1.707563,0 6.651589,0.34469 10.820083,4.26408 8.077934,-3.23806 17.427044,-2.86734 24.490483,0 4.16851,-3.91939 9.112538,-4.27013 10.820098,-4.26408 0.39406,0 0.61469,0.0197 0.61469,0.0197 3.77743,6.41239 1.89063,10.8893 0.49171,14.29978 2.44371,4.42605 3.08174,8.00894 2.47998,10.93729 0.024,2.47013 3.08391,5.98324 2.83384,14.43313 -1.16157,3.73473 -5.96315,10.25005 -12.901418,12.25017 -7.16625,1.87144 -11.613316,3.11029 -16.584134,3.11029 -4.970818,0 -9.417883,-1.23885 -16.584117,-3.11029 z"
         style="opacity:1;vector-effect:none;fill:#51d565;fill-opacity:1;stroke:#090515;stroke-width:1px;stroke-linecap:butt;stroke-linejoin:miter;stroke-miterlimit:4;stroke-dasharray:none;stroke-dashoffset:0;stroke-opacity:1;marker-start:none;marker-end:none"
         inkscape:connector-curvature="0" />
    </g>
    <g
       transform="matrix(0.80000001,0,0,0.80000001,374.39958,352.00669)"
       id="g4722">
      <path
         style="fill:#88400f;fill-opacity:1;stroke:#090515;stroke-width:0.97284478;stroke-linecap:butt;stroke-linejoin:miter;stroke-miterlimit:4;stroke-dasharray:none;stroke-opacity:1"
         d="m -345.8699,755.6988 c 8.59936,-2.47844 14.55049,-10.55233 15.99014,-15.18054 0.30994,-10.47115 -3.48247,-14.8245 -3.51229,-17.88566 0.74584,-3.62866 -0.045,-8.06866 -3.07369,-13.55353 1.73382,-4.22634 4.07234,-9.77407 -0.60945,-17.72046 0,0 -0.27343,-0.0237 -0.76184,-0.0252 -2.11637,-0.008 -8.24405,0.42716 -13.41052,5.2842 -10.01185,-4.01268 -21.59922,-3.55318 -30.35371,0 -5.16648,-4.85704 -11.29416,-5.29152 -13.41053,-5.2842 -0.4884,0.002 -0.76184,0.0252 -0.76184,0.0252 -4.68179,7.94639 -2.34326,13.49412 -0.60944,17.72046 -3.02876,5.48487 -3.81953,9.92487 -3.0737,13.55353 -0.0298,3.06116 -3.82222,7.41451 -3.51228,17.88566 1.43965,4.62821 7.39077,12.7021 15.99013,15.18054 8.88191,2.31915 14.39364,3.85436 20.55451,3.85436 6.16087,0 11.6726,-1.53521 20.55451,-3.85436 z"
         id="path5364"
         inkscape:connector-curvature="0"
         sodipodi:nodetypes="cccccccccccccccc" />
      <path
         id="path5366"
         d="m -359.49087,694.34751 c -2.54,11.97544 -1.80285,21.3078 0.65288,28.60094 2.1912,-1.32348 4.99148,-2.34046 8.07519,-2.98012 -2.22548,-5.85991 -3.00941,-13.50503 -0.87802,-23.49619 -2.54406,-0.98632 -5.18293,-1.68663 -7.85005,-2.12463 z"
         style="fill:#d2f0d2;fill-opacity:1;stroke:#84c884;stroke-width:0.93750006;stroke-linecap:butt;stroke-linejoin:miter;stroke-miterlimit:4;stroke-dasharray:none;stroke-opacity:1"
         inkscape:connector-curvature="0" />
      <path
         style="color:#000000;font-style:normal;font-variant:normal;font-weight:normal;font-stretch:normal;font-size:medium;line-height:normal;font-family:Sans;-inkscape-font-specification:Sans;text-indent:0;text-align:start;text-decoration:none;text-decoration-line:none;letter-spacing:normal;word-spacing:normal;text-transform:none;writing-mode:lr-tb;direction:ltr;baseline-shift:baseline;text-anchor:start;display:inline;overflow:visible;visibility:visible;fill:#2f1605;fill-opacity:1;stroke:none;stroke-width:1.99400103;marker:none;enable-background:accumulate"
         d="m -342.92805,719.19491 c -6.91536,-0.0366 -13.73753,1.81292 -17.55314,4.8944 -0.33553,0.26959 -0.42848,0.79652 -0.20552,1.16463 0.2231,0.36808 0.73336,0.52965 1.12768,0.35706 5.66306,-2.45092 10.82269,-2.91204 16.67144,-0.97922 0.88444,0.21593 1.48583,-0.0363 1.48583,-0.0363 0,0 -0.16529,-1.26934 -1.04178,-1.80631 -2.90065,-0.95857 -5.34695,-1.07171 -8.52623,-1.00792 2.85289,-0.72236 5.33267,-0.89818 7.96071,-1.02555 1.19963,-0.44426 1.15926,-0.46951 1.46791,-1.24546 -0.51492,-0.32888 -0.54023,-0.35917 -1.38686,-0.31486 z"
         id="path5409"
         inkscape:connector-curvature="0"
         sodipodi:nodetypes="ccsccccccccc" />
      <path
         style="fill:#d2f0d2;fill-opacity:1;stroke:#84c884;stroke-width:0.93749994;stroke-linecap:butt;stroke-linejoin:miter;stroke-miterlimit:4;stroke-dasharray:none;stroke-opacity:1"
         d="m -373.35793,694.34751 c 2.54,11.97544 1.80285,21.3078 -0.65288,28.60094 -2.1912,-1.32348 -4.99148,-2.34046 -8.07519,-2.98012 2.22548,-5.85991 3.00941,-13.50503 0.87801,-23.49619 2.54407,-0.98632 5.18294,-1.68663 7.85006,-2.12463 z"
         id="path5456"
         inkscape:connector-curvature="0" />
      <path
         sodipodi:nodetypes="ccsccccccccc"
         inkscape:connector-curvature="0"
         id="path5411"
         d="m -389.92077,719.19491 c 6.91537,-0.0366 13.73753,1.81292 17.55314,4.8944 0.33554,0.26959 0.42848,0.79652 0.20552,1.16463 -0.2231,0.36808 -0.73336,0.52965 -1.12767,0.35706 -5.66307,-2.45092 -10.82269,-2.91204 -16.67144,-0.97922 -0.88444,0.21593 -1.48583,-0.0363 -1.48583,-0.0363 0,0 0.16528,-1.26934 1.04177,-1.80631 2.90065,-0.95857 5.34696,-1.07171 8.52624,-1.00792 -2.85289,-0.72236 -5.33267,-0.89818 -7.96072,-1.02555 -1.19962,-0.44426 -1.15926,-0.46951 -1.4679,-1.24546 0.51491,-0.32888 0.54022,-0.35917 1.38686,-0.31486 z"
         style="color:#000000;font-style:normal;font-variant:normal;font-weight:normal;font-stretch:normal;font-size:medium;line-height:normal;font-family:Sans;-inkscape-font-specification:Sans;text-indent:0;text-align:start;text-decoration:none;text-decoration-line:none;letter-spacing:normal;word-spacing:normal;text-transform:none;writing-mode:lr-tb;direction:ltr;baseline-shift:baseline;text-anchor:start;display:inline;overflow:visible;visibility:visible;fill:#2f1605;fill-opacity:1;stroke:none;stroke-width:1.99400103;marker:none;enable-background:accumulate" />
      <g
         style="stroke-width:1.01234615"
         transform="matrix(0.7684495,0,0,0.76843264,82.579951,356.9761)"
         id="g5435">
        <path
           inkscape:connector-curvature="0"
           style="color:#000000;font-style:normal;font-variant:normal;font-weight:normal;font-stretch:normal;font-size:medium;line-height:normal;font-family:Sans;-inkscape-font-specification:Sans;text-indent:0;text-align:start;text-decoration:none;text-decoration-line:none;letter-spacing:normal;word-spacing:normal;text-transform:none;writing-mode:lr-tb;direction:ltr;baseline-shift:baseline;text-anchor:start;display:inline;overflow:visible;visibility:visible;fill:#2f1605;fill-opacity:1;stroke:none;stroke-width:0.83454579;stroke-opacity:1;marker:none;enable-background:accumulate"
           d="m -192.39844,-203.78906 -0.0176,0.002 c -1.88283,0.054 -3.49325,1.04592 -4.84179,2.07227 l -0.0312,0.0254 -0.0293,0.0293 c -0.48049,0.49515 -0.59295,1.14552 -0.53711,1.69922 0.0558,0.55371 0.24505,1.05676 0.38867,1.46485 0.6828,1.93664 2.68725,3.30639 4.6211,3.77734 v 4.56836 c -0.59257,0.8452 -1.46506,1.5191 -2.38282,2.00586 -1.04721,0.5643 -2.23483,0.78418 -3.40625,0.82226 -1.38945,0.0452 -0.48655,1.01568 0.53907,0.84766 1.63151,-0.26728 3.27827,-0.72696 4.58398,-1.76758 0.20082,-0.1521 0.64459,-0.46213 1.11328,-1.10742 0.4685,0.64478 0.91058,0.95538 1.11133,1.10742 1.30571,1.04062 2.95248,1.5003 4.58399,1.76758 1.02562,0.16802 1.92851,-0.80244 0.53906,-0.84766 -1.17142,-0.0381 -2.35904,-0.25796 -3.40625,-0.82226 -0.92882,-0.49262 -1.81347,-1.17554 -2.40625,-2.03516 v -4.5332 c 1.94087,-0.46547 3.95702,-1.83873 4.64258,-3.7832 h 0.002 c 0.14364,-0.40809 0.33283,-0.91114 0.38867,-1.46485 0.0558,-0.5537 -0.0586,-1.20407 -0.53906,-1.69922 l -0.0274,-0.0293 -0.0312,-0.0254 c -1.34853,-1.02635 -2.96091,-2.01826 -4.84375,-2.07227 z m 0,1.07812 c 1.48903,0.0486 2.88621,0.86096 4.15039,1.81641 0.21956,0.23487 0.27201,0.47236 0.23633,0.82617 -0.0365,0.36195 -0.18894,0.7972 -0.33594,1.21484 -0.52397,1.48619 -2.40281,2.77139 -4.05078,3.11914 -1.64797,-0.34775 -3.52875,-1.63295 -4.05273,-3.11914 -0.147,-0.41764 -0.29944,-0.85289 -0.33594,-1.21484 -0.0357,-0.35381 0.0168,-0.5913 0.23633,-0.82617 1.26475,-0.95587 2.66258,-1.76846 4.15234,-1.81641 z"
           transform="matrix(0.93750001,0,0,0.93750001,-403.92442,682.94323)"
           id="path5425" />
        <path
           sodipodi:nodetypes="ccccccc"
           inkscape:connector-curvature="0"
           id="path5417"
           d="m -588.5732,496.68584 c -0.27247,-0.77411 -0.64384,-1.75925 0.0251,-2.44859 1.23336,-0.93869 2.65582,-1.7962 4.24899,-1.8419 1.59317,0.0457 3.01563,0.90321 4.24899,1.8419 0.66894,0.68934 0.29757,1.67448 0.0251,2.44859 -0.58978,1.67284 -2.53677,2.96769 -4.27409,3.29446 -1.73732,-0.32677 -3.68431,-1.62162 -4.27409,-3.29446 z"
           style="color:#000000;font-style:normal;font-variant:normal;font-weight:normal;font-stretch:normal;font-size:medium;line-height:normal;font-family:Sans;-inkscape-font-specification:Sans;text-indent:0;text-align:start;text-decoration:none;text-decoration-line:none;letter-spacing:normal;word-spacing:normal;text-transform:none;writing-mode:lr-tb;direction:ltr;baseline-shift:baseline;text-anchor:start;display:inline;overflow:visible;visibility:visible;fill:#c65d15;fill-opacity:1;stroke:#2f1605;stroke-width:1.02018499;stroke-miterlimit:4;stroke-dasharray:none;stroke-opacity:0.94709018;marker:none;enable-background:accumulate" />
      </g>
      <path
         id="path4597"
         d="m -339.47862,694.71081 c -1.53927,-0.006 -4.83353,1.00072 -8.55469,3.29407 3.13892,1.61135 6.36971,4.14867 9.79432,8.61694 1.01212,-3.20389 1.49521,-7.06607 -0.62989,-11.8927 -0.0855,-0.006 -0.21879,-0.0171 -0.60974,-0.0183 z"
         style="opacity:1;vector-effect:none;fill:#2f1605;fill-opacity:1;stroke:#2f1605;stroke-width:0.9375;stroke-linecap:round;stroke-linejoin:round;stroke-miterlimit:4;stroke-dasharray:none;stroke-dashoffset:0;stroke-opacity:1"
         inkscape:connector-curvature="0" />
      <path
         sodipodi:nodetypes="cccccccccccccccc"
         inkscape:connector-curvature="0"
         id="path5480"
         d="m -386.97891,755.6988 c -8.59936,-2.47844 -14.55049,-10.55233 -15.99014,-15.18054 -0.30994,-10.47115 3.48247,-14.8245 3.51229,-17.88566 -0.74584,-3.62866 0.045,-8.06866 3.07369,-13.55353 -1.73382,-4.22634 -4.07234,-9.77407 0.60945,-17.72046 0,0 0.27343,-0.0237 0.76184,-0.0252 2.11637,-0.008 8.24405,0.42716 13.41052,5.2842 10.01185,-4.01268 21.59922,-3.55318 30.35371,0 5.16648,-4.85704 11.29416,-5.29152 13.41053,-5.2842 0.4884,0.002 0.76184,0.0252 0.76184,0.0252 4.68179,7.94639 2.34326,13.49412 0.60944,17.72046 3.02876,5.48487 3.81953,9.92487 3.0737,13.55353 0.0298,3.06116 3.82222,7.41451 3.51228,17.88566 -1.43965,4.62821 -7.39077,12.7021 -15.99013,15.18054 -8.88191,2.31915 -14.39364,3.85436 -20.55451,3.85436 -6.16087,0 -11.6726,-1.53521 -20.55451,-3.85436 z"
         style="fill:none;fill-opacity:1;stroke:#090515;stroke-width:1.87499988;stroke-linecap:butt;stroke-linejoin:miter;stroke-miterlimit:4;stroke-dasharray:none;stroke-opacity:1" />
      <path
         style="opacity:1;vector-effect:none;fill:#2f1605;fill-opacity:1;stroke:#2f1605;stroke-width:0.9375;stroke-linecap:round;stroke-linejoin:round;stroke-miterlimit:4;stroke-dasharray:none;stroke-dashoffset:0;stroke-opacity:1"
         d="m -393.37019,694.71081 c 1.53927,-0.006 4.83353,1.00072 8.55469,3.29407 -3.13892,1.61135 -6.36971,4.14867 -9.79432,8.61694 -1.01212,-3.20389 -1.49521,-7.06607 0.62989,-11.8927 0.0855,-0.006 0.21879,-0.0171 0.60974,-0.0183 z"
         id="path4626"
         inkscape:connector-curvature="0" />
    </g>
    <path
       sodipodi:nodetypes="ccccccccccc"
       style="opacity:1;vector-effect:none;fill:url(#linearGradient4634);fill-opacity:1;fill-rule:nonzero;stroke:none;stroke-width:1px;stroke-linecap:butt;stroke-linejoin:miter;stroke-miterlimit:4;stroke-dasharray:none;stroke-dashoffset:0;stroke-opacity:1;marker-start:none;marker-end:none"
       d="m 81.26995,868.58704 c 1.013207,3.7e-4 2.030012,0.39135 2.806727,1.16785 l 59.796563,59.7964 c 1.55289,1.55291 1.55295,4.05329 4e-5,5.60622 l -59.796583,59.80322 c -1.552913,1.55293 -4.053227,1.55293 -5.60612,8e-5 L 18.6673,935.15751 c -1.552873,-1.55293 -1.552854,-4.05339 5.9e-5,-5.6063 l 59.803298,-59.7964 c 0.776456,-0.77642 1.786304,-1.16807 2.799611,-1.16801 z"
       id="path4631"
       inkscape:connector-curvature="0" />
  </g>
</svg>
