<?xml version="1.0" standalone="no"?>
<!DOCTYPE svg PUBLIC "-//W3C//DTD SVG 20010904//EN"
 "http://www.w3.org/TR/2001/REC-SVG-20010904/DTD/svg10.dtd">
<svg version="1.0" xmlns="http://www.w3.org/2000/svg"
 width="668.000000pt" height="668.000000pt" viewBox="0 0 668.000000 668.000000"
 preserveAspectRatio="xMidYMid meet">
<metadata>
Created by potrace 1.15, written by Peter Selinger 2001-2017
</metadata>
<g transform="translate(0.000000,668.000000) scale(0.100000,-0.100000)"
fill="#000000" stroke="none">
<path d="M2575 6673 c-47 -11 -104 -36 -109 -49 -3 -8 -10 -14 -17 -14 -37 0
-139 -135 -139 -185 0 -14 -5 -16 -22 -9 -13 4 -104 9 -203 11 -244 6 -257 1
-415 -157 -84 -84 -126 -135 -158 -192 -52 -92 -92 -202 -105 -283 -14 -94
-20 -326 -8 -365 6 -19 20 -69 32 -110 13 -41 31 -87 41 -102 27 -40 22 -72
-22 -137 -22 -32 -46 -74 -54 -93 -8 -19 -22 -40 -30 -48 -9 -7 -16 -20 -16
-29 0 -9 -9 -27 -20 -41 -11 -14 -20 -33 -20 -43 0 -10 -7 -29 -16 -43 -9 -14
-21 -44 -26 -67 -5 -23 -14 -64 -20 -92 -16 -75 -21 -360 -8 -430 12 -62 31
-115 81 -223 16 -34 29 -68 29 -76 0 -7 9 -25 20 -39 11 -14 20 -31 20 -39 0
-22 54 -94 116 -156 51 -50 73 -85 162 -263 56 -112 102 -213 102 -224 0 -28
67 -128 141 -210 36 -40 71 -85 78 -101 12 -29 22 -37 175 -141 45 -31 97 -70
116 -88 19 -18 64 -50 100 -71 36 -20 67 -38 69 -40 2 -2 -6 -15 -18 -30 -18
-23 -20 -35 -15 -89 5 -47 3 -69 -10 -93 -11 -21 -16 -57 -16 -114 0 -63 -4
-90 -17 -108 -14 -20 -19 -51 -21 -145 -2 -69 -9 -137 -17 -160 -8 -22 -16
-60 -18 -85 -3 -25 -12 -62 -21 -82 -12 -29 -16 -70 -16 -190 0 -130 -3 -157
-20 -192 -18 -38 -20 -71 -26 -426 -6 -336 -5 -392 9 -438 9 -29 14 -59 11
-66 -3 -7 2 -33 10 -57 9 -24 16 -72 16 -106 0 -71 27 -129 64 -139 13 -3 128
-4 257 -2 210 3 241 6 302 26 90 30 97 47 97 232 l0 138 113 21 c218 40 370
50 550 35 l77 -7 -2 -66 c-1 -44 5 -77 16 -98 9 -18 16 -47 16 -65 1 -24 12
-46 44 -82 l43 -49 183 -5 c224 -6 331 7 407 50 78 44 93 75 93 191 0 76 -5
111 -26 173 -15 44 -30 86 -35 95 -4 9 -17 63 -29 120 -29 149 -78 312 -117
399 -19 41 -54 123 -78 182 -24 59 -60 138 -80 177 -19 39 -35 83 -35 98 0 15
-6 45 -14 68 -13 38 -28 106 -46 205 -5 25 -18 70 -29 100 -11 30 -21 75 -21
100 -1 25 -7 63 -15 85 -8 22 -15 63 -15 90 0 28 -5 56 -10 61 -6 6 -12 35
-14 66 l-4 55 53 12 c97 22 348 184 537 348 136 118 188 178 238 275 23 45 62
111 86 146 24 34 47 75 50 90 4 15 24 66 46 114 21 48 38 93 36 100 -1 7 4 24
11 38 16 28 35 437 29 626 l-3 110 30 20 30 19 8 235 c13 406 11 467 -22 571
-13 41 -83 146 -167 249 -109 133 -126 155 -140 183 l-15 27 100 0 c92 0 102
2 130 25 46 40 91 140 91 207 0 69 -25 144 -55 164 -48 31 -115 -19 -115 -86
0 -62 -12 -70 -102 -70 -81 0 -179 20 -208 43 -32 25 -116 135 -129 168 -7 19
-21 53 -32 77 -10 23 -19 51 -19 62 0 11 -29 78 -64 148 -51 101 -71 131 -98
146 -147 85 -160 89 -315 102 -60 5 -85 3 -143 -16 -38 -12 -74 -28 -81 -36
-6 -7 -27 -18 -46 -25 -47 -15 -117 -63 -136 -93 l-16 -24 -73 75 c-55 56 -94
86 -158 120 -47 24 -104 55 -126 69 -83 49 -177 64 -393 63 -108 -1 -205 -3
-216 -6z m490 -1180 c3 -32 8 -112 11 -178 3 -66 9 -124 15 -129 5 -6 9 -20 9
-32 0 -13 5 -26 10 -29 6 -3 10 -14 10 -23 0 -18 94 -158 138 -204 14 -15 35
-31 46 -34 12 -3 35 -16 51 -29 35 -25 21 -21 275 -87 107 -28 225 -53 262
-55 62 -4 69 -2 93 21 29 29 32 66 8 89 -10 8 -56 21 -103 28 -111 15 -196 58
-272 136 -94 97 -160 193 -130 193 4 0 42 -11 85 -25 68 -22 96 -25 225 -25
126 0 162 4 247 26 55 14 119 36 143 49 l42 24 48 -32 c27 -18 68 -49 93 -69
24 -21 64 -53 89 -71 106 -78 248 -324 270 -467 4 -25 10 -52 14 -61 5 -12
-15 -26 -96 -63 -57 -26 -125 -65 -153 -86 -35 -27 -70 -43 -115 -54 -65 -14
-65 -14 -98 10 -55 43 -142 77 -200 80 -30 1 -56 5 -60 8 -9 10 -155 7 -217
-5 -66 -12 -117 -35 -186 -84 l-47 -33 -218 4 c-152 3 -233 8 -264 18 -53 17
-294 66 -330 67 -14 0 -50 1 -80 2 -30 1 -83 -2 -117 -6 l-63 -8 6 33 c8 41
58 122 105 169 21 21 62 46 95 59 54 20 70 22 191 16 124 -5 133 -5 143 13 17
32 12 60 -15 87 -25 25 -26 25 -178 22 -148 -3 -154 -4 -222 -36 -66 -31 -165
-113 -165 -137 0 -5 -18 -36 -40 -69 -47 -69 -55 -134 -20 -159 19 -13 18 -14
-18 -25 -21 -7 -49 -23 -62 -37 -13 -14 -34 -25 -47 -25 -21 0 -174 38 -182
46 -2 1 12 12 30 23 43 26 140 148 166 209 50 116 57 156 43 240 -7 42 -13
136 -14 207 -1 146 9 178 78 244 34 33 37 34 109 32 80 -2 84 -1 257 81 124
59 255 144 269 176 17 37 29 25 36 -35z m1722 -1142 c-3 -14 2 -47 10 -75 13
-43 15 -100 10 -350 -3 -219 -8 -300 -17 -306 -7 -4 -15 -29 -18 -56 -4 -35
-29 -94 -90 -209 -125 -237 -123 -233 -258 -367 -69 -68 -132 -130 -141 -140
-26 -29 -267 -147 -374 -182 -279 -93 -550 -109 -849 -50 -114 23 -189 48
-281 95 -54 27 -98 42 -124 43 -49 1 -188 76 -320 172 -49 36 -101 73 -115 81
-14 9 -38 36 -54 61 -16 24 -46 64 -66 87 -21 24 -60 86 -88 138 -47 86 -51
98 -41 125 8 25 7 39 -8 74 -10 24 -25 63 -32 88 -7 25 -17 54 -22 65 -29 71
-42 133 -46 231 -6 118 5 189 38 256 11 21 19 48 19 61 0 67 44 74 195 34 55
-15 108 -27 117 -27 16 0 18 -10 18 -90 0 -135 41 -227 132 -291 49 -36 124
-48 358 -60 263 -14 245 -18 371 92 110 97 121 122 117 260 l-3 109 46 0 c25
0 93 -3 150 -6 l104 -7 0 -101 c0 -123 20 -171 105 -258 73 -74 103 -82 282
-74 109 5 151 11 205 31 38 13 91 29 119 35 63 14 129 66 155 124 26 58 26
189 0 232 l-19 32 55 11 c39 7 72 23 107 50 28 22 94 59 146 84 92 42 95 43
103 23 5 -12 6 -32 4 -45z m-692 -32 c137 -39 245 -142 245 -233 -1 -54 -30
-118 -67 -144 -17 -12 -52 -26 -79 -32 -27 -6 -78 -22 -114 -34 -82 -30 -246
-43 -310 -26 -82 22 -168 138 -178 241 -8 87 33 144 148 204 80 43 250 54 355
24z m-1200 -49 c145 -28 231 -57 250 -83 22 -32 20 -138 -4 -185 -20 -39 -114
-127 -173 -162 -34 -20 -41 -20 -224 -10 -104 6 -213 17 -242 25 -114 29 -177
119 -177 253 0 50 4 75 13 81 8 5 19 19 26 32 18 37 120 67 262 76 66 5 128 5
139 1 11 -4 70 -17 130 -28z m-52 -1854 c219 -66 332 -81 610 -81 236 0 247
-1 253 -19 5 -15 -3 -28 -30 -50 -20 -17 -65 -56 -99 -86 -138 -124 -244 -190
-304 -190 -78 0 -181 45 -337 148 -112 73 -184 136 -228 200 -27 39 -28 46
-18 77 6 19 18 35 26 35 8 0 65 -15 127 -34z m462 -715 c91 -42 136 -135 111
-232 -22 -84 -104 -148 -189 -149 -147 -1 -247 -161 -181 -291 7 -15 32 -43
56 -63 52 -45 32 -46 -53 -4 -284 142 -303 536 -34 697 100 61 214 77 290 42z"/>
<path d="M4146 4979 c-21 -16 -26 -29 -26 -63 0 -23 5 -47 12 -54 17 -17 73
-15 88 3 8 10 30 15 65 15 51 0 52 -1 121 -72 39 -40 76 -89 83 -108 21 -58
27 -65 58 -68 41 -4 63 20 63 69 0 63 -48 144 -133 227 l-75 72 -115 0 c-100
0 -117 -2 -141 -21z"/>
<path d="M2667 3412 c-23 -25 -21 -64 3 -94 24 -31 185 -124 295 -172 151 -65
214 -76 444 -76 114 0 222 5 241 10 19 6 78 17 130 25 52 9 138 29 190 45 52
16 120 36 150 44 104 29 163 84 142 131 -17 38 -54 41 -120 12 -31 -14 -73
-28 -92 -32 -19 -4 -75 -19 -125 -35 -49 -15 -112 -31 -140 -35 -27 -3 -95
-16 -150 -27 -87 -18 -121 -20 -270 -15 -142 5 -183 10 -246 30 -84 27 -247
106 -344 168 -70 44 -85 47 -108 21z"/>
<path d="M3880 4197 c-83 -28 -110 -70 -110 -171 0 -59 4 -74 26 -103 36 -47
73 -63 148 -63 56 0 69 4 97 27 97 82 88 243 -16 293 -56 27 -101 32 -145 17z"/>
<path d="M2698 4200 c-44 -8 -82 -32 -104 -65 -12 -19 -15 -42 -12 -95 3 -60
7 -73 33 -101 43 -45 77 -59 140 -59 106 0 155 50 155 157 0 71 -25 125 -69
147 -35 18 -98 25 -143 16z"/>
</g>
</svg>
