<?xml version="1.0" encoding="UTF-8"?>
<svg width="840px" height="840px" viewBox="0 0 840 840" version="1.1" xmlns="http://www.w3.org/2000/svg" xmlns:xlink="http://www.w3.org/1999/xlink">
    <!-- Generator: Sketch 52.3 (67297) - http://www.bohemiancoding.com/sketch -->
    <title>Combined Shape</title>
    <desc>Created with Sketch.</desc>
    <g id="Page-1" stroke="none" stroke-width="1" fill="none" fill-rule="evenodd">
        <g id="Group" fill="#ffffff">
            <path d="M140.520446,839.940515 L421.967019,394.126455 C430.209997,383.166744 436.217929,375.565998 439.990815,371.324217 C447.430008,362.960478 454.380253,356.847931 460.306642,352.458755 C467.055846,347.460189 470.834589,344.710738 474.37165,342.592783 C477.729103,340.582376 480.868796,339.140958 486.124567,336.885034 C496.917268,332.252503 500.815431,330.911921 511.10568,329.902574 C521.39593,328.893227 525.852087,329.751479 532.21126,330.500344 C535.285214,330.862337 541.976093,332.012234 549.034004,333.986552 C556.57699,336.096561 564.534573,339.089985 568.795389,341.192692 C576.296272,344.89437 587.211784,351.571452 601.157192,362.736766 C606.12855,366.717056 613.863258,374.096972 624.361317,384.876512 L835.438642,407.419693 C837.05206,407.764227 838.095543,408.093505 838.569089,408.407525 C839.897686,409.288552 840,410.536753 840,411.01949 C840,411.498471 839.877096,412.734188 838.569089,413.435348 C838.09239,413.690883 837.048908,413.902073 835.438642,414.068917 C808.72039,413.403022 789.009062,413.070075 776.304657,413.070075 C773.488206,413.070075 757.80022,412.350723 727.818833,414.068917 C724.416741,414.263887 708.198508,414.566295 680.664226,419.245344 C676.683776,419.921764 672.708085,420.585676 666.400342,422.155388 C659.993066,423.74987 651.173337,426.294563 636.690506,432.760875 C627.856591,436.705052 593.584163,452.470894 566.293225,508.264006 C558.540148,524.11426 547.539815,550.088911 536.881969,579.394851 C530.335498,597.395719 524.564327,616.928684 516.967884,635.242145 C507.416519,658.268523 494.615271,680.910764 481.845885,697.529958 C478.333146,702.101743 477.964871,702.842619 474.697583,706.827796 C447.483802,740.020995 434.538462,751.03128 406.611454,769.767152 C402.811645,772.316396 394.943943,777.441465 389.489169,780.76422 C351.39005,803.972161 287.973581,827.653912 214.874324,837.044145 C197.358057,839.294262 172.573431,840.259718 140.520446,839.940515 Z M526.408051,412.511533 C534.422768,412.511533 540.919979,406.088477 540.919979,398.165236 C540.919979,390.241995 534.422768,383.818939 526.408051,383.818939 C518.393334,383.818939 511.896123,390.241995 511.896123,398.165236 C511.896123,406.088477 518.393334,412.511533 526.408051,412.511533 Z M78.0669145,661.071286 C93.599758,647.720045 105.315836,637.720039 113.215148,631.071269 C121.114461,624.422498 133.810902,613.91671 151.304474,599.553903 L179.030979,615.414465 C184.403946,631.636663 188.614968,643.725773 191.664046,651.681796 C194.713124,659.637819 200.04444,672.447728 207.657993,690.111524 C178.096384,685.988096 156.184244,682.335457 141.921572,679.153606 C133.411696,677.255143 122.289081,674.785725 108.766109,670.91775 C102.671628,669.174547 92.4385632,665.892392 78.0669145,661.071286 Z M225.281856,666.69145 C168.16233,543.676123 158.124285,420.587267 195.167719,297.424882 C232.211153,174.262496 306.634801,75.120869 418.438662,4.54747351e-13 C418.295049,85.6711984 417.28792,149.418261 415.417277,191.241188 C413.546634,233.064115 408.853994,296.745263 401.339356,382.284633 L225.281856,666.69145 Z M0,440.710088 L93.8465642,430.929368 C106.009149,451.558593 115.531555,466.753355 122.413782,476.513652 C129.296009,486.27395 142.094175,502.733972 160.808279,525.89372 C162.964766,538.167559 164.714406,547.338346 166.057201,553.406082 C167.399995,559.473819 169.817111,569.131518 173.30855,582.379182 C152.847798,571.108403 137.178298,561.819196 126.300049,554.511561 C110.899061,544.165703 94.6542276,532.567362 78.3242322,519.041742 C64.9960505,508.002428 53.375601,496.931885 42.4106147,486.440839 C35.1006238,479.446808 20.9637523,464.203224 0,440.710088 Z M43.7174721,213.903346 C57.7365591,220.395193 73.1937816,227.771329 90.0891398,236.031754 C106.984498,244.292179 120.001547,250.883914 129.140287,255.806959 C127.435175,292.601633 128.789317,327.935199 133.202712,361.807657 C137.616108,395.680114 143.947229,424.74182 152.196076,448.992772 L154.572491,488.698885 C142.090123,471.953018 132.635458,458.314776 126.208496,447.784159 C113.39477,426.788791 99.9802205,402.122754 87.29108,373.098845 C73.4814625,341.512066 63.5660316,312.043205 55.0144215,274.922116 C51.875574,261.296911 48.1099242,240.957321 43.7174721,213.903346 Z M158.974529,373.159851 C154.592374,341.065594 152.160898,317.450127 151.680102,302.31345 C150.45918,263.875749 154.192762,228.042818 160.513054,195.018505 C170.566721,142.486846 186.55445,95.6962907 208.47624,54.6468401 L262.304833,132.185282 C240.299181,160.073767 219.953712,192.613998 201.268426,229.805975 C189.902195,252.429797 177.929936,285.227205 169.95857,315.69016 C166.53657,328.767497 162.875223,347.924061 158.974529,373.159851 Z" id="Combined-Shape"></path>
        </g>
    </g>
</svg>
