<?xml version="1.0" encoding="utf-8"?>
<!-- Generator: Adobe Illustrator 16.0.0, SVG Export Plug-In . SVG Version: 6.00 Build 0)  -->
<!DOCTYPE svg PUBLIC "-//W3C//DTD SVG 1.1//EN" "http://www.w3.org/Graphics/SVG/1.1/DTD/svg11.dtd">
<svg version="1.1" id="Layer_1" xmlns="http://www.w3.org/2000/svg" xmlns:xlink="http://www.w3.org/1999/xlink" x="0px" y="0px"
	 width="272px" height="32px" viewBox="0 0 272 32" enable-background="new 0 0 272 32" xml:space="preserve">
<g>
	<path fill="#E53035" d="M137.334,11.389c-0.087-0.289-0.23-0.289-0.32-0.001l-2.241,7.251c-0.089,0.287,0.084,0.521,0.386,0.521
		h3.968c0.302,0,0.478-0.234,0.391-0.523L137.334,11.389z M131.449,2.006c0.104-0.282,0.436-0.514,0.737-0.514h10.076
		c0.302,0,0.631,0.231,0.733,0.515l10.052,27.874c0.102,0.285-0.061,0.518-0.36,0.518h-8.925c-0.303,0-0.621-0.235-0.708-0.525
		l-0.759-2.48c-0.085-0.289-0.404-0.524-0.706-0.524h-8.976c-0.302,0-0.62,0.235-0.708,0.524l-0.756,2.48
		c-0.088,0.29-0.406,0.525-0.708,0.525h-8.924c-0.302,0-0.462-0.232-0.358-0.515L131.449,2.006z"/>
	<path fill="#E53035" d="M244.043,21.589c-4.394,0-5.712-3.22-5.712-5.642c0-3.04,1.897-5.718,5.771-5.718
		c4.24,0,5.744,3.07,5.744,5.597C249.847,18.519,248.252,21.589,244.043,21.589 M244.128,0.847c-10.273,0-15.31,7.102-15.31,15.162
		c0,6.423,3.502,14.961,15.148,14.961c11.163,0,15.393-8.139,15.393-15.281C259.359,8.986,255.37,0.847,244.128,0.847"/>
	<path fill-rule="evenodd" clip-rule="evenodd" fill="#E53035" d="M193.357,29.779c0,0.301-0.245,0.547-0.548,0.547h-7.816
		c-0.302,0-0.548-0.246-0.548-0.547V1.91c0-0.301,0.246-0.548,0.548-0.548h7.816c0.303,0,0.548,0.247,0.548,0.548V29.779z"/>
	<path fill-rule="evenodd" clip-rule="evenodd" fill="#E53035" d="M218.064,1.362c-0.3,0-0.548,0.247-0.548,0.548v14.579
		c0,0.301-0.131,0.342-0.295,0.088l-9.435-14.753c-0.164-0.253-0.542-0.461-0.842-0.461h-8.703c-0.301,0-0.547,0.247-0.547,0.548
		v27.87c0,0.301,0.246,0.547,0.547,0.547h7.449c0.301,0,0.546-0.246,0.546-0.547v-14.63c0-0.302,0.133-0.34,0.294-0.087L216,29.865
		c0.164,0.256,0.542,0.461,0.844,0.461h8.669c0.301,0,0.549-0.246,0.549-0.547V1.91c0-0.301-0.248-0.548-0.549-0.548H218.064z"/>
	<path fill="#E53035" d="M265.018,5.032v1.434h1.094c0.188-0.007,0.795-0.023,0.795-0.727c0-0.674-0.488-0.697-0.766-0.707H265.018z
		 M263.688,4.045h2.389c0.555,0.007,1.244,0.014,1.731,0.54c0.245,0.275,0.417,0.697,0.417,1.176c0,1.067-0.727,1.328-1.085,1.462
		l1.222,2.116h-1.464l-1.048-1.89h-0.832v1.89h-1.33V4.045z"/>
	<path fill="#E53035" d="M265.539,10.988c-2.371,0-4.295-1.921-4.295-4.294s1.924-4.298,4.295-4.298
		c2.373,0,4.297,1.925,4.297,4.298S267.912,10.988,265.539,10.988 M265.539,0.762c-3.273,0-5.927,2.656-5.927,5.932
		c0,3.274,2.653,5.929,5.927,5.929c3.275,0,5.932-2.655,5.932-5.929C271.471,3.417,268.814,0.762,265.539,0.762"/>
	<path fill="#E53035" d="M46.123,11.389c-0.087-0.289-0.23-0.289-0.321-0.001l-2.241,7.251c-0.088,0.287,0.085,0.521,0.387,0.521
		h3.969c0.301,0,0.476-0.234,0.389-0.523L46.123,11.389z M40.238,2.006c0.103-0.282,0.437-0.514,0.736-0.514h10.078
		c0.3,0,0.63,0.231,0.733,0.515l10.051,27.874c0.103,0.285-0.06,0.518-0.361,0.518H52.55c-0.301,0-0.62-0.235-0.706-0.525
		l-0.758-2.48c-0.088-0.289-0.405-0.524-0.707-0.524h-8.977c-0.302,0-0.621,0.235-0.708,0.524l-0.757,2.48
		c-0.088,0.29-0.406,0.525-0.707,0.525h-8.925c-0.3,0-0.462-0.232-0.357-0.515L40.238,2.006z"/>
	<path fill-rule="evenodd" clip-rule="evenodd" fill="#E53035" d="M75.986,14.036h-2.484V9.103h2.454
		c1.167,0,3.259,0.06,3.259,2.482C79.215,13.976,77.094,14.036,75.986,14.036 M84.169,20.511c3.978-1.756,5.6-5.782,5.6-9.269
		c0-4.377-2.861-9.728-10.475-9.832V1.406h-7.223v0.022h-8.274v28.965h9.761v-8.9h1.203l5.424,8.869h9.758L84.169,20.511z"/>
	<path fill-rule="evenodd" clip-rule="evenodd" fill="#E53035" d="M167.243,14.036h-2.485V9.103h2.456c1.166,0,3.26,0.06,3.26,2.482
		C170.474,13.976,168.35,14.036,167.243,14.036 M175.426,20.511c3.978-1.756,5.601-5.782,5.601-9.269
		c0-4.377-2.862-9.728-10.476-9.832V1.406h-7.222v0.022h-8.275v28.965h9.762v-8.9h1.201l5.425,8.869h9.759L175.426,20.511z"/>
	<path fill="#E53035" d="M104.706,23.721h-1.082v-4.42h0.822c1.729,0,4.325-0.164,4.325,2.128
		C108.771,23.558,106.436,23.721,104.706,23.721 M103.624,8.502h0.822c1.729,0,3.936-0.166,3.936,2.127
		c0,2.128-1.946,2.293-3.676,2.293h-1.082V8.502z M116.211,15.467v-0.231c2.542-0.81,3.424-3.313,3.424-5.857
		c0-6.704-5.741-8.053-11.366-8.053H93.663v0h-0.171c-0.304,0-0.552,0.249-0.552,0.552v27.949c0,0.306,0.249,0.552,0.552,0.552
		h5.139h0.002h11.716c5.086,0,10.635-2.043,10.635-8.016C120.984,18.897,119.37,16.584,116.211,15.467"/>
	<path fill="#E53035" d="M17.071,14.396v5.817h4.242c-1.025,1.414-2.714,2.425-5.247,2.425c-4.935,0-6.419-3.702-6.419-6.487
		c0-3.494,2.134-6.574,6.488-6.574c2.655,0,4.354,1.096,5.34,2.57l8.981-1.255c-0.956-5.017-5.13-10.251-14.453-10.251
		c-10.349,0-15.421,7.242-15.421,15.461c0,6.55,3.53,15.257,15.257,15.257c8.534,0,12.858-4.785,14.525-10.272
		c0.681-2.121,0.727-4.191,0.768-6.69H17.071z"/>
</g>
</svg>
