<?xml version="1.0" encoding="UTF-8" standalone="no"?>
<svg xmlns:rdf="http://www.w3.org/1999/02/22-rdf-syntax-ns#" xmlns="http://www.w3.org/2000/svg" height="256" width="256" version="1.1" xmlns:cc="http://creativecommons.org/ns#" xmlns:dc="http://purl.org/dc/elements/1.1/" viewBox="0 0 256 256">
<g transform="translate(0 -796)">
<g fill="#333">
<path d="m50.7 916v32.4q0 2.04 1.32 2.65 1.74 0.68 13.3 0.68 14.2 0 15.5-1.93 1.66-2.49 2.61-12.1l2.04 0.794q-0.151 5.22-0.151 6.01 0 6.31 2.83 6.2-0.227 3.44-3.4 4.27-3.67 1.02-19 1.02-15.2 0-17.6-1.55-2-1.44-2-5.97v-31.1l-8.13 2.57-1.25-1.85 9.37-3.02v-20.6q7.45 0.113 7.45 1.7 0 0.945-2.95 2.27v15.2l10.5-3.33v-21.1q7.52 0.113 7.52 1.85 0 0.945-3.17 2.23v15.6l10.4-3.33 2.8-4.08q4.99 3.44 4.99 4.54 0 0.529-0.567 0.869l-1.93 1.47v23.9q0 6.24-7.14 6.08-0.113-2.42-1.85-3.25-1.7-0.68-4.88-1.21v-1.97q3.63 0.491 6.65 0.491 2.8 0 2.8-2.42v-22.4l-11.2 3.59v31.3h-4.35v-30l-10.5 3.36zm-18.3-3.97v26.6q5.56-1.74 11.1-3.7l0.227 2q-10.9 5.48-22.1 9.52-0.34 2.65-1.32 2.65-1.78 0-3.4-6.73 7.63-1.55 11.1-2.49v-27.9h-10.1l-0.567-1.93h10.7v-20q7.6 0.34 7.6 1.85 0 0.945-3.25 2.23v15.9h3.7l3.4-5.03q2.76 2.99 4.5 5.4l-0.869 1.55h-10.7z"/>
<path d="m129 919v-11.8h-13.9l-0.869-1.93h14.8v-15.3q7.75 0 7.75 1.81 0 1.02-3.17 2.08v35q0 21.3-17.3 29.6l-1.25-1.7q12.1-7.86 13.8-23.1-6.42 4.19-12.1 6.73-0.34 3.25-1.32 3.25-1.44 0-3.85-6.58 9.56-2.61 16.6-5.74l0.945-0.454q0.0756-0.605 0.0756-2v-7.97h-13.3l-0.831-1.93h14.1zm-20.9-7.37q3.82 0.68 3.82 1.85 0 0.907-2.95 2.12v42.8h-4.5v-39.4q-4.42 8.01-9.07 14.4l-1.7-1.32q12-19.4 17-43 7.22 1.51 7.22 3.33 0 1.06-3.44 1.63-2.65 9.18-6.42 17.6zm38.1 9.3v13.5h9.67l4.01-5.1q2.68 2.53 4.5 4.8l0.68 0.831-0.756 1.4h-18.1v21.3h-4.5v-67.5q7.6 0 7.6 1.78 0 1.02-3.1 2.15v11.2h9.45l3.7-5.03q2.12 2 4.88 5.63l-0.794 1.32h-17.2v11.8h8.65l3.55-4.65q3.4 3.4 4.88 5.25l-0.756 1.32h-16.3z"/>
<path d="m191 902h39.2l3.17-3.78q5.03 4.31 5.03 5.25 0 0.491-0.756 0.907l-2.19 1.32q0 39.6-4.08 47.4-2.76 4.91-9.9 5.06 0-2.34-2.49-3.44-2.61-1.13-11.7-2.53v-2.08q9.37 1.13 14.7 1.13 4.69 0 5.97-3.63 2.95-8.24 2.95-43.7h-40.7q-5.93 12.1-15.5 20.6l-1.4-1.4q11.1-13.1 16.3-33.4 7.82 1.28 7.82 3.02 0 0.907-3.4 1.7-1.28 3.82-2.95 7.52zm2.31 14.2h14.9l2.83-3.4q4.72 3.67 4.72 4.72 0 0.454-0.529 0.756l-1.85 1.25v22.4h-4.5v-4.72h-16.3v5.74h-4.57v-28.9q2.8 1.06 4.65 1.93l0.605 0.302zm-0.68 1.93v17.1h16.3v-17.1h-16.3z"/>
</g>
</g>
</svg>
