<svg id="svg" version="1.1" width="500" height="500" xmlns="http://www.w3.org/2000/svg" xmlns:xlink="http://www.w3.org/1999/xlink" style="display: block;"><g id="svgg"><path id="path0" d="M0.000 200.000 L 0.000 400.000 200.000 400.000 L 400.000 400.000 400.000 200.000 L 400.000 0.000 200.000 0.000 L 0.000 0.000 0.000 200.000 M142.546 58.730 C 143.726 59.345,145.772 60.086,147.091 60.376 C 148.410 60.666,149.918 61.420,150.443 62.051 C 150.967 62.683,151.853 63.200,152.412 63.200 C 152.971 63.200,153.636 63.740,153.889 64.400 C 154.143 65.060,154.858 65.600,155.479 65.600 C 158.217 65.600,170.400 85.324,170.400 89.758 C 170.400 90.614,170.940 91.854,171.600 92.514 C 172.260 93.174,172.800 94.743,172.800 96.000 C 172.800 97.257,173.430 98.915,174.200 99.683 C 175.350 100.832,175.671 103.021,176.000 111.941 L 176.400 122.800 180.800 124.991 C 183.220 126.196,186.481 127.186,188.047 127.191 C 189.613 127.196,191.593 127.729,192.447 128.375 C 193.301 129.021,194.994 129.561,196.208 129.575 C 197.422 129.589,199.032 130.320,199.786 131.200 C 200.539 132.080,201.393 132.800,201.684 132.800 C 202.435 132.800,208.932 139.216,210.595 141.600 C 212.718 144.644,212.588 155.878,210.400 158.400 C 209.520 159.415,208.800 160.710,208.800 161.278 C 208.800 162.591,200.915 170.400,199.589 170.400 C 199.043 170.400,198.148 170.940,197.600 171.600 C 196.881 172.466,194.978 172.800,190.757 172.800 C 184.139 172.800,182.374 174.173,181.281 180.166 C 180.984 181.798,180.216 184.138,179.575 185.366 C 178.934 186.595,178.408 188.546,178.405 189.702 C 178.402 190.858,177.860 192.252,177.200 192.800 C 176.540 193.348,176.000 194.492,176.000 195.342 C 176.000 196.192,175.326 198.398,174.503 200.244 C 173.285 202.972,172.903 206.517,172.459 219.200 C 172.158 227.780,171.572 235.142,171.156 235.560 C 170.148 236.574,170.184 244.572,171.200 245.200 C 171.640 245.472,172.000 247.812,172.000 250.400 C 172.000 252.988,171.640 255.328,171.200 255.600 C 170.760 255.872,170.400 257.433,170.400 259.069 C 170.400 260.705,169.804 262.895,169.075 263.936 C 167.431 266.283,167.460 271.410,169.140 275.374 C 169.833 277.010,170.400 279.371,170.400 280.621 C 170.400 281.871,170.929 283.593,171.575 284.447 C 173.598 287.123,173.104 290.675,170.432 292.650 C 168.064 294.400,163.674 295.014,162.866 293.706 C 162.630 293.324,160.829 292.831,158.865 292.610 C 156.900 292.388,154.706 291.620,153.989 290.903 C 153.272 290.187,152.059 289.600,151.293 289.600 C 149.505 289.600,146.400 285.419,146.400 283.010 C 146.400 281.990,145.910 280.446,145.310 279.578 C 144.711 278.710,143.960 276.234,143.642 274.075 C 143.325 271.916,142.555 269.641,141.932 269.018 C 141.310 268.395,140.800 267.271,140.800 266.521 C 140.800 264.586,137.902 262.348,134.729 261.834 C 133.242 261.592,131.616 260.901,131.115 260.297 C 130.614 259.694,129.610 259.200,128.884 259.200 C 128.158 259.200,125.650 257.940,123.312 256.400 C 120.974 254.860,118.904 253.600,118.713 253.600 C 118.038 253.600,108.378 245.696,106.810 243.860 C 102.360 238.653,99.200 234.346,99.200 233.487 C 99.200 232.958,98.649 231.917,97.975 231.173 C 97.302 230.428,96.523 227.898,96.245 225.550 C 95.967 223.202,95.260 220.362,94.675 219.240 C 94.089 218.118,93.608 215.922,93.605 214.360 C 93.602 212.798,93.266 211.178,92.857 210.760 C 92.448 210.342,91.714 206.940,91.225 203.200 C 90.736 199.460,89.811 195.043,89.168 193.384 C 88.459 191.553,88.000 187.586,88.000 183.291 L 88.000 176.215 82.600 175.810 C 77.877 175.456,75.449 174.670,70.400 171.863 C 69.740 171.496,68.390 170.846,67.400 170.418 C 66.410 169.990,65.600 169.271,65.600 168.820 C 65.600 168.369,65.202 168.000,64.715 168.000 C 64.229 168.000,62.834 167.190,61.616 166.200 C 60.398 165.210,58.488 163.744,57.373 162.942 C 56.257 162.140,55.114 160.567,54.833 159.446 C 54.551 158.324,53.799 156.884,53.161 156.246 C 51.239 154.325,51.579 142.871,53.656 139.509 C 56.299 135.234,65.339 129.600,69.557 129.600 C 70.838 129.600,72.030 129.077,72.289 128.400 C 72.583 127.634,73.843 127.190,75.775 127.173 C 81.221 127.125,83.597 123.408,84.961 112.800 C 85.386 109.500,86.200 106.260,86.771 105.600 C 87.342 104.940,88.057 102.336,88.360 99.813 C 88.664 97.290,89.213 95.039,89.581 94.812 C 89.949 94.584,90.495 92.617,90.795 90.439 C 91.094 88.262,91.848 86.058,92.470 85.542 C 93.091 85.026,93.600 83.655,93.600 82.495 C 93.600 80.635,98.716 71.679,101.301 69.014 C 101.827 68.472,102.379 67.746,102.529 67.401 C 103.176 65.903,110.217 60.879,112.404 60.354 C 113.722 60.038,115.160 59.508,115.600 59.176 C 118.046 57.330,139.193 56.980,142.546 58.730 M138.533 91.597 C 135.366 94.935,138.144 101.600,142.702 101.600 C 145.330 101.600,146.618 99.748,146.618 95.970 C 146.618 90.110,142.206 87.724,138.533 91.597 M114.308 95.800 C 114.091 102.852,116.192 105.907,119.684 103.619 C 120.707 102.948,122.096 102.400,122.772 102.400 C 124.618 102.400,124.475 95.337,122.600 93.914 C 119.275 91.390,114.409 92.497,114.308 95.800 M118.600 117.348 C 116.585 118.124,117.482 124.186,120.058 127.200 L 122.450 130.000 129.535 130.000 C 137.267 130.000,138.884 129.119,140.916 123.800 C 141.378 122.590,142.171 121.587,142.678 121.572 C 144.255 121.523,139.695 119.258,137.960 119.228 C 137.058 119.213,135.978 118.886,135.560 118.502 C 134.717 117.728,120.181 116.739,118.600 117.348 M222.691 245.205 C 223.082 246.224,225.437 246.390,238.015 246.282 C 252.079 246.162,253.001 246.248,255.206 247.878 C 256.487 248.825,257.712 249.600,257.928 249.600 C 258.143 249.600,259.902 250.668,261.835 251.972 C 263.768 253.277,266.216 254.725,267.275 255.191 C 268.334 255.657,270.640 256.912,272.400 257.981 C 274.160 259.049,276.140 260.178,276.800 260.488 C 278.752 261.405,289.165 267.509,289.600 267.990 C 289.820 268.233,290.900 268.880,292.000 269.426 C 293.100 269.973,295.440 271.255,297.200 272.275 C 298.960 273.295,302.920 275.502,306.000 277.180 C 309.080 278.857,312.459 280.897,313.508 281.714 C 314.557 282.531,315.831 283.200,316.338 283.200 C 316.845 283.200,318.507 284.265,320.030 285.567 C 321.554 286.870,323.381 287.950,324.092 287.967 C 324.803 287.985,326.300 288.720,327.418 289.600 C 328.537 290.480,330.162 291.200,331.028 291.200 C 331.895 291.200,333.052 291.740,333.600 292.400 C 334.148 293.060,335.289 293.600,336.136 293.600 C 341.782 293.600,347.100 305.292,343.575 309.953 C 342.929 310.807,342.400 312.316,342.400 313.306 C 342.400 314.296,342.069 315.310,341.664 315.560 C 340.627 316.201,336.800 323.188,336.800 324.439 C 336.800 325.010,335.540 327.128,334.000 329.146 C 332.460 331.163,331.200 333.360,331.200 334.028 C 331.200 338.901,317.881 345.348,316.304 341.238 C 316.059 340.600,314.331 339.848,312.464 339.568 C 309.869 339.179,308.143 338.162,305.135 335.252 C 302.971 333.158,300.134 331.184,298.830 330.865 C 297.527 330.546,294.899 329.230,292.990 327.942 C 291.081 326.654,288.839 325.600,288.007 325.600 C 287.175 325.600,286.249 325.203,285.950 324.718 C 285.650 324.233,284.279 323.322,282.902 322.693 C 281.526 322.064,279.442 320.930,278.271 320.175 C 277.100 319.419,274.400 317.791,272.271 316.557 C 270.142 315.324,267.860 313.979,267.200 313.569 C 266.540 313.159,264.920 312.279,263.600 311.614 C 262.280 310.948,260.120 309.688,258.800 308.814 C 257.480 307.939,255.534 306.846,254.475 306.384 C 253.416 305.922,251.020 304.512,249.150 303.250 C 247.280 301.988,244.906 300.704,243.875 300.397 C 242.844 300.089,240.671 298.794,239.047 297.519 C 237.423 296.244,235.795 295.200,235.429 295.200 C 235.063 295.200,232.850 293.940,230.512 292.400 C 228.174 290.860,226.130 289.600,225.971 289.600 C 224.788 289.600,221.600 285.444,221.600 283.901 C 221.600 282.847,220.880 281.535,220.000 280.986 C 219.120 280.436,218.400 279.134,218.400 278.091 C 218.400 277.049,217.860 275.748,217.200 275.200 C 216.540 274.652,216.000 273.428,216.000 272.480 C 216.000 271.531,215.280 270.139,214.400 269.386 C 213.307 268.450,212.800 267.026,212.800 264.893 C 212.800 262.856,212.383 261.611,211.600 261.311 C 210.940 261.057,210.400 260.019,210.400 259.003 C 210.400 257.987,209.680 256.539,208.800 255.786 C 206.433 253.759,206.695 249.540,209.378 246.482 C 211.915 243.591,221.711 242.651,222.691 245.205 " stroke="none" fill="#000000" fill-rule="evenodd"></path><path id="path1" d="M118.000 58.179 C 117.120 58.395,116.040 58.844,115.600 59.176 C 115.160 59.508,113.722 60.038,112.404 60.354 C 110.217 60.879,103.176 65.903,102.529 67.401 C 102.379 67.746,101.827 68.472,101.301 69.014 C 98.716 71.679,93.600 80.635,93.600 82.495 C 93.600 83.655,93.091 85.026,92.470 85.542 C 91.848 86.058,91.094 88.262,90.795 90.439 C 90.495 92.617,89.949 94.584,89.581 94.812 C 89.213 95.039,88.664 97.290,88.360 99.813 C 88.057 102.336,87.342 104.940,86.771 105.600 C 86.200 106.260,85.386 109.500,84.961 112.800 C 83.597 123.408,81.221 127.125,75.775 127.173 C 73.843 127.190,72.583 127.634,72.289 128.400 C 72.030 129.077,70.838 129.600,69.557 129.600 C 65.339 129.600,56.299 135.234,53.656 139.509 C 51.579 142.871,51.239 154.325,53.161 156.246 C 53.799 156.884,54.551 158.324,54.833 159.446 C 55.114 160.567,56.257 162.140,57.373 162.942 C 58.488 163.744,60.398 165.210,61.616 166.200 C 62.834 167.190,64.229 168.000,64.715 168.000 C 65.202 168.000,65.600 168.369,65.600 168.820 C 65.600 169.271,66.410 169.990,67.400 170.418 C 68.390 170.846,69.740 171.496,70.400 171.863 C 75.449 174.670,77.877 175.456,82.600 175.810 L 88.000 176.215 88.000 183.291 C 88.000 187.586,88.459 191.553,89.168 193.384 C 89.811 195.043,90.736 199.460,91.225 203.200 C 91.714 206.940,92.448 210.342,92.857 210.760 C 93.266 211.178,93.602 212.798,93.605 214.360 C 93.608 215.922,94.089 218.118,94.675 219.240 C 95.260 220.362,95.967 223.202,96.245 225.550 C 96.523 227.898,97.302 230.428,97.975 231.173 C 98.649 231.917,99.200 232.958,99.200 233.487 C 99.200 234.346,102.360 238.653,106.810 243.860 C 108.378 245.696,118.038 253.600,118.713 253.600 C 118.904 253.600,120.974 254.860,123.312 256.400 C 125.650 257.940,128.158 259.200,128.884 259.200 C 129.610 259.200,130.614 259.694,131.115 260.297 C 131.616 260.901,133.242 261.592,134.729 261.834 C 137.902 262.348,140.800 264.586,140.800 266.521 C 140.800 267.271,141.310 268.395,141.932 269.018 C 142.555 269.641,143.325 271.916,143.642 274.075 C 143.960 276.234,144.711 278.710,145.310 279.578 C 145.910 280.446,146.400 281.990,146.400 283.010 C 146.400 285.419,149.505 289.600,151.293 289.600 C 152.059 289.600,153.272 290.187,153.989 290.903 C 154.706 291.620,156.900 292.388,158.865 292.610 C 160.829 292.831,162.630 293.324,162.866 293.706 C 163.674 295.014,168.064 294.400,170.432 292.650 C 173.104 290.675,173.598 287.123,171.575 284.447 C 170.929 283.593,170.400 281.871,170.400 280.621 C 170.400 279.371,169.833 277.010,169.140 275.374 C 167.460 271.410,167.431 266.283,169.075 263.936 C 169.804 262.895,170.400 260.705,170.400 259.069 C 170.400 257.433,170.760 255.872,171.200 255.600 C 171.640 255.328,172.000 252.988,172.000 250.400 C 172.000 247.812,171.640 245.472,171.200 245.200 C 170.184 244.572,170.148 236.574,171.156 235.560 C 171.572 235.142,172.158 227.780,172.459 219.200 C 172.903 206.517,173.285 202.972,174.503 200.244 C 175.326 198.398,176.000 196.192,176.000 195.342 C 176.000 194.492,176.540 193.348,177.200 192.800 C 177.860 192.252,178.402 190.858,178.405 189.702 C 178.408 188.546,178.934 186.595,179.575 185.366 C 180.216 184.138,180.984 181.798,181.281 180.166 C 182.374 174.173,184.139 172.800,190.757 172.800 C 194.978 172.800,196.881 172.466,197.600 171.600 C 198.148 170.940,199.043 170.400,199.589 170.400 C 200.915 170.400,208.800 162.591,208.800 161.278 C 208.800 160.710,209.520 159.415,210.400 158.400 C 212.588 155.878,212.718 144.644,210.595 141.600 C 208.932 139.216,202.435 132.800,201.684 132.800 C 201.393 132.800,200.539 132.080,199.786 131.200 C 199.032 130.320,197.422 129.589,196.208 129.575 C 194.994 129.561,193.301 129.021,192.447 128.375 C 191.593 127.729,189.613 127.196,188.047 127.191 C 186.481 127.186,183.220 126.196,180.800 124.991 L 176.400 122.800 176.000 111.941 C 175.671 103.021,175.350 100.832,174.200 99.683 C 173.430 98.915,172.800 97.257,172.800 96.000 C 172.800 94.743,172.260 93.174,171.600 92.514 C 170.940 91.854,170.400 90.614,170.400 89.758 C 170.400 85.324,158.217 65.600,155.479 65.600 C 154.858 65.600,154.143 65.060,153.889 64.400 C 153.636 63.740,152.971 63.200,152.412 63.200 C 151.853 63.200,150.967 62.683,150.443 62.051 C 149.918 61.420,148.410 60.666,147.091 60.376 C 145.772 60.086,143.726 59.345,142.546 58.730 C 140.441 57.631,121.919 57.216,118.000 58.179 M137.948 59.613 C 151.276 61.937,158.290 67.569,165.413 81.663 C 167.730 86.249,169.620 90.484,169.613 91.077 C 169.606 91.669,170.088 93.109,170.684 94.277 C 173.368 99.537,174.697 105.613,175.138 114.647 C 175.668 125.493,176.358 126.601,183.142 127.513 C 204.584 130.395,216.208 145.446,208.020 159.724 C 203.802 167.078,196.208 171.990,189.026 172.011 C 182.354 172.030,182.157 172.198,179.770 179.876 C 178.576 183.714,177.600 187.403,177.600 188.074 C 177.600 188.745,177.071 189.993,176.425 190.847 C 175.779 191.701,175.239 193.130,175.225 194.022 C 175.211 194.914,174.689 196.374,174.063 197.267 C 171.803 200.495,169.548 229.015,169.831 250.800 C 169.908 256.702,169.582 258.825,168.026 262.573 C 165.939 267.602,166.201 271.749,169.227 281.600 C 172.202 291.287,171.169 293.257,163.617 292.295 C 151.847 290.797,148.029 286.822,144.891 272.800 C 143.282 265.609,140.701 262.469,134.398 260.033 C 114.651 252.404,99.042 237.052,97.185 223.433 C 96.898 221.325,96.151 218.160,95.525 216.400 C 94.899 214.640,94.048 211.040,93.634 208.400 C 93.220 205.760,92.331 200.540,91.657 196.800 C 90.983 193.060,90.425 186.874,90.416 183.054 C 90.398 175.391,90.652 175.739,84.400 174.810 C 77.808 173.831,72.184 171.748,67.958 168.721 C 65.561 167.004,62.254 164.697,60.609 163.595 C 53.457 158.804,50.550 146.546,55.083 140.289 C 58.196 135.991,67.263 130.400,71.119 130.400 C 71.868 130.400,72.854 130.026,73.310 129.570 C 73.767 129.113,75.903 128.303,78.057 127.770 C 83.009 126.544,85.129 123.085,86.250 114.400 C 86.676 111.100,87.957 105.880,89.096 102.800 C 90.234 99.720,91.174 96.391,91.183 95.403 C 91.202 93.372,93.803 85.401,96.208 80.000 C 103.814 62.921,117.786 56.097,137.948 59.613 M137.587 90.998 C 135.593 93.533,135.893 98.472,138.197 101.017 C 140.578 103.648,145.673 102.611,147.545 99.115 C 151.309 92.084,142.428 84.844,137.587 90.998 M145.185 91.184 C 146.864 93.039,147.120 98.569,145.611 100.387 C 143.163 103.336,138.257 100.810,137.214 96.064 C 136.159 91.258,142.010 87.675,145.185 91.184 M116.400 91.858 C 110.142 92.975,111.020 104.788,117.375 104.969 C 122.795 105.123,125.534 102.921,125.575 98.378 C 125.620 93.344,122.099 90.842,116.400 91.858 M122.600 93.914 C 124.475 95.337,124.618 102.400,122.772 102.400 C 122.096 102.400,120.707 102.948,119.684 103.619 C 116.192 105.907,114.091 102.852,114.308 95.800 C 114.409 92.497,119.275 91.390,122.600 93.914 M118.949 115.725 C 117.026 116.733,116.800 117.300,116.800 121.118 C 116.800 132.895,131.702 136.928,140.057 127.413 C 146.274 120.332,145.011 117.999,134.536 117.211 C 130.721 116.924,126.137 116.219,124.349 115.644 C 121.623 114.768,120.752 114.781,118.949 115.725 M135.560 118.502 C 135.978 118.886,137.058 119.213,137.960 119.228 C 139.695 119.258,144.255 121.523,142.678 121.572 C 142.171 121.587,141.378 122.590,140.916 123.800 C 138.884 129.119,137.267 130.000,129.535 130.000 L 122.450 130.000 120.058 127.200 C 117.482 124.186,116.585 118.124,118.600 117.348 C 120.181 116.739,134.717 117.728,135.560 118.502 M209.378 246.482 C 206.695 249.540,206.433 253.759,208.800 255.786 C 209.680 256.539,210.400 257.987,210.400 259.003 C 210.400 260.019,210.940 261.057,211.600 261.311 C 212.383 261.611,212.800 262.856,212.800 264.893 C 212.800 267.026,213.307 268.450,214.400 269.386 C 215.280 270.139,216.000 271.531,216.000 272.480 C 216.000 273.428,216.540 274.652,217.200 275.200 C 217.860 275.748,218.400 277.049,218.400 278.091 C 218.400 279.134,219.120 280.436,220.000 280.986 C 220.880 281.535,221.600 282.847,221.600 283.901 C 221.600 285.444,224.788 289.600,225.971 289.600 C 226.130 289.600,228.174 290.860,230.512 292.400 C 232.850 293.940,235.063 295.200,235.429 295.200 C 235.795 295.200,237.423 296.244,239.047 297.519 C 240.671 298.794,242.844 300.089,243.875 300.397 C 244.906 300.704,247.280 301.988,249.150 303.250 C 251.020 304.512,253.416 305.922,254.475 306.384 C 255.534 306.846,257.480 307.939,258.800 308.814 C 260.120 309.688,262.280 310.948,263.600 311.614 C 264.920 312.279,266.540 313.159,267.200 313.569 C 267.860 313.979,270.142 315.324,272.271 316.557 C 274.400 317.791,277.100 319.419,278.271 320.175 C 279.442 320.930,281.526 322.064,282.902 322.693 C 284.279 323.322,285.650 324.233,285.950 324.718 C 286.249 325.203,287.175 325.600,288.007 325.600 C 288.839 325.600,291.068 326.641,292.960 327.913 C 294.852 329.186,297.740 330.594,299.378 331.043 L 302.355 331.859 300.178 329.129 C 298.980 327.628,297.391 326.400,296.647 326.400 C 295.903 326.400,295.068 326.034,294.792 325.587 C 294.516 325.140,293.979 324.966,293.600 325.200 C 293.221 325.434,292.684 325.260,292.408 324.813 C 292.132 324.366,291.145 324.000,290.216 324.000 C 289.286 324.000,287.958 323.500,287.263 322.890 C 286.568 322.279,284.078 320.784,281.728 319.568 C 279.379 318.352,277.270 316.872,277.043 316.279 C 276.815 315.685,275.789 315.200,274.762 315.200 C 273.735 315.200,272.669 314.835,272.393 314.388 C 272.116 313.941,270.745 313.042,269.345 312.390 C 267.945 311.737,265.720 310.488,264.400 309.614 C 263.080 308.739,261.265 307.696,260.367 307.295 C 259.469 306.895,258.255 305.989,257.669 305.283 C 257.083 304.578,255.949 304.000,255.149 304.000 C 254.349 304.000,253.484 303.660,253.228 303.245 C 252.971 302.829,249.800 300.988,246.180 299.154 C 242.561 297.319,239.146 295.451,238.590 295.003 C 237.508 294.130,234.119 292.179,229.600 289.829 C 224.181 287.011,222.400 285.455,222.400 283.536 C 222.400 282.475,221.703 281.283,220.800 280.800 C 219.776 280.252,219.200 279.125,219.200 277.670 C 219.200 276.419,218.660 274.948,218.000 274.400 C 217.340 273.852,216.798 272.818,216.795 272.102 C 216.792 271.386,216.074 269.720,215.200 268.400 C 214.326 267.080,213.608 264.851,213.605 263.447 C 213.602 262.043,213.240 260.672,212.800 260.400 C 212.360 260.128,212.000 259.203,212.000 258.345 C 212.000 257.487,211.280 256.168,210.400 255.414 C 208.093 253.439,208.300 249.372,210.836 246.836 C 213.250 244.423,219.864 243.909,221.600 246.000 C 222.416 246.983,225.122 247.200,236.551 247.200 C 251.115 247.200,252.003 247.372,256.400 251.040 C 257.720 252.141,259.880 253.553,261.200 254.176 C 262.520 254.800,265.040 256.172,266.800 257.226 C 268.560 258.280,271.620 260.079,273.600 261.223 C 275.580 262.368,278.640 264.166,280.400 265.219 C 282.160 266.273,284.680 267.693,286.000 268.374 C 289.495 270.179,297.212 274.664,298.496 275.637 C 299.103 276.097,301.580 277.506,304.000 278.768 C 309.807 281.795,315.200 285.489,315.200 286.438 C 315.200 286.857,315.790 287.200,316.512 287.200 C 317.233 287.200,318.227 287.752,318.721 288.427 C 319.441 289.411,320.250 289.506,322.809 288.908 C 324.564 288.497,325.280 288.110,324.400 288.048 C 323.520 287.986,321.554 286.870,320.030 285.567 C 318.507 284.265,316.845 283.200,316.338 283.200 C 315.831 283.200,314.557 282.531,313.508 281.714 C 312.459 280.897,309.080 278.857,306.000 277.180 C 302.920 275.502,298.960 273.295,297.200 272.275 C 295.440 271.255,293.100 269.973,292.000 269.426 C 290.900 268.880,289.820 268.233,289.600 267.990 C 289.165 267.509,278.752 261.405,276.800 260.488 C 276.140 260.178,274.160 259.049,272.400 257.981 C 270.640 256.912,268.334 255.657,267.275 255.191 C 266.216 254.725,263.768 253.277,261.835 251.972 C 259.902 250.668,258.143 249.600,257.928 249.600 C 257.712 249.600,256.487 248.825,255.206 247.878 C 253.001 246.248,252.079 246.162,238.015 246.282 C 225.437 246.390,223.082 246.224,222.691 245.205 C 221.711 242.651,211.915 243.591,209.378 246.482 M333.048 292.516 C 334.393 294.110,339.611 295.712,338.711 294.255 C 338.488 293.895,337.545 293.600,336.616 293.600 C 335.686 293.600,334.178 292.970,333.263 292.200 C 331.615 290.813,331.613 290.816,333.048 292.516 M340.800 297.075 C 340.800 297.318,341.700 298.489,342.800 299.676 C 343.900 300.863,344.794 301.511,344.786 301.117 C 344.771 300.353,340.800 296.326,340.800 297.075 M341.693 313.302 C 341.642 314.238,341.060 315.452,340.400 316.000 C 339.740 316.548,339.200 317.360,339.200 317.806 C 339.200 318.251,339.946 317.667,340.859 316.507 C 341.771 315.348,342.353 313.769,342.151 312.999 C 341.861 311.889,341.766 311.951,341.693 313.302 M336.000 324.339 C 336.000 324.965,334.740 327.128,333.200 329.146 C 331.660 331.163,330.400 333.401,330.400 334.119 C 330.400 334.836,329.770 335.933,329.000 336.556 C 327.737 337.578,327.776 337.603,329.400 336.816 C 330.390 336.336,331.200 335.239,331.200 334.379 C 331.200 333.518,332.460 331.163,334.000 329.146 C 336.475 325.903,337.566 323.200,336.400 323.200 C 336.180 323.200,336.000 323.712,336.000 324.339 M324.960 340.485 C 324.410 341.468,323.288 341.703,320.196 341.485 C 317.971 341.328,316.318 341.470,316.522 341.800 C 317.411 343.233,324.729 342.427,325.600 340.800 C 326.613 338.908,326.009 338.611,324.960 340.485 " stroke="none" fill="#323232" fill-rule="evenodd"></path><path id="path2" d="M119.600 59.917 C 110.074 61.993,105.561 64.998,100.258 72.800 C 96.382 78.503,91.221 91.357,91.183 95.403 C 91.174 96.391,90.234 99.720,89.096 102.800 C 87.957 105.880,86.676 111.100,86.250 114.400 C 85.129 123.085,83.009 126.544,78.057 127.770 C 75.903 128.303,73.767 129.113,73.310 129.570 C 72.854 130.026,71.868 130.400,71.119 130.400 C 67.263 130.400,58.196 135.991,55.083 140.289 C 50.550 146.546,53.457 158.804,60.609 163.595 C 62.254 164.697,65.561 167.004,67.958 168.721 C 72.184 171.748,77.808 173.831,84.400 174.810 C 90.652 175.739,90.398 175.391,90.416 183.054 C 90.425 186.874,90.983 193.060,91.657 196.800 C 92.331 200.540,93.220 205.760,93.634 208.400 C 94.048 211.040,94.899 214.640,95.525 216.400 C 96.151 218.160,96.898 221.325,97.185 223.433 C 99.042 237.052,114.651 252.404,134.398 260.033 C 140.701 262.469,143.282 265.609,144.891 272.800 C 148.029 286.822,151.847 290.797,163.617 292.295 C 171.169 293.257,172.202 291.287,169.227 281.600 C 166.201 271.749,165.939 267.602,168.026 262.573 C 169.582 258.825,169.908 256.702,169.831 250.800 C 169.548 229.015,171.803 200.495,174.063 197.267 C 174.689 196.374,175.211 194.914,175.225 194.022 C 175.239 193.130,175.779 191.701,176.425 190.847 C 177.071 189.993,177.600 188.745,177.600 188.074 C 177.600 187.403,178.576 183.714,179.770 179.876 C 182.157 172.198,182.354 172.030,189.026 172.011 C 196.208 171.990,203.802 167.078,208.020 159.724 C 216.208 145.446,204.584 130.395,183.142 127.513 C 176.358 126.601,175.668 125.493,175.138 114.647 C 174.697 105.613,173.368 99.537,170.684 94.277 C 170.088 93.109,169.606 91.669,169.613 91.077 C 169.645 88.364,160.967 73.086,157.163 69.160 C 148.414 60.128,134.426 56.686,119.600 59.917 M146.256 63.470 C 147.064 64.201,147.982 64.800,148.295 64.800 C 148.916 64.800,153.304 67.795,155.036 69.400 C 155.629 69.950,156.449 70.400,156.857 70.400 C 157.266 70.400,157.600 70.951,157.600 71.625 C 157.600 72.299,158.140 73.057,158.800 73.311 C 159.460 73.564,160.000 74.456,160.000 75.293 C 160.000 76.131,160.720 77.432,161.600 78.186 C 162.480 78.939,163.200 80.331,163.200 81.280 C 163.200 82.228,163.740 83.452,164.400 84.000 C 165.060 84.548,165.600 85.646,165.600 86.441 C 165.600 87.236,166.114 88.400,166.742 89.028 C 167.370 89.656,168.134 91.499,168.439 93.124 C 168.743 94.749,169.429 96.515,169.962 97.048 C 170.496 97.581,171.160 99.942,171.438 102.293 C 171.717 104.645,172.278 106.981,172.685 107.485 C 173.093 107.988,173.566 112.310,173.737 117.090 C 174.105 127.410,175.038 128.800,181.591 128.800 C 184.004 128.800,185.770 129.240,186.400 130.000 C 186.948 130.660,188.482 131.200,189.810 131.200 C 192.152 131.200,198.778 133.963,200.400 135.615 C 208.317 143.681,210.516 151.210,206.820 157.600 C 206.183 158.700,205.409 160.140,205.098 160.800 C 203.908 163.328,198.150 168.089,195.731 168.544 C 194.339 168.805,192.653 169.491,191.984 170.067 C 191.316 170.643,188.446 171.223,185.607 171.357 C 180.470 171.599,180.441 171.613,179.615 174.400 C 179.158 175.940,178.338 177.986,177.792 178.947 C 177.246 179.908,176.800 182.114,176.800 183.849 C 176.800 185.601,176.294 187.424,175.663 187.948 C 175.037 188.467,174.289 190.291,174.000 192.000 C 173.711 193.709,172.963 195.533,172.337 196.052 C 171.712 196.571,171.200 198.224,171.200 199.726 C 171.200 201.228,170.678 203.254,170.040 204.228 C 169.103 205.660,168.824 211.006,168.589 232.051 C 168.335 254.892,168.133 258.340,166.950 260.029 C 166.207 261.089,165.600 262.884,165.600 264.018 C 165.600 265.152,165.178 266.502,164.662 267.018 C 163.944 267.736,163.944 268.441,164.662 270.016 C 165.178 271.149,165.600 273.598,165.600 275.460 C 165.600 277.321,166.156 279.638,166.836 280.609 C 167.516 281.579,168.286 284.180,168.548 286.387 L 169.023 290.400 164.209 290.400 C 160.907 290.400,159.083 290.023,158.400 289.200 C 157.852 288.540,156.638 287.994,155.702 287.986 C 153.973 287.972,150.400 284.851,150.400 283.354 C 150.400 282.903,150.020 282.407,149.556 282.252 C 149.092 282.097,148.430 279.894,148.086 277.355 C 147.741 274.817,147.041 272.321,146.530 271.810 C 146.018 271.298,145.600 269.981,145.600 268.883 C 145.600 265.931,141.726 260.785,139.109 260.262 C 137.895 260.019,136.711 259.321,136.476 258.710 C 136.242 258.100,135.007 257.600,133.733 257.600 C 132.459 257.600,130.500 256.880,129.382 256.000 C 128.263 255.120,126.933 254.400,126.426 254.400 C 125.919 254.400,123.816 253.140,121.752 251.600 C 119.688 250.060,117.372 248.350,116.604 247.800 C 115.836 247.250,113.956 245.900,112.426 244.800 C 110.896 243.700,109.634 242.480,109.622 242.089 C 109.610 241.699,108.156 239.719,106.392 237.689 C 104.627 235.660,102.647 233.370,101.992 232.600 C 101.336 231.830,100.800 230.344,100.800 229.298 C 100.800 228.252,100.301 226.982,99.692 226.476 C 99.036 225.932,98.450 223.463,98.257 220.424 C 98.044 217.082,97.454 214.764,96.565 213.782 C 95.556 212.668,95.199 210.828,95.195 206.737 C 95.192 203.390,94.717 200.294,93.995 198.909 C 93.121 197.233,92.797 193.900,92.788 186.509 C 92.774 175.130,92.678 174.829,88.800 174.008 C 87.260 173.682,85.616 173.108,85.147 172.732 C 84.678 172.356,82.158 171.809,79.547 171.515 C 76.936 171.222,74.312 170.595,73.715 170.122 C 72.148 168.881,69.529 167.364,67.000 166.233 C 65.790 165.692,64.800 164.788,64.800 164.225 C 64.800 163.661,64.318 163.200,63.729 163.200 C 62.402 163.200,56.802 157.252,56.795 155.835 C 56.792 155.266,56.074 153.720,55.200 152.400 C 51.695 147.107,56.619 138.069,64.800 134.780 C 65.460 134.515,67.080 133.782,68.400 133.152 C 69.720 132.522,71.962 131.781,73.382 131.507 C 74.802 131.232,76.376 130.511,76.880 129.904 C 77.384 129.297,78.944 128.800,80.348 128.800 C 84.348 128.800,86.681 125.050,87.066 118.000 C 87.234 114.920,87.824 111.860,88.378 111.200 C 88.931 110.540,89.599 108.589,89.863 106.865 C 90.127 105.140,90.787 103.455,91.330 103.119 C 91.886 102.776,92.463 100.224,92.650 97.277 C 92.849 94.158,93.431 91.672,94.092 91.124 C 94.701 90.618,95.200 89.347,95.200 88.299 C 95.200 87.251,95.920 85.051,96.800 83.409 C 97.680 81.767,98.400 79.788,98.400 79.012 C 98.400 78.235,98.736 77.600,99.146 77.600 C 99.556 77.600,100.139 76.823,100.440 75.874 C 101.887 71.314,112.589 62.921,118.000 62.102 C 124.321 61.145,144.781 62.135,146.256 63.470 M137.685 88.721 C 131.850 94.172,134.778 103.200,142.380 103.200 C 151.908 103.200,153.536 92.078,144.657 87.649 C 141.237 85.942,140.545 86.049,137.685 88.721 M145.818 89.932 C 150.495 94.609,148.707 101.801,142.759 102.238 C 138.814 102.528,137.100 100.956,136.367 96.377 C 135.439 90.570,141.989 86.103,145.818 89.932 M115.436 90.553 C 110.099 91.957,108.531 99.256,112.543 104.024 C 116.961 109.274,127.901 105.637,127.975 98.894 C 127.999 96.702,125.270 91.221,124.135 91.181 C 123.841 91.170,122.340 90.873,120.800 90.520 C 119.260 90.167,116.846 90.182,115.436 90.553 M124.417 93.868 C 128.135 99.176,124.335 105.167,117.375 104.969 C 111.020 104.788,110.142 92.975,116.400 91.858 C 119.605 91.287,123.249 92.200,124.417 93.868 M116.698 114.923 C 114.712 117.315,115.266 125.655,117.600 128.513 C 120.887 132.539,123.476 133.600,130.013 133.600 L 135.896 133.600 140.348 129.148 C 148.024 121.472,146.349 116.000,136.323 116.000 C 133.616 116.000,129.871 115.460,128.000 114.800 C 123.411 113.181,118.096 113.239,116.698 114.923 M134.536 117.211 C 145.011 117.999,146.274 120.332,140.057 127.413 C 131.702 136.928,116.800 132.895,116.800 121.118 C 116.800 115.595,119.073 113.947,124.349 115.644 C 126.137 116.219,130.721 116.924,134.536 117.211 M61.164 148.364 C 60.790 150.858,60.914 152.434,61.533 153.053 C 62.973 154.493,64.064 152.121,63.490 148.800 C 62.735 144.431,61.780 144.252,61.164 148.364 M210.600 246.913 C 208.305 249.391,208.208 253.537,210.400 255.414 C 211.280 256.168,212.000 257.487,212.000 258.345 C 212.000 259.203,212.360 260.128,212.800 260.400 C 213.240 260.672,213.600 260.209,213.600 259.371 C 213.600 257.880,215.894 255.200,217.171 255.200 C 219.778 255.200,223.200 247.520,221.397 245.717 C 219.653 243.973,212.598 244.755,210.600 246.913 M314.112 286.872 C 313.816 287.791,312.679 289.022,311.587 289.607 C 310.494 290.192,309.600 290.939,309.600 291.267 C 309.600 291.596,308.531 292.873,307.225 294.106 C 305.919 295.339,304.407 297.439,303.865 298.774 C 303.323 300.108,301.686 302.915,300.227 305.010 C 296.357 310.569,292.810 324.605,294.968 325.822 C 298.428 327.774,300.189 327.257,299.661 324.444 C 299.074 321.314,301.729 310.937,303.680 308.737 C 304.296 308.042,304.800 307.244,304.800 306.962 C 304.800 306.047,311.404 296.800,312.057 296.800 C 312.406 296.800,312.898 296.151,313.150 295.359 C 313.401 294.566,314.995 293.040,316.691 291.968 C 319.910 289.935,319.900 287.200,316.674 287.200 C 315.937 287.200,315.180 286.750,314.992 286.200 C 314.792 285.613,314.428 285.890,314.112 286.872 " stroke="none" fill="#757575" fill-rule="evenodd"></path><path id="path3" d="M118.000 62.102 C 112.589 62.921,101.887 71.314,100.440 75.874 C 100.139 76.823,99.556 77.600,99.146 77.600 C 98.736 77.600,98.400 78.235,98.400 79.012 C 98.400 79.788,97.680 81.767,96.800 83.409 C 95.920 85.051,95.200 87.251,95.200 88.299 C 95.200 89.347,94.701 90.618,94.092 91.124 C 93.431 91.672,92.849 94.158,92.650 97.277 C 92.463 100.224,91.886 102.776,91.330 103.119 C 90.787 103.455,90.127 105.140,89.863 106.865 C 89.599 108.589,88.931 110.540,88.378 111.200 C 87.824 111.860,87.234 114.920,87.066 118.000 C 86.681 125.050,84.348 128.800,80.348 128.800 C 78.944 128.800,77.384 129.297,76.880 129.904 C 76.376 130.511,74.802 131.232,73.382 131.507 C 71.962 131.781,69.720 132.522,68.400 133.152 C 67.080 133.782,65.460 134.515,64.800 134.780 C 56.619 138.069,51.695 147.107,55.200 152.400 C 56.074 153.720,56.792 155.266,56.795 155.835 C 56.802 157.252,62.402 163.200,63.729 163.200 C 64.318 163.200,64.800 163.661,64.800 164.225 C 64.800 164.788,65.790 165.692,67.000 166.233 C 69.529 167.364,72.148 168.881,73.715 170.122 C 74.312 170.595,76.936 171.222,79.547 171.515 C 82.158 171.809,84.678 172.356,85.147 172.732 C 85.616 173.108,87.260 173.682,88.800 174.008 C 92.678 174.829,92.774 175.130,92.788 186.509 C 92.797 193.900,93.121 197.233,93.995 198.909 C 94.717 200.294,95.192 203.390,95.195 206.737 C 95.199 210.828,95.556 212.668,96.565 213.782 C 97.454 214.764,98.044 217.082,98.257 220.424 C 98.450 223.463,99.036 225.932,99.692 226.476 C 100.301 226.982,100.800 228.252,100.800 229.298 C 100.800 230.344,101.336 231.830,101.992 232.600 C 102.647 233.370,104.627 235.660,106.392 237.689 C 108.156 239.719,109.610 241.699,109.622 242.089 C 109.634 242.480,110.896 243.700,112.426 244.800 C 113.956 245.900,115.836 247.250,116.604 247.800 C 117.372 248.350,119.688 250.060,121.752 251.600 C 123.816 253.140,125.919 254.400,126.426 254.400 C 126.933 254.400,128.263 255.120,129.382 256.000 C 130.500 256.880,132.459 257.600,133.733 257.600 C 135.007 257.600,136.242 258.100,136.476 258.710 C 136.711 259.321,137.895 260.019,139.109 260.262 C 141.726 260.785,145.600 265.931,145.600 268.883 C 145.600 269.981,146.018 271.298,146.530 271.810 C 147.041 272.321,147.741 274.817,148.086 277.355 C 148.430 279.894,149.092 282.097,149.556 282.252 C 150.020 282.407,150.400 282.903,150.400 283.354 C 150.400 284.851,153.973 287.972,155.702 287.986 C 156.638 287.994,157.852 288.540,158.400 289.200 C 159.083 290.023,160.907 290.400,164.209 290.400 L 169.023 290.400 168.548 286.387 C 168.286 284.180,167.516 281.579,166.836 280.609 C 166.156 279.638,165.600 277.321,165.600 275.460 C 165.600 273.598,165.178 271.149,164.662 270.016 C 163.944 268.441,163.944 267.736,164.662 267.018 C 165.178 266.502,165.600 265.152,165.600 264.018 C 165.600 262.884,166.207 261.089,166.950 260.029 C 168.133 258.340,168.335 254.892,168.589 232.051 C 168.824 211.006,169.103 205.660,170.040 204.228 C 170.678 203.254,171.200 201.228,171.200 199.726 C 171.200 198.224,171.712 196.571,172.337 196.052 C 172.963 195.533,173.711 193.709,174.000 192.000 C 174.289 190.291,175.037 188.467,175.663 187.948 C 176.294 187.424,176.800 185.601,176.800 183.849 C 176.800 182.114,177.246 179.908,177.792 178.947 C 178.338 177.986,179.158 175.940,179.615 174.400 C 180.441 171.613,180.470 171.599,185.607 171.357 C 188.446 171.223,191.316 170.643,191.984 170.067 C 192.653 169.491,194.339 168.805,195.731 168.544 C 198.150 168.089,203.908 163.328,205.098 160.800 C 205.409 160.140,206.183 158.700,206.820 157.600 C 210.516 151.210,208.317 143.681,200.400 135.615 C 198.778 133.963,192.152 131.200,189.810 131.200 C 188.482 131.200,186.948 130.660,186.400 130.000 C 185.770 129.240,184.004 128.800,181.591 128.800 C 175.038 128.800,174.105 127.410,173.737 117.090 C 173.566 112.310,173.093 107.988,172.685 107.485 C 172.278 106.981,171.717 104.645,171.438 102.293 C 171.160 99.942,170.496 97.581,169.962 97.048 C 169.429 96.515,168.743 94.749,168.439 93.124 C 168.134 91.499,167.370 89.656,166.742 89.028 C 166.114 88.400,165.600 87.236,165.600 86.441 C 165.600 85.646,165.060 84.548,164.400 84.000 C 163.740 83.452,163.200 82.228,163.200 81.280 C 163.200 80.331,162.480 78.939,161.600 78.186 C 160.720 77.432,160.000 76.131,160.000 75.293 C 160.000 74.456,159.460 73.564,158.800 73.311 C 158.140 73.057,157.600 72.299,157.600 71.625 C 157.600 70.951,157.266 70.400,156.857 70.400 C 156.449 70.400,155.629 69.950,155.036 69.400 C 153.304 67.795,148.916 64.800,148.295 64.800 C 147.982 64.800,147.064 64.201,146.256 63.470 C 144.781 62.135,124.321 61.145,118.000 62.102 M144.657 87.649 C 153.536 92.078,151.908 103.200,142.380 103.200 C 136.552 103.200,135.200 101.720,135.200 95.343 C 135.200 88.522,139.460 85.056,144.657 87.649 M124.135 91.181 C 125.270 91.221,127.999 96.702,127.975 98.894 C 127.901 105.637,116.961 109.274,112.543 104.024 C 106.802 97.202,112.106 88.527,120.800 90.520 C 122.340 90.873,123.841 91.170,124.135 91.181 M128.000 114.800 C 129.871 115.460,133.616 116.000,136.323 116.000 C 146.349 116.000,148.024 121.472,140.348 129.148 L 135.896 133.600 130.013 133.600 C 120.273 133.600,115.600 129.565,115.600 121.155 C 115.600 113.533,119.192 111.692,128.000 114.800 M63.490 148.800 C 64.064 152.121,62.973 154.493,61.533 153.053 C 60.914 152.434,60.790 150.858,61.164 148.364 C 61.780 144.252,62.735 144.431,63.490 148.800 " stroke="none" fill="#cacaca" fill-rule="evenodd"></path><path id="path4" d="M321.600 289.810 C 321.600 290.366,322.408 291.176,323.395 291.610 C 324.383 292.045,325.324 293.120,325.488 294.000 C 325.867 296.039,327.022 296.772,329.876 296.788 C 335.001 296.815,342.034 306.963,338.000 308.511 C 337.340 308.764,336.793 309.923,336.785 311.086 C 336.763 314.174,332.404 320.633,329.365 322.082 C 327.930 322.767,326.157 324.372,325.424 325.649 C 321.302 332.831,304.229 324.651,305.024 315.876 C 305.276 313.099,305.118 310.997,304.635 310.698 C 303.457 309.970,302.426 311.990,302.412 315.053 C 302.406 316.512,302.085 318.312,301.700 319.053 C 299.520 323.244,300.180 329.465,303.136 332.595 C 307.698 337.425,310.408 339.200,313.222 339.200 C 314.801 339.200,316.010 339.673,316.289 340.400 C 317.826 344.404,330.400 338.708,330.400 334.007 C 330.400 333.351,331.628 331.205,333.130 329.238 C 334.631 327.271,336.094 324.593,336.381 323.286 C 336.668 321.980,337.420 320.482,338.051 319.957 C 338.683 319.433,339.200 318.552,339.200 318.000 C 339.200 317.448,339.740 316.548,340.400 316.000 C 341.060 315.452,341.600 314.413,341.600 313.690 C 341.600 312.968,342.320 311.033,343.200 309.391 C 346.129 303.926,341.724 294.400,336.268 294.400 C 335.377 294.400,333.996 293.680,333.200 292.800 C 332.404 291.920,330.952 291.200,329.974 291.200 C 328.996 291.200,327.748 290.660,327.200 290.000 C 325.986 288.537,321.600 288.388,321.600 289.810 M317.089 293.200 C 316.836 293.860,316.127 294.400,315.514 294.400 C 314.901 294.400,314.400 294.940,314.400 295.600 C 314.400 296.260,314.561 296.800,314.759 296.800 C 315.336 296.800,319.200 293.066,319.200 292.508 C 319.200 291.489,317.537 292.034,317.089 293.200 M306.034 306.345 C 305.488 307.229,306.750 308.184,307.488 307.445 C 308.249 306.684,308.107 305.600,307.247 305.600 C 306.833 305.600,306.287 305.935,306.034 306.345 " stroke="none" fill="#b61700" fill-rule="evenodd"></path><path id="path5" d="M215.200 265.363 C 215.200 265.825,215.740 266.652,216.400 267.200 C 217.060 267.748,217.600 269.008,217.600 270.000 C 217.600 270.992,218.130 272.244,218.779 272.782 C 219.427 273.321,220.193 275.013,220.480 276.544 C 220.767 278.075,221.497 279.518,222.101 279.749 C 222.705 279.981,223.231 281.303,223.269 282.686 L 223.338 285.200 224.092 282.800 C 225.573 278.085,225.193 276.263,222.120 273.365 C 220.514 271.850,219.200 270.086,219.200 269.445 C 219.200 268.804,218.300 267.433,217.200 266.400 C 216.100 265.367,215.200 264.900,215.200 265.363 M319.371 293.074 C 308.359 301.199,301.299 317.430,306.600 322.439 C 312.224 327.752,323.147 329.616,325.424 325.649 C 326.157 324.372,327.930 322.767,329.365 322.082 C 332.404 320.633,336.763 314.174,336.785 311.086 C 336.793 309.923,337.340 308.764,338.000 308.511 C 341.877 307.023,335.016 296.800,330.141 296.800 C 327.165 296.800,325.600 295.998,325.600 294.474 C 325.600 291.042,322.936 290.443,319.371 293.074 " stroke="none" fill="#ff6b67" fill-rule="evenodd"></path><path id="path6" d="M222.133 247.733 C 221.840 248.027,221.600 248.908,221.600 249.692 C 221.600 251.234,218.311 255.200,217.032 255.200 C 213.576 255.200,212.342 264.085,215.200 268.400 C 216.074 269.720,216.792 271.386,216.795 272.102 C 216.798 272.818,217.340 273.852,218.000 274.400 C 218.660 274.948,219.200 276.196,219.200 277.174 C 219.200 278.152,219.920 279.604,220.800 280.400 C 221.680 281.196,222.400 282.651,222.400 283.632 C 222.400 285.444,224.283 287.064,229.600 289.829 C 234.119 292.179,237.508 294.130,238.590 295.003 C 239.146 295.451,242.561 297.319,246.180 299.154 C 249.800 300.988,252.971 302.829,253.228 303.245 C 253.484 303.660,254.349 304.000,255.149 304.000 C 255.949 304.000,257.083 304.578,257.669 305.283 C 258.255 305.989,259.469 306.895,260.367 307.295 C 261.265 307.696,263.080 308.739,264.400 309.614 C 265.720 310.488,267.945 311.737,269.345 312.390 C 270.745 313.042,272.116 313.941,272.393 314.388 C 272.669 314.835,273.735 315.200,274.762 315.200 C 275.789 315.200,276.815 315.685,277.043 316.279 C 277.270 316.872,279.379 318.352,281.728 319.568 C 284.078 320.784,286.568 322.279,287.263 322.890 C 287.958 323.500,289.236 324.000,290.103 324.000 C 290.970 324.000,292.071 324.391,292.550 324.870 C 293.788 326.108,294.385 324.838,294.923 319.819 C 295.561 313.871,297.154 309.423,300.227 305.010 C 301.686 302.915,303.338 300.072,303.898 298.694 C 304.458 297.315,305.700 295.476,306.658 294.607 C 307.616 293.739,308.979 292.346,309.686 291.514 C 310.393 290.681,311.743 289.374,312.686 288.608 C 315.910 285.989,314.144 284.063,303.200 278.269 C 301.220 277.220,298.700 275.781,297.600 275.070 C 294.823 273.276,288.872 269.836,286.000 268.364 C 284.680 267.688,282.160 266.273,280.400 265.219 C 278.640 264.166,275.580 262.368,273.600 261.223 C 271.620 260.079,268.560 258.280,266.800 257.226 C 265.040 256.172,262.520 254.800,261.200 254.176 C 259.880 253.553,257.720 252.141,256.400 251.040 C 255.080 249.939,253.214 248.624,252.253 248.119 C 250.368 247.128,223.088 246.778,222.133 247.733 M251.831 249.288 C 252.144 249.777,253.480 250.792,254.800 251.543 C 256.120 252.295,258.640 253.777,260.400 254.836 C 262.160 255.895,264.466 257.143,265.525 257.609 C 266.584 258.075,269.032 259.523,270.965 260.828 C 272.898 262.132,274.665 263.200,274.892 263.200 C 275.118 263.200,279.577 265.720,284.800 268.800 C 290.023 271.880,294.561 274.400,294.885 274.400 C 295.209 274.400,296.042 274.899,296.737 275.508 C 297.432 276.118,300.590 277.962,303.755 279.607 C 309.620 282.655,312.800 285.053,312.800 286.430 C 312.800 287.494,307.106 293.200,305.424 293.822 C 304.667 294.102,303.811 295.337,303.521 296.566 C 302.846 299.429,300.317 303.784,297.673 306.635 C 296.082 308.351,295.321 310.491,294.400 315.835 C 293.032 323.777,292.665 323.981,286.245 320.384 C 284.350 319.322,281.630 317.920,280.200 317.268 C 278.770 316.615,277.600 315.703,277.600 315.241 C 277.600 314.778,276.756 314.400,275.724 314.400 C 274.692 314.400,273.196 313.680,272.400 312.800 C 271.604 311.920,270.522 311.200,269.996 311.200 C 269.470 311.200,267.549 310.120,265.727 308.800 C 263.905 307.480,261.927 306.400,261.331 306.400 C 260.735 306.400,259.596 305.680,258.800 304.800 C 258.004 303.920,256.744 303.200,256.000 303.200 C 255.256 303.200,253.996 302.480,253.200 301.600 C 252.404 300.720,251.280 300.000,250.704 300.000 C 250.127 300.000,247.296 298.650,244.412 297.000 C 241.528 295.350,238.186 293.459,236.984 292.798 C 235.783 292.137,233.664 290.787,232.277 289.798 C 230.889 288.809,229.023 288.000,228.130 288.000 C 227.210 288.000,226.288 287.307,226.000 286.400 C 225.721 285.520,224.976 284.800,224.346 284.800 C 223.615 284.800,223.200 283.961,223.200 282.486 C 223.200 281.213,222.705 279.981,222.101 279.749 C 221.497 279.518,220.767 278.075,220.480 276.544 C 220.193 275.013,219.427 273.321,218.779 272.782 C 218.130 272.244,217.600 271.067,217.600 270.165 C 217.600 269.264,217.099 267.958,216.487 267.263 C 213.318 263.666,213.984 259.377,218.324 255.440 C 220.566 253.406,222.400 251.140,222.400 250.405 C 222.400 249.669,222.662 248.804,222.983 248.484 C 223.948 247.519,251.183 248.278,251.831 249.288 M264.400 273.600 C 264.672 274.040,265.434 274.400,266.094 274.400 C 266.754 274.400,267.072 274.040,266.800 273.600 C 266.528 273.160,265.766 272.800,265.106 272.800 C 264.446 272.800,264.128 273.160,264.400 273.600 M270.013 275.980 C 269.382 277.000,270.692 277.608,271.905 276.859 C 272.709 276.362,272.662 276.118,271.693 275.746 C 271.010 275.484,270.254 275.589,270.013 275.980 M274.800 279.200 C 275.072 279.640,275.813 280.000,276.447 280.000 C 277.081 280.000,277.600 279.640,277.600 279.200 C 277.600 278.760,276.859 278.400,275.953 278.400 C 275.047 278.400,274.528 278.760,274.800 279.200 M285.600 284.800 C 287.151 285.802,288.000 285.802,288.000 284.800 C 288.000 284.360,287.190 284.006,286.200 284.012 C 284.744 284.022,284.630 284.173,285.600 284.800 M295.040 290.560 C 295.787 291.307,296.213 291.307,296.960 290.560 C 297.707 289.813,297.493 289.600,296.000 289.600 C 294.507 289.600,294.293 289.813,295.040 290.560 M316.957 291.781 C 315.107 292.981,313.390 294.601,313.143 295.381 C 312.895 296.161,312.406 296.800,312.057 296.800 C 311.404 296.800,304.800 306.047,304.800 306.962 C 304.800 307.244,304.296 308.042,303.680 308.737 C 301.947 310.691,299.334 320.771,299.474 324.960 C 299.631 329.659,300.517 328.905,301.069 323.600 C 301.468 319.769,302.036 316.163,302.877 312.127 C 303.127 310.927,303.671 310.410,304.393 310.686 C 305.648 311.168,306.825 308.535,305.971 307.153 C 305.678 306.680,306.112 306.116,306.935 305.901 C 308.694 305.441,312.504 300.174,312.168 298.667 C 312.024 298.021,312.404 297.805,313.168 298.098 C 314.083 298.450,314.400 298.035,314.400 296.486 C 314.400 295.236,314.847 294.400,315.514 294.400 C 316.127 294.400,316.843 293.843,317.104 293.162 C 317.365 292.482,318.033 291.984,318.589 292.057 C 320.703 292.334,321.600 291.960,321.600 290.800 C 321.600 289.118,320.805 289.286,316.957 291.781 M300.000 292.800 C 300.000 293.240,300.741 293.600,301.647 293.600 C 302.553 293.600,303.072 293.240,302.800 292.800 C 302.528 292.360,301.787 292.000,301.153 292.000 C 300.519 292.000,300.000 292.360,300.000 292.800 " stroke="none" fill="#a36d48" fill-rule="evenodd"></path><path id="path7" d="M222.933 248.533 C 222.640 248.827,222.400 249.669,222.400 250.405 C 222.400 251.140,220.600 253.375,218.400 255.371 C 213.859 259.491,213.570 262.414,217.306 266.444 C 218.347 267.568,219.200 268.965,219.200 269.549 C 219.200 270.133,220.460 271.799,222.000 273.252 C 223.540 274.704,224.800 276.277,224.800 276.746 C 224.800 277.216,225.340 277.600,226.000 277.600 C 226.726 277.600,227.200 276.858,227.200 275.724 C 227.200 274.692,227.920 273.196,228.800 272.400 C 229.680 271.604,230.400 270.126,230.400 269.116 C 230.400 268.106,230.851 266.992,231.402 266.640 C 231.954 266.288,233.415 264.510,234.650 262.689 C 238.396 257.163,242.449 252.801,243.862 252.775 C 245.130 252.751,249.600 249.373,249.600 248.438 C 249.600 247.805,223.569 247.897,222.933 248.533 " stroke="none" fill="#feaa70" fill-rule="evenodd"></path><path id="path8" d="M247.346 250.800 C 246.039 251.900,244.419 252.800,243.747 252.800 C 242.439 252.800,238.313 257.285,234.650 262.689 C 233.415 264.510,231.954 266.288,231.402 266.640 C 230.851 266.992,230.400 268.106,230.400 269.116 C 230.400 270.126,229.680 271.604,228.800 272.400 C 227.920 273.196,227.200 274.654,227.200 275.638 C 227.200 276.623,226.705 277.619,226.101 277.851 C 224.350 278.522,223.682 283.796,225.160 285.275 C 225.842 285.956,226.400 286.849,226.400 287.257 C 226.400 287.666,227.154 288.000,228.077 288.000 C 228.999 288.000,230.889 288.809,232.277 289.798 C 233.664 290.787,235.783 292.137,236.984 292.798 C 238.186 293.459,241.528 295.350,244.412 297.000 C 247.296 298.650,250.127 300.000,250.704 300.000 C 251.280 300.000,252.404 300.720,253.200 301.600 C 253.996 302.480,255.256 303.200,256.000 303.200 C 256.744 303.200,258.004 303.920,258.800 304.800 C 259.596 305.680,260.735 306.400,261.331 306.400 C 261.927 306.400,263.905 307.480,265.727 308.800 C 267.549 310.120,269.470 311.200,269.996 311.200 C 270.522 311.200,271.604 311.920,272.400 312.800 C 273.196 313.680,274.692 314.400,275.724 314.400 C 276.756 314.400,277.600 314.778,277.600 315.241 C 277.600 315.703,278.770 316.615,280.200 317.268 C 281.630 317.920,284.350 319.322,286.245 320.384 C 292.665 323.981,293.032 323.777,294.400 315.835 C 295.321 310.491,296.082 308.351,297.673 306.635 C 300.317 303.784,302.846 299.429,303.521 296.566 C 303.811 295.337,304.667 294.102,305.424 293.822 C 307.106 293.200,312.800 287.494,312.800 286.430 C 312.800 285.053,309.620 282.655,303.755 279.607 C 300.590 277.962,297.432 276.118,296.737 275.508 C 296.042 274.899,295.209 274.400,294.885 274.400 C 294.561 274.400,290.023 271.880,284.800 268.800 C 279.577 265.720,275.118 263.200,274.892 263.200 C 274.665 263.200,272.898 262.132,270.965 260.828 C 269.032 259.523,266.584 258.075,265.525 257.609 C 264.466 257.143,262.160 255.888,260.400 254.821 C 258.640 253.753,256.030 252.255,254.600 251.492 C 253.170 250.728,252.000 249.810,252.000 249.452 C 252.000 248.165,249.679 248.837,247.346 250.800 M256.430 254.449 C 256.719 254.916,257.730 255.655,258.678 256.091 C 259.625 256.526,261.840 257.755,263.600 258.822 C 265.360 259.889,267.693 261.153,268.784 261.631 C 269.875 262.109,270.955 262.782,271.184 263.127 C 271.413 263.471,272.580 264.259,273.777 264.877 C 283.111 269.693,285.230 270.865,285.442 271.326 C 285.575 271.615,287.735 272.871,290.242 274.118 C 292.749 275.364,294.987 276.635,295.216 276.942 C 295.445 277.249,296.525 277.901,297.616 278.391 C 298.707 278.881,301.040 280.155,302.800 281.222 C 304.560 282.289,306.819 283.525,307.821 283.969 C 310.522 285.167,310.816 286.938,308.685 289.185 C 306.242 291.761,303.754 291.652,298.800 288.753 C 296.600 287.466,294.080 286.027,293.200 285.555 C 292.320 285.083,289.080 283.285,286.000 281.561 C 282.920 279.836,279.320 277.863,278.000 277.177 C 276.680 276.490,273.080 274.529,270.000 272.820 C 266.920 271.111,262.420 268.697,260.000 267.456 C 257.580 266.215,255.124 264.750,254.543 264.200 C 253.961 263.650,252.791 263.200,251.943 263.200 C 251.094 263.200,250.400 262.821,250.400 262.358 C 250.400 261.895,249.332 261.144,248.027 260.689 C 245.139 259.683,246.685 256.000,249.994 256.000 C 250.990 256.000,252.252 255.460,252.800 254.800 C 253.961 253.401,255.680 253.235,256.430 254.449 M244.148 264.822 C 245.167 265.275,248.520 267.048,251.600 268.762 C 254.680 270.477,259.446 273.015,262.191 274.402 C 264.937 275.790,267.388 277.257,267.639 277.662 C 267.889 278.068,268.804 278.400,269.672 278.400 C 270.540 278.400,271.449 278.918,271.692 279.551 C 271.935 280.184,273.184 280.933,274.467 281.215 C 275.750 281.497,276.800 282.023,276.800 282.385 C 276.800 282.747,277.790 283.445,279.000 283.935 C 280.210 284.425,283.720 286.244,286.800 287.977 C 289.880 289.710,293.526 291.648,294.902 292.282 C 296.279 292.917,297.650 293.833,297.950 294.318 C 298.249 294.803,299.193 295.200,300.047 295.200 C 302.961 295.200,299.607 304.606,296.590 304.895 C 294.011 305.142,285.453 301.704,284.399 299.998 C 284.128 299.559,283.251 299.200,282.451 299.200 C 281.651 299.200,280.548 298.660,280.000 298.000 C 279.452 297.340,278.475 296.800,277.828 296.800 C 277.182 296.800,275.737 296.080,274.618 295.200 C 273.500 294.320,271.951 293.600,271.178 293.600 C 270.404 293.600,269.564 293.060,269.311 292.400 C 269.057 291.740,268.174 291.200,267.348 291.200 C 266.521 291.200,265.015 290.480,264.000 289.600 C 262.985 288.720,261.512 288.000,260.725 288.000 C 259.938 288.000,259.089 287.668,258.839 287.262 C 258.588 286.857,256.137 285.400,253.391 284.026 C 248.811 281.732,247.447 281.013,244.000 279.072 C 243.340 278.700,241.901 278.012,240.801 277.542 C 235.682 275.355,234.919 271.286,238.676 266.200 C 240.448 263.801,241.341 263.576,244.148 264.822 M266.800 273.600 C 267.072 274.040,266.754 274.400,266.094 274.400 C 265.434 274.400,264.672 274.040,264.400 273.600 C 264.128 273.160,264.446 272.800,265.106 272.800 C 265.766 272.800,266.528 273.160,266.800 273.600 M271.905 276.859 C 270.692 277.608,269.382 277.000,270.013 275.980 C 270.254 275.589,271.010 275.484,271.693 275.746 C 272.662 276.118,272.709 276.362,271.905 276.859 M277.600 279.200 C 277.600 279.640,277.081 280.000,276.447 280.000 C 275.813 280.000,275.072 279.640,274.800 279.200 C 274.528 278.760,275.047 278.400,275.953 278.400 C 276.859 278.400,277.600 278.760,277.600 279.200 M288.000 284.800 C 288.000 285.802,287.151 285.802,285.600 284.800 C 284.630 284.173,284.744 284.022,286.200 284.012 C 287.190 284.006,288.000 284.360,288.000 284.800 M296.960 290.560 C 296.213 291.307,295.787 291.307,295.040 290.560 C 294.293 289.813,294.507 289.600,296.000 289.600 C 297.493 289.600,297.707 289.813,296.960 290.560 M302.800 292.800 C 303.072 293.240,302.553 293.600,301.647 293.600 C 300.741 293.600,300.000 293.240,300.000 292.800 C 300.000 292.360,300.519 292.000,301.153 292.000 C 301.787 292.000,302.528 292.360,302.800 292.800 " stroke="none" fill="#bac013" fill-rule="evenodd"></path><path id="path9" d="M252.800 254.800 C 252.252 255.460,250.990 256.000,249.994 256.000 C 246.685 256.000,245.139 259.683,248.027 260.689 C 249.332 261.144,250.400 261.895,250.400 262.358 C 250.400 262.821,251.094 263.200,251.943 263.200 C 252.791 263.200,253.961 263.650,254.543 264.200 C 255.124 264.750,257.580 266.215,260.000 267.456 C 262.420 268.697,266.920 271.111,270.000 272.820 C 273.080 274.529,276.680 276.490,278.000 277.177 C 279.320 277.863,282.920 279.836,286.000 281.561 C 289.080 283.285,292.320 285.083,293.200 285.555 C 294.080 286.027,296.600 287.466,298.800 288.753 C 303.754 291.652,306.242 291.761,308.685 289.185 C 310.816 286.938,310.522 285.167,307.821 283.969 C 306.819 283.525,304.560 282.289,302.800 281.222 C 301.040 280.155,298.707 278.881,297.616 278.391 C 296.525 277.901,295.445 277.249,295.216 276.942 C 294.987 276.635,292.749 275.364,290.242 274.118 C 287.735 272.871,285.575 271.615,285.442 271.326 C 285.230 270.865,283.111 269.693,273.777 264.877 C 272.580 264.259,271.413 263.471,271.184 263.127 C 270.955 262.782,269.875 262.109,268.784 261.631 C 267.693 261.153,265.360 259.889,263.600 258.822 C 261.840 257.755,259.625 256.526,258.678 256.091 C 257.730 255.655,256.719 254.916,256.430 254.449 C 255.680 253.235,253.961 253.401,252.800 254.800 M238.676 266.200 C 234.919 271.286,235.682 275.355,240.801 277.542 C 241.901 278.012,243.340 278.700,244.000 279.072 C 247.447 281.013,248.811 281.732,253.391 284.026 C 256.137 285.400,258.588 286.857,258.839 287.262 C 259.089 287.668,259.938 288.000,260.725 288.000 C 261.512 288.000,262.985 288.720,264.000 289.600 C 265.015 290.480,266.521 291.200,267.348 291.200 C 268.174 291.200,269.057 291.740,269.311 292.400 C 269.564 293.060,270.404 293.600,271.178 293.600 C 271.951 293.600,273.500 294.320,274.618 295.200 C 275.737 296.080,277.182 296.800,277.828 296.800 C 278.475 296.800,279.452 297.340,280.000 298.000 C 280.548 298.660,281.651 299.200,282.451 299.200 C 283.251 299.200,284.128 299.559,284.399 299.998 C 285.453 301.704,294.011 305.142,296.590 304.895 C 299.607 304.606,302.961 295.200,300.047 295.200 C 299.193 295.200,298.249 294.803,297.950 294.318 C 297.650 293.833,296.279 292.917,294.902 292.282 C 293.526 291.648,289.880 289.710,286.800 287.977 C 283.720 286.244,280.210 284.425,279.000 283.935 C 277.790 283.445,276.800 282.747,276.800 282.385 C 276.800 282.023,275.750 281.497,274.467 281.215 C 273.184 280.933,271.935 280.184,271.692 279.551 C 271.449 278.918,270.540 278.400,269.672 278.400 C 268.804 278.400,267.889 278.068,267.639 277.662 C 267.388 277.257,264.937 275.790,262.191 274.402 C 259.446 273.015,254.680 270.477,251.600 268.762 C 241.504 263.142,241.007 263.043,238.676 266.200 " stroke="none" fill="#faff19" fill-rule="evenodd"></path></g></svg>