<?xml version="1.0" encoding="UTF-8"?>
<svg width="192px" height="192px" viewBox="0 0 192 192" version="1.1" xmlns="http://www.w3.org/2000/svg" xmlns:xlink="http://www.w3.org/1999/xlink">
    <!-- Generator: Sketch 42 (36781) - http://www.bohemiancoding.com/sketch -->
    <title>Group 3</title>
    <desc>Created with Sketch.</desc>
    <defs></defs>
    <g id="Page-1" stroke="none" stroke-width="1" fill="none" fill-rule="evenodd">
        <g id="Group-3" fill-rule="nonzero">
            <g id="003-github-character" fill="#000000">
                <g id="Group">
                    <path d="M175.963966,52.7652208 C178.037244,45.4177667 179.075092,37.8011315 179.075092,29.9124566 C179.075092,19.3929529 177.11516,9.50804963 173.200538,0.258699752 C164.987294,0.258699752 157.732034,2.02862531 151.434756,5.56418859 C145.140706,9.10070471 137.962487,14.5867593 129.903731,22.0223524 C119.770487,19.1209132 109.018891,17.6701935 97.6586218,17.6701935 C85.2201681,17.6701935 73.3581176,19.2581241 62.0728739,22.431603 C53.8588235,14.8135385 46.603563,9.21552357 40.3078992,5.63279404 C34.0122353,2.05006452 26.7190588,0.259176179 18.4267563,0.259176179 C14.5113277,9.50852605 12.5538151,19.3939057 12.5538151,29.912933 C12.5538151,37.8935583 13.5896471,45.6016675 15.6629244,53.0363077 C5.22030252,67.4558412 0,85.4099851 0,106.902074 C0,125.766194 2.37902521,140.772208 7.13989916,151.927742 C9.67421849,157.819712 12.974521,163.034203 17.0440336,167.569787 C21.1119328,172.102511 25.757042,175.777667 30.9781513,178.589538 C36.2000672,181.398551 41.4578824,183.735424 46.7560336,185.592536 C52.0537815,187.4506 57.9073613,188.812228 64.3183866,189.670273 C70.7290084,190.535464 76.3909916,191.101459 81.3043361,191.375404 C86.2176807,191.644109 91.6678992,191.781797 97.6582185,191.781797 C104.720269,191.781797 111.128874,191.57598 116.889681,191.170541 C122.648471,190.763196 129.230118,189.763653 136.639866,188.180486 C144.048403,186.592556 150.57479,184.437201 156.219025,181.717757 C161.86205,178.998313 167.275966,175.097806 172.45795,170.021002 C177.639933,164.940864 181.688471,158.911682 184.607597,151.928218 C189.288202,140.683117 191.630924,125.673767 191.630924,106.902551 C191.628101,85.319464 186.407395,67.2743226 175.963966,52.7652208 Z M162.149244,151.720496 C159.691966,157.662015 156.58205,162.328139 152.820706,165.732208 C149.057748,169.133419 144.375126,171.852864 138.771227,173.895782 C133.164504,175.935365 127.792941,177.272218 122.648471,177.904913 C117.502387,178.540467 111.784739,178.856814 105.487462,178.856814 L86.1398319,178.856814 C79.8445714,178.856814 74.1236975,178.540467 68.980437,177.904913 C63.8367731,177.272218 58.4627899,175.935365 52.8576807,173.895782 C47.2545882,171.852864 42.5719664,169.133419 38.8090084,165.732208 C35.0460504,162.327663 31.9369412,157.662015 29.4800672,151.720496 C27.0235966,145.778978 25.794958,138.820764 25.794958,130.841568 C25.794958,119.956645 28.4438319,110.705866 33.7419832,103.092089 C39.0397311,95.4740248 46.2175462,91.6664218 55.2762353,91.6664218 C58.578958,91.6664218 66.0645378,92.6178462 77.7341849,94.5226005 C83.1848067,95.5197618 89.2122353,96.0185806 95.8140504,96.0185806 C102.417882,96.0185806 108.444504,95.5211911 113.894319,94.5226005 C125.719664,92.6173697 133.202824,91.6664218 136.352672,91.6664218 C145.410958,91.6664218 152.588773,95.4759305 157.886521,103.092089 C163.184672,110.709201 165.831933,119.956645 165.831933,130.841568 C165.831933,138.822194 164.603294,145.784218 162.149244,151.720496 Z" id="Shape"></path>
                </g>
            </g>
            <g id="Group-2" transform="translate(45.559322, 105.600000)">
                <g id="001-favorite">
                    <g id="Group" transform="translate(0.000000, 0.066608)">
                        <polygon id="Shape" fill="#FFE63C" points="19.4824263 1.01114133 26.0047486 13.6212747 38.1769809 17.0068747 30.0344638 28.2431413 31.0315067 42.9631413 19.4824263 37.271408 7.97488929 42.9631413 8.9719322 28.2431413 0.829415074 17.0068747 13.0016473 13.6212747"></polygon>
                        <polygon id="Shape" fill="#FDD72E" points="23.2213372 22.698608 19.4824263 2.973808 26.0047486 13.6212747 38.1769809 17.0068747 30.0344638 28.2431413 31.0315067 42.9631413 19.4824263 37.271408"></polygon>
                        <path d="M31.0315067,43.9444747 C30.9068763,43.9444747 30.8237894,43.895408 30.699159,43.8463413 L19.4824263,38.301808 L8.30723693,43.8463413 C8.0579762,43.9935413 7.72562856,43.9444747 7.51791129,43.748208 C7.26865056,43.5519413 7.14402019,43.2084747 7.18556365,42.865008 L8.14106311,28.5375413 L0.206263253,17.6447413 C-0.00145402092,17.399408 -0.0429974757,17.0068747 0.0400894338,16.7124747 C0.123176343,16.369008 0.372437072,16.1236747 0.6216978,16.074608 L12.4615824,12.7380747 L18.7761875,0.520474667 C18.9423613,0.226074667 19.1916221,0.029808 19.4824263,0.029808 L19.4824263,0.029808 C19.7732304,0.029808 20.0224912,0.226074667 20.188665,0.520474667 L26.5448136,12.7871413 L38.3846982,16.074608 C38.6755023,16.1727413 38.8832196,16.4180747 38.9663065,16.7124747 C39.0493934,17.0559413 39.00785,17.399408 38.8001327,17.6447413 L30.9068763,28.586608 L31.8623758,42.9140747 C31.9039192,43.2575413 31.7377454,43.601008 31.5300281,43.7972747 C31.3638543,43.895408 31.1976805,43.9444747 31.0315067,43.9444747 Z M19.4824263,36.2900747 C19.6070566,36.2900747 19.6901435,36.3391413 19.8147739,36.388208 L30.1175507,41.4420747 L29.2451381,28.3412747 C29.2451381,28.0959413 29.2866816,27.8015413 29.4528554,27.6052747 L36.72296,17.5956747 L25.8801183,14.602608 C25.672401,14.5535413 25.4646837,14.4063413 25.3815968,14.161008 L19.5655132,2.92474133 L13.707886,14.1119413 C13.5832557,14.3572747 13.4170819,14.5044747 13.1678211,14.5535413 L2.3665229,17.5956747 L9.63662748,27.6052747 C9.76125784,27.8015413 9.84434475,28.0468747 9.84434475,28.3412747 L8.9719322,41.4420747 L19.2331655,36.388208 C19.274709,36.3391413 19.3577959,36.2900747 19.4824263,36.2900747 Z" id="Shape" fill="#C39314"></path>
                        <g transform="translate(7.477822, 19.872000)" id="Shape" fill="#C39215">
                            <path d="M1.74337108,3.121008 C1.49411035,3.121008 1.28639308,3.02287467 1.12021926,2.77754133 L0.289350162,1.59994133 C-0.00145402092,1.207408 0.0400894338,0.569541333 0.413980527,0.226074667 C0.787871619,-0.117392 1.28639308,-0.0683253333 1.57719726,0.373274667 L2.40806635,1.55087467 C2.69887054,1.943408 2.65732708,2.58127467 2.28343599,2.92474133 C2.11726217,3.02287467 1.95108835,3.121008 1.74337108,3.121008 Z"></path>
                            <path d="M4.81758673,14.013808 L4.73449982,14.013808 C4.27752182,13.9647413 3.94517418,13.4740747 3.98671763,12.9343413 L4.19443491,9.84314133 C4.31906527,8.17487467 3.82054382,6.506608 2.90658781,5.13274133 L2.65732708,4.78927467 C2.3665229,4.39674133 2.40806635,3.75887467 2.74041399,3.415408 C3.07276163,3.07194133 3.61282654,3.121008 3.90363072,3.51354133 L4.15289145,3.857008 C5.3991951,5.57434133 5.98080346,7.78234133 5.8561731,9.99034133 L5.64845582,13.0815413 C5.60691237,13.6212747 5.23302128,14.013808 4.81758673,14.013808 Z"></path>
                        </g>
                    </g>
                </g>
                <g id="001-favorite" transform="translate(61.830508, 0.000000)">
                    <g id="Group" transform="translate(0.000000, 0.066608)">
                        <polygon id="Shape" fill="#FFE63C" points="19.4824263 1.01114133 26.0047486 13.6212747 38.1769809 17.0068747 30.0344638 28.2431413 31.0315067 42.9631413 19.4824263 37.271408 7.97488929 42.9631413 8.9719322 28.2431413 0.829415074 17.0068747 13.0016473 13.6212747"></polygon>
                        <polygon id="Shape" fill="#FDD72E" points="23.2213372 22.698608 19.4824263 2.973808 26.0047486 13.6212747 38.1769809 17.0068747 30.0344638 28.2431413 31.0315067 42.9631413 19.4824263 37.271408"></polygon>
                        <path d="M31.0315067,43.9444747 C30.9068763,43.9444747 30.8237894,43.895408 30.699159,43.8463413 L19.4824263,38.301808 L8.30723693,43.8463413 C8.0579762,43.9935413 7.72562856,43.9444747 7.51791129,43.748208 C7.26865056,43.5519413 7.14402019,43.2084747 7.18556365,42.865008 L8.14106311,28.5375413 L0.206263253,17.6447413 C-0.00145402092,17.399408 -0.0429974757,17.0068747 0.0400894338,16.7124747 C0.123176343,16.369008 0.372437072,16.1236747 0.6216978,16.074608 L12.4615824,12.7380747 L18.7761875,0.520474667 C18.9423613,0.226074667 19.1916221,0.029808 19.4824263,0.029808 L19.4824263,0.029808 C19.7732304,0.029808 20.0224912,0.226074667 20.188665,0.520474667 L26.5448136,12.7871413 L38.3846982,16.074608 C38.6755023,16.1727413 38.8832196,16.4180747 38.9663065,16.7124747 C39.0493934,17.0559413 39.00785,17.399408 38.8001327,17.6447413 L30.9068763,28.586608 L31.8623758,42.9140747 C31.9039192,43.2575413 31.7377454,43.601008 31.5300281,43.7972747 C31.3638543,43.895408 31.1976805,43.9444747 31.0315067,43.9444747 Z M19.4824263,36.2900747 C19.6070566,36.2900747 19.6901435,36.3391413 19.8147739,36.388208 L30.1175507,41.4420747 L29.2451381,28.3412747 C29.2451381,28.0959413 29.2866816,27.8015413 29.4528554,27.6052747 L36.72296,17.5956747 L25.8801183,14.602608 C25.672401,14.5535413 25.4646837,14.4063413 25.3815968,14.161008 L19.5655132,2.92474133 L13.707886,14.1119413 C13.5832557,14.3572747 13.4170819,14.5044747 13.1678211,14.5535413 L2.3665229,17.5956747 L9.63662748,27.6052747 C9.76125784,27.8015413 9.84434475,28.0468747 9.84434475,28.3412747 L8.9719322,41.4420747 L19.2331655,36.388208 C19.274709,36.3391413 19.3577959,36.2900747 19.4824263,36.2900747 Z" id="Shape" fill="#C39314"></path>
                        <g transform="translate(7.477822, 19.872000)" id="Shape" fill="#C39215">
                            <path d="M1.74337108,3.121008 C1.49411035,3.121008 1.28639308,3.02287467 1.12021926,2.77754133 L0.289350162,1.59994133 C-0.00145402092,1.207408 0.0400894338,0.569541333 0.413980527,0.226074667 C0.787871619,-0.117392 1.28639308,-0.0683253333 1.57719726,0.373274667 L2.40806635,1.55087467 C2.69887054,1.943408 2.65732708,2.58127467 2.28343599,2.92474133 C2.11726217,3.02287467 1.95108835,3.121008 1.74337108,3.121008 Z"></path>
                            <path d="M4.81758673,14.013808 L4.73449982,14.013808 C4.27752182,13.9647413 3.94517418,13.4740747 3.98671763,12.9343413 L4.19443491,9.84314133 C4.31906527,8.17487467 3.82054382,6.506608 2.90658781,5.13274133 L2.65732708,4.78927467 C2.3665229,4.39674133 2.40806635,3.75887467 2.74041399,3.415408 C3.07276163,3.07194133 3.61282654,3.121008 3.90363072,3.51354133 L4.15289145,3.857008 C5.3991951,5.57434133 5.98080346,7.78234133 5.8561731,9.99034133 L5.64845582,13.0815413 C5.60691237,13.6212747 5.23302128,14.013808 4.81758673,14.013808 Z"></path>
                        </g>
                    </g>
                </g>
            </g>
        </g>
    </g>
</svg>