<?xml version="1.0" encoding="utf-8"?>
<!-- Generator: Adobe Illustrator 22.0.1, SVG Export Plug-In . SVG Version: 6.00 Build 0)  -->
<svg version="1.1" id="Layer_1" xmlns="http://www.w3.org/2000/svg" xmlns:xlink="http://www.w3.org/1999/xlink" x="0px" y="0px"
	 viewBox="35 35 190 190" style="enable-background:new 35 35 190 190;" xml:space="preserve">
<style type="text/css">
	.st0{fill:#FBB03B;}
	.st1{fill:#898989;}
	.st2{fill:none;stroke:#0071BC;stroke-width:2;stroke-linecap:round;stroke-miterlimit:10;}
	.st3{fill:#F0DB35;}
	.st4{opacity:0.82;fill:#F0C529;}
	.st5{fill:none;stroke:#000000;stroke-width:2;stroke-linecap:round;stroke-miterlimit:10;}
	.st6{fill:none;stroke:#000000;stroke-width:2;stroke-miterlimit:10;}
	.st7{fill:none;stroke:#5D5E61;stroke-width:2;stroke-miterlimit:10;}
	.st8{fill:#F0DB35;stroke:#F15A24;stroke-width:2;stroke-linecap:round;stroke-miterlimit:10;}
	.st9{fill:none;stroke:#F15A24;stroke-width:2;stroke-linecap:round;stroke-miterlimit:10;}
	.st10{fill:none;}
	.st11{fill:#F0DB35;stroke:#000000;stroke-width:2;stroke-miterlimit:10;}
	.st12{fill:#8E84B6;}
	.st13{fill:#FBD54F;}
	.st14{fill:#F2C72B;}
	.st15{fill:#FFFFFF;}
	.st16{fill:url(#SVGID_1_);}
	.st17{fill:none;stroke:#000000;stroke-miterlimit:10;}
	.st18{fill:#DCE1E6;}
	.st19{fill:#49B599;}
	.st20{fill:#666666;}
	.st21{fill:#636D71;}
	.st22{fill:none;stroke:#000000;stroke-linecap:round;stroke-miterlimit:10;}
	.st23{fill:#808080;stroke:#808080;stroke-linecap:round;stroke-miterlimit:10;}
	.st24{fill:url(#SVGID_2_);}
	.st25{fill:#FFD945;}
	.st26{fill:#808080;}
	.st27{fill:#C7E66B;}
	.st28{fill:#C3C3C3;}
	.st29{fill:#00C9FF;}
	.st30{fill:#4A9B74;}
	.st31{fill:#387457;}
	.st32{fill:#66DFFF;}
	.st33{opacity:0.79;fill:#D92330;}
	.st34{fill:none;stroke:#FFFFFF;stroke-width:2;stroke-linecap:round;stroke-miterlimit:10;}
</style>
<g>
	<path class="st15" d="M206.5,222.4h-157c-9.3,0-16.8-7.5-16.8-16.8V50.4c0-9.3,7.5-16.8,16.8-16.8h157c9.3,0,16.8,7.5,16.8,16.8
		v155.2C223.2,214.9,215.7,222.4,206.5,222.4z"/>
	<linearGradient id="SVGID_1_" gradientUnits="userSpaceOnUse" x1="-3.646" y1="27.9926" x2="295.0207" y2="254.6593">
		<stop  offset="0.1623" style="stop-color:#BE3868"/>
		<stop  offset="0.245" style="stop-color:#B43A6D"/>
		<stop  offset="0.5586" style="stop-color:#94437E"/>
		<stop  offset="0.7317" style="stop-color:#884684"/>
	</linearGradient>
	<circle class="st16" cx="127.2" cy="127.3" r="89.7"/>
	<path class="st15" d="M151.8,124.8c0,13.1-10.6,23.8-23.8,23.8s-23.8-10.6-23.8-23.8s10.6-23.8,23.8-23.8S151.8,111.7,151.8,124.8z
		 M128,93.8c-17.1,0-31,13.9-31,31s13.9,31,31,31s31-13.9,31-31S145.1,93.8,128,93.8z"/>
	<path class="st15" d="M179.2,121l-0.2,0c-2.7,0.6-5.3-1.1-5.8-3.9c-3.8-20.4-22.6-35.9-45.2-35.9c-22.4,0-41,15.2-45.1,35.4
		c-0.5,2.3-2.5,4-4.8,4c-0.1,0-0.3,0-0.4,0c-2.9-0.3-5-3-4.4-5.9c4.5-22.9,23.8-40.8,48-43.6l8.2-10.1l8.7,10.6
		c10,1.8,19.1,6.2,26.5,12.5v-4.3c0-2.6,2.1-4.8,4.8-4.8c1.3,0,2.5,0.5,3.4,1.4c0.9,0.9,1.4,2.1,1.4,3.4v14.9
		c4.3,6.2,7.2,13.2,8.6,20.8C183.2,118,181.6,120.4,179.2,121z"/>
	<ellipse class="st15" cx="169.6" cy="65.9" rx="4.6" ry="4.9"/>
	<circle class="st15" cx="129.3" cy="176.7" r="8"/>
	<path class="st15" d="M149.3,127c0,0-1.9,2.6-5.9,3.5c0,0,0.7,2.9-0.6,4.6s-4.8,2.3-5.2,0.3s1.6-4,3.9-4.8c0,0-1.4-3.3-1.5-5.2
		c0,0-3.5,5.2-7.6,5.8s-7.1-4.1-7.4-10.8c0,0,4.9-2.4,7-4.8s4-7.2,1.8-8.6c-2.2-1.4-7.1,2.9-9.1,9.8s-1.5,9.6-4.7,10.4v-5.5
		l-2.3,1.9c0,0,0.1,4.2-1.3,8.7c-1.4,4.4-3.9,6.2-6.5,5.4c-2.5-0.7-1.8-5,0-7.7c1.8-2.7,6.2-5.9,6.2-5.9s0.2-6.4-1.4-6.2
		c-1,0.1-1,6.3-4.3,6.4s-1.3-8,1.7-9c1.8-0.6,2.7,0.2,2.1,0.8c0,0-2.5-1.1-3.6,3.7c-1.1,4.9,1.5,4.4,2.4,0.3
		c0.4-1.9,1.3-3.3,2.5-3.2c1.3,0.1,2,2,2.3,5.7l2.3-2.1v-10.3c0,0,1.6,0.2,1.6,2s0,10.7,0,10.7s0.6-5.3,4.5-12
		c3.9-6.8,9.4-7.3,11.3-4c1.9,3.3-2,10.9-9.8,13.4c0,0,0.6,8.4,4.6,9.1c3.1,0.6,7.8-5.9,7.8-5.9s0.3-2.9,2.9-3.5
		c1.8-0.4,3.3,0.7,4,1.5c0.3,0.3,0.3,0.8,0,1.1l0,0c-0.3,0.3-0.8,0.3-1.1,0c-0.4-0.4-1.2-1-2-1.1c-1.4-0.2-2.7,1.2-2.2,2.9
		s1.5,5.3,1.5,5.3s3.4-0.8,5.6-3.3c0,0,0.3-0.3,0.5,0C149.6,126.6,149.4,126.9,149.3,127z M116,125c0,0-5.2,3.8-6.4,7.2
		s-0.4,5.4,1.7,4.7C115.9,135.3,116,125,116,125z M141.6,131.3c0,0-1.9,0.8-2.8,1.8s-1.1,2.9,0.8,2.8
		C141.7,135.6,142,132.5,141.6,131.3z"/>
</g>
</svg>
