<?xml version="1.0" encoding="utf-8"?>
<!-- Generator: Adobe Illustrator 16.0.0, SVG Export Plug-In . SVG Version: 6.00 Build 0)  -->
<!DOCTYPE svg PUBLIC "-//W3C//DTD SVG 1.1//EN" "http://www.w3.org/Graphics/SVG/1.1/DTD/svg11.dtd">
<svg version="1.1" id="Layer_1" xmlns="http://www.w3.org/2000/svg" xmlns:xlink="http://www.w3.org/1999/xlink" x="0px" y="0px"
	 width="512px" height="512px" viewBox="0 0 512 512" enable-background="new 0 0 512 512" xml:space="preserve">
<g transform="translate(0.000000,512.000000) scale(0.100000,-0.100000)">
	<path d="M3777.998,3317.998c5-5,16.006-7.998,22.998-5.996c8.008,2.998,3.008,6.997-10,10.996
		C3774.003,3327.001,3770,3326,3777.998,3317.998z"/>
	<path d="M3705,3301c-2.998-5-2.002-12.002,2.998-15c5-3.003,9.004,1.001,9.004,8.999
		C3717.001,3312.001,3714.003,3313.999,3705,3301z"/>
	<path d="M3610,3290c-9.004-6.001-10-10-2.998-10c5.996,0,15,5,17.998,10C3632.998,3302.001,3629.003,3302.001,3610,3290z"/>
	<path d="M3895,3262.998c17.002-8.999,32.998-20,35.996-25.996c4.004-5,9.004-6.001,12.002,0c4.004,5-10,16.997-28.994,25.996
		C3870,3285,3855,3283.999,3895,3262.998z"/>
	<path d="M3847.001,3236c-2.998-8.003-2.002-18.003,2.998-21.001c12.998-7.998,20,8.999,10.996,23.999
		C3855,3248.999,3850.996,3247.998,3847.001,3236z"/>
	<path d="M4084.003,3138.999c-35-3.999-88.008-21.001-123.008-37.998c-65.996-33.999-75.996-37.002-65-18.999
		c4.004,6.997,3.008,7.998-5,3.999c-5.996-3.999-8.994-11.001-5.996-15c2.002-5-37.998-28.003-90.996-52.002l-95-42.998
		l332.998-168.003C4215,2716,4375,2641,4387.001,2641c32.998-1.001,37.002,31.997,22.998,186.997c-12.998,150-20,175-52.998,203.003
		c-24.004,18.999-200,120-207.998,117.998C4147.001,3147.998,4117.001,3143.999,4084.003,3138.999z"/>
	<path d="M2431.001,3047.001c-37.002-19.004-58.999-56.001-82.002-137.002C2320,2802.001,2240,2642.001,2110,2430
		c-62.002-102.002-120-192.998-128.999-204.004c-8.999-10-36.001-27.998-61.001-40c-37.998-17.998-45-25.996-47.998-53.994
		c-4.004-44.004,18.999-77.002,63.999-92.002c51.997-17.998,276.997-9.004,326.997,12.998c68.003,30,70,102.998,2.002,131.006
		c-38.999,16.992-43.999,32.998-16.001,66.992c16.001,21.006,28.003,23.008,133.003,27.002
		c156.997,6.006,202.998-10.996,190.996-68.994c-2.002-9.004-18.999-23.008-38.999-32.002c-46.001-22.002-62.998-60-42.998-95
		c25-45,72.998-54.004,258.999-50c137.998,2.998,170.996,7.002,200,22.002c42.998,23.994,59.004,43.994,60,75.996
		c0,32.998-7.998,44.004-47.002,64.004c-17.998,8.994-37.002,23.994-42.002,33.994s-27.998,99.004-50.996,197.998
		c-57.998,255.005-105,431.006-130,487.002c-27.002,61.001-75.996,116.001-117.002,133.003
		C2582.998,3062.998,2462.998,3063.999,2431.001,3047.001z M2483.999,2646c8.999-18.999,23.999-63.999,33.003-100.005
		c22.998-86.992,15.996-100-63.003-103.994C2377.002,2437.998,2350,2445,2350,2470c0,42.002,87.998,210,110,210
		C2463.999,2680,2475,2665,2483.999,2646z"/>
	<path d="M3245.996,3047.998c3.008-5,10-5.996,15-2.998c13.008,8.999,11.006,12.002-5.996,12.002
		C3247.002,3057.001,3242.998,3052.998,3245.996,3047.998z"/>
	<path d="M897.002,3036c-70-18.999-101.001-46.001-105-88.999c-3.003-33.003,0.996-38.003,38.999-63.003l41.997-26.001L866.001,2726
		c-7.002-155-28.003-306.997-58.003-428.999c-20-82.998-23.999-90-61.997-115c-32.002-22.002-42.002-35-43.999-61.006
		c-7.002-70,50.996-90.996,245-90.996c191.997,0.996,262.998,25,262.998,90.996c0,26.006-5,34.004-45,68.008
		c-13.999,10.996-16.001,26.992-10,108.994c10,122.002,16.001,144.004,46.001,159.004c28.999,15,117.998,17.002,155,2.998
		c26.997-10.996,26.997-10.996,21.001-87.998c-9.004-110-28.003-174.004-53.003-187.002c-41.001-20-53.999-37.002-53.999-70.996
		c0-71.006,55-87.002,275-82.002c127.002,2.998,167.002,7.002,192.002,20.996c63.999,34.004,72.998,96.006,17.998,127.998
		c-18.999,12.002-37.998,31.006-41.001,44.004c-11.001,45,55,606.001,77.002,647.002c5,10,26.997,25.996,46.997,35.996
		c33.003,15,37.002,22.002,40,59.004c3.003,35.996-0.996,43.999-25,60c-23.999,15.996-50,17.998-212.998,17.998
		c-193.999,0-240-7.998-260-46.001C1361.001,2965,1368.999,2930,1402.002,2900l30.996-28.999l-5.996-93.003
		c-3.003-50.996-8.003-100.996-12.002-110c-10-25-80-40.996-145-33.999c-77.998,8.999-80,13.999-66.001,123.999
		c12.002,93.003,12.002,93.003,60,137.002c40,37.998,47.002,48.999,43.999,76.001c-1.997,21.001-12.998,38.999-30.996,52.998
		c-26.001,18.999-44.004,21.001-180,23.003C995,3048.999,928.999,3045,897.002,3036z"/>
	<path d="M3727.001,3015c2.998-7.998,8.994-12.002,13.994-8.999c12.002,6.997,11.006,11.001-5,16.997
		C3725.996,3027.001,3722.998,3023.999,3727.001,3015z"/>
	<path d="M3550,2930c-7.998-15-7.998-17.998,2.998-13.999c7.998,2.998,14.004,11.001,14.004,18.999
		C3567.001,2955,3562.998,2953.999,3550,2930z"/>
	<path d="M3472.998,2880c2.998-11.001-40.996-37.998-152.002-96.001C3205,2722.998,3165,2697.998,3165,2683.999
		c0-15,90.996-63.999,420-226.997l420-209.004l-97.002-48.994L3810.996,2150l-102.998,49.004
		c-57.002,26.992-205.996,98.994-332.998,160C3249.004,2420,3137.998,2470,3127.998,2470c-25.996,0-32.002-37.998-23.994-164.004
		c8.994-165.996,27.998-215,95-250c155-78.994,427.998-220.996,470.996-245c30-16.992,62.998-30.996,74.004-30.996
		c28.994,0,605,299.004,615.996,320c12.002,22.998,25.996,285.996,17.002,322.002c-5,17.998-19.004,30.996-44.004,40.996
		c-75,30-847.998,411.001-855.996,421.001C3470.996,2891,3470,2890,3472.998,2880z"/>
</g>
<image overflow="visible" width="512" height="512" xlink:href="profil.jpg"  transform="matrix(0.9999 0 0 0.9999 0.0322 0.0322)">
</image>
</svg>
