<?xml version="1.0" encoding="UTF-8"?>
<svg width="96px" height="24px" viewBox="0 0 96 24" version="1.1" xmlns="http://www.w3.org/2000/svg" xmlns:xlink="http://www.w3.org/1999/xlink">
    <!-- Generator: Sketch 57 (83077) - https://sketch.com -->
    <title>Group 6</title>
    <desc>Created with Sketch.</desc>
    <g id="Assets" stroke="none" stroke-width="1" fill="none" fill-rule="evenodd">
        <g id="Group-6" fill-rule="nonzero">
            <polygon id="Path" fill="#FFFFFF" points="8.19040644 24 6.75015599e-14 24 6.75015599e-14 0 8.19040644 0 8.19040644 8.13193403 13.3928964 8.13193403 13.3928964 0 21.5833028 0 21.5833028 24 13.3928964 24 13.3928964 15.6521739 8.19040644 15.6521739"></polygon>
            <path d="M34.4137679,24 L26.2936653,24 L26.2936653,0 L34.4137679,0 L39.8623215,9.06746627 C40.7411205,10.5067466 41.3035518,11.4422789 42.0768949,13.3133433 L42.3229586,13.3133433 C41.971439,11.802099 41.5847675,9.39130435 41.5847675,7.62818591 L41.5847675,0 L49.740022,0 L49.740022,24 L41.5847675,24 L35.7495423,14.5367316 C35.2222629,13.6731634 34.5895276,12.4137931 34.1325522,11.4062969 L33.8864885,11.4062969 C34.1325522,12.7016492 34.4137679,14.7526237 34.4137679,15.832084 L34.4137679,24 Z" id="Path" fill="#FFFFFF"></path>
            <polygon id="Path" fill="#FF6600" points="65.4880996 24 57.1219334 24 57.1219334 7.5922039 52.3412669 7.80809595 52.3412669 0 70.268766 0 70.268766 7.80809595 65.4880996 7.5922039"></polygon>
            <path d="M79.6191871,24 L70.5148297,0 L79.4082754,0 L82.6774075,11.2983508 C82.9586232,12.2338831 83.134383,13.6371814 83.2046869,14.5007496 L83.4155987,14.5007496 C83.4507506,13.5292354 83.6265104,12.3058471 83.9077261,11.2983508 L87.1065544,0 L96,0 L86.9307946,24 L79.6191871,24 Z" id="Path" fill="#FF6600"></path>
        </g>
    </g>
</svg>