<!-- Generated by IcoMoon.io -->
<svg version="1.1" xmlns="http://www.w3.org/2000/svg" viewBox="0 0 104 28">
<title>homing</title>
<path fill="#48cae0" d="M28.299 9.711c-0.045-0.624-0.566-1.12-1.203-1.12h-1.208v1.24c0 0.017 0.002 0.037 0.002 0.054v8.754h2.409v-8.93z"></path>
<path fill="#48cae0" d="M35.742 9.711c-0.045-0.624-0.566-1.12-1.203-1.12h-1.208v1.24c0 0.017 0.002 0.037 0.002 0.054v8.754h2.409v-8.93z"></path>
<path fill="#48cae0" d="M43.824 18.614c-0.87 0.004-1.707-0.215-2.441-0.62-0.773-0.426-1.432-1.055-1.897-1.841-0.465-0.788-0.698-1.671-0.698-2.549s0.233-1.759 0.698-2.549c0.463-0.786 1.124-1.414 1.897-1.841 0.734-0.405 1.572-0.624 2.441-0.62 0.87-0.004 1.707 0.215 2.441 0.62 0.773 0.426 1.432 1.055 1.897 1.841 0.465 0.788 0.698 1.671 0.698 2.549s-0.233 1.759-0.698 2.549c-0.463 0.786-1.124 1.414-1.897 1.841-0.734 0.405-1.572 0.624-2.441 0.62zM42.543 15.882c0.372 0.207 0.792 0.321 1.227 0.327v0c0.019 0 0.037 0 0.056 0s0.037 0 0.056 0v0c0.433-0.006 0.855-0.121 1.227-0.327 0.398-0.22 0.741-0.547 0.982-0.954 0.239-0.405 0.36-0.863 0.36-1.322 0-0.461-0.121-0.917-0.36-1.322-0.241-0.409-0.583-0.734-0.982-0.954-0.372-0.207-0.792-0.321-1.227-0.327v0c-0.019 0-0.037 0-0.056 0s-0.037 0-0.056 0v0c-0.433 0.006-0.855 0.121-1.227 0.327-0.398 0.22-0.741 0.547-0.982 0.954-0.239 0.405-0.36 0.863-0.36 1.322 0 0.461 0.121 0.917 0.36 1.322 0.241 0.409 0.583 0.734 0.982 0.954z"></path>
<path fill="#48cae0" d="M52.071 18.586v-4.809c-0.043-0.891 0.157-1.761 0.56-2.53 0.411-0.788 1.036-1.464 1.823-1.942 0.794-0.48 1.681-0.721 2.566-0.721 0.883 0 1.772 0.241 2.566 0.721 0.79 0.478 1.412 1.154 1.823 1.942 0.403 0.769 0.603 1.64 0.56 2.53v0 4.809h-2.383v-4.809l0.004-0.075c0.030-0.482-0.073-0.949-0.286-1.358-0.215-0.411-0.538-0.762-0.949-1.012-0.405-0.245-0.868-0.368-1.337-0.368s-0.932 0.123-1.337 0.368c-0.409 0.248-0.734 0.601-0.949 1.012-0.213 0.407-0.316 0.876-0.286 1.358l0.004 0.075v4.809h-2.383z"></path>
<path fill="#48cae0" d="M59.587 18.586v-4.809c-0.043-0.891 0.157-1.761 0.56-2.53 0.411-0.788 1.036-1.464 1.823-1.942 0.794-0.48 1.681-0.721 2.566-0.721 0.883 0 1.772 0.241 2.566 0.721 0.79 0.478 1.412 1.154 1.823 1.942 0.403 0.769 0.603 1.64 0.56 2.53v0 4.809h-2.383v-4.809l0.004-0.075c0.030-0.482-0.073-0.949-0.286-1.358-0.215-0.411-0.538-0.762-0.949-1.012-0.405-0.245-0.868-0.368-1.337-0.368s-0.932 0.123-1.337 0.368c-0.409 0.248-0.734 0.601-0.949 1.012-0.213 0.407-0.316 0.876-0.286 1.358l0.004 0.075v4.809h-2.383z"></path>
<path fill="#48cae0" d="M75.686 9.711c-0.045-0.624-0.566-1.12-1.203-1.12h-1.208v1.24c0 0.017 0.002 0.037 0.002 0.054v8.754h2.409v-8.93z"></path>
<path fill="#48cae0" d="M79.294 18.586v-4.809c-0.043-0.891 0.157-1.761 0.56-2.53 0.411-0.788 1.036-1.464 1.823-1.942 0.794-0.48 1.681-0.721 2.566-0.721 0.883 0 1.772 0.241 2.566 0.721 0.79 0.478 1.412 1.154 1.823 1.942 0.403 0.769 0.603 1.64 0.56 2.53v0 4.809h-2.383v-4.809l0.004-0.075c0.030-0.482-0.073-0.949-0.286-1.358-0.215-0.411-0.538-0.762-0.949-1.012-0.405-0.245-0.868-0.368-1.337-0.368s-0.932 0.123-1.337 0.368c-0.409 0.248-0.734 0.601-0.949 1.012-0.213 0.407-0.316 0.876-0.286 1.358l0.004 0.075v4.809h-2.383z"></path>
<path fill="#48cae0" d="M29.69 10.898c-0.624 0.045-1.119 0.566-1.119 1.203v1.208h1.24c0.017 0 0.037-0.002 0.054-0.002h5.053v-2.409h-5.227z"></path>
<path fill="#b4667b" d="M10.7 4.84l7.74 7.834c-0.118 5.219-2.642 8.304-7.122 14.973-0.504 0.713-0.642 0.79-1.128 0.060-4.48-6.67-7.113-9.815-7.231-15.033l7.74-7.834zM10.777 10.924c-2.108 0-3.817 1.709-3.817 3.817s1.709 3.817 3.817 3.817c2.108 0 3.817-1.709 3.817-3.817s-1.709-3.817-3.817-3.817z"></path>
<path fill="#b4667b" d="M10.603 3.132l-9.029 9.089-1.574-1.681 10.713-10.54 10.583 10.592-1.625 1.63z"></path>
<path fill="#b4667b" d="M18.407 1.496h-3.001v1.836l3.001 3.010z"></path>
<path fill="#73989a" d="M15.406 31.361c0 0.353-2.13 0.639-4.758 0.639s-4.758-0.286-4.758-0.639c0-0.353 2.13-0.639 4.758-0.639s4.758 0.286 4.758 0.639z"></path>
<path fill="#48cae0" d="M31.746 25.018l0.629-0.062c0.039 0.211 0.114 0.364 0.228 0.463 0.116 0.099 0.271 0.149 0.467 0.149 0.207 0 0.364-0.043 0.467-0.131 0.105-0.088 0.157-0.189 0.157-0.308 0-0.075-0.022-0.14-0.067-0.194-0.043-0.054-0.121-0.099-0.23-0.138-0.075-0.026-0.245-0.073-0.515-0.14-0.344-0.086-0.586-0.192-0.725-0.316-0.196-0.177-0.293-0.392-0.293-0.644 0-0.164 0.045-0.316 0.138-0.459s0.224-0.25 0.398-0.325c0.172-0.075 0.381-0.112 0.626-0.112 0.398 0 0.7 0.088 0.902 0.267s0.308 0.413 0.319 0.71l-0.648 0.022c-0.028-0.166-0.086-0.284-0.177-0.355-0.090-0.073-0.226-0.108-0.405-0.108-0.185 0-0.332 0.039-0.437 0.116-0.067 0.050-0.101 0.116-0.101 0.2 0 0.075 0.032 0.14 0.097 0.194 0.082 0.069 0.278 0.14 0.592 0.215 0.312 0.073 0.545 0.151 0.693 0.23 0.151 0.080 0.267 0.187 0.353 0.325 0.084 0.138 0.127 0.308 0.127 0.508 0 0.183-0.050 0.355-0.153 0.515-0.101 0.159-0.245 0.28-0.431 0.355-0.185 0.078-0.418 0.116-0.695 0.116-0.405 0-0.715-0.093-0.93-0.28-0.217-0.185-0.344-0.456-0.387-0.814z"></path>
<path fill="#48cae0" d="M36.224 25.322l0.611 0.103c-0.078 0.224-0.202 0.394-0.37 0.512-0.17 0.116-0.381 0.177-0.635 0.177-0.403 0-0.7-0.131-0.893-0.394-0.153-0.211-0.228-0.478-0.228-0.799 0-0.383 0.101-0.685 0.301-0.902s0.454-0.327 0.76-0.327c0.344 0 0.616 0.114 0.814 0.342s0.293 0.577 0.284 1.046h-1.531c0.004 0.181 0.054 0.323 0.149 0.424s0.211 0.151 0.351 0.151c0.097 0 0.177-0.026 0.241-0.078s0.114-0.136 0.149-0.252zM36.261 24.702c-0.004-0.179-0.050-0.312-0.138-0.405-0.086-0.093-0.192-0.14-0.316-0.14-0.133 0-0.243 0.050-0.329 0.146s-0.129 0.23-0.127 0.398h0.913z"></path>
<path fill="#48cae0" d="M37.367 26.054v-3.195h0.611v3.195z"></path>
<path fill="#48cae0" d="M38.607 26.054v-3.195h0.611v3.195z"></path>
<path fill="#48cae0" d="M39.83 25.442h0.611v0.437c0 0.177-0.015 0.316-0.045 0.42s-0.088 0.194-0.172 0.276c-0.084 0.082-0.192 0.144-0.323 0.192l-0.118-0.254c0.123-0.041 0.209-0.097 0.263-0.168 0.052-0.071 0.080-0.168 0.082-0.291h-0.295v-0.611z"></path>
<path fill="#48cae0" d="M42.911 26.054h-0.611v-2.316h0.566v0.329c0.097-0.155 0.185-0.258 0.263-0.306s0.166-0.073 0.265-0.073c0.14 0 0.273 0.039 0.405 0.116l-0.189 0.534c-0.103-0.067-0.2-0.101-0.288-0.101-0.086 0-0.159 0.024-0.22 0.071s-0.105 0.131-0.14 0.256c-0.034 0.123-0.052 0.383-0.052 0.775v0.715z"></path>
<path fill="#48cae0" d="M45.402 25.322l0.611 0.103c-0.078 0.224-0.202 0.394-0.37 0.512-0.17 0.116-0.381 0.177-0.635 0.177-0.403 0-0.7-0.131-0.893-0.394-0.153-0.211-0.228-0.478-0.228-0.799 0-0.383 0.101-0.685 0.301-0.902s0.454-0.327 0.76-0.327c0.344 0 0.616 0.114 0.814 0.342s0.293 0.577 0.284 1.046h-1.531c0.004 0.181 0.054 0.323 0.149 0.424s0.211 0.151 0.351 0.151c0.097 0 0.177-0.026 0.241-0.078s0.114-0.136 0.149-0.252zM45.438 24.702c-0.004-0.179-0.050-0.312-0.138-0.405-0.086-0.093-0.192-0.14-0.316-0.14-0.133 0-0.243 0.050-0.329 0.146s-0.129 0.23-0.127 0.398h0.913z"></path>
<path fill="#48cae0" d="M48.65 26.054h-0.611v-1.18c0-0.25-0.013-0.411-0.039-0.484s-0.069-0.129-0.129-0.17c-0.060-0.041-0.131-0.060-0.213-0.060-0.108 0-0.202 0.028-0.288 0.086s-0.144 0.136-0.174 0.23c-0.032 0.097-0.047 0.273-0.047 0.532v1.046h-0.611v-2.316h0.566v0.34c0.202-0.261 0.459-0.39 0.766-0.39 0.136 0 0.261 0.024 0.372 0.073s0.198 0.11 0.254 0.185c0.058 0.075 0.099 0.161 0.121 0.258 0.024 0.097 0.034 0.233 0.034 0.411v1.438z"></path>
<path fill="#48cae0" d="M50.327 23.74v0.487h-0.42v0.939c0 0.189 0.004 0.301 0.013 0.332 0.009 0.032 0.026 0.058 0.056 0.078 0.028 0.019 0.062 0.030 0.103 0.030 0.058 0 0.14-0.019 0.248-0.058l0.052 0.476c-0.142 0.060-0.304 0.090-0.482 0.090-0.11 0-0.209-0.019-0.297-0.056s-0.153-0.086-0.194-0.144c-0.041-0.060-0.069-0.14-0.086-0.241-0.013-0.071-0.019-0.215-0.019-0.433v-1.014h-0.282v-0.487h0.282v-0.459l0.611-0.362v0.82h0.42z"></path>
<path fill="#48cae0" d="M52.45 24.452l-0.553-0.099c0.062-0.226 0.17-0.394 0.323-0.502s0.379-0.164 0.68-0.164c0.273 0 0.476 0.032 0.611 0.097 0.133 0.065 0.228 0.146 0.282 0.245s0.082 0.282 0.082 0.549l-0.009 0.715c0 0.202 0.009 0.353 0.028 0.45s0.056 0.2 0.11 0.31h-0.607c-0.015-0.041-0.037-0.099-0.058-0.179-0.009-0.037-0.017-0.060-0.022-0.071-0.103 0.103-0.215 0.179-0.334 0.23s-0.245 0.078-0.381 0.078c-0.237 0-0.424-0.065-0.562-0.194s-0.205-0.293-0.205-0.491c0-0.129 0.032-0.248 0.095-0.349s0.149-0.181 0.263-0.235c0.112-0.054 0.273-0.101 0.487-0.142 0.286-0.054 0.484-0.103 0.594-0.151v-0.062c0-0.118-0.028-0.205-0.086-0.254s-0.168-0.075-0.329-0.075c-0.11 0-0.194 0.022-0.254 0.065-0.062 0.043-0.11 0.121-0.149 0.228zM53.27 24.947c-0.078 0.026-0.202 0.058-0.372 0.095s-0.282 0.073-0.334 0.105c-0.080 0.058-0.121 0.129-0.121 0.215s0.032 0.159 0.097 0.222c0.065 0.062 0.144 0.095 0.243 0.095 0.11 0 0.215-0.037 0.316-0.108 0.073-0.056 0.123-0.123 0.146-0.202 0.015-0.052 0.024-0.151 0.024-0.299v-0.123z"></path>
<path fill="#48cae0" d="M56.582 26.054h-0.611v-1.18c0-0.25-0.013-0.411-0.039-0.484s-0.069-0.129-0.129-0.17c-0.060-0.041-0.131-0.060-0.213-0.060-0.108 0-0.202 0.028-0.288 0.086s-0.144 0.136-0.174 0.23c-0.032 0.097-0.047 0.273-0.047 0.532v1.046h-0.611v-2.316h0.566v0.34c0.202-0.261 0.459-0.39 0.766-0.39 0.136 0 0.261 0.024 0.372 0.073s0.198 0.11 0.254 0.185c0.058 0.075 0.099 0.161 0.121 0.258 0.024 0.097 0.034 0.233 0.034 0.411v1.438z"></path>
<path fill="#48cae0" d="M59.324 26.054h-0.566v-0.34c-0.095 0.131-0.207 0.23-0.336 0.299-0.129 0.067-0.258 0.099-0.39 0.099-0.267 0-0.495-0.108-0.685-0.323s-0.284-0.515-0.284-0.898c0-0.392 0.093-0.691 0.278-0.896s0.418-0.306 0.702-0.306c0.258 0 0.484 0.108 0.672 0.323v-1.152h0.611v3.195zM57.69 24.85c0 0.248 0.034 0.426 0.101 0.538 0.099 0.161 0.237 0.241 0.413 0.241 0.14 0 0.261-0.060 0.357-0.181 0.099-0.121 0.149-0.299 0.149-0.538 0-0.267-0.047-0.459-0.144-0.577s-0.217-0.177-0.368-0.177c-0.144 0-0.267 0.058-0.364 0.174s-0.146 0.288-0.146 0.519z"></path>
<path fill="#48cae0" d="M61.768 22.859v1.184c0.198-0.235 0.437-0.353 0.713-0.353 0.142 0 0.269 0.026 0.383 0.078 0.114 0.054 0.2 0.118 0.258 0.2s0.097 0.17 0.118 0.269c0.022 0.099 0.032 0.252 0.032 0.459v1.356h-0.611v-1.221c0-0.243-0.013-0.396-0.034-0.461-0.024-0.065-0.065-0.118-0.125-0.155-0.060-0.039-0.133-0.058-0.224-0.058-0.103 0-0.194 0.024-0.276 0.075-0.082 0.050-0.14 0.123-0.177 0.224-0.039 0.099-0.056 0.245-0.056 0.439v1.158h-0.611v-3.195h0.611z"></path>
<path fill="#48cae0" d="M63.748 24.868c0-0.205 0.050-0.4 0.151-0.592s0.243-0.336 0.426-0.437c0.183-0.101 0.388-0.151 0.616-0.151 0.351 0 0.637 0.114 0.861 0.342s0.336 0.515 0.336 0.863c0 0.351-0.112 0.642-0.338 0.872s-0.51 0.347-0.853 0.347c-0.211 0-0.413-0.047-0.607-0.144-0.192-0.097-0.338-0.237-0.439-0.422s-0.151-0.411-0.151-0.678zM64.377 24.9c0 0.23 0.054 0.407 0.164 0.527 0.11 0.123 0.243 0.183 0.403 0.183s0.293-0.060 0.4-0.183c0.108-0.123 0.161-0.299 0.161-0.532 0-0.226-0.054-0.403-0.161-0.523-0.108-0.123-0.241-0.183-0.4-0.183s-0.293 0.060-0.403 0.183c-0.108 0.123-0.164 0.299-0.164 0.527z"></path>
<path fill="#48cae0" d="M66.573 23.74h0.562v0.316c0.202-0.243 0.441-0.366 0.721-0.366 0.149 0 0.276 0.030 0.385 0.090s0.198 0.153 0.267 0.276c0.101-0.123 0.211-0.215 0.329-0.276s0.243-0.090 0.377-0.090c0.17 0 0.312 0.034 0.431 0.103s0.205 0.17 0.263 0.304c0.043 0.099 0.062 0.258 0.062 0.478v1.479h-0.611v-1.322c0-0.23-0.022-0.377-0.062-0.444-0.056-0.086-0.144-0.131-0.263-0.131-0.086 0-0.166 0.026-0.243 0.078-0.075 0.054-0.129 0.129-0.164 0.23s-0.050 0.261-0.050 0.478v1.111h-0.611v-1.268c0-0.224-0.011-0.37-0.032-0.435s-0.056-0.114-0.101-0.146c-0.045-0.032-0.108-0.047-0.185-0.047-0.095 0-0.179 0.026-0.254 0.075-0.075 0.052-0.129 0.125-0.161 0.22-0.032 0.097-0.050 0.254-0.050 0.476v1.124h-0.611v-2.316z"></path>
<path fill="#48cae0" d="M71.923 25.322l0.611 0.103c-0.078 0.224-0.202 0.394-0.37 0.512-0.17 0.116-0.381 0.177-0.635 0.177-0.403 0-0.7-0.131-0.893-0.394-0.153-0.211-0.228-0.478-0.228-0.799 0-0.383 0.101-0.685 0.301-0.902s0.454-0.327 0.76-0.327c0.344 0 0.616 0.114 0.814 0.342s0.293 0.577 0.284 1.046h-1.531c0.004 0.181 0.054 0.323 0.149 0.424s0.211 0.151 0.351 0.151c0.097 0 0.177-0.026 0.241-0.078s0.114-0.136 0.149-0.252zM71.959 24.702c-0.004-0.179-0.050-0.312-0.138-0.405-0.086-0.093-0.192-0.14-0.316-0.14-0.133 0-0.243 0.050-0.329 0.146s-0.129 0.23-0.127 0.398h0.913z"></path>
<path fill="#48cae0" d="M74.086 25.404l0.616-0.095c0.026 0.118 0.080 0.209 0.159 0.269 0.080 0.062 0.192 0.093 0.336 0.093 0.159 0 0.278-0.028 0.357-0.086 0.054-0.041 0.080-0.097 0.080-0.164 0-0.045-0.015-0.084-0.043-0.116-0.030-0.028-0.099-0.056-0.205-0.082-0.495-0.11-0.807-0.209-0.941-0.299-0.183-0.125-0.276-0.299-0.276-0.521 0-0.202 0.080-0.37 0.239-0.508s0.405-0.205 0.736-0.205c0.316 0 0.553 0.052 0.706 0.155 0.155 0.103 0.26 0.258 0.319 0.461l-0.575 0.108c-0.024-0.090-0.073-0.161-0.142-0.209s-0.168-0.073-0.297-0.073c-0.161 0-0.278 0.022-0.349 0.067-0.047 0.032-0.069 0.073-0.069 0.125 0 0.043 0.019 0.082 0.060 0.112 0.056 0.041 0.248 0.099 0.575 0.172 0.327 0.075 0.555 0.166 0.685 0.273s0.192 0.261 0.192 0.456c0 0.211-0.088 0.394-0.267 0.547-0.177 0.153-0.439 0.228-0.788 0.228-0.314 0-0.566-0.065-0.749-0.192s-0.304-0.299-0.362-0.519z"></path>
<path fill="#48cae0" d="M78.125 25.322l0.611 0.103c-0.078 0.224-0.202 0.394-0.37 0.512-0.17 0.116-0.381 0.177-0.635 0.177-0.403 0-0.7-0.131-0.893-0.394-0.153-0.211-0.228-0.478-0.228-0.799 0-0.383 0.101-0.685 0.301-0.902s0.454-0.327 0.76-0.327c0.344 0 0.616 0.114 0.814 0.342s0.293 0.577 0.284 1.046h-1.531c0.004 0.181 0.054 0.323 0.149 0.424s0.211 0.151 0.351 0.151c0.097 0 0.177-0.026 0.241-0.078s0.114-0.136 0.149-0.252zM78.162 24.702c-0.004-0.179-0.050-0.312-0.138-0.405-0.086-0.093-0.192-0.14-0.316-0.14-0.133 0-0.243 0.050-0.329 0.146s-0.129 0.23-0.127 0.398h0.913z"></path>
<path fill="#48cae0" d="M79.852 26.054h-0.611v-2.316h0.566v0.329c0.097-0.155 0.185-0.258 0.263-0.306s0.166-0.073 0.265-0.073c0.14 0 0.273 0.039 0.405 0.116l-0.189 0.534c-0.103-0.067-0.2-0.101-0.288-0.101-0.086 0-0.159 0.024-0.22 0.071s-0.106 0.131-0.14 0.256c-0.034 0.123-0.052 0.383-0.052 0.775v0.715z"></path>
<path fill="#48cae0" d="M81.641 26.054l-0.932-2.316h0.642l0.435 1.182 0.127 0.394c0.034-0.101 0.056-0.166 0.062-0.198 0.022-0.065 0.043-0.131 0.067-0.196l0.441-1.182h0.629l-0.919 2.316h-0.551z"></path>
<path fill="#48cae0" d="M83.486 23.427v-0.566h0.611v0.566h-0.611zM83.486 26.056v-2.316h0.611v2.316h-0.611z"></path>
<path fill="#48cae0" d="M86.743 24.426l-0.603 0.108c-0.019-0.121-0.067-0.209-0.138-0.271-0.073-0.060-0.166-0.090-0.28-0.090-0.153 0-0.273 0.054-0.366 0.159-0.090 0.105-0.136 0.282-0.136 0.53 0 0.276 0.045 0.469 0.138 0.583s0.215 0.17 0.37 0.17c0.116 0 0.211-0.034 0.284-0.099 0.075-0.067 0.127-0.181 0.157-0.342l0.603 0.103c-0.062 0.276-0.183 0.487-0.36 0.626-0.177 0.142-0.413 0.211-0.713 0.211-0.338 0-0.607-0.108-0.807-0.321-0.202-0.213-0.301-0.51-0.301-0.889 0-0.383 0.101-0.68 0.304-0.893s0.474-0.321 0.818-0.321c0.282 0 0.506 0.060 0.672 0.183 0.166 0.121 0.284 0.306 0.357 0.553z"></path>
<path fill="#48cae0" d="M88.545 25.322l0.611 0.103c-0.078 0.224-0.202 0.394-0.37 0.512-0.17 0.116-0.381 0.177-0.635 0.177-0.403 0-0.7-0.131-0.893-0.394-0.153-0.211-0.228-0.478-0.228-0.799 0-0.383 0.101-0.685 0.301-0.902s0.454-0.327 0.76-0.327c0.344 0 0.616 0.114 0.814 0.342s0.293 0.577 0.284 1.046h-1.531c0.004 0.181 0.054 0.323 0.149 0.424s0.211 0.151 0.351 0.151c0.097 0 0.177-0.026 0.241-0.078s0.114-0.136 0.149-0.252zM88.582 24.702c-0.004-0.179-0.050-0.312-0.138-0.405-0.086-0.093-0.192-0.14-0.316-0.14-0.133 0-0.243 0.050-0.329 0.146s-0.129 0.23-0.127 0.398h0.913z"></path>
<path fill="#48cae0" d="M89.471 25.404l0.616-0.095c0.026 0.118 0.080 0.209 0.159 0.269 0.080 0.062 0.192 0.093 0.336 0.093 0.159 0 0.278-0.028 0.357-0.086 0.054-0.041 0.080-0.097 0.080-0.164 0-0.045-0.015-0.084-0.043-0.116-0.030-0.028-0.099-0.056-0.205-0.082-0.495-0.11-0.807-0.209-0.941-0.299-0.183-0.125-0.276-0.299-0.276-0.521 0-0.202 0.080-0.37 0.239-0.508s0.405-0.205 0.736-0.205c0.316 0 0.553 0.052 0.706 0.155 0.155 0.103 0.26 0.258 0.319 0.461l-0.575 0.108c-0.024-0.090-0.073-0.161-0.142-0.209s-0.168-0.073-0.297-0.073c-0.161 0-0.278 0.022-0.349 0.067-0.047 0.032-0.069 0.073-0.069 0.125 0 0.043 0.019 0.082 0.060 0.112 0.056 0.041 0.248 0.099 0.575 0.172 0.327 0.075 0.555 0.166 0.685 0.273s0.192 0.261 0.192 0.456c0 0.211-0.088 0.394-0.267 0.547-0.177 0.153-0.439 0.228-0.788 0.228-0.314 0-0.566-0.065-0.749-0.192s-0.304-0.299-0.362-0.519z"></path>
<path fill="#48cae0" d="M96.674 18.614c-0.87 0.004-1.707-0.215-2.441-0.62-0.773-0.426-1.432-1.055-1.897-1.841-0.465-0.788-0.698-1.671-0.698-2.549s0.233-1.759 0.698-2.549c0.463-0.786 1.124-1.414 1.897-1.841 0.734-0.405 1.572-0.624 2.441-0.62 0.87-0.004 1.707 0.215 2.441 0.62 0.773 0.426 1.432 1.055 1.897 1.841 0.465 0.788 0.698 1.671 0.698 2.549s-0.233 1.759-0.698 2.549c-0.463 0.786-1.124 1.414-1.897 1.841-0.734 0.405-1.572 0.624-2.441 0.62zM95.393 15.882c0.372 0.207 0.792 0.321 1.227 0.327v0c0.019 0 0.037 0 0.056 0s0.037 0 0.056 0v0c0.433-0.006 0.855-0.121 1.227-0.327 0.398-0.22 0.741-0.547 0.982-0.954 0.239-0.405 0.36-0.863 0.36-1.322 0-0.461-0.121-0.917-0.36-1.322-0.241-0.409-0.583-0.734-0.982-0.954-0.372-0.207-0.792-0.321-1.227-0.327v0c-0.019 0-0.037 0-0.056 0s-0.037 0-0.056 0v0c-0.433 0.006-0.855 0.121-1.227 0.327-0.398 0.22-0.741 0.547-0.982 0.954-0.239 0.405-0.36 0.863-0.36 1.322 0 0.461 0.121 0.917 0.36 1.322 0.241 0.409 0.583 0.734 0.982 0.954z"></path>
<path fill="#48cae0" d="M99.299 9.688c0.045-0.624 0.566-1.12 1.203-1.12h1.208v1.24c0 0.017-0.002 0.037-0.002 0.054v2.512h0.002c0 4.577 0 0.853 0 5.427-0.045 0.624-0.566 1.119-1.203 1.119h-1.208v-1.24c0-0.017 0.002-0.037 0.002-0.054 0-3.496-0.002 1.309-0.002-2.189v-5.75z"></path>
<path fill="#48cae0" d="M28.299 6.883c-0.045-0.624-0.566-1.119-1.203-1.119h-1.208v1.24c0 0.017 0.002 0.037 0.002 0.054v8.754h2.409v-8.93z"></path>
<path fill="#48cae0" d="M35.742 6.883c-0.045-0.624-0.566-1.119-1.203-1.119h-1.208v1.24c0 0.017 0.002 0.037 0.002 0.054v8.754h2.409v-8.93z"></path>
<path fill="#48cae0" d="M74.478 8.179c0.667 0 1.208-0.54 1.208-1.208s-0.54-1.208-1.208-1.208c-0.667 0-1.208 0.54-1.208 1.208s0.54 1.208 1.208 1.208z"></path>
<path fill="#48cae0" d="M99.299 17.712h2.418c0 0.883-0.235 1.767-0.702 2.56-0.465 0.79-1.128 1.421-1.905 1.849-0.68 0.375-1.447 0.626-2.248 0.62l-2.822-0.024v-1.24c0.019-0.704 0.846-1.158 1.315-1.147 0.883 0.022 1.804 0.112 2.594-0.325 0.403-0.222 0.747-0.551 0.99-0.962 0.241-0.409 0.362-0.87 0.362-1.333z"></path>
</svg>
