<svg id="Layer_1" data-name="Layer 1" xmlns="http://www.w3.org/2000/svg" viewBox="0 0 500 500" style='background-color: #e7decd;'><defs><style>.cls-1{fill:#b3814b;}.cls-2,.cls-4{fill:none;stroke:#000;stroke-linecap:round;stroke-linejoin:round;}.cls-2{stroke-width:20px;}.cls-3{opacity:0.15;}.cls-4{stroke-width:20.23px;}</style></defs><title>coffee-beans</title><ellipse class="cls-1" cx="410.71" cy="405.03" rx="91.12" ry="70.62" transform="translate(-161.51 477.83) rotate(-51.85)"/><path class="cls-2" d="M474.82,340.86s-64,21-64.11,64.17c-.11,35-63,61.33-63,61.33"/><path class="cls-3" d="M467,333.37a55.79,55.79,0,0,0-15.59-8.51c9.94,26.28,3.67,61.31-18.9,90.05-26.26,33.42-66,47.47-96.23,36.54a57.38,57.38,0,0,0,18.15,25.24c30.67,24.09,80.74,11.54,111.82-28S497.67,357.46,467,333.37Z"/><ellipse class="cls-1" cx="125.21" cy="416.55" rx="71.74" ry="55.6" transform="matrix(0.98, -0.21, 0.21, 0.98, -84.85, 35.67)"/><path class="cls-2" d="M196.32,409.93s-49.3-19.49-71.11,6.62c-17.67,21.15-69,5.46-69,5.46"/><path class="cls-3" d="M195.34,401.45c-3.63-16.87-16.79-29.81-34.51-36.43.26.9.57,1.77.77,2.69,6.46,30-19.7,61.11-58.44,69.45-17,3.65-33.52,2.33-47.33-2.83,8,28.35,43.53,44.66,81.08,36.57C175.64,462.57,201.81,431.47,195.34,401.45Z"/><ellipse class="cls-1" cx="264.1" cy="258.27" rx="72.8" ry="93.93" transform="translate(-19.29 21.32) rotate(-4.46)"/><path class="cls-2" d="M268,164.84s-33.91,60.56-3.86,93.43c24.35,26.64-5,90.49-5,90.49"/><path class="cls-3" d="M336.68,252.61c-2.91-37.31-22.37-68.11-48-81.25a114.31,114.31,0,0,1,14.26,47.5c4,51.73-25.18,96.19-65.27,99.32a59.28,59.28,0,0,1-31.87-6.74c14.83,26.14,39.26,42.54,65.62,40.48C311.49,348.8,340.72,304.33,336.68,252.61Z"/><ellipse class="cls-1" cx="71.92" cy="245.26" rx="55.14" ry="71.15" transform="translate(-135.78 96.31) rotate(-38.01)"/><path class="cls-2" d="M35.25,184.67s3.94,52.42,36.67,60.59c26.52,6.62,34.73,59.21,34.73,59.21"/><path class="cls-3" d="M115.37,211.3A87.46,87.46,0,0,0,89,188.54c16.54,28.94,14.27,62.43-7,79-16.42,12.83-39.9,12.24-60.85.66a90.51,90.51,0,0,0,7.34,11c24.2,31,63.26,40.86,87.26,22.1S139.56,242.26,115.37,211.3Z"/><ellipse class="cls-1" cx="125.21" cy="72.7" rx="71.15" ry="55.14" transform="translate(-18.29 91.96) rotate(-37.79)"/><path class="cls-2" d="M185.94,36.27S133.51,40,125.21,72.7c-6.73,26.49-59.35,34.5-59.35,34.5"/><path class="cls-3" d="M181.44,29.11c-6.41-8.26-15.39-13.62-25.65-16.2,5.12,22.81-6.24,50.78-30.54,69.63-20.4,15.81-44.75,21.17-64.37,16.21A44.11,44.11,0,0,0,69,116.3c18.66,24.06,59,24.06,90,0S200.1,53.18,181.44,29.11Z"/><ellipse class="cls-1" cx="431.2" cy="118.94" rx="73.75" ry="57.15" transform="translate(212.43 509.1) rotate(-76.14)"/><path class="cls-2" d="M457.13,50.26S416.91,87,431.2,118.94c11.57,25.86-26.05,66.21-26.05,66.21"/><path class="cls-3" d="M450.6,47.89c5.6,14.8,6.85,32.74,2.34,51-9.75,39.54-42.51,65.47-73.15,57.91-.6-.15-1.16-.38-1.74-.55,6.53,17.24,19,30.23,35.48,34.29,30.65,7.57,63.4-18.36,73.16-57.91C496.26,93.86,480.12,56.47,450.6,47.89Z"/><ellipse class="cls-2" cx="410.71" cy="405.03" rx="91.12" ry="70.62" transform="translate(-161.51 477.83) rotate(-51.85)"/><ellipse class="cls-4" cx="125.21" cy="416.55" rx="71.74" ry="55.6" transform="matrix(0.98, -0.21, 0.21, 0.98, -84.85, 35.67)"/><ellipse class="cls-2" cx="264.1" cy="258.27" rx="72.8" ry="93.93" transform="translate(-19.29 21.32) rotate(-4.46)"/><ellipse class="cls-2" cx="71.92" cy="245.26" rx="55.14" ry="71.15" transform="translate(-135.78 96.31) rotate(-38.01)"/><ellipse class="cls-2" cx="125.21" cy="72.7" rx="71.15" ry="55.14" transform="translate(-18.29 91.96) rotate(-37.79)"/><ellipse class="cls-2" cx="431.2" cy="118.94" rx="73.75" ry="57.15" transform="translate(212.43 509.1) rotate(-76.14)"/></svg>
