<?xml version="1.0" standalone="no"?>
<!DOCTYPE svg PUBLIC "-//W3C//DTD SVG 20010904//EN"
 "http://www.w3.org/TR/2001/REC-SVG-20010904/DTD/svg10.dtd">
<svg version="1.0" xmlns="http://www.w3.org/2000/svg"
 width="512.000000pt" height="512.000000pt" viewBox="0 0 512.000000 512.000000"
 preserveAspectRatio="xMidYMid meet">

<g transform="translate(0.000000,512.000000) scale(0.100000,-0.100000)"
fill="#000000" stroke="none">
<path d="M4355 5105 c-22 -8 -48 -24 -57 -35 -36 -45 -41 -117 -11 -175 6 -11
13 -34 16 -52 l6 -32 -312 -5 c-172 -3 -545 -8 -829 -12 l-518 -5 0 58 c-1
109 -53 176 -140 176 -86 0 -139 -67 -140 -174 l0 -57 -267 -6 c-148 -4 -306
-12 -353 -17 -47 -5 -289 -12 -537 -16 l-453 -6 0 54 c-1 105 -55 172 -140
172 -83 0 -139 -67 -140 -165 0 -43 -2 -48 -22 -48 -43 -1 -106 -37 -124 -71
-37 -73 -11 -158 59 -190 23 -10 52 -19 65 -19 l22 0 0 -307 c0 -170 -3 -615
-7 -990 l-6 -683 -41 0 c-92 -1 -159 -59 -159 -140 0 -83 67 -139 164 -140
l47 0 12 -86 c9 -65 11 -207 5 -563 -7 -459 -6 -478 13 -536 31 -93 53 -228
59 -362 l6 -123 -94 0 c-148 -1 -212 -43 -212 -140 0 -91 66 -139 188 -140
l71 0 12 -46 c15 -55 47 -89 99 -104 35 -11 46 -10 87 8 37 17 51 30 66 64 11
24 20 55 20 70 0 24 4 27 43 32 23 3 389 7 814 8 l771 3 5 -39 c22 -166 252
-163 274 4 l6 40 682 0 c375 0 743 3 818 7 l137 6 0 -54 c0 -66 23 -116 69
-146 42 -28 95 -30 138 -3 50 30 67 64 73 149 l5 76 80 6 c46 3 94 12 112 22
61 32 83 118 49 186 -24 46 -83 71 -173 71 l-71 0 -6 253 c-3 138 -9 383 -14
542 -5 160 -7 403 -4 541 l5 252 41 6 c165 27 163 245 -2 272 l-42 7 0 1003 0
1004 38 19 c52 26 76 65 76 121 0 61 -27 98 -89 126 l-51 22 -13 74 c-22 122
-58 196 -109 222 -45 22 -75 25 -117 11z m-15 -1590 l0 -1015 -870 0 -870 0 6
43 c3 23 13 80 22 127 14 73 17 205 19 963 l4 877 457 1 c251 1 495 4 542 8
47 5 221 9 388 9 l302 2 0 -1015z m-1970 160 c0 -781 -1 -844 -20 -968 -11
-73 -21 -148 -22 -167 l-3 -35 -789 -3 -789 -2 6 697 c4 384 7 827 7 986 l0
287 233 1 c222 0 616 12 912 28 77 4 213 8 303 9 l162 2 0 -835z m-60 -2143
c0 -552 3 -699 14 -742 25 -101 40 -190 32 -197 -4 -5 -344 -9 -755 -11 l-748
-2 -6 107 c-6 120 -40 336 -63 398 -13 34 -14 117 -12 540 2 275 -1 521 -5
548 l-8 47 775 0 776 0 0 -688z m2028 186 c1 -293 5 -532 11 -573 6 -38 11
-176 11 -306 l0 -236 -112 -6 c-62 -4 -447 -7 -854 -7 -814 0 -754 -5 -754 58
0 15 -11 72 -25 127 l-25 100 0 672 0 673 874 0 874 0 0 -502z"/>
<path d="M2871 4244 c-42 -30 -51 -71 -51 -231 0 -200 21 -267 110 -347 67
-60 122 -71 368 -71 l212 0 0 -30 c0 -17 5 -46 10 -65 6 -19 15 -82 21 -140
39 -406 43 -430 71 -514 9 -27 24 -46 46 -59 39 -23 73 -17 109 19 22 22 24
31 20 77 -2 29 -10 70 -16 92 -11 37 -25 155 -51 433 -5 56 -12 108 -16 114
-10 16 -25 220 -32 446 l-7 204 -28 24 c-39 33 -81 31 -118 -5 l-29 -29 0
-190 0 -190 -64 -7 c-35 -4 -120 -5 -187 -3 -98 2 -132 7 -164 23 -63 32 -70
55 -70 248 l0 169 -28 24 c-33 28 -73 31 -106 8z"/>
<path d="M1399 4220 l-30 -30 7 -647 c4 -357 11 -656 16 -665 13 -27 66 -51
95 -43 14 3 36 17 49 30 l24 24 0 289 c0 159 -3 453 -7 653 l-6 364 -28 27
c-38 38 -81 37 -120 -2z"/>
<path d="M1351 2069 c-13 -5 -53 -38 -90 -74 -36 -36 -76 -72 -88 -80 -48 -34
-133 -211 -133 -277 0 -41 25 -85 58 -101 15 -8 57 -17 94 -21 37 -4 100 -18
140 -32 40 -14 81 -28 91 -31 33 -10 22 -36 -110 -240 -29 -45 -63 -104 -77
-130 -13 -26 -36 -70 -50 -97 -30 -57 -32 -76 -11 -115 20 -39 66 -55 110 -37
33 14 55 45 113 156 15 30 45 81 65 113 75 117 129 209 140 240 7 18 44 79 82
136 162 240 168 250 173 303 l5 50 -69 66 c-92 87 -142 117 -252 152 -94 31
-149 36 -191 19z m153 -198 c59 -21 72 -29 125 -73 l32 -28 -43 -61 c-24 -34
-51 -74 -61 -90 l-19 -28 -26 19 c-32 22 -203 80 -238 80 -27 0 -29 5 -9 40
20 37 148 160 166 160 9 0 41 -9 73 -19z"/>
<path d="M3554 2006 c-12 -8 -68 -77 -125 -153 -69 -91 -161 -195 -272 -305
-204 -204 -223 -239 -177 -333 24 -50 163 -177 264 -242 39 -25 98 -64 130
-86 38 -26 74 -41 100 -44 61 -6 131 39 202 129 32 40 90 107 130 148 39 41
77 86 84 99 24 47 5 84 -90 175 -50 47 -112 98 -138 113 -26 15 -67 44 -92 64
-25 20 -55 40 -68 44 -22 6 -22 7 16 53 49 60 146 191 161 219 19 37 13 73
-18 104 -33 32 -74 38 -107 15z m-121 -557 c28 -28 72 -63 97 -77 25 -14 69
-46 97 -70 l53 -44 -23 -27 c-68 -84 -163 -191 -168 -191 -27 0 -229 143 -287
203 l-44 44 105 107 c58 58 108 106 112 106 3 0 29 -23 58 -51z"/>
</g>
</svg>
