<?xml version="1.0" standalone="no"?>
<!DOCTYPE svg PUBLIC "-//W3C//DTD SVG 20010904//EN"
 "http://www.w3.org/TR/2001/REC-SVG-20010904/DTD/svg10.dtd">
<svg version="1.0" xmlns="http://www.w3.org/2000/svg"
 width="512.000000pt" height="512.000000pt" viewBox="0 0 512.000000 512.000000"
 preserveAspectRatio="xMidYMid meet">

<g transform="translate(0.000000,512.000000) scale(0.100000,-0.100000)"
fill="#000000" stroke="none">
<path d="M1035 4885 c-52 -12 -202 -81 -230 -106 -13 -12 -62 -11 -70 1 -17
28 -66 -4 -107 -70 -8 -14 -45 -58 -82 -99 -36 -41 -78 -96 -93 -123 -17 -30
-49 -66 -82 -92 -30 -23 -85 -82 -123 -131 -37 -50 -84 -104 -105 -120 -21
-17 -62 -54 -90 -82 l-53 -51 0 -206 c0 -132 4 -206 10 -206 6 0 24 -22 40
-49 33 -52 90 -105 208 -191 77 -55 109 -105 126 -193 9 -47 26 -47 63 0 40
48 57 40 82 -40 17 -56 18 -74 9 -143 -9 -72 -13 -82 -44 -107 -19 -16 -34
-34 -34 -41 0 -7 -11 -23 -25 -36 -82 -77 -158 -284 -174 -475 -10 -118 -11
-122 -67 -230 -32 -60 -67 -126 -79 -145 -62 -102 -80 -216 -60 -386 8 -71 19
-237 24 -369 l9 -240 36 -84 36 -84 -20 -34 c-11 -19 -20 -38 -20 -44 0 -6
387 -8 1033 -7 l1032 3 6 200 c9 290 26 499 49 601 11 49 29 128 39 175 22 96
69 236 101 299 59 116 73 178 76 333 2 139 3 150 25 173 l22 24 -19 37 c-10
20 -53 71 -94 113 -127 130 -141 161 -101 226 10 17 22 46 26 64 8 35 19 56
74 139 24 36 41 51 56 51 18 0 24 7 29 38 9 60 44 102 126 150 41 24 96 57
123 73 48 29 51 27 47 -20 -3 -41 11 -131 21 -131 5 0 26 16 46 35 56 53 71
45 106 -51 21 -59 36 -85 53 -95 15 -8 28 -9 33 -3 17 17 21 234 5 294 -40
155 3 832 59 935 9 17 17 36 17 43 0 7 8 29 18 50 35 71 5 163 -32 97 -23 -42
-68 -95 -81 -95 -7 0 -15 7 -19 15 -8 23 -23 18 -59 -18 -17 -18 -70 -52 -117
-75 -126 -62 -158 -93 -177 -172 -8 -36 -15 -80 -14 -97 0 -18 1 -43 1 -55 1
-13 -4 -54 -11 -91 -14 -83 -3 -117 36 -117 14 0 25 6 25 13 0 8 9 22 20 32
19 17 21 17 39 1 10 -10 26 -16 34 -14 19 4 20 -3 12 -68 -4 -31 -2 -61 6 -77
10 -21 9 -32 -5 -61 -10 -21 -16 -60 -16 -101 0 -60 -2 -66 -17 -60 -10 4 -26
10 -35 12 -10 3 -18 12 -18 20 0 8 -16 31 -34 49 -42 42 -51 67 -31 84 18 15
20 40 3 40 -7 0 -24 3 -37 7 -22 6 -23 4 -17 -20 3 -15 0 -37 -8 -54 -8 -15
-18 -37 -21 -47 -5 -18 -7 -18 -31 5 -14 13 -35 42 -46 63 -11 22 -27 46 -34
54 -8 7 -14 22 -14 32 0 11 -9 34 -20 52 -11 18 -20 40 -20 49 0 9 -6 29 -14
44 -14 27 -9 54 15 90 3 6 12 28 19 49 13 42 157 200 191 211 28 9 23 30 -15
72 -18 21 -52 69 -75 106 -23 38 -46 74 -51 80 -5 7 -22 28 -38 47 -16 19 -45
60 -64 90 -20 30 -49 68 -67 84 -17 17 -31 36 -31 44 0 10 -6 12 -22 7 -43
-14 -98 -17 -111 -7 -32 27 -137 71 -192 81 -174 32 -796 50 -900 26z m294
-238 c29 -2 38 -22 20 -43 -9 -11 -25 -14 -63 -9 -40 4 -56 2 -74 -13 -28 -22
-31 -46 -12 -101 8 -26 10 -45 4 -49 -5 -4 -17 -24 -27 -46 -17 -36 -20 -38
-53 -33 -40 7 -77 -7 -112 -42 -19 -19 -23 -30 -17 -57 5 -29 3 -34 -13 -34
-22 0 -48 -27 -54 -55 -5 -31 -46 -32 -58 -1 -13 35 -59 39 -93 8 -19 -17 -37
-8 -19 10 7 7 12 19 12 28 0 9 14 29 30 45 17 16 30 34 30 40 0 18 32 43 60
47 13 1 29 12 35 24 12 25 78 84 94 84 10 0 38 45 62 103 14 34 24 34 54 1 13
-14 29 -23 35 -19 8 5 5 13 -9 26 -12 11 -21 26 -21 33 0 29 101 71 145 59 11
-3 31 -6 44 -6z m135 -92 c3 -8 1 -27 -4 -41 -9 -22 -13 -24 -25 -14 -15 13
-20 51 -8 63 11 12 31 8 37 -8z m442 -13 c17 -14 84 -33 94 -27 6 3 24 -4 41
-16 26 -19 34 -20 54 -9 20 11 30 10 60 -4 32 -15 36 -21 30 -43 -4 -17 0 -32
11 -44 17 -19 17 -20 -4 -35 -32 -22 -27 -41 18 -64 l40 -20 0 -69 c0 -37 -3
-71 -7 -75 -5 -4 -8 -31 -9 -60 -1 -67 -22 -146 -40 -146 -8 0 -14 8 -14 18 0
53 -104 150 -170 159 -43 6 -52 18 -20 28 21 7 50 53 50 78 0 17 -46 37 -75
34 -15 -1 -19 3 -17 17 4 23 -16 38 -41 30 -12 -4 -25 3 -38 20 -11 14 -31 26
-43 26 -14 0 -28 10 -36 25 -11 21 -11 30 6 66 25 56 71 119 87 119 7 0 17 -4
23 -8z m-146 -182 c0 -5 -7 -10 -15 -10 -8 0 -15 5 -15 10 0 6 7 10 15 10 8 0
15 -4 15 -10z m-220 -216 c6 -14 24 -42 41 -64 25 -31 31 -49 33 -95 2 -42 8
-59 23 -70 10 -7 32 -34 47 -58 30 -47 93 -86 117 -72 6 5 28 9 47 11 38 3 54
18 50 49 -2 13 -12 21 -28 23 -73 8 -84 19 -56 58 12 15 17 17 27 7 13 -13 81
-18 92 -7 3 4 2 15 -4 26 -10 19 -8 20 60 17 46 -3 75 1 83 9 6 6 22 12 35 12
19 0 23 -5 23 -34 0 -37 34 -88 54 -80 7 3 18 -2 25 -10 11 -13 7 -21 -23 -52
-20 -21 -35 -44 -34 -53 2 -11 -7 -16 -37 -18 -153 -9 -187 -30 -184 -110 2
-55 -16 -130 -38 -155 -13 -14 -13 -20 2 -48 21 -40 6 -63 -23 -37 -18 17 -19
16 -25 -35 -11 -89 -8 -223 5 -236 9 -9 7 -20 -9 -49 -45 -83 -38 -109 32
-115 33 -2 41 -7 43 -25 3 -20 -1 -23 -31 -23 -38 0 -56 -17 -77 -69 -12 -30
-12 -35 5 -48 11 -7 25 -11 31 -9 7 3 20 -1 30 -8 16 -12 13 -16 -38 -40 -70
-33 -83 -48 -68 -75 6 -12 15 -21 20 -21 6 0 10 -4 10 -10 0 -5 -9 -10 -20
-10 -33 0 -61 -57 -54 -107 5 -34 3 -44 -10 -49 -22 -8 -40 9 -89 81 -22 33
-74 95 -115 137 -75 77 -88 108 -33 75 32 -18 55 -21 113 -11 54 9 100 72 96
132 -1 29 3 46 12 52 12 8 12 14 -2 43 -9 18 -14 45 -11 60 4 21 0 29 -21 38
-23 11 -33 8 -81 -16 -64 -32 -85 -28 -85 15 0 24 4 30 23 30 12 0 44 7 71 15
63 19 61 20 75 -12 l13 -27 18 24 c10 14 22 51 25 83 4 36 13 61 21 64 16 6
19 40 4 45 -6 2 -13 21 -17 43 -6 41 -37 85 -59 85 -7 0 -16 9 -19 20 -3 11
-13 20 -21 20 -19 0 -18 -10 5 -34 31 -33 31 -68 0 -105 -19 -23 -20 -23 -39
-6 -18 16 -22 17 -37 3 -29 -24 -68 -29 -107 -13 -25 11 -52 13 -88 9 -46 -5
-56 -3 -72 15 -27 30 -15 67 29 81 43 14 49 45 8 36 -16 -3 -56 -7 -90 -9 -48
-1 -66 2 -80 15 -16 17 -18 17 -41 -5 -13 -12 -36 -22 -50 -22 l-27 0 -2 -125
c-2 -69 2 -145 8 -170 20 -87 31 -125 41 -143 7 -14 4 -26 -8 -44 -15 -24 -15
-27 0 -35 20 -11 20 -24 0 -32 -10 -4 -26 3 -42 19 -22 23 -24 28 -13 49 10
18 10 29 2 45 -7 12 -9 26 -6 31 3 5 -1 25 -9 45 -15 35 -17 86 -13 295 2 97
5 119 22 142 11 15 29 30 39 34 30 10 116 95 116 115 0 34 13 50 63 75 36 19
71 27 126 30 42 3 86 7 98 10 24 5 55 32 49 43 -5 7 -78 7 -116 -2 -14 -3 -51
-10 -82 -17 -31 -6 -75 -20 -97 -31 -82 -39 -94 -19 -21 37 28 21 50 41 50 45
0 14 -33 19 -47 8 -27 -23 -21 -3 18 55 21 32 39 65 39 73 0 28 30 71 72 104
24 19 49 40 57 47 11 11 17 10 37 -3 23 -15 25 -14 35 9 11 23 25 32 57 35 7
0 17 -10 22 -25z m-575 -78 c0 -22 -14 -29 -34 -17 -19 12 -6 43 16 39 10 -2
18 -12 18 -22z m1040 -21 c0 -13 -8 -21 -24 -23 -32 -5 -48 12 -31 33 18 22
55 15 55 -10z m-1155 -81 c45 -45 45 -46 98 -40 l52 6 0 -33 c0 -46 21 -73 45
-59 15 8 24 4 47 -18 l28 -28 -26 -50 c-26 -51 -73 -88 -81 -64 -3 6 -14 12
-25 12 -15 0 -19 5 -15 19 6 24 -16 57 -53 79 -14 10 -48 44 -75 77 -26 33
-50 62 -52 64 -2 3 -17 -3 -34 -13 -39 -23 -57 -10 -51 39 5 43 17 53 32 25
15 -28 30 -25 30 5 0 39 30 31 80 -21z m78 14 c-3 -7 -11 -13 -18 -13 -7 0
-15 6 -17 13 -3 7 4 12 17 12 13 0 20 -5 18 -12z m340 -864 c24 -17 32 -74 9
-74 -19 0 -87 59 -87 76 0 19 49 18 78 -2z m-201 -278 c4 -8 17 -16 28 -18 13
-2 20 -11 19 -26 0 -19 4 -22 42 -22 30 0 44 5 48 16 6 16 8 16 24 0 23 -20
41 -20 66 -1 25 19 56 19 56 1 0 -12 -60 -66 -74 -66 -13 0 -107 -74 -117 -91
-26 -49 -187 -127 -204 -99 -3 5 -15 10 -27 10 -11 0 -38 18 -60 40 l-40 40 5
70 c3 39 8 74 11 78 11 10 23 -16 30 -62 12 -75 25 -103 56 -116 21 -9 33 -9
49 0 12 6 26 8 31 5 15 -9 62 6 57 19 -2 6 -1 37 2 68 7 55 6 59 -26 93 -38
42 -39 43 -15 61 22 17 29 17 39 0z m355 -136 c11 0 18 -5 16 -12 -5 -13 -116
-30 -132 -21 -18 12 39 44 68 38 16 -3 37 -5 48 -5z m788 -96 c0 -9 -7 -41
-16 -72 -51 -182 -93 -260 -190 -351 -102 -97 -203 -159 -308 -188 -82 -22
-270 -34 -366 -23 -210 25 -433 139 -490 251 -11 21 -20 41 -20 44 0 12 40 3
83 -20 26 -13 69 -36 95 -50 26 -14 63 -25 82 -25 19 0 49 -9 65 -20 33 -22
81 -26 119 -9 37 17 198 -3 211 -27 24 -42 56 -66 78 -59 12 4 48 7 80 6 61
-2 87 9 87 38 0 20 82 81 109 81 38 0 208 152 241 216 8 16 36 63 62 104 27
41 48 82 48 91 0 9 3 19 7 22 11 12 23 7 23 -9z m-1243 -148 c4 -8 17 -15 28
-18 17 -3 20 -11 20 -51 0 -26 -3 -47 -7 -47 -14 0 -48 40 -58 66 -19 49 -5
88 17 50z m820 8 c-3 -3 -12 -4 -19 -1 -8 3 -5 6 6 6 11 1 17 -2 13 -5z m-561
-15 c3 -6 -1 -18 -10 -27 -14 -14 -17 -14 -35 3 -11 9 -18 22 -15 26 7 13 52
11 60 -2z m619 -41 c-12 -37 -23 -44 -43 -24 -16 16 -16 18 2 32 30 22 49 18
41 -8z"/>
<path d="M1328 3592 c-26 -16 -39 -50 -20 -53 22 -4 56 -7 135 -13 48 -3 96
-10 105 -15 9 -4 36 -11 60 -15 38 -6 42 -4 42 14 0 11 -4 20 -9 20 -5 0 -32
15 -60 34 -64 44 -105 50 -109 19 -5 -34 -55 -32 -70 2 -13 29 -35 30 -74 7z"/>
<path d="M1706 3591 c-9 -14 4 -40 26 -52 28 -15 35 -3 16 29 -18 30 -33 38
-42 23z"/>
<path d="M1510 3405 c25 -27 53 -34 44 -11 -5 12 -45 36 -61 36 -4 0 4 -11 17
-25z"/>
<path d="M4694 4313 c4 -43 10 -100 13 -128 10 -108 7 -591 -5 -670 -27 -177
-33 -252 -25 -286 9 -34 9 -33 27 36 10 39 21 99 26 135 14 103 39 223 49 233
14 14 18 0 36 -125 16 -113 74 -309 93 -316 12 -4 22 47 22 112 0 53 11 83 27
73 12 -8 44 12 107 67 l56 50 0 257 c0 202 -3 260 -13 266 -7 4 -33 39 -57 76
-27 40 -66 84 -98 107 -70 53 -87 53 -57 0 19 -33 19 -71 0 -96 -8 -10 -15
-35 -15 -55 0 -41 -26 -72 -40 -49 -4 7 -11 34 -15 59 -18 126 -98 331 -129
331 -5 0 -6 -31 -2 -77z"/>
<path d="M3380 4219 c-43 -18 -89 -71 -110 -126 -28 -75 -26 -100 11 -134 35
-33 66 -36 164 -18 33 6 74 12 90 13 30 1 131 58 137 77 2 6 1 39 -2 74 -4 53
-10 69 -35 95 -25 26 -35 30 -60 26 -35 -7 -33 -7 -110 -1 -33 3 -71 0 -85 -6z
m53 -85 c11 -11 -5 -34 -23 -34 -22 0 -34 15 -25 30 7 11 38 14 48 4z"/>
<path d="M4237 4160 c-66 -58 -88 -167 -37 -180 14 -4 39 -19 55 -34 16 -14
40 -29 54 -32 14 -3 51 -15 81 -26 30 -11 71 -22 90 -25 31 -4 38 0 64 32 27
35 28 41 22 104 -13 119 -53 160 -173 172 -43 4 -88 10 -99 14 -16 5 -31 -2
-57 -25z m153 -93 c0 -14 -20 -37 -32 -37 -13 0 -9 38 5 43 21 9 27 7 27 -6z
m70 -13 c0 -16 -16 -19 -25 -4 -8 13 4 32 16 25 5 -4 9 -13 9 -21z"/>
<path d="M2433 4014 c-8 -20 5 -158 18 -192 13 -33 38 -62 54 -62 6 0 19 6 29
13 17 12 17 16 2 60 -9 26 -16 62 -16 79 0 36 -20 99 -35 110 -17 13 -45 9
-52 -8z"/>
<path d="M3861 3780 c-52 -12 -113 -61 -149 -120 l-34 -55 5 -110 c3 -65 11
-124 19 -145 32 -74 37 -101 26 -126 -9 -18 -8 -28 0 -36 7 -7 12 -24 12 -40
0 -15 5 -39 12 -53 9 -21 9 -31 0 -46 -7 -10 -12 -28 -12 -39 0 -10 -14 -35
-30 -54 -19 -21 -29 -43 -28 -57 3 -22 -1 -24 -37 -24 -36 0 -40 -3 -45 -30
-4 -22 -12 -31 -28 -33 -49 -7 -90 18 -149 91 -64 79 -73 88 -85 81 -19 -12
10 -150 39 -185 6 -8 16 -34 23 -58 14 -53 69 -142 101 -165 21 -14 24 -14 42
2 18 16 20 16 31 0 12 -16 14 -16 29 0 14 14 20 14 35 4 41 -30 149 -75 177
-74 17 1 76 3 133 4 66 2 102 6 102 13 0 12 75 65 91 65 5 0 9 14 9 30 0 37
21 40 48 5 11 -14 24 -25 30 -25 16 0 23 30 11 52 -10 18 -8 19 17 16 24 -3
30 4 60 60 19 35 34 67 34 71 0 4 -29 7 -65 7 -72 -1 -90 11 -80 52 3 12 -1
35 -8 50 -7 15 -12 41 -11 57 3 43 -14 82 -38 88 -18 5 -20 11 -14 44 4 21 13
43 19 48 40 34 47 51 36 84 -8 23 -8 35 1 46 6 8 9 23 5 35 -5 15 -1 22 19 30
18 6 26 17 26 33 0 13 4 27 9 33 17 17 30 130 20 168 -14 51 -81 148 -115 167
-60 33 -221 55 -293 39z m168 -52 c61 2 101 -17 101 -48 0 -25 -19 -30 -121
-27 -63 2 -93 8 -113 21 -30 19 -30 20 11 47 17 11 36 15 48 12 11 -4 45 -6
74 -5z m108 -820 c30 -28 29 -45 -8 -118 -32 -64 -56 -78 -107 -65 -15 3 -37
7 -49 7 -12 0 -24 7 -28 15 -5 14 -7 14 -23 0 -15 -14 -23 -14 -55 -3 -21 7
-43 18 -49 24 -7 7 -17 3 -33 -16 -23 -26 -23 -27 -44 -8 -12 11 -21 29 -21
41 0 13 -7 25 -15 29 -25 9 -18 50 12 63 15 8 31 9 37 4 6 -5 45 -12 86 -15
93 -8 100 -8 180 1 61 8 65 10 68 36 4 33 18 34 49 5z m-313 -214 c22 -9 10
-24 -20 -24 -15 0 -24 6 -24 15 0 16 17 19 44 9z"/>
<path d="M3870 2780 c0 -5 5 -10 10 -10 6 0 10 5 10 10 0 6 -4 10 -10 10 -5 0
-10 -4 -10 -10z"/>
<path d="M2966 3074 c-11 -29 -6 -53 17 -80 26 -30 57 -28 57 3 0 21 -46 93
-59 93 -5 0 -12 -7 -15 -16z"/>
<path d="M5080 3032 c-27 -18 -43 -22 -72 -18 -33 5 -43 1 -90 -37 -29 -24
-58 -53 -64 -65 -6 -13 -20 -33 -31 -45 -11 -12 -27 -34 -37 -50 -9 -15 -34
-40 -55 -55 -35 -26 -171 -173 -171 -186 0 -4 -30 -48 -67 -99 -76 -105 -112
-183 -113 -244 0 -24 -11 -62 -25 -91 -28 -56 -30 -73 -13 -90 8 -8 -3 -27
-46 -76 -95 -109 -140 -151 -173 -165 -31 -13 -55 -53 -46 -78 7 -21 28 -15
83 22 29 19 55 35 59 35 3 0 17 9 31 20 14 11 30 20 36 20 7 0 17 -34 23 -80
17 -112 32 -152 65 -169 41 -19 51 -2 27 45 -10 21 -22 59 -26 84 -4 25 -14
58 -22 73 -13 25 -13 33 1 68 9 22 16 52 16 67 0 17 11 37 30 56 l31 28 37
-43 c63 -74 113 -120 209 -191 51 -38 100 -79 108 -91 49 -69 81 -126 96 -171
23 -66 46 -68 76 -6 16 35 24 77 32 185 17 225 41 438 51 463 16 38 35 20 40
-39 3 -30 13 -67 22 -84 17 -30 17 -29 18 69 l0 98 -25 -4 c-35 -7 -51 14 -36
50 9 22 9 35 1 54 -9 19 -9 31 -1 46 6 11 14 46 17 78 4 33 15 77 26 100 17
36 18 63 16 290 l-3 250 -35 -24z m-162 -783 c4 -24 -27 -89 -43 -89 -21 0
-19 55 3 85 18 26 35 27 40 4z"/>
<path d="M2851 2976 c-15 -18 -7 -47 19 -71 18 -17 19 -16 25 8 15 58 -14 99
-44 63z"/>
<path d="M2845 2840 c-10 -11 -26 -20 -35 -20 -10 0 -23 -7 -30 -15 -11 -13
-10 -18 3 -28 9 -7 17 -33 20 -67 6 -71 39 -213 53 -231 7 -8 15 -25 19 -39 4
-14 15 -36 25 -50 9 -14 23 -43 30 -65 7 -22 16 -44 20 -50 4 -5 11 -21 15
-34 10 -34 118 -192 180 -266 51 -60 53 -64 50 -116 -1 -30 -6 -62 -10 -73 -6
-14 -5 -18 5 -14 8 2 20 23 28 46 7 23 20 42 27 42 14 0 146 -87 157 -104 12
-18 -2 -26 -50 -26 -61 -1 -121 -15 -139 -33 -11 -11 -13 -26 -8 -61 10 -62
36 -86 91 -86 63 0 194 -21 194 -31 0 -5 17 -9 38 -9 34 0 39 3 49 33 6 17 14
47 18 64 6 32 8 33 48 27 23 -4 46 -10 51 -14 11 -11 -12 -106 -30 -124 -11
-12 -10 -16 5 -30 22 -20 35 -20 51 -1 7 8 23 15 35 15 12 0 28 7 35 15 7 8
25 15 41 15 30 0 99 57 112 92 4 12 17 18 35 18 41 0 55 21 47 69 -5 32 -3 41
11 49 15 8 16 14 7 34 -10 22 -21 25 -116 37 -57 8 -110 10 -116 6 -14 -8 -41
12 -41 30 0 9 11 12 40 8 53 -7 53 13 0 50 -45 32 -46 33 -24 128 15 68 13
119 -5 119 -20 0 -72 -54 -87 -88 -8 -20 -39 -68 -69 -108 -43 -58 -59 -71
-82 -72 -130 -4 -141 0 -222 69 -54 46 -118 156 -108 184 4 8 -6 29 -20 46
-19 22 -29 49 -35 91 -7 49 -19 76 -73 158 -36 54 -65 102 -65 107 0 5 -20 29
-45 53 -25 24 -45 51 -45 60 0 25 -29 60 -51 60 -13 0 -19 7 -20 23 -2 48 4
73 22 93 19 20 17 34 -6 34 -7 0 -20 -9 -30 -20z m645 -1029 c0 -11 5 -23 10
-26 6 -4 8 -11 4 -16 -7 -13 -54 29 -54 48 0 7 9 13 20 13 13 0 20 -7 20 -19z
m210 -71 c0 -57 -4 -80 -12 -80 -13 0 -68 62 -68 77 0 18 52 83 65 83 12 0 15
-16 15 -80z m190 1 c0 -18 -44 -41 -79 -41 -28 0 -33 3 -23 13 25 24 102 45
102 28z m-343 -46 c3 -11 -57 -15 -97 -7 -22 5 -23 6 -5 12 28 10 99 6 102 -5z"/>
<path d="M3841 2446 c-8 -9 -12 -18 -10 -19 47 -31 104 -32 116 -1 8 20 3 23
-48 30 -35 5 -48 2 -58 -10z"/>
<path d="M5106 1612 c-2 -4 -11 -35 -20 -67 -17 -71 -41 -143 -68 -204 -12
-27 -25 -96 -34 -179 -7 -75 -21 -162 -29 -195 -8 -33 -15 -102 -15 -157 0
-114 -4 -110 106 -110 l74 0 0 460 c0 253 -2 460 -4 460 -3 0 -7 -4 -10 -8z"/>
<path d="M3167 1543 c-4 -3 -7 -11 -7 -17 0 -6 5 -5 12 2 6 6 9 14 7 17 -3 3
-9 2 -12 -2z"/>
<path d="M3596 1493 c-3 -3 -3 -10 0 -14 7 -12 34 -11 34 0 0 11 -26 22 -34
14z"/>
<path d="M4265 1370 c-3 -5 -1 -10 4 -10 6 0 11 5 11 10 0 6 -2 10 -4 10 -3 0
-8 -4 -11 -10z"/>
<path d="M1260 465 c-19 -23 5 -45 51 -45 45 0 41 13 39 -156 -1 -92 1 -113
15 -124 12 -10 21 -11 33 -3 14 8 18 34 22 144 l5 134 45 5 c40 4 45 8 45 30
l0 25 -121 3 c-99 2 -123 0 -134 -13z"/>
<path d="M1567 473 c-4 -3 -7 -77 -7 -163 0 -132 3 -160 16 -171 29 -24 48 1
54 72 4 52 8 64 23 67 23 5 60 -29 92 -85 14 -23 35 -47 46 -53 22 -12 59 -5
59 12 0 14 -38 77 -63 105 l-20 22 37 34 c40 38 46 69 22 116 -8 15 -26 32
-41 39 -27 13 -207 17 -218 5z m193 -72 c22 -42 -11 -65 -86 -59 -37 3 -39 5
-42 41 l-3 37 60 0 c49 0 62 -4 71 -19z"/>
<path d="M1915 470 c-11 -18 -9 -243 3 -272 26 -64 139 -90 208 -48 42 27 57
87 52 225 l-3 100 -30 0 -30 0 -5 -128 c-5 -141 -13 -157 -70 -157 -52 0 -64
29 -70 164 -5 114 -6 121 -27 124 -11 2 -24 -2 -28 -8z"/>
<path d="M2257 473 c-4 -3 -7 -79 -7 -169 0 -120 3 -163 13 -166 6 -3 59 -3
117 -1 58 1 111 3 118 3 8 0 12 9 10 22 -3 21 -9 23 -93 28 l-90 5 0 45 0 45
80 5 c74 5 80 7 83 28 4 24 4 24 -78 27 -97 4 -92 2 -88 38 l3 32 82 3 c88 3
117 18 93 47 -10 12 -37 15 -125 15 -61 0 -115 -3 -118 -7z"/>
<path d="M2577 473 c-4 -3 -7 -79 -7 -169 0 -146 2 -162 18 -166 9 -2 63 -2
120 1 95 6 105 8 122 31 27 35 26 94 -2 120 -21 20 -21 21 -4 56 21 46 14 87
-21 114 -22 17 -41 20 -123 20 -53 0 -100 -3 -103 -7z m187 -75 c20 -33 -4
-53 -65 -53 -49 0 -54 2 -57 23 -7 45 4 53 59 50 36 -2 55 -8 63 -20z m-3
-128 c25 -14 25 -56 -1 -70 -12 -6 -42 -10 -68 -8 -43 3 -47 5 -50 31 -6 48 3
57 53 57 26 0 55 -5 66 -10z"/>
<path d="M2922 468 c-8 -8 -12 -59 -12 -165 0 -140 2 -153 19 -163 37 -19 51
-3 51 59 0 70 9 86 44 77 16 -4 40 -28 66 -66 50 -73 77 -91 109 -71 11 7 10
16 -9 47 -13 22 -34 51 -48 66 l-25 27 37 34 c48 45 50 94 7 138 -29 28 -32
29 -128 29 -64 0 -103 -4 -111 -12z m186 -60 c18 -18 14 -46 -7 -58 -11 -5
-40 -10 -65 -10 -48 0 -64 19 -51 60 5 17 15 20 59 20 28 0 57 -5 64 -12z"/>
<path d="M3267 473 c-4 -3 -7 -80 -7 -170 0 -148 2 -163 18 -164 15 -1 199 -1
230 1 6 0 12 11 12 25 0 24 -2 24 -92 27 l-93 3 0 45 0 45 80 5 c68 4 80 8 83
24 6 28 -16 36 -84 31 -72 -4 -87 3 -82 41 l3 29 82 3 c84 3 109 15 97 46 -5
13 -24 16 -123 16 -65 0 -121 -3 -124 -7z"/>
<path d="M3587 473 c-4 -3 -7 -79 -7 -169 0 -121 3 -164 13 -167 25 -9 183 6
205 20 42 26 62 72 62 144 0 136 -43 179 -181 179 -47 0 -89 -3 -92 -7z m177
-74 c24 -18 26 -27 26 -89 0 -90 -17 -113 -86 -114 l-49 -1 -3 99 c-1 55 0
106 2 113 8 21 79 16 110 -8z"/>
</g>
</svg>
