<?xml version="1.0" standalone="no"?>
<!DOCTYPE svg PUBLIC "-//W3C//DTD SVG 20010904//EN"
 "http://www.w3.org/TR/2001/REC-SVG-20010904/DTD/svg10.dtd">
<svg version="1.0" xmlns="http://www.w3.org/2000/svg"
 width="639.000000pt" height="641.000000pt" viewBox="0 0 639.000000 641.000000"
 preserveAspectRatio="xMidYMid meet">
<metadata>
Created by potrace 1.15, written by Peter Selinger 2001-2017
</metadata>
<g transform="translate(0.000000,641.000000) scale(0.100000,-0.100000)"
fill="#000000" stroke="none">
<path d="M3193 6392 l-3183 -2 0 -3179 c0 -1749 -3 -3186 -6 -3195 -4 -11 -1
-16 11 -16 9 0 13 4 10 10 -6 9 6141 5 6295 -4 l65 -4 -3 3196 c-1 1757 -3
3196 -5 3196 -1 1 -1434 0 -3184 -2z m1348 -331 l29 -29 0 -1372 0 -1372 -29
-29 -29 -29 -611 0 -611 0 0 -611 0 -611 -34 -34 -34 -34 -1295 0 c-799 0
-1305 4 -1321 10 -14 5 -33 21 -43 37 -17 26 -18 99 -23 1389 -3 749 -2 1360
3 1357 4 -2 7 0 7 5 0 5 12 21 26 36 l27 26 613 0 614 0 2 616 3 616 33 29 32
29 1306 0 1306 0 29 -29z m-4014 -3364 c-1 -370 -2 -64 -2 678 0 743 1 1045 2
672 2 -373 2 -981 0 -1350z m4222 472 c71 -16 182 -72 244 -124 55 -46 139
-158 165 -220 l12 -30 108 0 c103 0 110 -2 184 -37 81 -38 142 -91 187 -163
16 -25 31 -41 35 -38 4 4 4 -1 0 -11 -6 -15 -4 -17 6 -11 8 5 11 4 6 -3 -4 -6
-4 -23 0 -37 4 -15 9 -22 13 -17 3 6 6 -45 6 -113 0 -68 -3 -119 -6 -113 -4 5
-9 -2 -13 -17 -4 -14 -4 -31 0 -37 4 -6 3 -8 -4 -4 -6 3 -13 -3 -17 -14 -14
-45 -98 -142 -152 -177 -120 -77 -69 -73 -1057 -73 l-883 0 -61 31 c-122 61
-187 199 -153 326 26 97 127 196 213 210 l40 6 -5 40 c-4 29 -3 37 4 26 8 -10
9 -7 6 13 -2 17 0 25 6 21 6 -4 8 0 4 11 -5 11 -3 15 5 10 8 -5 9 -2 5 10 -5
11 -3 15 5 10 8 -5 9 -1 4 12 -4 10 -4 15 0 12 4 -4 19 10 35 31 71 99 206
154 321 133 38 -7 48 -6 52 5 4 8 3 20 -1 25 -4 7 -1 8 7 3 10 -6 12 -4 7 8
-4 10 -2 16 6 14 7 -1 11 6 11 16 -1 10 0 16 3 13 3 -3 23 17 44 45 75 94 194
172 311 203 62 17 234 20 297 5z m-2599 -1966 c0 -313 3 -585 6 -606 l7 -37
-112 0 -111 0 0 605 0 605 105 0 105 0 0 -567z m1170 172 l0 -344 63 67 c34
37 116 125 181 195 l119 127 86 0 86 0 -3 115 -3 115 414 0 415 0 -2 -24 c0
-13 -4 -22 -7 -20 -9 5 -212 -417 -263 -547 -70 -179 -87 -250 -93 -381 l-6
-118 -130 0 -129 0 7 58 c3 31 11 74 16 96 6 21 8 50 4 65 -4 21 -3 23 6 11 8
-12 9 -7 5 20 -4 21 -3 30 3 22 11 -18 24 31 16 61 -4 14 -3 17 2 10 11 -16
67 152 57 169 -4 7 -3 10 1 6 5 -5 29 43 55 105 26 62 65 145 88 184 23 39 42
74 42 77 0 8 -442 -6 -465 -15 -17 -7 -16 -8 8 -8 15 -1 27 -6 27 -12 0 -7
-36 -49 -80 -95 -44 -46 -79 -89 -78 -96 2 -7 -2 -12 -8 -11 -6 1 -41 -28 -77
-65 l-67 -67 65 -90 c36 -50 71 -90 78 -90 7 0 12 -9 12 -20 0 -13 6 -19 15
-17 8 2 12 0 8 -3 -11 -11 11 -47 24 -39 7 4 8 3 4 -4 -8 -14 12 -55 23 -47 5
2 8 -3 7 -13 0 -9 4 -16 11 -15 7 2 10 -3 8 -10 -3 -6 20 -45 50 -85 30 -40
55 -76 55 -80 0 -4 -59 -7 -131 -7 -119 0 -132 2 -145 20 -9 11 -19 19 -24 18
-4 -1 -7 5 -6 15 0 9 -4 16 -10 15 -7 -1 -11 5 -10 15 0 9 -4 16 -11 15 -7 -2
-10 3 -7 11 3 7 -3 19 -12 27 -15 12 -17 12 -9 0 5 -9 4 -12 -3 -7 -6 4 -9 13
-6 20 3 8 0 17 -7 22 -8 5 -10 3 -4 -7 5 -8 4 -11 -1 -6 -5 5 -9 16 -9 25 0 9
-5 16 -11 15 -7 -1 -11 5 -10 15 0 9 -5 16 -12 14 -8 -1 -11 2 -7 8 8 13 -53
102 -66 95 -5 -3 -6 2 -3 12 3 10 -29 -18 -71 -62 l-76 -80 3 -98 3 -97 -107
0 -108 0 0 580 0 580 105 0 105 0 0 -345z m-477 17 c123 -61 187 -162 209
-328 32 -251 -121 -478 -349 -514 -56 -9 -173 -1 -214 15 -12 4 -14 -21 -11
-155 l3 -161 -108 3 -108 3 0 580 0 580 105 0 c101 0 105 -1 104 -21 0 -14 4
-20 13 -17 7 3 11 8 9 12 -3 4 3 7 12 8 9 1 35 8 57 17 29 12 64 15 126 13 74
-3 96 -8 152 -35z"/>
<path d="M2030 5345 l0 -545 600 0 601 0 24 -25 c14 -13 25 -29 25 -35 0 -6 3
-9 8 -7 4 3 7 -290 7 -651 l0 -657 5 650 5 650 3 -647 2 -648 520 0 520 0 2
1223 3 1222 5 -1225 5 -1225 3 1232 2 1233 -1170 0 -1170 0 0 -545z m298 176
c3 -19 6 -21 13 -10 7 10 8 6 4 -12 -6 -23 0 -55 37 -193 10 -40 10 -39 44 93
19 73 36 137 40 142 3 5 27 9 53 9 l48 0 40 -147 40 -148 12 56 c6 30 9 64 5
75 -5 16 -4 17 6 4 9 -12 11 -8 6 20 -5 27 -3 31 5 20 8 -11 9 -7 5 20 -5 27
-3 31 5 20 8 -12 10 -9 6 12 -2 15 -1 25 4 23 4 -3 9 5 11 17 2 19 10 24 47
26 73 5 73 6 35 -120 -20 -65 -32 -124 -29 -138 4 -16 2 -20 -3 -12 -12 17
-35 -62 -27 -91 4 -14 3 -18 -3 -9 -6 9 -12 1 -21 -28 l-12 -40 -59 0 c-50 0
-60 3 -60 18 0 15 -2 15 -11 2 -9 -12 -10 -11 -4 5 7 21 -44 219 -54 209 -3
-3 -20 -56 -36 -117 l-30 -112 -57 -3 -57 -3 -30 98 c-16 54 -44 146 -62 205
-18 59 -36 105 -40 102 -4 -2 -5 5 -2 16 5 19 12 21 67 18 56 -3 61 -5 64 -27z
m648 17 c4 -7 22 -71 39 -143 l31 -130 23 83 c12 45 20 93 17 105 -3 12 -3 15
1 7 4 -10 12 2 22 35 l16 50 49 0 c47 0 50 -1 61 -35 8 -24 14 -30 18 -20 4 8
4 5 2 -7 -8 -31 15 -118 27 -101 6 9 7 6 3 -9 -3 -11 0 -43 6 -70 l13 -48 35
145 36 145 53 3 c37 2 52 -1 52 -10 0 -7 -28 -106 -61 -220 l-62 -208 -57 0
-57 0 -32 112 c-33 113 -50 157 -51 129 0 -8 -14 -65 -31 -127 l-31 -114 -58
0 -57 0 -61 209 c-34 115 -62 214 -62 220 0 15 107 14 116 -1z m689 -118 c17
-69 34 -131 36 -139 3 -8 18 34 33 92 52 200 40 178 98 175 l51 -3 34 -120
c18 -66 33 -129 33 -140 0 -39 17 3 40 100 42 180 33 165 95 165 30 0 55 -3
55 -7 -1 -5 -29 -102 -64 -218 l-62 -210 -59 0 -58 0 -34 120 c-18 65 -35 120
-37 122 -2 2 -18 -53 -36 -122 l-33 -125 -58 0 c-35 0 -59 4 -59 11 0 5 -4 7
-10 4 -5 -3 -7 0 -4 8 8 23 -58 230 -68 215 -6 -9 -7 -5 -3 9 3 12 -5 57 -18
102 -14 44 -22 82 -19 86 3 3 31 5 61 3 l55 -3 31 -125z"/>
<path d="M750 3373 l0 -1228 1165 3 1165 2 0 1225 0 1225 -1165 0 -1165 0 0
-1227z m159 520 c5 -21 23 -91 40 -156 29 -117 41 -148 41 -111 1 10 18 82 39
159 l38 140 60 3 61 3 23 -86 c15 -60 25 -82 32 -73 6 9 7 7 2 -7 -6 -20 24
-155 35 -155 3 0 23 72 44 160 l37 160 66 0 c48 0 64 -3 61 -12 -3 -7 -36
-119 -73 -248 -38 -129 -74 -238 -80 -243 -5 -4 -35 -6 -65 -5 -45 3 -56 7
-66 25 -6 13 -14 20 -19 15 -5 -4 -5 -1 -1 6 4 7 4 26 1 44 -6 23 -9 27 -17
17 -7 -10 -8 -8 -3 8 8 30 -5 79 -17 61 -6 -9 -7 -5 -3 12 6 30 -20 123 -29
100 -3 -8 -20 -71 -37 -140 -18 -69 -37 -131 -42 -137 -5 -8 -32 -13 -62 -13
-30 0 -57 5 -62 13 -5 6 -40 116 -78 242 -37 127 -70 236 -73 243 -3 9 14 12
67 12 l70 0 10 -37z m806 -133 l41 -164 43 167 44 167 61 0 61 0 39 -153 c21
-83 42 -158 46 -165 9 -18 43 133 35 160 -5 19 -4 20 5 8 9 -12 10 -8 6 20 -5
27 -3 31 5 20 8 -11 9 -7 5 20 -5 27 -3 31 5 20 8 -11 9 -7 5 20 -4 25 -3 31
4 20 8 -12 10 -11 10 8 0 20 4 22 63 22 l64 0 -1 -44 c-1 -24 -4 -40 -7 -35
-9 15 -31 -70 -24 -94 5 -16 4 -18 -3 -8 -8 10 -11 6 -17 -17 -3 -18 -3 -37 1
-43 4 -7 3 -9 -3 -6 -6 4 -26 -47 -48 -124 -42 -143 -42 -143 -126 -137 -50 3
-38 -20 -106 207 l-28 93 -39 -145 c-24 -91 -44 -148 -53 -151 -29 -11 -102
-6 -116 9 -8 8 -18 11 -21 7 -4 -3 -4 1 -1 10 9 23 -56 232 -67 216 -6 -9 -7
-5 -3 9 4 13 -7 64 -24 121 -43 138 -44 134 36 130 l67 -3 41 -165z m734 133
c6 -21 23 -94 40 -163 16 -69 31 -118 34 -110 17 44 27 104 22 123 -4 15 -3
18 3 9 12 -18 45 111 37 141 -4 15 -3 18 3 9 7 -11 10 -9 15 7 4 18 13 21 65
21 60 0 61 0 67 -31 6 -24 9 -28 17 -18 7 10 8 8 3 -8 -8 -30 15 -119 27 -101
6 9 7 6 3 -9 -7 -25 25 -158 35 -146 4 4 20 60 35 123 14 63 31 132 36 153
l10 37 60 0 61 0 -7 -36 c-11 -61 -127 -448 -137 -461 -6 -8 -33 -13 -63 -13
-30 0 -57 5 -63 13 -5 6 -20 49 -33 95 -15 55 -25 78 -31 70 -5 -8 -6 -1 -2
16 5 22 4 27 -6 21 -9 -5 -11 -4 -6 4 8 13 -2 71 -12 71 -4 0 -22 -57 -41
-128 -18 -70 -38 -135 -43 -144 -7 -14 -21 -18 -61 -18 -29 0 -57 4 -63 8 -7
5 -105 316 -151 485 -5 15 3 17 65 17 l71 0 10 -37z"/>
<path d="M2568 1226 c-21 -8 -49 -21 -63 -30 l-25 -16 0 -201 c0 -115 4 -198
9 -195 5 3 11 0 14 -8 8 -20 106 -40 160 -32 79 12 144 72 167 155 5 20 10 68
10 107 0 116 -54 196 -151 224 -45 13 -76 12 -121 -4z"/>
</g>
</svg>
