<?xml version="1.0" encoding="utf-8"?>
<!-- Generator: Adobe Illustrator 18.0.0, SVG Export Plug-In . SVG Version: 6.00 Build 0)  -->
<!DOCTYPE svg PUBLIC "-//W3C//DTD SVG 1.1//EN" "http://www.w3.org/Graphics/SVG/1.1/DTD/svg11.dtd">
<svg version="1.1" id="Calque_1" xmlns="http://www.w3.org/2000/svg" xmlns:xlink="http://www.w3.org/1999/xlink" x="0px" y="0px"
	 viewBox="0 0 192 93.301" enable-background="new 0 0 192 93.301" xml:space="preserve">
<g>
	<path fill="#1D1D1B" d="M17.016,56.504V19.83h2.179v36.674H17.016z"/>
	<path fill="#1D1D1B" d="M66.606,55.441c0,0.691-0.319,1.063-1.01,1.063h-2.87c-0.585,0-0.957-0.266-1.222-0.797L45.664,25.73
		c-0.638-1.222-1.382-2.604-1.966-3.933h-1.223c0.053,1.329,0.053,2.658,0.053,3.986v30.721h-2.179V20.893
		c0-0.691,0.372-1.063,1.063-1.063h2.658c0.585,0,1.01,0.266,1.276,0.797l15.414,29.286c0.797,1.435,1.595,3.03,2.392,4.571h1.329
		c0-1.701-0.053-3.348-0.053-4.996V19.83h2.179V55.441z"/>
	<path fill="#1D1D1B" d="M98.655,21.743v34.761h-2.179V21.743H83.879V19.83h27.426v1.913H98.655z"/>
	<path fill="#1D1D1B" d="M128.579,56.504v-19.9h2.179v19.9H128.579z"/>
	<path fill="#1D1D1B" d="M154.358,43.588l-4.518,12.916h-2.286l12.809-35.983c0.159-0.425,0.531-0.691,0.957-0.691h2.976
		c0.425,0,0.797,0.266,0.957,0.691l12.809,35.983h-2.285l-4.518-12.916H154.358z M164.616,24.613l-1.063-2.976h-1.488l-1.063,2.976
		l-5.953,17.062h15.52L164.616,24.613z"/>
	<path fill="#67B4E4" d="M128.579,19.83c3.701,2.098,7.216,4.091,10.819,6.133c-3.601,2.448-7.119,4.839-10.819,7.353
		C128.579,28.778,128.579,24.394,128.579,19.83z"/>
	<g>
		<path fill="#67B4E4" d="M17.822,71.294c-0.045,0.144-0.18,0.252-0.342,0.252h-0.883c-0.162,0-0.297-0.108-0.342-0.252l-1.837-5.96
			h0.928l1.404,4.835c0.063,0.225,0.117,0.459,0.171,0.684h0.243c0.045-0.225,0.108-0.459,0.171-0.684l1.396-4.835h0.928
			L17.822,71.294z"/>
		<path fill="#67B4E4" d="M25.958,68.44c0,2.44-0.647,3.223-2.484,3.223c-1.827,0-2.476-0.783-2.476-3.223
			c0-2.44,0.649-3.223,2.476-3.223C25.311,65.217,25.958,66,25.958,68.44z M21.944,68.44c0,1.836,0.369,2.422,1.53,2.422
			c1.171,0,1.539-0.585,1.539-2.422c0-1.836-0.368-2.422-1.539-2.422C22.313,66.018,21.944,66.604,21.944,68.44z"/>
		<path fill="#67B4E4" d="M28.936,68.629c-0.91-0.252-1.233-0.819-1.233-1.765c0-1.441,0.639-1.638,2.043-1.638
			c0.585,0,1.242,0.036,1.873,0.189l-0.055,0.657c-0.522-0.018-1.197-0.045-1.782-0.045c-0.846,0-1.17,0.036-1.17,0.864
			c0,0.639,0.225,0.81,0.747,0.945l1.233,0.342c0.963,0.261,1.26,0.837,1.26,1.765c0,1.432-0.621,1.71-2.115,1.71
			c-0.396,0-1.089-0.018-1.953-0.18l0.063-0.666c1.125,0.036,1.44,0.045,1.908,0.045c0.91-0.009,1.18-0.144,1.18-0.918
			c0-0.675-0.234-0.819-0.738-0.955L28.936,68.629z"/>
		<path fill="#67B4E4" d="M37.982,66.091c-0.414,0-0.576,0.153-0.576,0.576v1.341h2.538v0.729h-2.538v2.809h-0.9v-5.068
			c0-0.738,0.486-1.162,1.251-1.162c0.864,0,1.783,0,2.575,0.081l-0.045,0.693H37.982z"/>
		<path fill="#67B4E4" d="M42.499,69.674l-0.576,1.873h-0.918l1.944-5.969c0.045-0.153,0.171-0.243,0.333-0.243h0.919
			c0.152,0,0.288,0.09,0.324,0.243l1.953,5.969h-0.928l-0.576-1.873H42.499z M44.012,66.532c-0.045-0.162-0.108-0.342-0.153-0.504
			h-0.243l-0.144,0.504l-0.729,2.359h1.999L44.012,66.532z"/>
		<path fill="#67B4E4" d="M52.084,71.438c-0.53,0.153-1.017,0.216-1.845,0.216c-1.81,0-2.458-0.846-2.458-3.214
			c0-2.368,0.648-3.214,2.458-3.214c0.792,0,1.197,0.054,1.719,0.18l-0.09,0.693c-0.54-0.054-0.9-0.072-1.629-0.072
			c-1.144,0-1.513,0.585-1.513,2.413c0,1.828,0.369,2.413,1.513,2.413c0.773,0,1.251-0.018,1.755-0.099L52.084,71.438z"/>
		<path fill="#67B4E4" d="M56.215,66.136v5.411h-0.909v-5.411h-1.954v-0.801h4.835v0.801H56.215z"/>
		<path fill="#67B4E4" d="M64.414,69.152c0,1.818-0.603,2.512-2.25,2.512c-1.702,0-2.323-0.693-2.323-2.512v-3.817h0.9v3.817
			c0,1.278,0.352,1.71,1.387,1.71c1.018,0,1.387-0.432,1.387-1.71v-3.817h0.899V69.152z"/>
		<path fill="#67B4E4" d="M70.102,71.546l-0.531-1.935c-0.144-0.45-0.387-0.621-0.783-0.621l-1.278-0.009v2.566h-0.892v-6.212
			c0.685-0.072,1.152-0.081,2.17-0.081c1.459,0,2.053,0.405,2.053,1.801c0,0.981-0.315,1.476-1.144,1.584v0.045
			c0.307,0.09,0.648,0.36,0.783,0.9l0.585,1.962H70.102z M68.77,68.215c0.873-0.009,1.161-0.252,1.161-1.107
			c0-0.855-0.288-1.08-1.161-1.08c-0.486,0-0.919,0-1.261,0.009v2.179H68.77z"/>
		<path fill="#67B4E4" d="M76.798,71.492c-0.819,0.072-1.773,0.072-2.665,0.072c-0.773,0-1.242-0.432-1.251-1.116v-4.015
			c0.009-0.685,0.486-1.117,1.251-1.117c0.892,0,1.846,0,2.665,0.072l-0.045,0.702h-2.467c-0.36,0-0.495,0.153-0.495,0.576v1.242
			h2.62v0.729h-2.62v1.585c0,0.423,0.135,0.576,0.495,0.576h2.467L76.798,71.492z"/>
		<path fill="#67B4E4" d="M79.687,68.629c-0.91-0.252-1.233-0.819-1.233-1.765c0-1.441,0.639-1.638,2.043-1.638
			c0.585,0,1.242,0.036,1.873,0.189l-0.055,0.657c-0.521-0.018-1.197-0.045-1.782-0.045c-0.846,0-1.17,0.036-1.17,0.864
			c0,0.639,0.225,0.81,0.747,0.945l1.233,0.342c0.963,0.261,1.26,0.837,1.26,1.765c0,1.432-0.621,1.71-2.115,1.71
			c-0.396,0-1.089-0.018-1.953-0.18l0.063-0.666c1.125,0.036,1.44,0.045,1.908,0.045c0.91-0.009,1.18-0.144,1.18-0.918
			c0-0.675-0.234-0.819-0.738-0.955L79.687,68.629z"/>
		<path fill="#67B4E4" d="M91.134,71.492c-0.819,0.072-1.773,0.072-2.665,0.072c-0.773,0-1.242-0.432-1.251-1.116v-4.015
			c0.009-0.685,0.486-1.117,1.251-1.117c0.892,0,1.846,0,2.665,0.072l-0.045,0.702h-2.467c-0.36,0-0.495,0.153-0.495,0.576v1.242
			h2.62v0.729h-2.62v1.585c0,0.423,0.135,0.576,0.495,0.576h2.467L91.134,71.492z"/>
		<path fill="#67B4E4" d="M97.93,71.195c0,0.234-0.117,0.351-0.334,0.351h-0.854c-0.198,0-0.307-0.09-0.388-0.279l-1.936-4.231
			c-0.107-0.234-0.297-0.603-0.369-0.864h-0.126c0.036,0.288,0.045,0.585,0.045,0.864v4.51h-0.9v-5.861
			c0-0.234,0.126-0.351,0.343-0.351h0.828c0.198,0,0.306,0.09,0.396,0.279l1.882,4.123c0.117,0.252,0.297,0.612,0.433,0.927h0.135
			c-0.027-0.324-0.045-0.639-0.045-0.963v-4.366h0.892V71.195z"/>
		<path fill="#67B4E4" d="M107.658,68.44c0,2.44-0.648,3.223-2.485,3.223c-1.827,0-2.484-0.783-2.484-3.223
			c0-2.44,0.657-3.223,2.484-3.223C107.01,65.217,107.658,66,107.658,68.44z M103.643,68.44c0,1.836,0.369,2.422,1.53,2.422
			c1.161,0,1.54-0.585,1.54-2.422c0-1.836-0.379-2.422-1.54-2.422C104.012,66.018,103.643,66.604,103.643,68.44z M104.795,71.915
			c0.738,0.288,1.558,0.486,2.458,0.612l-0.288,0.9c-0.964-0.207-1.747-0.585-2.413-0.963L104.795,71.915z"/>
		<path fill="#67B4E4" d="M114.219,69.152c0,1.818-0.603,2.512-2.25,2.512c-1.702,0-2.323-0.693-2.323-2.512v-3.817h0.9v3.817
			c0,1.278,0.352,1.71,1.387,1.71c1.018,0,1.387-0.432,1.387-1.71v-3.817h0.899V69.152z"/>
		<path fill="#67B4E4" d="M120.285,71.492c-0.819,0.072-1.773,0.072-2.665,0.072c-0.773,0-1.242-0.432-1.251-1.116v-4.015
			c0.009-0.685,0.486-1.117,1.251-1.117c0.892,0,1.846,0,2.665,0.072l-0.045,0.702h-2.467c-0.36,0-0.495,0.153-0.495,0.576v1.242
			h2.62v0.729h-2.62v1.585c0,0.423,0.135,0.576,0.495,0.576h2.467L120.285,71.492z"/>
		<path fill="#67B4E4" d="M123.102,70.214c0,0.423,0.153,0.576,0.567,0.576h2.205l0.045,0.693c-0.774,0.072-1.593,0.081-2.395,0.081
			c-0.99,0-1.323-0.522-1.323-1.225v-5.005h0.9V70.214z"/>
		<path fill="#67B4E4" d="M132.21,68.44c0,2.44-0.648,3.223-2.485,3.223c-1.827,0-2.484-0.783-2.484-3.223
			c0-2.44,0.657-3.223,2.484-3.223C131.562,65.217,132.21,66,132.21,68.44z M128.195,68.44c0,1.836,0.369,2.422,1.53,2.422
			c1.162,0,1.54-0.585,1.54-2.422c0-1.836-0.378-2.422-1.54-2.422C128.564,66.018,128.195,66.604,128.195,68.44z M129.347,71.915
			c0.738,0.288,1.558,0.486,2.458,0.612l-0.288,0.9c-0.964-0.207-1.747-0.585-2.413-0.963L129.347,71.915z"/>
		<path fill="#67B4E4" d="M138.771,69.152c0,1.818-0.603,2.512-2.25,2.512c-1.702,0-2.323-0.693-2.323-2.512v-3.817h0.9v3.817
			c0,1.278,0.352,1.71,1.387,1.71c1.018,0,1.387-0.432,1.387-1.71v-3.817h0.899V69.152z"/>
		<path fill="#67B4E4" d="M144.837,71.492c-0.819,0.072-1.773,0.072-2.665,0.072c-0.773,0-1.242-0.432-1.251-1.116v-4.015
			c0.009-0.685,0.486-1.117,1.251-1.117c0.892,0,1.846,0,2.665,0.072l-0.045,0.702h-2.467c-0.36,0-0.495,0.153-0.495,0.576v1.242
			h2.62v0.729h-2.62v1.585c0,0.423,0.135,0.576,0.495,0.576h2.467L144.837,71.492z"/>
		<path fill="#67B4E4" d="M147.725,68.629c-0.91-0.252-1.233-0.819-1.233-1.765c0-1.441,0.639-1.638,2.043-1.638
			c0.585,0,1.242,0.036,1.873,0.189l-0.055,0.657c-0.522-0.018-1.197-0.045-1.782-0.045c-0.846,0-1.17,0.036-1.17,0.864
			c0,0.639,0.225,0.81,0.747,0.945l1.233,0.342c0.963,0.261,1.26,0.837,1.26,1.765c0,1.432-0.621,1.71-2.115,1.71
			c-0.396,0-1.089-0.018-1.953-0.18l0.063-0.666c1.125,0.036,1.44,0.045,1.908,0.045c0.91-0.009,1.18-0.144,1.18-0.918
			c0-0.675-0.234-0.819-0.738-0.955L147.725,68.629z"/>
		<path fill="#67B4E4" d="M159.389,71.438c-0.53,0.153-1.017,0.216-1.845,0.216c-1.809,0-2.458-0.846-2.458-3.214
			c0-2.368,0.648-3.214,2.458-3.214c0.792,0,1.197,0.054,1.719,0.18l-0.09,0.693c-0.54-0.054-0.9-0.072-1.629-0.072
			c-1.143,0-1.513,0.585-1.513,2.413c0,1.828,0.369,2.413,1.513,2.413c0.773,0,1.251-0.018,1.755-0.099L159.389,71.438z"/>
		<path fill="#67B4E4" d="M162.079,70.214c0,0.423,0.153,0.576,0.567,0.576h2.205l0.045,0.693c-0.774,0.072-1.593,0.081-2.395,0.081
			c-0.99,0-1.323-0.522-1.323-1.225v-5.005h0.9V70.214z"/>
		<path fill="#67B4E4" d="M166.569,71.546v-6.212h0.9v6.212H166.569z"/>
		<path fill="#67B4E4" d="M173.797,71.438c-0.53,0.153-1.017,0.216-1.845,0.216c-1.81,0-2.458-0.846-2.458-3.214
			c0-2.368,0.648-3.214,2.458-3.214c0.792,0,1.197,0.054,1.719,0.18l-0.09,0.693c-0.54-0.054-0.9-0.072-1.629-0.072
			c-1.144,0-1.513,0.585-1.513,2.413c0,1.828,0.369,2.413,1.513,2.413c0.773,0,1.251-0.018,1.755-0.099L173.797,71.438z"/>
		<path fill="#67B4E4" d="M176.56,68.629c-0.91-0.252-1.233-0.819-1.233-1.765c0-1.441,0.639-1.638,2.043-1.638
			c0.585,0,1.242,0.036,1.873,0.189l-0.055,0.657c-0.522-0.018-1.197-0.045-1.782-0.045c-0.846,0-1.17,0.036-1.17,0.864
			c0,0.639,0.225,0.81,0.747,0.945l1.233,0.342c0.963,0.261,1.26,0.837,1.26,1.765c0,1.432-0.621,1.71-2.115,1.71
			c-0.396,0-1.089-0.018-1.953-0.18l0.063-0.666c1.125,0.036,1.44,0.045,1.908,0.045c0.91-0.009,1.18-0.144,1.18-0.918
			c0-0.675-0.234-0.819-0.738-0.955L176.56,68.629z"/>
	</g>
</g>
</svg>
