<svg width="256" height="156" xmlns="http://www.w3.org/2000/svg"><title>ISS Observer</title><path fill="transparent" d="M-1-1h258.1v258.1H-1z"/><g stroke="null" fill="#fff"><path d="M165.37 22.785c-3.81-1.054-8.117-2.006-12.948-2.684-3.058 4.438-15.99 7.615-23.428 7.615h-.042c-7.44 0-20.37-3.175-23.43-7.613-4.832.68-9.136 1.63-12.95 2.685 17.082 6.3 29.336 22.828 29.336 42.234 0 7.967-2.083 15.45-5.698 21.95h12.736l.05.16 12.735-.16c-5.29-8.28-5.7-13.977-5.7-21.95.006-19.406 12.26-35.935 29.34-42.234z"/><path d="M57.985 20.38c-29.642 0-53.758 24.117-53.758 53.76 0 29.64 24.116 53.76 53.758 53.76s53.76-24.12 53.76-53.76c0-29.643-24.118-53.76-53.76-53.76zm0 87.712c-18.722 0-33.95-15.23-33.95-33.953 0-18.72 15.23-33.953 33.95-33.953 18.72 0 33.953 15.234 33.953 33.95 0 18.725-15.232 33.954-33.953 33.954zm140.03-87.712c-29.642 0-53.76 24.117-53.76 53.76 0 29.64 24.118 53.76 53.76 53.76s53.758-24.12 53.758-53.76c0-29.643-24.116-53.76-53.758-53.76zm0 87.712c-18.724 0-33.953-15.23-33.953-33.953 0-18.72 15.232-33.953 33.953-33.953s33.948 15.232 33.948 33.95c0 18.725-15.226 33.954-33.948 33.954z"/><path d="M195.735 47.13l-1.94-.282-.868-1.758-.868 1.758-1.94.282 1.402 1.37-.332 1.93 1.737-.91 1.736.91-.332-1.93 1.406-1.37zm-2.808 1.955l-1.226.645.237-1.365-.992-.967 1.37-.2.613-1.24.613 1.24 1.37.2-.99.967.234 1.365-1.226-.645zm-17.26 33.323L191.12 97.86s3.69-8.756-1.502-13.948c-5.135-5.135-13.95-1.504-13.95-1.504zm41.453 1.228l-7.847 7.848.98.98 7.848-7.847-.98-.98zm3.924 1.962l-8.83-8.83c-1.082-1.082-2.842-1.082-3.922 0l-.775.773-2.164-2.163 3.88-3.88c1.084-1.084.962-2.964-.12-4.048l-4.784-4.784c-1.086-1.084-2.84-1.084-3.926 0l-3.53 3.405-1.858-1.86.126-.123c1.084-1.084 1.084-2.842 0-3.925l-8.83-8.83c-1.084-1.085-2.84-1.085-3.925 0l-5.886 5.886c-1.083 1.084-1.083 2.842 0 3.926l8.83 8.83c1.085 1.084 2.84 1.084 3.926 0l1.93-1.93 1.912 1.928-3.55 3.55c-1.085 1.085-.676 7.116-.676 7.116l2.39 2.39s6.03.41 7.115-.673l3.07-3.07 2.166 2.164-1.213 1.21c-1.084 1.084-1.084 2.84 0 3.924l8.83 8.83c1.085 1.083 2.842 1.083 3.925 0l5.886-5.887c1.085-1.088 1.085-2.844 0-3.928zm-43.56-27.4l5.886-5.888c.54-.542 1.42-.542 1.962 0l-7.85 7.85c-.542-.542-.542-1.422 0-1.963zm.98 2.942l7.85-7.85.98.982-7.85 7.85-.98-.982zm1.962 1.962l7.85-7.85.98.983-7.848 7.848-.982-.98zm1.963 1.964l7.846-7.85.982.98-7.85 7.85-.98-.98zm1.96 1.962l7.85-7.85.98.98-7.85 7.85-.98-.98zm3.924 1.96c-.54.544-1.42.544-1.962 0l7.85-7.848c.542.543.542 1.42 0 1.962l-5.888 5.887zm3.916 7.364l-.735-.737 10.143-10.143.737.735-10.144 10.145zm11.194 7.284l5.89-5.888c.54-.54 1.418-.54 1.96 0l-7.85 7.85c-.543-.542-.543-1.42 0-1.962zm16.68 4.905l-5.887 5.888c-.542.543-1.42.543-1.962 0l-5.887-5.887 7.848-7.847-.98-.98-7.852 7.847-.98-.982 7.85-7.85 7.848 7.85c.544.544.544 1.422 0 1.963zm-.982-2.94l-7.847 7.847.98.98 7.848-7.847-.98-.982zm-3.924-3.925l-7.847 7.848.983.98 7.847-7.847-.982-.98zM202.86 51.988l-1.94-.282-.868-1.758-.868 1.758-1.94.282 1.404 1.37-.332 1.93 1.736-.91 1.735.91-.33-1.93 1.403-1.37zm-2.808 1.955l-1.226.644.234-1.364-.99-.967 1.37-.2.612-1.24.613 1.24 1.37.2-.992.967.235 1.364-1.226-.644zm3.456-8.108l-1.94-.282-.868-1.758-.868 1.758-1.94.282 1.404 1.37-.332 1.93 1.736-.91 1.735.91-.33-1.93 1.403-1.37zM200.7 47.79l-1.226.644.234-1.365-.992-.968 1.37-.2.614-1.24.613 1.24 1.37.2-.992.966.236 1.364-1.225-.644z"/></g></svg>