<?xml version="1.0" encoding="UTF-8" standalone="no"?>
<svg width="72px" height="72px" viewBox="0 0 72 72" version="1.1" xmlns="http://www.w3.org/2000/svg" xmlns:xlink="http://www.w3.org/1999/xlink">
    <!-- Generator: sketchtool 39.1 (31720) - http://www.bohemiancoding.com/sketch -->
    <title>EAD9C02C-CFBC-41B7-A02B-4208A5FA567D</title>
    <desc>Created with sketchtool.</desc>
    <defs></defs>
    <g id="01_Homepage" stroke="none" stroke-width="1" fill="none" fill-rule="evenodd">
        <g id="Fav-icon" transform="translate(-582.000000, -333.000000)">
            <g id="icon-72x72" transform="translate(582.000000, 333.000000)">
                <g id="Jumia" transform="translate(0.079965, 0.079965)">
                    <rect id="Rectangle-2" fill="#FFFFFF" x="0" y="0" width="71.8596491" height="71.8596491" rx="5.98830409"></rect>
                    <g id="Group" transform="translate(19.461988, 13.473684)">
                        <g id="jovago-+-ic_settings_24px" transform="translate(0.748538, 1.347368)">
                            <g id="ic_push_noti" transform="translate(0.000000, 0.000000)">
                                <g id="Symbol" transform="translate(0.251048, 0.737702)">
                                    <path d="M33.2666081,13.4777328 L29.5457754,11.5205813 L25.825759,13.4777328 L26.5359662,9.3315921 L23.5265652,6.3968853 L27.6873999,5.79239285 L29.5457754,2.02217217 L31.4086407,5.79239285 L35.5690672,6.3968853 L32.5572172,9.3315921 L33.2666081,13.4777328 L33.2666081,13.4777328 Z M29.5486325,0.242572496 C25.0400413,0.242572496 21.3857395,3.89728246 21.3857395,8.40342475 C21.3857395,12.9079344 25.0400413,16.566726 29.5486325,16.566726 C34.052734,16.566726 37.709893,12.9079344 37.709893,8.40342475 C37.709893,3.89728246 34.052734,0.242572496 29.5486325,0.242572496 L29.5486325,0.242572496 Z" id="Fill-1" fill="#FF9A00"></path>
                                    <path d="M19.2513219,8.40334312 C19.2513219,7.64170711 19.3370366,6.90007119 19.4945883,6.18537417 L14.4439538,5.29761516 L14.7300775,3.36821891 L20.1603055,4.18250821 C20.5913278,3.22740196 21.1631671,2.34943891 21.8509252,1.57555796 L14.5476277,0.493104212 C13.8925228,0.395960927 13.1863973,0.768207464 13.0778253,1.50168008 L12.5639455,4.96740962 L7.21086074,4.02618099 C6.37697952,3.87964973 5.58228214,4.43679504 5.43575088,5.27067627 L0.872873653,31.2316069 C0.726342395,32.0650799 1.28348771,32.8597773 2.11736893,33.0067167 L3.21533294,33.1993706 C2.96431143,33.5116169 2.79043312,33.8920268 2.7275757,34.3165184 C2.53900344,35.5895853 3.41778282,36.7744884 4.69084964,36.9630607 C5.96391647,37.1516329 7.14881965,36.2728536 7.33739191,34.9997867 C7.39371869,34.6193769 7.35494301,34.2471304 7.23861596,33.9067207 L17.0619245,35.6332589 C16.6676371,35.9838727 16.3892685,36.4695891 16.3055947,37.0324487 C16.1174306,38.3051074 16.9962099,39.4904188 18.2692768,39.6785828 C19.5423436,39.8671551 20.7272468,38.9883757 20.915819,37.7153089 C20.9925541,37.1969393 20.8921455,36.6936717 20.6607159,36.2659148 L22.3892949,36.5695896 C23.2231761,36.7161208 24.0178735,36.1589755 24.1644048,35.3250943 L27.1366627,18.4131831 C22.6190918,17.3241987 19.2513219,13.2511196 19.2513219,8.40334312" id="Fill-3" fill="#1B69EE"></path>
                                </g>
                            </g>
                        </g>
                    </g>
                </g>
            </g>
        </g>
    </g>
</svg>