<?xml version="1.0" encoding="UTF-8"?>
<svg width="144px" height="144px" viewBox="0 0 144 144" version="1.1" xmlns="http://www.w3.org/2000/svg" xmlns:xlink="http://www.w3.org/1999/xlink">
    <!-- Generator: Sketch 50.2 (55047) - http://www.bohemiancoding.com/sketch -->
    <title>logo 144x144</title>
    <desc>Created with Sketch.</desc>
    <defs></defs>
    <g id="logo-144x144" stroke="none" stroke-width="1" fill="none" fill-rule="evenodd">
        <rect id="Rectangle" fill="#FFFFFF" x="0" y="0" width="144" height="144"></rect>
        <g id="logo-black" transform="translate(15.000000, 59.000000)" fill="#000000" fill-rule="nonzero">
            <path d="M15.3704151,24.9289176 C13.8137945,24.2067732 12.4178246,23.1356908 11.1820482,21.7145815 C10.1369779,20.5346019 9.34455533,19.1908096 8.80539058,17.6839825 C8.36524052,16.4543768 8.10755828,15.1524323 8.02669887,13.7814157 L12.5406394,13.7814157 C12.6953404,15.8177945 13.4389422,17.5526835 14.7743436,18.985616 C16.2101328,20.526979 17.9528828,21.3332855 20,21.4090469 L20,26 C18.337194,25.943529 16.7932363,25.588835 15.3704151,24.9289176 Z M14.9064649,7.04705322 C14.7464243,7.21242144 14.5958426,7.38463474 14.4510585,7.56073713 L9.11936935,7.56073713 C9.7645668,6.1250045 10.6691247,4.80859211 11.8391456,3.61523365 C13.0302206,2.42358643 14.3532642,1.5212948 15.8085818,0.90789206 C17.1168266,0.357027463 18.5143221,0.0553820375 20,0 L20,4.74076468 C19.0823215,4.77716747 18.2069036,4.9710046 17.3743563,5.32507627 C16.4459983,5.71959555 15.6230628,6.2936397 14.9064649,7.04705322 Z M13.1350327,9.78301921 C12.7581973,10.7167355 12.5533023,11.6728534 12.5168393,12.6504398 L8,12.6504398 C8.01968081,11.2750674 8.2447142,9.95538801 8.67372702,8.69186861 L13.665959,8.69186861 C13.4657937,9.03909527 13.2883605,9.40250107 13.1350327,9.78301921 Z" id="Fill-1"></path>
            <path d="M5.2379484,19.1111875 C6.57625997,17.704213 7.32080284,15.999618 7.47555271,14 L12,14 C11.919108,15.3466254 11.6617522,16.6255682 11.2204397,17.8327031 C10.6798853,19.3128604 9.88610386,20.6322906 8.83863647,21.791299 C7.59971973,23.1868149 6.20054798,24.2390283 4.64050973,24.9479393 C3.21411916,25.5963485 1.66631412,25.94454 0,26 L0,21.4909285 C2.05181269,21.4169818 3.79871298,20.6249571 5.2379484,19.1111875" id="Fill-3"></path>
            <path d="M26,20.7990799 L26,18.5676348 C26.319143,18.5899066 26.6913466,18.5899066 27.0106458,18.5899066 C27.9412327,18.5899066 28.6856398,18.2997414 28.6856398,17.0948526 L28.6856398,5.17864829 L31.6105199,5.17864829 L31.6105199,16.9162043 C31.6105199,20.0402591 29.6162267,20.8436236 27.4092235,20.8436236 C26.8775264,20.8436236 26.4786366,20.8436236 26,20.7990799 Z M33.4707573,17.0725808 L33.4707573,5.17864829 L36.3957935,5.17864829 L36.3957935,17.2286413 C36.3957935,18.3444429 36.980707,18.7459672 37.9112939,18.7459672 C38.8418808,18.7459672 39.4267944,18.3444429 39.4267944,17.2286413 L39.4267944,5.17864829 L42.192181,5.17864829 L42.192181,17.0725808 C42.192181,19.5717615 40.7032107,21 37.8313911,21 C34.9598836,21 33.4707573,19.5717615 33.4707573,17.0725808 Z M48.1998741,7.23176101 C47.2691311,7.23176101 46.7374339,7.65555707 46.7374339,8.7713586 C46.7374339,11.9848165 52.4543869,12.5872608 52.4543869,17.0501511 C52.4543869,19.5494896 50.9652606,20.9774123 48.093441,20.9774123 C45.2219335,20.9774123 43.7329632,19.5494896 43.7329632,17.0501511 L43.7329632,16.090726 L46.4980377,16.090726 L46.4980377,17.2065276 C46.4980377,18.3221711 47.0832634,18.7238534 48.0138503,18.7238534 C48.9444372,18.7238534 49.5293508,18.3221711 49.5293508,17.2065276 C49.5293508,13.9929117 43.812866,13.3904673 43.812866,8.92773511 C43.812866,6.4282386 45.27515,5 48.1202834,5 C50.9652606,5 52.4277006,6.4282386 52.4277006,8.92773511 L52.4277006,9.41850457 L49.6624701,9.41850457 L49.6624701,8.7713586 C49.6624701,7.65555707 49.130461,7.23176101 48.1998741,7.23176101 Z M59.2597041,20.7990799 L56.3348236,20.7990799 L56.3348236,7.4100934 L53.2769802,7.4100934 L53.2769802,5.17864829 L62.3175473,5.17864829 L62.3175473,7.4100934 L59.2597041,7.4100934 L59.2597041,20.7990799 Z M72.0744296,17.0501511 C72.0744296,19.5494896 70.5853038,20.9774123 67.7137961,20.9774123 C64.8419766,20.9774123 63.3528503,19.5494896 63.3528503,17.0501511 L63.3528503,8.92773511 C63.3528503,6.4282386 64.8419766,5 67.7137961,5 C70.5853038,5 72.0744296,6.4282386 72.0744296,8.92773511 L72.0744296,10.4450609 L69.308887,10.4450609 L69.308887,8.7713586 C69.308887,7.65555707 68.7239735,7.23176101 67.7933871,7.23176101 C66.8628002,7.23176101 66.2778861,7.65555707 66.2778861,8.7713586 L66.2778861,17.2065276 C66.2778861,18.3221711 66.8628002,18.7238534 67.7933871,18.7238534 C68.7239735,18.7238534 69.308887,18.3221711 69.308887,17.2065276 L69.308887,14.9747665 L72.0744296,14.9747665 L72.0744296,17.0501511 Z M73.6150562,17.0501511 L73.6150562,8.92773511 C73.6150562,6.4282386 75.1837736,5 78.0552802,5 C80.9269438,5 82.4956612,6.4282386 82.4956612,8.92773511 L82.4956612,17.0501511 C82.4956612,19.5494896 80.9269438,20.9774123 78.0552802,20.9774123 C75.1837736,20.9774123 73.6150562,19.5494896 73.6150562,17.0501511 Z M78.0552802,7.23176101 C77.1245374,7.23176101 76.5396233,7.65555707 76.5396233,8.7713586 L76.5396233,17.2065276 C76.5396233,18.3221711 77.1245374,18.7459672 78.0552802,18.7459672 C78.9858672,18.7459672 79.5709371,18.3221711 79.5709371,17.2065276 L79.5709371,8.7713586 C79.5709371,7.65555707 78.9858672,7.23176101 78.0552802,7.23176101 Z M84.3824288,20.7990799 L84.3824288,5.17864829 L89.0088335,5.17864829 C91.9335571,5.17864829 93.3694671,6.53991354 93.3694671,9.03909411 L93.3694671,16.938792 C93.3694671,19.4378147 91.9335571,20.7990799 89.0088335,20.7990799 L84.3824288,20.7990799 Z M88.9556166,7.4100934 L87.3069976,7.4100934 L87.3069976,18.5676348 L88.9556166,18.5676348 C89.8862036,18.5676348 90.444743,18.1657946 90.444743,17.0501511 L90.444743,8.92773511 C90.444743,7.81193358 89.8862036,7.4100934 88.9556166,7.4100934 Z M103.205941,20.7990799 L95.2290807,20.7990799 L95.2290807,5.17864829 L103.205941,5.17864829 L103.205941,7.4100934 L98.1541165,7.4100934 L98.1541165,11.7614666 L102.168921,11.7614666 L102.168921,13.9929117 L98.1541165,13.9929117 L98.1541165,18.5676348 L103.205941,18.5676348 L103.205941,20.7990799 Z M105.012649,20.7990799 L105.012649,5.17864829 L109.639365,5.17864829 C112.56409,5.17864829 114,6.53991354 114,9.03909411 L114,16.938792 C114,19.4378147 112.56409,20.7990799 109.639365,20.7990799 L105.012649,20.7990799 Z M109.58615,7.4100934 L107.937529,7.4100934 L107.937529,18.5676348 L109.58615,18.5676348 C110.516736,18.5676348 111.074963,18.1657946 111.074963,17.0501511 L111.074963,8.92773511 C111.074963,7.81193358 110.516736,7.4100934 109.58615,7.4100934 Z" id="Fill-5"></path>
        </g>
    </g>
</svg>