<?xml version="1.0" encoding="utf-8"?>
<!-- Generator: Adobe Illustrator 17.1.0, SVG Export Plug-In . SVG Version: 6.00 Build 0)  -->
<!DOCTYPE svg PUBLIC "-//W3C//DTD SVG 1.1//EN" "http://www.w3.org/Graphics/SVG/1.1/DTD/svg11.dtd">
<svg version="1.1" id="Layer_1" xmlns="http://www.w3.org/2000/svg" xmlns:xlink="http://www.w3.org/1999/xlink" x="0px" y="0px"
	 viewBox="0 0 1500 1500" enable-background="new 0 0 1500 1500" xml:space="preserve">
<text transform="matrix(1 0 0 1 10.2696 843.9453)" font-family="'Track'" font-size="534.171">K</text>
<text transform="matrix(1 0 0 1 478.3829 840.8397)" font-family="'Track'" font-size="534.171">i</text>
<path fill="#FF0000" d="M568.8,825c-7.3-14.8-14.5-29.3-22-44.1c-8.6,14.5-17.1,29-25.9,44.4c-2.9-9.9-4.9-17.1-7.3-24.4
	c6.7-13.4,13-26.1,19.5-38.9c3.4-6.4,3.9-12.2,1.3-21.8c-14.8-56.9-20.5-117.3-10.4-181.8c2.3-15.1,5.4-29.6,9.1-43.3
	c2.6-9.6,2.3-15.7-1-23.2c-6.2-13.1-12.2-26.4-18.4-40.4c2.9-7.8,6-16,9.9-26.1c7.8,15.4,15.6,30.5,23.1,45.3
	c8.3-14.2,16.9-28.7,25.7-44.1c2.9,9.6,5.2,17.4,7.3,24.1c-7,13.6-13.2,26.7-19.7,39.5c-3.1,6.4-3.6,11.9-1,20.9
	c12.2,45.6,17.6,94.7,14.3,148.7c-1.8,29-6.7,55.5-13.5,79.9c-1.8,6.7-2.1,11.3,0.5,16.8c6.5,13.9,12.7,28.5,19.2,43.3
	c-2.6,7.8-5.4,16.6-8.3,25.3C570.4,825,569.6,825,568.8,825z M548.3,712.4c10.4-59.2,9.3-115.3-2.1-171.6
	C536.1,570.7,534,662.1,548.3,712.4z"/>
<text transform="matrix(1 0 0 1 686.2737 843.9482)" font-family="'Track'" font-size="534.171">B</text>
<text transform="matrix(1 0 0 1 1137.8135 843.9492)" font-family="'Track'" font-size="534.171">u</text>
<text transform="matrix(1 0 0 1 580.8692 840.8397)" font-family="'Track'" font-size="534.171">.</text>
<text transform="matrix(1 0 0 1 369.6846 840.8397)" font-family="'Track'" font-size="534.171">.</text>
<text transform="matrix(1 0 0 1 1031.1873 840.8397)" font-family="'Track'" font-size="534.171">.</text>
</svg>
