<svg xmlns="http://www.w3.org/2000/svg" viewBox="0 0 413.12 425.55"><defs><style>.cls-1{fill:#ffffff;}</style></defs><title>KML - Kleider-machen-Leute.com</title><path class="cls-1" d="M431.77,431.46c-15.71-.61-42.31-1.21-73.14-41.71,0,0-12.09-15.71-153.53-204.91C319.34,48.23,379.79,21.63,418.47,21.63V13.77H219v7.86c73.14,1.21,26.6,101.55,4.84,125.13L130.75,251.33S157.34,286.39,191.8,336c64.07,91.28,74.35,103.37,138.42,103.37H431.77Z" transform="translate(-18.65 -13.77)"/><path class="cls-1" d="M18.65,92.34v5c16.4,0,21.36,6.49,21.36,30.12v196c0,25.93-5.34,32.4-21.36,32.4v5H128.08v-5c-16.4,0-23.26-6.47-23.26-32.4v-196c0-27.83,9.15-30.12,25.93-30.12v-5Z" transform="translate(-18.65 -13.77)"/></svg>