<svg width="550" height="549" viewBox="0 0 550 549" fill="none" xmlns="http://www.w3.org/2000/svg">
<circle cx="275" cy="274.5" r="270.07" fill="white" stroke="#333333" stroke-width="8.86"/>
<path d="M84.5914 279.154C84.5914 263.986 88.0115 250.38 94.8519 238.335C101.692 226.141 110.986 216.624 122.734 209.784C134.63 202.943 147.79 199.523 162.214 199.523C179.167 199.523 193.963 203.613 206.602 211.791C219.242 219.97 228.462 231.569 234.261 246.588H209.948C205.636 237.219 199.39 230.007 191.212 224.951C183.182 219.896 173.516 217.368 162.214 217.368C151.359 217.368 141.619 219.896 132.994 224.951C124.37 230.007 117.603 237.219 112.696 246.588C107.789 255.807 105.335 266.663 105.335 279.154C105.335 291.496 107.789 302.352 112.696 311.72C117.603 320.939 124.37 328.077 132.994 333.133C141.619 338.189 151.359 340.717 162.214 340.717C173.516 340.717 183.182 338.263 191.212 333.356C199.39 328.3 205.636 321.088 209.948 311.72H234.261C228.462 326.59 219.242 338.115 206.602 346.293C193.963 354.323 179.167 358.338 162.214 358.338C147.79 358.338 134.63 354.993 122.734 348.301C110.986 341.461 101.692 332.018 94.8519 319.973C88.0115 307.928 84.5914 294.322 84.5914 279.154ZM358.16 357L337.862 336.479C330.278 344.36 322.173 350.234 313.549 354.1C304.924 357.818 295.184 359.677 284.328 359.677C273.622 359.677 264.105 357.744 255.777 353.877C247.599 350.011 241.204 344.509 236.595 337.371C232.134 330.233 229.903 321.906 229.903 312.389C229.903 301.534 232.951 292.017 239.048 283.838C245.294 275.511 254.439 268.968 266.484 264.209C261.725 258.558 258.305 253.354 256.223 248.595C254.142 243.837 253.101 238.632 253.101 232.981C253.101 226.438 254.736 220.565 258.008 215.36C261.428 210.007 266.261 205.843 272.506 202.869C278.752 199.895 285.964 198.408 294.143 198.408C302.173 198.408 309.162 199.969 315.11 203.092C321.058 206.215 325.519 210.602 328.493 216.252C331.467 221.754 332.806 227.926 332.508 234.766H312.21C312.359 228.669 310.649 223.911 307.08 220.49C303.511 216.921 298.901 215.137 293.251 215.137C287.302 215.137 282.47 216.847 278.752 220.267C275.183 223.539 273.399 227.777 273.399 232.981C273.399 237.443 274.588 241.755 276.968 245.919C279.496 250.082 283.659 255.213 289.459 261.309L335.854 307.928L339.869 301.682L355.037 276.254H376.896L358.606 307.928C356.078 312.389 353.104 317.073 349.683 321.98L384.703 357H358.16ZM284.328 342.278C292.358 342.278 299.57 340.717 305.965 337.594C312.508 334.471 318.679 329.639 324.478 323.096L278.752 277.146C259.718 284.433 250.201 295.957 250.201 311.72C250.201 320.493 253.324 327.78 259.569 333.579C265.964 339.379 274.217 342.278 284.328 342.278ZM465.953 201.531V218.037H398.367V270.455H453.238V286.961H398.367V357H378.069V201.531H465.953Z" fill="#333333"/>
</svg>
