<?xml version="1.0" encoding="UTF-8" standalone="no"?>
<!-- Created with Inkscape (http://www.inkscape.org/) -->

<svg
   xmlns:dc="http://purl.org/dc/elements/1.1/"
   xmlns:cc="http://creativecommons.org/ns#"
   xmlns:rdf="http://www.w3.org/1999/02/22-rdf-syntax-ns#"
   xmlns:svg="http://www.w3.org/2000/svg"
   xmlns="http://www.w3.org/2000/svg"
   xmlns:sodipodi="http://sodipodi.sourceforge.net/DTD/sodipodi-0.dtd"
   xmlns:inkscape="http://www.inkscape.org/namespaces/inkscape"
   width="512"
   height="512"
   viewBox="0 0 135.46666 135.46667"
   version="1.1"
   id="svg8"
   inkscape:version="0.92.2 2405546, 2018-03-11"
   sodipodi:docname="lessons-shedule.svg">
  <defs
     id="defs2" />
  <sodipodi:namedview
     id="base"
     pagecolor="#ffffff"
     bordercolor="#666666"
     borderopacity="1.0"
     inkscape:pageopacity="0.0"
     inkscape:pageshadow="2"
     inkscape:zoom="0.7"
     inkscape:cx="-38.416369"
     inkscape:cy="184.63496"
     inkscape:document-units="mm"
     inkscape:current-layer="g21"
     showgrid="false"
     units="px"
     inkscape:window-width="1280"
     inkscape:window-height="747"
     inkscape:window-x="0"
     inkscape:window-y="25"
     inkscape:window-maximized="1" />
  <metadata
     id="metadata5">
    <rdf:RDF>
      <cc:Work
         rdf:about="">
        <dc:format>image/svg+xml</dc:format>
        <dc:type
           rdf:resource="http://purl.org/dc/dcmitype/StillImage" />
        <dc:title />
      </cc:Work>
    </rdf:RDF>
  </metadata>
  <g
     inkscape:label="Layer 1"
     inkscape:groupmode="layer"
     id="layer1"
     transform="translate(0,-161.53332)">
    <g
       style="fill:#555555"
       id="g21"
       transform="matrix(1.3673991,-0.78331734,0.78331734,1.3673991,8.0715828,203.0926)">
      <g
         aria-label="LessonsShedule"
         transform="rotate(29.806326)"
         style="font-style:normal;font-variant:normal;font-weight:normal;font-stretch:normal;font-size:9.40221405px;line-height:1.25;font-family:Pacifico;-inkscape-font-specification:'Pacifico, Normal';font-variant-ligatures:normal;font-variant-caps:normal;font-variant-numeric:normal;font-feature-settings:normal;text-align:start;letter-spacing:0px;word-spacing:0px;writing-mode:lr-tb;text-anchor:start;fill:#111111;fill-opacity:1;stroke:none;stroke-width:0.16789667"
         id="text25" />
      <g
         id="g71"
         transform="matrix(1.1487969,0,0,1.1487969,-3.7769186,-12.282093)">
        <path
           style="fill:#333333;fill-opacity:1;stroke-width:1.12281954"
           inkscape:connector-curvature="0"
           d="m 13.593288,34.559991 c 1.217416,-0.03105 2.238891,-1.082324 2.269944,-2.336159 l -4.426971,0.112918 c -0.03105,1.253835 0.928542,2.254576 2.157027,2.223241 z m 6.809832,-7.008478 0.141148,-5.69925 c 0.08666,-3.49934 -1.655844,-6.382459 -4.801932,-7.076821 l 0.0192,-0.775098 c 0.02343,-0.946075 -0.699173,-1.69086 -1.61777,-1.66743 -0.918596,0.02343 -1.679027,0.806043 -1.702458,1.752119 l -0.0192,0.775098 c -3.1955466,0.856116 -5.0718045,3.820147 -5.1587513,7.330885 l -0.1411474,5.699251 -2.2699442,2.336159 -0.02823,1.13985 17.7078809,-0.451671 0.02823,-1.13985 z"
           id="path10" />
        <path
           inkscape:connector-curvature="0"
           id="path835"
           style="font-style:normal;font-variant:normal;font-weight:normal;font-stretch:normal;font-size:9.40221405px;line-height:1.25;font-family:Pacifico;-inkscape-font-specification:'Pacifico, Normal';font-variant-ligatures:normal;font-variant-caps:normal;font-variant-numeric:normal;font-feature-settings:normal;text-align:start;letter-spacing:0px;word-spacing:0px;writing-mode:lr-tb;text-anchor:start;fill:#111111;fill-opacity:1;stroke:none;stroke-width:0.18851767"
           d="m 14.822942,28.772858 q 0.1333,0 0.205076,0.13043 0.08203,0.13043 0.08203,0.358683 0,0.423897 -0.194821,0.673887 -0.574212,0.728234 -1.117663,1.021701 -0.533197,0.293468 -1.291977,0.293468 -0.533197,0 -0.984363,-0.141299 -0.451169,-0.1413 -1.097157,-0.423897 -0.5844658,-0.27173 -1.1279164,-0.445636 -0.522943,1.010832 -1.5688291,1.010832 -0.5742119,0 -0.9125869,-0.271729 -0.3486287,-0.282598 -0.3486287,-0.717365 0,-0.532589 0.481928,-0.880402 0.4819279,-0.358682 1.2817231,-0.358682 h 0.1332991 l 0.1845682,-3.162926 q 0.061522,-1.086917 0.3691363,-1.793412 0.3076135,-0.706495 0.8510641,-1.206476 0.4716743,-0.434767 1.0766473,-0.65215 0.604973,-0.228253 1.281723,-0.228253 1.107409,0 1.702128,0.608673 0.59472,0.608673 0.59472,1.586898 0,0.663019 -0.225584,1.076047 -0.225583,0.402159 -0.62548,0.402159 -0.287106,0 -0.451168,-0.141299 -0.16406,-0.152168 -0.16406,-0.423897 0,-0.09782 0.04102,-0.358683 0.06152,-0.304336 0.06152,-0.543458 0,-0.456504 -0.256344,-0.717364 -0.246091,-0.27173 -0.758781,-0.27173 -0.902333,0 -1.394514,0.630412 -0.492182,0.619542 -0.625481,1.956449 l -0.2358369,2.4673 q -0.051269,0.521719 -0.1332992,0.90214 0.6562421,0.119561 1.6406051,0.38042 0.574212,0.152169 0.881826,0.217383 0.307613,0.06521 0.54345,0.06521 0.59472,0 1.015125,-0.206514 0.430658,-0.217384 0.810049,-0.684757 0.123046,-0.152169 0.276852,-0.152169 z"
           transform="rotate(29.806326)" />
        <path
           inkscape:connector-curvature="0"
           id="path837"
           style="font-style:normal;font-variant:normal;font-weight:normal;font-stretch:normal;font-size:9.40221405px;line-height:1.25;font-family:Pacifico;-inkscape-font-specification:'Pacifico, Normal';font-variant-ligatures:normal;font-variant-caps:normal;font-variant-numeric:normal;font-feature-settings:normal;text-align:start;letter-spacing:0px;word-spacing:0px;writing-mode:lr-tb;text-anchor:start;fill:#111111;fill-opacity:1;stroke:none;stroke-width:0.18851767"
           d="m 19.682275,28.772858 q 0.133299,0 0.205075,0.13043 0.08203,0.13043 0.08203,0.358683 0,0.434765 -0.194822,0.673887 -0.37939,0.489113 -1.076648,0.902141 -0.687003,0.413028 -1.476544,0.413028 -1.076648,0 -1.671367,-0.619542 -0.59472,-0.619542 -0.59472,-1.69559 0,-0.749971 0.297361,-1.391252 0.297359,-0.65215 0.820302,-1.03257 0.533197,-0.380421 1.199693,-0.380421 0.594719,0 0.953602,0.380421 0.358882,0.369551 0.358882,1.010832 0,0.749971 -0.51269,1.29343 -0.502434,0.532588 -1.712381,0.847795 0.256344,0.499981 0.974109,0.499981 0.461421,0 1.045887,-0.336944 0.594719,-0.347813 1.025378,-0.902141 0.123046,-0.152168 0.276853,-0.152168 z M 17.098321,27.19683 q -0.37939,0 -0.645988,0.467373 -0.256345,0.467374 -0.256345,1.130394 v 0.02173 q 0.604974,-0.152168 0.953602,-0.456505 0.348628,-0.304336 0.348628,-0.706495 0,-0.206514 -0.112791,-0.326075 -0.102535,-0.13043 -0.287106,-0.13043 z"
           transform="rotate(29.806326)" />
        <path
           inkscape:connector-curvature="0"
           id="path839"
           style="font-style:normal;font-variant:normal;font-weight:normal;font-stretch:normal;font-size:9.40221405px;line-height:1.25;font-family:Pacifico;-inkscape-font-specification:'Pacifico, Normal';font-variant-ligatures:normal;font-variant-caps:normal;font-variant-numeric:normal;font-feature-settings:normal;text-align:start;letter-spacing:0px;word-spacing:0px;writing-mode:lr-tb;text-anchor:start;fill:#111111;fill-opacity:1;stroke:none;stroke-width:0.18851767"
           d="m 21.041703,31.490149 q -0.533197,0 -0.820303,-0.260861 -0.276852,-0.26086 -0.276852,-0.586934 0,-0.282599 0.194821,-0.489113 0.194822,-0.206514 0.574212,-0.206514 0.1333,0 0.307613,0.03261 0.184569,0.02173 0.276853,0.03261 -0.01025,-0.282599 -0.123045,-0.532589 -0.102535,-0.249991 -0.266599,-0.478243 -0.16406,-0.239122 -0.307613,-0.413029 -0.317868,0.641281 -0.635735,1.065178 -0.307613,0.423898 -0.67675,0.804318 -0.184568,0.195645 -0.389644,0.195645 -0.16406,0 -0.266597,-0.119561 -0.102536,-0.13043 -0.102536,-0.315205 0,-0.217384 0.143553,-0.402159 l 0.133299,-0.173907 q 0.563959,-0.739103 0.851065,-1.217346 0.174315,-0.315206 0.410151,-0.836925 0.235837,-0.53259 0.46142,-1.097786 0.194822,-0.478243 0.810049,-0.478243 0.287106,0 0.399898,0.05434 0.112792,0.05435 0.112792,0.173906 0,0.06521 -0.04102,0.206514 -0.04102,0.141299 -0.112792,0.282599 -0.184568,0.39129 -0.184568,0.663019 0,0.163037 0.102536,0.358682 0.112791,0.195645 0.338374,0.489112 0.328122,0.456505 0.492182,0.78258 0.174315,0.315205 0.174315,0.695626 0,0.108689 -0.02051,0.304337 0.502436,-0.206514 1.179186,-1.097786 0.123045,-0.152168 0.276852,-0.152168 0.133299,0 0.205075,0.13043 0.08203,0.13043 0.08203,0.358682 0,0.413028 -0.194822,0.673888 -0.512689,0.673888 -0.984364,0.923879 -0.46142,0.239122 -1.148423,0.260859 -0.410151,0.369553 -0.97411,0.369553 z"
           transform="rotate(29.806326)" />
        <path
           inkscape:connector-curvature="0"
           id="path841"
           style="font-style:normal;font-variant:normal;font-weight:normal;font-stretch:normal;font-size:9.40221405px;line-height:1.25;font-family:Pacifico;-inkscape-font-specification:'Pacifico, Normal';font-variant-ligatures:normal;font-variant-caps:normal;font-variant-numeric:normal;font-feature-settings:normal;text-align:start;letter-spacing:0px;word-spacing:0px;writing-mode:lr-tb;text-anchor:start;fill:#111111;fill-opacity:1;stroke:none;stroke-width:0.18851767"
           d="m 25.427599,31.490149 q -0.533197,0 -0.820303,-0.260861 -0.276852,-0.26086 -0.276852,-0.586934 0,-0.282599 0.194821,-0.489113 0.194822,-0.206514 0.574212,-0.206514 0.1333,0 0.307615,0.03261 0.184568,0.02173 0.276851,0.03261 -0.01025,-0.282599 -0.123045,-0.532589 -0.102535,-0.249991 -0.266599,-0.478243 -0.16406,-0.239122 -0.307613,-0.413029 -0.317868,0.641281 -0.635734,1.065178 -0.307614,0.423898 -0.67675,0.804318 -0.184568,0.195645 -0.389645,0.195645 -0.16406,0 -0.266597,-0.119561 -0.102536,-0.13043 -0.102536,-0.315205 0,-0.217384 0.143553,-0.402159 l 0.133298,-0.173907 q 0.563959,-0.739103 0.851065,-1.217346 0.174315,-0.315206 0.410152,-0.836925 0.235837,-0.53259 0.461419,-1.097786 0.194823,-0.478243 0.810049,-0.478243 0.287106,0 0.399899,0.05434 0.112791,0.05435 0.112791,0.173906 0,0.06521 -0.04102,0.206514 -0.04102,0.141299 -0.112792,0.282599 -0.184568,0.39129 -0.184568,0.663019 0,0.163037 0.102536,0.358682 0.112791,0.195645 0.338374,0.489112 0.328122,0.456505 0.492182,0.78258 0.174315,0.315205 0.174315,0.695626 0,0.108689 -0.0205,0.304337 0.502435,-0.206514 1.179184,-1.097786 0.123046,-0.152168 0.276853,-0.152168 0.133299,0 0.205075,0.13043 0.08203,0.13043 0.08203,0.358682 0,0.413028 -0.194822,0.673888 -0.512689,0.673888 -0.984364,0.923879 -0.461419,0.239122 -1.148424,0.260859 -0.41015,0.369553 -0.974109,0.369553 z"
           transform="rotate(29.806326)" />
        <path
           inkscape:connector-curvature="0"
           id="path843"
           style="font-style:normal;font-variant:normal;font-weight:normal;font-stretch:normal;font-size:9.40221405px;line-height:1.25;font-family:Pacifico;-inkscape-font-specification:'Pacifico, Normal';font-variant-ligatures:normal;font-variant-caps:normal;font-variant-numeric:normal;font-feature-settings:normal;text-align:start;letter-spacing:0px;word-spacing:0px;writing-mode:lr-tb;text-anchor:start;fill:#111111;fill-opacity:1;stroke:none;stroke-width:0.18851767"
           d="m 33.135722,27.859848 q 0.133299,0 0.205075,0.1413 0.07178,0.141299 0.07178,0.358682 0,0.521719 -0.297361,0.619542 -0.615226,0.228253 -1.353499,0.26086 -0.194822,0.913009 -0.769034,1.467337 -0.574212,0.543458 -1.302231,0.543458 -0.615227,0 -1.056139,-0.315205 -0.430659,-0.315206 -0.656243,-0.836926 -0.225584,-0.52172 -0.225584,-1.130393 0,-0.826056 0.297361,-1.467337 0.29736,-0.65215 0.820303,-1.010832 0.522943,-0.369551 1.158677,-0.369551 0.779288,0 1.250962,0.576065 0.481928,0.565196 0.563958,1.402122 0.481928,-0.03261 1.148424,-0.217383 0.08203,-0.02174 0.143553,-0.02174 z m -3.363241,2.239048 q 0.32812,0 0.563957,-0.282598 0.246092,-0.282599 0.328121,-0.815187 -0.317866,-0.228253 -0.492181,-0.597804 -0.16406,-0.369551 -0.16406,-0.78258 0,-0.173907 0.03076,-0.347813 h -0.05127 q -0.410151,0 -0.687003,0.423897 -0.266599,0.413028 -0.266599,1.17387 0,0.597804 0.21533,0.913009 0.225582,0.315206 0.522943,0.315206 z"
           transform="rotate(29.806326)" />
        <path
           inkscape:connector-curvature="0"
           id="path845"
           style="font-style:normal;font-variant:normal;font-weight:normal;font-stretch:normal;font-size:9.40221405px;line-height:1.25;font-family:Pacifico;-inkscape-font-specification:'Pacifico, Normal';font-variant-ligatures:normal;font-variant-caps:normal;font-variant-numeric:normal;font-feature-settings:normal;text-align:start;letter-spacing:0px;word-spacing:0px;writing-mode:lr-tb;text-anchor:start;fill:#111111;fill-opacity:1;stroke:none;stroke-width:0.18851767"
           d="m 33.260529,31.251027 q -0.389644,0 -0.553705,-0.434767 -0.153806,-0.434766 -0.153806,-1.391252 0,-1.412991 0.37939,-2.684683 0.09228,-0.315206 0.297359,-0.456505 0.21533,-0.152168 0.59472,-0.152168 0.205076,0 0.287106,0.05434 0.08203,0.05435 0.08203,0.206514 0,0.173908 -0.153806,0.782581 -0.102536,0.434766 -0.16406,0.760841 -0.06152,0.326074 -0.102536,0.804317 0.338376,-0.934747 0.75878,-1.521681 0.420406,-0.586936 0.820303,-0.836926 0.410152,-0.249991 0.748527,-0.249991 0.666496,0 0.666496,0.706495 0,0.423897 -0.225584,1.532552 -0.194822,0.945617 -0.194822,1.249954 0,0.434766 0.29736,0.434766 0.205076,0 0.481928,-0.26086 0.287106,-0.271729 0.75878,-0.869533 0.123046,-0.152168 0.276852,-0.152168 0.1333,0 0.205076,0.13043 0.08203,0.13043 0.08203,0.358683 0,0.434765 -0.194822,0.673887 -0.440913,0.576065 -0.953602,0.945618 -0.502435,0.369551 -1.148424,0.369551 -0.522943,0 -0.789541,-0.315206 -0.266599,-0.326075 -0.266599,-0.934748 0,-0.304337 0.143553,-1.086916 0.133299,-0.684758 0.133299,-0.945617 0,-0.173906 -0.112791,-0.173906 -0.133299,0 -0.37939,0.369551 -0.235837,0.358682 -0.492183,0.956486 -0.24609,0.597804 -0.399897,1.260823 -0.112791,0.510851 -0.266599,0.695627 -0.143553,0.173906 -0.461419,0.173906 z"
           transform="rotate(29.806326)" />
        <path
           inkscape:connector-curvature="0"
           id="path847"
           style="font-style:normal;font-variant:normal;font-weight:normal;font-stretch:normal;font-size:9.40221405px;line-height:1.25;font-family:Pacifico;-inkscape-font-specification:'Pacifico, Normal';font-variant-ligatures:normal;font-variant-caps:normal;font-variant-numeric:normal;font-feature-settings:normal;text-align:start;letter-spacing:0px;word-spacing:0px;writing-mode:lr-tb;text-anchor:start;fill:#111111;fill-opacity:1;stroke:none;stroke-width:0.18851767"
           d="m 39.526554,31.490149 q -0.533197,0 -0.820303,-0.260861 -0.276851,-0.26086 -0.276851,-0.586934 0,-0.282599 0.194822,-0.489113 0.194821,-0.206514 0.574211,-0.206514 0.133299,0 0.307614,0.03261 0.184568,0.02173 0.276852,0.03261 -0.01025,-0.282599 -0.123046,-0.532589 -0.102535,-0.249991 -0.266598,-0.478243 -0.164061,-0.239122 -0.307614,-0.413029 -0.317867,0.641281 -0.635734,1.065178 -0.307613,0.423898 -0.67675,0.804318 -0.184568,0.195645 -0.389644,0.195645 -0.164061,0 -0.266598,-0.119561 -0.102536,-0.13043 -0.102536,-0.315205 0,-0.217384 0.143553,-0.402159 l 0.133299,-0.173907 q 0.563959,-0.739103 0.851065,-1.217346 0.174314,-0.315206 0.410151,-0.836925 0.235837,-0.53259 0.46142,-1.097786 0.194822,-0.478243 0.810049,-0.478243 0.287106,0 0.399898,0.05434 0.112791,0.05435 0.112791,0.173906 0,0.06521 -0.04102,0.206514 -0.04102,0.141299 -0.112792,0.282599 -0.184568,0.39129 -0.184568,0.663019 0,0.163037 0.102536,0.358682 0.112792,0.195645 0.338374,0.489112 0.328122,0.456505 0.492183,0.78258 0.174313,0.315205 0.174313,0.695626 0,0.108689 -0.0205,0.304337 0.502435,-0.206514 1.179185,-1.097786 0.123045,-0.152168 0.276852,-0.152168 0.133299,0 0.205076,0.13043 0.08203,0.13043 0.08203,0.358682 0,0.413028 -0.194822,0.673888 -0.512688,0.673888 -0.984363,0.923879 -0.46142,0.239122 -1.148424,0.260859 -0.410151,0.369553 -0.97411,0.369553 z"
           transform="rotate(29.806326)" />
        <path
           inkscape:connector-curvature="0"
           id="path849"
           style="font-style:normal;font-variant:normal;font-weight:normal;font-stretch:normal;font-size:9.40221405px;line-height:1.25;font-family:Pacifico;-inkscape-font-specification:'Pacifico, Normal';font-variant-ligatures:normal;font-variant-caps:normal;font-variant-numeric:normal;font-feature-settings:normal;text-align:start;letter-spacing:0px;word-spacing:0px;writing-mode:lr-tb;text-anchor:start;fill:#111111;fill-opacity:1;stroke:none;stroke-width:0.18851767"
           d="m 44.866051,31.283635 q -1.363754,0 -2.184057,-0.543459 -0.820303,-0.554327 -0.820303,-1.684719 0,-0.597804 0.194822,-0.91301 0.194822,-0.315205 0.574212,-0.315205 0.276853,0 0.451166,0.152167 0.174315,0.152168 0.174315,0.39129 0,0.217383 -0.03077,0.380421 0,0.04348 -0.0205,0.152168 -0.01025,0.10869 -0.01025,0.228252 0,0.489113 0.46142,0.728235 0.471674,0.239121 1.312485,0.239121 0.871571,0 1.363753,-0.326075 0.492182,-0.336944 0.492182,-0.934748 0,-0.369551 -0.225584,-0.630411 Q 46.37336,27.935933 46.034985,27.762026 45.69661,27.577251 45.081383,27.31639 44.291842,26.990316 43.789406,26.696848 43.297225,26.40338 42.938342,25.9034 q -0.348629,-0.51085 -0.348629,-1.260823 0,-0.78258 0.389644,-1.391253 0.399898,-0.608673 1.13817,-0.945616 0.748527,-0.336945 1.753398,-0.336945 0.748526,0 1.374006,0.239122 0.625481,0.228252 0.994618,0.706496 0.37939,0.478242 0.37939,1.173869 0,0.684756 -0.194822,1.03257 -0.194822,0.347813 -0.574212,0.347813 -0.266599,0 -0.451166,-0.173906 -0.174315,-0.173907 -0.174315,-0.413029 0,-0.206514 0.03077,-0.38042 0.03076,-0.326075 0.03076,-0.413028 0,-0.456505 -0.420405,-0.695627 -0.420404,-0.239122 -1.045885,-0.239122 -0.881826,0 -1.353501,0.347814 -0.461419,0.336944 -0.461419,0.956486 0,0.413028 0.235837,0.706496 0.246091,0.293467 0.604972,0.489112 0.358883,0.195645 1.004871,0.467374 0.779289,0.336944 1.250962,0.608673 0.471674,0.271729 0.799796,0.739102 0.338374,0.467375 0.338374,1.152132 0,1.28256 -0.92284,1.978187 -0.912587,0.684758 -2.450654,0.684758 z"
           transform="rotate(29.806326)" />
        <path
           inkscape:connector-curvature="0"
           id="path851"
           style="font-style:normal;font-variant:normal;font-weight:normal;font-stretch:normal;font-size:9.40221405px;line-height:1.25;font-family:Pacifico;-inkscape-font-specification:'Pacifico, Normal';font-variant-ligatures:normal;font-variant-caps:normal;font-variant-numeric:normal;font-feature-settings:normal;text-align:start;letter-spacing:0px;word-spacing:0px;writing-mode:lr-tb;text-anchor:start;fill:#111111;fill-opacity:1;stroke:none;stroke-width:0.18851767"
           d="m 54.705519,28.772858 q 0.133299,0 0.205076,0.13043 0.08203,0.13043 0.08203,0.358683 0,0.434766 -0.194822,0.673887 -0.471673,0.576066 -0.974109,0.945618 -0.492181,0.369551 -1.127916,0.369551 -0.522943,0 -0.789542,-0.315205 -0.266599,-0.326076 -0.266599,-0.934749 0,-0.304336 0.143553,-1.086916 0.1333,-0.684757 0.1333,-0.945617 0,-0.173906 -0.112791,-0.173906 -0.1333,0 -0.379391,0.369551 -0.24609,0.358682 -0.492181,0.956486 -0.246091,0.597804 -0.399898,1.260823 -0.194822,0.869533 -0.963856,0.869533 -0.307613,0 -0.410151,-0.228253 -0.09228,-0.239121 -0.09228,-0.847794 0,-0.347813 0.01025,-0.554327 l 0.01025,-0.869533 q 0,-1.673851 0.317868,-3.489001 0.328121,-1.81515 0.953602,-3.043365 0.635734,-1.239084 1.517559,-1.239084 0.471674,0 0.75878,0.434766 0.29736,0.423898 0.29736,1.108654 0,1.097786 -0.604973,2.282524 -0.604973,1.17387 -1.968726,2.749898 -0.03077,0.565196 -0.03077,1.163 0.338375,-0.923878 0.748526,-1.499943 0.420405,-0.586936 0.820303,-0.836926 0.410151,-0.249991 0.748526,-0.249991 0.666496,0 0.666496,0.706495 0,0.423897 -0.225583,1.532552 -0.194822,0.945617 -0.194822,1.249954 0,0.434766 0.29736,0.434766 0.205075,0 0.481928,-0.26086 0.287106,-0.271729 0.75878,-0.869533 0.123045,-0.152168 0.276851,-0.152168 z m -3.045374,-6.717141 q -0.184568,0 -0.410152,0.565196 -0.225582,0.554327 -0.440912,1.510814 -0.205075,0.945616 -0.338375,2.06514 0.635734,-0.793449 1.045886,-1.728197 0.420406,-0.934747 0.420406,-1.695589 0,-0.347813 -0.07178,-0.532589 -0.07178,-0.184775 -0.205075,-0.184775 z"
           transform="rotate(29.806326)" />
        <path
           inkscape:connector-curvature="0"
           id="path853"
           style="font-style:normal;font-variant:normal;font-weight:normal;font-stretch:normal;font-size:9.40221405px;line-height:1.25;font-family:Pacifico;-inkscape-font-specification:'Pacifico, Normal';font-variant-ligatures:normal;font-variant-caps:normal;font-variant-numeric:normal;font-feature-settings:normal;text-align:start;letter-spacing:0px;word-spacing:0px;writing-mode:lr-tb;text-anchor:start;fill:#111111;fill-opacity:1;stroke:none;stroke-width:0.18851767"
           d="m 58.734776,28.772858 q 0.1333,0 0.205076,0.13043 0.08203,0.13043 0.08203,0.358683 0,0.434766 -0.194821,0.673887 -0.379391,0.489113 -1.076647,0.902141 -0.687005,0.413028 -1.476546,0.413028 -1.076647,0 -1.671367,-0.619542 -0.59472,-0.619542 -0.59472,-1.69559 0,-0.749971 0.297361,-1.391252 0.297359,-0.65215 0.820303,-1.03257 0.533196,-0.380421 1.199692,-0.380421 0.594719,0 0.953602,0.380421 0.358882,0.369551 0.358882,1.010832 0,0.749971 -0.512688,1.29343 -0.502436,0.532588 -1.712382,0.847795 0.256344,0.499981 0.974109,0.499981 0.46142,0 1.045886,-0.336944 0.594719,-0.347813 1.025378,-0.902141 0.123046,-0.152168 0.276852,-0.152168 z M 56.150822,27.19683 q -0.37939,0 -0.645988,0.467373 -0.256345,0.467374 -0.256345,1.130394 v 0.02173 q 0.604974,-0.152168 0.953602,-0.456505 0.34863,-0.304336 0.34863,-0.706495 0,-0.206514 -0.112793,-0.326074 -0.102535,-0.130431 -0.287106,-0.130431 z"
           transform="rotate(29.806326)" />
        <path
           inkscape:connector-curvature="0"
           id="path855"
           style="font-style:normal;font-variant:normal;font-weight:normal;font-stretch:normal;font-size:9.40221405px;line-height:1.25;font-family:Pacifico;-inkscape-font-specification:'Pacifico, Normal';font-variant-ligatures:normal;font-variant-caps:normal;font-variant-numeric:normal;font-feature-settings:normal;text-align:start;letter-spacing:0px;word-spacing:0px;writing-mode:lr-tb;text-anchor:start;fill:#111111;fill-opacity:1;stroke:none;stroke-width:0.18851767"
           d="m 63.951069,28.772858 q 0.1333,0 0.205077,0.13043 0.08203,0.13043 0.08203,0.358683 0,0.434766 -0.194822,0.673887 -0.420406,0.543459 -0.922841,0.934748 -0.502436,0.380421 -0.994617,0.380421 -0.779287,0 -1.189439,-0.967355 -0.430659,0.576065 -0.758779,0.77171 -0.317868,0.195645 -0.748527,0.195645 -0.625481,0 -1.035633,-0.489113 -0.399897,-0.499981 -0.399897,-1.293429 0,-0.869533 0.348628,-1.608637 0.348629,-0.749972 0.953602,-1.217346 0.615228,-0.478242 1.374008,-0.565196 0.194822,-2.108617 0.738272,-3.597692 0.553705,-1.499944 1.445784,-1.499944 0.440913,0 0.728019,0.423897 0.29736,0.423897 0.29736,1.282561 0,1.217346 -0.563959,2.84772 -0.563958,1.630374 -1.507306,3.347701 0.04102,0.630413 0.174314,0.902141 0.143553,0.271729 0.358883,0.271729 0.276851,0 0.563957,-0.26086 0.287106,-0.26086 0.769034,-0.869533 0.123046,-0.152168 0.276853,-0.152168 z m -1.209946,-6.72801 q -0.194822,0 -0.389644,0.739102 -0.194822,0.728235 -0.338375,1.912973 -0.133299,1.184738 -0.194821,2.478169 1.148424,-2.652076 1.148424,-4.260711 0,-0.413028 -0.07178,-0.641281 -0.06152,-0.228252 -0.153806,-0.228252 z m -2.95309,8.108393 q 0.194821,0 0.389644,-0.163037 0.194822,-0.173906 0.492182,-0.630411 -0.102536,-0.586935 -0.102536,-1.315168 0,-0.26086 0.0205,-0.847795 -0.563958,0.184776 -0.943349,0.804318 -0.369135,0.608673 -0.369135,1.358645 0,0.793448 0.512688,0.793448 z"
           transform="rotate(29.806326)" />
        <path
           inkscape:connector-curvature="0"
           id="path857"
           style="font-style:normal;font-variant:normal;font-weight:normal;font-stretch:normal;font-size:9.40221405px;line-height:1.25;font-family:Pacifico;-inkscape-font-specification:'Pacifico, Normal';font-variant-ligatures:normal;font-variant-caps:normal;font-variant-numeric:normal;font-feature-settings:normal;text-align:start;letter-spacing:0px;word-spacing:0px;writing-mode:lr-tb;text-anchor:start;fill:#111111;fill-opacity:1;stroke:none;stroke-width:0.18851767"
           d="m 64.459911,31.251027 q -0.461419,0 -0.758779,-0.445636 -0.287106,-0.456505 -0.287106,-1.130392 0,-0.815187 0.102536,-1.489075 0.102535,-0.684758 0.338375,-1.445599 0.102535,-0.326074 0.287106,-0.467374 0.184568,-0.141299 0.584465,-0.141299 0.225584,0 0.307613,0.07609 0.09228,0.07609 0.09228,0.228252 0,0.08696 -0.112791,0.586935 -0.102535,0.402159 -0.164061,0.728234 -0.205076,1.141261 -0.205076,1.521682 0,0.228252 0.05127,0.326075 0.05127,0.08696 0.164061,0.08696 0.153807,0 0.379391,-0.326075 0.235837,-0.326075 0.492181,-0.989094 0.266598,-0.663019 0.512689,-1.630374 0.08203,-0.326074 0.246091,-0.467374 0.174314,-0.141299 0.512689,-0.141299 0.235837,0 0.328121,0.06521 0.09228,0.05434 0.09228,0.217384 0,0.271729 -0.256344,1.489075 -0.287106,1.391252 -0.287106,1.717327 0,0.206514 0.08203,0.326075 0.08203,0.108689 0.215329,0.108689 0.205075,0 0.481927,-0.26086 0.287106,-0.271728 0.758781,-0.869533 0.123046,-0.152168 0.276852,-0.152168 0.1333,0 0.205075,0.130431 0.08203,0.130429 0.08203,0.358682 0,0.434766 -0.194822,0.673888 -0.440913,0.576065 -0.953602,0.945617 -0.502436,0.369551 -1.148424,0.369551 -0.492181,0 -0.728018,-0.402159 -0.225584,-0.402159 -0.225584,-1.130392 -0.174314,0.739102 -0.522943,1.141261 -0.348628,0.39129 -0.748527,0.39129 z"
           transform="rotate(29.806326)" />
        <path
           inkscape:connector-curvature="0"
           id="path859"
           style="font-style:normal;font-variant:normal;font-weight:normal;font-stretch:normal;font-size:9.40221405px;line-height:1.25;font-family:Pacifico;-inkscape-font-specification:'Pacifico, Normal';font-variant-ligatures:normal;font-variant-caps:normal;font-variant-numeric:normal;font-feature-settings:normal;text-align:start;letter-spacing:0px;word-spacing:0px;writing-mode:lr-tb;text-anchor:start;fill:#111111;fill-opacity:1;stroke:none;stroke-width:0.18851767"
           d="m 72.04659,28.772858 q 0.133299,0 0.205076,0.13043 0.08203,0.13043 0.08203,0.358683 0,0.434766 -0.194822,0.673887 -0.440913,0.576066 -0.963856,0.945618 -0.512689,0.369551 -1.168931,0.369551 -0.902333,0 -1.343246,-0.869533 -0.430658,-0.869532 -0.430658,-2.249917 0,-1.326037 0.317866,-3.021626 0.328121,-1.695589 0.953602,-2.912935 0.635736,-1.217346 1.507307,-1.217346 0.492182,0 0.769034,0.489112 0.287106,0.478243 0.287106,1.380383 0,1.293431 -0.67675,2.999889 -0.676749,1.706458 -1.835428,3.380309 0.07178,0.445636 0.235837,0.641281 0.164061,0.184775 0.430659,0.184775 0.420406,0 0.738273,-0.249991 0.317867,-0.26086 0.810049,-0.880402 0.123045,-0.152168 0.276852,-0.152168 z m -1.261216,-6.717141 q -0.235837,0 -0.533196,0.90214 -0.29736,0.90214 -0.522943,2.239047 -0.225584,1.336907 -0.246091,2.565122 0.728018,-1.271692 1.158677,-2.543384 0.430659,-1.28256 0.430659,-2.336869 0,-0.826056 -0.287106,-0.826056 z"
           transform="rotate(29.806326)" />
        <path
           inkscape:connector-curvature="0"
           id="path861"
           style="font-style:normal;font-variant:normal;font-weight:normal;font-stretch:normal;font-size:9.40221405px;line-height:1.25;font-family:Pacifico;-inkscape-font-specification:'Pacifico, Normal';font-variant-ligatures:normal;font-variant-caps:normal;font-variant-numeric:normal;font-feature-settings:normal;text-align:start;letter-spacing:0px;word-spacing:0px;writing-mode:lr-tb;text-anchor:start;fill:#111111;fill-opacity:1;stroke:none;stroke-width:0.18851767"
           d="m 75.175757,29.098934 q 0.1333,0 0.205075,0.130429 0.08203,0.13043 0.08203,0.358682 0,0.39129 -0.174315,0.673888 -0.287105,0.467375 -0.758779,0.728234 -0.46142,0.26086 -1.107409,0.26086 -0.984363,0 -1.527813,-0.619542 -0.543452,-0.630412 -0.543452,-1.69559 0,-0.749971 0.29736,-1.391252 0.29736,-0.65215 0.820304,-1.03257 0.533196,-0.380421 1.199692,-0.380421 0.594719,0 0.953601,0.380421 0.358883,0.369551 0.358883,1.010832 0,0.749971 -0.512689,1.29343 -0.502435,0.532588 -1.722636,0.847795 0.246091,0.499981 0.830557,0.499981 0.420405,0 0.687003,-0.206515 0.276853,-0.206514 0.635735,-0.695625 0.123046,-0.163037 0.276853,-0.163037 z M 73.494136,27.19683 q -0.37939,0 -0.645989,0.467373 -0.256344,0.467374 -0.256344,1.130394 v 0.02173 q 0.604974,-0.152168 0.953602,-0.456505 0.348629,-0.304336 0.348629,-0.706495 0,-0.206514 -0.112792,-0.326074 -0.102535,-0.130431 -0.287106,-0.130431 z"
           transform="rotate(29.806326)" />
        <g
           id="text4537"
           style="font-style:normal;font-variant:normal;font-weight:normal;font-stretch:normal;font-size:4.47724438px;line-height:1.25;font-family:Pacifico;-inkscape-font-specification:'Pacifico, Normal';font-variant-ligatures:normal;font-variant-caps:normal;font-variant-numeric:normal;font-feature-settings:normal;text-align:start;letter-spacing:0px;word-spacing:0px;writing-mode:lr-tb;text-anchor:start;fill:#000000;fill-opacity:0.26666667;stroke:none;stroke-width:0.16789667"
           transform="matrix(0.94630026,0.54209003,-0.57462332,1.003092,-0.01437151,-0.6268685)"
           aria-label="By mhbrgn">
          <path
             inkscape:connector-curvature="0"
             id="path818"
             style="font-style:normal;font-variant:normal;font-weight:normal;font-stretch:normal;font-size:4.47724438px;font-family:Pacifico;-inkscape-font-specification:'Pacifico, Normal';font-variant-ligatures:normal;font-variant-caps:normal;font-variant-numeric:normal;font-feature-settings:normal;text-align:start;writing-mode:lr-tb;text-anchor:start;fill:#000000;fill-opacity:0.26666667;stroke-width:0.16789667"
             d="m 52.970904,30.821327 q 0,0.380566 -0.268635,0.658155 -0.268634,0.273112 -0.783518,0.393998 0.27759,0.07611 0.420861,0.250725 0.143272,0.170136 0.143272,0.393998 0,0.353702 -0.223862,0.613382 -0.219385,0.259681 -0.644723,0.402952 -0.425338,0.138795 -1.025289,0.138795 -0.223862,0 -0.35818,-0.01343 -0.0045,0.125363 -0.107454,0.188045 -0.102976,0.06268 -0.264157,0.06268 -0.161181,0 -0.223862,-0.07164 -0.0582,-0.07164 -0.04925,-0.21043 0.0403,-0.626815 0.156704,-1.311833 0.116408,-0.689496 0.295498,-1.329742 0.03134,-0.111931 0.125363,-0.156703 0.09402,-0.04477 0.246248,-0.04477 0.273112,0 0.273112,0.152227 0,0.06268 -0.02686,0.143272 -0.116409,0.349225 -0.232817,0.949175 -0.116409,0.595474 -0.165658,1.13722 0.214908,0.01791 0.349225,0.01791 0.626814,0 0.917835,-0.179089 0.295498,-0.183567 0.295498,-0.465634 0,-0.196999 -0.170135,-0.331316 -0.165658,-0.134317 -0.559656,-0.147749 -0.08955,-0.0045 -0.125363,-0.04477 -0.03582,-0.0403 -0.03582,-0.12984 0,-0.129841 0.05373,-0.210431 0.05373,-0.08059 0.196999,-0.08507 0.317884,-0.009 0.573087,-0.09402 0.259681,-0.08507 0.40743,-0.237294 0.147749,-0.156703 0.147749,-0.362656 0,-0.259681 -0.255203,-0.40743 -0.255203,-0.152226 -0.783518,-0.152226 -0.479065,0 -0.92679,0.125363 -0.447724,0.120885 -0.761131,0.30893 -0.143272,0.08507 -0.241771,0.08507 -0.08059,0 -0.125363,-0.05373 -0.0403,-0.0582 -0.0403,-0.143271 0,-0.111932 0.04477,-0.192522 0.04925,-0.08059 0.22834,-0.183567 0.376088,-0.214908 0.882017,-0.335793 0.505928,-0.120886 1.034243,-0.120886 0.810381,0 1.208856,0.273112 0.398475,0.273112 0.398475,0.720836 z" />
          <path
             inkscape:connector-curvature="0"
             id="path820"
             style="font-style:normal;font-variant:normal;font-weight:normal;font-stretch:normal;font-size:4.47724438px;font-family:Pacifico;-inkscape-font-specification:'Pacifico, Normal';font-variant-ligatures:normal;font-variant-caps:normal;font-variant-numeric:normal;font-feature-settings:normal;text-align:start;writing-mode:lr-tb;text-anchor:start;fill:#000000;fill-opacity:0.26666667;stroke-width:0.16789667"
             d="m 54.478126,31.600368 q 0.102977,0 0.143272,0.02686 0.0403,0.02686 0.0403,0.08955 0,0.107454 -0.116408,0.765609 -0.102977,0.631291 -0.120886,0.7477 -0.165658,1.150652 -0.456679,1.822238 -0.291021,0.671587 -0.774563,0.671587 -0.228339,0 -0.371611,-0.143272 -0.143272,-0.138794 -0.143272,-0.367134 0,-0.21043 0.09402,-0.429815 0.0985,-0.219385 0.35818,-0.505929 0.264157,-0.282066 0.743222,-0.6492 l 0.01343,-0.102977 q 0.03134,-0.165658 0.07164,-0.474588 -0.08954,0.322362 -0.250726,0.492497 -0.161181,0.165658 -0.34027,0.165658 -0.201476,0 -0.331316,-0.183567 -0.125363,-0.188044 -0.125363,-0.465633 0,-0.335794 0.04477,-0.613383 0.04477,-0.282066 0.147749,-0.595473 0.04477,-0.134318 0.125363,-0.192522 0.08059,-0.0582 0.255203,-0.0582 0.0985,0 0.134317,0.03134 0.0403,0.03134 0.0403,0.09402 0,0.03582 -0.04925,0.241771 -0.04477,0.165658 -0.07164,0.299975 -0.03582,0.183567 -0.06268,0.353703 -0.02686,0.165658 -0.02686,0.273112 0,0.170135 0.09402,0.170135 0.06716,0 0.165658,-0.134318 0.102977,-0.134317 0.214908,-0.407429 0.116408,-0.273112 0.223862,-0.671586 0.03582,-0.134318 0.107454,-0.192522 0.07611,-0.0582 0.223862,-0.0582 z m -1.235719,3.689249 q 0.111931,0 0.250725,-0.25968 0.138795,-0.25968 0.27759,-0.864108 -0.344748,0.291021 -0.501452,0.528315 -0.152226,0.241771 -0.152226,0.420861 0,0.07611 0.02686,0.125363 0.03134,0.04925 0.0985,0.04925 z" />
          <path
             inkscape:connector-curvature="0"
             id="path822"
             style="font-style:normal;font-variant:normal;font-weight:normal;font-stretch:normal;font-size:4.47724438px;font-family:Pacifico;-inkscape-font-specification:'Pacifico, Normal';font-variant-ligatures:normal;font-variant-caps:normal;font-variant-numeric:normal;font-feature-settings:normal;text-align:start;writing-mode:lr-tb;text-anchor:start;fill:#000000;fill-opacity:0.26666667;stroke-width:0.16789667"
             d="m 56.429505,33.70915 q -0.170135,0 -0.241771,-0.17909 -0.06716,-0.17909 -0.06716,-0.573087 0,-0.582042 0.165659,-1.105879 0.0403,-0.129841 0.12984,-0.188045 0.09402,-0.06268 0.25968,-0.06268 0.08955,0 0.125363,0.02239 0.03582,0.02239 0.03582,0.08507 0,0.07164 -0.06716,0.322361 -0.04477,0.17909 -0.07164,0.313407 -0.02686,0.129841 -0.04477,0.326839 0.120885,-0.349225 0.286543,-0.590996 0.170135,-0.241771 0.344748,-0.35818 0.17909,-0.120885 0.335793,-0.120885 0.156704,0 0.219385,0.07164 0.06716,0.07164 0.06716,0.219385 0,0.143272 -0.08507,0.51936 -0.03582,0.161181 -0.04925,0.241771 0.223862,-0.550701 0.496974,-0.801426 0.273112,-0.250726 0.510406,-0.250726 0.291021,0 0.291021,0.291021 0,0.174612 -0.0985,0.631291 -0.08507,0.38952 -0.08507,0.514883 0,0.17909 0.12984,0.17909 0.08954,0 0.21043,-0.107454 0.125363,-0.111931 0.331316,-0.358179 0.05373,-0.06268 0.120886,-0.06268 0.0582,0 0.08955,0.05373 0.03582,0.05373 0.03582,0.147749 0,0.17909 -0.08507,0.277589 -0.192522,0.237294 -0.416384,0.389521 -0.219385,0.152226 -0.501451,0.152226 -0.22834,0 -0.344748,-0.12984 -0.116408,-0.134317 -0.116408,-0.385043 0,-0.125363 0.06268,-0.447725 0.0582,-0.282066 0.0582,-0.38952 0,-0.07164 -0.04925,-0.07164 -0.05821,0 -0.165658,0.152227 -0.107454,0.147749 -0.214908,0.393997 -0.107454,0.246249 -0.174613,0.51936 -0.04925,0.214908 -0.116408,0.286544 -0.06268,0.07164 -0.205953,0.07164 -0.147749,0 -0.223863,-0.138795 -0.07163,-0.143271 -0.07163,-0.344747 0,-0.170136 0.04477,-0.492497 0.03582,-0.286544 0.03582,-0.376089 0,-0.07164 -0.04925,-0.07164 -0.06716,0 -0.170135,0.161181 -0.102977,0.161181 -0.201476,0.411907 -0.09402,0.250725 -0.152226,0.492496 -0.04925,0.210431 -0.116409,0.286544 -0.06268,0.07164 -0.201476,0.07164 z" />
          <path
             inkscape:connector-curvature="0"
             id="path824"
             style="font-style:normal;font-variant:normal;font-weight:normal;font-stretch:normal;font-size:4.47724438px;font-family:Pacifico;-inkscape-font-specification:'Pacifico, Normal';font-variant-ligatures:normal;font-variant-caps:normal;font-variant-numeric:normal;font-feature-settings:normal;text-align:start;writing-mode:lr-tb;text-anchor:start;fill:#000000;fill-opacity:0.26666667;stroke-width:0.16789667"
             d="m 61.928191,32.688338 q 0.0582,0 0.08955,0.05373 0.03582,0.05373 0.03582,0.147749 0,0.17909 -0.08507,0.277589 -0.205953,0.237294 -0.425338,0.389521 -0.214908,0.152226 -0.492497,0.152226 -0.228339,0 -0.344748,-0.12984 Q 60.5895,33.444996 60.5895,33.19427 q 0,-0.125363 0.06268,-0.447725 0.05821,-0.282066 0.05821,-0.38952 0,-0.07164 -0.04925,-0.07164 -0.0582,0 -0.165658,0.152227 -0.107454,0.147749 -0.214908,0.393997 -0.107454,0.246249 -0.174612,0.51936 -0.08507,0.35818 -0.420861,0.35818 -0.134318,0 -0.17909,-0.09402 -0.0403,-0.0985 -0.0403,-0.349225 0,-0.143272 0.0045,-0.22834 l 0.0045,-0.358179 q 0,-0.689496 0.138795,-1.437196 0.143271,-0.747699 0.416383,-1.253628 0.27759,-0.510406 0.662633,-0.510406 0.205953,0 0.331316,0.17909 0.12984,0.174612 0.12984,0.456679 0,0.452201 -0.264158,0.940221 -0.264157,0.483542 -0.859631,1.132743 -0.01343,0.232817 -0.01343,0.479065 0.147749,-0.380566 0.326838,-0.61786 0.183567,-0.241771 0.35818,-0.344747 0.17909,-0.102977 0.326839,-0.102977 0.291021,0 0.291021,0.291021 0,0.174612 -0.0985,0.631291 -0.08507,0.38952 -0.08507,0.514883 0,0.17909 0.12984,0.17909 0.08954,0 0.21043,-0.107454 0.125363,-0.111931 0.331316,-0.358179 0.05373,-0.06268 0.120886,-0.06268 z m -1.329742,-2.766937 q -0.08059,0 -0.179089,0.232817 -0.0985,0.228339 -0.192522,0.622337 -0.08955,0.38952 -0.147749,0.850676 0.277589,-0.326838 0.456679,-0.711882 0.183567,-0.385043 0.183567,-0.69845 0,-0.143271 -0.03134,-0.219385 -0.03134,-0.07611 -0.08955,-0.07611 z" />
          <path
             inkscape:connector-curvature="0"
             id="path826"
             style="font-style:normal;font-variant:normal;font-weight:normal;font-stretch:normal;font-size:4.47724438px;font-family:Pacifico;-inkscape-font-specification:'Pacifico, Normal';font-variant-ligatures:normal;font-variant-caps:normal;font-variant-numeric:normal;font-feature-settings:normal;text-align:start;writing-mode:lr-tb;text-anchor:start;fill:#000000;fill-opacity:0.26666667;stroke-width:0.16789667"
             d="m 64.072581,32.31225 q 0.0582,0 0.08955,0.0582 0.03134,0.0582 0.03134,0.147749 0,0.111931 -0.03134,0.174613 -0.03134,0.0582 -0.0985,0.08059 -0.268635,0.09402 -0.590996,0.107454 -0.08955,0.371611 -0.340271,0.599951 -0.246248,0.228339 -0.546224,0.228339 -0.452202,0 -0.658155,-0.344748 -0.205953,-0.344748 -0.205953,-0.998425 0,-0.577565 0.143272,-1.253629 0.143272,-0.680541 0.416384,-1.155129 0.277589,-0.479065 0.658154,-0.479065 0.205954,0 0.331317,0.17909 0.125362,0.174612 0.125362,0.456679 0,0.367134 -0.138794,0.729791 -0.138795,0.362656 -0.461156,0.761131 0.299975,0.02239 0.488019,0.250726 0.188045,0.223862 0.223862,0.555178 0.210431,-0.01343 0.501452,-0.08955 0.02686,-0.009 0.06268,-0.009 z m -1.235719,-2.390849 q -0.08955,0 -0.196999,0.268635 -0.102977,0.264157 -0.192521,0.720836 -0.08955,0.456679 -0.134318,0.998426 0.295498,-0.541747 0.470111,-0.953653 0.17909,-0.416384 0.17909,-0.738746 0,-0.143271 -0.03582,-0.219385 -0.03134,-0.07611 -0.08954,-0.07611 z m -0.232817,3.313161 q 0.138795,0 0.246249,-0.116408 0.107453,-0.116409 0.143271,-0.335794 -0.138794,-0.09402 -0.214907,-0.246248 -0.07164,-0.152226 -0.07164,-0.322362 0,-0.06268 0.01791,-0.170135 h -0.01343 q -0.183567,0 -0.30893,0.183567 -0.120885,0.17909 -0.120885,0.483542 0,0.255203 0.09402,0.389521 0.0985,0.134317 0.228339,0.134317 z" />
          <path
             inkscape:connector-curvature="0"
             id="path828"
             style="font-style:normal;font-variant:normal;font-weight:normal;font-stretch:normal;font-size:4.47724438px;font-family:Pacifico;-inkscape-font-specification:'Pacifico, Normal';font-variant-ligatures:normal;font-variant-caps:normal;font-variant-numeric:normal;font-feature-settings:normal;text-align:start;writing-mode:lr-tb;text-anchor:start;fill:#000000;fill-opacity:0.26666667;stroke-width:0.16789667"
             d="m 64.124769,33.70915 q -0.170135,0 -0.241771,-0.17909 -0.06716,-0.17909 -0.06716,-0.573087 0,-0.582042 0.165658,-1.105879 0.0403,-0.129841 0.12984,-0.188045 0.09402,-0.06268 0.259681,-0.06268 0.08954,0 0.125362,0.02239 0.03582,0.02239 0.03582,0.08507 0,0.07164 -0.06716,0.322361 -0.04477,0.17909 -0.07164,0.313407 -0.02686,0.134318 -0.04477,0.331317 0.147749,-0.385043 0.331317,-0.626815 0.183567,-0.241771 0.358179,-0.344747 0.17909,-0.102977 0.326839,-0.102977 0.291021,0 0.291021,0.291021 0,0.0582 -0.0403,0.282066 -0.03582,0.17909 -0.03582,0.223862 0,0.156704 0.111931,0.156704 0.125363,0 0.322361,-0.196999 0.05821,-0.0582 0.120886,-0.0582 0.0582,0 0.08955,0.05373 0.03582,0.04925 0.03582,0.134317 0,0.165658 -0.08955,0.25968 -0.125363,0.129841 -0.295498,0.223863 -0.165658,0.08955 -0.353703,0.08955 -0.237294,0 -0.362656,-0.120886 -0.120886,-0.120886 -0.120886,-0.326839 0,-0.06716 0.01343,-0.134317 0.009,-0.08955 0.009,-0.120886 0,-0.07164 -0.04925,-0.07164 -0.06716,0 -0.17909,0.152227 -0.107454,0.147749 -0.214908,0.393997 -0.107454,0.246249 -0.174612,0.51936 -0.04925,0.210431 -0.116409,0.286544 -0.06268,0.07164 -0.201476,0.07164 z" />
          <path
             inkscape:connector-curvature="0"
             id="path830"
             style="font-style:normal;font-variant:normal;font-weight:normal;font-stretch:normal;font-size:4.47724438px;font-family:Pacifico;-inkscape-font-specification:'Pacifico, Normal';font-variant-ligatures:normal;font-variant-caps:normal;font-variant-numeric:normal;font-feature-settings:normal;text-align:start;writing-mode:lr-tb;text-anchor:start;fill:#000000;fill-opacity:0.26666667;stroke-width:0.16789667"
             d="m 68.13673,32.697293 q 0.0582,0 0.08954,0.0582 0.03582,0.05373 0.03582,0.138795 0,0.102976 -0.03134,0.16118 -0.03134,0.0582 -0.0985,0.102977 -0.385043,0.25968 -0.564132,0.385043 l -0.286544,0.192521 q -0.170135,0.92679 -0.447725,1.455105 -0.273111,0.532792 -0.69845,0.532792 -0.228339,0 -0.371611,-0.143272 -0.143272,-0.138794 -0.143272,-0.367134 0,-0.317884 0.250726,-0.685018 0.250726,-0.362657 0.940221,-0.895449 l 0.02686,-0.174613 q -0.07611,0.120886 -0.201476,0.188045 -0.120886,0.06268 -0.241771,0.06268 -0.27759,0 -0.443248,-0.201476 -0.165658,-0.201476 -0.165658,-0.528315 0,-0.358179 0.165658,-0.676064 0.165658,-0.322361 0.43877,-0.514883 0.277589,-0.196999 0.586519,-0.196999 0.0985,0 0.12984,0.0403 0.03582,0.03582 0.05821,0.134317 0.08507,-0.01791 0.196998,-0.01791 0.111931,0 0.156704,0.03582 0.04925,0.03134 0.04925,0.12984 0,0.05373 -0.0045,0.08507 -0.01791,0.138794 -0.111931,0.702927 -0.01791,0.107454 -0.0403,0.237294 -0.01791,0.125363 -0.0403,0.268635 0.344748,-0.268635 0.662632,-0.474588 0.0582,-0.03582 0.102977,-0.03582 z m -1.580468,0.559655 q 0.102977,0 0.196999,-0.125363 0.09402,-0.125362 0.134317,-0.358179 l 0.143272,-0.765609 q -0.183567,0.0045 -0.34027,0.143272 -0.156704,0.134317 -0.250726,0.358179 -0.09402,0.223863 -0.09402,0.474588 0,0.138795 0.05373,0.205954 0.0582,0.06716 0.156703,0.06716 z m -0.371611,2.032669 q 0.111931,0 0.250726,-0.268634 0.143272,-0.268635 0.273112,-0.855154 -0.344748,0.295498 -0.496974,0.532792 -0.152227,0.237294 -0.152227,0.416384 0,0.07611 0.02686,0.125363 0.03134,0.04925 0.0985,0.04925 z" />
          <path
             inkscape:connector-curvature="0"
             id="path832"
             style="font-style:normal;font-variant:normal;font-weight:normal;font-stretch:normal;font-size:4.47724438px;font-family:Pacifico;-inkscape-font-specification:'Pacifico, Normal';font-variant-ligatures:normal;font-variant-caps:normal;font-variant-numeric:normal;font-feature-settings:normal;text-align:start;writing-mode:lr-tb;text-anchor:start;fill:#000000;fill-opacity:0.26666667;stroke-width:0.16789667"
             d="m 68.252229,33.70915 q -0.170136,0 -0.241771,-0.17909 -0.06716,-0.17909 -0.06716,-0.573087 0,-0.582042 0.165658,-1.105879 0.0403,-0.129841 0.12984,-0.188045 0.09402,-0.06268 0.25968,-0.06268 0.08955,0 0.125363,0.02239 0.03582,0.02239 0.03582,0.08507 0,0.07164 -0.06716,0.322361 -0.04477,0.17909 -0.07164,0.313407 -0.02686,0.134318 -0.04477,0.331317 0.147749,-0.385043 0.331316,-0.626815 0.183567,-0.241771 0.35818,-0.344747 0.179089,-0.102977 0.326838,-0.102977 0.143272,0 0.214908,0.07611 0.07611,0.07164 0.07611,0.214908 0,0.116408 -0.04925,0.43877 -0.04477,0.273112 -0.07164,0.51936 -0.02686,0.241771 -0.02686,0.541747 0,0.170135 -0.07164,0.246248 -0.06716,0.07164 -0.223862,0.07164 -0.147749,0 -0.214908,-0.07611 -0.06716,-0.07611 -0.06716,-0.22834 0,-0.179089 0.06268,-0.590996 0.05373,-0.358179 0.05373,-0.456679 0,-0.07164 -0.04925,-0.07164 -0.0582,0 -0.165658,0.152227 -0.102976,0.147749 -0.214907,0.393997 -0.107454,0.246249 -0.174613,0.51936 -0.04925,0.210431 -0.116408,0.286544 -0.06268,0.07164 -0.201476,0.07164 z" />
        </g>
      </g>
    </g>
  </g>
</svg>
