<?xml version="1.0" encoding="UTF-8" standalone="no"?><!-- Generator: Gravit.io --><svg xmlns="http://www.w3.org/2000/svg" xmlns:xlink="http://www.w3.org/1999/xlink" style="isolation:isolate" viewBox="446.609 201.109 281.781 281.781" width="281.781pt" height="281.781pt"><defs><clipPath id="_clipPath_Lp6lhPYNYCfonoVmSGuBNx5oPSnx7mXz"><rect x="446.609" y="201.109" width="281.781" height="281.781"/></clipPath></defs><g clip-path="url(#_clipPath_Lp6lhPYNYCfonoVmSGuBNx5oPSnx7mXz)"><g><path d=" M 446.609 228.204 L 446.609 255.298 L 473.704 255.298 L 500.798 255.298 L 500.798 228.204 L 500.798 201.109 L 473.704 201.109 L 446.609 201.109 L 446.609 228.204 Z " fill="rgb(128,102,0)" fill-opacity="0.94956384"/><path d=" M 446.609 228.204 L 446.609 255.298 L 473.704 255.298 L 500.798 255.298 L 500.798 228.204 L 500.798 201.109 L 473.704 201.109 L 446.609 201.109 L 446.609 228.204 Z " fill="rgb(128,102,0)" fill-opacity="0.94956384"/><path d=" M 446.609 228.204 L 446.609 255.298 L 473.704 255.298 L 500.798 255.298 L 500.798 228.204 L 500.798 201.109 L 473.704 201.109 L 446.609 201.109 L 446.609 228.204 Z " fill="rgb(128,102,0)" fill-opacity="0.94956384"/><path d=" M 446.609 228.204 L 446.609 255.298 L 473.704 255.298 L 500.798 255.298 L 500.798 228.204 L 500.798 201.109 L 473.704 201.109 L 446.609 201.109 L 446.609 228.204 Z " fill="rgb(80,22,22)" fill-opacity="0.94956384"/><path d=" M 446.609 285.102 L 446.609 312.196 L 473.704 312.196 L 500.798 312.196 L 500.798 285.102 L 500.798 258.007 L 473.704 258.007 L 446.609 258.007 L 446.609 285.102 Z " fill="rgb(120,33,33)" fill-opacity="0.94956384"/><path d=" M 446.609 342 L 446.609 369.094 L 473.704 369.094 L 500.798 369.094 L 500.798 342 L 500.798 314.906 L 473.704 314.906 L 446.609 314.906 L 446.609 342 Z " fill="rgb(200,55,55)" fill-opacity="0.94956384"/><path d=" M 446.609 398.898 L 446.609 425.993 L 473.704 425.993 L 500.798 425.993 L 500.798 398.898 L 500.798 371.804 L 473.704 371.804 L 446.609 371.804 L 446.609 398.898 Z " fill="rgb(211,95,95)" fill-opacity="0.94956384"/><path d=" M 446.609 455.796 L 446.609 482.891 L 473.704 482.891 L 500.798 482.891 L 500.798 455.796 L 500.798 428.702 L 473.704 428.702 L 446.609 428.702 L 446.609 455.796 Z " fill="rgb(211,95,95)" fill-opacity="0.94956384"/><path d=" M 503.507 455.796 L 503.507 482.891 L 530.602 482.891 L 557.696 482.891 L 557.696 455.796 L 557.696 428.702 L 530.602 428.702 L 503.507 428.702 L 503.507 455.796 Z " fill="rgb(175,198,233)" fill-opacity="0.94956384"/><path d=" M 560.406 228.204 L 560.406 255.298 L 587.5 255.298 L 614.594 255.298 L 614.594 228.204 L 614.594 201.109 L 587.5 201.109 L 560.406 201.109 L 560.406 228.204 L 560.406 228.204 Z " fill="rgb(68,85,0)" fill-opacity="0.94956386"/><path d=" M 560.406 285.102 L 560.406 312.196 L 587.5 312.196 L 614.594 312.196 L 614.594 285.102 L 614.594 258.007 L 587.5 258.007 L 560.406 258.007 L 560.406 285.102 L 560.406 285.102 Z " fill="rgb(102,128,0)" fill-opacity="0.94956384"/><path d=" M 560.406 342 L 560.406 369.094 L 587.433 369.094 L 614.461 369.094 L 614.461 342 L 614.461 314.906 L 587.433 314.906 L 560.406 314.906 L 560.406 342 L 560.406 342 Z " fill="rgb(136,170,0)" fill-opacity="0.94956384"/><path d=" M 560.406 455.796 L 560.406 482.891 L 587.5 482.891 L 614.594 482.891 L 614.594 455.796 L 614.594 428.702 L 587.5 428.702 L 560.406 428.702 L 560.406 455.796 L 560.406 455.796 Z " fill="rgb(212,255,42)" fill-opacity="0.94956384"/><path d=" M 617.304 228.204 L 617.304 255.298 L 644.398 255.298 L 671.493 255.298 L 671.493 228.204 L 671.493 201.109 L 644.398 201.109 L 617.304 201.109 L 617.304 228.204 Z " fill="rgb(85,0,68)" fill-opacity="0.94956384"/><path d=" M 617.304 285.102 L 617.304 312.196 L 644.398 312.196 L 671.493 312.196 L 671.493 285.102 L 671.493 258.007 L 644.398 258.007 L 617.304 258.007 L 617.304 285.102 Z " fill="rgb(128,0,102)" fill-opacity="0.94956384"/><path d=" M 617.304 342 L 617.304 369.094 L 644.398 369.094 L 671.493 369.094 L 671.493 342 L 671.493 314.906 L 644.398 314.906 L 617.304 314.906 L 617.304 342 Z " fill="rgb(170,0,136)" fill-opacity="0.94956384"/><path d=" M 617.304 455.796 L 617.304 482.891 L 644.398 482.891 L 671.493 482.891 L 671.493 455.796 L 671.493 428.702 L 644.398 428.702 L 617.304 428.702 L 617.304 455.796 Z " fill="rgb(255,42,212)" fill-opacity="0.94956384"/><path d=" M 674.202 228.204 L 674.202 255.298 L 701.296 255.298 L 728.391 255.298 L 728.391 228.204 L 728.391 201.109 L 701.296 201.109 L 674.202 201.109 L 674.202 228.204 Z " fill="rgb(85,68,0)" fill-opacity="0.94956384"/><path d=" M 674.202 285.102 L 674.202 312.196 L 701.296 312.196 L 728.391 312.196 L 728.391 285.102 L 728.391 258.007 L 701.296 258.007 L 674.202 258.007 L 674.202 285.102 Z " fill="rgb(128,102,0)" fill-opacity="0.94956384"/><path d=" M 674.202 342 L 674.202 369.094 L 701.296 369.094 L 728.391 369.094 L 728.391 342 L 728.391 314.906 L 701.296 314.906 L 674.202 314.906 L 674.202 342 Z " fill="rgb(170,136,0)" fill-opacity="0.94956384"/><path d=" M 674.202 398.898 L 674.202 425.993 L 701.296 425.993 L 728.391 425.993 L 728.391 398.898 L 728.391 371.804 L 701.296 371.804 L 674.202 371.804 L 674.202 398.898 Z " fill="rgb(212,170,0)" fill-opacity="0.94956384"/><path d=" M 674.202 455.796 L 674.202 482.891 L 701.296 482.891 L 728.391 482.891 L 728.391 455.796 L 728.391 428.702 L 701.296 428.702 L 674.202 428.702 L 674.202 455.796 Z " fill="rgb(255,204,0)" fill-opacity="0.94956384"/></g></g></svg>