<?xml version="1.0" encoding="utf-8"?>
<svg version="1.1" id="Layer_1" xmlns="http://www.w3.org/2000/svg" xmlns:xlink="http://www.w3.org/1999/xlink" x="0px" y="0px"
	 viewBox="0 0 64 64" style="enable-background:new 0 0 64 64;" xml:space="preserve">
<style type="text/css">
	.st0{fill:none;stroke:#ffffff;stroke-width:2;stroke-linejoin:round;}
</style>
<title></title>
<polyline class="st0" points="49,57 29,57 29,53 61,53 61,57 55,57 "/>
<polyline class="st0" points="59,57 57,61 33,61 31,57 "/>
<line class="st0" x1="53" y1="57" x2="51" y2="57"/>
<path class="st0" d="M33,33h23l0,0v11c0,5-4,9-9,9h-5c-5,0-9-4-9-9V33L33,33z"/>
<path class="st0" d="M56,33h5v6c0,2.8-2.2,5-5,5l0,0"/>
<path class="st0" d="M35,33v-1c0-2.2,1.8-4,4-4l0,0v-1c0-2.8,2.2-5,5-5h1c2.8,0,5-2.2,5-5v-6"/>
<path class="st0" d="M54,33v-1c0-2.2,1.8-4,4-4l0,0c1.7,0,3-1.3,3-3V15"/>
<line class="st0" x1="61" y1="11" x2="61" y2="13"/>
<path class="st0" d="M44,30c0-2.2,1.8-4,4-4"/>
<path class="st0" d="M55,19v3c0,2.2-1.8,4-4,4l0,0"/>
<polyline class="st0" points="33,61 3,61 3,3 45,3 45,22 "/>
<rect x="6.6" y="33" class="st0" width="19.9" height="10"/>
<rect x="-294.3" y="-69" class="st0" width="6" height="10"/>
<line class="st0" x1="12.5" y1="24" x2="20.5" y2="24"/>
<line class="st0" x1="5.5" y1="28" x2="14.8" y2="28"/>
<line class="st0" x1="-243.7" y1="-77.5" x2="-235.7" y2="-77.5"/>
<line class="st0" x1="20.5" y1="48" x2="29" y2="48"/>
<line class="st0" x1="5.5" y1="52" x2="11.5" y2="52"/>
<line class="st0" x1="7.5" y1="56" x2="15.5" y2="56"/>
<line class="st0" x1="19.5" y1="42.1" x2="19.5" y2="36"/>
<line class="st0" x1="23.5" y1="42.1" x2="23.5" y2="39"/>
<line class="st0" x1="12" y1="48" x2="10" y2="48"/>
<line class="st0" x1="7.5" y1="24" x2="9.5" y2="24"/>
<line class="st0" x1="31.5" y1="20" x2="37.1" y2="20"/>
<line class="st0" x1="25.5" y1="24" x2="34.5" y2="24"/>
<line class="st0" x1="25.5" y1="28" x2="30.5" y2="28"/>
<rect x="-278.5" y="-96" style="fill:none;" width="40.5" height="20.8"/>
<text transform="matrix(1 0 0 1 -278.4585 -85.4582)" style="font-family:'pixelmix'; font-size:12px;">NEWS</text>
<line class="st0" x1="25.5" y1="20" x2="27.5" y2="20"/>
<line class="st0" x1="5.5" y1="20" x2="7.5" y2="20"/>
<line class="st0" x1="-251.8" y1="-97.2" x2="-249.8" y2="-97.2"/>
<line class="st0" x1="-253.8" y1="-97.2" x2="-251.8" y2="-97.2"/>
<g>
	<line class="st0" x1="36.5" y1="7" x2="38.5" y2="7"/>
	<line class="st0" x1="34.5" y1="9" x2="36.5" y2="9"/>
	<line class="st0" x1="36.5" y1="11" x2="38.5" y2="11"/>
	<line class="st0" x1="38.5" y1="7" x2="40.5" y2="7"/>
	<line class="st0" x1="38.5" y1="11" x2="40.5" y2="11"/>
	<line class="st0" x1="40.5" y1="13" x2="42.5" y2="13"/>
	<line class="st0" x1="38.5" y1="15" x2="40.5" y2="15"/>
	<line class="st0" x1="36.5" y1="15" x2="38.5" y2="15"/>
	<line class="st0" x1="34.5" y1="15" x2="36.5" y2="15"/>
	<line class="st0" x1="40.5" y1="7" x2="42.5" y2="7"/>
	<g>
		<line class="st0" x1="31.5" y1="7" x2="33.5" y2="7"/>
		<line class="st0" x1="31.5" y1="9" x2="33.5" y2="9"/>
		<line class="st0" x1="31.5" y1="11" x2="33.5" y2="11"/>
		<line class="st0" x1="31.5" y1="13" x2="33.5" y2="13"/>
	</g>
	<line class="st0" x1="23.5" y1="7" x2="25.5" y2="7"/>
	<line class="st0" x1="23.5" y1="9" x2="25.5" y2="9"/>
	<line class="st0" x1="23.5" y1="11" x2="25.5" y2="11"/>
	<line class="st0" x1="23.5" y1="13" x2="25.5" y2="13"/>
	<line class="st0" x1="27.5" y1="9" x2="29.5" y2="9"/>
	<line class="st0" x1="27.5" y1="11" x2="29.5" y2="11"/>
	<line class="st0" x1="27.5" y1="13" x2="29.5" y2="13"/>
	<line class="st0" x1="29.5" y1="15" x2="31.5" y2="15"/>
	<line class="st0" x1="25.5" y1="15" x2="27.5" y2="15"/>
	<line class="st0" x1="20.5" y1="15" x2="22.5" y2="15"/>
	<line class="st0" x1="18.5" y1="15" x2="20.5" y2="15"/>
	<line class="st0" x1="16.5" y1="15" x2="18.5" y2="15"/>
	<line class="st0" x1="16.5" y1="13" x2="18.5" y2="13"/>
	<line class="st0" x1="16.5" y1="11" x2="18.5" y2="11"/>
	<line class="st0" x1="16.5" y1="9" x2="18.5" y2="9"/>
	<line class="st0" x1="16.5" y1="7" x2="18.5" y2="7"/>
	<line class="st0" x1="18.5" y1="11" x2="20.5" y2="11"/>
	<line class="st0" x1="18.5" y1="7" x2="20.5" y2="7"/>
	<line class="st0" x1="20.5" y1="7" x2="22.5" y2="7"/>
	<line class="st0" x1="13.5" y1="15" x2="15.5" y2="15"/>
	<line class="st0" x1="13.5" y1="13" x2="15.5" y2="13"/>
	<line class="st0" x1="13.5" y1="11" x2="15.5" y2="11"/>
	<line class="st0" x1="13.5" y1="9" x2="15.5" y2="9"/>
	<line class="st0" x1="13.5" y1="7" x2="15.5" y2="7"/>
	<line class="st0" x1="5.5" y1="15" x2="7.5" y2="15"/>
	<line class="st0" x1="5.5" y1="13" x2="7.5" y2="13"/>
	<line class="st0" x1="5.5" y1="11" x2="7.5" y2="11"/>
	<line class="st0" x1="5.5" y1="9" x2="7.5" y2="9"/>
	<line class="st0" x1="5.5" y1="7" x2="7.5" y2="7"/>
	<line class="st0" x1="7.5" y1="9" x2="9.5" y2="9"/>
	<line class="st0" x1="9.5" y1="11" x2="11.5" y2="11"/>
	<line class="st0" x1="11.5" y1="13" x2="13.5" y2="13"/>
</g>
<line class="st0" x1="12.5" y1="20" x2="17" y2="20"/>
<line class="st0" x1="17.5" y1="52" x2="23.5" y2="52"/>
<line class="st0" x1="15.5" y1="52" x2="13.5" y2="52"/>
<line class="st0" x1="17.5" y1="56" x2="24.5" y2="56"/>
<line class="st0" x1="16.5" y1="28" x2="20.5" y2="28"/>
<line class="st0" x1="13.5" y1="48" x2="19.5" y2="48"/>
<line class="st0" x1="13.5" y1="37" x2="15.5" y2="37"/>
<line class="st0" x1="13.5" y1="41" x2="15.5" y2="41"/>
<line class="st0" x1="9.5" y1="39" x2="11.5" y2="39"/>
</svg>
