<?xml version="1.0" encoding="UTF-8" standalone="no"?>
<svg xmlns:svg="http://www.w3.org/2000/svg" xmlns="http://www.w3.org/2000/svg" xmlns:xlink="http://www.w3.org/1999/xlink" width="360px" height="97px" viewBox="0 0 360 97" >
<path style="fill:#ffa341;" d="M 331.25781 0.68164062 C 327.6965 0.68164063 324.13477 3.1468275 324.13477 7.8066406 L 324.13477 22.876953 L 310.43164 22.876953 C 305.77519 22.876953 303.30859 26.438963 303.30859 30.001953 C 303.30859 33.563262 305.77519 37.123047 310.43164 37.123047 L 324.13477 37.123047 L 324.13477 89.322266 C 324.13477 93.978715 327.6965 96.445312 331.25781 96.445312 C 334.81912 96.445313 338.37891 93.978715 338.37891 89.322266 L 338.37891 37.123047 L 352.08203 37.123047 C 356.74016 37.123047 359.20508 33.563262 359.20508 30.001953 C 359.20508 26.438963 356.74016 22.876953 352.08203 22.876953 L 338.37891 22.876953 L 338.37891 7.8066406 C 338.37891 3.1468275 334.81912 0.68164062 331.25781 0.68164062 z M 26.304688 22.054688 C 16.16749 22.054687 7.5347664 24.247 0 30.001953 L 0 89.322266 C -1.1842379e-15 93.978715 3.5636916 96.445312 7.125 96.445312 C 10.686309 96.445312 14.248047 93.978715 14.248047 89.322266 L 14.248047 39.042969 C 17.809356 37.535679 21.784501 36.302734 26.304688 36.302734 C 30.690295 36.302734 34.932917 37.535679 38.361328 39.042969 L 38.361328 89.322266 C 38.361328 94.252921 41.923067 96.445312 45.484375 96.445312 C 49.045684 96.445312 52.607422 93.978715 52.607422 89.322266 L 52.607422 39.042969 C 56.170413 37.535679 60.145829 36.302734 64.666016 36.302734 C 69.049941 36.302734 73.29761 37.535679 76.722656 39.042969 L 76.722656 89.322266 C 76.722656 93.978715 80.282713 96.445312 83.845703 96.445312 C 87.407012 96.445312 90.96875 93.978715 90.96875 89.322266 L 90.96875 30.001953 C 83.432302 24.247 74.804894 22.054688 64.666016 22.054688 C 54.801343 22.054687 48.909422 24.246346 45.484375 25.751953 C 42.059328 24.246346 36.16936 22.054688 26.304688 22.054688 z M 213.5918 22.054688 C 203.45124 22.054687 194.81851 24.247 187.28711 30.001953 L 187.28711 89.322266 C 187.28711 93.978715 190.84885 96.445312 194.41016 96.445312 C 197.97147 96.445312 201.53516 93.978715 201.53516 89.322266 L 201.53516 39.042969 C 205.09983 37.535679 209.06993 36.302734 213.5918 36.302734 C 217.97573 36.302734 222.2234 37.535679 225.64844 39.042969 L 225.64844 89.322266 C 225.64844 93.978715 229.20849 96.445312 232.77148 96.445312 C 236.33111 96.445312 239.89648 93.978715 239.89648 89.322266 L 239.89648 30.001953 C 232.36003 24.247 223.45479 22.054688 213.5918 22.054688 z M 273.60742 22.054688 C 263.46686 22.054688 254.83917 24.247 247.30273 30.001953 L 247.30273 88.224609 C 254.83917 93.979562 263.46686 96.175781 273.60742 96.175781 C 283.47377 96.175781 292.37734 93.979562 299.91211 88.224609 L 299.91211 78.5 C 299.91211 73.705608 296.35178 71.375 292.78711 71.375 C 289.2258 71.375 285.66211 73.705608 285.66211 78.5 L 285.66211 79.185547 C 282.24043 80.691154 277.99302 81.923828 273.60742 81.923828 C 269.08723 81.923828 265.11236 80.691154 261.55273 79.185547 L 261.55273 66.306641 L 273.60742 66.306641 C 284.29471 66.306641 292.37734 64.116281 299.91211 58.361328 L 299.91211 30.001953 C 292.37734 24.247 283.47377 22.054687 273.60742 22.054688 z M 105.97461 30.15625 C 99.420592 38.737372 96.923828 48.87758 96.923828 60.113281 C 96.923828 71.656832 99.420592 81.48778 105.97461 90.072266 L 172.2832 90.072266 C 178.83554 81.48778 181.33203 71.656832 181.33203 60.113281 C 181.33203 48.87758 178.83554 38.737372 172.2832 30.15625 L 105.97461 30.15625 z M 273.60742 36.302734 C 277.99302 36.302734 282.24043 37.535679 285.66211 39.042969 L 285.66211 49.318359 C 282.24043 50.827331 278.40349 52.058594 273.60742 52.058594 L 261.55273 52.058594 L 261.55273 39.042969 C 265.11236 37.535679 269.08723 36.302734 273.60742 36.302734 z M 116.26953 46.382812 L 161.98438 46.382812 C 163.70194 50.282252 165.10547 55.120383 165.10547 60.113281 C 165.10547 65.260944 163.70195 69.787592 161.98438 73.841797 L 116.26953 73.841797 C 114.55364 69.787592 113.15039 65.260944 113.15039 60.113281 C 113.15039 55.120383 114.55364 50.282252 116.26953 46.382812 z " />
</svg>