<svg width="188" height="107" viewBox="0 0 188 107" xmlns="http://www.w3.org/2000/svg"><title>Group</title><desc>Created with Sketch.</desc><defs><filter x="-50%" y="-50%" width="200%" height="200%" filterUnits="objectBoundingBox" id="a"><feOffset dy="1" in="SourceAlpha" result="shadowOffsetOuter1"/><feGaussianBlur stdDeviation=".5" in="shadowOffsetOuter1" result="shadowBlurOuter1"/><feColorMatrix values="0 0 0 0 0 0 0 0 0 0 0 0 0 0 0 0 0 0 0.25 0" in="shadowBlurOuter1" result="shadowMatrixOuter1"/><feMerge><feMergeNode in="shadowMatrixOuter1"/><feMergeNode in="SourceGraphic"/></feMerge></filter></defs><g filter="url(#a)" fill="#fff"><path d="M180.719 88.67l-.332-1.253v1.357c0 .075-.018.131-.053.169l-.141.056-.139-.056c-.036-.037-.054-.094-.054-.17v-1.556c0-.086.024-.144.071-.174l.191-.045h.13l.17.02.079.072.058.17.301 1.077.301-1.077.058-.17.079-.072.17-.02h.13l.191.045c.047.03.071.088.071.174v1.556c0 .075-.018.131-.053.169l-.142.056-.137-.056c-.036-.038-.054-.094-.054-.169v-1.357l-.332 1.253-.053.179-.076.104-.153.047-.124-.03-.079-.077-.045-.104-.033-.119zM179.756 87.329h-.52v1.429c0 .082-.022.143-.066.183-.044.04-.101.06-.17.06-.071 0-.128-.02-.173-.06-.044-.04-.067-.101-.067-.182v-1.429h-.52l-.181-.045-.059-.119.062-.121.179-.044h1.515c.082 0 .144.015.184.046l.06.119-.061.119-.183.045z"/><path d="M169.842 105c-1.534-.035-3.039-.236-4.469-.822-.38-.156-.759-.329-1.107-.544-1.19-.734-1.562-1.693-1.027-2.58.569-.944 1.554-1.048 2.829-.319 1.617.925 3.335 1.379 5.206 1.02.337-.064.671-.193.98-.345.645-.315 1.062-.833 1.05-1.562-.012-.716-.513-1.119-1.125-1.395-1.019-.459-2.117-.652-3.192-.922-1.047-.263-2.091-.533-3.072-.993-1.686-.79-2.73-2.051-2.815-3.943-.086-1.923.735-3.42 2.36-4.46 1.351-.866 2.868-1.171 4.455-1.132 1.666.041 3.289.321 4.792 1.073 1.266.633 1.697 1.5 1.236 2.38-.471.898-1.601 1.158-2.747.598-1.247-.609-2.548-.951-3.946-.917-.454.011-.89.093-1.297.269-.657.284-1.104.76-1.112 1.509-.007.71.501 1.055 1.072 1.307 1.08.477 2.247.662 3.382.956 1.015.263 2.031.529 2.967 1.005 1.674.852 2.712 2.118 2.738 4.088.027 2.064-.725 3.677-2.557 4.734-1.425.823-2.998.977-4.6.995"/><path d="M149.668 91.097l-.277.002c-.865 2.323-1.733 4.646-2.595 6.971-.173.467.106.536.495.531 1.006-.01 2.012-.003 3.017-.003 2.151 0 2.152 0 1.414-1.984l-2.054-5.517m-.653-4.096c2.032.03 3.074.682 3.606 2.012 1.745 4.366 3.476 8.736 5.188 13.114.493 1.262.005 2.362-1.132 2.748-1.132.383-2.088-.126-2.586-1.377-.675-1.698-.675-1.698-2.497-1.698-1.725 0-3.451.025-5.176-.013-.625-.014-.963.192-1.131.78-.13.459-.308.912-.523 1.339-.486.963-1.575 1.342-2.562.929-.914-.382-1.453-1.437-1.084-2.379 1.794-4.586 3.595-9.171 5.465-13.728.511-1.245 1.644-1.754 2.433-1.727"/><path d="M124.006 95.856c0-2.26-.014-4.521.005-6.781.012-1.347.759-2.126 1.918-2.072 1.031.048 1.653.824 1.656 2.14.011 3.81.03 7.621-.015 11.431-.011.907.196 1.251 1.112 1.206 1.536-.076 3.077-.031 4.616-.015 1.033.011 1.722.68 1.701 1.608-.02.934-.711 1.607-1.726 1.614-2.339.016-4.679.017-7.019.001-1.413-.009-2.229-.855-2.244-2.352-.023-2.26-.006-4.521-.006-6.781"/><path d="M101.006 93.711c0-1.586-.016-3.172.005-4.757.017-1.255.698-1.953 1.841-1.953 1.123 0 1.799.722 1.805 1.98.012 2.759-.011 5.518.011 8.277.019 2.384.934 3.844 2.849 4.305 3.461.833 5.718-.991 5.66-4.083-.052-2.79-.026-5.582-.002-8.372.012-1.47.874-2.255 2.214-2.085.827.105 1.464.61 1.472 1.388.039 3.673.365 7.371-.14 11.016-.429 3.09-2.521 4.916-5.722 5.398-1.903.286-3.827.27-5.667-.414-2.667-.992-4.084-2.966-4.265-5.754-.107-1.642-.02-3.296-.02-4.945h-.04"/><path d="M78.806 92.634c-.303.485-.204.842-.205 1.177-.011 3.107-.014 6.214-.008 9.321.001.751-.322 1.296-.962 1.637-.642.342-1.286.295-1.879-.135-.526-.381-.752-.909-.751-1.57.009-4.612-.003-9.225.01-13.837.003-1.146.607-1.86 1.726-2.06 2.06-.368 3.633.146 4.422 2.383.963 2.733 2.123 5.394 3.196 8.08.455-.05.438-.408.532-.64 1.053-2.604 2.082-5.218 3.134-7.822.769-1.904 3.186-2.741 4.983-1.745.635.352.988.886.989 1.628.004 4.708.018 9.417-.003 14.125-.005 1.068-.829 1.835-1.811 1.824-.982-.011-1.77-.8-1.777-1.866-.019-3.107-.005-6.214-.013-9.321-.001-.34.081-.695-.09-1.042-.41.087-.392.477-.498.74-1.37 3.405-2.725 6.817-4.079 10.229-.241.608-.482 1.256-1.262 1.236-.727-.018-.94-.639-1.17-1.218-1.331-3.352-2.672-6.7-4.012-10.048-.127-.318-.274-.628-.47-1.077"/><path d="M117.984 34.57c-1.068 0-2.923.041-4.774-.021-.734-.025-.909.233-.918.915-.059 4.056-.137 8.113-.24 12.168-.017.685.236.872.873.88 3.487.042 6.972.12 10.458.187.662.013 1.313-.057 1.966-.171 3.439-.604 5.738-3.162 5.821-6.501.089-3.594-2.008-6.296-5.546-7.015-2.259-.459-4.569-.266-7.641-.443m-16.538 15.31c.089-5.275.193-11.831.315-18.388.059-3.198 1.691-5.491 4.427-6.282.673-.195 1.364-.22 2.056-.208 5.598.096 11.197.181 16.794.298 4.213.088 8.183 1.021 11.501 3.842 4.222 3.589 5.705 8.35 5.43 13.778-.165 3.26-1.09 6.282-3.092 8.893-1.878 2.448-4.292 4.114-7.24 4.914-.886.24-.884.539-.474 1.263 2.073 3.654 4.122 7.323 6.135 11.011 1.466 2.687.59 5.84-1.961 7.299-2.621 1.499-5.744.523-7.223-2.303-2.568-4.908-5.13-9.82-7.638-14.76-.446-.879-.937-1.249-1.934-1.22-1.884.055-3.774-.02-5.659-.105-.77-.034-1.036.193-1.042 1.006-.031 4.062-.11 8.124-.191 12.185-.055 2.742-1.934 4.865-4.666 5.316-2.383.394-4.856-1.177-5.68-3.615-.237-.701-.318-1.426-.302-2.169.142-6.491.278-12.983.443-20.756"/><path d="M37.956 101.792c3.132.026 5.357-2.33 5.382-5.696.025-3.453-2.152-5.904-5.27-5.933-3.117-.029-5.391 2.423-5.397 5.821-.006 3.383 2.178 5.783 5.286 5.808m.032 3.208c-5.207-.003-8.988-3.792-8.988-9.007 0-5.241 3.807-9.007 9.09-8.993 5.209.014 8.924 3.787 8.91 9.049-.014 5.231-3.762 8.954-9.012 8.951"/><path d="M11.006 96.091c-.001-2.256-.015-4.512.004-6.769.013-1.54.723-2.287 2.268-2.304 2.957-.033 5.915-.012 8.873-.009.78.001 1.402.249 1.724 1.028.254.614.102 1.14-.279 1.624-.407.518-1.01.546-1.611.547-2.07.002-4.142.034-6.211-.014-.826-.019-1.119.249-1.047 1.05.061.672.052 1.356.002 2.029-.051.675.209.906.89.895 1.84-.029 3.681-.008 5.521-.006.296 0 .592-.009.887.009 1.126.07 1.806.71 1.775 1.658-.029.915-.683 1.511-1.787 1.527-2.004.028-4.01.051-6.013-.005-.948-.027-1.358.182-1.287 1.221.1 1.476.038 2.964.02 4.446-.013 1.141-.795 1.956-1.854 1.98-1.035.024-1.854-.791-1.866-1.947-.024-2.32-.007-4.641-.008-6.962"/><path d="M178.698 77.953c-6.708-.379-13.416-.758-20.124-1.136-1.285-.073-2.571-.141-3.856-.218-3.355-.201-5.824-2.8-5.716-6.202.121-3.807.383-7.61.591-11.415.228-4.153.471-8.305.695-12.458.266-4.946.482-9.895.789-14.839.217-3.502 3.179-5.914 6.634-5.669 4.071.29 8.15.449 12.226.676 4.389.244 8.779.47 13.164.763 2.385.16 3.959 2.269 3.897 5.06-.048 2.166-1.918 4.18-4.086 4.202-2.101.022-4.205-.122-6.305-.231-4.421-.229-8.839-.497-13.26-.721-1.93-.098-1.911-.065-1.993 1.88-.111 2.633-.24 5.265-.401 7.896-.043.714.12.97.897 1.01 6.459.332 12.915.71 19.371 1.093 2.454.145 4.315 2.274 4.251 4.806-.062 2.46-2.041 4.544-4.462 4.489-3.232-.073-6.461-.287-9.69-.452-3.418-.175-6.835-.356-10.252-.554-.471-.027-.67.076-.695.597-.165 3.393-.352 6.785-.551 10.177-.031.539.068.79.685.819 3.136.15 6.269.355 9.404.531 3.605.202 7.212.365 10.815.597 2.337.151 4.265 2.39 4.161 4.724-.115 2.588-2.084 4.581-4.588 4.621-.533.008-1.066-.05-1.599-.077l-.002.031z"/><path d="M59.944 95.223l1.225-.001c.408-.003.81-.01 1.213-.125 1.314-.378 1.951-1.254 1.865-2.614-.075-1.183-.856-1.997-2.126-2.188-1.219-.183-2.448-.028-3.67-.096-.724-.04-.945.278-.891.971.043.543.008 1.093.008 1.64 0 2.411 0 2.411 2.377 2.412m-5.938.818c-.001-2.289-.014-4.577.004-6.865.01-1.322.739-2.137 2.033-2.152 2.327-.027 4.66-.057 6.982.071 2.6.143 4.502 2.007 4.887 4.558.425 2.819-.697 5.069-3.148 6.136-.575.25-.537.457-.273.898.657 1.099 1.297 2.208 1.921 3.326.619 1.109.378 2.243-.555 2.754-.937.513-1.906.164-2.519-.947-.804-1.458-1.616-2.913-2.356-4.405-.356-.719-.78-1.029-1.599-.989-2.071.101-1.789-.307-1.815 1.842-.011.935.012 1.87-.007 2.804-.023 1.131-.794 1.937-1.812 1.928-.969-.009-1.727-.802-1.736-1.901-.02-2.353-.006-4.705-.007-7.058"/><path d="M95.583 43.43c.254 4.532.521 9.063.375 13.594-.122 3.777-1.014 7.371-3.042 10.617-2.64 4.226-6.514 6.812-11.267 8.065-6.796 1.792-13.605 1.872-20.227-.703-6.839-2.659-10.466-7.944-11.65-15.023-.324-1.936-.375-3.895-.402-5.858-.11-8.003-.281-16.004-.371-24.007-.048-4.275 4.524-6.958 8.242-4.863 1.865 1.051 2.741 2.706 2.771 4.854.101 7.231.219 14.462.361 21.693.051 2.594-.074 5.208.706 7.742 1.392 4.52 5.069 7.433 9.805 7.723 1.97.121 3.933.093 5.859-.419 4.796-1.273 7.987-5.26 8.06-10.319.113-7.843-.199-15.683-.297-23.525-.019-1.538-.247-3.085.065-4.613.597-2.927 3.084-4.649 6.233-4.357 2.631.244 4.749 2.556 4.768 5.321.034 4.692.009 9.385.009 14.077"/><path d="M22.802 36.464c-3.367.202-6.733.436-10.102.584-.824.036-.991.316-.941 1.073.266 4.016.502 8.033.718 12.052.029.533.19.733.722.696 1.226-.085 2.456-.116 3.682-.206 2.797-.205 5.615-.156 8.391-.579 3.38-.515 5.774-3.174 5.853-6.355.093-3.731-1.896-6.303-5.496-7.106-.934-.208-1.881-.154-2.828-.16m1.72-9.456c5.311-.115 9.768 1.139 13.221 4.88 3.421 3.707 4.608 8.204 4.17 13.168-.409 4.63-2.393 8.426-6.136 11.211-2.851 2.122-6.134 3.047-9.625 3.267-3.901.246-7.807.419-11.71.638-1.414.079-1.43.098-1.348 1.538.22 3.828.436 7.656.692 11.482.197 2.948-1.971 5.594-4.804 5.792-3.189.223-5.687-1.922-5.866-5.093-.344-6.107-.647-12.215-.989-18.322l-1.072-18.507c-.064-1.139-.062-2.283-.049-3.424.033-2.858 2.427-5.414 5.286-5.61 3.114-.213 6.23-.389 9.346-.562 3.085-.171 6.171-.32 8.883-.459"/><path d="M90.249.737c.38 1.049.57 2.193.665 3.337.855 9.057-4.751 17.255-13.113 20.02-1.33.477-2.661.763-3.991.858-2.851.191-5.606-.191-8.172-1.049-6.747-2.479-11.783-8.58-12.543-16.207-.19-1.907-.095-3.623.285-5.434 1.14-.286 2.376-.572 3.611-.667 5.226-.477 10.167 1.144 13.968 4.29 3.136-3.241 7.412-5.339 12.163-5.815 2.471-.191 4.941 0 7.127.667zm-16.534 22.022c8.837-.477 15.679-8.103 15.109-16.969 0-1.049-.19-2.193-.475-3.241-1.425-.381-3.041-.477-4.656-.381-8.932.286-15.679 8.008-15.204 16.969 0 .667.095 1.239.19 1.907 0 0 5.036-2.765 10.072-7.913 0 0 1.805-2.288 2.09-.572 0 0 .095 1.907-4.561 6.769 0 0-3.041 3.051-3.706 3.432h1.14z" fill-rule="nonzero"/></g></svg>