<svg width="200" height="52" viewBox="0 0 200 52" xmlns="http://www.w3.org/2000/svg">
    <title>Pure Formulas logo</title>
    <g fill="#fff">
        <path d="M128.196 45.167c-.328-1-1.147-1.666-3.442-1.666-1.311 0-2.459.333-2.459 1.166 0 .5.164.833 2.131 1.166l2.295.333c2.13.333 3.278 1.168 3.278 2.667 0 2.334-2.131 3.167-4.59 3.167-4.098 0-5.081-1.999-5.41-2.667l1.804-.666c.328.666 1.147 1.667 3.606 1.667 1.476 0 2.787-.5 2.787-1.334 0-.5-.655-1-2.131-1.166l-2.294-.333c-2.131-.167-3.442-1.166-3.442-2.667 0-2.834 3.77-2.834 4.425-2.834 4.098 0 4.918 1.834 5.082 2.5l-1.64.666zM114 52h2v-10h-2zM98 52h1.834v-3.965h2.999l2.834 3.965h2.334l-3-4.138c1.501 0 2.667-1.035 2.667-2.931 0-2.414-1.666-2.931-3.833-2.931h-5.834v10zm1.834-5.518v-2.93h3.667c1.499 0 2.334.343 2.334 1.379 0 1.206-.834 1.551-2.334 1.551h-3.667zM82 52h1.913l.956-2.24h5.261l.956 2.24h1.913l-4.464-10h-2.072l-4.464 10zm3.666-3.965l1.913-4.482 1.913 4.482h-3.827zM70 52h1.897v-3.965h3.621c1.723 0 4.482 0 4.482-2.931 0-3.104-2.759-3.104-4.482-3.104h-5.518v10zm1.897-5.518v-2.758h4.138c1.034 0 2.068 0 2.068 1.379 0 1.206-1.034 1.379-2.068 1.379h-4.138z"/>
        <path d="M185.95 21.669v10.959c0 2.192-.161 2.361 1.291 2.361h7.429c5.975-.337 4.844-4.72 5.33-4.889l-.161 5.9h-20.833c-.161-.169 3.068.338 3.068-4.383v-20.232c0-4.722-2.907-4.047-2.907-4.385h20.671l.161 5.733c-.324 0 .807-4.552-5.491-4.889h-6.782c-1.131.337-1.777-.507-1.777 2.36v7.588000000000001c0 1.011.161 1.18 1.453 1.18h6.784c3.23 0 2.907-3.203 3.068-3.203v7.587c-.161 0 .161-3.541-2.907-3.372h-6.784c-1.453 0-1.614.507-1.614 1.518v.169z"/>
        <path d="M172.878 31.306c.493 5.029 2.958 4.19 3.122 4.694h-9.531c-.164-.169 2.629-.169 2.137-4.359l-2.465-19.109c-.164-.503-.164-1.005-.493-1.005-.164.168-8.381 20.617-8.381 20.617-.164.335-.329.503-.657 0-.164-.335-7.724-17.265-7.724-17.265-.329-.838-.986-2.18-1.15-2.515-.164-.335-.493-.335-.493 1.005l-1.972 19.277c-.493 3.354 2.629 3.185 2.629 3.354h-6.901c0-.169 2.3.168 2.792-3.354l2.301-21.287c-.164-4.191-2.958-4.024-2.958-4.359h7.231v.335l7.558 16.931.329.335c.164.503.164.838.493.335l7.395-17.936h6.901c0 .335-2.794.168-2.794 3.689l2.629 20.617zM137 6l-11.583-6-11.417 6 11.417-3.706zM125.916 34.012c-5.698 0-9.385-5.273-9.385-13.182 0-9.227 3.854-13.677 9.385-13.677s9.385 4.45 9.385 13.677c0 7.909-3.854 13.017-9.385 13.182m.168-28.012c-9.218 0-15.084 7.085-15.084 14.665 0 7.579 5.866 14.335 14.916 14.335s15.084-6.756 15.084-14.335c0-7.58-5.866-14.665-14.916-14.665M98.03 34.844c6.534 0 9.312-4.629 9.965-4.794.163 0-3.267 5.95-9.965 5.95-15.193 0-15.03-14.048-15.03-14.048.49-9.751 8.332-15.702 15.846-14.876 2.124.33 2.941.661 4.412.991.653.33 2.614 1.323 3.267.993.49-.165.98-1.323 1.143-1.323v7.604c-.49 0-2.286-7.273-9.475-7.273-5.881 0-10.455 6.776-10.291 13.554.163 11.238 7.841 13.222 10.128 13.222" id="Shape"/><path d="M58.834 32.753c.333 3.489 3 2.659 3 2.991h-7.499c0-.332 2.999 0 2.999-3.157v-21.6c0-3.655-3.166-3.655-3.333-3.987h7.667l15.666 19.44-.167-15.784c0-3.821-3-3.489-3-3.655h7.834c0 .166-3.001.166-3.166 3.655v24.425s.165 1.827-1.001.332c-.5-.664-18.832-23.76-18.832-23.76-.167-.332-.167 0-.167.498v20.603zM33.82 22c-.654 0-.654-.5-.327-1.168 0 0 2.455-6.5 2.783-7.167.491-1 .818-.833 1.145 0l2.455 7.335c.327.666.654 1-.164 1h-5.892zm15.058 10.334l-10.311-25.002c-.819-.833-1.147.167-1.147.167-.982 2.334-10.475 25.503-10.475 25.503-1.31 3.166-2.946 2.832-2.946 2.999h6.711c0-.333-3.601.167-2.292-2.999l3.437-8.834c.491-.668.491-.834 1.31-.834h6.711c.818 0 .818 0 1.31.834l3.273 8.5c.982 3.333-1.965 3.167-1.965 3.333h9.493c.164-.333-1.474.668-3.11-3.667zM15 34.018h-3.833c-1.334 0-3 .164-3-1.309v-21.943c0-3.438 3.833-3.438 4-3.766h-11.834c-.167.327 3.668.327 3.668 3.929v21.123c0 2.784-4.001 2.784-4.001 2.947h20.834l1.166-6.059c-.5 0-.167 4.913-7 5.076"/>
    </g>
</svg>
