<svg xmlns:svg="http://www.w3.org/2000/svg" xmlns="http://www.w3.org/2000/svg" width="480px" height="204px" viewBox="0 0 480 204" >
<path style="fill:#da9a00;" d="M 68.785156 0.703125 C 32.00013 0.703125 0 36.206373 0 80.857422 C 0 125.50847 32.00013 161.01172 68.785156 161.01172 C 91.206351 161.01172 111.95508 138.60352 111.95508 138.60352 C 113.95997 136.6001 116.58001 134.00077 116.67188 144.52344 L 120.1582 144.52344 L 120.1582 103.29102 L 116.67188 103.29102 C 116.67188 130.51694 96.213157 157.52734 68.785156 157.52734 C 30.04118 157.52734 24.814453 109.38921 24.814453 80.857422 C 24.814453 52.325631 30.04118 4.1894531 68.785156 4.1894531 C 95.559273 4.1894531 116.67188 28.800891 116.67188 53.847656 L 120.1582 53.847656 L 120.1582 7.2363281 L 116.67188 7.2363281 C 116.67188 12.465219 114.7129 16.603516 108.61719 16.603516 C 100.56793 16.603516 90.987489 0.703125 68.785156 0.703125 z M 177.27148 0.703125 L 130.4707 141.19336 C 126.33664 153.38689 123.50667 154.04102 116.75977 154.04102 L 109.79102 154.04102 L 109.79102 157.52539 L 154.63672 157.52539 L 154.63672 154.04102 L 143.3125 154.04102 C 136.34944 154.04102 133.73633 151.64273 133.73633 148.5957 C 133.73633 144.89167 135.47878 139.66841 137 135.30469 L 145.92773 107.86719 L 192.50781 107.86719 L 208.18164 154.04102 L 186.84961 154.04102 L 186.84961 157.52539 L 250.63086 157.52539 L 250.63086 154.04102 L 232.5625 154.04102 L 179.66602 0.703125 L 177.27148 0.703125 z M 405.17383 0.703125 L 358.37109 141.19336 C 354.23703 153.38689 351.4063 154.04102 344.66211 154.04102 L 337.69336 154.04102 L 337.69336 157.52539 L 382.53906 157.52539 L 382.53906 154.04102 L 371.21484 154.04102 C 364.25178 154.04102 361.64062 151.64273 361.64062 148.5957 C 361.64062 144.89167 363.38111 139.66841 364.90234 135.30469 L 373.82812 107.86719 L 420.40625 107.86719 L 436.08203 154.04102 L 414.75391 154.04102 L 414.75391 157.52539 L 478.52734 157.52539 L 478.52734 154.04102 L 460.46094 154.04102 L 407.56641 0.703125 L 405.17383 0.703125 z M 295.67578 0.70507812 C 271.29564 0.70507812 254.9707 18.780857 254.9707 43.611328 C 254.9707 80.202748 271.07435 85.864612 305.25195 91.3125 C 330.28598 95.232816 342.03906 101.98345 342.03906 124.63477 C 342.03906 144.24175 327.01911 157.52734 306.11914 157.52734 C 279.99891 157.52734 258.44922 140.31724 258.44922 103.72852 L 254.9707 103.72852 L 254.9707 158.83398 L 258.44922 158.83398 C 258.44922 155.12996 258.66841 149.68555 263.88867 149.68555 C 271.94604 149.68555 283.47923 161.01367 305.25195 161.01367 C 336.81401 161.01367 352.48438 139.6673 352.48438 111.13281 C 352.48438 82.817311 339.42396 72.58215 307.64844 66.917969 C 271.5119 60.380504 264.10742 56.028113 264.10742 36.423828 C 264.10742 16.386957 277.17249 4.1875 295.67578 4.1875 C 324.84117 4.1875 338.33718 26.622653 340.29883 51.453125 L 343.7793 51.453125 L 343.7793 5.7128906 L 340.29883 5.7128906 C 339.64224 8.5463328 338.98923 13.988281 333.98242 13.988281 C 326.58165 13.988281 318.09427 0.70507812 295.67578 0.70507812 z M 168.56445 38.384766 L 169 38.384766 L 191.42188 104.38086 L 147.23242 104.38086 L 168.56445 38.384766 z M 396.4668 38.384766 L 396.90234 38.384766 L 419.32422 104.38086 L 375.13477 104.38086 L 396.4668 38.384766 z M 410.33594 161.63477 C 401.57605 161.63477 394.78516 171.67246 394.78516 182.69531 C 394.78516 193.54241 401.89389 202.82617 411.26172 202.82617 C 412.88292 202.82617 414.55644 202.0309 416.23438 201.20898 L 417.68164 200.45312 C 419.00562 199.82047 419.84733 199.4392 421.54688 199.62305 C 422.19266 199.69875 423.57526 200.11172 424.44531 201.72852 L 424.44531 185.99219 L 426.76562 185.99219 L 426.76562 185.51758 L 415.84961 185.51758 L 415.84961 185.99219 L 418.14453 185.99219 L 418.14453 189.54883 L 418.14453 190.07812 C 418.14453 195.0015 418.17693 198.28206 416.58008 199.76367 C 414.87241 201.24258 413.65039 202.07422 411.20508 202.07422 C 404.26634 202.07422 401.78125 195.47676 401.78125 183.38867 C 401.78125 170.11367 403.79465 162.09766 410.45508 162.09766 C 415.68615 162.09766 419.90852 167.99164 421.5 175.57812 L 422.01562 175.46289 L 422.01562 161.69336 C 420.84837 162.37738 420.03022 163.37109 418.83594 163.37109 C 417.9821 163.37109 417.44347 163.60978 415.82227 162.82031 C 414.09299 161.98488 412.0463 161.63477 410.33594 161.63477 z M 377.60742 162.25195 C 368.49898 162.25195 360.50195 172.16548 360.50195 183.50195 C 360.50195 194.18414 368.16576 203.32617 377.10938 203.32617 C 386.43399 203.32617 394.37891 194.24739 394.37891 183.5625 C 394.37891 172.16655 386.59968 162.25195 377.60742 162.25195 z M 377.5 162.77344 C 380.2047 162.77344 381.14183 163.87073 382.54688 165.45508 C 385.284 168.54537 387.09375 174.90195 387.09375 182.50195 C 387.09375 185.76528 386.7935 189.02631 386.18555 192.16797 C 384.64271 199.64631 383.01205 202.79297 376.94336 202.79297 C 374.2954 202.79297 373.4251 202.02218 371.93359 200.53516 C 369.12351 197.6882 367.72266 191.04336 367.72266 182.78906 C 367.72266 178.87145 368.07208 175.20981 368.9043 171.80859 C 370.36608 165.77671 372.53102 162.77344 377.5 162.77344 z M 424.3457 162.88086 L 424.3457 163.41406 L 427.47656 163.4668 L 427.47656 189.79883 L 427.47656 190.32812 C 427.47656 193.51575 427.98506 196.17995 428.95508 197.88867 C 430.58438 200.96003 435.61828 203.0957 440.20898 203.0957 C 442.75426 203.0957 445.15355 202.44712 447.24219 201.26562 C 450.55484 199.31627 452.02148 196.1596 452.02148 190.19531 L 452.02148 189.60352 L 452.02148 163.58398 L 455.23242 163.58398 L 455.23242 201.34961 L 450.99609 201.34961 L 450.99609 201.98438 L 479.8418 201.98438 L 479.85547 187.56836 L 479.38867 187.56836 C 478.68345 194.314 476.53737 197.24257 473.52734 199.44336 C 471.38736 201.06015 467.69727 201.28906 467.69727 201.28906 L 461.61719 201.28906 L 461.61719 182.05273 L 462.24414 182.05273 L 462.75195 182.05273 C 467.23998 182.05273 470.29827 185.24883 470.34961 190.30469 L 470.34961 190.59375 L 470.7832 190.51172 L 470.7832 173.42578 L 470.29883 173.51172 C 469.94487 178.39183 466.98807 181.64391 463.25391 181.58984 L 462.9043 181.58984 L 461.61719 181.58984 L 461.61719 163.625 L 467.22656 163.625 C 469.14227 163.625 471.46808 164.72694 472.78125 165.6543 C 474.94825 167.10887 476.9402 170.04925 477.98047 176.07031 L 478.38281 176.07031 L 478.38281 172.6543 L 478.38281 162.94922 L 451.24609 162.99023 L 451.24609 162.99609 L 447.10938 162.99219 L 447.10938 163.58398 L 451.37109 163.58398 L 451.37109 189.2207 L 451.37109 189.69141 C 451.37109 192.40589 451.06267 194.65079 450.55469 196.30273 C 449.38203 199.96349 445.8834 202.3266 441.49805 202.22656 C 439.01221 202.16706 437.04728 201.65122 435.77734 200.14258 C 434.73977 198.91782 433.93573 197.01286 433.98438 193.70898 L 433.98438 193.23438 L 433.98438 163.4668 L 437.45117 163.4668 L 437.45117 162.88086 L 424.3457 162.88086 z M 334.49609 163.07031 L 334.49609 163.73828 L 337.35352 163.74219 L 352.17383 203.0957 L 364.39648 163.73828 L 368.01562 163.73828 L 368.01562 163.07422 L 359.67578 163.08203 L 359.67578 163.74219 L 363.54688 163.74219 L 354.94727 191.75586 L 344.20312 163.73828 L 347.16992 163.73828 L 347.16992 163.07422 L 334.49609 163.07031 z M 335.76562 164.24414 C 334.98204 164.24414 334.35156 164.88 334.35156 165.66406 C 334.35156 166.44812 334.98205 167.07812 335.76562 167.07812 C 336.54921 167.07812 337.18945 166.44812 337.18945 165.66406 C 337.18945 164.88 336.5492 164.24414 335.76562 164.24414 z M 379.54688 181.06641 C 378.99566 181.06641 378.58203 181.42395 378.58203 181.91602 C 378.58203 181.91949 378.58394 181.92232 378.58398 181.92578 C 378.58397 181.92794 378.58203 181.92948 378.58203 181.93164 C 378.58203 181.93515 378.58394 181.93792 378.58398 181.94141 C 378.58396 181.94424 378.58203 181.94637 378.58203 181.94922 C 378.58203 181.95482 378.58388 181.9593 378.58398 181.96484 C 378.58397 181.967 378.58203 181.96854 378.58203 181.9707 C 378.58203 182.1167 378.62067 182.24612 378.68555 182.35156 C 378.83956 182.59219 379.04927 182.7128 379.73828 182.94531 C 379.90851 182.99401 380.04817 183.06056 380.15625 183.13086 C 380.30838 183.2418 380.40669 183.43937 380.41602 183.6543 C 380.39823 184.03537 380.1017 184.30273 379.67188 184.30273 C 379.1531 184.30273 378.698 183.90069 378.49805 183.27344 L 378.45898 183.27344 L 378.45898 184.26562 L 378.45898 184.28711 L 378.45898 184.30469 L 378.45898 184.32422 C 378.52118 184.22419 378.609 184.17187 378.70898 184.17188 C 378.78458 184.17188 378.96949 184.21475 379.12891 184.27148 L 379.27734 184.32422 C 379.41244 184.37022 379.56037 184.39453 379.70898 184.39453 C 380.33854 184.39453 380.82227 183.97928 380.82227 183.42773 C 380.82227 183.423 380.82038 183.41878 380.82031 183.41406 C 380.82032 183.41258 380.82227 183.41164 380.82227 183.41016 C 380.82227 183.40749 380.82034 183.40501 380.82031 183.40234 C 380.82039 183.39754 380.82227 183.39349 380.82227 183.38867 C 380.82227 183.38467 380.82037 183.38095 380.82031 183.37695 C 380.82033 183.3748 380.82227 183.37325 380.82227 183.37109 C 380.82227 183.2305 380.78951 183.09236 380.72461 182.9707 C 380.5814 182.72196 380.3362 182.56756 379.77148 182.39453 C 379.11582 182.19508 378.91397 182.03226 378.90234 181.69922 C 378.91649 181.37888 379.17126 181.1582 379.53906 181.1582 C 379.9903 181.1582 380.3536 181.46631 380.45898 181.93945 L 380.49219 181.93945 L 380.49219 181.89844 L 380.49219 181.88086 L 380.49219 181.07422 C 380.43819 181.17152 380.38047 181.20703 380.2832 181.20703 C 380.2157 181.20703 380.14503 181.1961 380.02344 181.1582 L 379.93555 181.13086 C 379.79774 181.08216 379.66846 181.06641 379.54688 181.06641 z M 376.51758 181.08203 L 375.375 184.23828 L 375.01562 184.23828 L 375.01562 184.27539 L 375.01562 184.29688 L 375.01562 184.31641 L 375.01562 184.33203 L 375.7793 184.33203 L 375.7793 184.31641 L 375.7793 184.27539 L 375.7793 184.25586 L 375.7793 184.23828 L 375.44727 184.23828 L 375.77148 183.32812 L 376.92773 183.32812 L 377.27344 184.23828 L 376.92578 184.23828 L 376.92578 184.25586 L 376.92578 184.27539 L 376.92578 184.29688 L 376.92578 184.33203 L 378.22266 184.33203 L 378.22266 184.29688 L 378.22266 184.27539 L 378.22266 184.25586 L 378.22266 184.23828 L 377.77344 184.23828 L 376.58594 181.08203 L 376.51758 181.08203 z M 369.60156 181.11523 L 369.60156 181.1582 L 369.60156 181.17383 L 369.60156 181.19922 L 369.60156 181.21484 L 369.95117 181.21484 L 369.95117 184.23828 L 369.59766 184.23828 L 369.59766 184.27539 L 369.59766 184.29688 L 369.59766 184.31641 L 369.59766 184.33203 L 370.69531 184.33203 L 370.75391 184.33203 C 371.58613 184.33203 372.04102 184.06975 372.04102 183.57227 C 372.04102 183.56882 372.03911 183.56594 372.03906 183.5625 C 372.03911 183.55889 372.04102 183.55637 372.04102 183.55273 C 372.04102 183.54861 372.03913 183.54512 372.03906 183.54102 C 372.03911 183.53742 372.04102 183.53487 372.04102 183.53125 C 372.04102 183.52779 372.03911 183.52493 372.03906 183.52148 C 372.03909 183.51856 372.04102 183.51661 372.04102 183.51367 C 372.04102 183.086 371.68112 182.75894 371.14258 182.64453 C 371.63007 182.56678 371.91797 182.34545 371.91797 182.00586 C 371.91797 182.00229 371.91606 181.99965 371.91602 181.99609 C 371.91606 181.99323 371.91797 181.99116 371.91797 181.98828 C 371.91797 181.98473 371.91606 181.98205 371.91602 181.97852 C 371.9161 181.97433 371.91797 181.97101 371.91797 181.9668 C 371.91797 181.96325 371.91606 181.96056 371.91602 181.95703 C 371.91608 181.95352 371.91797 181.9508 371.91797 181.94727 C 371.91797 181.44439 371.47853 181.11523 370.79492 181.11523 L 370.75391 181.11523 L 369.60156 181.11523 z M 372.19727 181.11523 L 372.19727 181.1582 L 372.19727 181.17383 L 372.19727 181.19922 L 372.19727 181.21484 L 372.52539 181.21484 L 372.52539 184.23242 L 372.19727 184.23242 L 372.19727 184.27539 L 372.19727 184.29688 L 372.19727 184.31641 L 372.19727 184.33203 L 373.36328 184.33203 L 373.36328 184.31641 L 373.36328 184.27148 L 373.36328 184.25391 L 373.36328 184.23242 L 372.99609 184.23242 L 372.99609 182.67578 L 373.36328 182.67578 L 373.41602 182.67578 C 373.81592 182.67578 373.97191 182.83649 373.97461 183.26367 L 373.97461 183.27148 L 373.97461 183.29297 L 373.98047 183.68164 L 373.98047 183.69336 L 373.98047 183.71484 L 373.98047 183.73633 C 373.98847 183.87962 374.02087 184.03728 374.07227 184.12109 C 374.16687 184.2752 374.39563 184.38867 374.61719 184.38867 C 374.6596 184.38867 374.69634 184.3623 374.73242 184.35547 C 374.75571 184.35089 374.78304 184.34266 374.80664 184.33398 C 374.84426 184.32069 374.87995 184.32684 374.92578 184.30078 L 374.91211 184.28711 C 374.91711 184.28425 374.92062 184.2843 374.92578 184.28125 L 374.91016 184.26758 C 374.91597 184.26426 374.91975 184.26333 374.92578 184.25977 L 374.9082 184.24609 C 374.91478 184.2425 374.91893 184.24413 374.92578 184.24023 L 374.90039 184.21875 C 374.82199 184.27285 374.73161 184.29688 374.66406 184.29688 C 374.50604 184.29688 374.4329 184.15148 374.43164 183.86719 L 374.43164 183.86133 L 374.43164 183.80469 L 374.41211 183.48828 L 374.41211 183.4707 C 374.41211 183.4707 374.41211 183.46875 374.41211 183.46875 L 374.41211 183.45312 L 374.41211 183.45117 L 374.41211 183.41016 C 374.41211 183.11005 374.33028 182.95911 374.08984 182.79688 C 373.96467 182.71408 373.87467 182.67665 373.74219 182.64258 C 374.22796 182.54818 374.46875 182.35151 374.46875 181.99805 C 374.46875 181.99579 374.46681 181.99443 374.4668 181.99219 C 374.46683 181.98927 374.46875 181.98732 374.46875 181.98438 C 374.46875 181.98073 374.46684 181.97823 374.4668 181.97461 C 374.46687 181.97031 374.46875 181.96723 374.46875 181.96289 C 374.46875 181.95925 374.46684 181.95675 374.4668 181.95312 C 374.46685 181.94949 374.46875 181.94703 374.46875 181.94336 C 374.46875 181.41344 373.99794 181.11523 373.17383 181.11523 L 373.13477 181.11523 L 372.19727 181.11523 z M 380.98438 181.12305 L 380.98438 181.16602 L 380.98438 181.18359 L 380.98438 181.20117 L 380.98438 181.22266 L 381.37305 181.22266 L 381.37305 184.23828 L 380.97852 184.23828 L 380.97852 184.27344 L 380.97852 184.29492 L 380.97852 184.3125 L 380.97852 184.32812 L 382.19727 184.32812 L 382.19727 184.3125 L 382.19727 184.28906 L 382.19727 184.27344 L 382.19727 184.26758 L 382.19727 184.24805 L 382.19727 184.23047 L 381.81836 184.23047 L 381.81836 181.21484 L 382.19727 181.21484 L 382.19727 181.19922 L 382.19727 181.1582 L 382.19727 181.13867 L 382.19727 181.12305 L 380.98438 181.12305 z M 382.5918 181.12305 L 382.5918 181.16602 L 382.5918 181.18164 L 382.5918 181.20117 L 382.5918 181.22266 L 383.02734 181.22266 L 383.02734 184.23828 L 382.54688 184.23828 L 382.54688 184.27344 L 382.54688 184.29492 L 382.54688 184.32812 L 385.30273 184.32812 L 385.30273 184.29492 L 385.30273 183.30664 L 385.30273 183.26953 L 385.30273 183.25391 L 385.26172 183.25391 C 385.23472 183.48102 385.21603 183.5373 385.14844 183.69141 C 384.98632 184.01314 384.61761 184.23047 384.22852 184.23047 L 384.18555 184.23047 L 383.50586 184.23047 L 383.50781 182.32617 L 383.50977 181.22266 L 383.95898 181.22266 L 383.95508 181.20117 L 383.95898 181.20117 L 383.95703 181.18164 L 383.95898 181.18164 L 383.95703 181.16602 L 383.95898 181.16602 L 383.95312 181.12305 L 382.5918 181.12305 z M 370.41602 181.20898 L 370.70898 181.20898 L 370.74609 181.20898 C 371.09465 181.20898 371.2702 181.287 371.35938 181.48438 C 371.36404 181.49393 371.3667 181.51076 371.37109 181.52148 C 371.41424 181.63662 371.44819 181.78952 371.45117 181.92578 C 371.45124 181.92767 371.45111 181.92976 371.45117 181.93164 C 371.44925 182.05843 371.42755 182.18218 371.38086 182.29883 C 371.29436 182.52053 371.15145 182.5918 370.81641 182.5918 L 370.7793 182.5918 L 370.41602 182.5918 L 370.41602 181.20898 z M 372.99219 181.20898 L 373.20508 181.20898 L 373.28125 181.20898 C 373.75472 181.20898 374.007 181.44677 374.01758 181.88281 C 374.00827 182.31992 373.8122 182.57812 373.47461 182.57812 L 373.42578 182.57812 L 372.99219 182.57812 L 372.99219 181.20898 z M 376.33984 181.74609 L 376.89453 183.22461 L 375.80859 183.22461 L 376.33984 181.74609 z M 370.41602 182.69336 L 370.7793 182.69336 L 370.81836 182.69336 C 370.95346 182.69336 371.06858 182.69796 371.15234 182.72266 C 371.40844 182.79587 371.56219 183.05346 371.57227 183.41992 C 371.56761 183.66947 371.50151 183.90464 371.40234 184.04297 C 371.30774 184.17815 371.10276 184.23828 370.74609 184.23828 L 370.69531 184.23828 L 370.41602 184.23828 L 370.41602 182.69336 z " />
</svg>