<?xml version="1.0" encoding="UTF-8" standalone="no"?>
<svg xmlns:svg="http://www.w3.org/2000/svg" xmlns="http://www.w3.org/2000/svg" xmlns:xlink="http://www.w3.org/1999/xlink" width="423px" height="70px" viewBox="0 0 423 70" >
<path style="fill:#000000;" d="M 156.08789 0 C 150.91092 0 146.7168 3.8859798 146.7168 8.6796875 C 146.7168 13.47141 150.91092 17.357422 156.08789 17.357422 C 161.26287 17.357422 165.45898 13.47141 165.45898 8.6796875 C 165.45898 3.8859798 161.26287 -1.1842379e-15 156.08789 0 z M 339.18945 0.029296875 C 334.01447 0.029296875 329.81836 3.9172625 329.81836 8.7089844 C 329.81836 13.500706 334.01447 17.388672 339.18945 17.388672 C 344.36443 17.388672 348.5625 13.500706 348.5625 8.7089844 C 348.5625 3.9172625 344.36443 0.029296875 339.18945 0.029296875 z M 278.64258 0.3359375 C 278.64258 0.3359375 267.17874 6.3567417 261.18164 9.6035156 C 261.77738 10.161524 263.0332 12.589013 263.0332 20.59375 C 263.0332 29.378904 263.03906 38.004064 263.03906 40.84375 C 263.04106 46.632341 263.03439 57.742124 262.96289 66.53125 C 262.95489 67.502304 262.41016 68.840229 262.41016 68.935547 L 279.73828 68.931641 C 279.5675 68.931641 278.67773 63.121094 278.67773 63.121094 C 278.67773 63.121094 278.62468 0.01423881 278.64258 0.3359375 z M 346.32227 17.474609 C 336.45684 22.528455 330.39648 25.964844 330.39648 25.964844 C 330.39648 25.964844 330.03129 26.001181 330.0293 26.878906 C 330.0313 30.435464 330.01953 59.075891 330.01953 64.910156 L 330.01953 65.972656 C 330.01953 67.388527 329.42781 68.513748 329.30469 68.865234 C 329.29279 68.902964 329.3457 68.935547 329.3457 68.935547 L 342.86914 68.935547 L 347.27148 68.935547 C 347.27148 68.935547 347.32245 68.902964 347.31055 68.865234 C 347.17552 68.47999 346.59766 67.408385 346.59766 65.972656 L 346.59766 64.990234 C 346.59366 60.963043 346.58984 19.192699 346.58984 17.689453 C 346.59784 17.492859 346.42354 17.422978 346.32227 17.474609 z M 163.97461 17.794922 C 154.10323 22.81501 148.04297 26.226562 148.04297 26.226562 C 148.04297 26.226562 147.68171 26.264988 147.67773 27.134766 C 147.68173 30.667494 147.66992 59.115607 147.66992 64.910156 C 147.66992 65.472135 147.66797 65.837785 147.66797 65.962891 C 147.66797 67.368833 147.0782 68.486437 146.95508 68.835938 C 146.94118 68.875658 146.99609 68.904297 146.99609 68.904297 L 160.51562 68.904297 L 164.92188 68.904297 C 164.92188 68.904297 164.97084 68.875657 164.96094 68.835938 C 164.82591 68.454665 164.24414 67.388691 164.24414 65.962891 L 164.24414 64.988281 C 164.24214 60.982934 164.23823 19.50507 164.24023 18.009766 C 164.24423 17.813173 164.07589 17.745277 163.97461 17.794922 z M 368 17.996094 C 358.40861 22.99831 351.67578 26.498047 351.67578 26.498047 C 351.67578 26.498047 351.35374 26.595848 351.45898 26.824219 C 351.59005 27.235278 352.06693 28.823945 352.1543 30.146484 C 352.1603 32.487735 352.16016 59.172477 352.16016 64.953125 L 352.16016 66.003906 C 352.16016 67.403891 351.58595 68.51772 351.4668 68.865234 C 351.4529 68.902964 351.50586 68.935547 351.50586 68.935547 L 364.64258 68.935547 L 368.92188 68.935547 C 368.92188 68.935547 368.96894 68.902964 368.96094 68.865234 C 368.82591 68.485947 368.26367 67.421763 368.26367 66.003906 L 368.26367 65.03125 L 368.26367 40.634766 L 368.26367 38.507812 C 368.30937 35.004872 370.077 32.699804 372.63867 31.595703 C 374.69397 30.771598 375.67217 31.04176 379.57227 31.115234 C 380.17198 31.127154 380.2927 31.01696 380.42773 30.460938 C 380.58858 29.809597 382.41333 21.453478 382.69531 19.888672 C 382.84424 19.066553 382.92116 18.864849 382.37109 18.769531 C 379.15609 18.203579 372.84304 17.175499 368.96875 25.265625 C 368.84365 25.442361 368.73962 25.580398 368.6582 25.679688 C 368.51324 25.860395 368.31641 25.743669 368.31641 25.535156 C 368.31641 25.265088 368.25977 23.213807 368.25977 22.564453 L 368.25977 18.207031 C 368.26377 18.010437 368.09929 17.944463 368 17.996094 z M 15.486328 18.207031 C 5.9843023 23.239034 0.1796875 26.228516 0.1796875 26.228516 C 0.1796875 26.228516 -0.08988345 26.360203 0.03125 26.666016 C 0.23380103 27.275655 0.65442754 28.367422 0.64648438 29.896484 C 0.65045637 32.253622 0.65628288 57.761766 0.65429688 63.576172 L 0.65429688 65.148438 C 0.65032488 66.933667 0.27071439 68.029001 0.080078125 68.640625 C -0.015240005 68.942466 0.30078125 68.931641 0.30078125 68.931641 L 13.019531 68.935547 L 16.070312 68.935547 C 16.070312 68.935547 16.461207 68.976223 16.326172 68.640625 C 16.173266 68.26531 15.720605 67.402315 15.726562 65.148438 L 15.742188 63.810547 C 15.740187 59.801228 15.742188 46.061008 15.742188 40.453125 L 15.742188 38.310547 C 15.742188 34.346901 18.30638 31.484833 21.052734 31.457031 C 24.376954 31.466931 25.228418 34.851144 25.234375 36.419922 L 25.234375 40.609375 L 25.232422 63.898438 C 25.232422 63.898438 25.236375 65.025319 25.234375 65.148438 C 25.228375 66.933667 24.848839 68.029001 24.658203 68.640625 C 24.564873 68.942466 24.878906 68.935547 24.878906 68.935547 L 37.599609 68.935547 L 40.650391 68.935547 C 40.650391 68.935547 41.041316 68.976223 40.904297 68.640625 C 40.753376 68.26531 40.298698 67.402315 40.306641 65.148438 C 40.306641 65.059078 40.304688 63.150391 40.304688 63.150391 L 40.306641 46.591797 C 40.308641 45.253371 40.308594 38.291016 40.308594 38.291016 C 40.310594 34.32737 42.874741 31.463348 45.621094 31.435547 C 48.945314 31.443447 49.798763 34.827674 49.802734 36.398438 L 49.800781 40.574219 L 49.798828 62.802734 L 49.818359 65.148438 C 49.812359 66.933667 49.432792 68.029001 49.244141 68.640625 C 49.148821 68.942466 49.462891 68.931641 49.462891 68.931641 L 62.181641 68.935547 L 65.232422 68.935547 C 65.232422 68.935547 65.625301 68.976223 65.488281 68.640625 C 65.339347 68.26531 64.880696 67.402314 64.890625 65.148438 L 64.869141 62.806641 L 64.867188 39.669922 C 64.869187 31.863764 66.736606 19.193359 53.779297 19.193359 C 47.158659 19.193359 43.933718 21.688184 40.720703 26.632812 C 40.611484 26.799619 40.436265 26.813519 40.392578 26.632812 C 37.836871 15.720873 21.603368 17.189924 16.388672 26.302734 C 16.261581 26.477484 16.161495 26.621413 16.080078 26.720703 C 15.935115 26.90141 15.742187 26.784708 15.742188 26.574219 L 15.742188 22.802734 L 15.742188 18.417969 C 15.746187 18.219389 15.583632 18.151429 15.486328 18.207031 z M 131.41992 18.230469 C 121.95761 23.161196 115.08594 27.121094 115.08594 27.121094 C 115.08594 27.121094 114.76588 27.213043 114.86914 27.441406 C 115.01013 27.876295 115.78129 30.277559 115.7793 31.570312 C 115.7853 33.87582 115.78906 58.199339 115.78906 63.890625 L 115.78125 65.212891 C 115.77525 66.970319 115.39767 68.044788 115.20703 68.646484 C 115.11173 68.944353 115.42578 68.935547 115.42578 68.935547 L 128.14648 68.935547 L 132.01172 68.935547 C 132.01172 68.935547 132.40265 68.976098 132.26562 68.648438 C 132.11272 68.275108 131.66006 67.429038 131.66602 65.212891 L 131.67969 63.904297 L 131.67969 41.056641 L 131.67969 39.96875 C 131.67969 32.430674 137.5895 30.467471 142.95312 31.732422 C 143.53297 31.871427 143.66185 31.635969 143.79688 31.087891 C 143.95773 30.444494 145.83524 21.693353 146.11523 20.150391 C 146.2602 19.340187 146.33906 19.140175 145.79297 19.048828 C 141.51954 18.327985 135.91163 18.076263 132.37891 25.90625 C 132.2538 26.079014 132.15177 26.21321 132.06836 26.3125 C 131.92539 26.489236 131.73242 26.376439 131.73242 26.169922 C 131.73242 25.905811 131.67578 23.87966 131.67578 23.240234 L 131.67578 18.439453 C 131.67978 18.246831 131.51722 18.180824 131.41992 18.230469 z M 247.00391 18.345703 C 245.84458 18.339435 244.7274 18.406178 243.69727 18.529297 C 231.39329 19.994813 224.21302 31.482105 224.20508 44.560547 C 224.19908 58.810608 232.36442 75.864726 258.29492 67.941406 L 258.29492 59.708984 C 254.48617 61.875485 248.79803 62.575317 245.4043 57.759766 C 242.03044 52.968044 240.36318 48.767366 240.36914 41.894531 C 240.38304 26.282216 250.09934 24.238888 257.47656 28.832031 L 257.47656 20.804688 C 254.35043 19.038324 250.4819 18.364506 247.00391 18.345703 z M 189.23438 18.523438 C 176.55669 18.607793 168.16405 27.456535 167.39648 43.40625 C 166.89804 53.740324 172.69614 63.222151 179.05664 66.814453 C 186.6245 71.087882 196.36987 70.349988 203.80469 67.240234 C 205.26623 66.628609 205.19922 66.287003 205.19922 65.34375 L 205.19922 59.433594 C 205.19922 58.960975 205.37571 58.149146 204.26367 58.818359 C 203.14963 59.489557 200.0033 61.172743 197.19141 61.357422 C 191.76026 61.708907 187.69106 60.518583 184.86328 51.791016 C 184.41648 50.420818 184.80156 50.575402 185.10742 50.384766 C 185.41124 50.192144 209.63086 42.488281 209.63086 42.488281 C 210.0717 42.190411 210.08662 41.36442 210.04492 40.820312 C 209.06195 27.795488 201.01521 18.938175 190.47461 18.541016 C 190.05685 18.52544 189.64333 18.520716 189.23438 18.523438 z M 402.1543 18.523438 C 389.47492 18.607793 381.08203 27.456535 380.31445 43.40625 C 379.81602 53.740324 385.61212 63.222151 391.97461 66.814453 C 399.54247 71.087882 409.29182 70.349988 416.72266 67.240234 C 418.18619 66.628609 418.12109 66.287068 418.12109 65.339844 L 418.12109 59.433594 C 418.12109 58.960975 418.29167 58.149146 417.18359 58.818359 C 416.07155 59.489557 412.92318 61.172743 410.11328 61.357422 C 404.67817 61.704936 400.60902 60.518583 397.78125 51.791016 C 397.33643 50.420818 397.72157 50.575402 398.02344 50.384766 C 398.33124 50.192144 422.54883 42.488281 422.54883 42.488281 C 422.99365 42.190411 423.00459 41.36442 422.96289 40.820312 C 421.97992 27.795488 413.93115 18.938175 403.39453 18.541016 C 402.97671 18.52544 402.56331 18.520716 402.1543 18.523438 z M 297.97461 18.792969 C 294.06135 18.718005 290.0587 19.470932 286.78711 21.119141 C 286.78711 21.119141 286.54688 21.205776 286.54688 21.519531 C 286.55088 22.826184 286.53729 27.687374 286.52539 28.169922 C 286.51539 28.565095 286.78711 28.269531 286.78711 28.269531 C 292.02564 26.206291 300.10035 24.855542 301.36133 36.841797 C 301.36533 36.915267 301.54651 37.430758 301.33203 37.484375 C 296.62372 38.681809 289.21865 41.124666 286.01953 44.587891 C 278.84089 52.358305 281.93091 64.868592 289.81055 68.107422 C 294.20511 69.916481 303.29512 71.350577 309.8125 64.880859 C 313.94891 69.033155 317.14047 69.030924 319.76172 69.050781 C 319.76172 69.050781 325.50519 69.037022 325.7832 69.044922 C 326.00759 69.050922 326.00778 69.051454 326.00977 68.300781 C 326.00977 68.054543 326.00777 64.449542 326.00977 62.292969 C 326.00977 62.022901 326.00837 61.862334 325.73633 61.919922 C 323.55394 62.388569 322.48542 60.703621 321.47266 56.162109 C 319.3697 46.715685 318.61248 42.362458 317.94922 39.207031 C 315.54244 27.766869 312.99974 23.953469 308.62305 21.439453 C 305.71187 19.771386 301.88787 18.867933 297.97461 18.792969 z M 84.384766 18.990234 C 80.471261 18.915023 76.466908 19.66919 73.195312 21.316406 C 73.195312 21.316406 72.957031 21.40307 72.957031 21.714844 C 72.961031 23.021497 72.947487 27.884639 72.935547 28.367188 C 72.927647 28.760375 73.197266 28.466797 73.197266 28.466797 C 78.435792 26.405543 86.508518 25.052807 87.771484 37.039062 C 87.779384 37.112533 87.956619 37.629977 87.744141 37.683594 C 83.033837 38.883014 75.630788 41.319912 72.429688 44.787109 C 65.253027 52.553551 68.34501 65.065857 76.222656 68.304688 C 80.617219 70.111761 89.705311 71.545858 96.220703 65.078125 C 100.3591 69.228436 103.55261 69.228222 106.17188 69.246094 C 106.17188 69.246094 111.91734 69.230298 112.19336 69.242188 C 112.41776 69.246188 112.41794 69.246687 112.41992 68.5 C 112.41992 68.251776 112.41792 64.648761 112.41992 62.492188 C 112.42192 62.222119 112.41852 62.061553 112.14648 62.119141 C 109.96608 62.585802 108.89748 60.902906 107.88672 56.357422 C 105.78177 46.912987 105.02462 42.557738 104.35938 39.404297 C 101.9526 27.966121 99.407941 24.148749 95.03125 21.636719 C 92.121068 19.968652 88.29827 19.065446 84.384766 18.990234 z M 189.19727 27.103516 C 190.52486 27.178075 191.81886 28.033047 192.76758 29.511719 C 193.92133 31.306877 194.90044 34.382905 195.13477 38.888672 C 195.22417 40.661987 194.12951 40.629324 193.85547 40.722656 C 191.99279 41.360096 184.39453 43.714844 184.39453 43.714844 C 183.52078 43.953139 183.36022 43.89909 183.30859 42.791016 C 183.14377 39.252331 183.38079 33.932692 184.57422 31.019531 C 185.72809 28.202434 187.49036 27.007654 189.19727 27.103516 z M 402.11719 27.103516 C 403.44488 27.1778 404.73879 28.031962 405.6875 29.509766 C 406.84125 31.30691 407.81841 34.382905 408.05273 38.888672 C 408.14213 40.661987 407.0494 40.627338 406.77734 40.722656 C 404.91467 41.360096 397.31055 43.714844 397.31055 43.714844 C 396.44077 43.953139 396.27823 43.89909 396.22461 42.791016 C 396.06177 39.252331 396.30068 33.932692 397.49609 31.019531 C 398.64773 28.202434 400.41016 27.008007 402.11719 27.103516 z M 302.49414 44.921875 C 302.70302 44.933602 302.82031 45.050781 302.82031 45.050781 L 306.37891 59.087891 C 306.47421 59.421504 306.05731 59.755264 305.7793 59.910156 C 296.72805 65.817894 293.44489 48.330961 302.25586 44.953125 C 302.34522 44.925324 302.42451 44.917966 302.49414 44.921875 z M 88.904297 45.119141 C 89.113177 45.129193 89.234375 45.246094 89.234375 45.246094 L 92.789062 59.285156 C 92.884383 59.616784 92.465478 59.950511 92.189453 60.109375 C 83.136216 66.015127 79.856999 48.526209 88.667969 45.152344 C 88.756337 45.12355 88.83467 45.11579 88.904297 45.119141 z " />
</svg>
