<svg xmlns:svg="http://www.w3.org/2000/svg" xmlns="http://www.w3.org/2000/svg" xmlns:xlink="http://www.w3.org/1999/xlink" width="329px" height="141px" viewBox="0 0 329 141">
<path style="fill:#ffffff" d="M 22.240234 0 L 22.246094 0.10546875 C 5.7322128 1.1705586 2.3684758e-15 11.705745 0 24.107422 L 0 117.37305 C 0 129.70754 5.9817136 140.36328 18.501953 140.36328 L 34.949219 140.36328 C 47.47341 140.36328 53.453125 129.70754 53.453125 117.37305 L 53.453125 62.083984 C 53.453125 59.382727 51.263757 57.191406 48.5625 57.191406 L 26.166016 57.191406 L 26.166016 75.322266 L 31.025391 75.322266 L 31.025391 116.8125 C 31.025391 119.61651 29.717199 121.11328 27.662109 121.11328 C 25.419295 121.11328 24.296875 119.61651 24.296875 116.8125 L 24.296875 26.353516 C 24.296875 24.108726 24.856998 22.802734 26.914062 22.802734 L 53.453125 22.802734 L 53.453125 0 L 28.222656 0 L 25.044922 0 L 22.240234 0 z M 72.773438 0 C 69.995114 0 67.746094 2.2509964 67.746094 5.0273438 L 67.412109 9.6484375 L 56.628906 139.05078 L 77.001953 139.05078 L 78.308594 114.00977 L 86.345703 114.00977 L 87.65625 139.05078 L 110.64453 139.05078 L 98.546875 4.7070312 L 98.509766 4.6738281 C 98.324017 2.0634688 96.175339 5.9211895e-16 93.519531 0 L 72.876953 0 L 72.867188 0.0078125 C 72.835566 0.0078125 72.805048 0 72.773438 0 z M 113.82227 0 L 113.82227 134.16016 C 113.82227 136.86339 116.01161 139.05273 118.71484 139.05273 L 152.32031 139.05273 L 152.50977 116.99805 L 137.37305 116.99805 L 137.37305 0 L 113.82227 0 z M 157.18164 0 L 157.18164 139.05273 L 180.91992 139.05273 L 180.91992 0 L 157.18164 0 z M 186.14844 0 L 186.14844 134.16016 C 186.14844 136.86339 188.33976 139.05273 191.04102 139.05273 L 224.64844 139.05273 L 224.83789 116.99805 L 209.69727 116.99805 L 209.69727 0 L 186.14844 0 z M 234.40234 0 C 231.70109 0 229.50781 2.1893446 229.50781 4.8925781 L 229.50781 134.16016 C 229.50781 136.86339 231.70109 139.05273 234.40234 139.05273 L 270.06641 139.05273 L 270.06641 117.37305 L 252.68359 117.37305 L 252.68359 77.191406 L 266.88867 77.191406 L 266.88867 55.134766 L 252.68359 55.134766 L 252.68359 21.306641 L 269.50586 21.306641 L 269.50586 0 L 234.40234 0 z M 274.92383 0 L 274.92383 117.56055 C 274.92383 129.89504 281.65494 140.54687 299.7832 140.54688 L 303.52148 140.54688 C 320.34357 140.54688 328.37695 129.70732 328.37695 117.56055 L 328.37695 0 L 304.26758 0 L 304.26758 114.75781 C 304.26758 117.18637 303.52167 118.30859 301.6543 118.30859 C 300.15646 118.30859 299.2207 117.3741 299.2207 114.75781 L 299.2207 0 L 274.92383 0 z M 82.095703 46.921875 L 82.75 46.921875 L 85.226562 93.638672 L 79.619141 93.638672 L 82.095703 46.921875 z "/>
</svg>