<svg xmlns="http://www.w3.org/2000/svg" xmlns:xlink="http://www.w3.org/1999/xlink" viewBox="0 0 658 185">
  <defs>
    <symbol id="a">
      <path d="M251 99.7c0 22.2-13 28-22 28-12.7 0-19.7-5.8-19.7-22.4V32.8h-40V108c0 32.8 10 53.5 45.2 53.5 14.2 0 29.8-8 37.3-20.7h.5v17h39V33h-40v67h-.2zM365.7 29c-37 0-67.5 27.6-67.5 66 0 41.8 27.7 66.4 68.4 66.4 28 0 54.7-12.5 62.2-41.4h-38.3c-4 9.2-13.5 13.7-23.4 13.7-17 0-27-11.3-28-28.4h92c2-42.5-20-76.3-65-76.3zm-26.5 53.3c2.4-15.2 12-25.5 26.5-25.5 13.7 0 23.6 11.6 24.3 25.5h-50.8zM591.6 29c-17 0-29.2 7-39 20.3C546 34 532 29 516.2 29c-15.2 0-28.4 8.3-36 20.8h-.4v-17H440v125h41v-61c0-25.5 6.3-34 21-34 11 0 15.4 9.2 15.4 24v71h41V96.6c0-20.2 1.7-33.7 19.3-33.7 10.6 0 17 8 17 21v73h41V83c0-23.8-4.3-54-44-54zM85.3 0h-5C29 0 0 37.3 0 84.2v4.6c1.7 38.8 23.6 70.3 62 78 5.6 1 11.8 1.6 18.3 1.6 9.6 0 18.4-1.4 26.4-4l15.5 20.6 28.6-23-12.8-16.8 3-3.3 3.4-5 1.2-2 3-5 1-2 2.4-5 1-2 2-5 .8-3 1.6-6 .5-2 1-6.4v-1l1-7V80c-2-43-28-77.7-75-80zm18.2 99l-29 22.8 7.7 10.2h-2c-1.5 0-3 0-4.6-.2-1 0-2-.3-3.2-.5-.4 0-.7 0-1-.2-8.6-1-15-6-19.6-13l-1.8-2-.6-1-1-2-1-2H47c-3-7-4.7-16-4.7-25 0-14 3.6-27 11-36h.3l2-2 1-1 2-1 1-1 2-1 1.5-1 3-1 1-.4 4-1h1c3-1 6-1 10-1h6c1 0 2 0 3 .3 13 3 21 12.2 25 24v.4l1 3.4.7 1 1 3 .5 1.4.4 3.5v1c.6 3 .8 6.5.8 9.7 0 9.6-1 19-5 27l-9-12zM651 68.5c4 0 7-2 7-6 0-3.4-2-5.5-5.3-5.8v1.8c2.2.2 3.8 1.5 3.8 3.8 0 3.2-2.5 4.5-5.6 4.5-3 0-6-1.3-6-4.5 0-1.8 1-3.3 3-3.7v-1.8c-3 .4-5 2.7-5 5.4 0 4 3 6.3 7 6.3zm6.7-25.5h-1.5v7.3h-4.6v-6.8H650v6.8h-4V43h-1.6v9h13.3zm0 58.7v-2h-13.3v1.7h10.8l-10.8 7v2h13.3v-1.8H647zm0-12H646v-4.3h-1.6V96h1.5v-4.5h11zm0-17.3h-1.5v7.4h-4.6v-7H650v7h-4v-7.4h-1.6v9h13.3zm-6.7 42.4c-3.6 0-7 2-7 6.3s3.3 7 7 7c3.6 0 7-2 7-6s-3.3-6-7-6zm0 11c-2.7 0-5.5-1.4-5.5-4.7 0-3 2.8-4 5.5-4s5.5 2 5.5 5-2.8 5-5.5 5zm-6.6 27.5l13.3 5v-1.7l-4-1.5v-5l4-1v-2l-13.3 5v2zm1.6-1l6.2-2.2v5l-6.2-2zm6.7-21v1.8c2.2 1 3.8 2 3.8 4 0 3-2.5 5-5.6 5-3 0-6-1-6-4 0-2 1-3 3-3v-2c-3 1-5 3-5 6 0 4 3 6 7 6s7-2 7-6c0-3-2-5-6-5.3z"/>
    </symbol>
  </defs>
  <use fill="#fff" xlink:href="#a"/>
</svg>
