<svg viewBox="0 0 360 162" xmlns="http://www.w3.org/2000/svg" xmlns:xlink="http://www.w3.org/1999/xlink"><defs><path id="a" d="M0 .778h41.82V50.12H0z"/><path id="c" d="M0 161.985h359.87V0H0z"/></defs><g fill="none" fill-rule="evenodd"><g transform="translate(0 67.192)"><mask id="b" fill="#fff"><use xlink:href="#a"/></mask><path d="M17.565 8.028c-1.81 0-2.578 1.53-2.578 3.589 0 1.862.385 3.26 2.03 6.052 2.028-1.863 2.961-3.858 2.961-5.653 0-2.393-.713-3.988-2.413-3.988m-3.992 21.5c-1.718 1.21-3.928 2.67-4.188 5.948-.29 3.662 2.07 6.126 5.792 6.22 1.15.03 3.408-.561 5.348-2.084-2.66-3.326-4.715-6.405-6.952-10.083m21.863 20.39c-3.672 0-6.303-.796-9.428-3.723-3.345 2.66-6.908 3.924-10.8 3.924-8.67 0-14.664-5.006-15.184-14.323-.265-4.76 1.591-8.71 9.098-13.54-2.139-3.924-2.906-6.582-2.906-9.841 0-7.25 4.386-11.638 11.678-11.638C24.527.778 28.2 5.366 28.2 11.884c0 4.72-2.412 8.112-6.963 11.303 2.14 3.192 4.003 5.854 5.647 8.048 1.59-3.125 3.713-6.617 5.41-10.946l7.374 3.498c-2.097 6.597-4.89 11.15-7.246 14.895 1.425 1.396 2.411 1.764 3.838 1.796 2.798.064 3.543-.183 5.56-1.034v9.492c-2.443.813-4.847.984-6.384.984" fill="#B60F0C" mask="url(#b)"/></g><path fill="#FEFEFE" d="M16.728 63.882V.18h38.551v15.13H32.647v10.032h14.829v13.803H32.647v10.052H55.28v14.686zm88.37 0v-31.32c0-3.184-1.014-4.779-3.512-4.779-1.17 0-2.263.355-3.434 1.062v35.037h-15.92v-31.32c0-3.184-1.015-4.779-3.513-4.779-1.17 0-2.264.355-3.433 1.062v35.037H59.365V15.31H70.68l4.606 9.467h.313c4.839-6.813 8.115-9.732 13.109-9.732 5.074 0 8.351 3.274 9.21 9.732h.546c4.839-6.813 8.117-9.732 13.112-9.732 5.93 0 9.443 4.336 9.443 13.36v35.478h-15.921zm134.924-3.236l-5.118-10.633c-3.715 1.937-7.334 3.155-10.69 3.155-4.271 0-8.89-1.85-9.438-7.989h24.266v-6.69c0-14.864-6.867-23.444-18.652-23.444-11.317 0-18.65 8.58-18.65 23.445v2.565c0 14.865 7.117 22.793 19.822 23.446 6.124.316 11.825-.493 18.46-3.855M225.07 36.539h-10.258c0-6.733 1.236-11.66 5.15-11.66 2.81 0 5.031 2.463 5.108 11.66m97.136 84.555v-2.831c0-14.864-7.279-23.447-19.879-23.447-12.602 0-19.88 8.583-19.88 23.447v2.83c0 14.864 7.278 23.447 19.88 23.447 12.6 0 19.88-8.583 19.88-23.446zm-15.155.087c0 9.998-1.295 12.742-4.724 12.742-3.426 0-4.724-2.744-4.724-12.742v-3.008c0-9.998 1.298-12.74 4.724-12.74 3.429 0 4.724 2.742 4.724 12.74v3.008zm-65.448 23.359c-11.976 0-19.332-8.584-19.332-23.447v-2.83c0-14.864 7.435-23.448 19.801-23.448 10.566 0 16.672 5.663 18.08 17.519l-14.4 2.92c-.313-6.46-1.096-8.937-3.835-8.937-2.74 0-4.564 2.744-4.564 12.742v1.237c0 9.998 1.98 12.742 4.72 12.742 2.19 0 3.366-1.683 4.07-8.052l14.088 2.92c-1.878 11.68-8.296 16.634-18.628 16.634"/><mask id="d" fill="#fff"><use xlink:href="#c"/></mask><path fill="#FEFEFE" mask="url(#d)" d="M262.946 143.654h15.968V94.81h-15.968zm55.148-93.142v-19.02c0-11.59-4.762-16.19-16.311-16.19-6.711 0-12.705 2.42-19.339 6.312l4.775 9.813c5.775-3.361 9.023-4.181 11.832-4.181 2.887 0 4.448 1.768 4.448 4.513v3.627c-15.841 1.15-22.71 6.37-22.71 16.101 0 8.23 5.073 12.742 11.16 12.742 4.605 0 7.803-1.059 11.55-5.305l2.359 4.849h16.252s-4.016-5.726-4.016-13.261zm-14.595 2.48c-1.404.796-2.497 1.062-4.057 1.062-2.81 0-4.37-1.77-4.37-4.865 0-3.982 1.794-6.55 8.427-7.7v11.502zm41.423-19.168c-2.232-.773-5.006-1.382-6.831-2.966-1.517-1.318-1.244-3.017-.375-3.925 1.729-1.808 4.816-.966 7.645-.048 2.996.972 5.531 2.843 7.78 4.977 1.617-3.497 3.417-6.78 5.006-10.29-3.215-3.166-7.367-5.529-11.828-6.236-5.11-.808-10.908-.504-15.389 2.324-7.748 4.894-9.774 18.506-1.999 24.338 2.574 1.931 3.815 2.893 8.708 3.94 2.422.518 7.884.97 7.469 4.37-.269 2.175-3.774 2.83-7.401 2.63-3.226-.178-6.377-1.553-9.235-3.4-1.73 3.765-3.686 7.384-5.423 11.147 4.073 2.365 9.064 3.545 13.691 4.095 4.885.58 10.119.236 14.588-1.992 3.545-1.765 6.313-4.756 7.598-8.536 1.296-3.805 1.434-8.51-.712-12.029-2.798-4.591-8.48-6.731-13.292-8.4m0 80.017c-2.232-.775-5.006-1.382-6.831-2.967-1.517-1.318-1.244-3.016-.375-3.926 1.729-1.807 4.816-.964 7.645-.047 2.996.973 5.531 2.843 7.78 4.978 1.617-3.497 3.417-6.782 5.006-10.291-3.215-3.167-7.367-5.529-11.828-6.236-5.11-.808-10.908-.504-15.389 2.325-7.748 4.893-9.774 18.506-1.999 24.337 2.574 1.932 3.815 2.894 8.708 3.94 2.422.518 7.884.971 7.469 4.369-.269 2.176-3.774 2.83-7.401 2.63-3.226-.176-6.377-1.551-9.235-3.4-1.73 3.767-3.686 7.385-5.423 11.148 4.073 2.365 9.064 3.545 13.691 4.095 4.885.58 10.119.236 14.588-1.992 3.545-1.764 6.313-4.755 7.598-8.535 1.296-3.805 1.434-8.511-.712-12.03-2.798-4.592-8.48-6.73-13.292-8.398m-80.68-80.016c-2.232-.773-5.007-1.382-6.831-2.966-1.517-1.318-1.244-3.017-.375-3.925 1.728-1.808 4.816-.966 7.645-.048 2.996.972 5.53 2.843 7.78 4.977 1.616-3.497 3.416-6.78 5.005-10.29-3.214-3.166-7.366-5.529-11.828-6.236-5.109-.808-10.907-.504-15.388 2.324-7.749 4.894-9.774 18.506-2 24.338 2.574 1.931 3.816 2.893 8.709 3.94 2.422.518 7.884.97 7.468 4.37-.268 2.175-3.773 2.83-7.401 2.63-3.225-.178-6.377-1.553-9.234-3.4-1.731 3.765-3.687 7.384-5.424 11.147 4.073 2.365 9.064 3.545 13.692 4.095 4.885.58 10.118.236 14.587-1.992 3.545-1.765 6.313-4.756 7.599-8.536 1.296-3.805 1.433-8.51-.713-12.029-2.798-4.591-8.479-6.731-13.291-8.4M77.246 143.654L62.14 111.007h-.313v32.647h-15.92V79.95H62.22l13.54 29.465h.312V79.95h15.921v63.703zm56.564-3.127l-5.115-10.631c-3.717 1.936-7.335 3.153-10.69 3.153-4.274 0-8.893-1.848-9.438-7.988h24.266v-6.689c0-14.865-6.87-23.445-18.652-23.445-11.317 0-18.653 8.58-18.653 23.445v2.565c0 14.864 7.118 22.794 19.822 23.447 6.127.314 11.828-.493 18.46-3.857m-14.948-24.106h-10.26c0-6.733 1.237-11.66 5.15-11.66 2.811 0 5.031 2.463 5.11 11.66m26.517-64.471c-2.92 0-4.379-1.292-4.379-1.292V28.111s1.458-1.29 4.379-1.29c3.636 0 6.052 5.135 6.063 12.563-.01 7.43-2.427 12.565-6.063 12.565m7.56-36.904c-5.14 0-8.618 1.439-11.939 7.19l-4.78-6.926h-10.9v61.055H141V57.205c3.005 5.75 6.484 6.325 11.94 6.325 7.59 0 12.967-8.23 12.967-23.27v-2.037c0-15.04-4.981-23.178-12.967-23.178m87.082 45.601l-5.118-10.633c-3.715 1.937-7.334 3.155-10.69 3.155-4.271 0-8.89-1.85-9.438-7.989h24.266v-6.69c0-14.864-6.867-23.444-18.652-23.444-11.317 0-18.65 8.58-18.65 23.445v2.565c0 14.865 7.117 22.793 19.822 23.446 6.124.316 11.825-.493 18.46-3.855M225.07 36.539h-10.258c0-6.733 1.236-11.66 5.15-11.66 2.81 0 5.031 2.463 5.108 11.66"/><path d="M240.022 60.646l-5.118-10.633c-3.715 1.937-7.334 3.155-10.69 3.155-4.271 0-8.89-1.85-9.438-7.989h24.266v-6.69c0-14.864-6.867-23.444-18.652-23.444-11.317 0-18.65 8.58-18.65 23.445v2.565c0 14.865 7.117 22.793 19.822 23.446 6.124.316 11.825-.493 18.46-3.855M225.07 36.539h-10.258c0-6.733 1.236-11.66 5.15-11.66 2.81 0 5.031 2.463 5.108 11.66m-39.52.016v-8.443s2.038-1.292 5.843-1.292c2.47 0 5.165 1.405 7.188 3.792 1.06-5.263 3.083-9.571 5.937-12.767-1.942-1.836-4.3-2.8-7.015-2.8-5.14 0-8.619 2.75-11.94 8.5l-4.779-8.237h-10.9v48.575h15.666V36.555zm18.454 84.625c0 9.999-1.296 12.743-4.725 12.743-3.425 0-4.723-2.744-4.723-12.742v-3.008c0-9.998 1.298-12.74 4.723-12.74 3.429 0 4.725 2.742 4.725 12.74v3.008zm-4.725-26.364c-12.6 0-19.88 8.583-19.88 23.447v2.83c0 14.864 7.28 23.447 19.88 23.447 12.602 0 19.88-8.583 19.88-23.446v-2.831c0-14.864-7.278-23.447-19.88-23.447zm-42.809 36.897c-3.636 0-6.052-5.136-6.063-12.565.01-7.428 2.427-12.564 6.063-12.564 2.921 0 4.38 1.291 4.38 1.291v22.546s-1.459 1.292-4.38 1.292zm9.158-36.903l-4.779 8.5c-3.32-5.75-6.8-8.5-11.94-8.5-7.986 0-12.967 8.137-12.967 23.177v2.037c0 15.04 5.377 23.27 12.967 23.27 5.456 0 8.935-.574 11.94-6.323v2.08c-.044 5.135-1.895 8.835-6.216 9.708-3.36.68-8.218-.258-12.094-2.328l-5.698 11.32c5.4 3.416 12.471 4.234 15.306 4.234 14.024 0 24.381-7.235 24.381-25.861V94.81h-10.9zm97.318-3.803h15.92V79.95h-15.92zm-63.157-.391a27 27 0 0 1 5.853.633l4.644-11.298h-14.833l-1.065 11.189a27.443 27.443 0 0 1 5.4-.524" fill="#FEFEFE" mask="url(#d)"/><path d="M96.066 85.605c0-4.027 2.73-5.847 5.937-5.847 2.209 0 3.597.925 4.43 1.968l-2.341 2.09c-.417-.448-1.03-1.045-2.192-1.045-1.403 0-2.492 1.014-2.492 2.701 0 1.731.835 2.88 2.506 2.88 1.448 0 1.999-.612 2.134-1.075h-2.298v-2.448h5.281v6.043l-1.849.284-.612-1.925c-.433.91-1.552 1.94-3.64 1.94-2.567 0-4.864-2.104-4.864-5.566m15.867-.208h1.746c.895 0 1.61-.284 1.61-1.298 0-1.059-.685-1.342-1.61-1.342h-1.746v2.64zm6.58 5.61h-3.461l-1.462-2.984h-1.657v2.984h-3.223V79.952h5.834c2.79 0 4.073 1.85 4.073 4.028 0 1.343-.522 2.76-1.894 3.506l1.79 3.521zm13.742 0V79.95h3.521l4.088 5.46v-5.46h3.164v11.056h-3.043l-4.566-6.087v6.087zm16.032-2.88h.969c2 0 2.97-.73 2.97-2.654 0-1.91-.94-2.538-3.118-2.538h-.821v5.192zm-3.298 2.88V79.95h4.223c3.223 0 6.356 1.03 6.356 5.522 0 4.414-3.327 5.534-6.565 5.534h-4.014zm11.944 0V79.95h8.28v2.985h-4.982v1.208h4.982v2.595h-4.982v1.404h4.982v2.864zm9.44-1.461l1.58-2.253c1.105.76 2.64 1.163 3.863 1.163 1.568 0 1.942-.358 1.942-.805 0-.464-.449-.628-2.075-.762-2.372-.194-4.684-.805-4.684-3.505 0-2.671 2.192-3.612 4.699-3.612 2.625 0 4.059.672 4.834 1.299l-1.64 2.372c-.628-.418-2.046-.792-3.15-.792-1.088 0-1.446.18-1.446.613 0 .536.461.67 2.103.805 2.476.21 4.64.687 4.64 3.432 0 2.238-1.91 3.685-5.117 3.685-2.924 0-4.386-.717-5.55-1.64m-42.599-2.553l1.254-3.222 1.253 3.222h-2.507zm-.284-7.041l-4.415 11.055h3.147l.508-1.298h4.61l.507 1.298h3.358l-4.447-11.055h-3.268z" fill="#1D1D1B" mask="url(#d)"/><path d="M111.933 85.397h1.746c.895 0 1.61-.284 1.61-1.298 0-1.059-.685-1.342-1.61-1.342h-1.746v2.64zm6.58 5.61h-3.461l-1.462-2.984h-1.657v2.984h-3.223V79.952h5.834c2.79 0 4.073 1.85 4.073 4.028 0 1.343-.522 2.76-1.894 3.506l1.79 3.521zM62.589 5.94h1.82c.895 0 1.7-.42 1.7-1.463 0-1.105-.777-1.491-1.7-1.491h-1.82v2.953zm-3.223 5.296V.18h5.848c2.64 0 4.222 1.73 4.222 4.118 0 2.372-1.55 4.282-4.416 4.282h-2.43v2.656h-3.223zm11.436-.001V.18h8.28v2.984H74.1v1.209h4.984v2.595H74.1V8.37h4.984v2.864zm22.994-4.387V.18h3.312v6.206c0 1.506.671 2.164 2.148 2.164 1.447 0 2.134-.582 2.134-2.164V.18h3.208v6.668c0 2.074-1.224 4.61-5.386 4.61-4.178 0-5.416-2.536-5.416-4.61m12.659 4.387V.18h8.28v2.984h-4.983v1.209h4.983v2.595h-4.983V8.37h4.983v2.864zm10.453 0V.18h3.521l4.088 5.46V.18h3.163v11.055h-3.043l-4.566-6.087v6.087zm19.06-4.013L134.714 4l-1.254 3.222h2.508zm-3.551 2.716l-.509 1.298h-3.147L133.207.105h3.208l4.476 11.13h-3.357l-.508-1.297h-4.61zm8.512-.165l1.58-2.253c1.105.762 2.643 1.163 3.866 1.163 1.566 0 1.94-.357 1.94-.805 0-.462-.448-.626-2.076-.761-2.37-.194-4.684-.805-4.684-3.505 0-2.672 2.193-3.612 4.7-3.612 2.627 0 4.058.672 4.834 1.298l-1.641 2.373c-.627-.417-2.043-.791-3.148-.791-1.088 0-1.447.179-1.447.612 0 .537.463.67 2.103.805 2.477.21 4.64.687 4.64 3.431 0 2.239-1.909 3.686-5.117 3.686-2.924 0-4.386-.716-5.55-1.641m-56.975-4.05c0-1.674.999-2.975 2.65-2.975 1.638 0 2.636 1.301 2.636 2.975 0 .708-.184 1.338-.51 1.842l-.505-.99-2.582.878.602 1.222c-1.43-.178-2.291-1.392-2.291-2.952m6.854 5.183c-.36-.04-.43-.14-.6-.455a.726.726 0 0 1-.02-.037c1.406-.934 2.393-2.493 2.393-4.685 0-7.64-11.97-7.64-11.97 0 0 4.24 3.688 6.123 6.97 5.655l.073.15c.157.304.367.643.367.643.326.507.83.89 1.603.98.275.032 1.59.18 2.85-.644l-.897-1.837c-.399.246-.65.243-.77.23" fill="#1D1D1B" mask="url(#d)"/></g></svg>