<svg xmlns:svg="http://www.w3.org/2000/svg" xmlns="http://www.w3.org/2000/svg" xmlns:xlink="http://www.w3.org/1999/xlink" width="464" height="108">
    <path style="fill:#e682e2;" d="m 35.609375,0.00585938 c -0.486589,0.00670653 -0.982578,0.02412499 -1.486328,0.05078124 0,0 -31.8122658,-1.07012502 -33.94726575,48.29687538 0,0 -4.26399995,57.654754 29.24999975,58.718754 0,0 17.083485,1.49059 23.271485,-13.191411 l 2.77539,11.560551 8.75,0 0,-54.330082 -30.738281,0 0,15.962891 12.380859,0 c 0,0 2.986141,22.556265 -12.380859,21.697265 0,0 -11.958656,4.259594 -12.597656,-35.316406 0,0 -1.068313,-35.530906 14.304687,-36.378906 0,0 12.810516,0.211547 11.103516,21.060547 l 16.859375,0 c 0,0 3.110177,-38.55337135 -27.544922,-38.13085962 z M 434.16797,1.5703125 c -0.78339,0.00434 -1.23047,0.042969 -1.23047,0.042969 l -30.32227,0 0,103.8320288 20.28711,0 0,-39.863279 7.25391,0 11.74219,39.863279 21.34961,0 -14.94336,-44.330076 c 18.147,-12.55 13.87695,-30.421875 13.87695,-30.421875 C 461.62164,3.1413594 439.6517,1.5399062 434.16797,1.5703125 Z m -366.527345,0.044922 0,103.8300756 40.992185,0 0,-18.724607 -20.07031,0 0.01563,-85.1054686 z m 67.546875,0 -24.48047,103.8300756 18.20508,0 5.05664,-22.69531 21.63086,0 4.05859,22.69531 19.42969,0 1.28516,0 16.64843,0 0,-74.541013 16.86329,74.541013 12.81054,0 16.86719,-74.326169 0,74.326169 20.71484,0 0,-103.8300756 -28.40429,0 -14.08789,68.6503906 -11.74219,-68.6503906 -30.95508,0 0,98.0957036 -21.98633,-98.0957036 z m 200.81445,0.041016 0,69.712891 c 0,0 -4.69786,37.876559 29.24414,36.601559 l 3.41797,0 c 33.948,1.275 29.25,-36.601559 29.25,-36.601559 l 0,-69.712891 -20.06836,0 0,76.734375 c 0,0 1.92471,10.855187 -10.02929,11.492187 l 0,-0.002 -1.70703,0 c -11.95901,-0.636 -10.03516,-11.490234 -10.03516,-11.490234 l 0,-76.734375 z m 91.45899,16.117188 c 5.76463,0.11431 14.82733,2.492171 13.79883,16.537109 0,0 1.70757,16.594281 -18.35743,13.613281 l 0,-29.785156 c 0,0 1.93831,-0.417194 4.5586,-0.365234 z m -282.67578,9.658203 8.46875,39.003906 -16.72657,0.134765 z" />
    <path d="M235.873 1.615l-14.088 68.65-11.742-68.65h-30.956v103.83h17.935v-74.54l16.863 74.54h12.81l16.867-74.325v74.326h20.716V1.615zM308.465 77.927s-1.495 11.275-8.75 11.486h-.429c-7.26-.21-8.756-11.486-8.756-11.486-1.068-3.408-.64-41.494-.64-41.494.694-15.125 7.24-17.458 9.608-17.809a4.421 4.421 0 0 0-.607-.06h-.244s.081-.005.244 0h1.214c.157-.005.249 0 .249 0h-.25a4.499 4.499 0 0 0-.606.06c2.368.351 8.908 2.684 9.607 17.81 0 0 .428 38.085-.64 41.493m23.485-24.684C331.95 1.273 304.7-.022 299.498.2c-5.197-.221-32.452 1.075-32.452 53.044 0 0-2.525 57.586 32.452 54.276 34.982 3.31 32.452-54.276 32.452-54.276" fill="#e682e2" />
</svg>