<svg xmlns:svg="http://www.w3.org/2000/svg" xmlns="http://www.w3.org/2000/svg" xmlns:xlink="http://www.w3.org/1999/xlink" width="473px" height="110px" viewBox="0 0 473 110">
<path style="fill:#7dcc41;" d="M 238.79102 0 L 238.79102 1.96875 L 392.24414 1.96875 L 395.29883 1.9746094 C 399.10086 2.1726094 402.35474 3.2337813 405.37109 4.9882812 C 406.38752 5.5767812 407.30378 6.3399844 408.17188 7.2089844 C 410.09487 9.1284844 411.29841 11.317672 410.96875 14.326172 C 410.86985 15.178672 410.71161 15.96525 410.39844 16.71875 C 408.57435 21.17925 403.72857 23.296578 399.76172 25.205078 C 393.38289 28.301578 387.00346 31.393734 380.61914 34.490234 C 377.6907 35.920234 373.91046 37.288859 371.74023 40.005859 C 367.72393 45.032859 376.35432 50.291 379.7168 52.5625 C 381.81561 54.031 383.9145 55.493672 386.00781 56.951172 C 386.6891 57.429672 387.31004 57.985984 388.00781 58.458984 L 408.62305 72.935547 L 408.71094 72.869141 C 409.57354 73.441141 410.36978 73.952125 410.82031 74.265625 C 411.99608 75.079625 426.19831 84.991172 428.91797 86.888672 C 439.95592 94.594172 451.00111 102.3 462.03906 110 L 471.80664 110 C 468.8892 108.0585 465.97178 106.11569 463.04883 104.17969 C 460.027 102.12819 456.87877 100.22528 453.87891 98.113281 C 452.9284 97.447781 451.90131 96.859016 450.94531 96.166016 C 450.53324 95.913016 450.11092 95.654984 449.69336 95.396484 C 446.79788 93.328484 443.74252 91.491359 440.80859 89.505859 C 436.63296 86.684359 425.82094 79.490812 424.50781 78.632812 C 424.48581 78.616313 424.46377 78.600844 424.44727 78.589844 C 424.02971 78.320344 409.79918 68.743484 409.30469 68.583984 L 409.29297 68.583984 L 393.04102 57.699219 C 392.28282 57.110719 391.10161 56.336156 390.83789 56.160156 C 390.15111 55.698156 389.45899 55.335406 388.7832 54.878906 C 386.44265 53.289406 384.09591 51.732234 381.77734 50.115234 C 380.40377 49.163734 378.91638 48.345172 377.6582 47.201172 C 375.83411 45.540172 373.77935 43.443344 375.36719 40.902344 C 376.42758 39.186344 378.56376 38.186328 380.22852 37.361328 C 381.8658 36.541828 383.53655 35.765172 385.17383 34.951172 C 389.80549 32.630172 394.53582 30.431656 399.18945 28.160156 C 402.02998 26.779656 404.95247 25.535234 407.61719 23.802734 C 408.38638 23.302234 409.13327 22.731281 409.875 22.175781 C 411.17713 21.202281 412.43134 19.936469 413.33789 18.605469 C 414.75541 16.487969 415.39796 13.550781 414.74414 10.800781 C 414.22219 8.5952812 412.86511 6.6277812 411.04102 5.1757812 C 406.60715 1.6227813 401.22164 0.46615625 395.29883 0.09765625 L 392.32617 0 L 238.79102 0 z M 378.29492 3.4472656 L 238.79102 3.5039062 L 238.79102 5.3339844 L 375.73438 5.3339844 L 379.26758 5.3945312 C 384.44317 5.3890313 389.62963 5.5106875 393.34375 8.3046875 C 394.84368 9.4321875 395.74575 10.943672 395.65234 12.951172 C 395.59744 14.210672 394.99157 15.244891 394.36523 16.212891 C 392.21148 19.523891 388.18952 21.691344 384.81055 23.214844 C 377.62407 26.586344 370.4322 29.952719 363.24023 33.324219 C 360.60848 34.600219 357.7629 35.606094 355.48828 37.558594 C 354.84545 38.114094 354.18123 38.752516 353.76367 39.478516 C 351.76926 42.877516 354.31774 46.079344 356.80664 48.339844 C 359.65266 50.935844 362.88381 52.981062 365.86719 55.351562 C 369.75163 58.294063 384.68042 69.617875 385.2793 70.046875 L 385.2832 70.046875 C 385.2832 70.046875 412.65499 90.726906 418.39648 95.066406 L 438.16016 110 L 447.49414 110 C 437.93415 103.114 428.40755 96.167344 418.78711 89.402344 C 415.23233 86.905344 411.77708 84.287859 408.2168 81.818359 C 407.20586 81.092359 406.19454 80.360766 405.18359 79.634766 C 404.10672 78.903266 403.04782 78.105063 402.00391 77.351562 C 401.61382 77.076562 401.23874 76.691109 400.80469 76.537109 C 400.79969 76.548109 400.79456 76.565172 400.78906 76.576172 C 400.78906 76.576172 378.67411 60.504188 377.26758 59.492188 C 373.92158 57.050187 370.57647 54.60925 367.23047 52.15625 C 366.27447 51.46325 365.31745 50.714687 364.33398 50.054688 C 363.62523 49.581688 362.87879 49.075547 362.23047 48.498047 C 360.01079 46.540047 356.6914 44.11575 357.95508 40.65625 C 358.80119 38.33525 362.28952 36.760813 364.29492 35.820312 C 365.95968 35.033813 367.59319 34.265172 369.23047 33.451172 C 371.71387 32.202672 374.23499 31.069734 376.71289 29.865234 C 379.26223 28.622234 381.7788 27.373703 384.32812 26.158203 C 387.98181 24.414703 391.48628 22.786156 394.77734 20.410156 C 396.48056 19.172656 398.1957 17.599281 399.28906 15.800781 C 400.18462 14.315781 400.5852 12.331344 399.98633 10.527344 C 399.55228 9.2293437 398.59177 8.232125 397.50391 7.390625 C 396.0809 6.279625 394.49179 5.6149688 392.81055 5.0429688 C 388.60744 3.6074687 384.14648 3.4637656 379.26758 3.4472656 L 378.29492 3.4472656 z M 238.79102 6.8359375 L 238.79102 8.6679688 L 365.1582 8.6679688 C 365.7351 8.6679688 366.73987 8.6843125 367.41016 8.6953125 C 367.95959 8.7118125 369.71782 8.7448594 370.08594 8.7558594 C 372.72867 8.8218594 375.13486 9.1684844 377.13477 10.521484 C 377.52486 10.779984 378.20599 11.252234 378.51367 11.615234 C 379.2499 12.506234 379.69524 13.55125 379.45898 14.84375 C 378.90956 17.90725 375.1964 19.585234 372.77344 20.740234 C 372.11962 21.031734 371.46595 21.328719 370.80664 21.636719 C 361.79057 25.739719 352.76376 29.836813 343.74219 33.945312 C 342.97849 34.297312 342.20901 34.655812 341.44531 35.007812 C 338.62126 36.322313 335.75777 38.147953 335.93359 41.876953 C 336.10941 45.726953 339.86189 48.311719 342.60352 50.511719 C 344.76277 52.304719 346.9107 54.097625 349.06445 55.890625 C 350.26769 56.847625 351.48268 57.870609 352.69141 58.849609 C 353.09799 59.196109 353.50553 59.542531 353.91211 59.894531 C 354.88459 60.681031 355.84979 61.467406 356.82227 62.253906 C 358.49802 63.683906 384.4216 85.073297 387.67969 87.779297 C 391.14107 90.622797 394.59685 93.454969 398.05273 96.292969 C 399.44827 97.464469 400.83688 98.630875 402.23242 99.796875 C 406.33663 103.08038 410.37651 106.49569 414.42578 109.86719 C 414.48068 109.90569 414.53526 109.956 414.5957 110 L 424.00195 110 C 421.98556 108.449 419.95254 106.91958 417.97461 105.33008 C 413.24406 101.62858 408.50753 97.922203 403.77148 94.220703 C 401.72762 92.636703 376.94353 73.276844 376.65234 73.089844 C 375.06999 71.863344 373.5085 70.630437 371.93164 69.398438 C 364.15178 63.276938 356.36775 57.150437 348.58789 51.023438 C 347.50552 50.154438 346.41635 49.291234 345.33398 48.427734 C 343.47143 46.931734 340.98324 44.790938 340.55469 42.398438 C 339.91735 38.867438 344.13709 36.756156 346.58203 35.535156 C 347.70835 34.968656 348.80752 34.452391 349.9668 33.962891 C 351.15356 33.396391 352.33436 32.834078 353.51562 32.267578 C 357.89454 30.359078 362.1466 28.186516 366.49805 26.228516 C 368.77816 25.194516 371.04777 24.178125 373.29492 23.078125 C 374.30586 22.605125 375.31682 22.125703 376.32227 21.658203 C 378.20131 20.668203 379.97063 19.452313 381.58594 17.945312 C 382.65732 16.927812 383.70725 15.300687 383.82812 13.804688 C 383.94351 12.336187 383.3487 11.213375 382.36523 10.234375 C 379.67854 7.539375 375.39434 7.011625 371.39453 6.890625 C 370.52644 6.863125 365.21875 6.8359375 365.21875 6.8359375 L 238.79102 6.8359375 z M 238.79102 10.652344 L 238.79102 12.478516 L 356.09766 12.478516 C 358.14152 12.522516 359.68666 12.815422 360.29102 12.919922 C 362.30741 13.271922 364.12469 13.975328 364.44336 15.361328 C 365.14662 18.413828 357.68691 21.026 355.70898 21.8125 C 348.6104 24.6725 341.51069 27.526359 334.41211 30.380859 C 332.59352 31.117859 330.7694 31.860656 328.94531 32.597656 C 328.94531 32.597656 316.16148 36.970172 316.29883 40.638672 C 316.39223 43.091672 327.53906 52.320312 327.53906 52.320312 C 327.71488 52.507312 327.89096 52.689594 328.07227 52.871094 C 328.55027 53.349594 329.04934 53.794891 329.52734 54.212891 C 330.97233 55.488891 332.32027 56.852547 333.75977 58.123047 C 334.38062 58.717047 335.00024 59.30675 335.62109 59.90625 C 336.51116 60.74225 337.48884 61.578062 338.37891 62.414062 C 339.58765 63.558062 340.79126 64.689625 342 65.828125 C 343.48344 67.131625 344.89595 68.495734 346.35742 69.865234 C 346.8519 70.338234 347.41726 70.751453 347.90625 71.251953 C 361.85066 84.171453 375.79546 97.086 389.73438 110 L 399.22852 110 C 383.06993 95.7385 366.86636 81.526766 350.71875 67.259766 C 345.37834 62.546266 340.08834 57.880953 334.77539 53.189453 C 333.14909 51.753953 331.51179 50.307672 329.89648 48.888672 C 329.64375 48.668672 329.3914 48.426313 329.13867 48.195312 L 329.17578 48.101562 C 329.17578 48.101562 328.89121 47.892656 328.42969 47.535156 C 328.11652 47.260156 327.80389 46.996266 327.46875 46.759766 L 327.46875 46.792969 C 324.71063 44.609469 319.75894 40.37575 321.45117 39.28125 C 322.72584 38.45075 326.90284 36.734906 327.46875 36.503906 L 327.46875 36.535156 C 327.55115 36.535156 327.5293 36.557109 327.5293 36.474609 C 327.77654 36.375609 328.01643 36.276734 328.26367 36.177734 C 328.95595 35.891734 329.63902 35.639156 330.32031 35.347656 C 332.69932 34.302656 335.13258 33.329484 337.53906 32.333984 C 344.16513 29.611484 350.76846 26.855672 357.39453 24.138672 C 358.82304 23.544672 360.23642 22.983187 361.64844 22.367188 C 364.01647 21.333188 366.71891 20.233312 368.36719 17.945312 C 370.61433 14.821312 368.35651 12.523422 365.52148 11.357422 C 364.63691 10.994422 362.92227 10.669922 358.46094 10.669922 L 356.09766 10.652344 L 238.79102 10.652344 z M 338.66992 14.925781 L 338.66992 14.931641 L 336.71484 14.953125 L 238.79102 14.953125 L 238.79102 16.779297 L 338.66992 16.779297 L 338.66992 16.791016 C 340.10941 16.851516 345.84574 17.005672 346.25781 18.138672 C 346.66988 19.277172 342.98904 20.596297 342.23633 20.904297 C 339.27493 22.048297 336.30284 23.181812 333.33594 24.320312 C 331.96237 24.881312 330.58317 25.492 329.16016 25.9375 C 328.59975 26.1465 328.03271 26.361313 327.4668 26.570312 C 327.4668 26.570312 312.52346 32.427688 312.43555 32.367188 C 310.22136 33.423187 307.8207 33.923297 305.88672 35.529297 C 305.74387 35.688797 305.59952 35.847953 305.45117 36.001953 C 300.5503 40.907953 308.11111 47.316875 311.69336 51.359375 L 325.73633 66.742188 C 325.90116 67.171188 326.98321 68.194516 327.31836 68.541016 C 328.16447 69.470516 329.00544 70.405203 329.85156 71.345703 C 333.7305 75.602703 337.60897 79.864094 341.48242 84.121094 C 349.32271 92.745094 357.16324 101.376 364.99805 110 L 374.31641 110 C 369.44301 105.0445 364.55382 100.09998 359.69141 95.083984 C 354.47736 89.688484 349.19185 84.242688 343.87891 78.929688 C 339.4945 74.535188 335.26417 70.042219 330.86328 65.636719 C 329.92925 64.685219 329.00043 63.728484 328.06641 62.771484 C 327.70928 62.413984 327.40779 61.990047 326.99023 61.748047 L 312.56836 46.964844 C 312.55736 46.942844 312.55006 46.920797 312.53906 46.904297 C 312.22589 46.354297 311.58443 45.918312 311.15039 45.445312 C 309.84825 44.009813 308.33594 42.053094 308.33594 39.996094 C 308.33594 38.181094 309.73774 36.903938 311.19922 36.210938 C 311.5948 36.023938 312.2044 35.897125 312.51758 35.578125 L 312.52344 35.578125 L 327.4668 29.441406 C 329.35133 28.649406 331.23619 27.856813 333.11523 27.070312 C 334.40637 26.542313 335.6925 26.014328 336.97266 25.486328 C 338.0825 25.013328 339.19289 24.546859 340.30273 24.068359 C 341.42905 23.666859 342.49881 23.181625 343.59766 22.703125 C 344.52619 22.296125 345.48835 21.933781 346.40039 21.488281 C 347.58715 20.905281 351.24577 19.078719 350.97656 17.324219 C 350.77876 16.042719 348.25693 15.586156 347.18555 15.410156 C 344.61424 14.992156 341.77425 14.920641 338.90625 14.931641 L 338.90625 14.925781 L 338.7793 14.931641 C 338.7408 14.931641 338.7084 14.925781 338.66992 14.925781 z " id="path8443" /> <path style="fill:#ffffff;fill-rule:evenodd;stroke:none;stroke-width:1" d="M 29.632812 21.320312 C 12.754468 21.347812 0.045907145 35.280125 0.001953125 50.328125 C 0.001953125 64.512625 8.1499489 80.017578 27.011719 80.017578 L 72.658203 79.988281 L 72.658203 67.152344 L 55.302734 67.152344 L 76.712891 30.582031 L 81.082031 23.146484 L 76.712891 23.146484 L 64.802734 23.146484 L 49.857422 47.138672 L 29.583984 47.138672 L 29.583984 59.490234 L 43.027344 59.490234 C 39.148402 65.056234 35.16524 66.788297 30.451172 66.716797 C 27.215057 66.716797 24.623059 66.217266 22.095703 64.759766 C 17.628875 62.158266 14.990362 57.010516 14.962891 50.416016 C 14.962891 42.369516 22.249712 35.944453 30.474609 35.751953 C 35.435919 35.548453 42.022398 37.677031 46.033203 44.332031 L 53.708984 32.277344 C 47.555421 25.473844 39.126882 21.320312 29.632812 21.320312 z M 102.21875 21.486328 C 91.471987 21.508328 81.972844 27.343875 76.714844 35.984375 C 73.956729 40.549375 72.357422 45.884188 72.357422 51.554688 C 72.357422 57.263688 73.956729 62.614328 76.714844 67.173828 C 81.972844 75.891328 91.471987 81.722656 102.21875 81.722656 L 102.26367 81.722656 C 118.73544 81.722656 132.21875 68.159188 132.21875 51.554688 C 132.21875 35.038187 118.73544 21.486328 102.26367 21.486328 L 102.21875 21.486328 z M 204.00586 21.486328 C 187.58354 21.486328 174.10156 35.032688 174.10156 51.554688 C 174.10156 68.159188 187.58354 81.722656 204.00586 81.722656 L 204.25391 81.722656 C 220.63227 81.585156 233.98242 68.065687 233.98242 51.554688 C 233.98242 35.126188 220.63227 21.623828 204.25391 21.486328 L 204.00586 21.486328 z M 256.86914 22.863281 C 255.93666 22.873594 255.00659 22.888672 254.0918 22.888672 L 238.71875 22.888672 L 238.71875 80.677734 L 253.56836 80.677734 L 253.56836 64.765625 L 253.63477 64.765625 C 253.63477 65.024125 253.93222 65.349953 254.05859 65.564453 C 254.48165 66.279453 254.90507 66.988125 255.32812 67.703125 C 257.15221 70.788625 261.4981 78.070531 263.08594 80.644531 L 281.02344 80.644531 C 280.10041 79.247531 279.14959 77.877469 278.22656 76.480469 C 275.8915 72.949469 273.54599 69.413813 271.21094 65.882812 C 270.56811 64.914812 269.93188 63.952375 269.28906 62.984375 C 269.07478 62.676375 268.95795 62.467 268.58984 61.8125 C 268.58984 61.8125 269.00827 61.531875 269.16211 61.421875 C 271.20048 60.035875 272.48544 59.206266 273.26562 58.447266 C 276.37536 55.427766 278.34738 51.840875 279.16602 47.671875 C 280.83078 39.196375 277.73823 31.117953 271.18359 26.376953 C 269.30455 25.023953 267.20126 23.951109 264.91016 23.412109 C 262.47895 22.842859 259.66658 22.832344 256.86914 22.863281 z M 283.67188 22.888672 L 283.67188 48.265625 C 283.67188 51.763625 283.62262 55.389031 283.73242 58.832031 C 283.79832 60.856031 283.87456 62.758547 284.2207 64.623047 C 284.80858 67.714047 285.67767 70.595203 287.29297 73.158203 C 290.85325 78.801203 296.68117 81.204781 303.3457 81.738281 C 304.80168 81.848281 306.43427 81.936891 307.97266 81.837891 C 310.95055 81.650891 313.79588 81.238406 316.36719 80.253906 C 324.20749 77.234406 327.56979 70.343391 328.35547 62.087891 C 328.72359 58.204891 328.43955 54.194844 328.5 50.152344 C 328.5549 46.846844 328.5 37.997969 328.5 36.980469 C 328.522 36.221469 328.51014 30.979172 328.49414 22.888672 C 324.78002 22.888672 313.87445 22.877672 313.57227 22.888672 C 313.55577 23.515672 313.57617 31.809687 313.57617 34.367188 L 313.57617 52.044922 L 313.57617 57.130859 C 313.57617 60.386859 313.5612 63.798234 311.98438 66.240234 C 311.34704 67.219234 310.41255 67.878 309.39062 68.3125 C 309.02801 68.439 308.66535 68.554781 308.30273 68.675781 C 308.17087 68.703281 308.03847 68.720187 307.91211 68.742188 L 307.39062 68.808594 C 305.55005 68.808594 303.88444 68.797031 302.43945 68.082031 C 297.95614 65.887531 298.6543 58.594375 298.6543 53.671875 L 298.6543 22.888672 L 283.67188 22.888672 z M 442.32617 22.890625 L 442.32617 80.746094 L 472.36328 80.746094 L 472.36328 67.568359 L 457.05078 67.568359 L 457.05078 22.890625 L 442.32617 22.890625 z M 422.06445 22.894531 C 421.81721 23.444531 421.38948 23.970922 421.04883 24.482422 C 420.47743 25.345922 419.90575 26.211078 419.33984 27.080078 C 417.45531 29.934578 415.57008 32.776719 413.68555 35.636719 C 412.66362 37.176719 411.64302 38.723672 410.62109 40.263672 C 408.83546 43.013672 406.98902 45.691922 405.14844 48.419922 C 401.53323 53.776922 389.13146 71.518438 383.02734 80.648438 L 401.11523 80.648438 C 403.18657 77.612437 403.84015 76.716906 404.78516 75.253906 C 405.16976 74.703906 406.51072 72.541812 407.23047 71.507812 C 407.23047 71.507812 419.0599 71.492188 422.90039 71.492188 C 422.90039 74.099187 422.91709 80.164438 422.93359 80.648438 C 423.75773 80.670438 433.73953 80.648438 437.93164 80.648438 C 437.93164 79.003938 437.95898 77.520016 437.95898 75.853516 L 437.95898 22.894531 L 422.06445 22.894531 z M 134.88281 23.216797 L 134.88281 80.021484 L 154.03516 80.021484 L 155.46875 80.021484 C 167.74841 80.103984 172.50703 70.054141 172.75977 63.619141 C 172.9191 57.167641 170.5668 52.32825 166.10547 49.96875 C 169.90749 47.18025 171.11635 43.192078 171.04492 38.330078 C 170.97902 30.767578 166.03555 23.238797 154.16797 23.216797 L 154.03516 23.216797 L 134.88281 23.216797 z M 256.85938 35.330078 C 257.7776 35.343828 258.67355 35.402125 259.49219 35.578125 C 262.90962 36.315125 265.4962 38.739437 265.55664 42.523438 C 265.58414 44.552937 265.14622 46.270297 264.02539 47.716797 C 263.16829 48.822297 261.99779 49.349422 260.78906 49.794922 C 260.42644 49.915922 260.05793 50.031344 259.69531 50.152344 C 259.56345 50.174344 259.43655 50.19675 259.30469 50.21875 C 259.17283 50.24075 259.04043 50.263156 258.91406 50.285156 C 258.73824 50.312656 258.56291 50.329562 258.39258 50.351562 L 253.56836 50.351562 C 253.56836 45.544562 253.56423 40.742906 253.55273 35.941406 C 253.60223 35.638906 253.86105 35.501656 254.0918 35.347656 C 255.0011 35.347656 255.94115 35.316328 256.85938 35.330078 z M 149.4082 35.712891 L 153.30469 35.873047 C 153.55742 35.873047 153.78243 35.916781 154.03516 35.988281 C 155.55707 36.422781 157.15625 37.968281 157.15625 40.113281 C 157.12875 41.917281 156.1999 44.099719 154.03516 44.699219 C 153.67254 44.787219 153.2817 44.837375 152.84766 44.859375 L 149.4082 44.859375 L 149.4082 35.712891 z M 204.25391 36.578125 C 212.50078 36.578125 219.19727 43.447156 219.19727 51.785156 C 219.19727 60.134156 212.75323 67.246094 204.48438 67.246094 L 204.25391 67.246094 C 196.10593 67.114094 189.28711 60.035156 189.28711 51.785156 C 189.28711 43.447156 195.99055 36.578125 204.25391 36.578125 z M 102.21875 36.605469 L 102.26367 36.605469 C 110.50505 36.605469 117.43359 43.469 117.43359 51.8125 C 117.43359 60.134 110.75749 67.015625 102.49414 67.015625 L 102.21875 67.015625 C 94.087252 66.861625 86.984375 60.0405 86.984375 51.8125 C 86.984375 43.469 93.971872 36.621969 102.21875 36.605469 z M 422.96484 46.691406 C 422.89894 52.702906 422.90039 57.251359 422.90039 60.380859 C 422.88389 60.380859 414.43792 60.392578 414.17969 60.392578 C 417.06417 55.915578 420.07486 51.168406 422.96484 46.691406 z M 149.4082 55.753906 L 153.17188 55.753906 C 153.46307 55.775906 153.76045 55.821438 154.03516 55.898438 C 156.97459 56.481437 158.49728 58.762969 158.66211 61.292969 C 158.66211 63.685469 157.11195 66.578344 154.03516 67.089844 C 153.78243 67.111844 153.53448 67.13425 153.25977 67.15625 L 149.4082 67.15625 L 149.4082 55.753906 z " id="Fill-4" />
</svg>
