<svg xmlns:svg="http://www.w3.org/2000/svg" xmlns="http://www.w3.org/2000/svg" x="0px" y="0px" viewBox="0 0 430 101">
<path style="fill:#ffffff" d="M 18 0 L 18 4 L 66 4 L 66 0 L 18 0 z M 203.90039 6.1992188 C 175.70039 6.1992188 157.30078 26.299609 157.30078 53.599609 C 157.30078 80.899609 175.60039 101 203.90039 101 C 231.70039 101 250.40039 80.899609 250.40039 53.599609 C 250.40039 26.299609 231.70039 6.1992187 203.90039 6.1992188 z M 302.40039 6.1992188 C 274.60039 6.1992188 256.80078 26.599609 256.80078 53.599609 C 256.80078 80.899609 273.89961 101 302.09961 101 C 324.69961 101 339.40039 88.599219 342.90039 69.199219 L 325.09961 69.199219 C 322.19961 79.799219 315.30039 85.699219 302.40039 85.699219 C 285.90039 85.699219 275.19922 72.099609 275.19922 53.599609 C 275.19922 34.699609 285.70039 21.5 302.40039 21.5 C 314.50039 21.5 322.19961 27.4 325.09961 38 L 342.90039 38 C 339.40039 18.6 325.00039 6.1992187 302.40039 6.1992188 z M 0 7.8007812 L 0 99.400391 L 67.5 99.400391 L 67.5 84.599609 L 17.800781 84.599609 L 17.800781 59.699219 L 56.800781 59.699219 L 56.800781 45.599609 L 17.800781 45.599609 L 17.800781 22.599609 L 66.300781 22.599609 L 66.300781 7.8007812 L 0 7.8007812 z M 374.90039 7.8007812 L 341 99.400391 L 359 99.400391 L 366.19922 78.900391 L 404 78.900391 L 411 99.400391 L 429.90039 99.400391 L 395.90039 7.8007812 L 374.90039 7.8007812 z M 78.800781 7.9003906 L 78.800781 99.400391 L 96.599609 99.400391 L 96.599609 69.5 L 118.09961 69.5 C 139.89961 69.5 152 56.199609 152 38.099609 C 152 20.299609 139.89961 7.9003906 118.09961 7.9003906 L 78.800781 7.9003906 z M 204 21.5 C 220.9 21.5 232.19922 35.099609 232.19922 53.599609 C 232.19922 72.099609 220.9 85.699219 204 85.699219 C 187 85.699219 175.69922 72.299609 175.69922 53.599609 C 175.69922 34.999609 187 21.5 204 21.5 z M 96.599609 22.199219 L 116.5 22.199219 C 128.1 22.199219 133.90039 28.700781 133.90039 38.300781 C 133.90039 48.000781 128.1 55.099609 116.5 55.099609 L 96.599609 55.099609 L 96.599609 22.199219 z M 385 24.699219 L 385.59961 24.699219 L 399.09961 64.5 L 371.09961 64.5 L 385 24.699219 z "/>
</svg>
