<svg xmlns:svg="http://www.w3.org/2000/svg" xmlns="http://www.w3.org/2000/svg" xmlns:xlink="http://www.w3.org/1999/xlink" width="521px" height="209px" viewBox="0 0 521 209" >
<path style="fill:#ffffff;" d="M 451.87109 0.33203125 C 402.49284 0.33203125 382.50586 35.392312 382.50586 81.570312 C 382.50586 127.27165 401.7713 164.01953 451.39062 164.01953 C 501.00997 164.01953 521.00391 126.30375 521.00391 81.09375 C 521.00391 34.908417 501.73151 0.33203125 451.87109 0.33203125 z M 52.033203 3.2304688 L 0.001953125 160.64062 L 35.164062 160.64062 L 41.673828 138.88281 L 90.568359 138.88281 L 96.589844 160.64062 L 139.22461 160.64062 L 88.640625 3.2304688 L 52.033203 3.2304688 z M 134.88672 3.234375 L 134.88672 101.4043 C 134.88672 148.54297 158.97345 164.02344 185.4707 164.02344 C 198.4819 164.02344 206.42392 161.36234 210.28125 160.15234 L 221.35547 143.23438 L 229.3125 160.64453 L 257.9707 160.64453 L 257.9707 3.234375 L 216.7832 3.234375 L 216.7832 129.21289 C 211.48668 131.38356 204.98428 133.32031 194.625 133.32031 C 181.61381 133.32031 176.07617 125.82433 176.07617 109.625 L 176.07617 3.234375 L 134.88672 3.234375 z M 267.36133 3.234375 L 267.36133 36.117188 L 305.42383 36.117188 L 305.42383 160.64453 L 346.61328 160.64453 L 346.61328 36.117188 L 384.67383 36.117188 L 384.67383 3.234375 L 267.36133 3.234375 z M 451.39062 31.287109 C 469.69835 31.287109 477.64648 36.596333 477.64648 72.625 L 477.64648 87.136719 C 477.64648 126.06205 469.69665 134.76758 451.87109 134.76758 C 434.28662 134.76758 425.85742 127.27261 425.85742 87.863281 L 425.85742 73.591797 C 425.85742 37.328464 433.32399 31.287109 451.39062 31.287109 z M 66.964844 46.519531 L 72.019531 74.083984 L 83.103516 112.76758 L 49.621094 112.76758 L 61.185547 74.083984 L 66.964844 46.519531 z M 258.3457 168.52344 C 249.25759 168.52344 244.74219 173.16417 244.74219 180.9375 C 244.74219 189.2975 248.49797 191.99673 254.77344 193.05273 C 260.22339 193.99873 261.44922 194.53423 261.44922 197.24023 C 261.44922 200.05623 259.86359 200.94336 255.58984 200.94336 C 252.18545 200.94336 249.43253 199.94644 246.15234 198.64844 L 244.56641 205.70898 C 247.4448 207.06565 250.84166 208.35742 256.52539 208.35742 C 266.90658 208.35742 270.83008 203.88384 270.83008 195.58984 C 270.83008 187.52318 266.72355 185.0595 259.8125 183.9375 C 254.64747 183.11616 253.88867 182.34647 253.88867 179.75781 C 253.88867 177.28647 255.23992 176.40625 259.51367 176.40625 C 262.91806 176.40625 264.97116 176.93445 268.01758 177.81445 L 268.95312 170.34766 C 266.49115 169.28433 263.32809 168.52344 258.3457 168.52344 z M 354.54297 168.52344 C 342.52533 168.52344 337.6582 177.05292 337.6582 188.29492 C 337.6582 199.41226 342.34189 208.35742 354.41797 208.35742 C 366.49406 208.35742 371.35937 199.17725 371.35938 188.16992 C 371.35938 176.93525 366.67019 168.52344 354.54297 168.52344 z M 390.17578 169.22656 L 390.17578 207.53516 L 400.19922 207.53516 L 400.19922 193.76367 L 404.01172 193.76367 L 410.68945 207.53516 L 421.01172 207.53516 L 415.21289 196.17578 L 410.52148 192.75781 C 417.32296 191.40848 419.71875 187.52893 419.71875 181.93359 C 419.71875 172.69359 413.9188 169.22656 404.30469 169.22656 L 390.17578 169.22656 z M 436.48438 169.22656 L 436.48438 177.22656 L 445.74805 177.22656 L 445.74805 207.53516 L 455.77148 207.53516 L 455.77148 177.22656 L 465.03516 177.22656 L 465.03516 169.22656 L 436.48438 169.22656 z M 202.18164 169.22852 L 202.18164 207.53711 L 227.33594 207.53711 L 227.33594 199.82227 L 212.21289 199.82227 L 212.21289 192.05664 L 223.81445 192.05664 L 223.81445 184.58398 L 212.21289 184.58398 L 212.21289 177.22852 L 226.2168 177.22852 L 226.2168 169.22852 L 202.18164 169.22852 z M 483.79297 169.22852 L 483.79297 207.53711 L 508.9375 207.53711 L 508.9375 199.82227 L 493.81445 199.82227 L 493.81445 192.05664 L 505.42383 192.05664 L 505.42383 184.58398 L 493.81445 184.58398 L 493.81445 177.22852 L 507.82812 177.22852 L 507.82812 169.22852 L 483.79297 169.22852 z M 290.81641 169.23242 L 290.81641 207.53516 L 300.8457 207.53516 L 300.8457 196.71094 L 304.88672 196.71094 C 314.55928 196.71094 320.06641 191.75965 320.06641 182.82031 C 320.06641 173.63898 314.44239 169.23242 304.88672 169.23242 L 290.81641 169.23242 z M 354.41797 176.05469 C 358.87436 176.05469 360.81055 177.34457 360.81055 186.11523 L 360.81055 189.64258 C 360.81055 199.11724 358.87516 201.24414 354.54297 201.24414 C 350.26191 201.24414 348.20898 199.41231 348.20898 189.82031 L 348.20898 186.35156 C 348.20898 177.52223 350.02003 176.05469 354.41797 176.05469 z M 300.8457 176.75586 L 304.36133 176.75586 C 308.05064 176.75586 309.51758 177.93703 309.51758 182.23438 L 309.51758 183.87695 C 309.51758 188.40895 308.23162 189.75781 304.47656 189.75781 L 300.8457 189.75781 L 300.8457 176.75586 z M 400.19922 176.75781 L 403.7793 176.75781 C 407.47591 176.75781 409.16992 177.64454 409.16992 181.17188 L 409.16992 182.82227 C 409.16992 186.11493 407.65154 187.4707 403.89648 187.4707 L 400.19922 187.4707 L 400.19922 176.75781 z " />
</svg>
