<svg xmlns:svg="http://www.w3.org/2000/svg" xmlns="http://www.w3.org/2000/svg" viewBox="0 0 540 120" >
<path style="fill:#ffffff;" d="M 110.55664 0.69140625 C 105.97444 0.69140625 99.919374 3.6561725 96.339844 7.8808594 C 92.763651 12.112143 91.689453 17.280613 91.689453 24.769531 C 91.689453 28.542044 92.982731 33.107171 94.246094 37.107422 C 95.509458 41.110973 98.465059 47.586524 103.10742 56.550781 C 110.53051 70.911416 115.33032 81.35644 117.49609 87.875 C 119.14715 92.763095 119.97461 97.398137 119.97461 101.78125 C 119.97461 106.36569 119.0696 109.79052 117.27148 112.05469 C 115.47336 114.32546 111.98814 115.45898 109.56836 115.45898 C 107.45941 115.45898 105.60987 114.5902 104.01562 112.85742 C 100.77366 109.39846 98.14987 103.58652 96.144531 95.4375 C 94.142534 87.288475 93.140625 80.033493 93.140625 73.660156 L 93.140625 70.378906 C 93.140625 70.345896 93.134189 70.309744 93.130859 70.273438 L 91.205078 70.273438 L 91.205078 117.0625 C 91.205078 117.57079 91.256326 117.9009 91.363281 118.05273 C 91.463548 118.20785 91.592351 118.2832 91.746094 118.2832 C 92.157188 118.2832 93.281738 117.37962 95.113281 115.57422 C 96.944824 113.76553 98.736129 112.24659 100.49414 111.02539 C 103.73945 116.22044 108.09656 118.81836 113.56445 118.81836 C 118.61791 118.81836 123.02961 116.68313 126.79297 112.40234 C 130.55632 108.12154 132.44141 102.21286 132.44141 94.677734 C 132.44141 90.344129 131.66993 85.439693 130.11914 79.970703 C 128.57502 74.488512 125.45364 67.092199 120.75781 57.771484 L 113.95312 44.25 C 106.93443 30.397648 103.42773 20.438691 103.42773 14.378906 C 103.42773 11.01896 103.75286 8.5837385 105.19336 6.8476562 C 106.63386 5.1214755 108.32146 4.140625 110.67773 4.140625 C 113.30473 4.140625 115.64041 5.6169379 117.69922 8.5742188 C 121.1952 13.716455 123.99513 24.208205 126.10742 40.050781 C 126.37145 41.998098 126.57898 43.417783 126.74609 44.332031 L 128.71484 44.332031 C 128.71484 44.305631 128.72852 44.283 128.72852 44.25 L 128.72852 2.765625 C 128.72852 2.2573423 128.81258 2.173989 128.70898 1.9726562 C 128.60871 1.8670391 128.38152 1.9335938 128.28125 1.9335938 C 128.0239 1.9335938 127.75 1.9570312 127.75 1.9570312 C 127.6765 1.9867363 127.32109 3.0619904 124.79102 6.4648438 C 121.65267 2.3358723 115.19231 0.69140625 110.55664 0.69140625 z M 21.582031 0.88867188 C 18.094778 0.88867188 14.230018 3.2083517 11.472656 6.0039062 C 7.4143315 10.175785 4.4876726 16.82007 2.6933594 25.939453 C 0.89904621 35.062136 2.9605947e-16 44.702882 0 54.865234 L 0 67.978516 C 0 82.108114 1.5372271 94.17576 4.6054688 104.17969 C 6.2679963 109.51996 8.4313741 113.29585 11.083984 115.50391 C 13.736594 117.71527 16.85864 118.82031 20.447266 118.82031 C 25.286168 118.82031 29.286518 116.68495 32.462891 112.41406 C 36.936847 106.46649 39.177734 97.574006 39.177734 85.738281 L 39.177734 73.15625 C 39.177734 73.15295 39.173828 73.146484 39.173828 73.146484 L 36.994141 73.146484 C 36.994141 73.146484 36.990234 73.14965 36.990234 73.15625 L 36.990234 85.708984 C 36.990234 93.376131 35.790855 100.29783 33.398438 106.48633 C 32.252916 109.52943 30.590588 111.9578 28.404297 113.75 C 26.221385 115.55209 24.085972 116.45312 22.007812 116.45312 C 20.392594 116.45312 18.497161 116.47701 16.763672 115.11719 C 15.614811 114.21284 14.520026 112.14284 14.435547 109.08984 L 14.402344 11.714844 C 14.875421 6.9620707 17.362035 5.6238508 18.230469 5.1386719 C 20.001129 4.1584125 20.703134 4.2581462 22.105469 4.28125 C 23.960606 4.317556 25.914409 5.0443397 27.21875 6.4140625 C 30.597871 9.9687405 32.800465 15.636094 34.726562 24.072266 C 36.237029 30.531416 36.990234 36.95108 36.990234 43.357422 L 36.990234 47.396484 C 36.990234 47.396484 36.994141 47.40295 36.994141 47.40625 L 39.173828 47.40625 C 39.173828 47.40295 39.177734 47.400391 39.177734 47.400391 L 39.177734 2.1953125 L 38.318359 2.1953125 L 34.90625 6.5449219 C 29.780123 2.7162994 25.741729 0.88867188 21.582031 0.88867188 z M 60.199219 2.8984375 L 47.080078 104.75195 C 46.562633 108.93443 45.684491 111.93446 44.447266 113.74023 C 43.618027 114.87548 42.533056 115.82604 41.037109 116.03516 C 41.037109 116.03516 40.81171 116.05762 40.609375 116.10742 L 40.572266 117.82031 C 40.625336 117.82731 40.672129 117.85352 40.728516 117.85352 L 53.972656 117.85352 C 54.141821 117.85352 54.298777 117.82031 54.441406 117.82031 L 54.423828 116.01758 C 52.373949 115.78522 50.658508 114.71395 49.802734 113.54883 C 48.943642 112.3837 48.515625 110.6658 48.515625 108.38867 C 48.515625 107.66503 48.542633 106.96877 48.595703 106.29492 L 50.005859 95.371094 L 50 95.371094 L 52.695312 74.388672 L 65.34375 74.388672 L 69.724609 115.91406 L 65.125 115.91406 L 65.125 117.85352 L 85.974609 117.85352 L 85.974609 115.91406 L 81.410156 115.91406 L 68.744141 2.8984375 L 60.199219 2.8984375 z M 154.86914 2.8984375 L 141.74805 104.75195 C 141.234 108.93443 140.35618 111.93446 139.11914 113.74023 C 138.29002 114.87548 137.20412 115.82604 135.70508 116.03516 C 135.70508 116.03516 135.48628 116.05762 135.27734 116.10742 L 135.24219 117.82031 C 135.29859 117.82731 135.34401 117.85352 135.40039 117.85352 L 148.64258 117.85352 C 148.81172 117.85352 148.96872 117.82031 149.11133 117.82031 L 149.09375 116.01758 C 147.04417 115.78522 145.33085 114.71395 144.47852 113.54883 C 143.61955 112.3837 143.19141 110.6658 143.19141 108.38867 C 143.19141 107.66503 143.21778 106.96877 143.26758 106.29492 L 144.67773 95.371094 L 144.66992 95.371094 L 147.36523 74.388672 L 160.01562 74.388672 L 164.39648 115.91406 L 159.79688 115.91406 L 159.79688 117.85352 L 180.64453 117.85352 L 180.64453 115.91406 L 176.08008 115.91406 L 163.41211 2.8984375 L 154.86914 2.8984375 z M 312.33203 2.8984375 L 299.20898 104.75195 C 298.69488 108.93443 297.81468 111.93446 296.57422 113.74023 C 295.74505 114.87548 294.66186 115.82604 293.16602 116.03516 C 293.16602 116.03516 292.90349 116.0908 292.70117 116.14062 L 292.70508 117.55859 L 292.70117 117.55859 L 292.70117 117.85352 L 306.10352 117.85352 C 306.26604 117.85352 306.42965 117.82031 306.57227 117.82031 L 306.55273 116.01758 C 304.50632 115.78522 302.7899 114.71395 301.9375 113.54883 C 301.07847 112.3837 300.64844 110.6658 300.64844 108.38867 C 300.64844 107.66503 300.67882 106.96877 300.72852 106.29492 L 302.13672 95.371094 L 302.13086 95.371094 L 304.82422 74.388672 L 317.47266 74.388672 L 321.85742 115.91406 L 317.25195 115.91406 L 317.25195 117.85352 L 338.10352 117.85352 L 338.10352 115.91406 L 333.53906 115.91406 L 320.87305 2.8984375 L 312.33203 2.8984375 z M 272.23242 2.9726562 L 272.23242 4.9023438 L 276.87109 4.9023438 L 276.87109 105.04883 C 276.56044 110.29841 274.60921 112.75573 272.04297 114.73633 C 270.36816 116.03134 267.60609 116.65039 265.34375 116.65039 C 262.60868 116.65039 259.98133 115.45591 257.45898 113.05469 C 254.93326 110.65677 253.67383 108.19837 253.67383 105.66797 C 253.67383 105.04862 253.83246 104.55887 254.14648 104.20117 C 254.35583 103.93952 254.64704 103.81055 255.01172 103.81055 C 255.5351 103.81055 256.30146 103.96678 257.31445 104.27148 C 258.16536 104.61262 259.07407 104.80664 260.01953 104.80664 C 264.70967 104.80664 268.50781 100.23296 268.50781 94.585938 C 268.50781 88.942228 264.70967 84.365234 260.01953 84.365234 C 256.99744 84.365234 254.35221 86.270448 252.84961 89.138672 C 251.40441 91.437225 250.67578 94.846934 250.67578 99.404297 C 250.67578 105.38583 252.38416 110.12002 255.80469 113.59766 C 259.22184 117.07861 263.63466 118.82031 269.05078 118.82031 C 275.1456 118.82031 280.13074 116.90982 283.99023 113.09766 C 287.85647 109.27888 289.78711 104.3309 289.78711 98.25 L 289.78711 4.9023438 L 294.04492 4.9023438 C 294.12592 4.9023438 294.19667 4.879247 294.26758 4.859375 L 294.26758 3.015625 C 294.19668 2.995752 294.12596 2.9726562 294.04492 2.9726562 L 272.23242 2.9726562 z M 344.89648 3.8632812 L 344.89648 5.7792969 L 349.29688 5.7792969 L 349.29688 116.73242 L 344.86523 116.73242 L 344.86523 118.64062 L 366.11914 118.64062 L 366.11914 116.73242 L 361.69531 116.73242 L 361.69531 60.958984 C 365.32405 60.958984 371.78947 61.078611 373.02344 61.951172 C 374.90932 63.294851 375.52148 65.119691 375.52148 68.580078 L 375.52148 108.94727 C 375.52148 112.41097 375.26289 114.82581 377.4082 117.125 C 378.79184 118.60802 380.54875 119.78516 384.09766 119.78516 C 388.09226 119.78516 391.40677 118.24682 394.04102 115.16797 C 396.67859 112.09244 397.99609 107.72217 397.99609 102.08203 C 397.99609 100.96728 397.86975 100.20046 397.62695 99.789062 C 397.42738 99.437384 397.17804 99.255859 396.88867 99.255859 C 396.63922 99.255859 396.40254 99.408249 396.17969 99.716797 C 395.95684 100.02534 395.82528 100.62786 395.77539 101.54688 C 395.42948 106.83532 394.61336 110.50275 393.32617 112.5332 C 392.53457 113.8072 391.64742 114.44141 390.65625 114.44141 C 390.011 114.44141 389.49542 114.18925 389.09961 113.68164 C 388.70049 113.17403 388.50391 112.28104 388.50391 111.01367 L 388.50391 83.097656 C 388.50391 78.316816 387.77887 74.429499 386.33203 71.433594 C 384.88186 68.431053 382.66396 65.863177 379.67383 63.726562 C 377.90104 62.459192 374.76015 61.13194 370.25 59.761719 C 374.28785 58.335098 377.26894 56.857596 379.19141 55.328125 C 382.39774 52.786748 384.8044 49.556316 386.4375 45.634766 C 388.06062 41.716534 388.87695 37.236889 388.87695 32.197266 C 388.87695 23.445109 386.75187 16.53042 382.50781 11.460938 C 378.26375 6.3980898 373.25062 3.8632812 367.47656 3.8632812 L 344.89648 3.8632812 z M 401.9082 3.8632812 L 401.9082 5.7773438 L 406.53516 5.7773438 L 406.53516 116.75 L 401.86133 116.75 L 401.86133 118.81836 L 418.93945 118.81836 C 423.36493 118.81836 427.06797 118.19505 430.04297 116.94922 C 433.01123 115.69675 435.53368 113.86331 437.62695 111.44141 C 439.70339 109.02284 441.42695 105.6433 442.7832 101.31445 C 445.12551 93.620204 446.29688 85.00995 446.29688 75.478516 L 446.29688 47.123047 C 446.29688 37.953734 445.09981 29.315773 442.70703 21.212891 C 440.87962 15.153171 438.01073 10.748257 434.10352 7.9941406 C 430.19295 5.2400245 425.14185 3.8632812 418.93945 3.8632812 L 401.9082 3.8632812 z M 455.9668 3.8632812 L 455.9668 5.78125 L 460.36914 5.78125 L 460.36914 116.91016 L 455.95703 116.91016 L 455.95703 118.81836 L 477.20898 118.81836 L 477.20898 116.91016 L 472.7832 116.91016 L 472.7832 5.78125 L 476.98633 5.78125 L 476.98633 3.8632812 L 455.9668 3.8632812 z M 503.19727 3.8632812 L 484.78125 3.8808594 L 484.78125 5.7734375 L 489.3457 5.7734375 L 489.3457 107.84961 C 489.3457 110.27239 489.11036 111.57736 488.35352 112.89258 C 487.80071 113.8518 487.842 113.94089 486.61133 115.07812 C 485.69984 115.91867 484.3195 116.13305 483.9707 116.16602 L 483.9707 117.80469 C 484.0431 117.83109 484.11695 117.85352 484.19922 117.85352 L 497.59375 117.85352 C 497.61345 117.85352 497.62338 117.84375 497.64648 117.84375 L 497.63477 115.99805 C 497.63477 115.99805 495.68614 116.22072 494.23828 115.07031 C 493.36628 114.3748 492.79332 113.90107 492.0332 112.38477 C 491.5067 111.32336 491.38867 110.47676 491.38867 107.84961 L 491.38867 11.757812 L 502.2793 115.19922 C 502.43066 116.56389 502.58239 117.34911 502.73047 117.54688 C 502.88512 117.75124 503.10999 117.85352 503.41602 117.85352 L 508.33203 117.85352 C 508.63806 117.85352 508.86499 117.75125 509.00977 117.54688 C 509.16443 117.3491 509.3409 116.56389 509.54492 115.19922 L 522.85352 10.701172 L 522.85352 115.95703 L 518.3457 115.95703 L 518.3457 117.85352 L 540 117.85352 L 540 115.95703 L 535.53125 115.95703 L 535.53125 5.7734375 L 538.73242 5.7734375 L 538.73242 3.8808594 L 521.95508 3.8808594 L 511.33203 82.921875 L 503.19727 3.8632812 z M 365.55664 5.6894531 C 367.86493 5.6894531 370.75172 7.2616869 372.01562 8.4726562 C 373.60881 10.01208 375.32886 12.795337 375.35547 16.332031 L 375.61523 46.443359 C 375.50214 48.410769 374.92356 52.498029 373.5 54.226562 C 370.76597 57.55424 367.57252 58.652557 364.71875 58.675781 L 362.14844 58.660156 L 362.14844 5.7480469 L 365.55664 5.6894531 z M 419.80078 5.7773438 L 423.47656 5.7773438 C 425.27031 5.7773438 429.0156 7.1138564 431.04492 9.8613281 C 431.94348 11.080581 433.36328 12.225594 433.36328 21.763672 L 433.36328 100.32812 C 433.87482 109.13864 431.34122 112.26716 430.30469 113.32031 C 427.51815 116.15415 424.77935 116.75 421.5957 116.75 L 419.80078 116.75 L 419.80078 5.7773438 z M 59.363281 21.210938 L 65.140625 72.626953 L 52.9375 72.599609 L 59.363281 21.210938 z M 154.0332 21.210938 L 159.81641 72.626953 L 147.60938 72.599609 L 154.0332 21.210938 z M 311.49414 21.210938 L 317.27148 72.626953 L 305.06836 72.599609 L 311.49414 21.210938 z M 215.71094 30.912109 C 210.86555 30.912109 206.72513 33.261648 203.29102 37.962891 C 198.49267 44.584824 196.09961 54.283276 196.09961 67.052734 L 196.09961 78.837891 C 196.09961 95.498146 197.87189 106.32976 201.41016 111.32422 C 204.94844 116.32526 209.41659 118.81836 214.81641 118.81836 C 220.58921 118.81836 225.18207 115.57157 228.58594 109.07812 C 231.99317 102.59457 233.69336 94.595188 233.69336 85.083984 C 233.69336 84.553571 233.67278 84.118726 233.64258 83.716797 L 231.08398 83.716797 C 231.00338 84.635961 230.94149 85.93603 230.91797 87.642578 C 230.64243 97.420635 228.51612 105.14475 224.54102 110.80469 C 222.13849 114.17166 219.41964 115.85352 216.36523 115.85352 C 214.51712 115.85352 212.35762 115.44818 211.20508 114.16992 C 209.96181 112.79282 209.57031 109.60495 209.57031 104.95312 L 209.57031 75.148438 L 233.77539 75.148438 L 233.77539 62 C 233.77539 53.345365 232.20786 46.003651 229.07617 39.964844 C 225.94111 33.929332 221.49046 30.912109 215.71094 30.912109 z M 215.17969 32.675781 C 216.36584 32.675781 218.41165 33.074438 219.00977 33.875 C 219.86997 34.998423 220.30078 36.650959 220.30078 38.841797 L 220.30078 72.980469 L 209.57031 72.980469 L 209.57031 38.841797 C 209.57031 36.759677 210.01439 35.208675 210.9082 34.197266 C 211.79865 33.182562 213.99355 32.675781 215.17969 32.675781 z " />
</svg>