<svg xmlns="http://www.w3.org/2000/svg" xmlns:xlink="http://www.w3.org/1999/xlink" viewBox="0 0 454 112">
  <defs>
    <symbol id="a">
      <path d="M81.7 9c0-1-.8-2-3-3C70.2 2.1 61 0 50 0 19.7 0 0 22.6 0 55.1c0 32.4 16.1 53.6 48 53.6a80 80 0 0 0 30.6-5.8c2.2-.8 2.8-1.8 2.8-3.3a8 8 0 0 0-.5-2.5L77.1 86c-.6-1.8-1.3-2.4-2.7-2.4-.6 0-1.3.3-2.2.6a51.4 51.4 0 0 1-20.4 4.2c-14.7 0-26.2-10.2-26.2-34 0-22 10.1-34 25.8-34 7 0 13.2 1.3 21.2 5 .8.4 1.4.7 2 .7 1 0 1.6-.8 2.2-2.3l4.4-12.7a6 6 0 0 0 .5-2M123 51.7c2.5 0 3.2.4 4.8.4 1.3 0 2-.7 2.4-2.4l2.2-14.2c.3-1.6.3-3.1-1.6-3.6a22 22 0 0 0-4.3-.6c-8.8 0-13.4 3.2-18.8 9.7l-.3-4.6c-.1-2.2-1.5-3-4.4-3H90.8c-2.5 0-4.3.8-4.3 4.4v64.8c0 2.8 1.5 4.2 4.2 4.2h14.2c3 0 4.2-1.5 4.2-4.2v-45a20 20 0 0 1 13.8-6m79.4 18.1c0-10.5-1.5-20.9-9-28.9-5.6-6-13.7-9.6-23.4-9.6-23.2 0-39 15.3-39 38.7 0 24 15.2 38.8 39.2 38.8 8.7 0 19.3-1.5 27.3-5 1.5-.8 2.8-1.4 2.8-3.4 0-2.3-2.2-9.2-2.8-11.7-.3-1.2-1.1-2.1-2.5-2.1a4 4 0 0 0-1.8.4 51 51 0 0 1-19 4c-9.1 0-17.6-5.4-19.4-14.8H197c3.8 0 5.4-.8 5.4-4.4v-2zm-47.3-8c1-7 6-13 13.6-13 7.8 0 11.6 6.6 11.6 13H155z"/>
      <path d="M59.2 53.6A20 20 0 0 0 45.6 34l-15.2-6c-5.1-2-5.7-3.9-5.7-5.7 0-2.1 2.2-4.8 7.2-4.8 4.8 0 11 1.5 16.7 3.6l1.7.3c1.2 0 2.2-.6 2.5-1.8L56 9l.3-1.6c0-1.2-.7-2-2-2.6A56 56 0 0 0 30.5.1C17 .1 1.8 6.6 1.8 22.7c0 10.8 7.2 18 15.3 21l13.5 5c5.5 2.2 7 3.7 7 6.5 0 3.3-3.3 5.3-8.1 5.3a56 56 0 0 1-19.9-4.7 7 7 0 0 0-2.4-.6c-1 0-1.7.8-2.3 2.7l-3 9.5-.3 1.8c0 1 .5 2.1 2.1 2.7A67.3 67.3 0 0 0 29 77.5c15 0 30.3-6.6 30.3-24" transform="translate(204.8 31.2)"/>
      <path d="M63 70.3c0-2.4-2.5-9.4-3.2-12-.3-1.1-1-2-2.1-2-.6 0-1.1.3-1.7.4A33.8 33.8 0 0 1 41 60c-10.5 0-17-7.4-17-21.1 0-13 6.2-20.8 18-20.8 4.7 0 9 1.2 13.2 2.9.8.3 1.6.6 2.2.6.9 0 1.6-.6 2-2.1l2.3-10.9c.5-2 .5-3.4-1.6-4.3A51.1 51.1 0 0 0 39 0C15.1.1.6 15.6.6 40.1c0 23.7 14 37.4 36.9 37.4 8.9 0 15-.9 23-4.5 1.2-.6 2.4-1 2.4-2.7" transform="translate(266.4 31.2)"/>
      <path d="M400.1 69.7c0-10.5-1.5-20.9-9-28.9-5.6-6-13.7-9.6-23.4-9.6-23.2 0-39 15.3-39 38.7 0 24 15.2 38.8 39.2 38.8 8.7 0 19.3-1.5 27.3-5 1.5-.8 2.8-1.4 2.8-3.4 0-2.3-2.2-9.2-2.8-11.7-.3-1.2-1-2.1-2.4-2.1a4 4 0 0 0-1.9.4 51 51 0 0 1-19 4c-9.1 0-17.6-5.4-19.4-14.8h42.2c3.8 0 5.4-.8 5.4-4.4v-2zm-47.3-8c1-7 6-13 13.6-13 7.8 0 11.6 6.6 11.6 13h-25.2zm90.4-10c2.6 0 3.3.4 4.8.4 1.4 0 2.2-.7 2.5-2.4l2.2-14.2c.3-1.6.3-3.1-1.6-3.6a22 22 0 0 0-4.3-.6c-8.8 0-13.4 3.2-18.8 9.7l-.3-4.6c-.1-2.2-1.5-3-4.4-3h-12.2c-2.5 0-4.3.8-4.3 4.4v64.8c0 2.8 1.5 4.2 4.2 4.2h14c3 0 4.3-1.5 4.3-4.2v-45a20 20 0 0 1 13.8-6M81.2 11.1l-4.4 12.7c-.6 1.5-1.2 2.3-2.2 2.3-.6 0-1.2-.3-2-.6-8-3.8-14.1-5.2-21.2-5.2-15.7 0-25.8 12-25.8 34 0 23.9 11.5 34.1 26.2 34.1 7.1 0 13.3-1.3 20.4-4.2.9-.3 1.6-.6 2.2-.6 1.4 0 2.1.6 2.7 2.4L81 97.1c.3 1 .5 1.7.5 2.5 0 1.5-.6 2.5-2.8 3.3a80 80 0 0 1-30.5 5.8C16 108.7 0 87.5 0 55.1 0 22.6 19.7 0 50 0c11 0 20 2.1 28.8 6 2.1 1 2.9 2 2.9 3a6 6 0 0 1-.5 2.1m28 46.4v45c0 2.8-1.2 4.3-4.2 4.3H90.8c-2.7 0-4.2-1.4-4.2-4.2V37.8c0-3.6 1.8-4.4 4.4-4.4h12.2c2.9 0 4.2.8 4.4 3l.3 4.6c5.4-6.5 10-9.7 18.8-9.7 1.2 0 2.9.3 4.2.6 2 .5 2 2 1.7 3.6l-2.3 14.2c-.3 1.7-1 2.4-2.4 2.4-1.5 0-2.3-.4-4.8-.4-5 0-10.1 2-13.9 5.8m71.1 4.3c0-6.5-3.7-13.2-11.6-13.2-7.5 0-12.5 6-13.5 13.2h25.1zm22.2 9.9c0 3.6-1.7 4.4-5.4 4.4h-42.2c1.8 9.4 10.2 14.7 19.4 14.7a51 51 0 0 0 19-3.9 4 4 0 0 1 1.8-.4c1.4 0 2.1.9 2.4 2 .6 2.6 2.9 9.5 2.9 11.8 0 2-1.4 2.6-2.9 3.3-8 3.6-18.5 5.1-27.3 5.1-24 0-39.1-14.7-39.1-38.8 0-23.4 15.8-38.7 39-38.7a31 31 0 0 1 23.3 9.6c7.6 8 9 18.4 9 29v1.9zm31.3 37c-8 0-16.9-2-25.1-5.5-1.7-.6-2.2-1.7-2.2-2.7l.3-1.9 3-9.4c.7-2 1.3-2.7 2.3-2.7.6 0 1.4.1 2.4.6a56 56 0 0 0 20 4.6c4.7 0 8-2 8-5.2 0-3-1.5-4.4-7-6.5L222 75a22.3 22.3 0 0 1-15.4-21c0-16.2 15.4-22.7 28.8-22.7a56 56 0 0 1 23.6 4.8c1.4.7 2.1 1.4 2.1 2.6l-.3 1.7-3.1 10.5c-.3 1.2-1.4 1.8-2.6 1.8l-1.6-.3a52.4 52.4 0 0 0-16.8-3.6c-5 0-7.2 2.7-7.2 4.8 0 1.8.6 3.8 5.7 5.7l15.2 6A20 20 0 0 1 264 84.8c0 17.3-15.4 24-30.3 24"/>
      <path d="M327.2 104.2c-8 3.6-14.1 4.5-23 4.5-23 0-37-13.7-37-37.5 0-24.4 14.7-39.9 38.6-39.9 7.1 0 13.9 1 21 4 2 1 2 2.4 1.6 4.5L326 50.6c-.3 1.5-1 2.1-2 2.1-.5 0-1.3-.3-2-.6a36.1 36.1 0 0 0-13.3-2.8c-11.8 0-18 7.8-18 20.7 0 13.7 6.5 21.1 17 21.1 6.4 0 9.3-.9 15-3.1.6-.2 1-.5 1.7-.5 1.2 0 1.8 1 2 2 .8 2.7 3.2 9.6 3.2 12 0 1.7-1.2 2.1-2.4 2.7"/>
      <path d="M378.4 61.8c0-6.5-3.7-13.2-11.6-13.2-7.5 0-12.5 6-13.5 13.2h25.1zm22.2 9.9c0 3.6-1.7 4.4-5.4 4.4H353c1.8 9.4 10.2 14.7 19.4 14.7a51 51 0 0 0 19-3.9 4 4 0 0 1 1.8-.4c1.4 0 2.1.9 2.4 2 .6 2.6 2.9 9.5 2.9 11.8 0 2-1.4 2.6-2.9 3.3-8 3.6-18.5 5.1-27.3 5.1-24 0-39.1-14.7-39.1-38.8 0-23.4 15.8-38.7 39-38.7a31 31 0 0 1 23.3 9.6c7.6 8 9 18.4 9 29v1.9zm29.2-14.2v45c0 2.8-1.2 4.3-4.2 4.3h-14.2c-2.7 0-4.2-1.4-4.2-4.2V37.8c0-3.6 1.8-4.4 4.4-4.4h12.2c2.9 0 4.2.8 4.4 3l.3 4.6c5.4-6.5 9.9-9.7 18.8-9.7 1.2 0 2.9.3 4.2.6 2 .5 2 2 1.7 3.6l-2.3 14.2c-.3 1.7-1 2.4-2.4 2.4-1.5 0-2.3-.4-4.8-.4-5 0-10.1 2-13.9 5.8"/>
    </symbol>
  </defs>
  <use xlink:href="#a"/>
</svg>