<svg xmlns:svg="http://www.w3.org/2000/svg" xmlns="http://www.w3.org/2000/svg" xmlns:xlink="http://www.w3.org/1999/xlink" width="289px" height="142px" viewBox="0 0 289 142" >
<path style="fill:#1b9df5;" d="M 70.326172 0.12304688 C 29.336652 0.31802259 -0.11228463 34.341193 0 70.0625 C 0.13011256 111.44719 30.592816 142.00275 70.6875 141.56641 C 116.54499 141.06486 139.40506 109.60874 143.3125 82.150391 C 148.6002 119.37132 177.65781 141.68208 213.95703 141.99805 C 230.85258 142.14569 244.56062 136.22693 246.72656 135.06836 L 249.83789 139.13672 L 288.74805 137.8418 L 271.71289 115.74219 C 271.71289 115.74219 286.41294 98.934787 286.44922 72.404297 C 286.50302 32.1462 256.52536 0.54494592 214.01953 0.5625 C 179.53219 0.57817329 148.08686 24.401765 143.14258 59.9375 L 77.302734 59.9375 L 77.302734 93.34375 L 96.496094 93.34375 C 96.496094 94.153119 89.102326 103.29846 70.427734 102.95898 C 56.032469 102.70037 40.422249 90.811904 40.080078 71.505859 C 39.724771 51.504235 56.934857 39.009766 70.556641 39.009766 C 85.60153 39.009766 89.493995 42.648696 95.623047 50.121094 C 95.623047 50.121094 140.01394 50.189453 142.4082 50.189453 C 138.75879 35.968133 119.971 -0.11518712 70.326172 0.12304688 z M 214.12891 39.140625 C 237.90636 39.228395 251.2159 61.24536 244.75781 81.667969 L 239.63672 75.277344 L 200.55469 76.574219 L 221.02344 102.72266 C 200.9883 105.86641 182.83068 93.47096 182.39844 71.808594 C 182.02311 53.089358 196.30255 39.076992 214.12891 39.140625 z M 81.113281 63.736328 L 82.779297 63.736328 C 83.928729 63.736328 84.583984 64.337163 84.583984 65.207031 C 84.583984 65.837411 84.224239 66.334659 83.568359 66.546875 C 84.224239 66.751568 84.583984 67.239218 84.583984 67.898438 C 84.583984 68.747303 83.928729 69.396484 82.779297 69.396484 L 81.113281 69.396484 L 81.113281 69 L 82.449219 69 C 83.412441 69 84 68.527254 84 68 C 84 67.429886 83.388389 67 82.449219 67 L 81.113281 67 L 81.113281 66 L 82.449219 66 C 83.412319 66 84 65.533114 84 65.005859 C 84 64.440923 83.37949 64 82.449219 64 L 81.113281 64 L 81.113281 63.736328 z M 85.412109 63.736328 L 87.169922 63.736328 C 87.7256 63.736328 88.168236 63.931759 88.466797 64.246094 C 88.193037 64.096995 87.838741 64 87.412109 64 L 86 64 L 86 66 L 87.412109 66 C 88.132242 66 88.653146 65.739591 88.876953 65.386719 C 88.850489 66.12128 88.365666 66.680053 87.693359 66.873047 L 88.886719 69.396484 L 88.320312 69.396484 L 87.212891 66.941406 L 85.90625 66.941406 L 85.90625 69.396484 L 85.412109 69.396484 L 85.412109 63.736328 z M 91.986328 63.736328 L 92.509766 63.736328 L 94.796875 69.396484 L 94.259766 69.396484 L 93.498047 67.4375 L 90.984375 67.4375 L 90.207031 69.396484 L 89.669922 69.396484 L 91.986328 63.736328 z M 97.248047 63.736328 C 97.91894 63.736328 98.397827 63.9402 98.742188 64.154297 L 98.638672 64.615234 C 98.292748 64.395181 97.775092 64.210938 97.216797 64.210938 C 96.482411 64.210938 95.949219 64.648026 95.949219 65.263672 C 95.949219 66.729438 98.849609 65.910535 98.849609 67.841797 C 98.849609 68.697873 98.164883 69.396484 97.035156 69.396484 C 96.392412 69.396484 95.876526 69.257018 95.466797 69.058594 L 95.537109 68.589844 C 96.02378 68.816166 96.44174 68.929688 97.048828 68.929688 C 97.867974 68.929688 98.355469 68.455515 98.355469 67.882812 C 98.355469 66.397299 95.466797 67.188328 95.466797 65.271484 C 95.466797 64.316041 96.229666 63.736328 97.248047 63.736328 z M 99.986328 63.736328 L 100.48047 63.736328 L 100.48047 69.396484 L 99.986328 69.396484 L 99.986328 63.736328 z M 101.625 63.736328 L 102.11914 63.736328 L 102.11914 68.917969 L 104.66211 68.917969 L 104.66211 69.396484 L 101.625 69.396484 L 101.625 63.736328 z M 92.005859 64 L 91 67 L 93 67 L 92.005859 64 z " />
</svg>
