<svg xmlns:svg="http://www.w3.org/2000/svg" xmlns="http://www.w3.org/2000/svg" width="466" height="84" viewBox="0 0 466 84">
<path fill="#fff" d="M99.8 0l-.1.2-.3.3h-.2l-.4-.2a.9.9 0 0 0-.4-.2c-.2 0-.3.1-.5.3l-.4.6.2.1.1-.2.3-.2h.2l.4.2h.4l.5-.1.4-.7-.2-.1zM79.1 1.3L77 6.5l-.7.2v.2H78v-.2l-.7-.2.7-1.8h2l.7 1.8-.8.2v.2H82v-.2l-.6-.2-2.2-5.2H79zm19.6 0l-2.2 5.2-.8.2v.2h2v-.2l-.8-.2.7-1.8h2l.7 1.8-.7.2v.2h2v-.2l-.6-.2-2.2-5.2h-.1zm34.8 0l-2.2 5.2-.8.2v.2h2v-.2l-.8-.2.7-1.8h2l.7 1.8-.7.2v.2h2v-.2l-.6-.2-2.1-5.2h-.2zm20.7 0L152 6.5l-.7.2v.2h1.9v-.2l-.7-.2.6-1.8h2l.8 1.8-.8.2v.2h2.1v-.2l-.6-.2-2.2-5.2h-.2zm53.2 0l-2.2 5.2-.7.2v.2h1.8v-.2l-.7-.2.7-1.8h2l.7 1.8-.7.2v.2h2.1v-.2l-.7-.2-2.1-5.2h-.2zm-164.5 0c-.2 0-.4 0-.6.2l-.4.2-.3.5v.5a1.3 1.3 0 0 0 .3 1l.5.3.6.3c.3 0 .6.2.8.3.2 0 .3.2.4.3l.2.3.1.4c0 .4-.1.6-.3.8-.2.2-.5.2-.9.2h-.5l-.5-.4-.4-.5-.4-.8h-.2l.2 2h.2l.2-.6a2.2 2.2 0 0 0 1 .6H44l.6-.4.3-.4.1-.6-.1-.7c0-.2-.2-.3-.4-.5L44 4a12.4 12.4 0 0 0-1.4-.6l-.4-.2-.2-.3v-.4c0-.3 0-.5.2-.6.2-.2.4-.2.7-.2.4 0 .7 0 .9.3l.7 1h.1l-.2-1.6h-.1l-.2.4-.5-.3-.7-.2zm46.2 0c-.4 0-.7.1-1 .3l-.8.6a3 3 0 0 0-.8 2A3 3 0 0 0 88 6.6c.3.2.6.3 1 .3l-.5.7v.1h.4l.2.1v.4h-.7a4 4 0 0 1-.3 0 1.5 1.5 0 0 0 .7.3c.3 0 .5 0 .6-.2l.2-.3c0-.2 0-.3-.2-.4a1 1 0 0 0-.5-.3l.3-.3.7-.1a2.2 2.2 0 0 0 1.4-1.2l-.2-.1c-.2.3-.5.6-.8.7-.3.2-.6.3-1 .3a2 2 0 0 1-.8-.1c-.2 0-.4-.2-.6-.4l-.4-.8-.1-1 .1-1.3.4-.8.6-.4a2 2 0 0 1 1.2 0c.1 0 .3 0 .4.2l.4.5.5.8h.2l-.3-1.9h-.2l-.1.5a3 3 0 0 0-.6-.4l-.8-.2zm19.6 0c-.4 0-.8.1-1 .3l-1 .6-.4 1a2.8 2.8 0 0 0 0 2 2.8 2.8 0 0 0 1.3 1.5c.3.2.7.3 1 .3.5 0 .8-.1 1.2-.3a2.6 2.6 0 0 0 1.3-1.5 2.9 2.9 0 0 0 0-2 3 3 0 0 0-.5-1l-.8-.6c-.4-.2-.7-.3-1.1-.3zm79.5 0c-.4 0-.8.1-1 .3l-1 .6a3 3 0 0 0-.5 3 2.8 2.8 0 0 0 1.4 1.5c.3.2.7.3 1 .3.5 0 .8-.1 1.2-.3a2.7 2.7 0 0 0 1.3-1.5 2.9 2.9 0 0 0-1.3-3.6c-.4-.2-.7-.3-1.1-.3zm-164.6.1v.2l.8.2v4.7l-.8.2v.2h2.2v-.2l-.8-.2V1.8l.8-.2v-.2h-2.2zm7.3 0v.2l.8.2v4.7l-.8.2v.2h2v-.2l-.8-.2-.2-4.8L35.5 7h.2V1.8l.8-.2v-.2h-2v.2l.8.2.2 4-3-4.4H31zm19 0v.2l.8.2v4.7l-.8.2v.2h2.3v-.2l-.8-.2v-2l.5.1h1.4l.6-.5.3-.5a1.7 1.7 0 0 0 0-1.3l-.5-.5-.6-.3h-3.2zm9.1 0v.2l.8.2v4.7l-.8.2v.2h2.3v-.2l-.8-.2V1.8l.8-.2v-.2H59zm7.3 0v.2l.8.2v4.7l-.8.2v.2h2.3v-.2l-.8-.2v-2h1.1s.2 0 .3.2l.4.7a49.9 49.9 0 0 1 .6 1.5h1.2v-.2l-.6-.2-.7-1.3-.2-.4-.3-.3a.9.9 0 0 0-.3-.1h-.4v-.1l.7-.1c.2 0 .4-.2.5-.3.2 0 .3-.2.4-.4l.1-.6a1.3 1.3 0 0 0-.5-1.1l-.6-.3h-3.2zm55.9 0v.2l.8.2v4.7l-.8.2v.2h2.2v-.2l-.8-.2v-2l.6.1h1.3l.6-.5c.1-.1.3-.3.3-.5l.1-.6-.1-.7-.5-.5-.6-.3h-3.1zm19.2 0v.2l.8.2v4.7l-.8.2v.2h2.3v-.2l-.8-.2v-2h1.1s.2 0 .3.2l.3.7a49.9 49.9 0 0 1 .7 1.5h1.2v-.2l-.6-.2-.7-1.3c0-.2-.2-.3-.3-.4l-.2-.3a.9.9 0 0 0-.3-.1 3 3 0 0 0-.4 0v-.1l.7-.1c.2 0 .3-.2.5-.3.2 0 .3-.2.4-.4l.1-.6c0-.3 0-.5-.2-.7l-.4-.4-.5-.3h-3.2zm26.4 0v.2l.8.2v4.7l-.8.2v.2h2.3v-.2l-.8-.2V1.8l.8-.2v-.2h-2.3zm7.4 0v.2l.8.2v4.7l-.8.2v.2h2v-.2l-.8-.2-.2-4.8 3.6 5.3h.2V1.8l.7-.2v-.2h-2v.2l.9.2.2 4-3-4.4h-1.6zm20 0v.2l.7.2 2 5.2h.3l2-5.2.6-.2v-.2H199v.2l.8.2-1.6 4.3-1.6-4.3.7-.2v-.2h-2zm20.1 0v.2l.8.2v4.7l-.8.2v.2h2.3v-.2l-.8-.2v-2h1.1s.2 0 .3.2l.4.7a45.1 45.1 0 0 1 .6 1.5h1.2v-.2l-.6-.2-.7-1.3-.2-.4-.3-.3a.9.9 0 0 0-.3-.1h-.4v-.1l.7-.1c.2 0 .4-.2.5-.3.2 0 .3-.2.4-.4l.1-.6a1.3 1.3 0 0 0-.5-1.1l-.6-.3h-3.2zm-106.6.3l.7.1c.3 0 .5.2.6.4l.5.8.1 1.2c0 .4 0 .8-.2 1.1 0 .3-.2.6-.4.8l-.6.4a2 2 0 0 1-1.4 0 .7.7 0 0 1-.6-.4l-.5-.8-.1-1.1.1-1.2.4-.8.6-.4.8-.1zm79.5 0l.7.1c.3 0 .5.2.6.4l.4.8.2 1.2c0 .4 0 .8-.2 1.1 0 .3-.2.6-.4.8l-.6.4a2 2 0 0 1-1.4 0 .7.7 0 0 1-.6-.4l-.5-.8-.1-1.1.1-1.2.4-.8.6-.4.8-.1zm-136.8 0h1.5l.4.3.2.4v1.2l-.1.4-.3.3h-1.7V1.7zm16.4 0h1.5l.4.2.2.4v1.2l-.2.3-.5.2a3 3 0 0 1-.6 0h-.8V1.8zm55.8 0h1.5c.2 0 .3.2.4.3l.3.4v1.2c0 .2 0 .3-.2.4l-.3.3a1.8 1.8 0 0 1-.8 0h-.9V1.7zm19.3 0h1.5l.3.2.2.4.1.6v.6l-.3.3-.4.2a3 3 0 0 1-.7 0h-.7V1.8zm73.9 0h1.5l.4.2.2.4v1.2l-.2.3-.5.2a3 3 0 0 1-.6 0h-.8V1.8zM79 2.2l1 2.2h-1.8l.8-2.2zm19.6 0l.8 2.2h-1.7l.9-2.2zm34.8 0l.8 2.2h-1.7l.9-2.2zm20.7 0l.9 2.2h-1.7l.8-2.2zm53.2 0l.9 2.2h-1.8l.9-2.2zm29 0l-9 9.8h8.5L254 2.2h-17.8zm146.1 13.2a33.8 33.8 0 1 0 30.2 49L414 82h3.1l2.7-6.6A28.8 28.8 0 0 0 441 83c4 0 7.6-.5 10.7-1.5 9.4-3 14.2-8.7 14.2-17 0-5-2-9.2-6.2-12.4a68 68 0 0 0-20.8-8.7c-5.7-1.6-9.5-3-11.4-4-3.9-2.2-5.8-5.2-5.8-8.9a8 8 0 0 1 4.2-7.3 16 16 0 0 1 9.1-2.4c4.9 0 8.8 1 11.7 2.9 3.3 2.3 6.8 6.4 10.5 12.4l3-.6-1.4-18.5h-2.5l-2.6 5.2a30 30 0 0 0-18.8-6c-5.8 0-10.7 1.4-14.7 4.3a14.8 14.8 0 0 0-6.6 12.5c0 2.5.5 4.7 1.4 6.6 1.6 3.9 5.3 7.1 11.2 9.6a236 236 0 0 0 18.7 6.4c8 3 12 6.7 12 11.3a10 10 0 0 1-5 8.9 20.5 20.5 0 0 1-10.9 2.6 24 24 0 0 1-14-4 43.9 43.9 0 0 1-11.7-15.5l-.6.1a33.8 33.8 0 0 0-32.3-43.7zm-209.2.2A34 34 0 0 0 147.8 26a32 32 0 0 0-9.6 23.1c0 9.4 3 17.2 9.1 23.5 6.5 6.7 15 10.1 25.3 10.1 8.7 0 15.9-2.8 21.6-8.5l4.4 7.7h2.3V52.3h-21.7v3l9.9 2v17c-4.2 2.5-9 3.8-14.5 3.8-8 0-13.8-2-17.4-6-4-4.4-5.9-11.7-5.9-22 0-11.4 2-19.5 6.2-24 3.3-3.8 8.7-5.8 16-5.8 5 0 9.2 1.4 12.7 4.1A59 59 0 0 1 197 38.6l2.7-.6-3-21.7h-2.4l-2.3 5a33 33 0 0 0-18.8-5.7zm206.9.2l1.2.3.5.2c.3.1.6.1.8 0h-.2 1.2v.3l.5.2.5.1.2-.1h-.9l.6-.4h.7l-.4.4.2-.1s.4-.3.5-.1v.3c-.1.2-.3.4-.1.6.1.1.3.1.4 0l.1-.2h-.2l.8-.7h.9l-.3.5h1l.2-.3h.2v.4h-.4c0 .2-.2.4-.3.5l.6.2v-.7h.7c.1 0 0 .2 0 .4h.2v.5l1 .2-.4-.7h-.6l.1-.6.2.1.3.5h.2l1 .4-.3-.6.5.1.8 1.1h-.4v-.4l-.5-.2.2.5h.3v.2l-.2.3h-.4v.3h.6v.4h-.5v.2l1 .1-.1.5-.5.2c.3.7.6 1.3.8 2.2l-2.1-.4v-.2h.9V22c.7 0 .2-.3.2-.5v-.4h-.3c-.2 0-.1.2-.1.3l-.1.2c-.2.1-.5.3-.6 0v-.2h.1c.1-.3.5-.5.5-.5l.7-.2a26 26 0 0 0-.8-1.4l-1.6-.3-.2 2-.1 1.3 1.4.2-1.1.1h-1.5c-.1 0 0 .2 0 .2h-.4l.5.2-.6 5.3-5-1 1.5-3-.1-.1-.6-.4v-.1l1-1.6-1.6-.4v.2l-.1.2-.1.2v.9c0 .2.3.2.4.3l.4.2c-.6 1-1.1 2-1.6 3.3l-3-.7h-.2l-.2.1.3.4-.3.3h.1c1 .4 2 .6 3 .8-1 2.5-1.8 4.8-2.4 7l-5.9-1.5c1.1-2.3 2-4.2 3.1-5.9l-.3-.3h-.6l-1.3 2.3.1.1v.2h-.3l-1.6 3.3-4.8-1.3.7-1h.1v-.1l-.1.1h-.2v.4h-1.1l-.3.4v-.4h.3l1-1.7c1.1-1.6 2.2-3 3.4-4.3-1-.3-2-.5-2.9-.9a39 39 0 0 0-5.4 6l3.6 1.3v1.3c0 .3-.7.2-.7.2h-.3a53 53 0 0 0-3 5.7h-.2v-.3h-.3c-.2-.1.2-.5 0-.6h-.3v-.3l-.6.1c0 .2 0-.3-.3-.4h-.3v.3h-.3v.3h.3c.1 0 0-.2.2-.3.2 0 .2.3.5.3.5 0 0 .6.5.6.6 0 .2.3.3.3.3 0 .4.2.3.5l-.2.6c-1.2-.3-2.4-.8-3.6-1.4l.1-.1.2-.1.2-.4v-.3h-.8l-.4.6.2.1.3.1.2.1-.4.1h-.4l.2.3v.4a30 30 0 0 0 3.8 1.5l-1.3 4.5-.2-.1v-.5h-.2V44c-.3-.2-1.3 0-1.3 0l-.2-.4v-1.3l.2-.1v-.8s.4-.1.4-.3h-.3l-.1-.6c-1 0-.6-.1-1-.3-.1 0-.4 0-.4-.3s.6-.3.6-.3v-.4l-.3-.2h-.1l-.5 1-.3 1v.1h.9v2c.1.2.2 0 .3.1l.3.4v.7h.5l.1.3c.3.4 1 .3 1 .3v.4l.5.5.1-.6h.1v.2h.5l.2.2h.1l-.2-.5-.2-.3v-.5h.7l1-3.3c2 .6 4 1 5.7 1.6a53 53 0 0 0-1 3.8V46h-1.8c-.2 0 .1-.2-.1-.3h-.4v-.3h-.7V45h-.3s0-.7-.2-.6l-.1.3h-.5v.2h-.5l.1-.5c.1-.1.5 0 .3-.2h-.3c0 .2-.7.2-.8.2h-.5l-.3 1.2-.7 3.5c2.1 1 4 1.6 5.8 2.1l.9-4.7s.1.3.3.3c0 .2.1 1 .3 1L369 43l7 2a568.7 568.7 0 0 0-2 8.3l-.8-.2h-.3v-.2c.1-.1.2-.3 0-.4 0-.2-.5-.4-.5-.4s.2-.6 0-.8c0-.2-.5-.3-.5-.3l.2-.7-.3-.3c-.4-.2-.8.1-1-.2l-.2-.3h-1.2l-.3-.6h-.5c-.3-.3.2-.6 0-.9-.2-.2-.5.1-.8 0l-.7 3.6 4.2 1 1.6.4c.1.2.3.6.1.6-.2.1-.4-.4-.5-.3-.2.2-.3.3-.2.5l-1.2-.3-4.2-1a73 73 0 0 0-1 8.4l6.4 1.6a63 63 0 0 1 1.6-8.3l-1-.2h-.6v-.2l.5.1h.4c.3-.2.4-.7.6-.6.4 0 .5.3.8.3h.7c.2.2.2.7.2.9 2.6.7 4.8 1.2 7 1.6l-1.6 8.1-4.2-.8h-.1.2V63h.3v-.6l.3-.1c.2-.2 0-.6 0-1 0-.3.4 0 .4-.4 0-.2.6 0 .8 0v-.3h.3V60h.9c0-.5.4-.1.5-.3l.1-.2h.3V59h.3v-.8s-.5-.1-.6-.4c0-.5-.3.2-.3-.5 0-.3-.9.1-.6-.3h-.3s.2-.2 0-.3c-.2 0-.5.1-.5-.2 0-.3-.7-.4-.7-.4v-.3h-.8s.1-.3-.1-.3c-.7 0-.4-.4-.7-.3-.2 0-.2.2-.4.3l-.4-.3h-.2v-.6s-.4.2-.3 0c0-.4.3-.2.3-.2l-.2-.1-.4-.1a63 63 0 0 0-1.6 8.3l3.2.6h.2l-.4.6-.3.3-2.8-.6-.1 1.5v-.2h2.1c.2 0 .6 0 .6-.2 0-.3.1-.4.2-.5h.3l.4.1 4 .8-.5 2.4-1 4.4-6.4-1.3a95.8 95.8 0 0 1 .2-5.4h-.5l-.4-.1-.2 5.2c-1.4-.3-2.8-.8-4.3-1.3 0 0 .3 0 .3-.2s-.2 0-.4-.1v-.3c-.4 0-.3-.3-.3-.3h-.3c-.2-.2.4-.4.6-.3 0 0 0 .2.2.3h.4l.1.3h.7l.3-.3s.4-.8.9-1c.2 0 .6.3.7 0v-.2l.3-.3h.5v-.6h-.3V65h.8l.2-1.7c-2.4-.4-4.4-1-6.4-1.6 0 2 0 4.2.3 6.7l1.4.5-.1.6h-1.1s0-.7-.3-.6c-.3 0 0 .6 0 .6l-.7.2c.2 1.7.6 3.3 1 4.8a33 33 0 0 1-1.8-.8v.1h.2c0 .5.4.2.3.6h-.5c-.1 0 0-.2 0-.2h-.4l-.2-.3h-.3c-.2-.2 0-.6 0-.6h-.6c0-.1.1-.4-.2-.3-.1 0 0-.3-.3-.3l-.1-.3h-.3v-.6c-.4 0-.3-.3-.3-.3h-.2s-.3-.6 0-.6c.2 0 .4-.3.3-.3-.5 0-.2-.3-.4-.3h-.3v-.5h.3a13.8 13.8 0 0 1-.9-2.3h.3v-.9l-.6-.2v-.2a40 40 0 0 1-.9-6.9l2 .8-.1.3c-.2-.1 0 2.7 0 2.7l-.4.3c-.1.4.3.2.3 1v1.2h-.3v1l2 .7 2.2.8a52 52 0 0 1-.2-6.7l-3.4-1.2v-1h.2c1.1.5 2.2 1 3.3 1.3a73 73 0 0 1 1-8.4c-1.8-.5-3.6-1.1-5.8-2l-.5 3.6-.2 1.6v1.6l.3.4.7.5.2.1h.2v.3l.6.7v.3l-2.1-.9V57c-.2-.3-.5-.6-.5-1 0-1.3-.2-.8-.3-.8l.1-.9.2-1.5a75.4 75.4 0 0 1 .4-3l-1.5-.5-.1.7.1.7s-.3-.1-.4 0a3 3 0 0 0 0 1.4c0 .2.2 0 .3 0 .2.1.2.3.3.5v.7c0 .2.2 0 .2 0l.3.4.1 1.4-.1 3-4-1.9c0-2.4.1-5 .5-8l2.8 1c.2-.2.2-.5.5-.5l.2-.2-3.4-1.3c.3-2.3.7-4.2 1.4-6l-.2-.2v-1l-.3-.2a31 31 0 0 0-1.8 7l-2.4-1.5c.5-2.3 1.4-4.7 2.5-7.4l-.3-.3v-.7c0-.3.1-.4.3-.6.2-.4.5-.5.6-1v-.6l-.8 1.6-1.4-.9c1-2 2.1-4 3.5-5.8l-.3.6-.4 1.2-.6.7s-.4.3-.4.6c0 .2 0 .4.2.4.2.1.3-.2.4-.4.1 0 .2-.5.3-.3l-.1.9h-.3v.5l-.1.4v.5c.8-1.9 1.8-3.5 3.3-5.4l-1.3-.6-.7 1 .1-.4.9-1.2 2.3-2.5 2.3-2.3 2.4-1.8h.1l2.1-1.3.4-.2.9-.5.1-.1.2-.1c.2 0 .2-.1.3-.2l.3-.1c1-.5 2.2-1 2.8-1 .2 0 .1.2.3.2h.4c0-.2-.3-.3-.2-.5 0-.2.5 0 .5 0v-.3h.6v.3c.1.1.4.2.6 0h-.4.3v-.3l.3-.3c.4-.3 1 .4 1.2 0l.1-.4c.3.1.6 0 .8 0 .2.1-.1.4-.3.6-.1.2-.2.2-.4.3h-.3c-.2.1-.1.3-.3.4-.1.2-.3.1-.6.2-.3 0-.8-.2-.8 0l.2.4c.1 0 .3-.1.4 0 0 .1 0 .2-.2.3l.4.1-.4.2h.4v.3l.3-.1V19c.2-.3.2.4.3.7l-.6.4c.5 0 2.1.1 1.8-.1v-.1h.1l.2-.1-.8-.3c0 .2-.2.4-.4.4s-.2 0-.3-.2c.2 0 .3-.2.5-.3h.2v-.5c-.2-.2-.6-.2-.5-.4v-.2h-.2l1.1-.4-.1.3 1.5-.7.2-.1h-.2v.3h.6v.2l.4.1-1.3.6V18h-.6l-.1.5a.5.5 0 0 1-.1.2l-.3.3c0 .2-.1.4 0 .4s0-.2.2-.2h.5c.2 0 .1-.1.1-.2h.2l-.1-.2v.2l-.4-.1.6-.3v.1c.1.2.6.1.8.2.2 0 0 .2 0 .2h.6c-.2 0-.3.2-.5.3l-1-.4c.1.3.1.7-.1.8h-.5l.7.2-.4.3h.3l.1-.3v-.2h.8c.2 0 0-.3.1-.3h.6c.1-.1.3-.1.3-.3l-.4-.1V19l1.3-.8.3-.2h.1l.2-.1 1.4-.8h-.1l-.4-.1a38.7 38.7 0 0 1-.8.2l.1-.3c.1-.2.5-.2.5-.2l-.5-.4s-.3-.1-.3-.3zm-.2 2v.1l.1.3v.6h-.6l.3.3c.8-.5 1.5-1 2.4-1.4h.1v-.4c-.3-.3-1 0-1 0l-.2.5h-1zm2.3-.1l-.1.4.3-.6.3-.1h.3v-.1l.1-.5h-.6l.1.2v.3l-.2.2-.1.1h-.1zm-5.1-.3l-1.5.7 1.5-.7zm-1.5.7h-.2.2zm-.2 0h-.3l-.3.1.2.1.4-.2zm-1.8 1h-.1l.1-.3-.2-.1c-3 1.3-4.8 2.3-7.2 4l1.6.6c.5-.5 1-1 1.6-1.3h.1l.1-.1c.6-.3 1.8-1.2 1.8-1l-1.2 1-.2.1-.2.2h-.1l-.1.1a1.2 1.2 0 0 0-.2.2v.7l-.6.4 1.6.5-.1-.3h-.6l-.3-.3v-.3c1.4-1.2 2.6-2 4-3h-.4V20h-.4l-.3.5v.2l-.2.2s-.5-.3-.9-.3l-1.8 1.4c0-.3 0-.4.2-.6l.5-.3c.4-.3.6-.5 1.1-.5l1.2-.8.7-.4c.2 0 .3-.2.5-.3zm-.1 1.2c.1 0 0 .2 0 .2h-.3l.1.3c.2.2.2-.7.8 0v-.5c0-.2-.2-.2-.3-.2 0 0-.2 0-.3.2zm-3.1 3.8l-1.6-.5 1.6.5zm0 0l.1.2h.2l-.3-.2zm.3.1l.9.3-.9-.3zm.9.3v-.1l.7-.6h-.2c-.4.3-.7 0-1.1.2l-.3.2.9.3zm.7-.7l.4-.4.1-.2.2-.1a40.5 40.5 0 0 1 1.7-1.7l-.2.1-.3.1-.3.1-.1.5h-.5l-.1.4h-.5v.3h.2v.3l-.6.6zm1.2-6.3v.1l.7-.3-.7.2zm-19.3 20.3l.2-.3-.2.3zm0 0l.2.2.3.5.3.5s.7-.1 1 .1l-.1.5.4-1h-.1l-1-.5a33 33 0 0 1-.8-.6l-.1.3zm6.6 29.8zm0 0l.1.7c.4-.2 0 .8.3.9 0 0 .2-.1.2 0s.2.3 0 .5a25 25 0 0 0 2.4 3.7l.6.3v-.1h-.3v-.4h-.3v-.5l.3-.4s0-.2.2-.2c0 0 .2-.5 0-.6h-.5v-.3s-.3 0-.3-.3h.3c.5 0 0-.3.3-.3s.2-.3.4-.3.4 0 .4-.2c.1-.2-.4 0-.5-.1 0-.3-.4-.2-.3-.4 0-.2.3-.2.6-.1l.5.2V69l-2.6-.9-1.8-.6zm.2-22l-.2-.4.2.4zm-1 .3l-.1.6c.2-.2.2-.4.2-.5l-.1-.1zm-.1.6h-.2c-.1 0 0 .5-.3.5v.6h-.6c-.2.1 0 .3-.3.4-.2 0 0 .3-.1.4l1 .4.5-2.3zm-2-9l2.4-4-1-.2a38.8 38.8 0 0 0-2.7 4.5l-.8-.5v.2c0 .2-.3 0-.4.1l-.1.2.2.4h.3s0-.3.2-.3c0-.1.2-.1.4 0h.5c.1 0 0-.4 0-.4h1zm-2-.2v-1.1s.2 0 .2-.4h.3V35c0-.2.4 0 .5-.3.2-.4.3-.7.6-1l.2-.1.2-.1.2-.1h.1l.8-.1h.4c.5-.9 1.1-1.7 1.8-2.6l-2.3-1c-2 2.4-2.9 4.2-4.1 7l1 .6zm4.4-3.8l.5.2.6.5.2.6.1 1s-.1 1 .2.9l.3-.3.1-.4.2-1 .1-.9.3-.3c.2-.1.4.2.5 0v-.3c.2-.2.6 0 .6 0l.2-.3 1-.1.5-.7c-1.1-.4-2.4-.8-3.7-1.4l-1.7 2.5zm13.4-4h-.1l-.4-.2c-.3-.3-.1-.7 0-1 0-.2.5 0 .6-.1v-.6h-.3v-.3h-.3l-.2.2s-.6.3-.7 0c0-.1-.3-.2 0-.3h.9l.3-.3h.7l.2.3c.2.2.4.1.6 0l.4-.7-3.6-1a40 40 0 0 0-4 5.2l.1-.1c.1 0 .3 0 .3.2h.5c0-.3-.2-.3-.2-.5 0-.3.8.2 1.1 0 .1 0 0-.3 0-.4.1 0 .3.2.4 0v-.3h1.6l.2-.3h1l.1.4s-.5-.1-.8 0c-.2 0-.3.2-.3.4.1.3.5.2.8.1.1 0 0-.2 0-.2l.5-.1h.4l.2-.4zm4.3-2.4zm0 0c-.6 0-1-.2-1.6-.4l-.5.8h.1c.1.1 0-.1.2-.2h.4l.2-.3.5.1c.1.1 0 .4 0 .4l-.5.4v.3h-.6l-.1.2c0 .2-.3.2-.2.4h.9v.3h.9s-.1.2 0 .2h.5s.3-.7 0-.8h-.9v-.4h-.2l.2-.2h.3c.3-.1.2-.7.2-.7h.1zm.2-.8v-.1h-.1.1zm-.1 0l-.4-.2.4.1zm-.4-.2l-.8-.2.8.2zm0 0v-.3h-.6l.1-.1c-.2 0-.2.1-.3.2l.8.2zm-.6-.5a32 32 0 0 1 3.7-4.4l1.6.5v-.3l.2-.6-1-.3 2.3-2v.8h-.4v.3l-.2.1v.1l-.1.4c-.1.1-.4 0-.4 0l-.1.6 1.7.4.8-1.1 1.1-1.8-1-.3h-.7l-.7.6v-.2l-.1-.2h-.9a27 27 0 0 0-2.3 2l-.9-.3h-.2v.3h.7v.4s-.3-.2-.4 0c-.4.4.9.1.8.3-.1.3-.7.2-.7.2l-.2.3h-.3l.4-.5-2-.6a57 57 0 0 0-1.6 1.3v.4c.3.1.6-.3.8 0l.1.2c.2.1.4.3.6 0V22c0-.2-.3-.1-.4-.3-.3-.3 1.2.4 1.3 0v-.1h-.2v-.1h-.1v-.1c-.1-.1-.4-.5 0-.4-.1-.1 0-.1 0-.1l.3-.1.6.4.2.2c-1 1-1.7 1.9-2.4 2.8l.2-1c-.1-.4-1 .3-1 .3l-.3.3c-.3 0-.7-.8-.4-1h.3l.1-.2.3-.1-.3-.2v-.4h-.1l.4-.3v-.5s-.2 0-.2-.2c-.1-.2.5 0 .8 0l.6-.6h1.7c.2 0 0-.3 0-.3.1 0-1 0-.9-.1h-1.1l-.1.3-.5.4-.6.1c-.2 0 0 .6-.1.7l-.6-.2-.2.2h.2v.2h.1v.2l.5.1c-1.2 1-2.3 1.9-3.2 2.9l3.4.9 1-1.5v.3l-.1.2c0 .2-.3.3-.2.5 0 .3.4.4.4.4zm-2-4.4a54.6 54.6 0 0 1 1.1-1c0 .2-.4.4-.6.6h-.6v.3h.2zm7.8-3l.7-.6-.7.6zm.8 6l.2.5.4.2c.2 0 0-.4.2-.5.5 0 .8-.2.8-.3 0-.4.2-.2.3-.4v-.2h.3s-.2-.4 0-.6c.2-.2 1 0 1 0h.4l-2.4-.6c-.5.6-.8 1.3-1.2 2zm4.4-7h-1 1zm-2.2 0l1 .3.2-.4-1.1.1h-.1zm-1.1-.4zm-2.2-.4zm-271.9-.2a30.8 30.8 0 0 0-27.2 16A37 37 0 0 0 79 50.4c0 8.6 2.7 16 8.2 22.3 6 6.8 13.7 10.2 23 10.2 8.7 0 16.8-2.1 24.4-6.5l-1.2-2.6a56.5 56.5 0 0 1-19.6 3.8c-7.3 0-12.8-2.2-16.4-6.6-4-4.7-6.1-12.1-6.1-22.3v-2l.1-2h46.3a35 35 0 0 0-2.4-13.5c-4.3-10.1-12.5-15.1-24.5-15.1zm192.7 0a32.5 32.5 0 0 0-34 33c0 9.1 2.8 17 8.3 23.3 6.1 7 14.1 10.5 24 10.5a48 48 0 0 0 24.3-6.4l-1.2-2.5a53.3 53.3 0 0 1-18.5 3.6c-8 0-14-2-17.8-6.1-4.4-4.7-6.5-12.4-6.5-23.3 0-10 2.2-17.2 6.7-21.7 3.7-3.8 9.2-5.8 16.5-5.8 4.7 0 8.7.6 12.1 1.7v.3c-5 1-7.4 3.6-7.4 8 0 2 .8 3.6 2.2 4.9a8 8 0 0 0 5.5 1.9c2.5 0 4.5-.8 6-2.4a7.8 7.8 0 0 0 2.4-5.7c0-4.8-2.6-8.3-7.8-10.6-4-1.8-9-2.7-14.8-2.7zm-68.3 0c-9.3 0-17.2 3.5-23.8 10.4a32.3 32.3 0 0 0-.1 45.8c6.6 7 14.6 10.6 23.9 10.6 9.2 0 17.1-3.5 23.7-10.5a32.5 32.5 0 0 0 .2-45.9 32 32 0 0 0-24-10.4zm-222.6.2v3l9.8 2V77l-9.8 2v3h27.8v-3l-11-2-3-54.4L74.8 83h3.3V21.3l9-1.9v-3H60.2v3l10.9 2L73.6 64 35.8 16.4H12.5zm367.1 0h.4v.6s-.2.1-.1.2v.1h-.2l-.7.3s-1.1-.1-1-.3c.3-.4 1-.3 1-.3h.4c.2-.1 0-.6 0-.6h.2zm-56.8.5v3.5l13 2v55.8H328V82h30.8v-3.8h-11V16.9h-25zm54 .3h.2v.2h-.4.4l-.6.1v-.2h.4zm6.2.3v.7l.6-.6-.6-.1zm-6.6 0a1 1 0 0 1-.5.2l.5-.2zm2.6.1l.1.2c.2.4-.5.2-1 .1l1-.3zm-3.1.1h-.2.2zm16.9.3l.9.8h-.3l-.6-.8zm-21 0a33.5 33.5 0 0 0-4.2 1.7l-.1.2-3.5 2 1.2.5c2.4-1.9 4.2-3 7-4.2l-.3-.1zm15.5.6l-1.3 2-.6.9 2.5.6.2-1.1.2-2.2-1-.2zm-7.6.5l-1 .5 1 .3h.3v-.2h.3v-.3h-.6V19zm12.3.4l1 .2a27 27 0 0 1 2.5 3.6 98 98 0 0 1-2.2-.3 9.1 9.1 0 0 0-1.3-3.5zm2.3.3l.5.1c1.2 1.2 2.4 2.3 3.5 3.7l-1.6-.2c-.8-1.4-1.6-2.5-2.4-3.6zM374 20h-.2.2zm22.4.2l.4.3 3.2 2.7v.3h-.6l.1.1v.2h1.2l-.4-.3h.3v.3c.2.2.6-.2.7-.1l.4.2c0 .2.4 0 .4.2 0 .3.1.4.3.5.1.2.3.1.4.2l.3.6h.3l-.5-.5h.7l.6.6.3.3c.1-.3-.2-.8 0-1.1.1-.2.7-.2.9.1.3 0 5.2 6.4 5.2 6.4 1.4 2.2 3 5.8 3 5.8l.4 1.2 1.5 5.7v2l-.3-.3v-.1h-.1v.4c-.2 0-.3 0-.3.2l.2 1.7h.3l-.2-1.9c.2 0 .2 0 .2.2a1 1 0 0 1 0 .3v.4l.5.1v1l-.1.4c-.3.3-.5.1-.3.4l-.1.5c0 2.6-.3 5.2-1 7.6h-.2l.1-.4.1-.5c-.6 0-.7 0-.9.4l-.1.3c-.1.3 0 .7-.3.7-.4 0-.3.3-.4.5l-.1.3h.4l-.4 1.3h-.4l.1.9a26.7 26.7 0 0 1-2.6 5.3h-.8c.1-.1.2-.3.4-.3v-.2h.3c.2-.1-.2-.7 0-.7.3 0 .2-.1.3-.3l.3-.2v-.6l.3-.1v-1.4h.2c.2-.4-.1-1.2.3-1.2.2 0 0-.5.2-.6.1 0 .4-.1.4-.3 0-.6.3-.3.3-.9l.7-.7-1.6.2c-.5 3-1 5-2 7.2v.2l-.3.2c-.4.2-1.3.9-1.5 1.3l-.4.8c-.3.4-.3.9-.7.9l.3-.6-.2.3 1-1.6v-.2l-3.7.4a30 30 0 0 1-2.9 5.2h1.3V72c.2 0 .2-.3.4-.3.4 0 .5 0 .5-.2.2-.2 1-.4 1.2-.8.2-.3.4 0 .6-.2 0-.2-.2-.4 0-.5.1-.2.6.2.6 0 0-.6.1-.9.3-1.2 0-.3.3 0 .5 0-.8 1.2-1.8 2.8-2.9 4-1 .3-2 .5-3.2.6l.7-1.1-.1-.1V72l.3-.4c.4.2.2-.3.3-.5 0-.2.2.2.2-.5 0 0-.2-.5 0-.5.4 0 .1-.6.3-.8.2 0 .1-.4.1-.7a30.1 30.1 0 0 1-1.5 2.7l-1.4 2.2h-4.8c1.1-1.9 2-4 3-6.4a61.2 61.2 0 0 0 5.4 0v.1l.1-1a53 53 0 0 1-5 0c1-2.8 1.7-5.2 2.2-7.7l3.7.2h.3c0 1-.2.4-.3.7v1s0 1.5-.3 1.6c-.4 0-.3.4-.3.8v3h-.2v.5h.2c1-2.2 1.6-4.5 2.3-7.5h-1.4v-.2c0-.2-.2 0-.3 0-.2-.2 0-.4 0-.6l-.1-.1c-1.1 0-2.2 0-3.4-.2l.3-2.2v-.1h-.9l.6-6.4-6.1-.8v-.9h-.2V46c.3-2.3.4-4.6.5-7.3l6 .8v.5l.5-.1c.4-.2.1-.8.5-1h.5l1 .3c.5.1 1.1.1 1 .5v.3l-2.6-.3v.2c.2 2.5 0 5-.1 8.2 2 .3 3.9.4 5.7.4 0-1.7-.1-3.4-.4-5.2.4-.1-.2-.7 0-.7.4 0 .4-.2.5-.4l.2-.1-.3-1.9h1.2c.2.3.5.2.9.3h1v-.2h-1.9c-.1-.2-.2-.4-.1-.6 0-.2.4 0 .4-.3h1.4l-.4-1.6v-.2h-.1v.3c-.1.4-.7-.2-1 0l-.1.3v.9c0 .1.2-.2.2.3h-.9v-1.2h.5c.3-.2 0-.5 0-.9l.1-1.7h.6c.2 0-.1.3 0 .5h.2v.2a27 27 0 0 0-.8-2.3 23 23 0 0 0-1-2.1l-2.5-.2a42.9 42.9 0 0 1 2.3 7.4v.2h-.2v-.2.3h-1c0-.4.7-.8.6-1.2 0-.3-.8 0-.7-.7 0-.2 0-.4-.3-.4l.2.8.3 1.3h-.5l-.3.1c-.2.3 0 .6-.3.7h-.1l1.4.2.5 3c-.3 0-.5 0-.5-.3 0-.7-.3-.7-.6-1-.7-1.2-1.2-.4-1.2-1 0-.4-.3 0-.3-1l.7.1c-.2 0-.2-.5-.2-.9-1 0-2-.2-3.2-.4l-.1-1.4c-.2.3 0 .4 0 .7v.2c0 .4 0 .2-.1.3-.2.4-.6.3-1 .3h-.2v-.3l-1-.1 1 .1.5.1-.3-2.7c-.7-.2-.2-.4-.5-.4-1.5 0-.8-.2-1.2-.2-.2 0-.6 0-.6.3l.1.8.3.2c0 .1-.3 0-.3.2l-.3.8c0 .2.3 0 .3.3v.3a60.3 60.3 0 0 0 1 .2c0 .1.3.7 0 .8-.2.1-.8-.2-.8-.5l-.1-.3v-.1l-3.5-.5v-7.5l2.4.4v.4c.1.1.6.2.7 0v-.3h.2l1 .2c.2.3-.4.9 0 1h.3v-.3l.2.5.2 1h.6l.3-.4v.3l.5 2v.1c.2.3.1.5 0 .5l.2 1-.1-1 .2 1.6c.2-.1.6.2.8 0 .2-.2-.2-.6 0-.9.3-.3.8.3 1.2 0l.3-.3s-.2.5 0 .6h.3l.2.6-.1.5c0 .2.3.3.4.4l.1.1.1.6v.2h1c-.5-.2-.2-.6-.3-.7a.5.5 0 0 1-.3-.2c0-.2.1-.3-.3-.6 0 0-.2-.2 0-.3 0-.1-.4 0-.2-.5 0-.2.5-.2.5 0 0 .4.2.3.5.3l-1.3-4.4-.4-1a51.7 51.7 0 0 1-2.5-.4c0 .1 0 .2-.2.3-.1.1-.4 0-.5.2l-.1 1-.2-.9-.2-.5a84.7 84.7 0 0 0 1.2 0c0-.2 0-.4.2-.6l.4-.3h-.4l-1.1-.2h-.3l-.3-.1v-.5h-.1l-.2-.6v-.3h-.1l-.2-.6c.2-.3.3-.5.1-.6h-.3l-.1-.5v-.2l-1.1-2.5 1.2.1.7.1c0-.4-.2-.8 0-1.1h.3c-1-1.3-2-2.3-3-3.3zm3 3.2l.1.2-.1-.2zm2 7c.4.2.9.2 1.4.3l-.4-.8c-.4.1-1 .6-1 .6zm1-.5c.3-.2.4-.3.8-.3h.1v-.1l-1.2-2c0 .2-.2.2-.3 0v-.2h.2l-.2-.3h.3v.4h.3v.2h.3v.3c0 .1.3 0 .4 0 .3 0 .5-.2.7 0v.3c.2 0 .3-.1.4 0l-.2.2c-.2.2-.4.1-.5.3l.1.6v.4h-.3l.5 1 2.5.2a37 37 0 0 0-4.6-6l-1.4-.1 1 1.2c0 .2-.3 0-.3.1v.3h-.4v.3h.3v.3c.1.2.4-.4.6-.3.2.1.2.3.2.6 0 .2-.4.5-.2.6h.3v.9l-.5-1-.4-.6-.3-.5-.2-.2-.8-1.2c0 .1 0 .2-.2.2h-.2c-.3.3.2.9 0 1.2h-.3v.3c0 .1.1 0 .2 0 .2.1-.1.5.1.6h.2v.6h.4l.2.3h.3v.3h.3c.2.2-.1.4 0 .5l.3.1v.8c.1.2.8.1.9-.2v-.3h-.3v-.6h.3v-.3l.6 1zm-2.8-4.6c0-.2 0-.3-.2-.4l.2.4zm-.3-.3l-.2-.4v.4h.2zm2.8 2.4zm2.8 11.8zm-4.4-3.5l-.1-.5-.3.1h-.6c-.2-.2.1-.7-.2-.8l.2.8v.5h1zm-1.2-1.2l-.2-1.2c-.3-.1-.6-.2-.6 0 0 .3.5.2.6.6 0 .3 0 .5.2.6zm9.3 1.8zm0 .1v.2l.4 1h.9l-.3-1.2s-.1 0 0-.2c0-.1-.3 0-.4-.2l.2-.2-.2-.5h-.3c-.2.3 0 .4 0 .7 0 .2.2.1.2.2s.2.3 0 .3l-.5-.1zm.6-1.1h.2c.2 0 .1.3 0 .5l.2.5v.1s.2 0 .2.3l.3.3s.5-.1.2.3c0 .2.4-.2.4.3 0 .2.2-.2.2.5 0 .3-.3-.2-.6-.2s-.1-.2-.4-.2l.4 1.7h2c-.8-3-1.8-5.4-3-7.6h-1.5l.7 1.6.1.2.5 1.3.1.4zm-1.8 2.9h.2-.2zm2.2 2.3v.4l.5 2.4a4 4 0 0 0 0 .1c.3 0 .6 0 .5-.3v-1.3l.1-.1-.1-.9c.6.1.3.6.1.9l.3 1.4v.5l.3 1.1c-.3 0-.7-.2-.9 0v.2l-.3-1.6h-1.5v-.4c-.5.1-.3-.2-.4-.3h-.5v-.3c-.5 0-.2-.3-.4-.3a1 1 0 0 0-.4 0l.1 1.2-.1-.9.1.9c.3 1.8.4 3.5.4 5.3l3.4-.1-.4-2.9c.2.4.8-.2.8.7 0 .7.2.8.4.8l-.3-2.3c.2-.2-.5-1.1.2-.8v1.5s0 .5.2.8c.1.1.3.1.3.3l.2 1.5v.3h.2l1.7-.3a25.5 25.5 0 0 0-.5-3.7c-.2-1.2-.5-2.6-1-4h-2.1v.5h-.1l-.4-.2h-.4zm2.6 7.8h-.5v-.6l-.1-.7v.7l-.1.2V49h.5v.2h-.3c.1 2.5 0 5-.6 8.2l1.6-.3h.4l.2-1c.3-1.1.5-2.3.6-3.4l-.2.2v.3c-.2.1-.3 0-.4 0-.2-.1.3-.6-.3-.6-.4 0 .1-1.2-.2-1-.2 0-.1-.4-.2-.6l-.1-1.3h-.3l-.1-.5h.5l-.1-.6-.3-.4zm.4.8c0 .2.1.3.3.3.4 0 0 .6 0 1 .2.3.4.5.5 1 0 .2-.3.5 0 .7 0 .1.4-.2.6-.5v.2l-.1 1 .1-.2h.4c.3-.2.2-1.1.5-1v.4l-.2 2c0-.5.4-1.4.4-2l-.2-.2.1-1v-1.2l-.2.5c-.1 1.2-.5.3-.7 1.3V49l-1.5.2zm2.4.4l.3-.3v-.6h-.3v.8zm.3-.3zm-.7 4.9h-.2c-.6.2-.7.2-.6.5 0 .2.3.1.5.3l.1.5.2-1.3zm-3-6.4c.2-.1.3-.4.3-.7 0-.2-.2 0-.3 0v.7zm-18-1.7v1.3h.1l6.2.7c.2-3.1.2-5.6.1-8h-.8c-.2-.1.4-.4-.6-.3-.4 0-.1.6-.4.9-.3.4-.6-.3-1.1.6-.3.5.4 1.2-.2 1.6l-.6.1c-.7.3-.6.5-1.4 1.3a6.6 6.6 0 0 0-1.3 1.6v.2zm20.7 10l.1-.6v.5zm.5-10v-.7l-.3-.2-.4-1c0-.1 0-.3-.2-.5h-.2c-.2 0-.1.3-.1.5l.2.8c.2.2.2.5.5.6h.4c.2.6-.2 1.8 0 1.5.2-.2.1.4.1.3.2-.3 0-1 0-1.2zm-10.3-20.2h-.3v.3h.2c.2.2.3.6.2.7 1 1.3 2 2.7 2.7 4.1h1.4l-1-1.3c-.9-1.3-2-2.5-3.2-3.8zm0 1l-1-1.1v.2h.3v.5l.3.1v.1l.1.3h.3zm-1-1.1s.1 0 0 0v-.2.2zm-293-5.3c5 0 8.8 1.3 11.1 4 2.4 3.1 3.8 8.7 4.2 16.8H91.2c.5-4 1.3-7.3 2.4-10 3-7.3 8.6-10.8 16.9-10.8zm124.6.4c6.3 0 11 1.7 14.2 5 4.4 4.7 6.6 12.6 6.6 23.7a51 51 0 0 1-1.8 15c-3 9.2-9.3 13.9-19 13.9-6.2 0-11-1.8-14.3-5.2-4.3-4.4-6.5-12.3-6.5-23.7 0-6.2.6-11.3 1.9-15a20 20 0 0 1 6.6-10.3 20 20 0 0 1 12.3-3.4zm164.7 1a32 32 0 0 1 2.8 2.2h-.5l-.2-.3-2.1-2zm-36.7.7a33 33 0 0 0-5.7 5.4l1.3.6c2-2.4 3.4-3.8 5.6-5.5l-1.2-.5zm37 .7h.2v.3l-.3-.3zm-11.3 0c1.2.2 2.4.5 3.7.6l.6 5.4c-1.9-.2-3.5-.5-5-.8l.7-5.2zm-23.5.2a30 30 0 0 0-5.8 5.5l2.2 1c1.9-2.5 3.2-4 5.3-5.9l-1.7-.6zm35 0zm-6.8.6l2.6.3a23 23 0 0 1 1.5 3.6h-.2c-.5.1 0 1.2 0 1.2h.2v.2l.1.4c0 .1.3 0 .4 0l.1.3h-.7c0-.2 0-.3-.2-.3-.1-.1-.4-.2-.5 0v.1h-.2l-2.6-.4c0-1.7-.3-3.5-.5-5.4zM11.9 25v1L1.4 30.1v1.5l10.5 4v.7h1v-3h-1v1.3L9.7 34v-4.7l2.2-.8v1.2h1V25h-1zm389.2.2h.1v.3h.3v.3h.3V27l-.2-.2c0-.2-.2-.3-.3-.5v-.1l-.1-.5h-.3v-.3h.2zm-3.5 1.9zM382 28c1.8.4 3.4.8 5.2 1l-1.2 7.3-6.3-1.4L382 28zm15.8 0v.3zm.5 0v.1zm.4.6zm-10.6.7l5.1.8v7.4a226 226 0 0 1-6.2-1l1-7.2zm-379.2.2v4l-5.2-2 5.2-2zm388.5.4zm12 .4l.4.5c0-.2-.2-.4-.3-.5zm1 1.4a36 36 0 0 1 3 7.5h.5c-.8-2.7-2-5.2-3.4-7.5zm-43.7.9l5 1.3a58 58 0 0 0-3.3 7.8l-5.6-1.6.2-.5v-.2c1-2.2 2.1-4.4 3.7-6.8zm40.7.2l.4.8-.4-.8zm-47.6.4l.4.1h-.4zm12.7 1l6 1.4a91 91 0 0 0-2.2 8.2l-7-1.8a59 59 0 0 1 3.2-7.9zM10.7 35.6l-.6.6v.1c.8.6 2 2 1.9 3.4-.2 2-2 3.6-4.8 3.6-2.4 0-5-.6-5-3.2A3 3 0 0 1 4.7 37v-1H1.3v1l1 .3c-.9 1-1.1 2-1.1 3.2 0 2.3 1.2 4 3 5l-.5.2-.3.3a6.1 6.1 0 0 0-2.5 5.7 6.2 6.2 0 0 0 1.9 3.7l.4.4.2.1c-1.3.7-2 2.2-2 4.2V65h.8v-1.4H12V65h1v-5.5h-1V61H8.5v-1c0-1.2-.2-2.2-.8-3a6.2 6.2 0 0 0 5.2-8.3c-.2-.5-.4-.9-.7-1.2v-.2H12v-.1l-.2-.2-.1-.2-.3-.2-.1-.2c-.5-.4-1-.8-1.5-1a6 6 0 0 0 3-5.4c0-1.2-.3-2.7-2-4.4h-.2zm368.6.2l6.5 1.4-.7 3.9-.9 4.6-7.2-1.6c.7-2.8 1.4-5.5 2.3-8.3zm-27.1.3a67.6 67.6 0 0 0 1.4.9 45.6 45.6 0 0 0-2.7 7.5l-1-.9c.5-2.6 1.3-5.2 2.3-7.5zm34.5 1.3l6.3 1c0 3.3-.2 6-.4 8.6-2.8-.3-5.2-.7-7.5-1.2a606.5 606.5 0 0 1 1.6-8.4zm19.8 1.8h.6l-.6.1zm7.6.9h-.5a45.2 45.2 0 0 1 1.1 5l.4.3c-.2-1.9-.6-3.6-1-5.3zm-64.3 4.7l.9.7c-.5 2.4-.7 4.9-.5 7.9a7 7 0 0 1-.4-.5 33.2 33.2 0 0 1 0-8.1zm60.6 0zm-33.6.1c2.5.7 4.8 1.2 7.3 1.7l-.9 4.7-.6 3.7c-2.3-.4-4.5-1-7.3-1.6l-.4-.1.8-3.5 1.1-4.9zm-367.5.7h.2l.4.3c-.2.2-.3.6-.4 1.2L8 46.7h.2l.1-.1v-.4h.1V46l.8-.3zm-5.4 0v.1H4v.1h.1v.2l-.2.5-.8.3-.4.1.3-.6.2-.2.3-.2.2-.1.2-.1zm5.5 0zm-4.2.1h.1v.2l.1.2c.1 0 .1 0 0 0h.4v.2l-1.7.2.3-.6.3-.1-.1.2-.1.1v.1H5v-.1c0-.2.2-.1.2-.2v-.1zm4.8.1zm0 0h.1l.1.1h.2l.1.2-.5-.3zM4 46v.1h-.1v.1h-.1l-.2.2h-.1v.1h-.1.2l.1-.2H4V46zm6 .1l1.5 1-.3 1-1.5-.8c.1-.5.2-1 .4-1.2zm341.6.2l2.5 1.4a48 48 0 0 0-.5 8.1l-2.3-1.3V54c-.3-3-.2-5.5.3-8zm-346 0zm-1.8.1h-.1l-.1.1v.1h.2v-.1zm2.1 0zm0 .2H6v.2h.2l.1.1h.1v.1H7c.1 0 .1 0 0 0l.2.2h.3V47h.1l-.4 1.5a14 14 0 0 0-1.8-.2l.5-1.8zm1.4.5zm-1.5-.5c-.2.5-.4 1-.5 1.8H3.6c0-.6.2-1.1.4-1.6l1.7-.2zm-2.9 0l-.2.6-.6.4.8-1zm1 .3c0 .4-.2.9-.4 1.5a8 8 0 0 0-1.1.2c0-.4.2-.7.3-1v-.3l.5-.2.8-.3zm4.2 0l1.4.5L9 49a23 23 0 0 0-1.8-.4l.4-1.7H8v-.1zm3.3 0zm373.7 0c2.3.5 4.7.9 7.5 1.2-.3 2.6-.8 5.3-1.4 8.6l-7.6-1.3.6-3.7.9-4.8zm-373.4.3h.1l.1.2h.1l.1.2h.1l.2.4-.7-.8zm0 0l1 1.3-.2.9c-.3-.4-.7-.8-1.2-1.1l.3-1zm-9 0zm0 .2L2 48.5a3 3 0 0 0-.7.4v-.3l.4-.8.7-.5zm7 0l1.5.9-.3 1.4-1.7-.6.4-1.7zm383.8.9h.2c.1.3.1.6-.2.8l-.1.2-.1.5-.1.9v.2h-.5c-.3-.4-.5-1.2.2-1.2.5 0 .3-.2.5-.4v-1zm-382.2 0l1.2 1.2-.2 1a9 9 0 0 0-1.3-.7l.3-1.4zm-7 .2h1l-.4 2.2-1.6-.2c0-.7.2-1.4.3-2h.8zm1 0l1.9.2-.4 2.3h-.1L5 50.8l.4-2.3zm-1.8 0L3.2 50H3v.2h-.1V50h-.3v.1h-.1v.1H2c0-.6.2-1.1.3-1.6a7 7 0 0 1 1.2-.2zm-.8 1.7zm.3 0zm0 0zm.2-.2zm9.5-1.3l.1.2c.2.5.4 1 .4 1.6-.1-.3-.3-.7-.6-1l.1-.8zm-5.4 0l1.8.5v.3H9v.1l-.1.1-.2.2v.2h-.1v.3h-.2v.2s-.1 0 0 0h-.1v.2L8 51h-.5v.1h-.8l.4-2.3zm-5.1 0l-.3 1.6h-.7l.2-1.2.8-.3zm398.6.5a84.7 84.7 0 0 1-.5 6.2c.1 0 0-.2.2-.3h.8v-.2s1.1-.2 1.2 0c0 .4.3 0 .5.3.4.4 0 1.4 0 1.4h-.2c-.3.1 0 .6 0 .8 0 .3.2.4.4.5h2.2a45 45 0 0 0 1.2-8.4l-5.8-.3zM9.1 49l1.7.6-.2 1.2v-.6h-.2l-.1-.1-.2-.1c-.1 0-.2 0-.1-.1h-.3v-.1l-.2-.1v-.1l-.3-.3h-.1V49zm401.7.2l-3.4.1a47 47 0 0 1-1.2 8.4l4-.3c.5-3.1.7-5.7.6-8.2zm-398.4.2l.7 1-.1.5-.7-.6.1-1zm-11.3 0a10.8 10.8 0 0 0 0 .6v-.5zm9.8.3l1.3.6-.2 1.2-.5-.1-.2-.1v-.1l-.1-.1H11s-.1 0 0-.1h-.3l.1-1.2zm.2 1.4zm-8-1.2zm5.4 0zm0 0v.1zm-5.7.1l.1.2s-.1 0 0-.1h-.1zm.3 0v.3zm-.5 0v.2-.1zm-1.6.1zm.1 0l.7.1a12 12 0 0 0 0 .7h-.1v.1h-.1v.5h-.1v-.3l-.1.2v.2h.1s.1 0 0 0h.1v.3h-.2v-.3.2l-.4-.4.1-1zm1.5 0zm7.9.1zm-9 0zm0 .1zm.4 0h.3v.4H2v.6l.1.2h.2v.3h.1l.1.1v.1h.1v.2h-.1l-.1-.2v.2a5 5 0 0 1-.5-.1v-1.8zm0 1.6zm-.5-1.6v.1zm0 .4zm1.7-.4zm-.3 0l.2.1v.6h-.1v.4l-.1-.4v-.4zm0 0v.1zm.2.1zm9.3 0l.7.6-.1.5H12l.2-1zm-4 0zm-5.1 0l1.6.2-.2 2.3-.6-.1v-.1h-.4v-.1h.1l-.1-.1c0-.2-.2-.2-.2-.2v-.5h-.1l-.1-.1-.1-.5V51v.3h.1v-.6l-.1-.2zm.3 1.7zm0 0zm-1.8-1.6zm0 0zm3.2.2l1.6.2h.2l-.2 2.2h-.7v-.4l-.2.1v.4l-1-.2.3-2.2zm-1.7 0zm5 0zm5 0v.4H13v-.3zm380.1 0l.2.1c.2.2-.2.8 0 .7 1-.4.4.8.6 1.3.2.4.3.7.6 1 .8-.1.2.2.7.5.2.2.5 0 .5 0l.7.9s.7.1.8-.2h.9c.4 0-.7.3 1 .2l-.4 2.3a97 97 0 0 1-7-.8c.5-2.2.9-4.1 1.1-6h.3zm-385 0zm-7 .2zm0 0zm5.5 0l.7.1-.2.3v.1l-.1.3c-.1 0-.2 0-.3.2l-.1.1v-1zm-5.4 0v.1zm11.7.2v.5H13v-.5zm-11.8 0v.1zm.6 0v.1zm1.3 0zm0 0v.1zm-1.5.1v.1zm0 0zm.2 0v.1zm-.6.1v.1zm.3 0zm-.6 0c0 .2.2.3.3.4v.3l.3.1v1c-.2 0-.3-.3-.4-.4a6.3 6.3 0 0 1-.2-1.1zm.3.4zm0 0zm.6-.3zm0 0zm9.6.1h.5v.5h-.2v-.2l-.1-.1h-.2v.1h-.1v-.2zm.6 0l.8.1-.1.6-.8.5v-.3h.2l.2-.2.2-.1V52l.1-.2-.2.1h-.2l-.1.1H12v-.4zm-10.6.1zm0 0zm11.5 0v.3zm-11.7.1zm0 .1zm.1 0V53h.1v-.4.2l.1-.1V52h-.1zm.1.7zm11.2-.6zm-1 0zm.9 0zm0 .2zm-10.7 0l.3.2v.2H2l-.2-.4zm-.3 0v.1zm11.4.1l-.1.4v-.3zm-6.3 0v.3zm-.9.1zm6.3 0zm0 0zm-5.4 0zm6 0v.5l-.8 1v-1l.9-.4zm-6 0v.1zm5.2.1zm-10.2.1zm10.1 0v.2l-1.3.4v-.3h.4l.4-.1h.3l.2-.1h.1v-.1zm-1 .3zm-9.1-.3zm2 0zm0 .2zm.1 0zm7 .1zm-.2 0zm-9.3 0l.3.3v.4l.1.1v.1l-.4-.9zm10.5 0v1l-1.4.8v-1.4l1.4-.4zm-1.5 0v.3h-.7.1V53h.2l.4-.1zM4 53v.1l.6.1v.6h-.2l-.2-.4v-.1L4 53zm.7.2l1 .2h.8v1.2h-.1l-.3-.1H6v.5h-.1l-.2-.1-.1-.1-.2-.1v.3h.1l.2.2-1-.1V54H5v-.1h-.1v-.1h-.2V53zm.1.6zm0 0zm.1 0zm1.1 1zm-.3-1.5zm0-.1zm7 0l-.3.6-.6.7V54l1-.8zm-6 0h.1v.1h-.1v-.1zm-5.1 0zm8.7 0v1.5l-1.8.5v-1l.1-.1.1-.1H9v-.2l.3-.1.2-.2v-.1l.8-.1zm-4.8.1v.2l-.1.1h-.1v.2l-.1.2v.1l.1.2v-.7h.2v-.2c.1 0 0-.1 0-.2zm-.5.2v.1h.1zm.8 0v.2zm.8.1v.1h.1l.1.1v.5l-.2.2v-.9zm-1.8 0zm.1.1zm-.4.2zm2.6 0h.4v.1h.1v.1h.1v.1h.6v.1h.2v1H6.6v-.6l.1-.2h.1v-.2H7v-.1l-.1-.1V54h.3zm4.7.1v.6l-1.4 1v-.8l1.4-.8zm-4.3 0zm.2.2zm4.4.2l-.3.3.3-.3zm-7.6 0zm2.3.1zm343.2 0l.3.3c.3 2.9 1 5 2 7.2l-.2-.1c-1-2.3-1.7-4.8-2.1-7.3zm-344.6.1zm-.8 0v.2zm7.1.1v.1a6.2 6.2 0 0 1-1.3 1.2v-.3c.5-.3 1-.6 1.3-1zm-5.2 0v.6H6l.1-.1V55c.1 0 .1-.1 0-.1h.1l.2-.2zm-.2.3zm4-.2v.9l-1.7.7v-1.1l1.7-.5zm-7.8.1zm.1.1l.3.3h.2-.2.2v.2s-.2 0-.3-.2l-.2-.3zm2.1.1l1 .2v.1H5v-.1h-.2v-.1h-.1zm3.7.2l.1 1.1-1.2.2-.7-.6v-.6h1.8zm-2.4 0h.5v.7l-.5-.3v-.3zm-.9 0zm-1.8.3zm348 0l2.2 1.1a36 36 0 0 0 1.2 7l-1-.6a28 28 0 0 1-2.4-7.5zm-348 .2h.1zm7 0v.2a6 6 0 0 1-1.6.8v-.3l1.6-.7zm373 .4l7.6 1.3-2 8a124 124 0 0 1-7.2-1.2c.7-3 1.2-5.6 1.6-8.1zm-374.8.3l.1.3a6 6 0 0 1-1 .2l-.2-.3 1.1-.2zm346 .7l3.9 1.7c0 2.2.3 4.5.8 7.1l-3.4-1.6v-.2c-.7-2.6-1.1-4.8-1.3-7zm37.3.5l6.9.9c-.5 2.4-1.2 4.8-2.3 7.6-2.4-.1-4.6-.3-6.6-.6.7-2.3 1.3-4.8 2-8zm22.3.1l-.4 1.4h-.2l.4-1.4h.2zM5 58.1c1.4 0 2.6.7 2.6 2.3v.7H2.3v-.6c0-1.6 1.1-2.4 2.7-2.4zm405 .4l-4 .3c-.7 3-1.4 5.3-2.2 7.5l4-.5c1-2.2 1.6-4.4 2.2-7.3zm2.4 3.8v.2l-1.4 2.8h-.2l.2-.4c.6-.9 1-1.8 1.4-2.6zM353 63.7zm1.4 1l.7.4c.5 1.8 1.3 3.2 2.2 4.6l-1-.8-.5-.5c-.4-1.4-.9-2.6-1.4-3.7zm27 .5l7.2 1.2c-.6 2-1.3 4-2.3 6.5l-1.1-.2-5.2-.7a426 426 0 0 0 1.5-6.8zm-370.9.2v1h1.3v4H7.2v-1.9h1.3v-1H5.1v1h1.2v2H2.6v-4h1.2v-.9H1.3v3.2L0 68v1.8l1.3.5V74h1v-1.1h9.6V74h1v-8.5h-2.4zm345.8.3l3.1 1.4c.6 2.2 1.5 4 2.6 5.5l-2.6-1.5-.2-.3a21.8 21.8 0 0 1-3-5zm54 .7l-1.6 2.4v-.1l.4-.6 1-1.7h.2zm-20.7.1c2 .3 4 .5 6.4.6a44 44 0 0 1-3.1 6.5c-1.8 0-3.6-.3-5.7-.6a90 90 0 0 0 2.4-6.5zm19.4 0l-.6 1-.4.7-.7 1-1.8 3-1 .3a55.6 55.6 0 0 0 4-5.8l.5-.1zm-6.8.9zm0 0l-.2.5a1.3 1.3 0 0 0 .2-.5zm-.2.5l-.1.1a1 1 0 0 0-.3.7l.4-.8zm-36 1.5a57 57 0 0 0 5.6 1.8l.1 4.8-4.3-1.1c-.6-1.7-1-3.4-1.3-5.5zm6.6 2c2 .5 4 1 6.2 1.3-.3 1.6-.7 3.1-1.2 4.7l-3.6-.8-1.4-.3v-4.9zm-14 .3h.1l.1.2-.2-.2zm4.5.8zm16.7.4l5.2.7 1 .2c-.7 1.7-1.2 3-2.4 4.4a41 41 0 0 1-5-.6l1.2-4.7zm-19.2 0a43.3 43.3 0 0 0 2.6 1.3v.1a53 53 0 0 1 2 2.7c-1.3-.8-2.5-1.6-3.7-2.6l-.9-1.5zm43.6.7l-2.5 2c.6-.5 1.2-1 1.8-1.8l.8-.2zm-17.3.3l5.4.6c-.8 1.3-1.8 2.5-3.1 3.9l-4.5-.1a17 17 0 0 0 2.1-4.2l.1-.2zm15 .2a25.6 25.6 0 0 1-5.3 4.2h-1.1c1.3-1 2.5-2.2 3.7-3.8 1 0 1.9-.2 2.7-.4zm-8.5.5a52.3 52.3 0 0 0 4.5 0 19.3 19.3 0 0 1-4 3.7h-3.5c1.2-1.2 2.2-2.5 3-3.7zm-28.6.3l2 .7 1.6 3.2-1.6-.8c-.6-1.2-1.3-2.2-2-3.1zm3.1 1l4 1c0 1.3.4 2.4.8 3.5l-2.8-1-2-3.4zm4.9 1.3l1 .3 3.5.8-1 3-2.4-.5a13 13 0 0 1-1.1-3.6zm5.4 1.3c1.4.3 3 .5 4.7.6a13 13 0 0 1-3.3 2.7l-2.3-.3 1-3zm5.8.7l4.3.1a12.8 12.8 0 0 1-4.7 2.5 28.4 28.4 0 0 1-2.4 0c1.1-.7 1.9-1.5 2.8-2.6zm11.3 0v.1l-3 1 2-1h1zm-3 0h.1c-1.1.7-2.4 1.3-3.8 2h.1l-2.2.4c1-.5 2-1.2 3.1-2.3h2.8z"/>
</svg>