<svg xmlns:svg="http://www.w3.org/2000/svg" xmlns="http://www.w3.org/2000/svg" xmlns:xlink="http://www.w3.org/1999/xlink" width="379px" height="98px" viewBox="0 0 379 98">
<path style="fill:#f3090a;" d="M 196.65039 0.0390625 C 176.07615 0.0390625 160.11719 23.593818 160.11719 49.46875 C 160.11719 74.927758 176.82122 96.732422 198.82227 96.732422 C 202.62527 96.732422 206.5572 94.861785 210.50195 92.925781 L 213.89453 91.162109 C 217.01862 89.670006 218.98927 88.776275 222.98438 89.208984 C 224.49514 89.374981 228.10282 90.457525 229.78516 96.056641 L 229.78516 57.210938 L 237.41211 57.210938 L 237.41211 56.097656 L 207.42578 56.097656 L 207.42578 57.210938 L 214.98242 57.210938 L 214.98242 72 C 215.01972 78.51676 214.84719 85.842113 211.31836 89.533203 C 209.06156 91.892591 204.4321 94.962891 198.6875 94.962891 C 182.38814 94.962891 176.55078 79.479408 176.55078 51.099609 C 176.55078 19.938902 181.29014 1.1269531 196.91992 1.1269531 C 209.19195 1.1269531 220.32327 14.570722 224.08008 32.333984 L 224.08008 0.17578125 C 221.34767 1.779792 219.42029 4.1152344 216.61328 4.1152344 C 214.60826 4.1152344 213.34943 4.6705202 209.53711 2.8203125 C 205.48045 0.8544627 200.65855 0.0390625 196.65039 0.0390625 z M 224.08008 32.333984 L 224.08008 32.494141 L 224.09961 32.416016 C 224.09378 32.388239 224.08595 32.36174 224.08008 32.333984 z M 110.11914 1.484375 C 88.733577 1.484375 69.941406 24.753577 69.941406 51.365234 C 69.941406 76.445621 87.957453 97.904297 108.95508 97.904297 C 130.86101 97.904297 149.52148 76.586158 149.52148 51.503906 C 149.52148 24.754229 131.24732 1.484375 110.11914 1.484375 z M 109.86914 2.7050781 C 116.2199 2.7050781 118.42334 5.2868805 121.72461 9.0078125 C 128.15931 16.257568 132.41016 31.181351 132.41016 49.017578 C 132.41016 56.677662 131.70426 64.326804 130.2793 71.708984 C 126.64976 89.263576 122.8215 96.648437 108.56445 96.648438 C 102.34424 96.648438 100.30162 94.835711 96.800781 91.353516 C 90.192629 84.668894 86.917969 69.060856 86.917969 49.693359 C 86.917969 40.498274 87.730364 31.904362 89.673828 23.916016 C 93.116856 9.7634176 98.204626 2.7050781 109.86914 2.7050781 z M 0 3.140625 L 0 4.2089844 L 6.5214844 4.2089844 L 41.527344 97.359375 L 70.572266 4.2578125 L 80.199219 4.2578125 L 80.207031 3.1464844 L 59.318359 3.1484375 L 59.314453 4.2558594 L 69.173828 4.2578125 L 48.404297 71.472656 L 22.597656 4.2089844 L 29.816406 4.2089844 L 29.818359 3.140625 L 0 3.140625 z M 271.17773 3.1523438 L 237.13672 3.1582031 L 237.13672 4.2832031 L 246.14062 4.2832031 L 246.14062 66.150391 L 246.14062 67.396484 C 246.14062 74.881245 246.64382 79.888422 249.60938 85.140625 C 253.63058 92.244901 265.2643 97.447212 276.04102 97.363281 C 282.14931 97.314791 288.17411 95.684871 292.56836 93.0625 C 300.32356 88.438846 303.375 81.113026 303.375 67.115234 L 303.375 65.726562 L 303.37305 4.2871094 L 311.75977 4.2871094 L 311.75977 4.2890625 L 321.11719 4.2890625 L 321.09961 93.626953 L 311.20312 93.644531 L 311.20312 94.757812 L 378.91406 94.753906 L 378.95117 60.914062 L 378.91016 60.917969 C 377.2502 76.739857 370.61421 93.600841 350.39062 93.626953 L 336.10938 93.626953 L 336.10938 47.964844 L 337.58984 47.964844 L 338.77344 47.964844 C 349.1753 47.964844 357.30335 55.666101 357.63867 67.263672 L 357.63867 27.714844 L 357.62305 27.677734 C 356.79121 39.137085 348.72704 47.00929 339.96094 46.875 L 339.13086 46.875 L 336.10938 46.875 L 336.06836 4.28125 L 349.30469 4.2871094 C 368.45735 4.3188004 373.05583 19.779494 375.50195 33.896484 L 375.48047 25.90625 L 375.49805 3.1679688 L 313.3125 3.1738281 L 313.3125 3.1699219 L 292.25391 3.171875 L 292.25391 4.2871094 L 302.26953 4.2871094 L 302.26953 64.785156 L 302.26953 65.898438 C 302.26953 72.275312 301.79117 77.47023 300.59375 81.351562 C 297.84269 89.946077 289.84196 95.400601 279.08203 95.322266 C 273.23858 95.281236 268.7115 94.135701 265.45312 90.636719 C 261.87766 86.792689 261.31023 83.084932 261.42773 75.322266 L 261.52734 4.2792969 L 271.17188 4.2832031 L 271.17773 3.1523438 z M 375.50195 33.896484 L 375.50195 33.917969 L 375.50586 33.917969 C 375.50463 33.910841 375.50319 33.903613 375.50195 33.896484 z M 357.63867 67.263672 L 357.63867 67.826172 L 357.66406 67.744141 C 357.66244 67.580467 357.64336 67.425829 357.63867 67.263672 z M 3.6796875 5.6328125 C 2.2118312 5.6328125 1.0175781 6.8290186 1.0175781 8.296875 C 1.0175781 9.7647316 2.2118312 10.957031 3.6796875 10.957031 C 5.1475439 10.957031 6.3417969 9.7647316 6.3417969 8.296875 C 6.3417969 6.8290186 5.1475439 5.6328125 3.6796875 5.6328125 z M 3.6796875 5.9570312 C 4.9666264 5.9570313 6.0175781 7.0062059 6.0175781 8.296875 C 6.0175781 9.5856786 4.9666264 10.630859 3.6796875 10.630859 C 2.3908835 10.630859 1.34375 9.5856786 1.34375 8.296875 C 1.34375 7.0062059 2.3908835 5.9570312 3.6796875 5.9570312 z M 2.3828125 6.5644531 L 2.3828125 9.9746094 L 2.84375 9.9746094 L 2.84375 8.5136719 L 3.8945312 8.5136719 C 4.0847743 8.5136719 4.2228858 8.5314088 4.3105469 8.5761719 C 4.4653526 8.650777 4.5492682 8.7976685 4.5585938 9.0214844 L 4.5878906 9.5917969 C 4.5934866 9.7260859 4.6019981 9.8146981 4.6113281 9.8613281 L 4.6464844 9.9746094 L 5.2128906 9.9746094 L 5.2128906 9.8964844 C 5.1420153 9.8666424 5.0924301 9.7957651 5.0644531 9.6894531 C 5.0476671 9.6260381 5.0388031 9.5290846 5.0332031 9.4003906 L 5.0175781 8.9414062 C 5.0082524 8.7437026 4.9714419 8.5994679 4.9042969 8.5136719 C 4.8390174 8.4241457 4.7359397 8.3529171 4.6035156 8.2988281 C 4.754591 8.2204927 4.8711471 8.1168872 4.9550781 7.9863281 C 5.0408739 7.8557691 5.0820312 7.6896272 5.0820312 7.4863281 C 5.0820312 7.092786 4.9224526 6.8251675 4.6035156 6.6796875 C 4.435654 6.6032175 4.2220555 6.5644531 3.9609375 6.5644531 L 2.3828125 6.5644531 z M 2.84375 6.9628906 L 3.9726562 6.9628906 C 4.1293271 6.9628906 4.2563534 6.9865751 4.3496094 7.0332031 C 4.5267965 7.1189991 4.6132812 7.2868302 4.6132812 7.5292969 C 4.6132812 7.7549775 4.5506569 7.9102977 4.4238281 7.9960938 C 4.2988645 8.0856197 4.1284643 8.1269531 3.9121094 8.1269531 L 2.84375 8.1269531 L 2.84375 6.9628906 z M 114.67773 45.740234 C 113.3852 45.740234 112.42188 46.585192 112.42188 47.728516 C 112.42188 48.073565 112.50163 48.386439 112.66016 48.628906 C 113.01267 49.195905 113.51006 49.476163 115.13086 50.005859 C 115.52627 50.128958 115.85741 50.287216 116.10547 50.455078 C 116.49341 50.719926 116.74219 51.206807 116.74219 51.740234 C 116.74219 52.674663 116.02513 53.330078 114.98438 53.330078 C 113.76086 53.330078 112.68316 52.397016 112.21875 50.917969 L 112.12891 50.917969 L 112.12891 53.251953 C 112.27439 53.018812 112.47993 52.898438 112.7168 52.898438 C 112.90144 52.898438 113.3301 52.996568 113.70312 53.130859 L 114.04492 53.251953 C 114.36013 53.35267 114.71194 53.417969 115.06445 53.417969 C 116.54909 53.417969 117.68359 52.441236 117.68359 51.154297 C 117.68359 50.820439 117.60385 50.497991 117.44531 50.207031 C 117.11518 49.619515 116.53713 49.261979 115.21289 48.853516 C 113.62566 48.374177 113.16016 47.986496 113.16016 47.162109 C 113.16016 46.361969 113.77085 45.820313 114.66797 45.820312 C 115.72177 45.820312 116.57234 46.55183 116.82227 47.650391 L 116.90039 47.650391 L 116.90039 45.763672 C 116.77543 45.994948 116.63965 46.074219 116.41211 46.074219 C 116.25357 46.074219 116.08233 46.038831 115.79883 45.951172 L 115.5957 45.884766 C 115.27862 45.784049 114.97056 45.740234 114.67773 45.740234 z M 107.56055 45.787109 L 104.875 53.183594 L 104.03516 53.183594 L 104.03516 53.273438 L 105.83789 53.273438 L 105.83789 53.183594 L 105 53.183594 L 105.81445 50.917969 L 108.5332 50.917969 L 109.38672 53.183594 L 108.52539 53.183594 L 108.52539 53.273438 L 111.57422 53.273438 L 111.57422 53.183594 L 110.50781 53.183594 L 107.71875 45.787109 L 107.56055 45.787109 z M 91.320312 45.851562 L 91.320312 45.953125 L 92.136719 45.953125 L 92.136719 53.183594 L 91.308594 53.183594 L 91.308594 53.273438 L 93.894531 53.273438 L 94.029297 53.273438 C 94.274095 53.273438 94.506367 53.2634 94.722656 53.244141 C 96.236682 53.109323 97.044922 52.506321 97.044922 51.486328 C 97.044922 50.408284 96.104381 49.575905 94.673828 49.363281 C 96.001799 49.243912 96.759766 48.673926 96.759766 47.806641 C 96.759766 46.62788 95.729275 45.851562 94.130859 45.851562 L 94.029297 45.851562 L 91.320312 45.851562 z M 97.416016 45.853516 L 97.416016 45.951172 L 98.199219 45.951172 L 98.199219 53.173828 L 97.416016 53.173828 L 97.416016 53.273438 L 100.1582 53.273438 L 100.1582 53.173828 L 99.294922 53.173828 L 99.294922 49.384766 L 100.1582 49.384766 L 100.2832 49.384766 C 101.22322 49.384766 101.58842 49.763963 101.59961 50.763672 L 101.59961 50.830078 L 101.60938 51.875 C 101.62058 52.208858 101.69922 52.577688 101.82422 52.775391 C 102.04057 53.140957 102.58502 53.396484 103.10352 53.396484 C 103.3777 53.396484 103.54791 53.352069 103.81836 53.197266 L 103.77344 53.140625 C 103.58134 53.263723 103.37871 53.318359 103.20898 53.318359 C 102.84341 53.318359 102.66406 52.98502 102.66406 52.294922 L 102.66406 52.173828 L 102.62891 51.341797 L 102.62891 51.244141 C 102.62891 50.542852 102.43809 50.185263 101.87109 49.806641 C 101.48501 49.552984 101.31334 49.477054 100.79297 49.363281 C 102.13027 49.174903 102.75586 48.686454 102.75586 47.794922 C 102.75586 46.552747 101.65644 45.853516 99.714844 45.853516 L 99.613281 45.853516 L 97.416016 45.853516 z M 118.05664 45.869141 L 118.05664 45.966797 L 118.96484 45.966797 L 118.96484 53.181641 L 118.04688 53.181641 L 118.04688 53.267578 L 120.91406 53.267578 L 120.91406 53.167969 L 120.02148 53.167969 L 120.02148 45.957031 L 120.91406 45.957031 L 120.91406 45.869141 L 118.05664 45.869141 z M 121.83008 45.869141 L 121.83008 45.966797 L 122.84961 45.966797 L 122.84961 53.181641 L 121.71484 53.181641 L 121.71484 53.267578 L 128.19922 53.267578 L 128.19922 50.867188 L 128.10938 50.867188 C 128.04227 51.400615 128.00753 51.532961 127.83594 51.900391 C 127.46291 52.655769 126.60115 53.167969 125.68164 53.167969 L 125.58203 53.167969 L 123.98242 53.167969 L 123.99414 45.966797 L 125.04883 45.966797 L 125.03711 45.869141 L 121.83008 45.869141 z M 93.236328 45.939453 L 93.927734 45.939453 L 94.005859 45.939453 C 94.833976 45.939453 95.240676 46.130846 95.457031 46.585938 C 95.581994 46.863841 95.673828 47.349895 95.673828 47.728516 C 95.673828 48.039992 95.617595 48.352867 95.501953 48.628906 C 95.296789 49.151142 94.970326 49.320312 94.175781 49.320312 L 94.085938 49.320312 L 93.236328 49.320312 L 93.236328 45.939453 z M 99.287109 45.943359 L 99.785156 45.943359 L 99.964844 45.943359 C 101.09884 45.943359 101.69922 46.507805 101.69922 47.583984 C 101.69922 48.662028 101.23498 49.285156 100.41992 49.285156 L 100.30664 49.285156 L 99.287109 49.285156 L 99.287109 45.943359 z M 107.15234 47.197266 L 108.50195 50.808594 L 105.84961 50.808594 L 107.15234 47.197266 z M 93.236328 49.419922 L 94.085938 49.419922 L 94.189453 49.419922 C 94.493469 49.419922 94.763674 49.440061 94.970703 49.494141 C 95.582465 49.671328 95.955078 50.306262 95.955078 51.208984 C 95.955078 51.820747 95.79733 52.395995 95.558594 52.716797 C 95.319857 53.039465 94.843301 53.183594 94.005859 53.183594 L 93.894531 53.183594 L 93.236328 53.183594 L 93.236328 49.419922 z "/>
</svg>
