<?xml version="1.0" encoding="UTF-8"?>
<svg width="10px" height="16px" viewBox="0 0 10 16" version="1.1" xmlns="http://www.w3.org/2000/svg" xmlns:xlink="http://www.w3.org/1999/xlink">
    <!-- Generator: Sketch 49.3 (51167) - http://www.bohemiancoding.com/sketch -->
    <title>Shape</title>
    <desc>Created with Sketch.</desc>
    <defs></defs>
    <g id="Page-1" stroke="none" stroke-width="1" fill="none" fill-rule="evenodd">
        <g id="lorem-ipsum" fill="#FF6963">
            <path d="M2.40863462,15.0032787 C2.56601166,15.1081967 2.72338871,15.2655738 2.77584773,15.4229508 C2.81082041,15.5278689 2.82830675,15.7202186 2.82830675,16 L6.13322478,16 C6.55289691,15.4404372 6.79770565,15.0907104 6.86765101,14.9508197 C6.97256904,14.7409836 7.4971592,14.5311475 7.6545363,14.2163934 C7.8119133,13.9016393 8.8086346,12.1180328 8.9135526,12.0655738 C9.0184707,12.0131148 9.6479789,11.0688525 9.8053559,10.8065574 C9.962733,10.5442623 10.2632027,10.2300557 9.3856838,9.54754098 C8.9135526,9.18032787 8.9135526,9.39016393 7.7069953,8.39344262 C7.4552097,8.19466455 7.118905,8.05256631 6.97256904,7.86885246 C6.73271346,7.56773176 6.76273298,7.23934426 6.86765101,6.97704918 C6.93759636,6.80218579 6.9550827,6.50491803 6.92011003,6.0852459 C7.1998914,6.22513661 7.3572685,6.12021858 7.3922412,5.7704918 C7.4971592,5.4557377 7.6545363,5.50819672 7.7594543,5.24590164 C7.8643723,4.98360656 7.9692904,4.09180328 7.5496182,3.93442623 C7.6020772,3.61967213 7.7694557,3.26020104 7.7594543,2.99016393 C7.7494529,2.72012683 7.4971592,2.67540984 7.5496182,2.46557377 C7.6020772,2.2557377 7.6020772,2.09836066 7.3922412,1.94098361 C7.5496182,1.83606557 7.1299461,0.10491803 4.03486412,0 C2.51355265,0 0.67748707,1.46885246 0.67748707,2.2557377 C0.67748707,3.04262295 0.57256904,3.61967213 0.78240511,3.77704918 C0.83486412,3.77704918 0.93978216,4.1442623 0.83486412,4.19672131 C0.72994609,4.24918033 0.57256904,5.14098361 0.83486412,5.35081967 C1.09715921,5.56065574 1.25453626,5.7704918 1.25453626,5.98032787 C1.25453626,6.19016393 1.56929035,6.4 1.88404445,6.29508197 C1.88404445,6.81967213 2.3561756,7.39672131 2.30371658,7.81639344 C2.25125757,8.23606557 2.56601166,8.86557377 2.40863462,9.02295082 C2.25125757,9.18032787 0.52011003,10.0721311 0.41519199,10.4393443 C0.25781494,10.9639344 -0.05693915,12.0655738 1.04470019,13.9016393 C1.7266674,14.6360656 2.25125757,14.8983607 2.40863462,15.0032787 Z" id="Shape"></path>
        </g>
    </g>
</svg>