<?xml version="1.0" encoding="UTF-8"?>
<svg width="100px" height="100px" viewBox="0 0 100 100" version="1.1" xmlns="http://www.w3.org/2000/svg" xmlns:xlink="http://www.w3.org/1999/xlink">
    <!-- Generator: Sketch 51.2 (57519) - http://www.bohemiancoding.com/sketch -->
    <title>LOTREL-355</title>
    <desc>Created with Sketch.</desc>
    <defs></defs>
    <g id="LOTREL-355" stroke="none" stroke-width="1" fill="none" fill-rule="evenodd">
        <path d="M91.4315434,40.5642257 C84.7668655,44.8534978 72.8076929,46.2317825 60.5319149,45.4002208 C65.5098041,35.8038746 72.706592,26.7876391 81.2379119,21.9965086 C86.7505716,18.9018891 92.8347175,20.376685 94.3687907,27.9134295 C95.5367721,33.6456748 95.3627722,38.0340665 91.4315434,40.5642257 Z M66.2349752,10.4660813 C66.6590128,20.1290306 63.8516634,33.3688319 57.4119518,45.6304348 C43.6074033,44.1565242 30.0460605,39.8659948 23.9984134,33.8116399 C21.1732429,30.9817951 22.2005776,27.2324755 23.8893901,24.5502333 C29.9905006,14.8565996 46.0179709,6.53635843 59.1573726,5.09736461 C63.3626311,4.6370982 66.0268875,5.70893699 66.2349752,10.4660813 Z M19.7397022,46.326695 C27.8417909,45.106984 41.9568763,45.5156527 54.787234,47.3507276 C47.076818,60.769647 34.863191,72.5113983 17.5834515,76.2177459 C7.97772917,78.2773525 4.97199984,71.3871657 5.00019618,63.8191868 C5.03351912,55.262324 6.85910365,48.2698389 19.7397022,46.326695 Z M52.9267464,74.1233826 C52.4992261,67.6445791 54.6098155,58.4966274 58.6050266,49.5 C69.0234319,51.2548308 78.070967,53.9685798 81.6381383,57.5228423 C84.1861179,60.0624356 83.9549556,62.4852172 82.0199457,65.2764867 C77.2195626,72.2034225 64.9108215,77.6718046 57.7058314,78.470903 C53.9656779,78.8871776 53.0981701,76.6852764 52.9267464,74.1233826 Z M47.9919665,63.0354559 L50.9574468,61.1086957 C45.2075959,74.961066 36.5835891,91.7317756 29.9887302,94 L26.0638298,89.8860234 C35.3748224,89.266671 45.0906185,69.4391906 47.9919665,63.0354559 Z" id="Combined-Shape" fill="#D22321"></path>
    </g>
</svg>