<?xml version="1.0" standalone="no"?>
<svg id="Layer_1" data-name="Layer 1" xmlns="http://www.w3.org/2000/svg" viewBox="0 0 627 98">
	<g fill="#fff">
		<path class="cls-1" d="M581.32,77.32c3.85,2.4,9.67,3.59,15.4,3.59,10.52,0,17.71-4,17.71-13.09,0-8.47-6.24-11.12-14-12.75l-2.05-.43c-5.47-1.11-8.56-2.31-8.56-6.07,0-3.59,3.08-5.65,9.33-5.65,5.82,0,10.78,1.71,13.77,3.85v-8.3a35.08,35.08,0,0,0-13.35-2.4c-10.52,0-17.71,3.85-17.71,12.83,0,8.38,6.24,11,14,12.66l2.05.43c5.47,1.11,8.55,2.31,8.55,6.07s-3,6-9.41,6a25.69,25.69,0,0,1-15.74-5ZM567.38,26h-7.87V68.77c0,7.87,3.94,11.81,11.55,11.81a15.43,15.43,0,0,0,5.13-.77V73a10.64,10.64,0,0,1-4.11.77c-3.08,0-4.71-1.11-4.71-5.22ZM529.91,74.42c-6.5,0-9.5-2.14-9.5-6,0-4.28,3.59-6.24,8.73-7.1l10.18-1.71V73.13a33.88,33.88,0,0,1-9.41,1.28m17.28-23.87c0-10.18-7.78-14.46-18.14-14.46a25.76,25.76,0,0,0-12.92,3v8.3A19.07,19.07,0,0,1,529,42.94c6.67,0,10.35,2.74,10.35,8.38v2.05l-10.95,1.71c-9.32,1.45-15.74,4.62-15.74,13.09,0,9.07,7.27,12.75,17.37,12.75a43.6,43.6,0,0,0,9.24-1h8ZM479.18,26V62.87c0,12.49,5.9,18.05,17.11,18.05A26.2,26.2,0,0,0,506.47,79V71.17a16.38,16.38,0,0,1-9.32,2.74c-6.5,0-10.09-3-10.09-11.72v-18H506.9v-7.1H487.05V26ZM454.63,45.07v-8h-7.87V79.89h7.87V60.13c0-12.4,5.3-15.65,14.63-15.65h3.34V37.12h-3.34c-8.73,0-12.58,3.42-14.2,8Zm-37.84-9c-12.06,0-20.36,7.78-20.36,22.41s8.3,22.41,20.36,22.41,20.36-7.78,20.36-22.41-8.3-22.41-20.36-22.41m0,38c-8.3,0-12.32-6.16-12.32-15.57s4-15.57,12.32-15.57S429.1,49.09,429.1,58.5s-4,15.57-12.32,15.57M380.91,58.5c0,9-4.11,15.57-14.8,15.57a23,23,0,0,1-6.5-.94V44a20.3,20.3,0,0,1,6.5-1c10.69,0,14.8,6.59,14.8,15.57m-21.3,21.3a30.48,30.48,0,0,0,8.21,1.11c13,0,21.13-8.55,21.13-22.41s-8.13-22.41-21.13-22.41a35.19,35.19,0,0,0-8.21,1h-7.87V91.2h7.87Z"/>
		<path class="cls-1" d="M326.84,91.2V79.89C337.11,69.37,342,54.83,342.58,37.12H335C334.54,52,331,63.64,323.25,73.56h-.34c-7.78-9.92-11.29-21.56-11.72-36.44h-8c.6,17.71,5.47,32.25,15.74,42.77V91.2ZM264.91,58.5c0-9,4.11-15.57,14.8-15.57a23,23,0,0,1,6.5.94V73a20.3,20.3,0,0,1-6.5,1c-10.69,0-14.8-6.59-14.8-15.57m21.3-21.3A30.48,30.48,0,0,0,278,36.09c-13,0-21.13,8.55-21.13,22.41S265,80.92,278,80.92a35.19,35.19,0,0,0,8.21-1h7.87V26h-7.87Zm-39.61-.09h-7.87v36a33.45,33.45,0,0,1-8,.94c-10.78,0-11.81-5-11.81-14.12V37.12H211V60.64c0,12.4,3.08,20.27,18,20.27a47.49,47.49,0,0,0,9.75-1h7.87ZM174.58,26V62.87c0,12.49,5.9,18.05,17.11,18.05A26.2,26.2,0,0,0,201.86,79V71.17a16.38,16.38,0,0,1-9.32,2.74c-6.5,0-10.09-3-10.09-11.72v-18h19.85v-7.1H182.45V26ZM131.89,77.32c3.85,2.4,9.67,3.59,15.4,3.59,10.52,0,17.71-4,17.71-13.09,0-8.47-6.24-11.12-14-12.75l-2.05-.43c-5.47-1.11-8.55-2.31-8.55-6.07,0-3.59,3.08-5.65,9.32-5.65,5.82,0,10.78,1.71,13.77,3.85v-8.3a35.08,35.08,0,0,0-13.35-2.4c-10.52,0-17.71,3.85-17.71,12.83,0,8.38,6.24,11,14,12.66l2.05.43C154,63.12,157,64.32,157,68.09s-3,6-9.41,6a25.69,25.69,0,0,1-15.74-5Z"/>
		<path class="cls-1" d="M12.62,33.19V37h6.83V79.9h8V35.34h0a108.18,108.18,0,0,1,24.14-4.61V79.9h10V30.71a107.88,107.88,0,0,1,24.21,4.58l-.05,0V79.9h8V37h6.83V33.19S78.92,22.87,56.54,22.87,12.62,33.19,12.62,33.19Z"/>
		<path class="cls-1" d="M100.69,29.09S79.4,18.74,56.61,18.74s-44,10.35-44,10.35V22L56.64,7.31l44,14.66Z"/>
		<rect class="cls-1" x="12.62" y="84.1" width="88.09" height="7.26"/>
	</g>
</svg>