<?xml version="1.0" standalone="no"?>
<!DOCTYPE svg PUBLIC "-//W3C//DTD SVG 20010904//EN"
 "http://www.w3.org/TR/2001/REC-SVG-20010904/DTD/svg10.dtd">
<svg version="1.0" xmlns="http://www.w3.org/2000/svg"
 width="192.000000pt" height="192.000000pt" viewBox="0 0 192.000000 192.000000"
 preserveAspectRatio="xMidYMid meet">
<metadata>
Created by potrace 1.14, written by Peter Selinger 2001-2017
</metadata>
<g transform="translate(0.000000,192.000000) scale(0.100000,-0.100000)"
fill="#000000" stroke="none">
<path d="M836 1910 c-394 -62 -704 -336 -801 -706 -86 -330 9 -678 250 -919
241 -241 589 -336 919 -250 325 85 596 356 681 680 124 476 -130 967 -589
1140 -138 52 -332 75 -460 55z m-51 -755 c93 -190 172 -345 175 -345 3 0 82
155 174 345 97 198 175 345 183 345 7 0 13 -1 13 -2 1 -2 29 -200 64 -440 l62
-438 -51 0 -52 0 -6 38 c-3 20 -20 147 -38 282 -18 135 -35 248 -39 253 -4 4
-70 -123 -148 -283 -111 -228 -146 -290 -161 -290 -14 0 -50 64 -165 296 -81
164 -148 295 -150 293 -2 -2 -20 -136 -42 -296 l-38 -293 -53 0 c-50 0 -53 1
-48 23 2 12 30 200 60 417 64 453 61 440 79 440 7 0 87 -151 181 -345z"/>
</g>
</svg>
