<svg id="svg" version="1.1" width="400" height="400" xmlns="http://www.w3.org/2000/svg" xmlns:xlink="http://www.w3.org/1999/xlink" style="display: block;"><g id="svgg"><path id="path0" d="" stroke="none" fill="#000000" fill-rule="evenodd"></path><path id="path1" d="" stroke="none" fill="#005555" fill-rule="evenodd"></path><path id="path2" d="M339.600 144.000 C 339.600 144.220,339.324 144.400,338.987 144.400 C 338.191 144.400,335.600 146.991,335.600 147.787 C 335.600 148.124,335.420 148.400,335.200 148.400 C 334.963 148.400,334.800 149.867,334.800 152.000 C 334.800 154.133,334.963 155.600,335.200 155.600 C 335.420 155.600,335.600 155.876,335.600 156.213 C 335.600 156.997,338.185 159.600,338.963 159.600 C 339.287 159.600,339.664 159.780,339.800 160.000 C 340.417 160.999,347.586 160.172,347.597 159.100 C 347.599 158.935,347.860 158.800,348.177 158.800 C 348.495 158.800,349.074 158.260,349.464 157.600 C 349.854 156.940,350.314 156.400,350.486 156.400 C 350.659 156.400,350.800 155.961,350.800 155.424 C 350.800 154.887,350.980 154.336,351.200 154.200 C 351.420 154.064,351.600 153.074,351.600 152.000 C 351.600 150.926,351.420 149.936,351.200 149.800 C 350.980 149.664,350.800 149.113,350.800 148.576 C 350.800 148.039,350.620 147.600,350.400 147.600 C 350.180 147.600,350.000 147.358,350.000 147.062 C 350.000 146.390,349.041 145.526,347.088 144.441 C 345.457 143.534,339.600 143.189,339.600 144.000 M29.900 156.157 C 29.244 156.655,29.200 158.693,29.200 188.944 C 29.200 210.181,29.063 221.200,28.800 221.200 C 28.580 221.200,28.400 221.483,28.400 221.829 C 28.400 222.637,27.437 223.600,26.629 223.600 C 26.283 223.600,26.000 223.780,26.000 224.000 C 26.000 224.220,25.561 224.400,25.024 224.400 C 24.487 224.400,23.936 224.580,23.800 224.800 C 23.664 225.020,23.023 225.200,22.376 225.200 C 21.729 225.200,21.200 225.380,21.200 225.600 C 21.200 225.820,20.761 226.000,20.224 226.000 C 19.687 226.000,19.136 226.180,19.000 226.400 C 18.864 226.620,18.409 226.800,17.989 226.800 C 17.568 226.800,16.583 227.160,15.800 227.600 C 15.017 228.040,14.111 228.400,13.788 228.400 C 13.465 228.400,13.200 228.580,13.200 228.800 C 13.200 229.020,12.840 229.200,12.400 229.200 C 11.960 229.200,11.600 229.341,11.600 229.514 C 11.600 229.686,11.092 230.127,10.472 230.494 C 9.852 230.860,8.647 231.799,7.794 232.580 C 6.941 233.361,6.086 234.000,5.893 234.000 C 5.451 234.000,4.400 235.035,4.399 235.471 C 4.399 235.652,3.859 236.430,3.200 237.200 C 2.541 237.970,2.001 238.825,2.001 239.100 C 2.000 239.375,1.820 239.600,1.600 239.600 C 1.380 239.600,1.200 239.960,1.200 240.400 C 1.200 240.840,1.020 241.200,0.800 241.200 C 0.558 241.200,0.400 242.933,0.400 245.600 C 0.400 248.267,0.558 250.000,0.800 250.000 C 1.020 250.000,1.200 250.278,1.200 250.618 C 1.200 251.252,2.910 253.193,3.482 253.209 C 3.657 253.214,4.250 253.570,4.800 254.000 C 5.894 254.855,15.619 255.206,17.105 254.444 C 17.487 254.248,18.700 253.665,19.800 253.149 C 20.900 252.633,21.890 252.118,22.000 252.005 C 22.110 251.891,22.695 251.544,23.300 251.232 C 23.905 250.920,24.400 250.515,24.400 250.332 C 24.400 250.150,24.625 249.999,24.900 249.998 C 25.588 249.995,30.000 245.627,30.000 244.949 C 30.000 244.647,30.180 244.400,30.400 244.400 C 30.620 244.400,30.800 244.164,30.800 243.875 C 30.800 243.587,31.160 242.964,31.600 242.492 C 32.040 242.020,32.400 241.356,32.400 241.017 C 32.400 240.678,32.580 240.400,32.800 240.400 C 33.020 240.400,33.200 239.986,33.200 239.480 C 33.200 238.974,33.364 238.389,33.565 238.180 C 34.357 237.354,34.496 231.710,34.547 198.300 C 34.589 170.835,34.704 163.600,35.100 163.600 C 35.375 163.600,35.600 163.924,35.600 164.320 C 35.600 164.716,35.762 165.211,35.959 165.420 C 36.581 166.078,36.880 169.167,37.061 176.798 C 37.157 180.867,37.408 184.368,37.618 184.578 C 37.828 184.788,38.000 185.723,38.000 186.656 C 38.000 187.589,38.180 188.464,38.400 188.600 C 38.620 188.736,38.800 189.366,38.800 190.000 C 38.800 190.634,38.980 191.264,39.200 191.400 C 39.420 191.536,39.600 192.177,39.600 192.824 C 39.600 193.471,39.780 194.000,40.000 194.000 C 40.220 194.000,40.400 194.362,40.400 194.805 C 40.400 195.248,40.568 195.923,40.774 196.305 C 40.979 196.687,41.383 197.585,41.671 198.300 C 41.960 199.015,42.331 199.600,42.498 199.600 C 42.664 199.600,42.800 199.920,42.800 200.312 C 42.800 200.703,43.160 201.283,43.600 201.600 C 44.040 201.917,44.400 202.457,44.400 202.800 C 44.400 203.143,44.760 203.683,45.200 204.000 C 45.640 204.317,46.000 204.745,46.000 204.950 C 46.000 205.155,46.720 205.940,47.600 206.693 C 48.480 207.446,49.200 208.252,49.200 208.485 C 49.200 208.960,51.217 210.799,51.740 210.800 C 51.926 210.800,52.583 211.340,53.200 212.000 C 53.817 212.660,54.492 213.200,54.701 213.200 C 54.910 213.200,55.646 213.740,56.337 214.400 C 57.028 215.060,57.777 215.600,58.002 215.600 C 58.599 215.600,60.092 216.493,60.843 217.300 C 61.201 217.685,61.788 218.000,62.147 218.000 C 62.506 218.000,62.800 218.180,62.800 218.400 C 62.800 218.620,63.160 218.800,63.600 218.800 C 64.040 218.800,64.401 218.935,64.403 219.100 C 64.407 219.459,66.344 220.400,67.080 220.400 C 67.366 220.400,67.600 220.580,67.600 220.800 C 67.600 221.020,67.949 221.200,68.376 221.200 C 68.803 221.200,69.264 221.380,69.400 221.600 C 69.536 221.820,70.076 222.000,70.600 222.000 C 71.124 222.000,71.664 222.180,71.800 222.400 C 71.936 222.620,72.667 222.800,73.424 222.800 C 75.020 222.800,75.400 221.252,74.100 220.043 C 73.199 219.204,72.400 217.777,72.400 217.005 C 72.400 216.672,72.220 216.400,72.000 216.400 C 71.780 216.400,71.600 215.961,71.600 215.424 C 71.600 214.887,71.420 214.336,71.200 214.200 C 70.980 214.064,70.800 213.254,70.800 212.400 C 70.800 211.546,70.620 210.736,70.400 210.600 C 70.180 210.464,70.000 209.654,70.000 208.800 C 70.000 207.946,69.820 207.136,69.600 207.000 C 69.380 206.864,69.200 206.144,69.200 205.400 C 69.200 204.656,69.020 203.936,68.800 203.800 C 68.580 203.664,68.400 202.764,68.400 201.800 C 68.400 200.836,68.220 199.936,68.000 199.800 C 67.780 199.664,67.600 198.764,67.600 197.800 C 67.600 196.836,67.420 195.936,67.200 195.800 C 66.980 195.664,66.800 194.584,66.800 193.400 C 66.800 192.216,66.620 191.136,66.400 191.000 C 66.180 190.864,66.000 190.054,66.000 189.200 C 66.000 188.346,65.820 187.536,65.600 187.400 C 65.380 187.264,65.200 186.533,65.200 185.776 C 65.200 185.019,65.020 184.400,64.800 184.400 C 64.580 184.400,64.400 183.680,64.400 182.800 C 64.400 181.920,64.220 181.200,64.000 181.200 C 63.780 181.200,63.600 180.660,63.600 180.000 C 63.600 179.340,63.420 178.800,63.200 178.800 C 62.980 178.800,62.800 178.333,62.800 177.762 C 62.800 177.191,62.479 176.246,62.086 175.662 C 61.693 175.078,61.122 174.105,60.818 173.500 C 60.514 172.895,60.115 172.400,59.932 172.400 C 59.750 172.400,59.594 172.175,59.587 171.900 C 59.572 171.294,57.782 169.200,57.279 169.200 C 57.081 169.200,56.394 168.705,55.752 168.100 C 55.111 167.495,54.094 166.745,53.493 166.432 C 52.892 166.120,52.400 165.715,52.400 165.532 C 52.400 165.350,51.860 165.200,51.200 165.200 C 50.540 165.200,50.000 165.020,50.000 164.800 C 50.000 164.580,49.651 164.400,49.224 164.400 C 48.797 164.400,48.336 164.220,48.200 164.000 C 48.064 163.780,47.513 163.600,46.976 163.600 C 46.439 163.600,46.000 163.420,46.000 163.200 C 46.000 162.980,45.471 162.800,44.824 162.800 C 44.177 162.800,43.536 162.620,43.400 162.400 C 43.264 162.180,42.724 162.000,42.200 162.000 C 41.676 162.000,41.136 161.820,41.000 161.600 C 40.864 161.380,40.399 161.200,39.968 161.200 C 39.148 161.200,35.143 157.471,34.687 156.284 C 34.362 155.435,30.969 155.346,29.900 156.157 M83.500 171.232 C 82.843 171.615,82.800 173.528,82.800 202.429 L 82.800 233.218 90.300 233.109 L 97.800 233.000 97.757 205.600 C 97.715 179.469,97.576 175.084,96.759 174.220 C 96.562 174.011,96.400 173.401,96.400 172.864 C 96.400 171.109,95.453 170.825,89.600 170.825 C 86.630 170.825,83.885 171.008,83.500 171.232 M108.600 171.200 C 108.464 171.420,107.911 171.600,107.371 171.600 C 106.831 171.600,106.032 171.780,105.595 172.000 C 105.158 172.220,104.442 172.580,104.005 172.800 C 103.568 173.020,102.938 173.200,102.605 173.200 C 102.272 173.200,102.000 173.359,102.000 173.553 C 102.000 173.748,101.640 174.001,101.200 174.116 C 100.455 174.311,100.400 174.662,100.400 179.175 C 100.400 184.367,100.724 185.140,102.448 184.063 C 102.855 183.808,103.462 183.600,103.795 183.600 C 104.128 183.600,104.400 183.420,104.400 183.200 C 104.400 182.980,105.109 182.800,105.976 182.800 C 106.843 182.800,107.664 182.620,107.800 182.400 C 109.084 180.322,115.600 183.946,115.600 186.738 C 115.600 187.212,115.780 187.600,116.000 187.600 C 116.262 187.600,116.400 195.467,116.400 210.400 L 116.400 233.200 123.593 233.200 L 130.785 233.200 130.951 213.700 C 131.042 202.975,131.207 193.434,131.318 192.498 C 131.428 191.563,131.357 190.697,131.159 190.575 C 130.962 190.453,130.800 188.934,130.800 187.200 C 130.800 185.466,130.620 183.936,130.400 183.800 C 130.180 183.664,130.000 183.023,130.000 182.376 C 130.000 181.729,129.820 181.200,129.600 181.200 C 129.380 181.200,129.200 180.907,129.200 180.549 C 129.200 180.190,127.693 178.390,125.851 176.549 C 124.010 174.707,122.210 173.200,121.851 173.200 C 121.493 173.200,121.199 173.065,121.197 172.900 C 121.192 172.457,119.179 171.600,118.144 171.600 C 117.651 171.600,117.136 171.420,117.000 171.200 C 116.862 170.977,115.004 170.800,112.800 170.800 C 110.596 170.800,108.738 170.977,108.600 171.200 M141.400 171.200 C 141.264 171.420,140.724 171.600,140.200 171.600 C 139.676 171.600,139.136 171.780,139.000 172.000 C 138.864 172.220,138.403 172.400,137.976 172.400 C 137.549 172.400,137.200 172.580,137.200 172.800 C 137.200 173.020,136.840 173.200,136.400 173.200 C 135.960 173.200,135.600 173.359,135.600 173.553 C 135.600 173.748,135.240 174.001,134.800 174.116 C 133.580 174.435,133.557 184.400,134.776 184.400 C 135.203 184.400,135.664 184.220,135.800 184.000 C 135.936 183.780,136.487 183.600,137.024 183.600 C 137.561 183.600,138.000 183.420,138.000 183.200 C 138.000 182.980,138.709 182.800,139.576 182.800 C 140.443 182.800,141.264 182.620,141.400 182.400 C 142.169 181.156,147.880 182.893,148.307 184.500 C 148.410 184.885,148.652 185.200,148.847 185.200 C 149.041 185.200,149.200 185.740,149.200 186.400 C 149.200 187.060,149.380 187.600,149.600 187.600 C 149.862 187.600,150.000 195.467,150.000 210.400 L 150.000 233.200 157.200 233.200 L 164.400 233.200 164.400 209.224 C 164.400 193.671,164.259 185.160,164.000 185.000 C 163.780 184.864,163.600 184.234,163.600 183.600 C 163.600 182.966,163.420 182.336,163.200 182.200 C 162.980 182.064,162.800 181.603,162.800 181.176 C 162.800 180.749,162.620 180.400,162.400 180.400 C 162.180 180.400,161.997 180.175,161.993 179.900 C 161.976 178.761,156.779 173.224,155.695 173.191 C 155.533 173.186,154.950 172.830,154.400 172.400 C 153.850 171.970,153.006 171.614,152.524 171.609 C 152.042 171.604,151.536 171.420,151.400 171.200 C 151.258 170.970,149.137 170.800,146.400 170.800 C 143.663 170.800,141.542 170.970,141.400 171.200 M187.800 171.200 C 187.664 171.420,187.023 171.600,186.376 171.600 C 185.729 171.600,185.200 171.780,185.200 172.000 C 185.200 172.220,184.947 172.400,184.638 172.400 C 183.905 172.400,180.819 174.003,179.825 174.900 C 179.398 175.285,178.891 175.600,178.697 175.600 C 178.229 175.600,172.400 181.577,172.400 182.058 C 172.400 182.264,172.040 182.820,171.600 183.292 C 171.160 183.764,170.800 184.387,170.800 184.675 C 170.800 184.964,170.620 185.200,170.400 185.200 C 170.180 185.200,170.000 185.560,170.000 186.000 C 170.000 186.440,169.820 186.800,169.600 186.800 C 169.380 186.800,169.200 187.149,169.200 187.576 C 169.200 188.003,169.020 188.464,168.800 188.600 C 168.580 188.736,168.400 189.276,168.400 189.800 C 168.400 190.324,168.220 190.864,168.000 191.000 C 167.780 191.136,167.600 191.651,167.600 192.144 C 167.600 192.637,167.436 193.211,167.235 193.420 C 166.488 194.199,165.720 205.480,166.370 206.130 C 166.607 206.367,166.800 207.503,166.800 208.656 C 166.800 209.809,166.980 210.864,167.200 211.000 C 167.420 211.136,167.600 211.689,167.600 212.229 C 167.600 212.769,167.759 213.523,167.953 213.905 C 168.148 214.287,168.529 215.140,168.800 215.800 C 169.072 216.460,169.554 217.450,169.872 218.000 C 170.189 218.550,170.549 219.315,170.671 219.700 C 170.793 220.085,171.052 220.400,171.247 220.400 C 171.441 220.400,171.600 220.636,171.600 220.925 C 171.600 221.213,171.960 221.836,172.400 222.308 C 172.840 222.780,173.200 223.304,173.200 223.472 C 173.200 223.944,177.720 228.400,178.199 228.400 C 178.432 228.400,178.883 228.760,179.200 229.200 C 179.517 229.640,180.097 230.000,180.488 230.000 C 180.880 230.000,181.200 230.180,181.200 230.400 C 181.200 230.620,181.560 230.800,182.000 230.800 C 182.440 230.800,182.800 230.980,182.800 231.200 C 182.800 231.420,183.160 231.600,183.600 231.600 C 184.040 231.600,184.400 231.780,184.400 232.000 C 184.400 232.220,184.839 232.400,185.376 232.400 C 185.913 232.400,186.464 232.580,186.600 232.800 C 186.736 233.020,187.557 233.200,188.424 233.200 C 189.291 233.200,190.000 233.380,190.000 233.600 C 190.000 233.847,192.059 234.000,195.376 234.000 C 198.529 234.000,200.855 233.835,201.000 233.600 C 201.136 233.380,201.946 233.200,202.800 233.200 C 203.654 233.200,204.464 233.020,204.600 232.800 C 204.736 232.580,205.287 232.400,205.824 232.400 C 206.361 232.400,206.800 232.220,206.800 232.000 C 206.800 231.780,207.160 231.600,207.600 231.600 C 208.040 231.600,208.400 231.420,208.400 231.200 C 208.400 230.980,208.720 230.800,209.112 230.800 C 209.503 230.800,210.083 230.440,210.400 230.000 C 210.717 229.560,211.162 229.198,211.388 229.196 C 211.615 229.193,212.655 228.403,213.700 227.439 C 216.219 225.116,216.271 223.341,213.900 220.645 C 213.515 220.207,213.200 219.613,213.200 219.325 C 213.200 219.036,213.064 218.800,212.898 218.800 C 212.731 218.800,212.356 218.260,212.064 217.600 C 211.685 216.743,211.256 216.400,210.563 216.400 C 210.029 216.400,209.028 216.940,208.337 217.600 C 207.646 218.260,206.838 218.800,206.541 218.800 C 206.243 218.800,206.000 218.980,206.000 219.200 C 206.000 219.420,205.728 219.600,205.395 219.600 C 205.062 219.600,204.432 219.780,203.995 220.000 C 203.558 220.220,202.842 220.580,202.405 220.800 C 201.968 221.020,201.079 221.200,200.429 221.200 C 199.779 221.200,199.136 221.380,199.000 221.600 C 198.864 221.820,197.503 222.000,195.976 222.000 C 194.392 222.000,193.200 221.828,193.200 221.600 C 193.200 221.380,192.480 221.200,191.600 221.200 C 190.720 221.200,190.000 221.020,190.000 220.800 C 190.000 220.580,189.640 220.400,189.200 220.400 C 188.760 220.400,188.400 220.250,188.400 220.068 C 188.400 219.885,187.905 219.480,187.300 219.168 C 185.912 218.453,182.800 215.249,182.800 214.536 C 182.800 214.241,182.620 214.000,182.400 214.000 C 182.180 214.000,182.000 213.640,182.000 213.200 C 182.000 212.760,181.820 212.400,181.600 212.400 C 181.380 212.400,181.200 211.860,181.200 211.200 C 181.200 210.540,181.020 210.000,180.800 210.000 C 180.580 210.000,180.400 209.111,180.400 208.024 C 180.400 206.937,180.220 205.936,180.000 205.800 C 179.780 205.664,179.600 204.404,179.600 203.000 C 179.600 201.596,179.780 200.336,180.000 200.200 C 180.220 200.064,180.400 198.973,180.400 197.776 C 180.400 196.579,180.580 195.600,180.800 195.600 C 181.020 195.600,181.200 195.060,181.200 194.400 C 181.200 193.740,181.380 193.200,181.600 193.200 C 181.820 193.200,182.004 192.795,182.009 192.300 C 182.014 191.805,182.370 190.950,182.800 190.400 C 183.230 189.850,183.586 189.263,183.591 189.097 C 183.619 188.136,188.350 183.600,189.325 183.600 C 189.608 183.600,190.011 183.434,190.220 183.231 C 190.429 183.028,191.140 182.803,191.800 182.731 L 193.000 182.600 193.111 176.700 L 193.221 170.800 190.634 170.800 C 189.211 170.800,187.936 170.980,187.800 171.200 M195.867 171.067 C 195.720 171.213,195.600 173.615,195.600 176.405 C 195.600 182.087,195.905 182.800,198.331 182.800 C 199.029 182.800,199.600 182.980,199.600 183.200 C 199.600 183.420,199.960 183.600,200.400 183.600 C 200.840 183.600,201.200 183.741,201.200 183.914 C 201.200 184.086,201.759 184.558,202.442 184.961 C 203.985 185.873,206.000 187.948,206.000 188.626 C 206.000 188.905,206.135 189.193,206.300 189.267 C 206.907 189.537,208.400 192.911,208.400 194.014 C 208.400 194.640,208.580 195.264,208.800 195.400 C 210.158 196.239,208.231 196.400,196.800 196.400 L 184.400 196.400 184.400 202.000 L 184.400 207.600 203.600 207.600 L 222.800 207.600 222.800 201.424 C 222.800 197.737,222.639 195.148,222.400 195.000 C 222.180 194.864,222.000 194.144,222.000 193.400 C 222.000 192.656,221.820 191.936,221.600 191.800 C 221.380 191.664,221.200 191.023,221.200 190.376 C 221.200 189.729,221.020 189.200,220.800 189.200 C 220.580 189.200,220.400 188.857,220.400 188.438 C 220.400 187.531,218.792 184.400,218.326 184.400 C 218.147 184.400,218.000 184.080,218.000 183.688 C 218.000 183.297,217.640 182.717,217.200 182.400 C 216.760 182.083,216.398 181.638,216.396 181.412 C 216.390 180.819,213.247 177.537,211.600 176.403 C 210.830 175.872,210.110 175.340,210.000 175.219 C 209.890 175.099,209.370 174.758,208.845 174.462 C 208.320 174.167,207.280 173.582,206.533 173.162 C 205.786 172.743,204.821 172.400,204.388 172.400 C 203.955 172.400,203.600 172.220,203.600 172.000 C 203.600 171.780,202.880 171.600,202.000 171.600 C 201.120 171.600,200.400 171.420,200.400 171.200 C 200.400 170.760,196.294 170.639,195.867 171.067 M285.470 171.064 C 285.321 171.212,285.200 173.913,285.200 177.067 L 285.200 182.800 301.020 182.800 L 316.841 182.800 315.720 184.300 C 315.104 185.125,314.372 186.041,314.094 186.335 C 313.816 186.629,313.096 187.524,312.494 188.324 C 311.892 189.124,310.725 190.502,309.900 191.387 C 309.075 192.272,308.400 193.149,308.400 193.337 C 308.400 193.525,307.898 194.156,307.285 194.740 C 306.671 195.323,305.735 196.430,305.204 197.200 C 304.672 197.970,303.951 198.870,303.600 199.200 C 303.249 199.530,302.528 200.430,301.997 201.200 C 301.467 201.970,300.352 203.320,299.521 204.200 C 298.689 205.080,298.007 205.935,298.004 206.100 C 298.002 206.264,297.280 207.141,296.400 208.048 C 295.520 208.955,294.800 209.873,294.800 210.088 C 294.800 210.303,294.298 210.956,293.685 211.540 C 293.071 212.123,292.127 213.230,291.588 214.000 C 291.048 214.770,289.930 216.119,289.103 216.998 C 288.276 217.877,287.600 218.749,287.600 218.937 C 287.600 219.125,287.060 219.783,286.400 220.400 L 285.200 221.521 285.200 227.360 L 285.200 233.200 309.200 233.200 L 333.200 233.200 333.200 227.680 C 333.200 223.920,333.047 222.007,332.720 221.680 C 332.364 221.324,328.347 221.200,317.120 221.200 C 307.307 221.200,302.000 221.060,302.000 220.800 C 302.000 220.580,302.141 220.400,302.314 220.400 C 302.486 220.400,302.930 219.889,303.299 219.263 C 303.668 218.638,304.785 217.243,305.781 216.163 C 306.777 215.084,307.593 214.047,307.596 213.860 C 307.598 213.674,308.102 213.044,308.715 212.460 C 309.329 211.877,310.267 210.770,310.800 210.000 C 311.333 209.230,312.233 208.150,312.800 207.600 C 313.367 207.050,314.268 205.970,314.802 205.200 C 315.337 204.430,316.007 203.559,316.293 203.265 C 316.578 202.971,317.304 202.076,317.906 201.276 C 318.508 200.476,319.675 199.098,320.500 198.213 C 321.325 197.328,322.000 196.451,322.000 196.263 C 322.000 196.075,322.502 195.444,323.115 194.860 C 323.729 194.277,324.665 193.170,325.196 192.400 C 325.728 191.630,326.449 190.730,326.800 190.400 C 327.151 190.070,327.878 189.170,328.416 188.400 C 328.954 187.630,330.070 186.281,330.897 185.402 C 331.724 184.523,332.400 183.578,332.400 183.302 C 332.400 183.026,332.585 182.800,332.811 182.800 C 333.078 182.800,333.183 180.741,333.111 176.900 L 333.000 171.000 309.370 170.897 C 296.373 170.840,285.618 170.915,285.470 171.064 M335.867 171.067 C 335.156 171.778,335.580 232.897,336.300 233.443 C 337.146 234.085,347.370 234.220,348.974 233.610 L 350.000 233.220 350.000 202.010 L 350.000 170.800 343.067 170.800 C 339.253 170.800,336.013 170.920,335.867 171.067 M372.600 171.200 C 372.464 171.420,371.823 171.600,371.176 171.600 C 370.529 171.600,370.000 171.780,370.000 172.000 C 370.000 172.220,369.561 172.400,369.024 172.400 C 368.487 172.400,367.936 172.580,367.800 172.800 C 367.664 173.020,367.203 173.200,366.776 173.200 C 366.349 173.200,366.000 173.380,366.000 173.600 C 366.000 173.820,365.764 174.000,365.475 174.000 C 365.187 174.000,364.564 174.360,364.092 174.800 C 363.620 175.240,363.051 175.600,362.828 175.600 C 362.279 175.600,357.200 180.811,357.200 181.375 C 357.200 181.622,356.840 182.083,356.400 182.400 C 355.960 182.717,355.600 183.297,355.600 183.688 C 355.600 184.080,355.465 184.401,355.300 184.403 C 354.941 184.407,354.000 186.344,354.000 187.080 C 354.000 187.366,353.820 187.600,353.600 187.600 C 353.380 187.600,353.200 187.949,353.200 188.376 C 353.200 188.803,353.020 189.264,352.800 189.400 C 352.580 189.536,352.400 190.166,352.400 190.800 C 352.400 191.434,352.220 192.064,352.000 192.200 C 351.780 192.336,351.600 193.146,351.600 194.000 C 351.600 194.854,351.420 195.664,351.200 195.800 C 350.961 195.948,350.800 198.537,350.800 202.224 C 350.800 206.075,350.951 208.400,351.200 208.400 C 351.420 208.400,351.600 209.300,351.600 210.400 C 351.600 211.500,351.780 212.400,352.000 212.400 C 352.220 212.400,352.400 212.852,352.400 213.405 C 352.400 213.958,352.580 214.768,352.800 215.205 C 353.020 215.642,353.380 216.358,353.600 216.795 C 353.820 217.232,354.000 217.862,354.000 218.195 C 354.000 218.528,354.180 218.800,354.400 218.800 C 354.620 218.800,354.800 219.160,354.800 219.600 C 354.800 220.040,354.980 220.400,355.200 220.400 C 355.420 220.400,355.600 220.636,355.600 220.925 C 355.600 221.213,355.960 221.836,356.400 222.308 C 356.840 222.780,357.200 223.330,357.200 223.530 C 357.200 224.009,361.428 228.400,361.890 228.400 C 362.088 228.400,362.650 228.773,363.139 229.229 C 364.333 230.341,368.294 232.400,369.241 232.400 C 369.658 232.400,370.000 232.580,370.000 232.800 C 370.000 233.020,370.709 233.200,371.576 233.200 C 372.443 233.200,373.264 233.380,373.400 233.600 C 373.536 233.820,374.627 234.000,375.824 234.000 L 378.000 234.000 378.000 228.144 C 378.000 221.816,377.810 221.243,375.700 221.213 C 375.205 221.206,374.800 221.020,374.800 220.800 C 374.800 220.580,374.544 220.400,374.232 220.400 C 373.492 220.400,370.000 216.908,370.000 216.168 C 370.000 215.856,369.865 215.599,369.700 215.597 C 369.341 215.593,368.400 213.656,368.400 212.920 C 368.400 212.634,368.220 212.400,368.000 212.400 C 367.780 212.400,367.600 211.860,367.600 211.200 C 367.600 210.540,367.420 210.000,367.200 210.000 C 366.980 210.000,366.800 209.111,366.800 208.024 C 366.800 206.937,366.620 205.936,366.400 205.800 C 366.179 205.664,366.000 203.870,366.000 201.800 C 366.000 199.730,366.179 197.936,366.400 197.800 C 366.620 197.664,366.800 196.753,366.800 195.776 C 366.800 194.799,366.980 194.000,367.200 194.000 C 367.420 194.000,367.600 193.561,367.600 193.024 C 367.600 192.487,367.780 191.936,368.000 191.800 C 368.220 191.664,368.400 191.203,368.400 190.776 C 368.400 190.349,368.580 190.000,368.800 190.000 C 369.020 190.000,369.200 189.737,369.200 189.416 C 369.200 188.615,374.129 183.600,374.917 183.600 C 375.267 183.600,375.664 183.420,375.800 183.200 C 375.936 182.980,376.487 182.800,377.024 182.800 L 378.000 182.800 378.000 176.800 L 378.000 170.800 375.424 170.800 C 374.007 170.800,372.736 170.980,372.600 171.200 M381.200 176.800 L 381.200 182.800 383.176 182.800 C 384.263 182.800,385.264 182.980,385.400 183.200 C 385.536 183.420,386.087 183.600,386.624 183.600 C 387.161 183.600,387.600 183.780,387.600 184.000 C 387.600 184.220,387.960 184.400,388.400 184.400 C 388.840 184.400,389.200 184.541,389.200 184.714 C 389.200 184.886,389.695 185.321,390.300 185.679 C 390.905 186.037,391.940 186.800,392.600 187.373 L 393.800 188.415 396.296 185.708 C 397.669 184.218,398.794 182.852,398.796 182.671 C 398.798 182.491,399.070 182.073,399.400 181.743 C 400.701 180.442,396.016 174.000,393.769 174.000 C 393.456 174.000,393.200 173.820,393.200 173.600 C 393.200 173.380,392.840 173.200,392.400 173.200 C 391.960 173.200,391.600 173.020,391.600 172.800 C 391.600 172.580,391.251 172.400,390.824 172.400 C 390.397 172.400,389.936 172.220,389.800 172.000 C 389.664 171.780,388.944 171.600,388.200 171.600 C 387.456 171.600,386.736 171.420,386.600 171.200 C 386.464 170.980,385.193 170.800,383.776 170.800 L 381.200 170.800 381.200 176.800 M225.467 173.467 C 225.019 173.914,225.150 213.522,225.600 213.800 C 225.820 213.936,226.000 215.196,226.000 216.600 C 226.000 218.004,226.180 219.264,226.400 219.400 C 226.620 219.536,226.800 220.177,226.800 220.824 C 226.800 221.471,226.980 222.000,227.200 222.000 C 227.420 222.000,227.600 222.360,227.600 222.800 C 227.600 223.240,227.780 223.600,228.000 223.600 C 228.220 223.600,228.400 223.877,228.400 224.216 C 228.400 225.005,234.212 230.800,235.003 230.800 C 235.331 230.800,235.600 230.950,235.600 231.133 C 235.600 231.589,240.338 234.000,241.233 234.000 C 241.629 234.000,242.064 234.180,242.200 234.400 C 242.344 234.633,244.596 234.800,247.600 234.800 C 250.604 234.800,252.856 234.633,253.000 234.400 C 253.136 234.180,253.766 234.000,254.400 234.000 C 255.034 234.000,255.664 233.820,255.800 233.600 C 255.936 233.380,256.487 233.200,257.024 233.200 C 257.561 233.200,258.000 233.020,258.000 232.800 C 258.000 232.580,258.439 232.400,258.976 232.400 C 259.513 232.400,260.064 232.220,260.200 232.000 C 260.336 231.780,260.797 231.600,261.224 231.600 C 261.949 231.600,262.000 231.285,262.000 226.800 L 262.000 222.000 260.824 222.000 C 260.177 222.000,259.536 222.180,259.400 222.400 C 259.264 222.620,258.454 222.800,257.600 222.800 C 256.746 222.800,255.936 222.980,255.800 223.200 C 255.664 223.420,253.943 223.600,251.976 223.600 C 249.859 223.600,248.400 223.437,248.400 223.200 C 248.400 222.980,248.128 222.800,247.795 222.800 C 246.097 222.800,242.800 219.525,242.800 217.838 C 242.800 217.487,242.620 217.200,242.400 217.200 C 242.180 217.200,242.000 216.401,242.000 215.424 C 242.000 214.447,241.820 213.536,241.600 213.400 C 241.342 213.241,241.200 206.063,241.200 193.176 L 241.200 173.200 233.467 173.200 C 229.213 173.200,225.613 173.320,225.467 173.467 M265.475 173.458 C 265.021 173.913,265.144 228.318,265.600 228.600 C 265.820 228.736,266.000 229.546,266.000 230.400 C 266.000 231.254,266.180 232.064,266.400 232.200 C 266.620 232.336,266.800 232.732,266.800 233.080 C 266.800 234.736,278.516 235.778,280.527 234.300 C 281.159 233.836,281.200 231.637,281.104 203.600 L 281.000 173.400 273.375 173.292 C 269.181 173.232,265.626 173.307,265.475 173.458 M392.000 217.200 C 391.450 217.630,390.775 217.986,390.500 217.991 C 390.225 217.996,390.000 218.159,390.000 218.353 C 390.000 218.548,389.685 218.807,389.300 218.929 C 388.915 219.051,388.060 219.459,387.400 219.836 C 385.299 221.035,384.838 221.200,383.577 221.200 C 381.381 221.200,381.200 221.731,381.200 228.171 L 381.200 234.000 383.200 234.000 C 384.300 234.000,385.200 233.820,385.200 233.600 C 385.200 233.380,385.832 233.200,386.605 233.200 C 387.378 233.200,388.323 233.035,388.705 232.834 C 389.087 232.632,390.067 232.178,390.881 231.824 C 391.696 231.470,392.596 230.954,392.881 230.677 C 393.167 230.400,394.030 229.736,394.800 229.200 C 397.811 227.106,400.233 222.800,398.400 222.800 C 398.180 222.800,398.000 222.564,398.000 222.275 C 398.000 221.987,397.640 221.364,397.200 220.892 C 396.760 220.420,396.400 219.880,396.400 219.692 C 396.400 219.504,396.076 219.002,395.680 218.575 C 395.284 218.149,394.839 217.485,394.692 217.100 C 394.343 216.184,393.247 216.225,392.000 217.200 " stroke="none" fill="#18d1c1" fill-rule="evenodd"></path><path id="path3" d="" stroke="none" fill="#00ff00" fill-rule="evenodd"></path><path id="path4" d="" stroke="none" fill="#00ffff" fill-rule="evenodd"></path></g></svg>