<?xml version="1.0" encoding="UTF-8" standalone="no"?>
<svg
   xmlns:dc="http://purl.org/dc/elements/1.1/"
   xmlns:cc="http://creativecommons.org/ns#"
   xmlns:rdf="http://www.w3.org/1999/02/22-rdf-syntax-ns#"
   xmlns:svg="http://www.w3.org/2000/svg"
   xmlns="http://www.w3.org/2000/svg"
   viewBox="0 0 826.23334 136.01067"
   height="136.01067"
   width="826.23334"
   xml:space="preserve"
   id="svg2"
   version="1.1"><metadata
     id="metadata8"><rdf:RDF><cc:Work
         rdf:about=""><dc:format>image/svg+xml</dc:format><dc:type
           rdf:resource="http://purl.org/dc/dcmitype/StillImage" /></cc:Work></rdf:RDF></metadata><defs
     id="defs6"><clipPath
       id="clipPath18"
       clipPathUnits="userSpaceOnUse"><path
         id="path16"
         d="M 0,102.008 H 619.675 V 0 H 0 Z" /></clipPath></defs><g
     transform="matrix(1.3333333,0,0,-1.3333333,0,136.01067)"
     id="g10"><g
       id="g12"><g
         clip-path="url(#clipPath18)"
         id="g14"><g
           transform="translate(165.9897,24.1621)"
           id="g20"><path
             id="path22"
             style="fill:#231916;fill-opacity:1;fill-rule:nonzero;stroke:none"
             d="m 0,0 c -18.144,0 -30.958,13.871 -30.958,26.726 0,12.855 12.814,26.726 30.958,26.726 18.144,0 30.958,-13.871 30.958,-26.726 C 30.958,13.871 18.144,0 0,0 m 0,67.227 c -25.503,0 -44.682,-16.959 -44.682,-40.501 0,-23.541 19.179,-40.5 44.682,-40.5 25.504,0 44.683,16.959 44.683,40.5 0,23.542 -19.179,40.501 -44.683,40.501" /></g><g
           transform="translate(270.5366,11.5781)"
           id="g24"><path
             id="path26"
             style="fill:#231916;fill-opacity:1;fill-rule:nonzero;stroke:none"
             d="m 0,0 c -17.44,0 -34.11,9.679 -34.11,27.363 v 51.251 h 13.02 V 28.826 c 0,-9.639 11.636,-15.909 21.09,-15.909 9.454,0 21.09,6.27 21.09,15.909 V 78.614 H 34.111 V 27.363 C 34.111,9.679 17.44,0 0,0" /></g><g
           transform="translate(53.8691,45.4873)"
           id="g28"><path
             id="path30"
             style="fill:#231916;fill-opacity:1;fill-rule:nonzero;stroke:none"
             d="M 0,0 25.45,43.991 H 40.147 V -32.475 H 27.599 v 54.51 L 0,-23.755 -27.599,22.035 v -54.51 h -12.547 v 76.466 h 14.696 z" /></g><g
           transform="translate(558.6548,13.0127)"
           id="g32"><path
             id="path34"
             style="fill:#231916;fill-opacity:1;fill-rule:nonzero;stroke:none"
             d="M 0,0 V 38.233 L -35.482,76.465 H -17.44 L 6.696,50.899 30.834,76.465 H 48.876 L 13.394,38.233 V 0 Z" /></g><g
           transform="translate(409.646,37.9834)"
           id="g36"><path
             id="path38"
             style="fill:#231916;fill-opacity:1;fill-rule:nonzero;stroke:none"
             d="m 0,0 c 0.596,-11.352 -10.393,-26.644 -35.244,-26.644 -27,0 -46.359,16.608 -46.359,16.608 L -72.757,0 c 9.435,-7.649 23.417,-13.977 36.56,-13.977 8.959,-0.125 22.221,3.464 22.221,11.47 0,3.346 -1.191,6.477 -5.676,8.526 -8.157,3.725 -25.377,3.175 -37.694,4.975 -13.059,1.908 -19.476,10.393 -19.476,20.429 0,16.965 21.863,22.697 38.232,22.101 12.905,-0.833 24.376,-5.255 34.412,-12.779 l -9.679,-9.441 c -8.245,5.018 -20.072,10.036 -31.185,9.917 -7.763,0 -17.923,-4.06 -18.399,-9.084 -0.477,-4.774 6.095,-7.881 11.709,-8.482 l 25.809,-2.982 C -13.976,19.238 -0.952,13.5 0,0" /></g><g
           transform="translate(510.6782,37.9834)"
           id="g40"><path
             id="path42"
             style="fill:#231916;fill-opacity:1;fill-rule:nonzero;stroke:none"
             d="m 0,0 c 0.595,-11.352 -10.394,-26.644 -35.245,-26.644 -27,0 -46.359,16.608 -46.359,16.608 L -72.758,0 c 9.435,-7.649 23.417,-13.977 36.561,-13.977 8.958,-0.125 22.22,3.464 22.22,11.47 0,3.346 -1.191,6.477 -5.676,8.526 -8.157,3.725 -25.377,3.175 -37.694,4.975 -13.058,1.908 -19.476,10.393 -19.476,20.429 0,16.965 21.863,22.697 38.232,22.101 12.905,-0.833 24.376,-5.255 34.412,-12.779 l -9.678,-9.441 c -8.246,5.018 -20.073,10.036 -31.186,9.917 -7.762,0 -17.923,-4.06 -18.399,-9.084 -0.476,-4.774 6.095,-7.881 11.709,-8.482 l 25.809,-2.982 C -13.977,19.238 -0.953,13.5 0,0" /></g></g></g></g></svg>