<?xml version="1.0" encoding="utf-8"?>
<!-- Generator: Adobe Illustrator 23.0.1, SVG Export Plug-In . SVG Version: 6.00 Build 0)  -->
<svg version="1.1" id="Ebene_1" xmlns="http://www.w3.org/2000/svg" xmlns:xlink="http://www.w3.org/1999/xlink" x="0px" y="0px"
	 viewBox="0 0 285 59" style="enable-background:new 0 0 285 59;" xml:space="preserve">
<style type="text/css">
	.st0{fill:#FFFFFF;}
</style>
<g>
	<path class="st0" d="M32.2,47.9h-6.1V36.6c0-0.7-0.1-1.2-0.2-1.5s-0.4-0.6-0.6-0.7c-0.3-0.1-0.6-0.2-1.1-0.2c-1,0-1.8,0.4-2.3,1.3
		v0.3v12.2h-6.1V36.6c0-0.7-0.1-1.2-0.2-1.6c-0.1-0.3-0.4-0.6-0.6-0.7c-0.3-0.1-0.6-0.2-1.1-0.2c-0.5,0-0.9,0.1-1.3,0.3
		c-0.4,0.2-0.7,0.6-1,1v12.4h-6V29.6h5.6l0.2,2.2c0.6-0.8,1.3-1.4,2.2-1.9c0.9-0.4,1.9-0.7,3-0.7c2.3,0,3.8,0.9,4.6,2.7
		c0.6-0.9,1.3-1.6,2.2-2s1.9-0.7,3.1-0.7c1.8,0,3.1,0.6,4.1,1.7c1,1.1,1.5,3,1.5,5.6V47.9z M74.8,59.2l-29.2-56H0l0,56l31.3,0
		l7.6-15.4l-4.7-14.1h6.5l2.2,6.5l3.4-6.5h6.5L37.7,59.2L74.8,59.2z"/>
	<path class="st0" d="M198.4,48.3H82.9l5.6,10.9h184l5.6-10.9h-63.6c-0.7,3.9-4,6.8-8.1,6.8S199,52.2,198.4,48.3"/>
	<path class="st0" d="M196.7,24.8l16.9-21.6h-14.5l-10.1,12.2l-9.5-12.2h-8.3v8.7l10.4,12.9l-17.3,21.6h15.3l9.5-12.2l9.2,11.8
		c0.4-4.1,3.9-7.3,8.2-7.3c0.5,0,0.9,0.1,1.4,0.1L196.7,24.8z"/>
	<path class="st0" d="M206.4,40.6c3.5,0,6.4,2.9,6.4,6.4c0,3.5-2.9,6.4-6.4,6.4c-3.5,0-6.4-2.9-6.4-6.4
		C200.1,43.4,202.9,40.6,206.4,40.6"/>
	<path class="st0" d="M224.3,31.2h11.4l-5.7-8.3L224.3,31.2z M207.4,35.2l22.6-32l30.4,43.3h-14.2l-4.7-6.7h-22.9l-3.4,5.3
		L207.4,35.2z"/>
	<polygon class="st0" points="248.5,3.2 248.5,26.3 262.6,46.4 279.1,46.4 284.8,35.5 261.8,35.5 261.8,3.2 	"/>
	<path class="st0" d="M169.4,25.8V3.2H157v23.7h0c0,4.9-4,8.8-8.9,8.8c-4.9,0-8.8-3.9-8.9-8.8h0V3.2h-7.8l-4.6,8.9v13.7h0
		c0,11.7,9.5,21.2,21.2,21.2C159.8,46.9,169.3,37.5,169.4,25.8L169.4,25.8z"/>
	<polygon class="st0" points="129.6,3.2 114.6,3.2 105.6,22.3 94.6,1.7 94.6,1.7 94.6,1.7 94.6,1.7 94.6,1.7 83.6,22.3 74.5,3.2 
		59.5,3.2 82.2,47 94.6,26.8 106.9,47 	"/>
</g>
</svg>
