<svg xmlns="http://www.w3.org/2000/svg" xmlns:xlink="http://www.w3.org/1999/xlink" viewBox="0 0 277 277">
  <defs>
    <path id="a" d="M-1408-69.8h750v421.6h-750z"/>
  </defs>
  <clipPath id="b">
    <use overflow="visible" xlink:href="#a"/>
  </clipPath>
  <path fill="#E1F4F0" d="M-255.3-258.7c0-17.2-31.6-16-25.8 3.4 0 0-30.5-13.6-31.4 17.3 0 0-16.3-13.6-39.9-8.9-23.8 8.8-22 24.4-18.6 32.2-21.5-4-58 15.8-49.1 62 0 0-35.9-20.8-46.8 20.2 0 0-69.8-50.6-106.6 27.5 0 0-53.4-25.3-77.9 11.9 0 0-29.4-38.5-92-5.2-23.3 12.3-27.4 52.5 4 54.2 0 0 20 6 49.8 16.8C-659.7-16.5-132 4.1-132 4.1L58.5-139.3S44-210.8-10.7-237.6s-107.7-1.2-107.7-1.2-1.7-40.7-49-29.1c0 0-22.5-33.8-61-17.7 0 0-25 12.8-26.9 27z" clip-path="url(#b)"/>
  <circle cx="138.5" cy="138.5" r="138.5" fill="#00535F"/>
  <defs>
    <circle id="c" cx="138.5" cy="138.5" r="138.5"/>
  </defs>
  <clipPath id="d">
    <use overflow="visible" xlink:href="#c"/>
  </clipPath>
  <g clip-path="url(#d)">
    <path fill="#EBE2D8" d="M42.2 66.4c-8.5 0-20.9-2.8-23.4-6.2-1-1.2-1.2-2.2-1-3 .6-1.5 2.7-2 4.8-2.6 1.5-.4 3-.8 3.5-1.5 1-1.4.2-2.8-.5-4.3-1-2-2-4.2 1.5-5.9.6-.3 1.5-.4 2.8-.4 7.1 0 25.4 4.9 29.8 10.5.9 1 1.2 2.2.9 3.2-.3 1.2-1.1 1.8-2.4 1.8-1 0-2.1-.3-3.3-.7-1-.4-2.2-.7-3-.7-.4 0-.8 0-1 .2-1.7.9-1.2 2-.6 3.3.6 1.3 1.2 2.7.2 4.1-1.4 1.8-5.3 2.2-8.3 2.2z"/>
    <path fill="#C4AE97" d="M29.9 42.8c8.7 0 32 6.9 30.4 13.3-.3 1.2-1 1.6-2 1.6-2 0-4.6-1.4-6.5-1.4-.4 0-.7 0-1 .2-3.6 2 1.5 4.8-.6 7.6-1 1.4-4.2 2-8 2-8.6 0-20.8-2.9-23.2-6-4-5.4 5.9-4.5 7.4-6.8 2.3-3.5-4.8-7.3.8-10.1.6-.3 1.5-.4 2.7-.4m0-.6c-1.4 0-2.3.1-3 .5-3.7 1.8-2.5 4.3-1.6 6.2.7 1.5 1.4 2.8.6 4-.4.7-2 1-3.4 1.4-2.1.6-4.4 1.2-5 2.8-.2 1 0 2 1 3.3 2.6 3.4 15.2 6.3 23.7 6.3 4.5 0 7.4-.8 8.5-2.3 1.2-1.6.5-3.1 0-4.4-.8-1.5-1-2.2.3-3l.8-.1c.9 0 2 .3 3 .7 1.2.3 2.4.7 3.4.7 1.4 0 2.4-.7 2.7-2 .3-1.2 0-2.3-1-3.5-4.4-5.7-22.8-10.6-30-10.6z"/>
    <path fill="#EBE2D8" d="M89.1 82.4c-8 0-21.4-3.6-24.8-10.2-.5-1.1-.7-2-.4-2.8.5-1.3 2-1.9 3.4-2.5 1.5-.6 3-1.3 3.6-2.6.4-1.2-.1-2.7-.6-4-.4-1.3-.8-2.5-.3-3.2.3-.4.8-.6 1.5-.6.6 0 1.3.2 2.2.4 4 1 8.5 4.3 12.5 7.3l4.1 3c4.3 2.8 8.3 7.8 7.3 11.4-.6 2.2-3 3.5-7.1 3.8H89z"/>
    <path fill="#C4AE97" d="M71.5 56.9c.6 0 1.2 0 2.2.3 5.4 1.3 12 7.2 16.5 10.2 6.3 4.1 12.4 14 .3 14.7H89c-7.6 0-21.1-3.4-24.5-10-2.6-5.2 5.3-4.2 6.5-7.7 1-3-3.2-7.5.4-7.5m0-.7c-.8 0-1.4.3-1.8.7-.5.9-.1 2 .3 3.5.5 1.3 1 2.7.6 3.8-.5 1.2-2 1.8-3.4 2.4-1.5.6-3 1.3-3.6 2.7-.3.8-.1 1.8.5 3 2 4 7 6.4 11 7.8a45.3 45.3 0 0 0 15.4 2.6c5.3-.3 7-2.4 7.4-4 1-3.7-3-9-7.4-11.8l-4.1-3a41 41 0 0 0-12.6-7.3 10 10 0 0 0-2.3-.4z"/>
    <path fill="#FFF" d="M54 50c3.7 3.4-5 2.8-7.4 6.3-4.2 6 4 11 5 6.6.3-1.6-3.3-3.5-2.4-5.3 1-2.4 4.6-.6 6.4-.4 8.4.7 2.9-4.9-1.6-7.3z" opacity=".5"/>
    <path fill="#CABDAE" stroke="#CABDAE" stroke-miterlimit="10" stroke-width=".3" d="M28.6 43c-7.4.7-.7 5.7-1.2 8.6-.5 3.3-6.7 2.7-8.6 4.8 8.8 3.5 12.9-9.2 18.1-12.9-2.7-.6-5.6-.8-8.3-.5z" opacity=".3"/>
    <path fill="none" d="M19 60c-4-5.3 5.9-4.4 7.4-6.7 2.3-3.5-4.8-7.3.8-10.1 4.6-2.3 35 5.6 33.1 12.9-1 4-7-1-9.5.4-3.6 2 1.5 4.8-.6 7.6-3.4 4.6-27.7.6-31.2-4z"/>
    <path fill="#CABDAE" stroke="#CABDAE" stroke-miterlimit="10" stroke-width=".3" d="M69.8 57.6c-1 2.6 2.5 4.9.8 7.7-1.4 2.4-4.3 1-5.7 3 0 .4 2 .5 2.3.5 3.3 0 3.5-1.4 5.4-3.5 1.9-2.2 1-3.7 4.7-4 2.1-.1 4.6 1.1 6.5 2-1.8-1-12.6-9.2-14-5.7z" opacity=".3"/>
    <path fill="#FFF" d="M94.3 70.2C96.6 78.4 89 81.6 82.1 81c3.2.7 9 2 12.2.6 5.3-2.2 3.6-8.4 0-11.5z" opacity=".5"/>
    <path fill="none" d="M64.6 72c-2.6-5 5.3-4 6.5-7.6 1.2-3.4-4.5-9 2.6-7.2 5.4 1.3 12 7.2 16.5 10.2 6.3 4.1 12.4 14 .3 14.7-7.3.4-22.3-3-25.9-10z"/>
    <path fill="#EBE2D8" d="M181.5 200a8 8 0 0 1-6.3-3.7 4.1 4.1 0 0 1-.3-4h-.1c-.6 0-1.2.5-1.9 1-.8.6-1.8 1.4-3.2 1.4-.5 0-1-.1-1.4-.3a10 10 0 0 1-4.2-3.7c-1-1.5 0-2.3.4-2.7.2-.2.5-.4.4-.5 0 0-.2-.5-1.9-1.3l-1 .2c-.8.2-1.8.5-2.6.5l-.7-.1c-2.6-1-3-3-3.6-4.9-.2-.9-.4-1.7-.8-2.5a34 34 0 0 0-4.1-4.6 32.5 32.5 0 0 1-3.1-3.2l-4-5.3-2.2-3.2c-3.4-4.5-8-10.2-14.6-14.2a83 83 0 0 0-13.3-5.8c-9.8-3.8-20-7.6-24.6-18.3a24.6 24.6 0 0 1 2-22c2.2-3.6 6.8-4.4 11.3-5.2 3.7-.7 7.6-1.4 10.1-3.7 2-1.8 2.9-4.2 3.8-6.6a21 21 0 0 1 2.7-5.4 22 22 0 0 1 11.3-7.8 32 32 0 0 1 9.7-1.6c18.4 0 32.8 16.2 39.6 30a241 241 0 0 1 12.4 33.5l.6 1.9c3.5 11 6.7 21.8 7.3 32.8.5 10-1.8 16.3-8.1 22l-2 2c-2 2-4.4 4.7-6.7 5.2h-.9zm-9.8-38.6c-.4 0-.8 0-1.2.3-1.3.7-1.7 2.3-1.2 4.1.5 2.2 2.3 4.5 4.3 4.5l1.2-.3c1.9-1 1.5-3.2 1.3-4-.5-2.3-2.4-4.6-4.4-4.6zm-24-69.4c-2.8 0-5.6 1.6-8.4 4.7-7.2 8.2-1.8 20.7 5.6 29.7 3.4 4 7 6.4 10.1 6.4 3.2 0 5.7-2.4 7.3-7 2.4-6.7-.5-20.3-5.9-28-2.7-3.8-5.7-5.8-8.8-5.8z"/>
    <path fill="#C4AE97" d="M139.3 72.8c17.4 0 32 14.9 39.3 29.9 5.5 11.2 9.3 23.4 13 35.3a132 132 0 0 1 7.3 32.8c.5 9-1.3 15.6-8 21.7-2.1 1.9-5.6 6.5-8.5 7.1a4 4 0 0 1-.9 0c-3.5 0-8.2-3.8-6.2-7.5h-.5c-1.6 0-2.8 2.3-5.1 2.3a4 4 0 0 1-1.3-.3 10 10 0 0 1-4-3.5c-2-3 3.7-2.2-1.3-4.7-.6 0-2.4.7-3.7.7a2 2 0 0 1-.6-.1c-3.5-1.2-3-4.8-4.3-7.2-1.5-2.7-5.2-5.3-7.2-7.9-2.2-2.7-4.1-5.7-6.2-8.5a51.3 51.3 0 0 0-14.7-14.2c-12.7-7.6-31-8.6-37.7-24-3-7-2-15.4 2-21.8s15.8-3.6 21.3-8.8c3.5-3.3 3.8-8.2 6.5-12 2.7-3.8 6.8-6.3 11.1-7.7a34 34 0 0 1 9.7-1.6m15.7 60.3c3 0 5.8-2 7.6-7.1 3.5-9.8-3.9-34.3-15-34.3-2.6 0-5.5 1.4-8.5 4.8-8 9-.8 22.4 5.6 30.1 3.2 3.9 7 6.5 10.3 6.5m18.6 37.5c.4 0 1-.1 1.4-.4 3.7-2 .4-9.2-3.3-9.2-.4 0-1 .2-1.4.4-3.6 2-.4 9.2 3.3 9.2m-34.3-98.4a30 30 0 0 0-9.8 1.6 22.3 22.3 0 0 0-11.5 7.9c-1.2 1.7-2 3.6-2.7 5.5-1 2.4-1.8 4.7-3.7 6.5-2.4 2.2-6.3 3-10 3.6-4.5.8-9.2 1.6-11.4 5.3-4.2 6.9-5 15.4-2 22.3 4.6 10.8 14.8 14.7 24.7 18.4 4.5 1.7 9.2 3.5 13.2 5.9a51.4 51.4 0 0 1 16.8 17.2l4 5.4c.8 1 2 2.2 3 3.2 1.6 1.5 3.2 3 4 4.6.5.7.7 1.5 1 2.4.4 2 1 4.1 3.7 5l.8.2c.8 0 1.8-.3 2.6-.5l1-.2 1.6 1-.2.2c-.6.5-1.7 1.4-.5 3.2.7 1.1 2.5 3.2 4.3 3.8l1.5.3c1.5 0 2.5-.8 3.4-1.5l1.3-.8c-.4 1.2-.2 2.5.5 3.7a8.4 8.4 0 0 0 6.6 3.9l1-.1c2.3-.5 4.9-3.2 6.9-5.3l1.9-2c6.4-5.7 8.7-12.2 8.2-22.2-.6-11-3.8-21.9-7.3-32.9l-.6-2a244.5 244.5 0 0 0-12.4-33.4c-6.8-14-21.4-30.2-39.9-30.2zm15.7 60.3c-3 0-6.6-2.3-9.9-6.3-7.3-8.9-12.7-21.3-5.6-29.3 2.7-3 5.5-4.6 8.1-4.6 3.8 0 6.7 3 8.6 5.6 5.3 7.7 8.2 21.2 5.8 27.9-1.6 4.4-4 6.7-7 6.7zm18.6 37.5c-1.8 0-3.5-2.2-4-4.2-.3-.9-.6-3 1-3.8.4-.2.7-.3 1.1-.3 1.8 0 3.6 2.2 4.1 4.3.2.8.5 2.8-1.1 3.7-.4.2-.7.3-1.1.3z"/>
    <path fill="#FFF" d="M123.4 77.8c27.4-6.3 44.3 12.2 55.5 35a234.6 234.6 0 0 1 19.4 56.8c-.8-13.2-5-26-9.2-38.4-4-12.3-8-24.7-14.7-35.9-9.6-15.9-33.4-30-51-17.5z" opacity=".5"/>
    <path fill="#CABDAE" stroke="#CABDAE" stroke-miterlimit="10" stroke-width=".2" d="M90.7 103c-5.2 8.5-5 19.5 1.5 27.3 6.4 7.8 16 10.7 25 14a48 48 0 0 1 21.8 15.8 210.8 210.8 0 0 0-36-38.1c-5.6-4.5-11.6-9.2-6.6-16.6 2.5-3.7 6.9-6.5 10.9-8.5-4.8 1.9-13.6 1.1-16.6 6z" opacity=".3"/>
  </g>
</svg>
