<svg xmlns="http://www.w3.org/2000/svg" viewBox="0 0 1024 1024"><defs><style>.cls-1{fill:#fafafa;}</style></defs><title>nhm_logo</title><g id="Logo_White" data-name="Logo White"><path class="cls-1" d="M183.73,700.68s9.19,11.48,24.63,29.95l75.21-156.88a25,25,0,0,1,40.18-6.91L511,753.19,706.52,540.33,566.93,475.06c-35.77,29.91-56.67,59.82-56.67,59.82s-69.91-125-199.17-125-172.62,99.1-172.62,172.62S183.73,700.68,183.73,700.68Z"/><path class="cls-1" d="M712.83,415.22c-36.54,0-69.74,11.3-98.21,26.95l144,67.32A25,25,0,0,1,766.41,549L530.19,806.18a25,25,0,0,1-17.85,8.08h-.56A25,25,0,0,1,494.15,807L313.43,627.11,243.84,772.26c76.86,88.5,207.08,227.57,266.41,227.57,87.06,0,329.44-295,329.44-295s45.84-52.45,45.84-118C885.54,501,831.77,415.22,712.83,415.22Z"/><circle class="cls-1" cx="315.75" cy="201.46" r="177.29"/><circle class="cls-1" cx="708.25" cy="201.46" r="177.29"/></g></svg>