<?xml version="1.0" encoding="UTF-8"?>
<svg xmlns="http://www.w3.org/2000/svg" xmlns:xlink="http://www.w3.org/1999/xlink" width="512" height="512" viewBox="0 0 58 57" version="1.1"><!-- Generator: Sketch 49.3 (51167) - http://www.bohemiancoding.com/sketch --><title>026 - Clone Drive</title><desc>Created with Sketch.</desc><defs/><g id="Page-1" stroke="none" stroke-width="1" fill="none" fill-rule="evenodd"><g id="026---Clone-Drive" fill-rule="nonzero"><rect id="Rectangle-path" fill="#41767F" x="22" y="6" width="36" height="34"/><path d="M36,14 L36,55 C36,55.5522847 35.5522847,56 35,56 L1,56 C0.448385439,55.9983854 0.00161463667,55.5516146 0,55 L0,14 L36,14 Z" id="Shape" fill="#67B9CC"/><path d="M35.9999997,11.9999999 L35.9999998,15.9999998 L-1.59934256e-07,15.9999998 L2.04577012e-16,11.9999999 C-0.000299847669,10.9390421 0.42103122,9.92145223 1.17124174,9.17124172 C1.92145225,8.42103122 2.93904212,7.99970015 3.99999996,8 L31.9999997,8 C33.0609576,7.99970015 34.0785474,8.42103122 34.8287579,9.17124172 C35.5789685,9.92145223 36.0002995,10.9390421 35.9999997,11.9999999 Z" id="Shape" fill="#BDC3C7"/><path d="M31,13 L30,13 C29.4477153,13 29,12.5522847 29,12 C29,11.4477153 29.4477153,11 30,11 L31,11 C31.5522847,11 32,11.4477153 32,12 C32,12.5522847 31.5522847,13 31,13 Z" id="Shape" fill="#ECF0F1"/><path d="M4,13 C3.93287116,12.9981781 3.8659626,12.9914939 3.7998,12.98 C3.73729013,12.9688813 3.67675128,12.9486455 3.62012,12.91994 C3.556155,12.8979809 3.49539799,12.867604 3.43945,12.82961 C3.38718051,12.7929053 3.33726576,12.7529568 3.29,12.71 C3.19963702,12.6143361 3.12836195,12.5023053 3.08,12.37992 C3.02875437,12.2597272 3.00157492,12.130652 3,12 C3.0034659,11.7351888 3.10707993,11.4815131 3.29,11.29 C3.57723247,11.0057932 4.00744236,10.922719 4.37984,11.07955 C4.50100335,11.1305229 4.6126407,11.2016826 4.71,11.29 C4.99845995,11.5760905 5.08516186,12.0082668 4.92937095,12.3834815 C4.77358004,12.7586962 4.40626507,13.0023626 4,13 Z" id="Shape" fill="#46B29D"/><path d="M7,13 C6.93287116,12.9981781 6.8659626,12.9914939 6.7998,12.98 C6.73729013,12.9688813 6.67675128,12.9486455 6.62012,12.91994 C6.556155,12.8979809 6.49539799,12.867604 6.43945,12.82961 C6.38718051,12.7929053 6.33726576,12.7529568 6.29,12.71 C6.10715711,12.5184369 6.00355603,12.2647929 6,12 C6.00161944,11.734817 6.1055012,11.4804858 6.29,11.29 C6.57768369,11.0066498 7.00734249,10.9236819 7.37984,11.07955 C7.50100335,11.1305229 7.6126407,11.2016826 7.71,11.29 C7.99845995,11.5760905 8.08516186,12.0082668 7.92937095,12.3834815 C7.77358004,12.7586962 7.40626507,13.0023626 7,13 Z" id="Shape" fill="#F29C1F"/><path d="M10,13 C9.73399928,13.0025856 9.47814031,12.8980593 9.29004051,12.7099595 C9.10194072,12.5218597 8.99741438,12.2660007 9,12 C9.00161944,11.734817 9.1055012,11.4804858 9.29,11.29 C9.69094624,10.9198721 10.3089738,10.9198721 10.70992,11.29 C10.8940654,11.4807229 10.9979111,11.7348955 11,12 C11.0025856,12.2660007 10.8980593,12.5218597 10.7099595,12.7099595 C10.5218597,12.8980593 10.2660007,13.0025856 10,13 Z" id="Shape" fill="#CC4B4C"/><path d="M57.9999997,3.99999992 L57.9999998,7.99999984 L21.9999998,7.99999984 L22,3.99999992 C21.9997002,2.93904209 22.4210312,1.92145223 23.1712417,1.17124172 C23.9214523,0.421031215 24.9390421,-0.000299847666 26,-4.23544645e-15 L53.9999997,-4.23544645e-15 C55.0609576,-0.000299847666 56.0785474,0.421031215 56.8287579,1.17124172 C57.5789685,1.92145223 58.0002995,2.93904209 57.9999997,3.99999992 Z" id="Shape" fill="#95A5A5"/><path d="M52,24 C52.0020797,25.1477939 51.8370147,26.2897743 51.51,27.39 C49.3153532,25.7027207 46.7275244,24.601517 43.99,24.19 C43.9983193,24.1270277 44.001663,24.0634977 44,24 C44,21.790861 42.209139,20 40,20 C37.790861,20 36,21.790861 36,24 L36,12.69 C37.2834528,12.23062 38.6368151,11.997165 40,12 C43.1828671,11.9991217 46.2356243,13.2631217 48.4862513,15.5137487 C50.7368783,17.7643757 52.0008783,20.8171329 52,24 Z" id="Shape" fill="#ECF0F1"/><path d="M29.63,29.04 C29.3155898,27.7910068 28.7987497,26.6019366 28.1,25.52 L28.1,25.51 C25.440974,21.380417 20.5331615,19.288985 15.7127912,20.2312723 C10.892421,21.1735596 7.13345553,24.9591758 6.22524662,29.7860828 C5.3170377,34.6129898 7.44309023,39.5059043 11.5913556,42.1356894 C15.7396209,44.7654744 21.0719362,44.6007783 25.05,41.72 C25.01,41.32 25,40.91 25,40.5 C24.996158,36.2236094 26.6566706,32.1135718 29.63,29.04 Z M18,36 C15.790861,36 14,34.209139 14,32 C14,29.790861 15.790861,28 18,28 C20.209139,28 22,29.790861 22,32 C22.0002892,33.0609546 21.5789547,34.0785383 20.8287465,34.8287465 C20.0785383,35.5789547 19.0609546,36.0002892 18,36 Z" id="Shape" fill="#ECF0F1"/><circle id="Oval" fill="#67B9CC" cx="18" cy="32" r="4"/><path d="M58,40.5 C58.0045631,47.4706478 53.6268461,53.6916897 47.0639703,56.0408627 C40.5010946,58.3900356 33.1699715,56.360158 28.75,50.97 C27.9939423,50.0559282 27.3431787,49.0596561 26.81,48 C25.8050128,46.0470974 25.2062922,43.9107535 25.05,41.72 C25.01,41.32 25,40.91 25,40.5 C25.0029676,33.5076758 29.4090791,27.2750308 36,24.94 C36.0348079,24.9241307 36.0719549,24.9139997 36.11,24.91 L36.11,24.9 C37.8444479,24.3036563 39.6658966,23.9995182 41.5,24 C42.3337294,23.9970866 43.1663652,24.0606211 43.99,24.19 C52.0439881,25.4262666 57.9927998,32.3516855 58,40.5 Z" id="Shape" fill="#BDC3C7"/><path d="M44,32 C43.9967543,33.1032223 43.1032223,33.9967543 42,34 L37,34 C36.4483991,34.0016474 36.0016474,34.4483991 36,35 L36,37 L39,37 L34,44 L29,37 L32,37 L32,35 C32.0009989,32.2389901 34.2389901,30.0009989 37,30 L42,30 C43.1032314,30.0032238 43.9967762,30.8967686 44,32 Z" id="Shape" fill="#14A085"/><path d="M54,44 L51,44 L51,46 C50.9990011,48.7610099 48.7610099,50.9990011 46,51 L41,51 C39.8954305,51 39,50.1045695 39,49 C39,47.8954305 39.8954305,47 41,47 L46,47 C46.5516009,46.9983526 46.9983526,46.5516009 47,46 L47,44 L44,44 L49,37 L54,44 Z" id="Shape" fill="#14A085"/><path d="M53,5 L52,5 C51.4477153,5 51,4.55228475 51,4 C51,3.44771525 51.4477153,3 52,3 L53,3 C53.5522847,3 54,3.44771525 54,4 C54,4.55228475 53.5522847,5 53,5 Z" id="Shape" fill="#BDC3C7"/><path d="M26,5 C25.9328712,4.99817811 25.8659626,4.99149394 25.7998,4.98 C25.7372901,4.96888131 25.6767513,4.94864554 25.62012,4.91994 C25.556155,4.89798086 25.495398,4.86760404 25.43945,4.82961 C25.3871805,4.79290528 25.3372658,4.75295678 25.29,4.71 C25.199637,4.61433614 25.128362,4.50230531 25.08,4.37992 C25.0287544,4.25972721 25.0015749,4.13065198 25,4 C25.0034659,3.73518877 25.1070799,3.48151305 25.29,3.29 C25.5772325,3.00579324 26.0074424,2.92271896 26.37984,3.07955 C26.5010034,3.13052292 26.6126407,3.2016826 26.71,3.29 C27.0967201,3.68431326 27.0967201,4.31560674 26.71,4.70992 C26.5181493,4.89232865 26.2646935,4.99588139 26,5 Z" id="Shape" fill="#14A085"/><path d="M29,5 C28.9328712,4.99817811 28.8659626,4.99149394 28.7998,4.98 C28.7372901,4.96888131 28.6767513,4.94864554 28.62012,4.91994 C28.556155,4.89798086 28.495398,4.86760404 28.43945,4.82961 C28.3871805,4.79290528 28.3372658,4.75295678 28.29,4.71 C28.1071571,4.51843693 28.003556,4.26479291 28,4 C28.0016194,3.734817 28.1055012,3.4804858 28.29,3.29 C28.5776837,3.00664978 29.0073425,2.92368191 29.37984,3.07955 C29.5010034,3.13052292 29.6126407,3.2016826 29.71,3.29 C30.0967201,3.68431326 30.0967201,4.31560674 29.71,4.70992 C29.5181493,4.89232865 29.2646935,4.99588139 29,5 Z" id="Shape" fill="#F0C419"/><path d="M32,5 C31.7339993,5.00258562 31.4781403,4.89805928 31.2900405,4.70995949 C31.1019407,4.52185969 30.9974144,4.26600072 31,4 C31.0016194,3.734817 31.1055012,3.4804858 31.29,3.29 C31.6909462,2.91987206 32.3089738,2.91987206 32.70992,3.29 C32.8940654,3.48072289 32.9979111,3.73489549 33,4 C33.0025856,4.26600072 32.8980593,4.52185969 32.7099595,4.70995949 C32.5218597,4.89805928 32.2660007,5.00258562 32,5 Z" id="Shape" fill="#CC4B4C"/></g></g></svg>
