<svg version="1.1" xmlns="http://www.w3.org/2000/svg" width="512" height="512" viewBox="0 0 512 512">
<title>ominidi.org</title>
<path d="M0 256v256h512v-512h-512v256zM77.35 213.25c19.7 3.2 31.6 16.3 33.65 37.15 1.65 16.4-3.9 32.3-14.2 40.65-11.35 9.2-29.75 12-45.4 6.95-10.65-3.4-19.050-11.2-23.2-21.4-3.85-9.6-4.75-23.55-2.2-34.1 2.7-11.1 9.5-20 18.95-24.95 3.9-2 9.4-3.85 9.9-3.35 0.2 0.15 0.050 0.3-0.3 0.3-0.6 0-2.9 1.45-4.8 3.050-0.55 0.5-2.2 0.95-3.65 1.1-1.4 0.15-3.15 0.6-3.85 1.050-1.050 0.7-1.15 0.95-0.65 1.8 0.5 0.75 0.5 1.1 0 1.6-0.55 0.55-0.8 0.45-1.4-0.35-0.7-0.9-0.8-0.85-3.2 1.5-2.65 2.6-3 3.25-1.7 3.25 1.6 0 0.5 1.75-1.2 1.9-1.35 0.15-1.85 0.55-3.1 2.75-1 1.75-1.5 3.3-1.5 4.7 0 1.45-0.3 2.4-0.95 3-0.55 0.5-1.1 1.7-1.3 2.75-0.4 2.2 0.4 2.8 3.5 2.7 1.45-0.050 2.050-0.35 2.15-0.95 0.25-1.15 0.7-1.050 2 0.3 0.65 0.7 1.050 1.7 1 2.4-0.2 1.8 2.050 1.95 3.65 0.25 1.55-1.65 1.75-1.6 2.4 0.2 0.95 2.8 2.15 1.25 2.25-2.95l0.050-1.8h-3.4c-1.85 0-3.35-0.1-3.4-0.25 0-0.15-0.1-1.75-0.2-3.65-0.15-3.4-0.050-3.55 1.85-3.4 0.45 0.050 0.95-0.15 1.15-0.45 0.55-0.95 1.75-0.55 1.75 0.6 0 1.5 0.55 2.25 1.75 2.45 0.7 0.15 1.1 0.75 1.3 1.95l0.3 1.75 0.6-1.45c0.4-1 0.45-1.6 0.050-2-0.8-0.8-0.6-1.4 0.5-1.2 0.6 0.1 1.4-0.45 2.2-1.55 1.5-2 1.2-2.85-1.4-4.25l-1.8-0.95-1.5 1.4c-1.4 1.35-1.5 1.4-1.5 0.35 0-1.2-0.85-1.9-2.1-1.7-0.6 0.1-1.1-0.45-1.65-1.7-0.9-2.2-0.9-2.2-0.1-2.2 0.35 0 1.15-0.35 1.8-0.8 0.8-0.6 2.5-0.85 6.050-0.95 4.35-0.15 5.1-0.3 6.95-1.5 1.1-0.75 2.050-1.55 2.050-1.75s0.6-1.050 1.4-1.85c1.75-1.95 3.25-4.1 3.75-5.3 0.35-0.9 0.15-0.95-2.5-0.65-3.45 0.35-3 0 0.85-0.65 4.4-0.7 13.35-0.6 18.35 0.2zM147.9 214.1c0.6 0.8 14.55 44.35 16.8 52.6 0.9 3.25 1.8 5.75 1.95 5.5s0.6-1.85 1.050-3.55c1.35-5.15 16.8-54.35 17.25-54.8 0.2-0.2 5.85-0.3 12.6-0.25l12.2 0.15v85.5h-17l-0.3-60-2.15 7.25c-2.7 9.1-16.25 50.95-16.85 52.1-0.45 0.8-1.3 0.9-7.2 0.9-3.65 0-6.8-0.2-6.95-0.4-0.5-0.8-15.25-46.9-17.1-53.35-1-3.6-1.85-6.55-1.9-6.6 0-0.050 0 13.2 0.1 29.4 0.15 22.5 0.050 29.65-0.4 30.2-0.8 1-15.95 1.1-16.9 0.15-0.45-0.45-0.6-10.6-0.6-42.65 0-23.15 0.15-42.25 0.35-42.4 0.15-0.2 5.75-0.35 12.4-0.35 9.1 0 12.25 0.15 12.65 0.6zM243.4 214.1c0.85 0.85 0.85 83.95 0 84.8-0.4 0.4-3.2 0.6-9.4 0.6s-9-0.2-9.4-0.6c-0.45-0.45-0.6-10.6-0.6-42.65 0-23.15 0.15-42.25 0.35-42.4 0.6-0.65 18.4-0.4 19.050 0.25zM296.75 244c9.55 16.8 17.25 30.65 17.1 30.8s-2.9-4.4-6.1-10.15c-3.25-5.7-6.3-11.1-6.8-11.9l-0.95-1.5v1.5c0 0.85-0.25 1.8-0.6 2.15-0.45 0.45-0.45 0.85 0.1 1.8 0.35 0.7 0.45 1.6 0.25 2.15-0.2 0.5-0.5 2.35-0.7 4.15-0.2 2.4-0.5 3.25-1.050 3.25-0.6 0-0.75-0.7-0.8-3.050-0.050-3.65-0.35-4.3-2-3.9-1.050 0.25-1.3 0.050-1.95-1.6-1.2-3.050-1.45-3.35-3.95-4.8-1.65-1-2.75-1.3-3.6-1.1-1.4 0.35-1.35 0.3-0.65 1.85 0.45 0.95 0.9 1.2 2.15 1.15l1.55-0.050v2.75c0.050 1.5 0.3 3.25 0.65 3.9l0.65 1.15 1.5-1.1c1.7-1.2 2.55-1.050 3.75 0.75 1.15 1.8 0.6 2.95-1.25 2.55-2.8-0.6-2.65 2 0.2 3.7 1.5 0.85 1.75 1.3 1.75 2.85 0 1.8 0.8 3.35 10.5 20.55 2.65 4.65 3.4 5.6 4.6 5.85 0.75 0.15 1.7 0.15 2.050 0.050 0.9-0.4 1.8-4.65 1.5-7.35-0.35-3.15 0.1-4.9 1.35-4.9 1.65 0 2.65 2.7 2.3 6.1-0.4 3.9 0.050 5.9 1.35 5.9 0.95 0 0.95-0.2 0.65-4.35-0.2-2.4-0.6-4.7-0.9-5.050-0.35-0.4-0.6-3.6-0.6-8.3-0.050-6.3-0.25-7.85-0.95-8.95-0.9-1.4-0.8-3.2 0.45-6.55 0.4-1.050 0.65-2.050 0.5-2.15-0.25-0.25-1.8 3.1-1.8 3.85 0 0.2-0.35 0.5-0.75 0.7-1.050 0.4-1 5.35 0.050 7.4 0.85 1.6 0.6 4.9-0.35 4.9-0.6 0-1.5-2.2-1.8-4.25-0.1-0.85-0.3-14.65-0.5-30.75-0.25-25.7-0.2-29.35 0.5-29.9 0.55-0.45 2.95-0.6 8.9-0.5l8.2 0.15v85.5l-11.050 0.15-11.050 0.1-16.2-28.6c-8.9-15.75-16.5-29.25-16.95-29.95-0.7-1.2-0.75 1.4-0.55 27.9 0.1 22.55 0 29.35-0.45 29.9-0.8 1-15.95 1.1-16.9 0.15-0.45-0.45-0.6-10.6-0.6-42.65 0-23.15 0.15-42.25 0.35-42.4 0.15-0.2 5.1-0.35 10.9-0.35h10.65l17.35 30.5zM364.9 214.1c0.85 0.85 0.85 83.95 0 84.8-0.4 0.4-3.2 0.6-9.4 0.6s-9-0.2-9.4-0.6c-0.45-0.45-0.6-10.6-0.6-42.65 0-23.15 0.15-42.25 0.35-42.4 0.6-0.65 18.4-0.4 19.050 0.25zM420 214c15.65 2.050 26.65 9.25 32.3 21.15 3.15 6.7 3.85 10.45 3.85 20.6 0 8.1-0.1 9.45-1.3 13.85-2 7.6-5.2 13.3-10.35 18.45-3.55 3.55-5.050 4.7-9 6.6-8.9 4.4-9.75 4.5-33.65 4.75-15.7 0.1-21.1 0-21.65-0.45-0.6-0.5-0.7-6.7-0.7-42.7 0-23.15 0.15-42.25 0.35-42.4 0.5-0.55 35.95-0.4 40.15 0.15zM486.9 214.1c0.85 0.85 0.85 83.95 0 84.8-0.4 0.4-3.2 0.6-9.4 0.6s-9-0.2-9.4-0.6c-0.45-0.45-0.6-10.6-0.6-42.65 0-23.15 0.15-42.25 0.35-42.4 0.6-0.65 18.4-0.4 19.050 0.25z"></path>
<path d="M69.5 213.45c0 0.3 0.45 1 1 1.55 1.45 1.45 1.3 3-0.2 3-0.7 0-1.35-0.2-1.55-0.45-0.35-0.6-3.2-2.050-3.95-2.050-0.25 0 0.35 0.8 1.35 1.75s1.85 2.1 1.85 2.5c0 1.1-1.7 0.9-2.75-0.25-0.95-1.050-2.75-1.35-2.75-0.5 0 0.35-0.35 0.35-1 0-1.15-0.6-3-0.25-3 0.6 0 0.3 0.55 1.050 1.25 1.7 1.65 1.55 1.6 3-0.3 4.75-0.9 0.8-1.45 1.6-1.3 1.75s1.95-0.1 4.050-0.5c4.7-1 7.3-1 11.75-0.050 6.1 1.25 11.5 5.2 14.6 10.65 0.7 1.2 1.55 2.1 2.1 2.1 0.5 0 0.85 0.4 0.85 1 0 0.55-0.2 1-0.5 1-0.25 0-0.050 1.050 0.45 2.35 0.5 1.35 0.8 3.1 0.7 3.95-0.15 0.9 0 1.75 0.3 1.9 0.35 0.2 0.55-0.050 0.55-0.6 0-0.5 0.45-1.35 0.95-1.8 0.7-0.65 0.9-1.3 0.7-2.5-0.15-1.1 0.1-2.35 0.85-3.8 0.95-1.8 1-2.3 0.45-3.3-1.35-2.6 2.3-3.85 3.9-1.35 0.45 0.8 0.95 1.5 1.050 1.65s1.65 0.25 3.4 0.25c3.35 0 3.75-0.3 2.7-2.3-0.3-0.5-1-0.95-1.5-0.95-0.55 0-1-0.25-1-0.5 0-0.3 0.35-0.5 0.75-0.5 0.9 0 0.9-0.25 0.25-1.45-0.35-0.7-1-0.9-2.65-0.85-1.15 0.050-2.4 0.3-2.75 0.5-0.3 0.2-1 0.15-1.45-0.15-0.65-0.35-1.15-0.25-1.8 0.3-0.65 0.65-1 0.7-1.45 0.25-0.35-0.35-1.050-0.6-1.55-0.6-0.55 0-1.75-0.45-2.65-1.050-1.35-0.85-2.35-1-4.8-0.85-3.65 0.2-4.25-0.5-1.65-2.050 2.3-1.35 5.7-1.4 7.8-0.1 1.25 0.75 1.8 0.85 2.75 0.45 0.85-0.4 1.35-0.4 1.95 0.1 0.4 0.35 1.1 0.5 1.5 0.3 0.45-0.15 1.2-0.050 1.7 0.3 0.5 0.3 1.3 0.4 1.8 0.2 0.8-0.3 0.8-0.4 0.15-1.4-0.45-0.65-1.4-1.5-2.2-1.95-0.8-0.4-1.5-1.25-1.6-1.85-0.2-1.15-3.15-3.75-6.7-5.8-2.050-1.2-2.3-1.25-2.050-0.4 0.2 0.8-0.15 1-2.1 1.25-2.9 0.4-3.4 0.15-3-1.6 0.25-1.15 0.050-1.45-1-1.95-1.6-0.75-2.45-0.35-2.1 1 0.25 0.85 0.050 0.95-2.050 0.8-1.95-0.1-2.4-0.35-2.5-1.2-0.25-1.8-2.15-3.1-4.95-3.5-1.85-0.2-2.65-0.15-2.65 0.25z"></path>
<path d="M62 229.050c-8.2 1.6-14.6 8.35-16.8 17.8-1.050 4.5-1.050 14.3 0 18.8 2.7 11.55 11.4 18.85 22.5 18.85 11.55 0 19.85-6.75 22.6-18.35 1.1-4.6 1.1-14.8 0-19.3-3.25-13.6-14.3-20.55-28.3-17.8z"></path>
<path d="M26.65 250.85c-0.8 0.3-0.85 1.75-0.1 2.5 0.4 0.4 0.4 0.85 0 1.5-0.35 0.7-0.35 1.15 0.050 1.55 0.45 0.45 0.4 0.9-0.1 1.85-0.55 1.050-0.6 2.1-0.15 5.55 0.65 5.3 1.1 5.9 3.1 3.8 1.45-1.6 2.25-1.95 2.75-1.2 0.5 0.85-0.35 2.6-1.25 2.6-1.35 0-1.2 1.25 0.3 2.2 1.65 1.1 3.6 0.2 4.15-1.9 0.3-1.2 0.7-1.6 1.8-1.7 1.25-0.15 1.4-0.050 1.15 0.95-0.4 1.45 0.45 2.95 1.65 2.95 1 0 2 1.35 2 2.75 0 1 3.25 7.55 4.25 8.55 0.4 0.45 0.75 1.1 0.75 1.5 0 1.4-1.95 0.65-3.65-1.35-1.75-2-4.7-4.45-5.4-4.45-0.25 0-1 0.5-1.75 1.15-1.9 1.65-2.050 4.050-0.4 6.2 1.5 2 2.3 2.050 3.6 0.4 0.55-0.7 1.3-1.25 1.7-1.25s1.25 0.55 1.9 1.25c0.65 0.7 1.55 1.25 2.050 1.25 1.050 0 1.5 1.1 0.9 2.050-0.25 0.4-0.45 1.15-0.45 1.65 0 0.95 0.050 0.95 1.050-0.1 0.55-0.6 1.2-1 1.45-0.85s0.8-0.4 1.25-1.25c0.75-1.4 0.95-1.55 2.4-1.2 1.65 0.35 2.5 1.1 2 1.85-0.15 0.25 0.050 1 0.4 1.7 0.55 1 0.55 1.3-0.050 1.65-0.55 0.35-0.6 0.7-0.15 1.6 0.3 0.65 0.7 1.55 0.85 2 0.15 0.55 0.75 0.9 1.55 0.9 1.45 0 1.55-0.35 0.45-1.95-1.2-1.7-0.25-2.4 1.95-1.4 1.85 0.9 3.75 1.050 7.45 0.55 1.9-0.25 2.5-0.1 3.35 0.75 0.6 0.6 1.050 1.5 1.050 2.050 0 1.5 1.8 1.3 2.2-0.3 0.3-1.2 0.45-1.25 2.65-0.9 2.15 0.3 2.3 0.25 1.9-0.6-0.8-1.95-0.8-2.55-0.050-3.15 0.6-0.5 0.9-0.45 1.75 0.4 0.6 0.6 1.050 1.6 1.050 2.25 0 0.7 0.25 1.4 0.5 1.55 0.3 0.15 0.5-0.2 0.5-0.9 0-1.8 1.25-2.7 2.4-1.75 1.5 1.3 2.65 1.45 4.85 0.45 3.5-1.55 10.9-6.85 8.050-5.75-1.6 0.6-7.3-3.35-7.3-5 0-0.4-0.3-0.8-0.7-0.95s-0.85-1.050-1.050-1.95c-0.7-3.55-0.55-3.5-4-0.9-4.15 3.15-7.9 4.5-13.25 4.85-5.25 0.35-9.3-0.4-13.3-2.35-7.85-3.85-13.15-13.95-13.2-25.1 0-3.9-0.55-5.2-1.45-3.5-0.7 1.3-3.95 1.85-5.050 0.85-0.5-0.45-1-0.55-1.3-0.3-0.25 0.25-1.050 0.35-1.8 0.2-1.1-0.2-1.4-0.55-1.4-1.55 0-1.2 0-1.25-1-0.35-0.55 0.5-1 1.2-1 1.6 0 0.45-0.4 0.65-1.1 0.55-0.95-0.1-1.15-0.45-1.15-2.1 0-1.95-0.4-2.45-1.6-1.95z"></path>
<path d="M92.5 255.35c0 4.8-0.8 9.7-2.3 14.7-1.2 3.9-1.3 4.8-0.95 8.7l0.35 4.3 1.3-0.25c2.3-0.45 10.3-0.55 10.95-0.15 0.7 0.45 1.4-2.6 2.35-9.9 0.55-3.95 1.050-5.75 2.5-8.65 1.95-3.75 2.6-4.35 2.9-2.5 0.15 0.65 0.2-0.5 0.2-2.55-0.050-4 0.1-3.75-3.7-5.35-1.95-0.8-2.5-0.8-5.25-0.2-1.7 0.35-3.55 0.75-4.15 0.85-0.65 0.15-1.65-0.3-2.6-1.1l-1.6-1.35v3.45z"></path>
<path d="M126.050 214.7c-0.55 0.7-0.45 5.3 0.2 6.9 0.15 0.45 0.5 2.35 0.65 4.2 0.2 1.85 0.6 3.45 0.85 3.55 0.3 0.1 1.050-0.5 1.65-1.35 0.95-1.25 1-1.65 0.5-2.45-0.7-1.2 0.25-4.55 1.7-5.85 0.65-0.6 0.9-1.55 0.9-3.3v-2.4h-2.95c-1.85 0-3.15 0.25-3.5 0.7z"></path>
<path d="M202.75 214.6c-0.1 0.35-0.3 2.15-0.5 3.95-0.35 3.6-1.050 4.65-4.85 6.9-1.050 0.65-1.9 1.35-1.9 1.6 0 0.65 1.4 0 1.7-0.85 0.65-1.65 3.65-0.4 4.45 1.9 0.15 0.45 1.35 1.3 2.7 1.9 1.3 0.55 2.75 1.4 3.25 1.85 0.85 0.75 0.9 0.4 0.9-8.5v-9.35h-2.75c-1.8 0-2.85 0.2-3 0.6z"></path>
<path d="M192.1 228.6c-0.35 0.35-0.6 0.9-0.6 1.25s-0.4 1-0.95 1.5c-0.5 0.5-1.050 1.75-1.25 2.75-0.35 1.85-1.35 2.5-2.050 1.4-0.15-0.3-0.95-0.5-1.7-0.5-0.8 0-2-0.45-2.7-1-1-0.8-1.55-0.9-2.55-0.5-1.75 0.65-1.65 1.5 0.1 1.5 1 0 1.6 0.35 1.95 1.050 0.4 0.9 0.9 1.1 3.15 1.15l2.75 0.050 0.3 2c0.4 2.4 0.15 3.1-1.2 3.55-0.75 0.25-1.3 0-2.15-1.050-0.95-1.2-1.2-1.25-2.1-0.7-0.9 0.6-1.2 0.5-2.25-0.45-1.2-1.15-3.35-1.5-3.35-0.55 0 0.3 0.8 1.5 1.75 2.65 0.95 1.2 1.75 2.6 1.75 3.1 0 1.35 0.75 2.35 1.55 2.1 0.4-0.15 1.050 0.25 1.5 0.8 0.7 0.85 0.95 0.9 1.6 0.4 0.4-0.35 1.1-0.5 1.5-0.3 0.6 0.2 1-0.35 1.6-2.65 0.45-1.6 1.15-3.9 1.5-5.15 0.4-1.25 1.2-4.3 1.8-6.75 0.55-2.5 1.25-4.7 1.5-5 1.1-1.15-0.3-1.8-1.45-0.65z"></path>
<path d="M144.65 237.25c-0.2 0.6 0 1.15 0.55 1.55 0.6 0.4 0.8 0.95 0.55 1.65-0.4 1.35-1.050 1.35-1.4 0-0.15-0.6-0.5-0.9-0.8-0.7-0.9 0.55-0.6 2.45 0.5 3.45 0.95 0.8 1.050 1.25 0.75 3.6-0.35 2.9 0.25 5.4 3.3 14.7 1.7 5.2 2.7 6.55 2.15 2.85-0.25-1.65-0.15-2.3 0.45-2.8 1.25-1.050 1.55 0.55 0.8 4.55-0.7 3.9-0.15 5.9 1.55 5.9 0.5 0 1.45 0.55 2.15 1.25 1.25 1.25 3.3 1.7 3.3 0.75 0-0.3 0.35-0.5 0.75-0.5 0.95 0 0.95 0.45-0.1 1.6-0.75 0.85-0.75 0.95 0 1.8 0.5 0.5 0.85 1.5 0.85 2.2 0 0.65 0.7 2.6 1.5 4.3 0.85 1.7 1.5 3.35 1.5 3.65 0 0.25 0.2 0.4 0.45 0.25s0.6-1.5 0.8-3.050c0.15-1.5 0.5-2.85 0.75-3 0.55-0.35 2-3.25 2-4 0-0.35-0.35-0.75-0.75-0.95-0.4-0.15-0.75-0.55-0.75-0.9-0.050-0.35-0.55-1.3-1.2-2.1-0.9-1.1-1.5-1.4-2.5-1.2-1.55 0.3-2.8-1.3-2.8-3.6 0-1.85 0.75-1.9 3-0.25 0.95 0.7 1.8 1.050 1.9 0.8 0.35-1-2.050-8.7-2.95-9.45-0.65-0.55-0.8-1.2-0.6-2.2 0.15-0.85 0.050-1.4-0.25-1.4-1 0-1.7 2.1-1.4 4 0.2 1.35 0.1 2.050-0.45 2.5-0.95 0.75-0.95 1.95 0 3.15 0.6 0.8 0.55 1.15-0.15 2.45-0.9 1.5-3.35 3.35-3.85 2.8-0.3-0.3 0.45-7.3 1.25-11.4 0.4-2.050 0.3-2.4-1.1-4.1l-1.5-1.9h1.5c0.8 0 1.75 0.35 2.1 0.75 0.8 0.95 2.45 0.95 2.8 0.050 0.15-0.4-0.2-2.050-0.75-3.65s-1.5-4.5-2.1-6.5c-0.7-2.4-1.3-3.5-1.7-3.35-0.35 0.15-1.35-0.6-2.2-1.65-1.25-1.55-1.95-1.9-3.45-2-1-0.050-2.35-0.25-2.95-0.4-0.85-0.25-1.25-0.15-1.5 0.5z"></path>
<path d="M193.3 239.9c-0.5 5.6-0.35 13 0.25 13.2 0.45 0.15 0.45 0.45 0 1.25-0.3 0.6-0.55 1.5-0.55 2.050 0 0.85 0.35 0.95 3.45 0.9 4.15 0 5.050 0.55 5.050 3.25 0 1.050 0.25 2.050 0.5 2.2 1 0.65 0.45 2.65-1.85 6.7-0.1 0.1-0.45-0.050-0.8-0.4-0.7-0.55-1-0.15-2.050 3.050-0.3 0.95-2.050 1.2-2.55 0.4-0.15-0.3-0.65-0.5-1.050-0.5-0.6 0-0.7 1.95-0.7 12.65 0 7 0.1 12.8 0.2 12.9 0.15 0.15 1.15 0.15 2.2 0.050 1.65-0.15 1.95-0.35 1.75-1.15-0.15-0.55 0.1-2.3 0.55-3.9 0.65-2.25 0.7-3.5 0.35-5.35-0.85-4.3-1.050-7.15-0.55-7.45 0.3-0.15 0.5-1 0.5-1.8 0-0.85 0.3-1.6 0.75-1.75 0.4-0.2 0.75-0.65 0.75-1.1 0-0.4 0.65-1.8 1.45-3.050s1.6-2.85 1.8-3.55c0.2-0.7 0.75-1.7 1.2-2.3l0.85-1.050 1.2 1.65c2.2 2.95 2.4 2.4 2.45-7.3 0.050-8.7 0.050-9-0.95-9-0.55 0-1.45-0.45-1.95-0.95-0.55-0.55-1.45-1.2-2-1.55-0.7-0.35-1.050-1.050-1.050-2 0-2.1-1.15-1.9-2.15 0.4-0.45 1.050-0.85 2.15-0.85 2.4 0 0.85 2.9 3.55 4.5 4.2 1.65 0.7 1.9 1.35 0.7 1.85-0.5 0.2-1 0-1.3-0.5-0.25-0.5-0.85-0.85-1.35-0.85-1.6 0-3.5-3-4.85-7.6-0.8-2.55-0.65-3.4 0.6-3.4 0.55 0 0.7-0.4 0.6-1.35-0.2-1.7-1.65-2.15-2.050-0.65-0.25 0.9-0.45 1-1.3 0.5-1.25-0.65-1.35-2.25-0.2-2.9 0.75-0.45 0.7-0.55-0.2-1-0.95-0.55-1.050-0.4-1.35 2.8z"></path>
<path d="M170.95 259.85c-0.5 1.4 0.1 2.65 1.35 2.65 0.4 0 0.7 0.5 0.7 1.25 0 1.85 1.7 1.65 2.5-0.25 0.95-2.35 1.4-2 3.5 2.6 1 2.2 2.050 3.2 2.7 2.55 0.5-0.55 0.35-2.15-0.4-3.3-0.4-0.6-0.85-1.95-1-3-0.2-1.050-0.55-1.75-0.8-1.6-0.7 0.45-2-0.3-2-1.15 0-0.6-0.15-0.65-0.6-0.2-0.8 0.8-2.35 0.75-4.050-0.15-1.35-0.7-1.4-0.65-1.9 0.6z"></path>
<path d="M169.3 265.35c-0.55 0.55-0.3 2.050 0.35 2.3 0.35 0.15 0.25 0.3-0.25 0.3-1.050 0.050-1.2 1.65-0.25 2.45 0.65 0.55 0.75 5.050 0.1 6.95-0.45 1.4 0.95 1.6 1.7 0.25 0.8-1.4 1.6-0.050 1.9 3.35 0.3 3.45-0.4 4.25-2.7 3-1.1-0.6-1.3-0.55-2.2 0.55-1.3 1.75-2.45 4.2-2.45 5.35 0 1.2-2.7 3.9-3.45 3.45-0.3-0.2-1.8-2.7-3.3-5.55-1.55-2.9-3-5.25-3.25-5.25-0.6 0 0.35 3.8 1.85 7.25 0.7 1.65 1.45 3.5 1.65 4.1 0.25 0.6 1.050 1.2 1.95 1.4 1.25 0.25 1.85 0.050 3.1-0.95 1.85-1.55 3.25-1.65 3.7-0.3 0.45 1.45 1.4 1.25 1.15-0.25-0.3-1.4 0.35-1.6 1.55-0.55 0.45 0.35 1.25 0.8 1.85 1 0.9 0.3 1.2-0.3 3.15-6.55 1.2-3.8 2.7-8.55 3.4-10.6 1.15-3.4 1.2-3.75 0.45-4.3-0.45-0.35-0.8-1-0.8-1.45 0-1.2-1.3-0.95-2.2 0.45-0.45 0.7-1.25 1.25-1.8 1.25-0.85 0-1-0.35-1-2 0-1.35-0.25-2.15-0.75-2.3-0.4-0.2-0.75-0.8-0.75-1.4 0-1.1-2.050-2.6-2.7-1.95z"></path>
<path d="M137.95 268c-0.45 0.7-0.95 2.35-1.15 3.7s-0.75 3-1.15 3.65c-0.9 1.4-0.55 2.65 0.8 2.65 0.85 0 1 0.5 1.3 3.25 0.2 1.8 0.25 3.45 0.050 3.6-0.15 0.15-0.75-0.1-1.3-0.6-1-0.9-1-0.9-1 0.95 0 1.45 0.25 1.9 1.2 2.25 1.35 0.55 1.95 1.8 1.5 3.15-0.25 0.8-0.6 0.95-1.7 0.75-1.35-0.3-1.4-0.3-0.95 1.5 0.45 2.15 0.25 2.65-1.1 2.65-0.5 0-0.95 0.25-0.95 0.55 0 0.35 0.45 0.45 1.050 0.3 0.65-0.2 1.6 0.1 2.5 0.75 0.8 0.6 1.55 0.95 1.7 0.8s0.2-7.2 0.15-15.7c-0.15-14.35-0.2-15.3-0.95-14.2z"></path>
<path d="M203.5 279.95c-0.4 0.25-0.85 0.4-1.1 0.25-0.45-0.3-3.7 1.050-4.1 1.7-0.15 0.25 0.2 1.050 0.75 1.8 0.8 1 1 1.85 0.85 3.65-0.1 1.9 0 2.4 0.65 2.55 1.1 0.2 1.65-1.95 0.9-3.6-0.7-1.5-0.2-4.6 0.8-5 1.050-0.4 1.8 1.3 2.050 4.85 0.3 3.55 0.3 3.2-0.1 7.050-0.3 2.65-0.45 2.95-1.9 3.6l-1.55 0.65 2.75 0.050c1.5 0 3.25 0.15 3.9 0.3l1.1 0.3v-6.95c0-4.75-0.2-7.15-0.6-7.55-0.35-0.35-0.85-1.35-1.1-2.2-0.55-1.7-1.95-2.3-3.3-1.45z"></path>
<path d="M225.55 215.1c-0.3 0.5-0.55 1.95-0.55 3.2 0 1.9 0.15 2.25 0.8 2 0.45-0.15 0.9-0.3 1-0.3s0.2-0.45 0.2-1c0-1.4 0.55-1.25 2.25 0.5 1.65 1.7 1.35 2.5-0.45 1.3-1.7-1.1-1.95-1-1.65 0.55 0.15 0.95-0.15 2.050-0.95 3.45-1.2 2.050-1.2 2.2-1.1 13l0.15 10.95 2.45 0.4c2.35 0.4 2.45 0.35 4.5-1.7 1.8-1.8 6.9-4.45 8.6-4.45 0.35 0 0.75-0.35 0.9-0.75 0.3-0.9-0.8-1.5-1.95-1.050-0.5 0.15-0.85-0.15-1.050-1-0.2-0.65-1-1.6-1.8-2l-1.45-0.75 0.35 1.75c0.25 1.6 0.2 1.8-0.75 1.8-1.5 0-2.2-1.6-1.25-2.9 0.65-0.95 0.6-1.1-0.8-2.1-1.75-1.25-1.85-1.95-0.55-3.55 0.9-1.15 1-1.15 1.9-0.3 1.15 1 3.25 1.1 4.65 0.25 0.8-0.5 1.2-0.5 2 0 1.35 0.85 1.5 0.8 1.5-0.65 0-1.25-0.050-1.25-4.050-1.25-3.55 0-4-0.1-3.85-0.85 0.1-0.5 0.6-0.95 1.15-1.050 1.75-0.35 2.1-1.050 2-3.65-0.1-1.8-0.45-2.8-1.2-3.5-1.35-1.25-1.55-1.2-1.25 0.4 0.25 1.4-0.9 3.7-1.55 3.1-0.15-0.2-0.35-1.3-0.45-2.5-0.2-2.8-0.65-3.85-1.85-4.2-0.5-0.2-0.95-0.5-0.95-0.75 0-0.7 1.7-1.050 4.7-0.95 2.6 0.1 2.8 0.2 2.8 1.3 0 1 0.2 1.1 1.2 0.85 1.8-0.45 2.3 1.5 0.7 2.8-1 0.8-1.050 0.95-0.3 1.25 0.45 0.2 1.3 0.1 1.85-0.25 1.15-0.6 1.25-1.5 0.75-5.9-0.3-2.45-0.4-2.6-1.75-2.6-1.050 0-1.45 0.25-1.45 0.9 0 1.35-0.4 1.55-2.050 0.95-0.85-0.35-1.35-0.85-1.25-1.2 0.4-0.95-2.4-0.85-3.2 0.1s-2 0.95-2 0c0-1.1-4.2-0.8-4.95 0.35z"></path>
<path d="M233.2 250.9c-0.3 0.2-0.8 1.050-1.15 1.95-0.55 1.35-0.5 1.85 0.2 3.35 0.5 1 0.7 2.15 0.55 2.55-0.3 0.85 1.3 4.4 2.5 5.65 0.4 0.35 0.7 1.1 0.7 1.65 0 0.5 0.35 0.95 0.75 0.95s0.75-0.3 0.75-0.7c0-0.35 0.35-0.95 0.75-1.3 1-0.8 1.55 0.5 0.8 1.9-0.4 0.75-0.3 1.4 0.45 2.9 0.55 1.050 1 2.6 1 3.45 0 0.8 0.35 1.9 0.75 2.4 0.35 0.55 0.55 1.25 0.4 1.65-0.4 1.1-2 0.85-2.3-0.35-0.25-0.95-0.55-1.050-2.050-0.8-1.45 0.25-1.9 0.1-2.3-0.7-0.7-1.25-2.5-1.25-2.5 0 0 1.2 1.15 2.15 2.2 1.75 0.6-0.2 1 0.15 1.5 1.35 0.65 1.55 0.7 1.6 1.25 0.55 0.7-1.3 1.85-1.45 2.3-0.25 0.15 0.5 0.85 1.55 1.55 2.4l1.25 1.5-0.15-10.1c-0.1-6.45-0.35-10.1-0.65-10-0.25 0.050-1.45-0.2-2.6-0.6-2.4-0.8-3.85-2.6-3.4-4.1 0.2-0.55 0-1.5-0.45-2.2-0.45-0.65-0.8-2-0.8-2.95 0-1.8-0.45-2.45-1.3-1.9z"></path>
<path d="M230.7 266.55c-0.6 0.65-1.3 0.9-2 0.75-0.7-0.2-1.2-0.050-1.4 0.45-0.15 0.4-0.75 0.75-1.3 0.75-1.15 0-1.35 1.45-0.4 2.4 0.45 0.45 0.45 0.6 0 0.6-0.4 0-0.6 1.2-0.6 3.95 0 4.5 0.1 4.6 4 4.35 1.8-0.1 2.3-0.3 2.4-1.1 0.1-0.55-0.3-1.4-0.9-1.95-0.55-0.5-1-1.3-1-1.8 0-0.55-0.45-1.2-1-1.55s-1-0.9-1-1.25c0-0.9 2.75-0.8 3.5 0.1 1.5 1.85 2.050 0.050 0.65-2.1-0.85-1.25-0.8-1.3 0.55-2.4 0.8-0.65 1.25-1.4 1.1-1.7-0.55-0.85-1.55-0.65-2.6 0.5z"></path>
<path d="M315.050 227.85c0.050 7.65 0.2 13.35 0.4 12.7 0.45-1.65 1.55-1.95 1.55-0.45 0 1.95-0.6 3.4-1.3 3.4-0.4 0-0.7 0.5-0.7 1.15 0 1.050 0.2 1.15 1.55 0.95 1.7-0.25 3.45-2.5 3.45-4.5 0-0.6 0.45-1.55 0.95-2.050s1.1-1.6 1.25-2.35c0.4-1.75 2.45-4.2 3.55-4.2 1 0 0.95 0.25-0.3 1.95-1.1 1.5-1.15 4.050-0.1 4.4 0.35 0.15 0.75-0.4 0.95-1.2 0.2-0.75 0.9-2 1.6-2.7 1.85-1.9 2.55-5.65 2.6-13.85v-7.1h-15.5l0.050 13.85z"></path>
<path d="M264.8 223.6c-0.9 2.8-0.8 3.3 0.6 3.8 1.2 0.45 1.25 0.5 0.4 0.85-0.65 0.3-1.15 0.15-1.55-0.45-0.7-0.9-2.25-0.6-2.25 0.5 0 0.8-1.3 0.95-1.75 0.2-0.15-0.3-0.5-0.5-0.8-0.5-0.7 0-0.55 3.2 0.2 3.95 0.5 0.55 0.5 0.7 0 0.9-0.45 0.15-0.65 1.4-0.65 3.9v3.65l2-0.5c1.2-0.3 2-0.8 2-1.25 0-0.4 0.3-0.65 0.65-0.5 0.3 0.1 0.6 0.85 0.6 1.65 0 1.7 1.35 2.2 2.7 1 0.8-0.75 1.050-0.7 3.25 0.45 4.050 2.15 4.2 1.9 3.3-4.25-0.35-2.65-0.35-3.3 0.25-3.65 0.8-0.4 0.95-2.25 0.45-4.25-0.25-0.9-0.65-1.1-1.65-1-1.1 0.15-1.3 0.4-1.3 1.9 0 1.25-0.25 1.8-0.85 1.9-0.7 0.15-0.9-0.15-0.9-1.35 0-1.1-0.35-1.75-1.25-2.35-0.75-0.5-1.25-1.3-1.25-2.050 0-2.25-1.7-4.2-2.2-2.55z"></path>
<path d="M275.85 230.35c-0.7 0.65-0.3 2.25 0.6 2.5 1.15 0.3 1.7 2.1 0.95 3-0.8 1-1.25 0.8-1.55-0.85-0.35-1.65-1.35-2.050-1.35-0.6 0 0.5 0.9 1.9 1.95 3.050 1.25 1.35 1.85 2.4 1.7 3-0.6 2.35 3.65 5.15 6.5 4.25 2-0.65 4.55-0.5 6.65 0.35 1.9 0.8 2.15 0.8 2.85 0.050 0.65-0.65 0.95-0.65 1.55-0.1 1.2 0.95 0.95-0.15-0.3-1.5-0.65-0.65-1.15-1.45-1.15-1.75 0-0.95-1.95-4.2-2.65-4.5-0.35-0.1-0.75 0.1-0.85 0.5-0.15 0.4-0.35 1.1-0.5 1.55-0.35 1.1-1.95 0.65-2.15-0.65-0.15-0.85 0.15-1.2 1.1-1.45 1.35-0.3 1.95-1.3 1.5-2.45-0.4-0.95-0.8-0.95-3 0-1 0.4-2 0.6-2.25 0.45-0.3-0.15-1.45 0.75-2.6 2-1.85 2-2.25 2.25-2.95 1.7-0.95-0.75-1.25-2.25-0.65-3.55 0.2-0.55 0.1-1.2-0.35-1.75-0.4-0.45-0.95-1.45-1.3-2.25-0.55-1.35-1.1-1.65-1.75-1z"></path>
<path d="M325.55 251.7c-0.7 0.85-0.75 2.3-0.7 21.1 0.050 13.85 0.2 16.3 0.9 17.65 0.45 0.9 0.95 2.75 1.1 4.2 0.3 2.7 0.8 3.45 2 3 0.75-0.3 0.9-4.2 0.15-4.95-1.050-1.050-2.050-6.15-2.25-11.45-0.35-10.5-0.2-24.8 0.25-26.050 0.7-1.85 0.6-3.55-0.2-3.85-0.4-0.15-0.95 0-1.25 0.35z"></path>
<path d="M262.5 254.25c-0.7 0.35-1.75 0.55-2.35 0.4-1.15-0.25-1.15-0.2-1.15 5.050 0 3.2 0.2 5.3 0.5 5.3s0.5-0.55 0.5-1.2c0-1.7 0.85-2.1 2.1-1 0.95 0.9 1.050 0.9 1.6 0.1 0.45-0.65 1.1-0.8 2.4-0.6 1.25 0.2 1.95 0.050 2.6-0.55 0.8-0.8 0.8-0.95 0.050-2.1-0.85-1.25-0.7-2.65 0.25-2.65 0.25 0 0.5 0.55 0.5 1.25s0.25 1.25 0.5 1.25c0.3 0 1 1.050 1.5 2.3 0.7 1.65 1.25 2.25 1.85 2.1 1.15-0.2 1.4-2.050 0.4-2.9-0.4-0.35-0.75-1.35-0.75-2.2 0-1.9-0.75-2.8-2.3-2.8-0.65 0-1.3-0.25-1.45-0.5-0.15-0.3-1.050-0.5-1.95-0.5-0.95 0-1.95-0.35-2.3-0.75-0.75-0.9-0.9-0.9-2.5 0z"></path>
<path d="M261.65 267c-1.050 1.8-1.55 1.9-2.15 0.35-0.4-1-0.45-0.95-0.45 0.5-0.050 1.050 0.2 1.65 0.65 1.65 0.35 0 1.25 0.55 2.050 1.3 1.4 1.3 2.35 1.3 1.3 0-0.95-1.15-0.2-1.8 2.15-1.8 2.2 0 3.8 1.050 3.8 2.55 0 0.4 0.35 1.1 0.7 1.6 0.55 0.7 0.95 0.8 2.050 0.35 0.7-0.3 1.55-0.4 1.8-0.25 0.55 0.35 1.050-1.75 0.85-3.55-0.15-1.3-0.3-1.45-1.8-1.3-1.1 0.1-2-0.15-2.65-0.7-0.75-0.7-1.050-0.7-1.7-0.2-0.6 0.5-1.050 0.45-2.5-0.2-0.95-0.45-1.85-1.050-2-1.3-0.55-0.85-1.15-0.55-2.1 1z"></path>
<path d="M348.9 216.15l-1.8 2.2-0.050 9.2-0.050 9.25 1.45 1.35c2.1 1.85 2.4 0.8 0.6-1.9-1.050-1.55-1.3-2.25-0.8-2.25 0.35 0 0.85 0.25 1 0.5 0.15 0.3 0.85 0.35 1.55 0.2 1.2-0.3 1.2-0.3 1.050 3.35-0.1 3.4 0 3.7 0.9 3.7 0.85 0 0.95-0.3 0.85-2.050-0.15-1.7 0.050-2.2 1-2.8l1.2-0.8-0.65 3.3c-0.6 2.85-0.6 3.35 0.050 4 0.7 0.7 0.8 0.65 1.1-0.2 0.9-2.9 1.4-3.6 2.55-4.15 1.75-0.8 1.95-0.4 0.7 1.35-0.6 0.85-1.050 1.75-1.050 2.050 0 0.25-0.45 0.9-0.95 1.4-0.8 0.75-0.9 1.35-0.7 3.3 0.15 1.4 0.6 2.55 0.95 2.7 0.4 0.15 0.7 0.55 0.7 0.9s0.55 1 1.25 1.45c1.45 0.95 1.6 2.35 0.45 3.35-0.7 0.55-0.9 0.5-1.5-0.3-0.4-0.5-0.7-1.35-0.7-1.85s-0.35-0.9-0.75-0.9c-0.4 0-0.75-0.3-0.75-0.7 0-0.35-1.45-2.2-3.2-4.050-3-3.1-3.35-3.3-4.65-2.9-1.3 0.45-1.4 0.7-1.55 3.25-0.1 1.6 0.15 3.5 0.55 4.45l0.7 1.7 1.9-4 0.15 3.65c0.1 2.3-0.1 3.95-0.45 4.4-0.45 0.55-0.8 4.85-0.9 11.95-0.050 0.25 0.050 2.95 0.2 6 0.25 6.4 0.050 7.45-1.3 7.1-0.85-0.25-0.95 0.050-0.95 3.4 0 3.8 0.7 5.35 1.9 4.15 0.45-0.45 0.9-0.3 1.8 0.55l1.25 1.15 1.4-2c0.75-1.15 1.65-2.15 1.95-2.3 0.35-0.1 1.1 0.6 1.75 1.6 1.55 2.3 2.3 2.5 3.050 0.85 0.55-1.2 0.5-1.45-0.6-2.3-0.7-0.5-1.75-0.95-2.35-0.95-0.8 0-1.15-0.3-1.15-0.95 0-0.8 0.45-1.050 2.25-1.3 2.45-0.4 3.55-1.3 3.050-2.55-0.2-0.55-0.65-0.7-1.4-0.55-1.3 0.35-2.4-0.4-2.4-1.65 0-0.5-0.35-1.2-0.8-1.55-1.25-1-1.8-2.85-1.2-4 0.85-1.6 1.45-1.1 1.6 1.4 0.15 2.25 0.2 2.3 0.8 1.25 0.45-0.8 0.5-1.35 0.1-2.15-0.8-1.4 0.2-2.55 1.8-2.15 1.65 0.45 1.6-0.95-0.1-1.7-0.7-0.35-1.1-0.85-0.95-1.1 0.2-0.3-0.15-1.35-0.7-2.3-0.6-0.95-1.050-1.85-1.050-1.95s0.8-0.45 1.8-0.75c1.65-0.55 1.75-0.7 1.4-2.15-0.4-2.050-0.4-2.050-1.65-1.25-0.9 0.55-1.15 0.55-1.55-0.1-0.6-0.9-0.15-3.5 0.75-4.4 0.5-0.6 0.85-0.55 2.050 0.050 0.8 0.4 2 1.3 2.65 2 1.1 1.2 1.15 1.5 0.8 5.7-0.25 3.55-0.15 4.6 0.45 5.4 0.7 0.9 0.75 0.25 0.8-7.3v-8.25l-1.8-1.6c-1.5-1.35-1.75-1.8-1.45-3.050 0.35-1.65-0.4-2.45-1.55-1.5-0.85 0.7-1.5 0.3-1-0.65 1.6-3.1 3.45-5.5 4.65-5.95 1-0.35 1.15-0.75 1.15-3.15 0-2.050-0.2-2.75-0.8-3-0.8-0.3-0.8-0.4 0-1.2 0.5-0.6 0.8-1.8 0.8-3.35 0-2.2-0.050-2.35-0.7-1.5-0.85 1.2-2.3 0.65-2.3-0.85 0-1.55 0.75-2.6 1.5-2.15 1 0.6 1.5-0.75 1.5-4.050 0-2.8-0.1-3.050-1.1-3-0.8 0.050-1.2-0.25-1.3-1-0.1-0.6-0.6-1.2-1.15-1.35-0.95-0.25-0.95-0.35-0.25-1.8 1.050-2 1.050-2.050-0.7-2.050-1.4 0-1.5 0.1-1.6 2.1 0 1.2-0.1 2.75-0.1 3.5-0.050 0.75-0.35 1.65-0.7 2-0.55 0.55-0.85 0.4-1.6-0.6-0.8-1.050-1.050-1.15-2.2-0.6-0.75 0.35-1.4 1.15-1.6 1.95-0.6 2.75-0.8 2.95-1.3 1.15-0.25-0.95-0.7-2.050-1-2.35-0.35-0.45-0.25-0.75 0.4-1 0.55-0.15 1.7-1.050 2.65-1.95 1.35-1.3 1.6-1.85 1.35-2.9s-0.6-1.3-1.95-1.3c-1.3 0-2 0.4-3.45 2.15z"></path>
<path d="M382 214.25c0 0.45 1.25 3.050 1.8 3.75 0.3 0.4 0.75 1.25 0.9 1.85 0.45 1.35-0.7 1.6-1.7 0.4-0.95-1.15-1.95-0.9-2.3 0.5-0.4 1.55 0.85 3.6 2.6 4.25 0.7 0.3 1.2 0.85 1.2 1.5 0 1.15 0.2 1.2 1.4 0.45 1.3-0.8 3.75 0.75 3.35 2.1-0.3 0.85-0.2 0.85 1.1 0.2 1.65-0.85 2.95-0.95 3.4-0.25 0.2 0.3 0.55 0.4 0.8 0.25 0.8-0.5 0.5-2.050-0.55-3-1.5-1.35-0.45-2.050 1.3-0.95 0.8 0.5 1.65 1.2 1.85 1.55 0.55 0.9 3.3 0.8 3.65-0.1 0.2-0.4 0.7-0.75 1.2-0.75s1.15 0.35 1.5 0.75c0.85 1.050 3.35 0.95 4-0.15 0.5-0.8 0.5-0.8 1 0 0.4 0.65 1.2 0.9 2.75 0.9 2.35 0 2.8-0.45 1.45-1.55-0.7-0.6-0.7-0.7 0.15-1.3 0.5-0.4 0.9-1.15 0.9-1.65 0-1.3 1-1.050 1.050 0.25 0.1 2 0.2 2.2 1.35 2.35 0.6 0.1 1.35 0.65 1.6 1.3 0.5 1.15 1.45 1.6 3.75 1.7 0.7 0.050 1.8 0.5 2.45 1 0.7 0.55 1.6 0.8 2.3 0.6 0.8-0.2 1.35 0.050 1.9 0.85 1 1.35 2.5 0.95 2.25-0.65-0.15-1.2 0.25-1.3 2.75-0.65 1.15 0.3 1.35 0.2 1.35-0.75 0-1.1 0.1-1.15 3.8-0.8 2.7 0.25 4.25 0.65 5.25 1.4 1.2 0.9 1.65 1 2.7 0.5 1.5-0.7 1.6-1.4 0.3-2.1-0.55-0.25-1.15-0.95-1.3-1.5-0.25-0.75-0.6-0.95-1.45-0.7-1.15 0.3-1.85-0.4-3.6-3.55-0.45-0.75-0.95-0.95-2.4-0.85-1.7 0.15-1.85 0.1-1.7-0.95 0.1-0.8-0.15-1.25-0.7-1.35-0.6-0.1-0.9 0.15-0.9 0.8 0 0.55-0.55 1.2-1.35 1.55l-1.4 0.65 1.5 1.35c2.25 1.95 1.55 4.5-1 3.85-0.95-0.25-1.25-0.55-1.050-1.15 0.2-0.4 0.050-1.1-0.3-1.5s-1-1.8-1.45-3.1l-0.8-2.3-2.55 0.1c-2 0.1-2.6-0.050-2.6-0.6 0-0.4 0.25-0.75 0.6-0.75 0.3 0 0.050-0.55-0.6-1.25-0.6-0.65-1.35-1.1-1.55-0.95-0.6 0.35-0.55 3.050 0.050 3.45 0.3 0.2 0.5 0.9 0.45 1.65s0 1.65 0.1 2.050c0.1 0.35-0.1 0.8-0.4 0.9-0.4 0.15-0.65-0.15-0.65-0.75 0-0.5-0.45-1.35-1-1.85-0.5-0.45-1.35-1.9-1.8-3.2-1.5-4-1.6-4.050-8.050-4.050-4 0-5.6 0.15-5.35 0.55 0.5 0.85-0.95 8.050-1.7 8.3-0.35 0.15-0.95-0.15-1.35-0.65-0.75-1-1-0.7-1.35 1.55-0.1 0.6-0.55 1-1.15 1-1 0-1.2-0.85-0.7-2.75 0.3-1.15-2.9-1.3-4.1-0.2-0.9 0.8-0.95 0.8-0.95-0.7 0-1.25 0.2-1.6 1-1.6 1.2 0 1.3-1.1 0.2-2.050-0.6-0.5-1-0.5-1.75-0.050-1.85 1.15-3.15 0.75-4-1.35l-0.85-1.95h-3.3c-1.8 0-3.3 0.050-3.3 0.15z"></path>
<path d="M399.5 256.5v27.5l8.15 0.050c4.45 0 7.8 0.15 7.5 0.3-0.45 0.15-0.4 0.6 0.3 1.55 1.25 1.8 2.4 7.95 1.6 8.75-0.3 0.3-0.55 1.050-0.55 1.7 0 0.9 0.3 1.15 1.2 1.15 0.75 0 1.35-0.35 1.5-0.9 0.4-1.2 0.25-5.55-0.25-7.35-0.25-0.85-0.55-2.35-0.7-3.4-0.2-1.25-0.55-1.85-1.15-1.9-0.45-0.050 0.15-0.25 1.4-0.5 8.2-1.6 15.1-8.9 17.3-18.3 1-4.4 1-14.4-0.050-18.4-1.9-7.25-5.7-12.1-11.85-15-4.6-2.15-8.3-2.75-17.25-2.75h-7.15v27.5z"></path>
<path d="M432.9 233.6l-1.85 0.95 1.7 2.35c0.9 1.3 2.050 3.3 2.5 4.5 0.7 1.75 1.050 2.050 1.85 1.8 0.6-0.15 1.35 0.050 1.95 0.6 0.55 0.5 0.95 0.6 0.95 0.3 0-0.35 0.45-0.6 0.95-0.6 1.25 0 1.85 1.55 0.85 2.3-0.45 0.3-0.8 1.050-0.8 1.7 0 1 0.2 1.1 1.45 0.85 0.95-0.2 1.65-0.050 2.050 0.4 0.35 0.4 1.050 0.75 1.55 0.75 0.85 0 0.95-0.45 0.95-4.7 0-3.25-0.2-4.85-0.6-5.15-0.35-0.2-1.7-0.3-3-0.25-2.8 0.1-3.4-0.55-1.95-2.1 1.4-1.5 1.35-1.85-0.35-1.7-1.75 0.1-2.55-0.35-3.1-1.9-0.6-1.5-2.4-1.5-5.1-0.1z"></path>
<path d="M395.25 242.25c-0.8 0.4-2.5 1.7-3.7 2.95-2 2.1-2.2 2.5-2.4 5.5-0.2 2.050-0.050 3.85 0.35 4.75 0.9 2.25 0.25 3.4-2.55 4.4-1.35 0.5-3.25 1.7-4.2 2.65-1.7 1.75-1.75 1.9-2.050 7.050-0.35 5.4 0.1 9.5 0.75 7.050 0.4-1.65 1.2-1.45 1.7 0.4 0.25 1.1 0.85 1.7 1.8 2.050 1.85 0.65 2.25 2.15 1.2 4.85l-0.8 2.15 1.4 1.45c1.2 1.25 2.6 1.95 2.8 1.35 0-0.050 0.3-2.35 0.65-5.1 0.6-4.7 0.6-5.050-0.25-6.050-1.45-1.55-1.15-2.2 0.95-2.2 3.35 0 5.1 2.1 3.3 4.050-0.5 0.55-0.65 1.25-0.45 1.9 0.35 1.1 1.45 1.4 2 0.55 0.15-0.3 0.75-0.5 1.3-0.5 0.8 0 0.95-0.35 0.95-2.75 0-1.5-0.25-3.25-0.55-3.95-0.45-0.9-0.45-1.45-0.050-1.9 0.5-0.65 0.7-5 0.65-14.35-0.050-3.7-0.15-4.1-0.8-3.55-0.45 0.35-0.7 1.1-0.65 1.7 0.1 0.65-0.15 1.1-0.7 1.2-0.65 0.15-0.9-0.15-0.9-1.050 0-0.7-0.35-1.5-0.75-1.85-0.85-0.7-1.050-4-0.25-4 0.3 0 1.25 0.35 2.050 0.8 1.75 0.9 1.8 0.85 1.95-0.8 0.25-2.65 0.1-2.8-1.8-2.6-1.55 0.2-1.75 0.1-1.6-0.7 0.050-0.55 0.9-1.25 1.8-1.65 1.4-0.65 1.6-0.95 1.6-2.65 0-2.1-0.35-2.25-2.75-1.15z"></path>
<path d="M437.3 262.1c-0.2 1.45-0.25 3.3-0.2 4.15 0.1 0.95-0.050 1.45-0.45 1.4-0.55-0.1-1.2 1.4-1.85 4.45-0.2 0.8-0.6 1.4-0.95 1.4s-1.15 0.9-1.85 2.050c-0.7 1.1-1.65 2.25-2.1 2.5-0.5 0.25-0.9 0.85-0.9 1.25 0 1.3-2.2 4.6-3.4 5.2-1.1 0.5-1.15 0.65-0.8 4 0.35 3.45 0.050 4.15-1.2 2.9-0.45-0.45-0.6-0.45-0.6 0 0 0.35 0.2 0.6 0.45 0.6s0.6 0.75 0.75 1.6c0.55 2.9 0.9 3.15 3.5 2.4 2.6-0.7 2.7-0.9 1.3-2.1-1.55-1.35-1.8-3.3-0.7-5.35 0.95-1.8 0.95-1.8 4.7-1.95 4.7-0.2 5.7 0.050 6.4 1.65 0.3 0.7 0.8 1.25 1.1 1.25 0.75 0 6-5.45 6-6.25 0-0.95-0.25-0.95-2.55 0.1-1.4 0.65-1.95 1.2-1.95 2 0 1.25-0.95 1.5-1.9 0.55-0.85-0.85-0.75-1.95 0.25-2.65 0.8-0.6 0.8-0.7-0.050-2-0.5-0.75-0.75-1.45-0.6-1.65 0.15-0.15-0.050-0.8-0.45-1.45-0.75-1.1-0.7-1.2 0.5-1.75 1.4-0.6 1.7-2.15 0.5-2.6-0.8-0.3-1.050-3.050-0.3-3.5 0.2-0.15 0.8 0.15 1.3 0.7 1.35 1.5 1.85 1.2 1.45-0.75-0.25-1.55-0.2-1.75 0.75-1.75 0.85 0 1.050-0.3 1.050-1.8 0-2.1-0.75-3.7-1.75-3.7-0.95 0-0.95 0.45 0.1 1.6 0.65 0.75 0.7 1.15 0.25 2.15-0.3 0.7-0.8 1.25-1 1.25-1 0-3.1-3.85-3.1-5.6 0-0.95-0.3-2.050-0.7-2.35-0.6-0.5-0.75-0.15-1 2.050z"></path>
<path d="M447.65 261.55c-0.75 0.75 0.15 5.45 1.35 7.050 1.2 1.65 1.2 1.85 0.25 2.9-0.6 0.7-0.75 1.85-0.65 5.050l0.15 4.2 1.3-2.5c0.7-1.4 1.7-3.7 2.25-5.15 0.85-2.55 0.85-2.65 0-4.15-0.8-1.4-0.8-1.6-0.1-2.4 0.7-0.75 0.7-1-0.2-2.4-1.1-1.9-3.6-3.35-4.35-2.6z"></path>
<path d="M396.75 287.35c-1.85 4.1-4.2 6.15-7.050 6.15h-2.2l0.8-1.25c0.9-1.35 0.6-2.25-0.8-2.25-0.5 0-1.25-0.35-1.7-0.75-1-1.050-1.6-0.95-2.5 0.35-1.2 1.7-0.95 2.8 0.95 4.45 0.95 0.85 1.75 1.95 1.75 2.45 0 0.75 0.6 0.95 3.65 1.2 3.85 0.35 17 0.35 18.45-0.050 0.65-0.15 0.8-0.55 0.55-1.8-0.15-0.9-0.6-2.1-0.95-2.7-0.4-0.6-0.7-2.45-0.7-4.050 0-3.8-1-4.6-5.7-4.6h-3.25l-1.3 2.85z"></path>
<path d="M469.5 214.5c0.6 0.35 0.6 0.6 0.1 1.1-0.4 0.4-0.6 2.25-0.6 5.35 0 3.7 0.15 4.6 0.6 4.15 0.35-0.35 1.1-0.6 1.65-0.6 0.6 0 1.5-0.45 2.050-1.050 0.7-0.8 1.35-1 2.55-0.8 1.5 0.25 1.6 0.2 1.15-0.7-0.3-0.5-1.15-1.050-1.9-1.25-3-0.65-3.2-0.75-2.8-1.6 0.2-0.5 0.5-1.8 0.7-3l0.35-2.1h-2.3c-1.65 0-2.1 0.15-1.55 0.5z"></path>
<path d="M477.3 214.95c0.15 0.45 0.45 1.35 0.6 2 0.3 1.5 2.1 4.2 4.4 6.65 0.95 1 1.7 2.3 1.7 2.85 0 0.7 0.3 1.050 0.95 1.050 1.2 0 1.7-1.3 1-2.55-0.35-0.7-0.35-1.8-0.050-3.35 0.25-1.3 0.35-3.5 0.25-4.95l-0.25-2.6h-4.5c-3.95 0.050-4.4 0.15-4.1 0.9z"></path>
<path d="M477.6 227.25c-0.15 4.75 0.45 6.15 4.3 10.25 1.7 1.8 3.15 3.6 3.15 4 0.050 0.4 0.15 1.5 0.15 2.45 0.050 0.95 0.35 1.8 0.7 1.9 0.65 0.25 0.75-1.15 0.25-7.25-0.2-2.75-0.35-3.1-1.15-2.85-1.050 0.35-1.5-0.65-1.4-3.1 0.050-1.050-0.45-2.35-1.35-3.6-0.75-1.1-1.7-2.75-2.2-3.65-0.45-0.9-1.15-1.7-1.55-1.8-0.6-0.1-0.75 0.6-0.9 3.65z"></path>
<path d="M470.95 226.15l-1.7 1.15-0.25 7.6c-0.15 4.2-0.2 10.45-0.1 13.85l0.15 6.25h1.25c1.4 0 1.5-0.65 0.45-3.15-0.85-2.1-1-5.35-0.25-5.35 0.3 0 0.65 0.4 0.8 0.85 0.15 0.5 0.5 1.35 0.85 1.9 0.3 0.55 0.65 1.75 0.8 2.7 0.35 2.1 1.050 2.4 2.55 1.15 1.25-1 1.25-1.1-0.75-4.35-2.65-4.4-3.3-5.85-3.55-7.95-0.4-2.8 0.5-3.45 2.050-1.5l1.15 1.45 0.55-2c0.3-1.1 0.55-2.3 0.55-2.65 0-0.7-0.8-0.8-1.25-0.1-0.15 0.25-0.5 0.5-0.8 0.5-0.65 0 0.050-4.050 0.85-5.050 0.35-0.4 0.75-1.3 0.8-1.95 0.1-0.95-0.1-1.2-0.95-1.25-0.65 0-1.15-0.15-1.15-0.4 0-0.2 0-0.65 0-1 0-0.4 0.5-0.95 1.15-1.25 1.1-0.55 1.1-0.55-0.2-0.55-0.7-0.050-2.050 0.45-3 1.1z"></path>
<path d="M475.5 257.25c-0.7 0.4-2.45 0.7-3.85 0.75h-2.65v6.9l1.4-0.65c0.75-0.4 2.3-0.65 3.35-0.55 1.1 0.1 3.050 0.2 4.3 0.25 2.3 0.050 2.3 0.050 3.95 3.1 1.15 2.2 1.45 3.2 1.050 3.6-0.3 0.3-0.55 0.9-0.55 1.4 0 0.45-0.45 1.4-1 2.1s-1 1.65-1 2.2c-0.050 2.55-3.6 4.4-6.9 3.55-2.45-0.65-3-2.3-1.55-4.85 1.1-2 3-3.050 5.6-3.050 0.55 0 0.85-0.4 0.85-1.25 0-0.7 0.2-1.25 0.5-1.25 0.95 0 1.5-1.8 0.8-2.8-0.6-0.8-0.85-0.85-2.050-0.3-1.050 0.5-1.7 0.5-3 0-2.2-0.75-5.75 0.25-5.75 1.65 0 1.3 2.1 1.7 4.75 0.95 2.45-0.7 3.75-0.45 3.75 0.7s-1.8 1.95-2.95 1.3c-1.5-0.8-1.8-0.65-3 1.5-0.6 1.1-1.45 2-1.85 2-0.6 0-0.7 1.4-0.65 8.1 0 7.55 0.050 8.050 0.8 7 0.5-0.75 1.3-1.1 2.35-1.1 0.95 0 2.35-0.55 3.3-1.25 1.95-1.45 2.25-1.5 4.2-0.5 1.7 0.9 2.65 0.5 1.65-0.65-0.45-0.5-0.85-1.3-0.95-1.85-0.1-0.85 0.15-1.050 1.7-1.15 1.5-0.15 2 0.050 2.65 1.1 0.5 0.7 1.050 1.2 1.25 1.050 0.25-0.15 0.45-2.85 0.45-6.050 0.050-5.4 0-5.8-0.95-6.050s-1-0.55-0.7-3.6c0.2-1.95 0.6-3.45 1-3.7 0.4-0.2 0.7-0.85 0.7-1.4 0-1.3-3.85-5.4-5.85-6.25-0.85-0.4-1.7-0.9-1.9-1.2-0.45-0.7-1.75-0.6-3.25 0.25z"></path>
</svg>
