<svg version="1.1" id="Layer_1" xmlns="http://www.w3.org/2000/svg" xmlns:xlink="http://www.w3.org/1999/xlink" x="0px" y="0px"
	 viewBox="0 0 200 28" style="enable-background:new 0 0 200 28;" xml:space="preserve">
<style type="text/css">
	.st0{fill:#FFFFFF;}
	.st1{fill:#27EDB0;}
</style>
<g>
	<g id="OPEN">
		<path id="O" class="st0" d="M12.6,1.6v2.7c0,0.6-0.4,1.1-1,1.3c-1.6,0.3-2.9,1.1-4,2.2c-1.5,1.6-2.2,3.6-2.2,6.1
			c0,2.5,0.7,4.5,2.2,6.1c1.1,1.1,2.4,1.9,4,2.2c0.6,0.1,1,0.7,1,1.3v2.7c0,0.4-0.1,0.7-0.4,1c-0.3,0.2-0.5,0.3-0.8,0.3
			c-0.1,0-0.1,0-0.2,0c-2.9-0.5-5.3-1.8-7.3-3.8C1.3,21.1,0,17.8,0,13.9c0-3.9,1.3-7.2,3.8-9.8c2-2,4.4-3.3,7.3-3.8
			c0.4-0.1,0.8,0,1.1,0.3C12.4,0.8,12.6,1.2,12.6,1.6z M27.5,13.9c0,3.9-1.3,7.2-3.8,9.8c-2,2-4.4,3.4-7.3,3.8c-0.1,0-0.1,0-0.2,0
			c-0.3,0-0.6-0.1-0.8-0.3c-0.3-0.3-0.4-0.6-0.4-1v-2.7c0-0.6,0.4-1.1,1-1.3c1.6-0.3,2.9-1.1,4-2.2c1.5-1.6,2.2-3.6,2.2-6.1
			c0-2.5-0.7-4.5-2.2-6.1c-1.1-1.2-2.4-1.9-4-2.2c-0.6-0.1-1-0.7-1-1.3V1.6c0-0.4,0.1-0.7,0.4-1c0.3-0.2,0.7-0.3,1.1-0.3
			c2.9,0.5,5.3,1.8,7.3,3.8C26.2,6.8,27.5,10,27.5,13.9z"/>
		<path id="P" class="st0" d="M51.2,2.8c1.8,1.7,2.7,3.9,2.7,6.7c0,2.8-0.9,5-2.7,6.7c-1.8,1.6-4.1,2.4-7,2.4h-7v7.5
			c0,0.7-0.6,1.3-1.3,1.3h-2.8c-0.7,0-1.3-0.6-1.3-1.3V14.7c0-0.7,0.6-1.3,1.3-1.3H44c1.6,0,2.8-0.3,3.5-1.1
			c0.7-0.7,1.1-1.6,1.1-2.9s-0.3-2.2-1.1-2.9c-0.7-0.7-1.9-1.1-3.5-1.1H33.1c-0.7,0-1.3-0.6-1.3-1.3V1.6c0-0.7,0.6-1.3,1.3-1.3h11.1
			C47.1,0.3,49.5,1.1,51.2,2.8z"/>
		<path id="E" class="st0" d="M78,1.6v2.6c0,0.7-0.5,1.3-1.3,1.3H62.9v5.6h12.2c0.7,0,1.3,0.6,1.3,1.3V15c0,0.7-0.5,1.3-1.3,1.3
			H62.9v5.6h13.8c0.7,0,1.3,0.6,1.3,1.3v2.6c0,0.7-0.5,1.3-1.3,1.3H58.9c-0.7,0-1.3-0.6-1.3-1.3V1.6c0-0.7,0.6-1.3,1.3-1.3h17.9
			C77.5,0.3,78,0.9,78,1.6z"/>
		<path id="N" class="st0" d="M87.8,17.6v8.4c0,0.7-0.6,1.3-1.3,1.3h-2.8c-0.7,0-1.3-0.6-1.3-1.3v-8.4c0-0.7,0.6-1.3,1.3-1.3h2.8
			C87.2,16.3,87.8,16.9,87.8,17.6z M106.2,1.6v24.5c0,0.7-0.6,1.3-1.3,1.3h-3.2c-0.4,0-0.8-0.2-1.1-0.5L82.7,2.3
			c-0.3-0.4-0.3-0.9-0.1-1.4c0.2-0.4,0.7-0.7,1.1-0.7H87c0.4,0,0.8,0.2,1,0.5l12.8,17.4V1.6c0-0.7,0.5-1.3,1.3-1.3h2.8
			C105.6,0.3,106.2,0.9,106.2,1.6z"/>
	</g>
	<g id="CITY">
		<path id="C" class="st1" d="M117.9,7.9c-1.4,1.5-2.1,3.5-2.1,6.1s0.7,4.5,2.1,6.1c1.4,1.6,3.5,2.4,6.3,2.4c1.5,0,2.7-0.4,3.8-1.1
			c1.1-0.8,1.9-1.7,2.5-3c0.2-0.5,0.7-0.8,1.2-0.8h2.9c0.4,0,0.8,0.2,1,0.5c0.3,0.4,0.3,0.8,0.2,1.2c-0.9,2.6-2.4,4.6-4.5,6
			c-2.2,1.6-4.8,2.4-7.8,2.4c-3.9,0-7.1-1.4-9.6-4.1c-2.3-2.6-3.4-5.8-3.4-9.6s1.2-7.1,3.4-9.6c2.5-2.7,5.7-4.1,9.6-4.1
			c3,0,5.6,0.8,7.8,2.4c2.1,1.5,3.6,3.5,4.5,6c0.1,0.4,0.1,0.8-0.2,1.2c-0.2,0.3-0.6,0.5-1,0.5h-2.9c-0.5,0-1-0.3-1.2-0.8
			c-0.5-1.3-1.4-2.2-2.5-3c-1.1-0.7-2.3-1.1-3.8-1.1c-1.6,0-2.9,0.2-3.8,0.7C119.4,6.6,118.6,7.2,117.9,7.9z"/>
		<path id="I" class="st1" d="M145.4,1.6v24.3c0,0.7-0.6,1.3-1.3,1.3h-2.7c-0.7,0-1.3-0.6-1.3-1.3V1.6c0-0.7,0.6-1.3,1.3-1.3h2.7
			C144.8,0.3,145.4,0.9,145.4,1.6z"/>
		<path id="T" class="st1" d="M171.1,1.6v2.6c0,0.7-0.5,1.3-1.2,1.3h-7.2v20.3c0,0.7-0.6,1.3-1.3,1.3h-2.7c-0.7,0-1.3-0.6-1.3-1.3
			V5.5h-7.2c-0.7,0-1.3-0.6-1.3-1.3V1.6c0-0.7,0.6-1.3,1.3-1.3h19.7C170.5,0.3,171.1,0.9,171.1,1.6z"/>
		<path id="Y" class="st1" d="M183.3,9.7h-3.4c-0.4,0-0.8-0.2-1.1-0.5L174,2.3c-0.3-0.4-0.3-0.9-0.1-1.4c0.2-0.4,0.7-0.7,1.1-0.7
			h3.4c0.4,0,0.8,0.2,1.1,0.5l4.8,6.8c0.3,0.4,0.3,0.9,0.1,1.4C184.2,9.5,183.8,9.7,183.3,9.7z M199.8,2.3L189.6,17v9.4
			c0,0.7-0.6,1.3-1.3,1.3h-2.8c-0.7,0-1.3-0.6-1.3-1.3V15.6c0-0.3,0.1-0.5,0.3-0.7l9.8-14.1c0.2-0.3,0.6-0.5,1.1-0.5h3.4
			c0.5,0,0.9,0.3,1.1,0.7C200.1,1.4,200,1.9,199.8,2.3z"/>
	</g>
</g>
</svg>
