<svg xmlns="http://www.w3.org/2000/svg" xmlns:xlink="http://www.w3.org/1999/xlink" width="80" height="28" viewBox="0 0 80 28">
    <defs>
        <path id="a" d="M65.376 27.724c7.55 0 13.696-6.184 13.696-13.786 0-7.602-6.145-13.784-13.696-13.784-7.553 0-13.695 6.182-13.695 13.784s6.142 13.786 13.695 13.786zm0-18.7c2.691 0 4.883 2.204 4.883 4.914 0 2.71-2.192 4.913-4.883 4.913-2.692 0-4.88-2.202-4.88-4.913 0-2.71 2.188-4.913 4.88-4.913zm-51.67 18.7c7.552 0 13.697-6.184 13.697-13.786 0-7.602-6.145-13.784-13.696-13.784C6.157.154.013 6.336.013 13.938s6.144 13.786 13.694 13.786zm0-18.7c2.694 0 4.884 2.204 4.884 4.914 0 2.71-2.19 4.913-4.883 4.913-2.691 0-4.88-2.202-4.88-4.913 0-2.71 2.189-4.913 4.88-4.913zm25.828-.31L35.329.336h-9.846l9.197 18.328v8.629h9.709v-8.63L53.584.338h-9.848l-4.202 8.376z"/>
    </defs>
    <use fill="#EF4023" fill-rule="evenodd" xlink:href="#a"/>
</svg>
