<svg height="200pt" viewBox="0 0 200 200" width="200pt" xmlns="http://www.w3.org/2000/svg"><path d="m27.4326 64.1473 66.2981 32.0127c1.7241.8229 4.0359 1.2539 6.3083 1.2539 2.273 0 4.585-.431 6.309-1.2539l66.298-32.0127c3.487-1.6849 3.487-4.4277 0-6.1126l-66.298-32.0127c-1.724-.8229-4.036-1.2538-6.309-1.2538-2.2724 0-4.5842.4309-6.3083 1.2538l-66.2981 32.0127c-3.4872 1.6849-3.4872 4.4277 0 6.1126z" fill="#ff00b2"/><path d="m172.646 96.9437s-12.108-5.8383-13.714-6.6219c-1.607-.7837-2.038-.7446-3.723.0391s-48.9 23.5881-48.9 23.5881c-1.764.823-4.036 1.254-6.309 1.254-2.2726 0-4.5844-.431-6.3085-1.254 0 0-45.9619-22.1775-48.1169-23.2355-2.3511-1.1363-3.0172-1.1363-5.1331-.1175-2.1943 1.058-13.0873 6.3085-13.0873 6.3085-3.4872 1.6849-3.4872 4.4275 0 6.1125l66.2981 32.013c1.7241.823 4.0359 1.254 6.3086 1.254 2.2721 0 4.5841-.431 6.3081-1.254l66.298-32.013c3.566-1.646 3.566-4.3885.079-6.0733z" fill="#cd008f"/><path d="m172.646 135.853s-12.108-5.839-13.714-6.622c-1.607-.784-2.038-.745-3.723.039s-48.861 23.627-48.861 23.627c-1.764.823-4.036 1.254-6.309 1.254-2.2724 0-4.5842-.431-6.3083-1.254 0 0-45.9621-22.177-48.1171-23.235-2.3509-1.137-3.017-1.137-5.1329-.118-2.1943 1.058-13.0873 6.309-13.0873 6.309-3.4872 1.685-3.4872 4.427 0 6.112l66.2981 32.013c1.7241.862 4.0359 1.254 6.3085 1.254 2.273 0 4.584-.431 6.309-1.254l66.298-32.013c3.526-1.685 3.526-4.427.039-6.112z" fill="#9a006b"/></svg>