<svg xmlns="http://www.w3.org/2000/svg" viewBox="0 0 256 256">
<path fill="#fcee21" stroke="#000000" stroke-width="5" stroke-miterlimit="10" d="M248.2,120.5H223c-1.7-11-4.8-23.4-8.9-34.3
	l21.6-12.6c2.6-1.5,3.5-5,2-7.6l-1.3-2.3c-1.5-2.6-4.9-3.6-7.5-2l-20.3,11.7C202.4,60.8,194.7,50,186,42.9L197,24
	c1.5-2.7,0.6-6.1-2-7.6l-2.2-1.3c-2.7-1.5-6.1-0.6-7.6,2l-11.2,18.7c-10.2-4.3-24.4-5.9-37.4-5.3V6.8c0-3-1.6-3.3-4.6-3.3h-2.7
	c-3,0-7.7,0.3-7.7,3.3v24.9c-11,1.7-22.6,4.7-33.7,9L77.3,21.6c-1.5-2.6-4.6-3.5-7.3-2l-2.2,1.3c-2.6,1.5-3.5,4.9-1.9,7.5l10.3,17.7
	c-13.1,6.4-24.3,14.5-31.5,23.7L26.8,59.5c-2.7-1.5-6.1-0.6-7.6,2L18,63.7c-1.5,2.7-0.6,6.1,2,7.6L37.9,82
	c-4.2,10.6-5.7,24.5-4.8,38.5H11.2c-3,0-7.7,1.9-7.7,4.9v2.7c0,3,4.7,7.4,7.7,7.4h23.4c1.9,12,5.1,22.7,9.5,33.7l-20.4,11.3
	c-2.6,1.5-3.5,4.7-2,7.3L23,190c1.5,2.6,4.9,3.5,7.5,2l19.3-11.1c6.4,12.6,14.4,23.3,23.5,30.1l-10.8,18.7c-1.5,2.7-0.6,6.1,2,7.6
	l2.2,1.3c2.7,1.5,6.1,0.6,7.6-2l9.9-19c10.8,4,23.4,5.3,37.4,4.3v22c0,3,4.7,7.7,7.7,7.7h2.7c3,0,4.6-4.7,4.6-7.7v-23.7
	c11-1.9,23.5-5.1,34.3-9.4l13.5,23c1.5,2.6,5,3.5,7.6,2l2.4-1.3c2.6-1.5,3.6-4.9,2-7.5L183.7,205c12-6.2,22.3-13.8,29-22.4
	l19.8,11.4c2.7,1.5,6.1,0.6,7.6-2l1.3-2.2c1.5-2.7,0.6-6.1-2-7.6l-19.8-10.5c4.1-10.4,5.6-23.2,4.8-36.2h23.7c3,0,3.3-4.3,3.3-7.4
	v-2.7C251.5,122.4,251.2,120.5,248.2,120.5z"/>
</svg>
