<?xml version="1.0" standalone="no"?>
<!DOCTYPE svg PUBLIC "-//W3C//DTD SVG 20010904//EN"
 "http://www.w3.org/TR/2001/REC-SVG-20010904/DTD/svg10.dtd">
<svg version="1.0" xmlns="http://www.w3.org/2000/svg"
 width="192.000000pt" height="192.000000pt" viewBox="0 0 192.000000 192.000000"
 preserveAspectRatio="xMidYMid meet">

<g transform="translate(0.000000,192.000000) scale(0.100000,-0.100000)"
fill="#000000" stroke="none">
<path d="M1035 1907 c-41 -14 -76 -33 -132 -75 l-31 -23 20 -47 c14 -32 23
-76 26 -138 12 -240 -127 -395 -249 -278 -33 31 -32 32 -49 -71 -14 -89 -5
-240 22 -370 36 -176 13 -328 -65 -425 -18 -21 -58 -71 -90 -109 -76 -91 -77
-109 -7 -230 29 -50 58 -95 66 -102 18 -15 43 28 90 156 60 164 94 218 156
251 40 21 64 17 131 -20 126 -70 212 -53 320 64 227 245 322 763 206 1115 -48
145 -120 239 -219 290 -44 23 -144 29 -195 12z"/>
</g>
</svg>
