<?xml version="1.0" standalone="no"?>
<!DOCTYPE svg PUBLIC "-//W3C//DTD SVG 20010904//EN"
 "http://www.w3.org/TR/2001/REC-SVG-20010904/DTD/svg10.dtd">
<svg version="1.0" xmlns="http://www.w3.org/2000/svg"
 width="1000.000000pt" height="1000.000000pt" viewBox="0 0 1000.000000 1000.000000"
 preserveAspectRatio="xMidYMid meet">
<metadata>
Created by potrace 1.15, written by Peter Selinger 2001-2017
</metadata>
<g transform="translate(0.000000,1000.000000) scale(0.100000,-0.100000)"
fill="#000000" stroke="none">
<path d="M5995 7844 c-250 -106 -433 -137 -1607 -275 -724 -85 -946 -102
-1070 -80 -34 6 -139 34 -233 62 -130 39 -187 51 -243 52 -72 2 -74 1 -104
-32 -28 -31 -30 -38 -26 -92 4 -50 11 -68 54 -128 152 -217 153 -223 161
-1021 7 -772 -9 -1103 -78 -1590 -42 -299 -131 -716 -210 -986 -91 -314 -233
-616 -434 -924 -242 -373 -471 -644 -730 -865 -153 -131 -157 -135 -153 -177
3 -30 6 -33 41 -36 31 -3 65 11 193 78 566 296 865 559 1193 1050 332 497 489
942 571 1620 67 560 107 1167 153 2327 7 178 16 325 19 329 4 3 218 35 477 72
l471 65 26 -24 c64 -59 93 -145 119 -344 15 -124 35 -479 35 -645 l0 -96 -192
-47 c-106 -25 -222 -51 -258 -57 -137 -23 -406 -83 -432 -96 -16 -8 -28 -22
-28 -30 0 -20 102 -119 156 -150 105 -62 343 -88 593 -65 73 7 135 11 137 8 3
-3 -2 -174 -10 -381 -9 -206 -16 -400 -16 -431 0 -51 -2 -56 -27 -66 -50 -19
-252 -59 -496 -99 -131 -21 -245 -44 -253 -51 -39 -33 5 -114 90 -164 103 -61
225 -85 466 -93 176 -7 185 -8 185 -27 0 -11 -4 -265 -9 -565 -15 -1014 23
-1332 209 -1715 94 -194 223 -331 470 -497 236 -160 448 -234 820 -287 236
-34 376 -43 762 -48 497 -7 825 13 1089 67 233 48 331 91 504 220 239 178 276
228 274 370 0 67 -7 92 -58 225 -90 233 -133 372 -155 496 -17 96 -61 667 -61
794 0 62 -63 95 -89 46 -5 -9 -37 -138 -71 -286 -154 -683 -235 -880 -420
-1028 -214 -172 -433 -225 -1006 -247 -396 -15 -763 8 -971 61 -296 75 -543
269 -679 532 -147 285 -192 607 -201 1458 l-5 476 98 18 c418 73 713 145 816
196 67 34 138 129 138 186 0 78 -50 120 -200 169 -113 36 -198 36 -350 0 -98
-23 -379 -85 -460 -102 l-26 -5 32 416 c18 229 34 418 36 420 2 2 122 33 266
70 390 97 504 136 565 194 84 77 97 216 27 281 -86 81 -333 68 -683 -33 l-117
-34 0 66 c1 103 17 296 31 359 8 31 42 112 76 179 35 67 63 135 63 150 -1 60
-35 106 -153 208 -89 78 -111 102 -99 107 19 8 277 43 429 58 287 28 618 21
740 -15 105 -31 163 -152 198 -410 32 -239 62 -996 73 -1855 8 -638 3 -861
-23 -1078 -43 -361 -112 -480 -267 -456 -24 4 -164 51 -312 106 -286 105 -296
106 -296 48 0 -30 10 -44 134 -185 80 -92 248 -337 328 -480 52 -92 90 -179
173 -388 61 -156 91 -200 145 -211 92 -18 210 87 368 328 161 244 245 475 304
831 19 117 16 1034 -5 1522 -19 427 -22 1023 -7 1271 16 254 45 364 167 627
36 77 67 156 70 176 10 68 -41 135 -227 300 -207 184 -410 288 -660 339 -153
31 -184 28 -335 -36z"/>
</g>
</svg>
