<svg xmlns="http://www.w3.org/2000/svg" xmlns:xlink="http://www.w3.org/1999/xlink" width="192" height="192" viewBox="0 0 192 192">
    <defs>
        <path id="a" d="M0 .001h108V108H0z"/>
    </defs>
    <g fill="none" fill-rule="evenodd">
        <path fill="#4370FF" d="M0 0h192v192H0z"/>
        <path fill="#FFF" d="M75.754 75.754c-4.495 4.496-4.495 11.81 0 16.306 4.496 4.496 11.81 4.496 16.306 0 4.496-4.495 4.496-11.81 0-16.306-4.495-4.495-11.81-4.495-16.306 0m22.693 22.693c-8.017 8.017-21.062 8.017-29.079 0s-8.017-21.062 0-29.08c8.017-8.016 21.062-8.016 29.079 0 8.017 8.018 8.017 21.063 0 29.08"/>
        <g transform="translate(42 41.999)">
            <mask id="b" fill="#fff">
                <use xlink:href="#a"/>
            </mask>
            <path fill="#FFF" d="M12.26 12.262c-16.347 16.347-16.347 42.946 0 59.293 15.27 15.269 39.479 16.271 55.927 3.018L101.614 108l6.386-6.385-33.427-33.428-3.017-3.017a4.516 4.516 0 0 0-6.387 0v-.001h-.001c-12.826 12.826-33.695 12.826-46.521 0s-12.826-33.695 0-46.521 33.695-12.826 46.52 0c8.756 8.755 11.523 21.255 8.324 32.389h.004v.001a4.506 4.506 0 0 0-.126.623 4.537 4.537 0 0 0-.042.521l-.001.027c-.003.188.007.375.027.562.003.023.008.046.01.07a4.46 4.46 0 0 0 .114.584c.043.162.093.323.155.48l.013.039c.067.168.147.332.235.492.022.04.047.08.07.12.071.12.148.238.232.354a4.541 4.541 0 0 0 .463.552 4.496 4.496 0 0 0 3.194 1.322c1.155 0 2.311-.441 3.193-1.323a4.53 4.53 0 0 0 .49-.588 4.472 4.472 0 0 0 .598-1.182c.062-.187.116-.375.153-.567 3.89-14.085.331-29.812-10.719-40.862-16.347-16.348-42.946-16.348-59.294 0" mask="url(#b)"/>
        </g>
    </g>
</svg>
