<?xml version="1.0" standalone="no"?>
<!DOCTYPE svg PUBLIC "-//W3C//DTD SVG 20010904//EN"
 "http://www.w3.org/TR/2001/REC-SVG-20010904/DTD/svg10.dtd">
<svg version="1.0" xmlns="http://www.w3.org/2000/svg"
 width="1920.000000pt" height="1920.000000pt" viewBox="0 0 1920.000000 1920.000000"
 preserveAspectRatio="xMidYMid meet">

<g transform="translate(0.000000,1920.000000) scale(0.100000,-0.100000)"
fill="#000000" stroke="none">
<path d="M0 9600 l0 -9600 9600 0 9600 0 0 9600 0 9600 -9600 0 -9600 0 0
-9600z m13910 2433 c0 -2780 -4 -4492 -10 -4583 -50 -736 -275 -1133 -788
-1390 -518 -259 -1259 -360 -2632 -360 l-436 0 -12 83 c-51 352 -273 965 -544
1500 -55 109 -98 200 -96 203 3 2 97 -2 209 -10 412 -30 788 -40 1479 -40 570
-1 716 2 760 13 123 31 194 89 228 186 16 47 17 278 20 3708 l2 3657 -2015 0
-2015 0 0 -5900 0 -5900 -980 0 -980 0 0 6635 0 6635 3905 0 3905 0 0 -4437z"/>
</g>
</svg>
