<svg xmlns="http://www.w3.org/2000/svg" xmlns:xlink="http://www.w3.org/1999/xlink" version="1.1" id="Layer_1" x="0" y="0" viewBox="0 0 1280 1280" xml:space="preserve" enable-background="new 0 0 1280 1280">
  <style type="text/css">
    
	.st0{fill:none;}
	.st1{fill:#09537E;}
	.st2{fill:url(#SVGID_1_);}
	.st3{fill:#00A4FF;}
	.st4{fill:url(#SVGID_2_);}
	.st5{fill:url(#SVGID_3_);}
	.st6{fill:url(#SVGID_4_);}
	.st7{fill:url(#SVGID_5_);}

  </style>
  <g id="Layer_8">
    <polygon class="st0" points="311.44 1015.97 337.2 955.27 285.65 955.27 "/>
    <polygon class="st0" points="338.65 1033.95 339.38 1033.95 344.9 1033.95 385.23 1033.95 352.5 1001.22 "/>
    <polygon class="st0" points="339.38 1052.36 344.9 1052.36 416.71 1052.36 416.71 1050.92 344.9 1050.78 344.9 1050.94 331.45 1050.94 330.85 1052.36 "/>
    <polygon class="st0" points="416.71 1033.95 416.71 1007.01 389.77 1033.95 "/>
    <path class="st0" d="M146.28 1014.11v-15.03c-0.56-0.03-1.11-0.07-1.69-0.07 -7.21 0-13.06 2.41-17.53 7.21 -2.58 2.78-4.4 6.04-5.49 9.74 1.07 3.84 2.82 7.13 5.32 9.85 4.47 4.81 10.37 7.21 17.7 7.21 0.58 0 1.13-0.04 1.69-0.07v-16.66V1014.11z"/>
    <path class="st0" d="M495.46 1048.36c-3.8 1.02-7.82 1.54-12.08 1.54 -4.34 0-8.44-0.54-12.32-1.6 3.52 1.97 7.62 2.97 12.32 2.97C487.96 1051.27 491.98 1050.29 495.46 1048.36z"/>
    <path class="st0" d="M157.67 1048.06c-4.19 1.22-8.66 1.83-13.41 1.83 -4.33 0-8.4-0.53-12.23-1.58 3.58 2.07 7.76 3.13 12.57 3.13C149.66 1051.44 154 1050.29 157.67 1048.06z"/>
    <path class="st0" d="M47.85 986.97h-4.62v18.68h5.46c11.96 0 19.55-3.12 22.96-9.44C68.15 990.02 60.29 986.97 47.85 986.97z"/>
    <polygon class="st0" points="292.04 1052.36 291.44 1050.94 211.25 1050.94 211.25 1052.36 "/>
    <path class="st0" d="M156.91 983.57c-3.52-1.97-7.62-2.97-12.32-2.97 -4.58 0-8.6 0.98-12.08 2.92 3.8-1.02 7.82-1.54 12.08-1.54C148.94 981.98 153.04 982.52 156.91 983.57z"/>
    <path class="st0" d="M495.95 983.56c-3.58-2.07-7.76-3.13-12.57-3.13 -5.06 0-9.41 1.15-13.08 3.38 4.19-1.22 8.65-1.83 13.41-1.83C488.04 981.98 492.12 982.51 495.95 983.56z"/>
    <path class="st0" d="M483.38 998.84c-0.58 0-1.13 0.04-1.69 0.07v15.65 2.19 16.05c0.56 0.03 1.11 0.07 1.69 0.07 7.21 0 13.06-2.41 17.53-7.21 2.58-2.78 4.4-6.04 5.49-9.74 -1.07-3.84-2.82-7.13-5.32-9.85C496.61 1001.24 490.71 998.84 483.38 998.84z"/>
    <path class="st1" d="M503.32 1016.76c-0.94-3.37-2.48-6.25-4.59-8.54 -3.86-4.15-8.89-6.18-15.34-6.18 -0.39 0-0.77 0.02-1.15 0.04l-3.74 0.2v-2.93h-22.32l1.42-4.22c1.25-3.71 3.18-6.99 5.74-9.75 1.53-1.64 3.31-3.09 5.3-4.3l0.36-0.22 0.41-0.12c4.47-1.3 9.28-1.96 14.31-1.96 4.56 0 8.96 0.57 13.08 1.7l0.4 0.11 0.36 0.21c2.19 1.27 4.16 2.84 5.87 4.68 4.92 5.36 7.4 12.6 7.4 21.56 0 3.44-0.46 6.73-1.35 9.78l-3.16 10.72L503.32 1016.76z"/>
    <path class="st1" d="M483.72 981.98c4.33 0 8.4 0.53 12.23 1.58 1.87 1.08 3.59 2.43 5.13 4.09 4.36 4.75 6.54 11.21 6.54 19.38 0 3.21-0.42 6.16-1.22 8.88 -1.07-3.84-2.82-7.13-5.32-9.85 -4.47-4.81-10.37-7.21-17.7-7.21 -0.58 0-1.13 0.04-1.69 0.07v-2.76h-21.07c1.1-3.28 2.79-6.15 5.05-8.59 1.39-1.49 2.94-2.73 4.62-3.75C474.49 982.59 478.96 981.98 483.72 981.98M483.72 975.58c-5.32 0-10.44 0.7-15.2 2.09l-0.82 0.24 -0.73 0.44c-2.24 1.37-4.25 3-5.98 4.86 -2.88 3.09-5.04 6.76-6.43 10.91l-2.84 8.44h8.9 14.67v3.1l6.73-0.35 0.4-0.02c0.37-0.02 0.69-0.04 0.96-0.04 5.52 0 9.78 1.69 13.01 5.17 1.76 1.92 3.03 4.29 3.84 7.21l5.99 21.53 6.31-21.44c0.98-3.35 1.48-6.94 1.48-10.69 0-9.78-2.77-17.76-8.23-23.71 -1.95-2.1-4.18-3.87-6.64-5.3l-0.72-0.42 -0.8-0.22C493.25 976.19 488.56 975.58 483.72 975.58L483.72 975.58z"/>
    <path class="st1" d="M481.52 1035.99c-7.4-0.4-13.51-3.14-18.18-8.16 -2.64-2.84-4.61-6.24-5.86-10.1l-1.35-4.18h28.76v22.62L481.52 1035.99z"/>
    <path class="st1" d="M481.69 1016.75v16.05c-6.54-0.35-11.89-2.71-16.01-7.14 -2.34-2.52-4.05-5.49-5.16-8.9H481.69M488.09 1010.35h-6.4 -21.17 -8.79l2.7 8.36c1.39 4.31 3.59 8.11 6.56 11.29 5.26 5.65 12.11 8.74 20.36 9.18l6.74 0.36v-6.75 -16.05V1010.35L488.09 1010.35z"/>
    <path class="st1" d="M483.38 1071.5c-13 0-24.2-4.51-33.28-13.41 -8.99-8.93-13.54-20.03-13.54-32.99 0-3.38 0.32-6.69 0.94-9.84l3.13-15.86 3.14 15.85c1.5 7.54 5.14 14.23 10.82 19.87 5.03 4.93 10.86 8.33 17.31 10.09l0.38 0.1 0.34 0.19c3.04 1.7 6.66 2.57 10.75 2.57 3.99 0 7.53-0.84 10.52-2.51l0.35-0.19 0.38-0.1c6.49-1.74 12.33-5.12 17.38-10.07 5.73-5.62 9.4-12.2 10.89-19.56l3.23-15.86 3.05 15.89c0.62 3.23 0.94 6.63 0.94 10.1 0 12.64-4.58 23.54-13.63 32.4C507.47 1067.02 496.33 1071.5 483.38 1071.5z"/>
    <path class="st1" d="M440.64 1015.87c1.63 8.2 5.52 15.38 11.7 21.52 5.47 5.37 11.72 8.99 18.72 10.9 3.52 1.97 7.62 2.97 12.32 2.97 4.58 0 8.6-0.98 12.08-2.92 7.04-1.88 13.31-5.5 18.79-10.88 6.23-6.11 10.16-13.18 11.79-21.2 0.58 3.02 0.88 6.18 0.88 9.49 0 11.8-4.22 21.84-12.67 30.12 -8.44 8.28-18.73 12.42-30.87 12.42 -12.19 0-22.54-4.17-31.04-12.5 -8.39-8.33-12.58-18.57-12.58-30.7C439.76 1021.89 440.06 1018.81 440.64 1015.87M440.63 982.92l-6.27 31.71c-0.66 3.36-1 6.88-1 10.47 0 13.85 4.87 25.7 14.47 35.24 9.73 9.54 21.68 14.36 35.55 14.36 13.81 0 25.71-4.79 35.35-14.24 9.68-9.49 14.59-21.16 14.59-34.69 0-3.67-0.33-7.27-0.99-10.7l-6.1-31.78 -6.45 31.71c-1.39 6.82-4.66 12.67-10 17.91 -4.71 4.62-9.94 7.65-15.97 9.27l-0.77 0.21 -0.69 0.39c-2.54 1.42-5.47 2.11-8.96 2.11 -3.59 0-6.6-0.71-9.19-2.16l-0.69-0.38 -0.76-0.21c-6-1.64-11.21-4.68-15.93-9.3 -5.27-5.23-8.52-11.19-9.91-18.2L440.63 982.92 440.63 982.92z"/>
    <path class="st1" d="M144.26 1071.5c-13.08 0-24.2-4.55-33.07-13.54 -8.85-8.84-13.34-20.1-13.34-33.45 0-3.27 0.32-6.48 0.94-9.55l3.23-15.85 3.05 15.89c1.48 7.72 5.07 14.46 10.66 20.05 4.93 5 10.69 8.42 17.13 10.18l0.4 0.11 0.36 0.21c3.09 1.79 6.78 2.7 10.97 2.7 4.4 0 8.24-0.98 11.41-2.91l0.36-0.22 0.41-0.12c6.16-1.79 11.73-5.07 16.55-9.73 5.71-5.6 9.37-12.29 10.87-19.88l3.13-15.85 3.14 15.85c0.62 3.15 0.94 6.44 0.94 9.8 0 13.08-4.58 24.21-13.63 33.07C168.7 1067.05 157.42 1071.5 144.26 1071.5z"/>
    <path class="st1" d="M101.93 1015.6c1.61 8.39 5.45 15.63 11.54 21.71 5.35 5.43 11.54 9.08 18.55 11 3.58 2.07 7.76 3.13 12.57 3.13 5.06 0 9.41-1.15 13.08-3.38 6.69-1.95 12.65-5.44 17.88-10.5 6.23-6.11 10.15-13.3 11.79-21.56 0.58 2.93 0.88 5.99 0.88 9.18 0 12.25-4.22 22.51-12.67 30.79 -8.5 8.22-18.93 12.33-31.29 12.33 -12.25 0-22.51-4.19-30.79-12.58 -8.28-8.28-12.42-18.68-12.42-31.21C101.06 1021.42 101.35 1018.45 101.93 1015.6M102.12 982.61l-6.45 31.71c-0.67 3.28-1.01 6.71-1.01 10.19 0 14.23 4.81 26.25 14.29 35.73 9.45 9.58 21.35 14.46 35.31 14.46 14.02 0 26.04-4.75 35.74-14.13 9.71-9.52 14.62-21.41 14.62-35.39 0-3.57-0.34-7.07-1-10.43l-6.29-31.71 -6.27 31.71c-1.39 7.05-4.66 13.01-9.99 18.23 -4.47 4.33-9.45 7.25-15.19 8.92l-0.82 0.24 -0.73 0.44c-2.7 1.65-5.89 2.45-9.75 2.45 -3.66 0-6.73-0.74-9.36-2.27l-0.72-0.42 -0.8-0.22c-5.98-1.63-11.11-4.68-15.68-9.32 -5.23-5.23-8.43-11.25-9.81-18.42L102.12 982.61 102.12 982.61z"/>
    <path class="st1" d="M143.08 1013.1h28.86l-1.2 4.1c-1.22 4.18-3.28 7.84-6.1 10.88 -4.62 4.97-10.74 7.69-18.19 8.08l-3.37 0.18V1013.1z"/>
    <path class="st1" d="M167.67 1016.3c-1.09 3.71-2.88 6.91-5.38 9.6 -4.07 4.38-9.42 6.72-16.01 7.06v-16.66H167.67M176.21 1009.9h-8.54 -21.39 -6.4v6.4 16.66 6.74l6.73-0.35c8.31-0.43 15.16-3.49 20.37-9.1 3.17-3.41 5.47-7.5 6.83-12.16L176.21 1009.9 176.21 1009.9z"/>
    <path class="st1" d="M118.49 1016.83c-0.89-3.2-1.34-6.69-1.34-10.39 0-8.41 2.55-15.4 7.57-20.8 1.84-1.98 3.94-3.63 6.24-4.91l0.35-0.19 0.38-0.1c4.08-1.09 8.42-1.65 12.91-1.65 4.58 0 9.01 0.57 13.16 1.71l0.38 0.1 0.34 0.19c2.28 1.28 4.36 2.91 6.16 4.85 2.38 2.56 4.22 5.58 5.47 8.96l1.59 4.31h-22.21v3.54l-3.75-0.2c-0.37-0.02-0.75-0.04-1.13-0.04 -6.34 0-11.31 2.03-15.19 6.19 -2.2 2.37-3.8 5.22-4.76 8.47l-3.16 10.72L118.49 1016.83z"/>
    <path class="st1" d="M144.59 981.98c4.34 0 8.44 0.54 12.32 1.6 1.98 1.11 3.78 2.51 5.38 4.24 2.11 2.27 3.7 4.9 4.81 7.89h-20.82v3.37c-0.56-0.03-1.11-0.07-1.69-0.07 -7.21 0-13.06 2.41-17.53 7.21 -2.58 2.78-4.4 6.04-5.49 9.74 -0.8-2.87-1.22-6.03-1.22-9.53 0-7.61 2.24-13.81 6.71-18.62 1.63-1.76 3.45-3.18 5.45-4.3C136.32 982.5 140.34 981.98 144.59 981.98M144.59 975.58c-4.76 0-9.38 0.59-13.73 1.76l-0.77 0.21 -0.69 0.39c-2.59 1.45-4.95 3.31-7.02 5.53 -5.59 6.01-8.43 13.74-8.43 22.98 0 3.99 0.49 7.77 1.46 11.24l5.99 21.53 6.31-21.44c0.83-2.81 2.15-5.16 4.03-7.19 3.24-3.48 7.44-5.17 12.85-5.17 0.27 0 0.59 0.02 0.95 0.04l0.39 0.02 6.74 0.36v-3.72h14.42 9.18l-3.17-8.61c-1.4-3.79-3.46-7.16-6.12-10.03 -2.04-2.19-4.37-4.03-6.94-5.47l-0.69-0.38 -0.76-0.21C154.17 976.19 149.46 975.58 144.59 975.58L144.59 975.58z"/>
    <polygon class="st1" points="191.07 1072.55 191.07 1047.74 214.45 1047.74 214.45 1049.16 287.21 1049.16 286.61 1047.74 302.21 1047.74 302.21 1072.55 "/>
    <path class="st1" d="M299.01 1050.94v18.41H194.27v-18.41h16.98v1.42h80.79l-0.6-1.42H299.01M305.41 1044.54h-6.4 -7.58 -9.66l0.6 1.42h-64.73v-1.42h-6.4 -16.98 -6.4v6.4 18.41 6.4h6.4 104.75 6.4v-6.4 -18.41V1044.54L305.41 1044.54z"/>
    <polygon class="st1" points="283.53 958.47 272.99 933.66 349.85 933.66 339.32 958.47 "/>
    <path class="st1" d="M345.01 936.86l-7.81 18.41h-51.55l-7.82-18.41H345.01M354.68 930.46h-9.67 -67.19 -9.67l3.78 8.9 7.82 18.41 1.66 3.9h4.23 51.55 4.24l1.66-3.9 7.81-18.41L354.68 930.46 354.68 930.46z"/>
    <polygon class="st1" points="348.1 1072.4 348.1 1072.55 320.68 1072.55 320.68 1047.74 336.29 1047.74 335.68 1049.16 413.51 1049.16 413.51 1047.71 436.89 1047.76 436.89 1072.57 "/>
    <path class="st1" d="M416.71 1050.92l16.98 0.03v18.41l-88.79-0.17v0.16h-21.03v-18.41h7.58l-0.6 1.42h8.53 5.52 71.8V1050.92M410.31 1044.51v1.45h-65.4 -4.39l0.6-1.42h-9.66 -7.58 -6.4v6.4 18.41 6.4h6.4 21.03 6.4v-0.14l82.37 0.16 6.41 0.01v-6.41 -18.41 -6.39l-6.39-0.01 -16.98-0.03L410.31 1044.51 410.31 1044.51z"/>
    <polygon class="st1" points="383.91 1037.15 353.6 1006.84 340.77 1037.15 326.02 1037.15 351.41 977.2 387.5 1013.29 419.91 980.88 419.91 1008.34 391.09 1037.15 "/>
    <path class="st1" d="M352.5 982.82l35 35 29.21-29.21v18.41l-26.94 26.94h-4.53l-32.73-32.73 -13.86 32.73h-7.79L352.5 982.82M350.31 971.58l-3.7 8.75 -21.65 51.14 -3.77 8.9h9.66 7.79 4.24l1.65-3.9 10.15-23.98 26.01 26.01 1.87 1.87h2.65 4.53 2.65l1.87-1.87 26.94-26.94 1.87-1.87v-2.65 -18.41 -15.45l-10.93 10.93 -24.68 24.68 -30.47-30.47L350.31 971.58 350.31 971.58z"/>
    <polygon class="st1" points="355.84 966.73 372.58 927.21 387.32 927.21 366.2 977.09 "/>
    <path class="st1" d="M382.49 930.41l-17.38 41.06 -5.48-5.48 15.07-35.58H382.49M392.15 924.01h-9.66 -7.79 -4.24l-1.65 3.9 -15.07 35.58 -1.68 3.97 3.05 3.05 5.48 5.48 6.72 6.72 3.7-8.75 17.38-41.06L392.15 924.01 392.15 924.01z"/>
    <rect x="295.81" y="1106.12" class="st1" width="31.26" height="24.81"/>
    <path class="st1" d="M323.88 1109.32v18.41h-24.86v-18.41H323.88M330.28 1102.92h-6.4 -24.86 -6.4v6.4 18.41 6.4h6.4 24.86 6.4v-6.4 -18.41V1102.92L330.28 1102.92z"/>
    <polygon class="st1" points="282.12 1037.15 235.57 927.21 250.31 927.21 296.87 1037.15 "/>
    <path class="st1" d="M248.19 930.41l43.84 103.55h-7.79L240.4 930.41H248.19M252.43 924.01h-4.24 -7.79 -9.66l3.77 8.9 43.84 103.55 1.65 3.9h4.24 7.79 9.66l-3.77-8.9 -43.84-103.55L252.43 924.01 252.43 924.01z"/>
    <polygon class="st1" points="552.28 1023.17 552.28 995.04 624.81 1078.01 624.81 1106.14 "/>
    <path class="st1" d="M555.48 1003.56l66.13 75.65v18.41l-66.13-75.65V1003.56M549.08 986.51v17.05 18.41 2.4l1.58 1.81 66.13 75.65 11.22 12.83v-17.05 -18.41 -2.4l-1.58-1.81 -66.13-75.65L549.08 986.51 549.08 986.51z"/>
    <rect x="529.74" y="1073.97" class="st1" width="28.94" height="24.81"/>
    <path class="st1" d="M555.48 1077.17v18.41h-22.54v-18.41H555.48M561.88 1070.77h-6.4 -22.54 -6.4v6.4 18.41 6.4h6.4 22.54 6.4v-6.4 -18.41V1070.77L561.88 1070.77z"/>
    <path class="st1" d="M40.03 1049.06v-24.81h10.42c13.08 0 23.59-3.39 31.24-10.07 5.54-4.84 9.11-11.05 10.61-18.47l3.11-15.41 3.16 15.4c0.64 3.12 0.97 6.4 0.97 9.72 0 13.32-4.59 24.08-13.64 31.98 -8.85 7.73-20.78 11.65-35.45 11.65H40.03z"/>
    <path class="st1" d="M95.43 996.35c0.59 2.89 0.9 5.91 0.9 9.08 0 12.36-4.22 22.31-12.54 29.57 -8.25 7.2-19.47 10.86-33.34 10.86h-7.22v-18.41h7.22c13.87 0 25.09-3.65 33.34-10.86C89.9 1011.26 93.79 1004.47 95.43 996.35M95.38 964.28l-6.22 30.81c-1.37 6.8-4.51 12.26-9.58 16.69 -7.05 6.16-16.85 9.28-29.13 9.28h-7.22 -6.4v6.4 18.41 6.4h6.4 7.22c15.47 0 28.1-4.18 37.55-12.44 9.78-8.54 14.73-20.11 14.73-34.39 0-3.54-0.35-7.03-1.03-10.37L95.38 964.28 95.38 964.28z"/>
    <rect x="16.8" y="1076.85" class="st1" width="29.63" height="24.81"/>
    <path class="st1" d="M43.23 1080.05v18.41H20v-18.41H43.23M49.63 1073.65h-6.4H20h-6.4v6.4 18.41 6.4H20h23.23 6.4v-6.4 -18.41V1073.65L49.63 1073.65z"/>
    <path class="st1" d="M68.86 997.78c-2.85-5.05-9.92-7.61-21.02-7.61h-7.82v-24.81h7.82c19.33 0 29.13 7.2 29.13 21.41 0 4.19-0.84 7.88-2.51 10.96l-2.75 5.1L68.86 997.78z"/>
    <path class="st1" d="M47.85 968.57c17.45 0 25.93 5.96 25.93 18.21 0 3.7-0.72 6.83-2.12 9.44 -3.5-6.19-11.35-9.24-23.8-9.24h-4.62v-18.41H47.85M47.85 962.17h-4.62 -6.4v6.4 18.41 6.4h6.4 4.62c9.85 0 15.99 2.01 18.23 5.99l5.7 10.09 5.51-10.19c1.92-3.55 2.89-7.75 2.89-12.48 0-10.34-4.97-16.01-9.14-18.94C65.6 964.02 58.01 962.17 47.85 962.17L47.85 962.17z"/>
    <linearGradient id="SVGID_1_" gradientUnits="userSpaceOnUse" x1="483.34" y1="1053.09" x2="483.34" y2="960.37">
      <stop offset="0" stop-color="#F82154"/>
      <stop offset="1" stop-color="#FF6A6E"/>
    </linearGradient>
    <path class="st2" d="M483.38 1053.09c-4.58 0-9-0.58-13.16-1.71 -7.52-2.05-14.29-5.99-20.12-11.71 -6.62-6.58-10.85-14.37-12.6-23.18 -0.62-3.15-0.94-6.45-0.94-9.8 0-13.08 4.58-24.21 13.63-33.07 9.09-8.79 20.37-13.25 33.53-13.25 13.08 0 24.2 4.55 33.07 13.54 8.85 8.84 13.34 20.1 13.34 33.45 0 3.27-0.32 6.48-0.94 9.55 -1.76 8.64-6.03 16.32-12.69 22.85 -5.84 5.73-12.64 9.66-20.2 11.68C492.2 1052.54 487.86 1053.09 483.38 1053.09zM465.42 1019.95c0.74 1.28 1.61 2.46 2.6 3.52 3.55 3.81 8.08 5.82 13.84 6.13l0.38 0.02c0.37 0.02 0.75 0.04 1.13 0.04 6.34 0 11.31-2.03 15.19-6.19 2.2-2.37 3.8-5.22 4.76-8.47 0.73-2.46 1.09-5.15 1.09-7.98 0-7.4-1.86-13.04-5.7-17.21 -1.26-1.36-2.74-2.53-4.38-3.48 -3.09-1.79-6.78-2.7-10.97-2.7 -4.4 0-8.24 0.98-11.41 2.91 -1.51 0.92-2.8 1.97-3.95 3.2 -0.91 0.98-1.72 2.05-2.42 3.21h19.29v27H465.42z"/>
    <path class="st3" d="M483.72 963.57c12.25 0 22.51 4.19 30.79 12.58 8.28 8.28 12.42 18.68 12.42 31.21 0 3.09-0.3 6.06-0.88 8.91 -1.63 8.03-5.56 15.1-11.79 21.2 -5.48 5.37-11.75 8.99-18.79 10.88 -3.8 1.02-7.82 1.54-12.08 1.54 -4.34 0-8.44-0.54-12.32-1.6 -7-1.91-13.25-5.54-18.72-10.9 -6.18-6.14-10.08-13.32-11.7-21.52 -0.58-2.93-0.88-5.99-0.88-9.18 0-12.25 4.22-22.51 12.67-30.79C460.93 967.68 471.36 963.57 483.72 963.57M460.62 996.15h21.07v2.76 15.65 2.19h-21.17c1.1 3.41 2.82 6.38 5.16 8.9 4.12 4.43 9.47 6.79 16.01 7.14 0.56 0.03 1.11 0.07 1.69 0.07 7.21 0 13.06-2.41 17.53-7.21 2.58-2.78 4.4-6.04 5.49-9.74 0.8-2.72 1.22-5.66 1.22-8.88 0-8.17-2.18-14.63-6.54-19.38 -1.54-1.65-3.26-3-5.13-4.09 -3.58-2.07-7.76-3.13-12.57-3.13 -5.06 0-9.41 1.15-13.08 3.38 -1.68 1.02-3.23 2.26-4.62 3.75C463.41 990 461.73 992.87 460.62 996.15M483.72 957.17c-14.02 0-26.04 4.75-35.74 14.13 -9.71 9.52-14.62 21.41-14.62 35.39 0 3.57 0.34 7.07 1 10.43 1.87 9.45 6.41 17.8 13.47 24.82 6.26 6.13 13.5 10.34 21.55 12.54 4.43 1.21 9.14 1.82 14 1.82 4.76 0 9.38-0.59 13.73-1.76 8.1-2.17 15.37-6.37 21.62-12.49 7.12-6.98 11.69-15.23 13.58-24.5 0.67-3.28 1.01-6.71 1.01-10.19 0-14.23-4.81-26.25-14.29-35.73C509.57 962.05 497.68 957.17 483.72 957.17L483.72 957.17zM472.9 989.75c0.24-0.16 0.48-0.32 0.74-0.47 2.7-1.65 5.89-2.45 9.75-2.45 3.66 0 6.73 0.74 9.36 2.27 1.38 0.8 2.58 1.75 3.65 2.91 3.24 3.53 4.83 8.45 4.83 15.02 0 2.52-0.32 4.9-0.96 7.07 -0.83 2.81-2.15 5.16-4.03 7.19 -3.24 3.48-7.44 5.17-12.85 5.17 -0.27 0-0.58-0.02-0.95-0.04l-0.39-0.02c-3.83-0.2-7-1.27-9.62-3.26h9.28 6.4v-6.4 -2.19 -15.65 -2.76 -6.4h-6.4H472.9L472.9 989.75z"/>
    <linearGradient id="SVGID_2_" gradientUnits="userSpaceOnUse" x1="144.64" y1="1053.09" x2="144.64" y2="960.37">
      <stop offset="0" stop-color="#F82154"/>
      <stop offset="1" stop-color="#FF6A6E"/>
    </linearGradient>
    <path class="st4" d="M144.26 1053.09c-4.56 0-8.96-0.57-13.08-1.7 -7.55-2.06-14.27-6.05-19.99-11.84 -6.5-6.5-10.67-14.36-12.4-23.36 -0.62-3.23-0.94-6.63-0.94-10.1 0-12.64 4.58-23.54 13.63-32.4 9.02-8.85 20.16-13.33 33.11-13.33 13 0 24.2 4.51 33.28 13.42 8.99 8.93 13.54 20.03 13.54 32.99 0 3.38-0.32 6.69-0.94 9.85 -1.76 8.88-6.02 16.7-12.69 23.23 -5.59 5.41-12.05 9.2-19.22 11.29C154.09 1052.43 149.28 1053.09 144.26 1053.09zM144.59 983.8c-3.99 0-7.53 0.84-10.52 2.51 -1.71 0.96-3.29 2.2-4.67 3.68 -3.94 4.23-5.85 9.61-5.85 16.44 0 3.12 0.37 6.03 1.11 8.67 0.94 3.37 2.48 6.25 4.59 8.54 3.86 4.15 8.89 6.18 15.34 6.18 0.39 0 0.77-0.02 1.15-0.04l0.37-0.02c5.81-0.3 10.34-2.28 13.84-6.04 1.17-1.26 2.17-2.68 2.99-4.22h-19.86v-27h18.85c-0.59-0.89-1.25-1.73-1.98-2.51 -1.35-1.45-2.9-2.67-4.6-3.63C152.31 984.66 148.69 983.8 144.59 983.8z"/>
    <path class="st3" d="M144.59 963.57c12.19 0 22.54 4.17 31.04 12.5 8.39 8.33 12.58 18.57 12.58 30.7 0 3.21-0.3 6.29-0.88 9.23 -1.63 8.27-5.56 15.46-11.79 21.56 -5.23 5.06-11.19 8.55-17.88 10.5 -4.19 1.22-8.66 1.83-13.41 1.83 -4.33 0-8.4-0.53-12.23-1.58 -7.01-1.92-13.2-5.58-18.55-11 -6.09-6.09-9.93-13.33-11.54-21.71 -0.58-3.02-0.88-6.18-0.88-9.49 0-11.8 4.22-21.84 12.67-30.12C122.17 967.71 132.46 963.57 144.59 963.57M144.59 1033.03c0.58 0 1.13-0.04 1.69-0.07 6.59-0.34 11.94-2.68 16.01-7.06 2.5-2.69 4.29-5.89 5.38-9.6h-21.39v-2.19 -15.03 -3.37h20.82c-1.1-2.99-2.7-5.62-4.81-7.89 -1.61-1.73-3.41-3.13-5.38-4.24 -3.52-1.97-7.62-2.97-12.32-2.97 -4.58 0-8.6 0.98-12.08 2.92 -2 1.11-3.82 2.54-5.45 4.3 -4.47 4.81-6.71 11.02-6.71 18.62 0 3.5 0.42 6.66 1.22 9.53 1.07 3.84 2.82 7.13 5.32 9.85C131.37 1030.63 137.27 1033.03 144.59 1033.03M144.59 957.17c-13.81 0-25.71 4.79-35.35 14.24 -9.68 9.49-14.59 21.16-14.59 34.69 0 3.67 0.33 7.27 0.99 10.7 1.85 9.64 6.32 18.06 13.3 25.03 6.09 6.17 13.29 10.44 21.39 12.65 4.39 1.2 9.07 1.81 13.92 1.81 5.32 0 10.44-0.7 15.2-2.09 7.68-2.23 14.59-6.29 20.54-12.04 7.16-7.02 11.73-15.39 13.62-24.92 0.66-3.36 1-6.88 1-10.47 0-13.85-4.87-25.7-14.47-35.24C170.41 961.99 158.46 957.17 144.59 957.17L144.59 957.17zM144.59 1026.63c-5.52 0-9.78-1.69-13.01-5.17 -1.76-1.92-3.03-4.29-3.84-7.21 -0.66-2.36-0.99-4.98-0.99-7.81 0-5.98 1.63-10.65 5-14.26 1.17-1.26 2.44-2.26 3.89-3.07 2.54-1.42 5.47-2.11 8.96-2.11 3.59 0 6.6 0.71 9.19 2.16 0.09 0.05 0.17 0.1 0.26 0.15h-7.76 -6.4v6.4 3.37 15.03 2.19 6.4h6.4 10.13c-2.73 2.38-6.17 3.65-10.46 3.87l-0.4 0.02C145.18 1026.61 144.86 1026.63 144.59 1026.63L144.59 1026.63z"/>
    <linearGradient id="SVGID_3_" gradientUnits="userSpaceOnUse" x1="313.98" y1="1112.52" x2="313.98" y2="908.8">
      <stop offset="0" stop-color="#F82154"/>
      <stop offset="1" stop-color="#FF6A6E"/>
    </linearGradient>
    <path class="st5" d="M295.81 1112.52v-58.39H191.07V944.36h23.38v86.39h72.76L235.57 908.8h151.75l-23.9 56.45 24.08 24.08 49.36-49.36 0.03 21.08v93.1l-88.79-0.17v0.15h-21.03v58.39H295.81zM413.51 1030.75v-34.42l-26.01 26.01 -33.9-33.9 -17.92 42.32H413.51zM311.44 1007.78l28.74-67.72h-57.52L311.44 1007.78z"/>
    <path class="st3" d="M382.49 912l-7.79 18.41 -15.07 35.58 5.48 5.48 22.4 22.4 46.17-46.17 0.02 13.37v18.41 71.49l-16.98-0.03 -71.8-0.14v0.16h-13.45 -7.58v18.41 39.98h-24.86v-39.98 -18.41h-7.58 -80.19 -16.98v-84.97 -18.41h16.98v18.41 67.99h72.99 7.79l-43.84-103.55L240.4 912h26.86 3.7H382.49M311.44 1015.97l25.76-60.7 7.81-18.41h-67.19l7.82 18.41L311.44 1015.97M330.85 1033.95h7.79 0.74 5.52 40.33 4.53 26.94v-26.94 -18.41l-29.21 29.21 -35-35L330.85 1033.95M392.15 905.6h-9.66H270.96h-3.7H240.4h-9.66l3.77 8.9 7.79 18.41 40.08 94.65h-64.73v-61.59 -18.41 -6.4h-6.4 -16.98 -6.4v6.4 18.41 84.97 6.4h6.4 16.98 80.19 1.18v12.01 39.98 6.4h6.4 24.86 6.4v-6.4 -39.98 -12.01h1.18 13.45 6.4v-0.14l65.39 0.13 16.98 0.03 6.41 0.01v-6.41 -71.49 -18.41l-0.02-13.38 -0.02-15.42 -10.9 10.9 -41.64 41.65 -17.87-17.87 -2.43-2.43 13.38-31.61 7.79-18.41L392.15 905.6 392.15 905.6zM287.5 943.26h47.85l-4.04 9.51 -19.87 46.82 -19.9-46.83L287.5 943.26 287.5 943.26zM340.51 1027.55l14.18-33.5 28.28 28.28 4.53 4.53 4.53-4.53 18.28-18.28v2.96 20.54h-20.54 -4.53H344.9 340.51L340.51 1027.55z"/>
    <linearGradient id="SVGID_4_" gradientUnits="userSpaceOnUse" x1="577.27" y1="1087.73" x2="577.27" y2="939.21">
      <stop offset="0" stop-color="#F82154"/>
      <stop offset="1" stop-color="#FF6A6E"/>
    </linearGradient>
    <polygon class="st6" points="558.68 1012.08 558.68 1080.37 529.74 1080.37 529.74 939.21 595.87 1014.34 595.87 946.51 624.81 946.51 624.81 1087.73 "/>
    <path class="st3" d="M532.94 947.69l66.13 75.13v-54.7 -18.41h22.54v18.41 111.09l-66.13-75.65v18.41 55.2h-22.54V966.1 947.69M526.54 930.73v16.96 18.41 111.07 6.4h6.4 22.54 6.4v-6.4 -55.2 -1.36l54.91 62.82 11.22 12.83v-17.05V968.12v-18.41 -6.4h-6.4 -22.54 -6.4v6.4 18.41 37.74l-54.93-62.4L526.54 930.73 526.54 930.73z"/>
    <linearGradient id="SVGID_5_" gradientUnits="userSpaceOnUse" x1="58.16" y1="1083.25" x2="58.16" y2="943.65">
      <stop offset="0" stop-color="#F82154"/>
      <stop offset="1" stop-color="#FF6A6E"/>
    </linearGradient>
    <path class="st7" d="M16.8 1083.25V943.65h27.19c11.25 0 19.97 0.82 25.91 2.44 6.41 1.73 12.12 5.04 16.98 9.83 8.4 8.21 12.66 18.67 12.66 31.1 0 3.44-0.32 6.8-0.96 9.96 -1.78 8.83-6.05 16.24-12.67 22.02 -8.85 7.73-20.77 11.65-35.45 11.65h-4.02v52.6H16.8zM48.69 1002.45c10.73 0 17.33-2.54 20.15-7.76 1.15-2.14 1.74-4.8 1.74-7.92 0-13.3-12.15-15.01-22.73-15.01h-1.42v30.69H48.69z"/>
    <path class="st3" d="M43.99 946.85c10.96 0 19.4 0.78 25.06 2.33 5.87 1.59 11.11 4.62 15.57 9.02 7.76 7.59 11.7 17.29 11.7 28.83 0 3.28-0.31 6.39-0.9 9.33 -1.64 8.12-5.53 14.91-11.64 20.25 -8.25 7.2-19.47 10.86-33.34 10.86h-7.22v18.41 34.19H20v-114.8 -18.41H43.99M43.23 1005.65h5.46c11.96 0 19.55-3.12 22.96-9.44 1.41-2.6 2.12-5.73 2.12-9.44 0-12.25-8.48-18.21-25.93-18.21h-4.62v18.41V1005.65M43.99 940.45H20h-6.4v6.4 18.41 114.8 6.4H20h23.23 6.4v-6.4 -34.19 -12.01h0.82c15.47 0 28.1-4.18 37.55-12.44 7.17-6.26 11.78-14.27 13.71-23.8 0.68-3.37 1.03-6.94 1.03-10.6 0-13.32-4.59-24.56-13.63-33.4 -5.23-5.17-11.43-8.75-18.38-10.62C64.52 941.31 55.52 940.45 43.99 940.45L43.99 940.45zM49.63 999.25v-12.27 -11.99c17.75 0.46 17.75 7.79 17.75 11.79 0 2.58-0.46 4.73-1.36 6.39C63.91 997.07 58.4 999.11 49.63 999.25L49.63 999.25z"/>
  </g>
</svg>
