<svg x="0" y="0" width="48" height="48" version="1.1" xmlns="http://www.w3.org/2000/svg" xmlns:xlink="http://www.w3.org/1999/xlink"><g fill="none" stroke="none" stroke-width="none" stroke-linecap="butt" stroke-linejoin="miter" stroke-miterlimit="none" stroke-dasharray="" stroke-dashoffset="0" font-family="none" font-weight="normal" font-size="none" text-anchor="start" mix-blend-mode="normal"><g id="Capa_1" fill="#000000" stroke="none" stroke-width="1" stroke-miterlimit="4" font-family="&quot;Open Sans&quot;, sans-serif" font-size="14"></g><path d="M3,24c0,-11.59798 9.40202,-21 21,-21c11.59798,0 21,9.40202 21,21c0,11.59798 -9.40202,21 -21,21c-11.59798,0 -21,-9.40202 -21,-21z" fill="#ffffff" stroke-width="1" stroke="#4f71b5" ></path><path d="M26.76276,44.81989l-8.74956,-8.74956c-0.14828,-0.14828 -0.24001,-0.35312 -0.24001,-0.57935l0,-4.0556c0,-0.45254 0.3669,-0.81936 0.81936,-0.81936l4.70601,0l-1.34937,-1.34937c-0.07424,-0.07423 -0.12032,-0.17662 -0.12032,-0.28927l0,-0.59301l-6.85303,-6.85303l-0.00001,-0.00001c-0.82545,-0.82546 -1.25824,-2.04356 -1.25824,-3.61481l0,-4.47888c0,-0.45254 0.36681,-0.81935 0.81935,-0.81936c0,0 0.00001,0 0.00001,0l2.33497,0l0.90127,0.90127l0,-1.01053c0,-0.45246 0.36691,-0.81936 0.81936,-0.81936l10.81499,0c0.22623,0 0.43107,0.09173 0.57935,0.24001l1.14119,1.14119c0,0 0,-0.45258 0,-0.45258l2.33506,0c0.22626,0 0.43109,0.0917 0.57935,0.23996l10.95671,10.95671c0.00053,0.06162 0.0008,0.1233 0.0008,0.18505c0,4.83967 -1.63714,9.29695 -4.38784,12.84827l-1.62577,-1.62577l0,0.00001l1.62577,1.62577c-3.30891,4.27201 -8.22919,7.23302 -13.8494,7.97161z" fill="url(#color-1)" stroke-width="1" stroke-miterlimit="10" font-family="sans-serif" font-size="12"></path><path d="M30.2269,19.26841c0,2.11571 -0.62928,4.04159 -1.77185,5.42275c-1.15012,1.39036 -2.73231,2.156 -4.455,2.156c-1.7227,0 -3.30488,-0.76573 -4.455,-2.156c-1.14258,-1.38116 -1.77185,-3.30703 -1.77185,-5.42275l0,-6.75939c0,-0.45246 0.3669,-0.81936 0.81936,-0.81936l10.81499,0c0.45246,0 0.81936,0.3669 0.81936,0.81936z M29.40762,30.61602c0.45246,0 0.81936,0.36682 0.81936,0.81936l0,4.0556c0,0.45246 -0.3669,0.81936 -0.81936,0.81936l-10.81507,0c-0.45246,0 -0.81936,-0.3669 -0.81936,-0.81936l0,-4.0556c0,-0.45254 0.3669,-0.81936 0.81936,-0.81936z M34.28241,13.43764l0,4.47888c0,2.73239 -1.30879,4.39681 -3.71531,4.7856c0.19779,-0.56859 0.34577,-1.16852 0.43927,-1.79208c1.12119,-0.41722 1.63748,-1.38489 1.63748,-2.99352l0,-3.6596l-1.51578,0l0,-1.63864l2.33506,0c0.45254,0 0.81936,0.36682 0.81928,0.81936z M17.43289,22.70211c-2.40652,-0.38879 -3.71531,-2.05321 -3.71531,-4.7856l0,-4.47888c0,-0.45254 0.36682,-0.81936 0.81936,-0.81936l2.33498,0l0,1.63864l-1.51578,0l0,3.65968c0,1.60863 0.51629,2.57629 1.63748,2.99352c0.09351,0.62356 0.24156,1.2234 0.43927,1.792z M26.17121,28.97738c0,0.22523 -0.18428,0.4096 -0.4096,0.4096l-3.52315,0c-0.22523,0 -0.4096,-0.18428 -0.4096,-0.4096l0,-1.18784c0,-0.22532 0.1784,-0.36326 0.39642,-0.30656c0,0 1.02113,0.26536 1.77476,0.26536c0.75362,0 1.77476,-0.26536 1.77476,-0.26536c0.21802,-0.0567 0.39642,0.08124 0.39642,0.30656z" fill="#4f71b5" stroke-width="0" stroke-miterlimit="10" font-family="sans-serif" font-size="12"></path></g></svg>
