<svg xmlns="http://www.w3.org/2000/svg" viewBox="0 0 324 334"><defs><style>.cls-1{fill:transparent;}.cls-2{fill:#cbd5dc;}.cls-3{fill:#9268cb;}.cls-4{fill:#57acec;}.cls-5{fill:#fdac35;}.cls-6{fill:#f3900c;}.cls-7{fill:#553788;}.cls-8{fill:#9aaab5;}.cls-9{fill:#99aab5;}.cls-10{fill:#9aaab4;}.cls-11{fill:#24679a;}.cls-12{fill:#85b6da;}</style></defs><title>PWA Wiki logo</title><path class="cls-1" d="M88.05935,416.94064Q88.05911,251.42281,88,85.905c-.00146-2.37074.53288-2.90657,2.90023-2.905q159.09962.10284,318.19928,0c2.36679-.00152,2.90195.53348,2.90049,2.90477q-.10232,164.095-.00008,328.19c.0015,2.37035-.53228,2.90675-2.9,2.90521Q248.57973,416.89724,88.05935,416.94064ZM368.428,110.84529a.99124.99124,0,0,1,.034-.536c6.00879-.98012,9.58495-9.0728,4.41294-14.94206-2.34389-2.65987-5.01978-3.37257-8.33176-3.37066q-99.54885.05731-199.09778.03068c-6.82918.00035-13.65838.0292-20.49055.0448q-10.725-.022-21.44995-.04195a12.2398,12.2398,0,0,0-6.12215,1.28767A33.7597,33.7597,0,0,0,101.42343,113.989c-6.24479,21.55144-6.39155,43.02624,2.20386,64.04883C107.73493,188.08423,115.198,194.8512,126.3705,194.24c3.45312-.1889,6.93033.06384,10.39651.11437-2.6147,1.48252-5.7315,2.07265-7.94777,4.24034-5.11228,5.00019-9.15316,10.759-10.99839,17.73632-4.27541,16.16651-4.05526,32.148,3.318,47.45077,3.38015,7.01535,8.87155,11.94931,16.84342,13.49363a.94649.94649,0,0,0,.278.32025c-2.20732.04547-4.41767.033-6.6213.1489a13.74789,13.74789,0,0,0-10.17353,5.07168,53.30035,53.30035,0,0,0-10.53409,20.60887,159.99656,159.99656,0,0,0-1.30866,72.91928c1.87351,8.94973,4.60341,17.75072,10.9341,24.84635,3.21229,3.60045,7.04481,6.10041,11.99554,6.12136,13.77615.05832,27.55284-.01022,41.32931-.02867.62333.06013,1.24675.17379,1.86994.17256,15.24383-.03072,30.48762-.105,45.73143-.1088q85.15748-.02148,170.315-.01139c5.965-.00089,9.46756-2.58878,10.37437-7.56766.80236-4.4054-1.64222-8.15977-6.6048-10.14361.80271-2.47347,2.54395-4.43739,3.25263-7.05742,2.84982-10.53644,2.88864-21.36961,3.50955-32.10169.685-11.8405-.2614-23.69595-1.39911-35.50426.46062-2.2542-.90753-4.18728-1.1086-6.37618-.40608-4.42022-.93648-8.94361-4.10652-12.51573,3.83557-1.62764,6.50957-4.23147,6.58554-8.64035a9.62124,9.62124,0,0,0-6.20345-9.56533c1.46585-.04218,2.93155-.1122,4.39761-.12169,5.6914-.03682,9.599-2.60411,10.62367-7.00426,1.067-4.58175-1.49887-9.22231-6.41049-11.5939a11.58443,11.58443,0,0,0,4.62008-6.8518,64.03031,64.03031,0,0,0,1.78135-21.396,38.8964,38.8964,0,0,0-.48472-4.62776c-1.10264-4.956-.92278-10.53365-6.21865-13.57025,1.51113-.90882,3.26537-1.37039,4.509-2.77679,2.95665-3.3436,2.97114-7.10867,1.3453-10.886-1.48055-3.43987-4.476-4.76491-8.1515-4.77388-11.3081-.02755-22.61611-.09869-33.92415-.15291a11.75352,11.75352,0,0,0,5.57925-3.79629c3.32746-4.43388,1.36467-11.76123-5.02106-14.70633.96392-1.47225,2.34447-2.54986,3.063-4.31705,2.789-6.85917,3.02639-14.11533,3.4191-21.299a117.10307,117.10307,0,0,0-.53205-20.76634,11.18374,11.18374,0,0,1-.598-2.702c.12414-4.37785-1.57893-8.3552-2.64082-12.46436C371.06647,112.55553,370.27322,111.12137,368.428,110.84529Z" transform="translate(-88 -83)"/><path class="cls-2" d="M400.92663,314.95927c1.14166,11.81024,2.08808,23.66569,1.40306,35.50619-.62091,10.73208-.65973,21.56525-3.50955,32.10169-.70868,2.62-2.44992,4.58395-3.25253,7.05773-1.81517.28015-3.16445-1.18926-5.07824-1.108-5.56376.23624-11.14536.03481-16.71994.03445q-91.82892-.00612-183.65764.09089c-6.226.01573-9.19911-1.31437-11.37022-9.51141.4799-1.50095-.35821-2.875-.42415-4.34224a222.544,222.544,0,0,1,.1006-27.67688c.61584-7.7297,1.59734-15.51218,4.41506-22.76753,3.55215-9.14635,5.34867-9.317,12.75461-9.30652q100.6231.14253,201.24652.05009C398.19835,315.08758,399.56249,315.00394,400.92663,314.95927Z" transform="translate(-88 -83)"/><path class="cls-3" d="M178.74157,379.13079c2.17111,8.197,5.14423,9.52714,11.37022,9.51141q91.82835-.23215,183.65764-.09089c5.57458.00036,11.15618.20179,16.71994-.03445,1.91379-.08124,3.26307,1.38817,5.07824,1.108,4.96248,1.98353,7.40706,5.7379,6.6047,10.1433-.90681,4.97888-4.40936,7.56677-10.37437,7.56766q-85.15749.01268-170.315.01139c-15.24381.00382-30.4876.07808-45.73143.1088-.62319.00123-1.24661-.11243-1.87037-.17256-.13031-.27905-.1985-.74339-.399-.81036-6.22176-2.07806-10.06236-6.8695-12.717-12.35969-6.34931-13.131-9.05251-27.25018-9.49149-41.74132a200.65133,200.65133,0,0,1,.46647-26.15425c1.01063-10.08147,2.68452-20.02967,6.586-29.34737,3.45584-8.25349,7.22184-16.69769,17.39849-18.98527,1.25844-.04427,2.51689-.12723,3.77532-.12725q106.40822-.00105,212.81643.01491c1.26012.0002,2.52025.05931,3.78036.09093a9.62042,9.62042,0,0,1,6.20434,9.56514c-.076,4.40888-2.75,7.01271-6.58261,8.64077-1.89046.01961-3.78383.05537-5.67722.0556q-100.52628.01251-201.05256-.02026c-4.29376-.00322-7.12529,1.64658-8.998,5.51927-4.81941,9.96617-6.00873,20.72267-6.58727,31.50124a155.67325,155.67325,0,0,0,1.9024,35.79317C175.932,372.42267,176.15267,376.22141,178.74157,379.13079Z" transform="translate(-88 -83)"/><path class="cls-4" d="M144.95783,92.07207c6.82918-.01562,13.65838-.04447,20.48756-.04482q99.54891-.00516,199.09778-.03068c3.312-.00191,5.98787.71079,8.33176,3.37066,5.172,5.86926,1.59585,13.96194-4.41317,14.94185-.20973-.01977-.41922-.05646-.62873-.05646q-103.21244-.00213-206.42486.00823c-.92056.00013-1.91961-.23354-2.6657.59774a6.38941,6.38941,0,0,0-4.99828,2.92169c-1.93672,3.46025-4.04579,6.84859-5.08,10.76938a73.35555,73.35555,0,0,0-1.7755,26.79113,42.73715,42.73715,0,0,0,5.03005,18.33087c2.37892,4.24252,5.73766,5.82749,10.573,5.82021q95.55936-.1441,191.11907-.05626c5.04416.00093,10.08829.11082,15.13245.17008,6.38573,2.9451,8.34852,10.27245,5.02106,14.70633a11.75906,11.75906,0,0,1-5.5773,3.79647c-.62744.03514-1.25684.10059-1.88625.10067q-64.82142.00862-129.64273-.04191c-5.98279-.01255-11.96294-.47272-17.93927.15251-1.67691-.04581-3.35379-.13082-5.03073-.13154q-38.26885-.01623-76.53773-.013c2.90842-.9264,5.96185.10224,9.1407-.62015a25.13629,25.13629,0,0,1-13.79662-12.03776c-3.99806-7.59655-6.11425-15.75379-7.40123-24.25506a96.35144,96.35144,0,0,1,3.39168-42.99961,35.76808,35.76808,0,0,1,9.83628-16.26707c2.02578-1.878,4.472-3.08058,6.66289-4.67587C146.15992,92.46345,144.95565,92.4571,144.95783,92.07207Z" transform="translate(-88 -83)"/><path class="cls-2" d="M368.74325,175.60569c-5.04416-.05926-10.08829-.16915-15.13245-.17008q-95.55959-.01756-191.11907.05626c-4.83536.00728-8.1941-1.57769-10.573-5.82021a42.74859,42.74859,0,0,1-5.03081-18.33045c1.17239-4.9723,2.09312-9.98584,4.30738-14.69173,2.4264-5.15678,6.07689-7.48252,11.87516-7.475q105.81128.13781,211.62287.04874a117.10307,117.10307,0,0,1,.53205,20.76634c-.39271,7.18372-.63014,14.43988-3.4191,21.299C371.08772,173.05583,369.70717,174.13344,368.74325,175.60569Z" transform="translate(-88 -83)"/><path class="cls-5" d="M218.71876,194.31976c5.97633-.62523,11.95648-.16506,17.93927-.15251q64.8211.136,129.64273.04191c.62941-.00008,1.25881-.06553,1.88625-.10066,11.30609.054,22.6141.12517,33.9222.15272,3.67547.009,6.671,1.334,8.1515,4.77388,1.62584,3.77736,1.61135,7.54243-1.3453,10.886-1.24364,1.4064-2.99788,1.868-4.50934,2.77681-1.26169-.02494-2.523-.07191-3.7844-.07167q-60.43876.0115-120.87754.031c-15.57.004-31.14008.03761-46.70989-.014-5.32241-.01763-9.31118,2.41137-11.35726,7.06037-3.26664,7.42225-4.73377,15.24774-2.83645,23.38763.47361,1.82675.80612,3.70473,1.44566,5.4712,2.54738,7.036,6.57929,10.502,14.47488,10.46982,51.6058-.21049,103.2129-.11436,154.81956-.09871,5.04259.00154,10.08513.13688,15.12771.21009,4.91162,2.37159,7.47747,7.01215,6.41049,11.5939-1.02471,4.40015-4.93227,6.96744-10.62367,7.00426-1.46606.00949-2.93176.07951-4.39805.12179-1.26056-.03153-2.52069-.09064-3.78081-.09084q-106.4082-.01491-212.81643-.01491c-1.25843,0-2.51688.083-3.77455.12717-1.57232-.03869-3.14526-.10243-4.71853-.11187q-16.37322-.09825-32.74656-.17754a.96969.96969,0,0,1-.27977-.32056q28.0776-.0435,56.15875-.08481,11.31055-.01442,22.62115-.00158c-3.39192-1.73019-6.786-3.27976-9.41057-6.05593-7.69356-8.138-10.25888-18.37-11.23245-29.02945a66.07978,66.07978,0,0,1,1.81783-23.13083c2.6028-9.75526,7.41356-17.90911,16.44286-23.11964C215.783,195.04214,217.50525,195.46086,218.71876,194.31976Z" transform="translate(-88 -83)"/><path class="cls-6" d="M218.71876,194.31976c-1.21351,1.1411-2.93574.72238-4.34073,1.53316-9.0293,5.21053-13.84006,13.36438-16.44286,23.11964a66.07978,66.07978,0,0,0-1.81783,23.13083c.97357,10.65941,3.53889,20.89141,11.23245,29.02945,2.62452,2.77617,6.01865,4.32574,9.41057,6.05593q-11.31057,0-22.62115.00158-28.08025.03583-56.15875.08481c-7.9701-1.544-13.4615-6.478-16.84165-13.49334-7.37322-15.30278-7.59337-31.28426-3.318-47.45077,1.84523-6.97732,5.88611-12.73613,10.99839-17.73632,2.21627-2.16769,5.33307-2.75782,7.94776-4.24036a1.20356,1.20356,0,0,0,.3833-.17916q38.26887.00357,76.53773.013C215.365,194.18894,217.04185,194.274,218.71876,194.31976Z" transform="translate(-88 -83)"/><path class="cls-7" d="M138.26023,277.59572q16.37329.08675,32.74656.17754c1.57327.00944,3.14621.07318,4.71853.11187-10.17742,2.28766-13.94342,10.73186-17.39926,18.98535-3.90144,9.3177-5.57533,19.2659-6.586,29.34737a200.65133,200.65133,0,0,0-.46647,26.15425c.439,14.49114,3.14218,28.61031,9.49149,41.74132,2.65469,5.49019,6.49529,10.28163,12.71705,12.35969.2005.067.26869.53131.399.81036-13.776.01845-27.55273.087-41.32888.02867-4.95073-.021-8.78325-2.52091-11.99554-6.12136-6.33069-7.09563-9.06059-15.89662-10.9341-24.84635a159.99656,159.99656,0,0,1,1.30866-72.91928,53.30035,53.30035,0,0,1,10.53409-20.60887,13.74789,13.74789,0,0,1,10.17353-5.07168C133.84256,277.62872,136.05291,277.64117,138.26023,277.59572Z" transform="translate(-88 -83)"/><path class="cls-2" d="M404.70834,259.14376c-5.04258-.07321-10.08512-.20855-15.12771-.21009-51.60666-.01565-103.21376-.11178-154.81956.09871-7.89559.03218-11.9275-3.43378-14.47488-10.46982-.63954-1.76647-.972-3.64445-1.44605-5.47164,1.16566-.16,1.39022-1.12365,1.7379-2.0062,3.06437-7.77856,6.39146-10.03843,14.77228-10.03849q86.149-.00072,172.298-.00555c1.15382-.00014,2.30764-.0944,3.46145-.14474a64.03028,64.03028,0,0,1-1.78135,21.396A11.58443,11.58443,0,0,1,404.70834,259.14376Z" transform="translate(-88 -83)"/><path class="cls-8" d="M178.74157,379.13079c-2.5889-2.90938-2.80955-6.70812-3.43587-10.21206a155.67325,155.67325,0,0,1-1.9024-35.79317c.57854-10.77857,1.76786-21.53507,6.58727-31.50124,1.87275-3.87269,4.70428-5.52249,8.998-5.51927q100.52622.07557,201.05256.02026c1.89339-.00023,3.78676-.036,5.67722-.0556,3.16711,3.5717,3.69751,8.09509,4.10359,12.51531.20107,2.1889,1.56922,4.122,1.10661,6.37521-1.3661.04371-2.73024.12735-4.09438.12748q-100.6233.00955-201.24652-.05009c-7.40594-.01048-9.20246.16017-12.75461,9.30652-2.81772,7.25535-3.79922,15.03783-4.41506,22.76753a222.544,222.544,0,0,0-.1006,27.67688C178.38336,376.25584,179.22147,377.62984,178.74157,379.13079Z" transform="translate(-88 -83)"/><path class="cls-9" d="M374.69331,129.22325q-105.81149.007-211.62287-.04874c-5.79827-.00755-9.44876,2.31819-11.87516,7.475-2.21426,4.70589-3.135,9.71943-4.30738,14.69173a73.37405,73.37405,0,0,1,1.77626-26.79155c1.03424-3.92079,3.14331-7.30913,5.08-10.76938a6.38882,6.38882,0,0,1,4.99853-2.92151q104.84286-.00656,209.68524-.01348c1.84526.27608,2.63851,1.71024,3.0265,3.21157,1.06189,4.10916,2.765,8.08651,2.64082,12.46436A11.18374,11.18374,0,0,0,374.69331,129.22325Z" transform="translate(-88 -83)"/><path class="cls-10" d="M411.10977,230.89594c-1.15381.05034-2.30763.1446-3.46145.14474q-86.149.01017-172.298.00555c-8.38082.00006-11.70791,2.25993-14.77228,10.03849-.34768.88255-.57224,1.84625-1.7379,2.0062-1.89693-8.13945-.4298-15.96494,2.83684-23.38719,2.04608-4.649,6.03485-7.078,11.35726-7.06037,15.56981.05157,31.13992.018,46.70989.014q60.43876-.01551,120.87754-.031c1.26136-.00024,2.52271.04673,3.7844.07167,5.2962,3.03658,5.11634,8.61421,6.219,13.57023A38.89635,38.89635,0,0,1,411.10977,230.89594Z" transform="translate(-88 -83)"/><path class="cls-11" d="M137.1503,194.17521a1.2038,1.2038,0,0,1-.3833.17917c-3.46617-.05052-6.94338-.30326-10.3965-.11436-11.17247.61118-18.63557-6.15579-22.74321-16.20224-8.59541-21.02259-8.44865-42.49739-2.20386-64.04883a33.7597,33.7597,0,0,1,15.95931-20.67118,12.2398,12.2398,0,0,1,6.12215-1.28767q10.725.01419,21.45144.042c-.00068.385,1.20359.39139.02767,1.24763-2.19089,1.59529-4.63711,2.79785-6.66289,4.67587a35.76808,35.76808,0,0,0-9.83628,16.26707,96.35144,96.35144,0,0,0-3.39168,42.99961c1.287,8.50127,3.40317,16.65851,7.40123,24.25506A25.13629,25.13629,0,0,0,146.291,193.55506C143.11215,194.27745,140.05872,193.24881,137.1503,194.17521Z" transform="translate(-88 -83)"/><path class="cls-12" d="M368.428,110.84529q-104.8425.00684-209.68524.01348c.74584-.83146,1.74489-.59779,2.66545-.59792q103.21242-.01389,206.42486-.00823c.20951,0,.419.03669.62873.05646A.99429.99429,0,0,0,368.428,110.84529Z" transform="translate(-88 -83)"/></svg>