<?xml version="1.0" encoding="utf-8"?>
<!-- Generator: Adobe Illustrator 18.0.0, SVG Export Plug-In . SVG Version: 6.00 Build 0)  -->
<!DOCTYPE svg PUBLIC "-//W3C//DTD SVG 1.1//EN" "http://www.w3.org/Graphics/SVG/1.1/DTD/svg11.dtd">
<svg version="1.1" id="Layer_1" xmlns="http://www.w3.org/2000/svg" xmlns:xlink="http://www.w3.org/1999/xlink" x="0px" y="0px"
	 viewBox="0 0 600 600" enable-background="new 0 0 600 600" xml:space="preserve">
<g>
	<path fill="#FFFFFF" d="M315.5,251.1c46.4-8,76.9-52.4,68.6-99.9c-8.3-48-51.9-79.6-98.7-71.5c-23.1,4-41.7,15.4-55.2,34.7
		c-16.1,22.9-19,48.2-12.1,75.4C227,225.4,266.4,260.3,315.5,251.1z"/>
	<path fill="#FFFFFF" d="M512.3,157.6l-63.5-9.1c-0.3,11.4-1.8,22.9-4.8,34.4C423.1,262,341.8,309.4,262.8,288.5
		c-69.3-18.3-114.2-82.9-110.2-151.8l-62,4.5c-0.1,0-11.6,0.9-11.9,12.5c3.8,95,68.7,180.7,165.3,206.1c9.5,2.5,18.9,4.3,28.4,5.5
		c8.4,65.5,48.1,127.4,107.2,160.1c12,6.7,24.8,11.8,37.6,17.9c5.7-21.8,10.8-41.1,15.9-60.2c-64.1-25.6-93.3-80.6-97.5-118.8
		c84.1-13.6,156.7-75.1,179.7-162.7c2.8-10.6,4.7-21.2,5.9-31.8C522,159.4,512.3,157.6,512.3,157.6z"/>
</g>
</svg>
