<svg width="512" height="512" viewBox="0 0 512 512" fill="none" xmlns="http://www.w3.org/2000/svg">
<rect width="512" height="512" fill="black"/>
<rect x="2.5" y="2.5" width="123" height="251" transform="translate(54 128)" stroke="white" stroke-width="5"/>
<path d="M22.8867 48.9297H16.207V67H3.86719V15.8125H24.0117C30.082 15.8125 34.8281 17.1602 38.25 19.8555C41.6719 22.5508 43.3828 26.3594 43.3828 31.2812C43.3828 34.8438 42.6562 37.7969 41.2031 40.1406C39.7734 42.4844 37.5234 44.3828 34.4531 45.8359L45.1406 66.4727V67H31.9219L22.8867 48.9297ZM16.207 39.4023H24.0117C26.3555 39.4023 28.1133 38.793 29.2852 37.5742C30.4805 36.332 31.0781 34.6094 31.0781 32.4062C31.0781 30.2031 30.4805 28.4805 29.2852 27.2383C28.0898 25.9727 26.332 25.3398 24.0117 25.3398H16.207V39.4023Z" transform="translate(95 214)" fill="white"/>
<rect x="2.5" y="2.5" width="123" height="251" transform="translate(192 128)" stroke="white" stroke-width="5"/>
<path d="M16.207 49.6328V67H3.86719V15.8125H24.293C28.207 15.8125 31.6641 16.5391 34.6641 17.9922C37.6875 19.4219 40.0195 21.4727 41.6602 24.1445C43.3242 26.793 44.1562 29.8047 44.1562 33.1797C44.1562 38.1719 42.3633 42.168 38.7773 45.168C35.2148 48.1445 30.3164 49.6328 24.082 49.6328H16.207ZM16.207 40.1055H24.293C26.6836 40.1055 28.5 39.5078 29.7422 38.3125C31.0078 37.1172 31.6406 35.4297 31.6406 33.25C31.6406 30.8594 30.9961 28.9492 29.707 27.5195C28.418 26.0898 26.6602 25.3633 24.4336 25.3398H16.207V40.1055Z" transform="translate(233 214)" fill="white"/>
<rect x="2.5" y="2.5" width="123" height="251" transform="translate(330 128)" stroke="white" stroke-width="5"/>
<path d="M45.7734 60.6719C43.875 62.7812 41.0977 64.4805 37.4414 65.7695C33.7852 67.0586 29.7773 67.7031 25.418 67.7031C18.7148 67.7031 13.3594 65.6523 9.35156 61.5508C5.34375 57.4492 3.19922 51.7422 2.91797 44.4297L2.88281 40C2.88281 34.9609 3.77344 30.5664 5.55469 26.8164C7.33594 23.043 9.87891 20.1484 13.1836 18.1328C16.5117 16.0938 20.3555 15.0742 24.7148 15.0742C31.0898 15.0742 36.0352 16.5391 39.5508 19.4688C43.0898 22.375 45.1523 26.7227 45.7383 32.5117H33.8555C33.4336 29.6523 32.5195 27.6133 31.1133 26.3945C29.707 25.1758 27.7148 24.5664 25.1367 24.5664C22.043 24.5664 19.6523 25.8789 17.9648 28.5039C16.2773 31.1289 15.4219 34.8789 15.3984 39.7539V42.8477C15.3984 47.957 16.2656 51.8008 18 54.3789C19.7578 56.9336 22.5117 58.2109 26.2617 58.2109C29.4727 58.2109 31.8633 57.4961 33.4336 56.0664V48.1211H24.8555V39.6484H45.7734V60.6719Z" transform="translate(371 214)" fill="white"/>
</svg>
