<?xml version="1.0" encoding="UTF-8" standalone="no"?>
<!DOCTYPE svg PUBLIC "-//W3C//DTD SVG 1.1//EN" "http://www.w3.org/Graphics/SVG/1.1/DTD/svg11.dtd">
<svg version="1.1" xmlns="http://www.w3.org/2000/svg" xmlns:xlink="http://www.w3.org/1999/xlink" preserveAspectRatio="xMidYMid meet" viewBox="179.55703983296488 277.25798259805026 228.8782637236537 228.66826668572946" width="224.88" height="224.67"><defs><path d="M325.57 341.15L322.25 348.05L318.23 341.73L314.21 335.4L321.56 334.82L328.9 334.25L325.57 341.15Z" id="ae2HX6QsW"></path><path d="M343.49 278.43C354.01 280.05 368.3 305.37 368.3 341.07C368.3 345.94 381.06 388.37 381.03 392.99C380.43 491.01 359.49 487.87 294.41 487.87C229.32 487.87 202.23 489.91 203.8 392.99C203.87 388.43 216.89 345.94 216.89 341.07C216.89 304.82 236.16 279.65 246.98 278.37C268.46 275.81 249.09 319.49 294.41 319.49C340.07 319.49 322.13 275.15 343.49 278.43Z" id="b8jNY31Ae"></path><path d="M352.15 346.06C351.61 363.45 337.04 377.07 319.64 376.47C302.24 375.87 288.55 361.27 289.09 343.89C289.63 326.5 304.2 312.88 321.6 313.48C339 314.07 352.69 328.68 352.15 346.06Z" id="h10fhneklW"></path><path d="M346.04 344.69C346.04 357.86 334.53 368.55 320.36 368.55C306.19 368.55 294.69 357.86 294.69 344.69C294.69 331.51 306.19 320.82 320.36 320.82C334.53 320.82 346.04 331.51 346.04 344.69Z" id="calx6he9S"></path><path d="M294.75 346.06C294.2 363.45 279.64 377.07 262.23 376.47C244.83 375.87 231.15 361.27 231.69 343.89C232.23 326.5 246.8 312.88 264.2 313.48C281.6 314.07 295.29 328.68 294.75 346.06Z" id="e77x08It9V"></path><path d="M324.4 340.18C325.86 342.53 334.85 340.67 334.85 343.77C334.85 351.79 329.05 358.31 321.92 358.31C314.78 358.31 308.99 351.79 308.99 343.77C308.99 335.74 314.78 329.22 321.92 329.22C326.31 329.22 322.06 336.41 324.4 340.18Z" id="i3Y1DFUvqm"></path><path d="M336.58 416.01C336.58 420.21 334.5 423.62 331.93 423.62C329.36 423.62 327.27 420.21 327.27 416.01C327.27 411.81 329.36 408.41 331.93 408.41C334.5 408.41 336.58 411.81 336.58 416.01Z" id="blRDYkZEx"></path><path d="M272.53 453.35C272.53 457.54 270.44 460.95 267.87 460.95C265.3 460.95 263.22 457.54 263.22 453.35C263.22 449.15 265.3 445.74 267.87 445.74C270.44 445.74 272.53 449.15 272.53 453.35Z" id="deBvNlSDn"></path><path d="M350.69 445.77C350.69 449.97 348.6 453.38 346.04 453.38C343.47 453.38 341.38 449.97 341.38 445.77C341.38 441.57 343.47 438.16 346.04 438.16C348.6 438.16 350.69 441.57 350.69 445.77Z" id="fe7wRua0K"></path><path d="M251.29 445.34C251.63 449.52 249.83 453.1 247.27 453.33C244.71 453.57 242.35 450.36 242.01 446.17C241.67 441.99 243.47 438.41 246.03 438.18C248.59 437.94 250.94 441.15 251.29 445.34Z" id="eXF2ZRf1A"></path><path d="M260.64 416.4C260.64 420.6 258.55 424 255.98 424C253.41 424 251.33 420.6 251.33 416.4C251.33 412.2 253.41 408.79 255.98 408.79C258.55 408.79 260.64 412.2 260.64 416.4Z" id="a3RCFWVc0H"></path><path d="M285.46 419.18C285.46 423.38 283.37 426.79 280.8 426.79C278.23 426.79 276.15 423.38 276.15 419.18C276.15 414.99 278.23 411.58 280.8 411.58C283.37 411.58 285.46 414.99 285.46 419.18Z" id="c8lVUMDtYt"></path><path d="M310.99 420.6C310.99 424.8 308.9 428.21 306.33 428.21C303.77 428.21 301.68 424.8 301.68 420.6C301.68 416.41 303.77 413 306.33 413C308.9 413 310.99 416.41 310.99 420.6Z" id="c1oQtWkEyb"></path><path d="M337.26 491.73C338.97 496.82 339.27 501.36 337.92 501.86C336.58 502.36 334.09 498.64 332.38 493.55C330.67 488.46 330.37 483.92 331.72 483.42C333.06 482.92 335.54 486.65 337.26 491.73Z" id="b1g9mYhTc5"></path><path d="M285.92 382.38L279.45 369.34L292.38 369.34L305.31 369.34L298.85 382.38L292.38 395.42L285.92 382.38Z" id="b24J137RKP"></path><path d="M258.4 494.79C256.23 499.69 253.42 503.14 252.13 502.51C250.83 501.88 251.55 497.39 253.72 492.5C255.89 487.6 258.7 484.15 259.99 484.78C261.28 485.41 260.57 489.9 258.4 494.79Z" id="b2jWxCyJIO"></path><path d="M249.91 493.01C247.82 497.94 245.06 501.44 243.76 500.83C242.46 500.22 243.1 495.72 245.19 490.79C247.29 485.86 250.04 482.36 251.35 482.97C252.65 483.58 252.01 488.08 249.91 493.01Z" id="a3kan0xey"></path><path d="M329.67 492.78C331.61 497.78 332.11 502.3 330.79 502.87C329.46 503.43 326.82 499.83 324.88 494.84C322.94 489.84 322.44 485.32 323.76 484.75C325.08 484.19 327.73 487.79 329.67 492.78Z" id="b3vBvA16M"></path><path d="M374.14 366.81C355.99 377.97 344.65 384.94 340.11 387.73C316.6 402.2 287.97 404.04 259.22 393.22C255.67 391.88 252.12 390.35 248.57 388.63C247.05 387.89 243.24 386.04 237.16 383.08L207.28 368.55" id="a1nP0E5XJA"></path><path d="M289.12 345.47C289.12 358.65 277.61 369.34 263.44 369.34C249.27 369.34 237.77 358.65 237.77 345.47C237.77 332.3 249.27 321.61 263.44 321.61C277.61 321.61 289.12 332.3 289.12 345.47Z" id="g23TLjUJUI"></path><path d="M265.7 340.18C267.16 342.53 276.15 340.67 276.15 343.77C276.15 351.79 270.35 358.31 263.22 358.31C256.08 358.31 250.29 351.79 250.29 343.77C250.29 335.74 256.08 329.22 263.22 329.22C267.61 329.22 263.36 336.41 265.7 340.18Z" id="e26ArJIoSz"></path><path d="M396.46 413.98C404.16 437.88 411.27 459.18 398.14 463.85C385.01 468.52 368.11 452.9 360.41 429.01C352.72 405.11 357.13 381.92 370.25 377.25C383.38 372.58 388.76 390.08 396.46 413.98Z" id="a1z6WdT2d"></path><path d="M186.56 419.52C192.64 395.12 197.86 373.21 211.26 376.9C224.67 380.59 230.61 403.4 224.53 427.81C218.44 452.21 202.62 469.03 189.21 465.34C175.81 461.65 180.47 443.93 186.56 419.52Z" id="c4joaNOjqX"></path><path d="M326.8 453.36C326.8 457.56 324.71 460.97 322.15 460.97C319.58 460.97 317.49 457.56 317.49 453.36C317.49 449.16 319.58 445.76 322.15 445.76C324.71 445.76 326.8 449.16 326.8 453.36Z" id="k4Cpkm3oA"></path><path d="M298.82 457.37C298.82 461.57 296.74 464.97 294.17 464.97C291.6 464.97 289.51 461.57 289.51 457.37C289.51 453.17 291.6 449.76 294.17 449.76C296.74 449.76 298.82 453.17 298.82 457.37Z" id="b4oKxKbZhz"></path></defs><g><g><use xlink:href="#ae2HX6QsW" opacity="1" fill="#f7fbf8" fill-opacity="1"></use></g><g><use xlink:href="#b8jNY31Ae" opacity="1" fill="#808687" fill-opacity="1"></use></g><g><use xlink:href="#h10fhneklW" opacity="1" fill="#bcc928" fill-opacity="1"></use></g><g><use xlink:href="#calx6he9S" opacity="1" fill="#f9f9ef" fill-opacity="1"></use></g><g><use xlink:href="#e77x08It9V" opacity="1" fill="#bcc928" fill-opacity="1"></use></g><g><use xlink:href="#i3Y1DFUvqm" opacity="1" fill="#0c0c0c" fill-opacity="1"></use></g><g><use xlink:href="#blRDYkZEx" opacity="1" fill="#080808" fill-opacity="1"></use></g><g><use xlink:href="#deBvNlSDn" opacity="1" fill="#080808" fill-opacity="1"></use></g><g><use xlink:href="#fe7wRua0K" opacity="1" fill="#080808" fill-opacity="1"></use></g><g><use xlink:href="#eXF2ZRf1A" opacity="1" fill="#080808" fill-opacity="1"></use></g><g><use xlink:href="#a3RCFWVc0H" opacity="1" fill="#080808" fill-opacity="1"></use></g><g><use xlink:href="#c8lVUMDtYt" opacity="1" fill="#080808" fill-opacity="1"></use></g><g><use xlink:href="#c1oQtWkEyb" opacity="1" fill="#080808" fill-opacity="1"></use></g><g><use xlink:href="#b1g9mYhTc5" opacity="1" fill="#050505" fill-opacity="1"></use></g><g><use xlink:href="#b24J137RKP" opacity="1" fill="#401003" fill-opacity="0.61"></use></g><g><use xlink:href="#b2jWxCyJIO" opacity="1" fill="#050505" fill-opacity="1"></use></g><g><use xlink:href="#a3kan0xey" opacity="1" fill="#050505" fill-opacity="1"></use></g><g><use xlink:href="#b3vBvA16M" opacity="1" fill="#050505" fill-opacity="1"></use></g><g><g><use xlink:href="#a1nP0E5XJA" opacity="1" fill-opacity="0" stroke="#f8f9f1" stroke-width="1" stroke-opacity="1"></use></g></g><g><use xlink:href="#g23TLjUJUI" opacity="1" fill="#f9f9ef" fill-opacity="1"></use></g><g><use xlink:href="#e26ArJIoSz" opacity="1" fill="#0c0c0c" fill-opacity="1"></use></g><g><use xlink:href="#a1z6WdT2d" opacity="1" fill="#cbcbc4" fill-opacity="1"></use></g><g><use xlink:href="#c4joaNOjqX" opacity="1" fill="#cbcbc4" fill-opacity="1"></use></g><g><use xlink:href="#k4Cpkm3oA" opacity="1" fill="#080808" fill-opacity="1"></use></g><g><use xlink:href="#b4oKxKbZhz" opacity="1" fill="#080808" fill-opacity="1"></use></g></g></svg>