<svg width="680pt" height="680pt" viewBox="0 0 680 680" xmlns="http://www.w3.org/2000/svg"><path fill="#fff" d="M126.85 185.86c13.88-4.33 29.16-3.43 42.71 1.7 15.76 5.67 29.11 16.3 40.83 28.03 7.06 6.66 13.93 13.7 22.34 18.69 22.53 12.89 49.23 15.1 72.46 26.38 9.69 4.13 18.93 9.23 28.53 13.57 20.84 10.12 43.55 15.47 64.87 24.41 10.35 4.02 19.99 9.67 30.29 13.8 16.37 6.46 34.06 7.91 51.27 10.8 12.22 2.02 24.72 3.07 36.52 7 4.94 1.75 9.63 4.6 12.55 9.07-13.48 2.48-26.98 4.84-40.37 7.71 38.6.59 76.88 6.03 115.21 10.19 9.9 1.48 19.93.85 29.89 1.42 5.95.46 12.67 2.11 16.09 7.47 1.92 3.65.87 8.21-1.46 11.42 1.08 1.81 3.28 4.41 1.22 6.38-2.33 1.67-5.34 1.47-8.06 1.61 4.4.34 10.55.55 12.5 5.34-2.78 3.23-7.26 3.68-11.24 3.82-19.43-.24-38.76-2.33-58.03-4.65-28.27-3.48-56.68-5.5-85.04-8-4.62-.33-9.29-1.12-13.9-.32-8 1.48-15.45 4.86-23.2 7.18-17.11 5.09-35.6 3.33-52.43 9.59-9.22 3.22-15.65 10.92-23.35 16.53-18.13 14.08-38.94 24.19-60.04 32.97-9.5 3.75-17.18 10.7-24.8 17.28-10.37 9.67-20.59 19.84-27.98 32.05-2.46 3.81-2.97 8.48-5.32 12.37 8.82-.82 17.23-3.89 25.92-5.43 4.33-.52 9.44-1.23 13 1.92 2.34 2.02 2.62 5.27 2.97 8.14-2.41-2.21-4.85-5.54-8.55-5.15-3.98 1.46-6.3 5.57-10.32 7.01-5.83 2.17-12.24 1.93-18.18 3.67-4.16 1.46-8.58 2.8-11.85 5.93-2.9 2.85-5.47 6.05-7.68 9.47-6.43 9.73-13.53 18.99-21.22 27.76 2.86-14.57 16.16-24.83 17.58-39.86-12.09 3.71-23.98 8.26-36.45 10.59-6.7 1.3-13.5-.19-20.23.38-4.25.37-7.88 2.78-10.96 5.55.67-3.84 2.64-7.64 6.23-9.46 11.75-6.13 25.99-2.24 37.73-8.35-4.66.44-8.03-2.99-11.93-4.81-3.34-1.39-6.07 1.69-8.38 3.59 1.36-2.99 3.23-6.14 6.51-7.26 10.8-3.33 21.66 4.39 32.43 1.01 6.82-2.88 11.98-8.53 16.83-13.94 13.94-15.79 29.69-30.07 41.57-47.58-7.21-.45-14.43-.31-21.62.33l.72 2.95c-1.61-.74-3.17-1.75-4.96-1.93-2.7-.19-4.02 2.63-6.02 3.92-7.67 4.17-16.64 3.67-25.08 4.36-4.9.45-10.18.16-14.52 2.88-5.74 3.58-8.62 10.07-13.67 14.4-3.25 3.4-7.83 5.51-10.3 9.62-1.44 2.24-.4 4.89.42 7.14-2.63-1.58-5.68-4.05-4.82-7.54 2.65-10.63 13.45-16.53 17.15-26.65-12.04 2.01-24.07 4.13-36.09 6.31-8.77 1.92-17.73 3.69-25.79 7.79-1.63.81-2.93 2.1-4.22 3.36.38-3.95 2.2-7.83 5.69-9.93 11.03-7.32 24.78-7.54 37.48-9.03-1.36-1.36-3.4-1.37-5.1-2-4.75-1.34-9.09-4.61-14.21-4.21-2.2.16-3.85 1.7-5.51 2.96.66-3.49 2.69-7.25 6.61-7.65 9.06-1.52 16.93 4.97 25.85 5.1 5.77.26 11.28-1.72 16.63-3.64 4.26-1.58 8.73-2.44 13.11-3.61-33.91-4.9-66.25-20.73-90.49-45-17.36-17.37-30.41-39.45-35.32-63.64-2.19-10.53-2.85-21.36-2.12-32.09 1.17-18.93 6.16-38.19 1.4-57-2.79-13.37-12.21-24.9-24.44-30.84-9.95-4.75-20.41-8.39-30.7-12.33 3-2.54 6.26-4.83 10.09-5.91 10.95-3.33 22.56-.95 33.73-2.65 10.51-1.99 18.94-9.27 29.02-12.46z"/></svg>