<?xml version="1.0" encoding="UTF-8" standalone="no"?>
<svg width="512px" height="512px" viewBox="0 0 512 512" version="1.1" xmlns="http://www.w3.org/2000/svg" xmlns:xlink="http://www.w3.org/1999/xlink" style="background: #5F7995;">
    <title>Resilient Web Design</title>
    <defs></defs>
    <g id="Page-1" stroke="none" stroke-width="1" fill="none" fill-rule="evenodd">
        <g id="512" fill="#FFFFFF">
            <path d="M112.72,165.28 C112.72,159.52 109.84,153.52 105.88,150.28 C101.08,146.32 94.6,145.24 86.32,145.24 C79.84,145.24 71.32,145.84 66.88,145.84 L60.16,145.84 C57.52,145.84 56.92,146.44 56.92,147.28 C56.92,148.24 58,148.84 59.8,149.32 C65.2,150.64 66.28,150.88 66.76,155.32 C67.24,160 67.48,170.92 67.48,189.4 C67.48,196.6 67,209.32 66.76,213.04 C66.4,217.6 64.24,218.32 58.96,220 C57.4,220.6 56.32,220.84 56.32,221.8 C56.32,223 57.88,223.48 59.44,223.48 C60.76,223.48 67,223 69.16,223 C77.32,223 79.6,223.72 84.64,223.72 C85.24,223.72 87.52,223.36 87.52,222.16 C87.52,221.56 86.68,220.72 84.64,220.12 C79,218.8 77.68,217.12 77.44,212.08 C77.08,205.12 76.84,189.88 76.96,187.84 C76.96,187.48 77.56,186.4 78.4,186.4 C82,186.4 86.44,187.48 86.92,187.96 C87.64,188.44 90.04,191.44 91.72,193.96 C96.52,201.52 102.64,210.76 106.84,216.52 C110.32,220.96 117.16,224.32 122.8,224.32 C125.32,224.32 127.96,224.08 129.4,223.48 C130.12,223.12 131.08,222.64 131.08,221.92 C131.08,221.44 130.12,220.48 129.16,220.24 C123.88,219.16 120.64,217 117.4,213.16 C110.08,205 100,188.8 98.8,185.92 C98.56,185.44 98.92,184.36 99.28,184.12 C100.12,183.52 102.4,182.44 103,182.08 C108.88,178.48 112.72,171.76 112.72,165.28 Z M102.04,165.52 C102.04,173.08 97.36,178.36 94.12,180.4 C92.44,181.48 86.08,183.52 79.12,183.52 C78.4,183.52 77.44,182.68 77.2,181.72 C76.84,179.68 77.2,156.52 77.56,152.32 C77.56,151.84 78.4,150.04 79,149.8 C80.32,149.2 84.16,148.96 84.76,148.96 C88.6,148.96 93.76,150.76 96.64,153.52 C100.12,157 102.04,162.64 102.04,165.52 Z M157.52,174.64 C155.48,174.64 151.52,175.36 148.4,176.8 C139.04,181.12 134,190.72 134,200.32 C134,214.36 142.64,224.2 155.6,224.2 C162.44,224.2 168.8,221.32 173,215.2 C173.36,214.6 173.84,213.28 173.84,212.32 C173.84,211.72 173.6,210.88 172.88,210.88 C172.4,210.88 171.8,211.6 171.32,212.32 C169.28,215.32 165.68,216.64 160.4,216.64 C154.64,216.64 149.6,213.64 146.96,210.04 C144.32,206.56 142.4,201.04 142.4,196.36 C142.4,195.16 142.64,193.12 143,192.16 C143.12,191.8 143.6,191.2 143.96,191.2 C149.48,191.32 170,191.32 171.32,191.32 C172.64,191.32 173.6,190 173.6,189.28 C173.6,185.08 172.04,181.72 169.4,179.2 C166.4,176.2 161.72,174.64 157.52,174.64 Z M156.32,177.76 C160.64,177.76 164.24,181.6 164.24,184.96 C164.24,187.36 163.04,187.96 160.16,187.96 C154.16,188.08 147.8,188.08 144.68,187.96 C144.44,187.96 143.96,187.24 144.2,186.64 C146.36,181.12 150.92,177.76 156.32,177.76 Z M200.28,174.52 C196.2,174.52 192.96,175.6 190.68,177.04 C186.12,179.8 184.08,183.76 184.08,187.84 C184.08,193.48 187.92,197.68 191.52,199.96 C195.24,202.36 195.96,202.96 198.84,205 C202.56,207.28 204.24,209.8 204.24,213.04 C204.24,215.32 203.28,218.2 201.48,219.64 C200.16,220.6 198.24,221.44 196.68,221.44 C192.36,221.44 189.12,219.04 185.76,212.92 C185.04,211.6 184.2,210.16 183.24,210.16 C182.52,210.16 182.28,211.36 182.28,212.68 C182.28,216.16 183.72,221.2 184.08,221.8 C186.12,223.48 192.12,224.44 195.72,224.44 C199.44,224.44 203.64,223.12 205.8,221.68 C208.8,219.52 212.76,215.44 212.76,209.92 C212.76,204.52 210.12,200.44 203.4,196.48 C195.36,192.04 191.52,188.92 191.52,184.84 C191.52,182.32 193.8,177.4 198.72,177.4 C202.68,177.4 205.68,179.8 208.32,185.44 C208.92,186.76 209.64,187.48 210.12,187.48 C211.08,187.48 211.56,186.4 211.56,185.32 C211.56,184.48 211.2,180.4 211.2,178.24 C211.2,177.52 210.48,176.68 210.24,176.56 C210,176.44 207.72,175.48 206.4,175.24 C205.08,174.88 202.56,174.52 200.28,174.52 Z M223,180.16 C223,180.64 223.24,181 223.96,181.48 C227.44,184 228.76,184.96 228.88,185.8 C229.12,187.24 229,204.28 229,204.52 C229,208 228.88,215.2 228.52,216.88 C228.28,218.08 226.48,219.52 223.72,220.24 C221.68,220.84 220.84,221.44 220.84,222.16 C220.84,223 222.04,223.48 223.96,223.48 C226,223.48 230.2,223 234.16,223 C236.68,223 242.68,223.36 243.52,223.36 C244.84,223.36 246.28,222.88 246.28,222.16 C246.28,221.32 245.56,220.72 243.64,220.12 C240.64,219.16 238,218.92 237.88,215.08 C237.76,210.88 237.64,205.84 237.64,199.12 C237.64,192.28 238.36,176.68 238.36,175.36 C238.36,175.24 237.76,174.04 237.28,174.04 C235.48,174.52 229.84,177.16 225.4,178.12 C224.08,178.36 223,179.32 223,180.16 Z M233.92,150.16 C232.24,150.16 230.44,150.64 229.24,151.72 C228.28,153.04 227.8,154.96 227.8,156.04 C227.8,158.08 228.64,159.4 229.6,160.48 C230.68,161.44 232.6,161.92 233.44,161.92 C235.84,161.92 239.2,159.28 239.2,156.04 C239.2,153.88 237.16,150.16 233.92,150.16 Z M253.88,143.8 C253.88,144.28 254.24,144.64 256.28,146.08 C259.04,147.76 259.16,148.48 259.16,149.44 C259.16,153.04 259.52,165.64 259.52,174.52 C259.52,193.48 258.92,206.44 258.68,211 C258.32,217 258.08,219.16 252.56,220.36 C251.24,220.6 249.92,221.2 249.92,222.04 C249.92,223 250.88,223.36 253.28,223.36 C255.8,223.36 261.08,223 263.84,223 C266,223 271.16,223.36 274.04,223.36 C275.48,223.36 277.16,222.88 277.16,222.04 C277.16,221.32 276.2,220.72 274.4,220.24 C269.24,218.8 268.76,217.36 268.28,214.96 C267.68,211.72 267.92,188.8 267.92,171.28 C267.92,155.2 268.64,141.64 269,138.64 C269,138.16 268.28,137.2 267.92,137.44 C264.68,139.48 261.08,140.2 255.56,142.12 C254.24,142.48 253.88,143.32 253.88,143.8 Z M285.36,180.16 C285.36,180.64 285.6,181 286.32,181.48 C289.8,184 291.12,184.96 291.24,185.8 C291.48,187.24 291.36,204.28 291.36,204.52 C291.36,208 291.24,215.2 290.88,216.88 C290.64,218.08 288.84,219.52 286.08,220.24 C284.04,220.84 283.2,221.44 283.2,222.16 C283.2,223 284.4,223.48 286.32,223.48 C288.36,223.48 292.56,223 296.52,223 C299.04,223 305.04,223.36 305.88,223.36 C307.2,223.36 308.64,222.88 308.64,222.16 C308.64,221.32 307.92,220.72 306,220.12 C303,219.16 300.36,218.92 300.24,215.08 C300.12,210.88 300,205.84 300,199.12 C300,192.28 300.72,176.68 300.72,175.36 C300.72,175.24 300.12,174.04 299.64,174.04 C297.84,174.52 292.2,177.16 287.76,178.12 C286.44,178.36 285.36,179.32 285.36,180.16 Z M296.28,150.16 C294.6,150.16 292.8,150.64 291.6,151.72 C290.64,153.04 290.16,154.96 290.16,156.04 C290.16,158.08 291,159.4 291.96,160.48 C293.04,161.44 294.96,161.92 295.8,161.92 C298.2,161.92 301.56,159.28 301.56,156.04 C301.56,153.88 299.52,150.16 296.28,150.16 Z M338.8,174.64 C336.76,174.64 332.8,175.36 329.68,176.8 C320.32,181.12 315.28,190.72 315.28,200.32 C315.28,214.36 323.92,224.2 336.88,224.2 C343.72,224.2 350.08,221.32 354.28,215.2 C354.64,214.6 355.12,213.28 355.12,212.32 C355.12,211.72 354.88,210.88 354.16,210.88 C353.68,210.88 353.08,211.6 352.6,212.32 C350.56,215.32 346.96,216.64 341.68,216.64 C335.92,216.64 330.88,213.64 328.24,210.04 C325.6,206.56 323.68,201.04 323.68,196.36 C323.68,195.16 323.92,193.12 324.28,192.16 C324.4,191.8 324.88,191.2 325.24,191.2 C330.76,191.32 351.28,191.32 352.6,191.32 C353.92,191.32 354.88,190 354.88,189.28 C354.88,185.08 353.32,181.72 350.68,179.2 C347.68,176.2 343,174.64 338.8,174.64 Z M337.6,177.76 C341.92,177.76 345.52,181.6 345.52,184.96 C345.52,187.36 344.32,187.96 341.44,187.96 C335.44,188.08 329.08,188.08 325.96,187.96 C325.72,187.96 325.24,187.24 325.48,186.64 C327.64,181.12 332.2,177.76 337.6,177.76 Z M364.52,180.28 C364.52,180.64 365.24,181.24 366.8,182.32 C369.44,184.48 369.68,185.68 369.68,187 C369.68,199.24 369.44,209.68 369.08,213.28 C368.72,217.6 368,218.8 364.04,220 C362.72,220.36 361.52,220.96 361.52,221.8 C361.52,222.88 362.84,223.36 364.64,223.36 C366.68,223.36 370.16,223 374.6,223 C377.12,223 380.48,223.12 381.92,223.12 C383.6,223.12 384.92,222.52 384.92,221.68 C384.92,220.96 383.96,220.24 382.76,219.88 C378.92,218.8 378.44,217.84 378.32,216.16 C378.2,214.72 378.2,188.92 378.2,187.36 C378.2,186.28 379.04,184.84 379.4,184.48 C381.68,182.44 384.8,180.64 390.08,180.64 C392.84,180.64 396.44,181.96 397.76,182.92 C399.2,184 401.36,187.48 401.36,191.8 C401.36,195.28 401.24,209.8 401,213.76 C400.76,217.72 400.16,218.68 397.28,219.76 C395.84,220.24 394.52,220.96 394.52,221.8 C394.52,222.76 396.2,223.24 397.28,223.24 C398.84,223.24 402.56,223 405.56,223 C408.92,223 411.68,223.24 414.44,223.24 C416.36,223.24 418.04,222.76 418.04,221.92 C418.04,221.08 417.32,220.48 415.04,219.88 C412.04,219.04 410.84,217.48 410.6,215.68 C410.48,214 410.24,196.12 410.24,193.84 C410.24,187.84 408.68,182.32 406.04,179.2 C404.36,177.28 401,174.64 395.12,174.64 C390.08,174.64 383.84,178 379.04,181.24 C378.92,181.24 378.32,181.48 378.32,180.88 C378.32,179.8 378.8,176.92 378.8,174.88 C378.8,174.4 378.2,173.08 377.6,173.08 C377,173.08 375.92,173.68 374.72,174.4 C373.04,175.6 368.72,177.16 366.68,177.88 C365.84,178.24 364.52,179.44 364.52,180.28 Z M441.36,176.2 C440.88,176.2 440.4,175.6 440.4,175.24 L440.4,169.6 C440.4,169.36 439.32,168.28 438.72,168.28 C438.24,168.28 437.4,169.24 435.96,170.92 C434.28,172.96 430.56,175.84 426.36,179.2 C426,179.56 425.64,180.04 425.64,180.52 C425.64,180.88 426.36,181.48 427.32,181.84 C429.72,182.56 431.88,183.4 431.88,184.24 C431.88,188.44 431.4,206.44 431.4,210.88 C431.4,214.24 431.64,216.76 432.96,218.8 C434.4,221.44 438.6,224.44 443.52,224.44 C448.92,224.44 453.12,222.28 456.36,219.16 C457.2,218.32 458.04,217.12 458.04,216.16 C458.04,215.08 457.44,214.84 457.32,214.84 C456.84,214.84 456.6,214.96 455.52,215.56 C453.72,216.64 451.2,217.36 449.64,217.36 C447.12,217.36 444.6,217.12 442.32,215.08 C441,213.76 440.28,212.2 440.28,209.2 C440.28,203.44 440.4,185.8 440.52,183.4 C440.52,183.16 441,182.56 441.6,182.56 L454.68,182.56 C455.52,182.56 457.8,182.32 457.8,181.24 C457.8,179.68 457.44,176.32 457.44,176.68 C457.44,176.32 456.24,175.72 456.12,175.72 C455.64,175.72 444,176.2 441.36,176.2 Z" id="Resilient"></path>
            <path d="M61.1,290 C58.9,290 56,289.6 54.3,289.6 C52.4,289.6 51.4,289.9 51.4,290.8 C51.4,291.4 52.5,292 53.9,292.3 C56.7,293 57.9,295.3 59.5,299 C61.6,303.9 67.4,318.4 68.1,320.4 C69.6,324.8 70.9,328.5 71.1,329 C71.5,330.2 72,330.5 72.9,330.5 C73.8,330.5 75,327.5 75.4,326.4 C78.4,318.9 82.1,311.2 84.5,306.2 C84.6,305.9 85.1,305.9 85.2,306.1 C86.9,310.2 90.1,318.2 91.4,321.4 C92.4,323.8 93.6,327.7 94,328.8 C94.6,329.6 95.4,330.3 95.9,330.3 C96.4,330.3 96.9,330.1 97.2,329.1 C98.2,325.8 99.7,322.5 101.4,318.3 C104.4,310.9 107.7,302.7 111,296.8 C112.6,294.1 113,293 116.3,292 C117.5,291.7 118.6,291.4 118.6,290.5 C118.6,289.9 117.7,289.5 116.5,289.5 C114.9,289.5 112.4,290 109.1,290 C107.6,290 104,289.7 102.9,289.7 C101.9,289.7 100.6,290.1 100.6,290.7 C100.6,291.6 102,292 102.9,292.3 C106.6,293.2 106.8,294.4 106.8,295.4 C106.8,296.3 106.2,298.5 105.1,301.4 C103.1,306.5 100.1,314.5 98.4,318.1 C98.1,318.7 97.7,318.9 97.5,318.2 C95.4,313.3 90.4,299.7 89.8,298.2 C89.1,296.3 88.6,295.3 88.6,294.6 C88.6,294.2 88.9,293 91.5,292.4 C93.2,292.1 93.9,291.5 93.9,290.8 C93.9,290.2 93,289.7 91.5,289.7 C89.3,289.7 86.3,290 84.5,290 C82.2,290 79.2,289.7 77.8,289.7 C76.1,289.7 75.4,290 75.4,290.7 C75.4,291.5 76.3,291.9 77.6,292.3 C79.9,292.9 80.7,294.5 81.8,296.5 C82.6,298 83.3,300.6 83.4,301.3 C83.4,301.7 83.4,302.2 82.9,303.3 C80.9,307.8 77,316.3 75.9,318.5 C75.7,319 75.3,319.1 75,318.5 C74.3,317.3 67.6,300.2 66.4,296.3 C65.5,294 66,292.8 68.2,292.4 C69.9,292 70.7,291.4 70.7,290.8 C70.7,290.3 69.9,289.7 68.1,289.7 C66.4,289.7 63.6,290 61.1,290 Z M140.3,288.7 C138.6,288.7 135.3,289.3 132.7,290.5 C124.9,294.1 120.7,302.1 120.7,310.1 C120.7,321.8 127.9,330 138.7,330 C144.4,330 149.7,327.6 153.2,322.5 C153.5,322 153.9,320.9 153.9,320.1 C153.9,319.6 153.7,318.9 153.1,318.9 C152.7,318.9 152.2,319.5 151.8,320.1 C150.1,322.6 147.1,323.7 142.7,323.7 C137.9,323.7 133.7,321.2 131.5,318.2 C129.3,315.3 127.7,310.7 127.7,306.8 C127.7,305.8 127.9,304.1 128.2,303.3 C128.3,303 128.7,302.5 129,302.5 C133.6,302.6 150.7,302.6 151.8,302.6 C152.9,302.6 153.7,301.5 153.7,300.9 C153.7,297.4 152.4,294.6 150.2,292.5 C147.7,290 143.8,288.7 140.3,288.7 Z M139.3,291.3 C142.9,291.3 145.9,294.5 145.9,297.3 C145.9,299.3 144.9,299.8 142.5,299.8 C137.5,299.9 132.2,299.9 129.6,299.8 C129.4,299.8 129,299.2 129.2,298.7 C131,294.1 134.8,291.3 139.3,291.3 Z M202.6,308.1 C202.6,302.4 200.5,296.8 196,293 C192.8,290.2 188.3,288.6 183.6,288.6 C180.3,288.6 175.5,289.8 172.2,292 C172.1,292.1 171.6,291.8 171.6,291.6 C171.4,290.5 171.4,285.6 171.4,283 C171.4,275 172,265.5 172.3,258.9 C172.3,258.5 171.6,257.6 171.2,257.6 C171,257.6 170,258 168.7,258.8 C166.7,260 163.3,260.9 160.5,261.9 C160.2,262 159.3,263.2 159.3,263.3 C159.3,263.8 159.8,264.1 161.3,265.2 C163.2,266.8 163.7,268.1 163.8,268.6 C164,270 164.3,284.8 164.3,294.3 C164.3,302.5 164.2,319.7 163.7,327.5 C163.7,328.2 163.9,328.8 164.3,328.8 C164.5,328.8 165.1,328.7 165.5,328.5 C166.3,328.1 167.2,328 167.6,328.2 C169.9,329 176.8,330.2 180.3,330.2 C183.8,330.2 189.8,329.1 193.9,325.7 C198.3,322.3 202.6,316.4 202.6,308.1 Z M194.3,310.2 C194.3,314.7 192.5,320.9 189.7,323.6 C187.4,325.7 184.7,327 183.6,327 C181.8,327 177.1,325.7 174.3,322.8 C173,321.5 172.4,319.9 172.3,317.8 C171.8,312.4 171.5,307 171.5,301.8 C171.5,299.7 171.6,296.9 171.7,296 C171.8,295.3 172.2,294.7 172.5,294.5 C173.3,293.9 175.2,293 178.5,293 C183.2,293 187.1,295 189.4,297.3 C192.8,301 194.3,306.6 194.3,310.2 Z M253.9,288.6 C251.2,288.6 245.3,289.6 240.7,292.4 C235.8,295.3 230.1,301 230.1,310.8 C230.1,315.8 231.7,320.9 234.9,324.5 C238,327.8 242.6,330 247.4,330 C250.7,330 255.8,329.1 260.4,325 C260.6,325 261,325.2 261,325.6 C261,327 260.8,328.8 260.8,329.7 C260.8,330.2 261.5,331 261.9,331 C262.4,331 263.2,330.8 265.5,330 C267.4,329.3 272.6,328.3 274.5,328 C275,327.9 276.2,326.2 276.2,325.5 C276.2,325.4 276,324.9 275.6,324.9 C274.6,325 271.3,325.7 270.2,325.7 C269.6,325.7 268.8,325.3 268.7,321.6 C268.6,319.7 268.4,319 268.4,298.8 C268.4,268.2 268.8,264.6 269.3,259.3 C269.4,258.4 268.8,257.7 268.5,257.7 C268.1,257.7 267.8,257.8 267.2,258 C264.6,259 259.3,260.5 257,260.8 C256.4,260.9 255.3,262.1 255.3,262.5 C255.3,262.7 255.4,262.9 256.3,263.4 C260.9,265.8 260.9,267 261,267.5 C261.3,269.9 261.6,285.2 261.1,287.9 C261,288.4 260.7,289.1 260.3,289 C259.1,288.8 257.5,288.6 253.9,288.6 Z M250.2,291.9 C252.2,291.9 256,293 258.8,295.8 C260,297 260.9,298.8 261,299.6 C261.3,304.3 261.4,309.8 261.3,316.2 C261.2,319.4 259.9,322.6 259.7,322.8 C257.9,324.1 255.6,325.2 252.4,325.2 C243.8,325.2 238.2,316 238.2,308 C238.2,302.4 240.5,297.3 242.4,295.4 C244.2,293.6 247,291.9 250.2,291.9 Z M300.3,288.7 C298.6,288.7 295.3,289.3 292.7,290.5 C284.9,294.1 280.7,302.1 280.7,310.1 C280.7,321.8 287.9,330 298.7,330 C304.4,330 309.7,327.6 313.2,322.5 C313.5,322 313.9,320.9 313.9,320.1 C313.9,319.6 313.7,318.9 313.1,318.9 C312.7,318.9 312.2,319.5 311.8,320.1 C310.1,322.6 307.1,323.7 302.7,323.7 C297.9,323.7 293.7,321.2 291.5,318.2 C289.3,315.3 287.7,310.7 287.7,306.8 C287.7,305.8 287.9,304.1 288.2,303.3 C288.3,303 288.7,302.5 289,302.5 C293.6,302.6 310.7,302.6 311.8,302.6 C312.9,302.6 313.7,301.5 313.7,300.9 C313.7,297.4 312.4,294.6 310.2,292.5 C307.7,290 303.8,288.7 300.3,288.7 Z M299.3,291.3 C302.9,291.3 305.9,294.5 305.9,297.3 C305.9,299.3 304.9,299.8 302.5,299.8 C297.5,299.9 292.2,299.9 289.6,299.8 C289.4,299.8 289,299.2 289.2,298.7 C291,294.1 294.8,291.3 299.3,291.3 Z M335.7,288.6 C332.3,288.6 329.6,289.5 327.7,290.7 C323.9,293 322.2,296.3 322.2,299.7 C322.2,304.4 325.4,307.9 328.4,309.8 C331.5,311.8 332.1,312.3 334.5,314 C337.6,315.9 339,318 339,320.7 C339,322.6 338.2,325 336.7,326.2 C335.6,327 334,327.7 332.7,327.7 C329.1,327.7 326.4,325.7 323.6,320.6 C323,319.5 322.3,318.3 321.5,318.3 C320.9,318.3 320.7,319.3 320.7,320.4 C320.7,323.3 321.9,327.5 322.2,328 C323.9,329.4 328.9,330.2 331.9,330.2 C335,330.2 338.5,329.1 340.3,327.9 C342.8,326.1 346.1,322.7 346.1,318.1 C346.1,313.6 343.9,310.2 338.3,306.9 C331.6,303.2 328.4,300.6 328.4,297.2 C328.4,295.1 330.3,291 334.4,291 C337.7,291 340.2,293 342.4,297.7 C342.9,298.8 343.5,299.4 343.9,299.4 C344.7,299.4 345.1,298.5 345.1,297.6 C345.1,296.9 344.8,293.5 344.8,291.7 C344.8,291.1 344.2,290.4 344,290.3 C343.8,290.2 341.9,289.4 340.8,289.2 C339.7,288.9 337.6,288.6 335.7,288.6 Z M354.4,293.3 C354.4,293.7 354.6,294 355.2,294.4 C358.1,296.5 359.2,297.3 359.3,298 C359.5,299.2 359.4,313.4 359.4,313.6 C359.4,316.5 359.3,322.5 359,323.9 C358.8,324.9 357.3,326.1 355,326.7 C353.3,327.2 352.6,327.7 352.6,328.3 C352.6,329 353.6,329.4 355.2,329.4 C356.9,329.4 360.4,329 363.7,329 C365.8,329 370.8,329.3 371.5,329.3 C372.6,329.3 373.8,328.9 373.8,328.3 C373.8,327.6 373.2,327.1 371.6,326.6 C369.1,325.8 366.9,325.6 366.8,322.4 C366.7,318.9 366.6,314.7 366.6,309.1 C366.6,303.4 367.2,290.4 367.2,289.3 C367.2,289.2 366.7,288.2 366.3,288.2 C364.8,288.6 360.1,290.8 356.4,291.6 C355.3,291.8 354.4,292.6 354.4,293.3 Z M363.5,268.3 C362.1,268.3 360.6,268.7 359.6,269.6 C358.8,270.7 358.4,272.3 358.4,273.2 C358.4,274.9 359.1,276 359.9,276.9 C360.8,277.7 362.4,278.1 363.1,278.1 C365.1,278.1 367.9,275.9 367.9,273.2 C367.9,271.4 366.2,268.3 363.5,268.3 Z M396.3,288.2 C392.4,288.2 388.9,289.3 386.1,291.4 C382.2,294.3 380,297.9 380,302.8 C380,310.1 384.8,313.9 387.6,315.5 C387.9,315.8 388.2,316.2 388,316.4 C386.4,318 382.1,320.4 380.6,321.6 C380.4,321.8 380.1,322.3 380.1,322.5 C380.1,325.7 381.5,328.5 383.5,329.9 C384.8,330.9 386.7,331.5 387.4,331.9 C387.7,332.1 387.9,332.4 387.7,332.6 C386.4,333.7 383.3,335.9 380.8,338 C379.9,338.7 377.9,339.9 377.9,344.3 C377.9,347.1 379.7,350.8 382.5,353 C386.7,356.1 391.4,356.7 395,356.7 C398.6,356.7 403.9,356 409.4,352.4 C413.7,349.6 418.8,344.5 418.8,337 C418.8,334.4 417.4,330.6 414.6,328.2 C412.8,326.8 410.6,325.9 409.8,325.8 C406.6,325.3 395.8,325.2 391.4,325 C390.3,324.9 387.3,323.1 387.3,320.5 C387.3,319.7 389.5,317.6 390.5,317.1 C390.9,316.9 391.4,316.9 392,317 C392.7,317 394.9,317.1 395.5,317.1 C397.9,317.1 402,316.7 406.4,313.3 C410.3,310.3 412,306.2 412,300.7 C412,299 411.7,297.2 411.2,295.7 C411.1,295.4 411.4,294.9 411.8,294.9 C414.3,295.1 417.9,295.1 418.5,295.1 C418.9,295.1 420.3,293.3 420.3,291.9 C420.3,291.5 420,290.9 419.4,290.8 C417.3,290.3 410,290.2 407.8,290 C407.1,289.9 406.1,289.6 405,289.4 C402.1,288.7 400.3,288.2 396.3,288.2 Z M395.5,290.6 C398.4,290.6 400.8,292.2 402.7,295 C404.3,297.4 404.9,300.7 404.9,302.5 C404.9,306.6 403.6,311.5 401.1,313.1 C399.7,314 398.5,314.5 397.8,314.5 C391.3,314.5 387.9,307 387.9,302 C387.9,297.3 389,294.7 390.5,293.1 C391.4,291.9 393.7,290.6 395.5,290.6 Z M398.7,352.5 C395,352.5 391.6,351.5 388.9,349.4 C386.8,347.6 385.4,345 385.4,341.8 C385.4,339.5 386.7,335.8 389.9,333.6 C390.5,333.2 392.1,332.6 395.3,332.6 C399.5,332.6 402.7,332.6 405.4,333.1 C407.8,333.6 409.7,334.9 410.7,336.2 C411.9,337.8 412.1,340.1 412.1,341.4 C412.1,344.3 410.6,348.1 406.6,350.7 C405.5,351.3 402.6,352.5 398.7,352.5 Z M423.3,293.4 C423.3,293.7 423.9,294.2 425.2,295.1 C427.4,296.9 427.6,297.9 427.6,299 C427.6,309.2 427.4,317.9 427.1,320.9 C426.8,324.5 426.2,325.5 422.9,326.5 C421.8,326.8 420.8,327.3 420.8,328 C420.8,328.9 421.9,329.3 423.4,329.3 C425.1,329.3 428,329 431.7,329 C433.8,329 436.6,329.1 437.8,329.1 C439.2,329.1 440.3,328.6 440.3,327.9 C440.3,327.3 439.5,326.7 438.5,326.4 C435.3,325.5 434.9,324.7 434.8,323.3 C434.7,322.1 434.7,300.6 434.7,299.3 C434.7,298.4 435.4,297.2 435.7,296.9 C437.6,295.2 440.2,293.7 444.6,293.7 C446.9,293.7 449.9,294.8 451,295.6 C452.2,296.5 454,299.4 454,303 C454,305.9 453.9,318 453.7,321.3 C453.5,324.6 453,325.4 450.6,326.3 C449.4,326.7 448.3,327.3 448.3,328 C448.3,328.8 449.7,329.2 450.6,329.2 C451.9,329.2 455,329 457.5,329 C460.3,329 462.6,329.2 464.9,329.2 C466.5,329.2 467.9,328.8 467.9,328.1 C467.9,327.4 467.3,326.9 465.4,326.4 C462.9,325.7 461.9,324.4 461.7,322.9 C461.6,321.5 461.4,306.6 461.4,304.7 C461.4,299.7 460.1,295.1 457.9,292.5 C456.5,290.9 453.7,288.7 448.8,288.7 C444.6,288.7 439.4,291.5 435.4,294.2 C435.3,294.2 434.8,294.4 434.8,293.9 C434.8,293 435.2,290.6 435.2,288.9 C435.2,288.5 434.7,287.4 434.2,287.4 C433.7,287.4 432.8,287.9 431.8,288.5 C430.4,289.5 426.8,290.8 425.1,291.4 C424.4,291.7 423.3,292.7 423.3,293.4 Z" id="web-design"></path>
        </g>
    </g>
</svg>