<svg viewBox="0 0 120 120" xmlns="http://www.w3.org/2000/svg" xmlns:serif="http://www.serif.com/" fill-rule="evenodd" clip-rule="evenodd" stroke-linejoin="round" stroke-miterlimit="1.414"><g serif:id="Flag RU"><circle cx="29.393" cy="40.927" r="29.393" fill="#fff"/><path d="M57.113 31.132a29.317 29.317 0 0 1 1.674 9.795c0 16.222-13.171 29.393-29.394 29.393C13.171 70.32 0 57.149 0 40.927c0-3.434.59-6.731 1.674-9.795h55.439z" fill="#0039a6"/><path d="M57.113 50.721c-4.038 11.413-14.93 19.599-27.72 19.599-12.789 0-23.681-8.186-27.719-19.599h55.439z" fill="#d52b1e"/></g><g serif:id="Flag US"><path d="M106.261 103.945a29.207 29.207 0 0 1-15.205 4.522h-.901a29.2 29.2 0 0 1-15.203-4.522h31.309zm9.106-9.044a29.611 29.611 0 0 1-3.567 4.522H69.413a29.611 29.611 0 0 1-3.567-4.522h49.521zm3.844-9.045a29.256 29.256 0 0 1-1.471 4.523H63.473a29.256 29.256 0 0 1-1.471-4.523h57.209zm.702-9.044a29.243 29.243 0 0 1 .001 4.522H61.299a29.595 29.595 0 0 1 0-4.522h58.614zm-2.176-9.044a29.106 29.106 0 0 1 1.472 4.522H62.003a29.21 29.21 0 0 1 1.471-4.522h54.263zm-5.949-9.044a29.539 29.539 0 0 1 3.573 4.522H65.847a29.563 29.563 0 0 1 3.567-4.522h42.374zm-20.777-9.045a29.387 29.387 0 0 1 15.225 4.523H74.952a29.204 29.204 0 0 1 15.166-4.523h.893z" fill="#bd3d44"/><path d="M111.8 99.423a29.62 29.62 0 0 1-5.539 4.522H74.952a29.62 29.62 0 0 1-5.539-4.522H111.8zm5.94-9.044a29.382 29.382 0 0 1-2.373 4.522H65.846a29.47 29.47 0 0 1-2.373-4.522h54.267zm2.174-9.045a29.26 29.26 0 0 1-.703 4.522H62.002a29.26 29.26 0 0 1-.703-4.522h58.615zm-.705-9.044c.348 1.468.586 2.979.704 4.522H61.299c.118-1.543.356-3.054.704-4.522h57.206zm-3.848-9.044a29.305 29.305 0 0 1 2.376 4.522H63.474a29.378 29.378 0 0 1 2.373-4.522h49.514zm-9.125-9.044a29.607 29.607 0 0 1 5.552 4.522H69.414a29.581 29.581 0 0 1 5.538-4.522h31.284z" fill="#fff"/><path d="M91.011 49.679a29.39 29.39 0 0 1 14.881 4.309v27.346H61.299a29.595 29.595 0 0 1-.086-2.258c0-16.048 12.923-29.135 28.905-29.397h.893z" fill="#192f5d"/><path d="M102.59 77.626h1.312l-1.085.769.452 1.221-1.086-.769-1.085.769.452-1.221-1.085-.769h1.311l.407-1.266.407 1.266zm-7.461 0h1.311l-1.04.769.407 1.221-1.085-.769-1.04.769.407-1.221-1.085-.769h1.311l.407-1.266.407 1.266zm-7.416 0h1.266l-1.04.769.407 1.221-1.086-.769-1.04.769.407-1.221-1.085-.769h1.357l.361-1.266.453 1.266zm-7.462 0h1.312l-1.086.769.452 1.221-1.085-.769-1.085.769.452-1.221-1.085-.769h1.311l.407-1.266.407 1.266zm-7.461 0h1.311l-1.04.769.407 1.221-1.085-.769-1.04.769.407-1.221-1.086-.769h1.312l.407-1.266.407 1.266zm-7.462 0h1.357l-1.086.769.407 1.221-1.085-.769-.995.769.407-1.221-1.085-.769h1.357l.361-1.266.362 1.266zm33.554-3.165h1.221l-1.04.768.407 1.221-1.085-.768-1.04.768.407-1.221-1.086-.768h1.357l.407-1.267.452 1.267zm-7.461 0h1.311l-1.085.768.452 1.221-1.085-.768-1.086.768.453-1.221-1.086-.768h1.312l.407-1.267.407 1.267zm-7.462 0h1.312l-1.04.768.407 1.221-1.086-.768-1.04.768.407-1.221-1.085-.768h1.311l.407-1.267.407 1.267zm-7.416 0h1.266l-1.04.768.407 1.221-1.085-.768-1.04.768.407-1.221-1.086-.768h1.357l.362-1.267.452 1.267zm-7.462 0h1.312l-1.085.768.452 1.221-1.085-.768-1.086.768.452-1.221-1.085-.768h1.312l.407-1.267.406 1.267zm33.509-3.166h1.312l-1.085.769.452 1.221-1.086-.769-1.085.769.452-1.221-1.085-.769h1.311l.407-1.266.407 1.266zm-7.461 0h1.311l-1.04.769.407 1.221-1.085-.769-1.04.769.407-1.221-1.085-.769h1.311l.407-1.266.407 1.266zm-7.416 0h1.266l-1.04.769.407 1.221-1.086-.769-1.04.769.407-1.221-1.085-.769h1.357l.361-1.266.453 1.266zm-7.462 0h1.312l-1.086.769.452 1.221-1.085-.769-1.085.769.452-1.221-1.085-.769h1.311l.407-1.266.407 1.266zm-7.461 0h1.311l-1.04.769.407 1.221-1.085-.769-1.04.769.407-1.221-1.086-.769h1.312l.407-1.266.407 1.266zm-7.462 0h1.357l-1.086.769.407 1.221-1.085-.769-.995.769.407-1.221-1.085-.769h1.357l.361-1.266.362 1.266zm33.554-3.165h1.221l-1.04.768.407 1.221-1.085-.768-1.04.768.407-1.221-1.086-.768h1.357l.407-1.267.452 1.267zm-7.461 0h1.311l-1.085.768.452 1.221-1.085-.768-1.086.768.453-1.221-1.086-.768h1.312l.407-1.267.407 1.267zm-7.462 0h1.312l-1.04.768.407 1.221-1.086-.768-1.04.768.407-1.221-1.085-.768h1.311l.407-1.267.407 1.267zm-7.416 0h1.266l-1.04.768.407 1.221-1.085-.768-1.04.768.407-1.221-1.086-.768h1.357l.362-1.267.452 1.267zm-7.462 0h1.312l-1.085.768.452 1.221-1.085-.768-1.086.768.452-1.221-1.085-.768h1.312l.407-1.267.406 1.267zm-3.922-3.757l.169.591h1.357l-1.086.769.407 1.221-1.085-.769-.995.769.236-.708a29.92 29.92 0 0 1 .997-1.873zm7.631.591h1.311l-1.04.769.407 1.221-1.085-.769-1.04.769.407-1.221-1.086-.769h1.312l.407-1.266.407 1.266zm7.461 0h1.312l-1.086.769.452 1.221-1.085-.769-1.085.769.452-1.221-1.085-.769h1.311l.407-1.266.407 1.266zm7.462 0h1.266l-1.04.769.407 1.221-1.086-.769-1.04.769.407-1.221-1.085-.769h1.357l.361-1.266.453 1.266zm7.416 0h1.311l-1.04.769.407 1.221-1.085-.769-1.04.769.407-1.221-1.085-.769h1.311l.407-1.266.407 1.266zm7.461 0h1.312l-1.085.769.452 1.221-1.086-.769-1.085.769.452-1.221-1.085-.769h1.311l.407-1.266.407 1.266zm-3.708-3.165h1.221l-1.04.768.407 1.221-1.085-.768-1.04.768.407-1.221-1.086-.768h1.357l.407-1.266.452 1.266zm-7.461 0h1.311l-1.085.768.452 1.221-1.085-.768-1.086.768.453-1.221-1.086-.768h1.312l.407-1.266.407 1.266zm-7.462 0h1.312l-1.04.768.407 1.221-1.086-.768-1.04.768.407-1.221-1.085-.768h1.311l.407-1.266.407 1.266zm-7.416 0h1.266l-1.04.768.407 1.221-1.085-.768-1.04.768.407-1.221-1.086-.768h1.357l.362-1.266.452 1.266zm-7.462 0h1.312l-1.085.768.452 1.221-1.085-.768-1.086.768.452-1.221-1.085-.768h1.312l.407-1.266.406 1.266zm33.509-3.166h1.312l-1.085.769.452 1.221-1.086-.769-1.085.769.452-1.221-1.085-.769h1.311l.407-1.266.407 1.266zm-7.461 0h1.311l-1.04.769.407 1.221-1.085-.769-1.04.769.407-1.221-1.085-.769h1.311l.407-1.266.407 1.266zm-7.416 0h1.266l-1.04.769.407 1.221-1.086-.769-1.04.769.407-1.221-1.085-.769h1.357l.361-1.266.453 1.266zm-7.462 0h1.312l-1.086.769.452 1.221-1.085-.769-1.085.769.452-1.221-1.085-.769h1.311l.407-1.266.407 1.266zm-7.461 0h1.311l-1.04.769.407 1.221-1.085-.769-1.04.769.407-1.221-1.086-.769h1.312l.407-1.266.407 1.266zm26.092-3.165h1.221l-1.04.769.407 1.22-1.085-.768-1.04.768.407-1.22-1.086-.769h1.357l.407-1.266.452 1.266zm-7.461 0h1.311l-1.085.769.452 1.22-1.085-.768-1.086.768.453-1.22-1.086-.769h1.312l.407-1.266.407 1.266zm-7.462 0h1.312l-1.086.769.453 1.22-1.086-.768-1.085.768.452-1.22-1.085-.769h1.311l.407-1.266.407 1.266zm-7.416 0h1.266l-1.04.769.407 1.22-1.085-.768-1.04.768.407-1.22-1.086-.769h1.357l.362-1.266.452 1.266zm25.348-3.523c.228.095.454.193.679.294l.02.063h.121c.241.109.479.221.716.337l-.61.432.452 1.221-1.086-.769-1.085.769.452-1.221-1.085-.769h1.311l.115-.357zm-6.762.357h1.311l-1.085.769.452 1.221-1.13-.769-1.04.769.407-1.221-1.086-.769h1.312l.452-1.266.407 1.266zm-7.416 0h1.266l-1.04.769.407 1.221-1.086-.769-1.04.769.407-1.221-1.085-.769h1.357l.361-1.266.453 1.266zm-7.675-.662l.213.662h1.312l-1.086.769.452 1.221-1.085-.769-1.085.769.452-1.221-.952-.674.206-.095h.972l.156-.485c.148-.06.296-.119.445-.177z" fill="#fff"/></g><g fill="#ced4da"><path d="M21.436 101.395C9.616 101.395 0 91.782 0 79.958V73.98a3.776 3.776 0 0 1 3.758-3.759 3.776 3.776 0 0 1 3.758 3.759v5.978c0 7.673 6.245 13.917 13.92 13.917h16.241v-6.356l17.524 10.12-17.524 10.118v-6.362H21.436zM82.323 18.584h16.241c11.818 0 21.434 9.616 21.436 21.433v5.979a3.777 3.777 0 0 1-3.759 3.759 3.777 3.777 0 0 1-3.759-3.759v-5.979c0-7.674-6.245-13.919-13.918-13.919H82.323v6.361L64.799 22.34l17.524-10.12v6.364z"/></g></svg>