<?xml version="1.0" encoding="utf-8"?>
<!-- Generator: Adobe Illustrator 19.2.0, SVG Export Plug-In . SVG Version: 6.00 Build 0)  -->
<svg version="1.1" id="Camada_1" xmlns="http://www.w3.org/2000/svg" xmlns:xlink="http://www.w3.org/1999/xlink" x="0px" y="0px"
	 viewBox="0 0 512 512" style="enable-background:new 0 0 512 512;" xml:space="preserve">
<style type="text/css">
	.st0{}
	.st1{fill:#171624;}
	.st2{fill:#F2B624;}
	.st3{fill:#403F4A;}
	.st4{fill:#F2B726;}
	.st5{fill:#F3B82A;}
	.st6{}
	.st7{}
	.st8{}
</style>
<g>
	<path class="st0" d="M304,303.1c0.2,0.4,0.5,0.8,0.7,1.2c-9.3,4.1-14.1,11.9-18,20.6c-7.6,17-13.6,34.6-20.6,51.8
		c-1.8,4.5,2,4.1,4,5.4c2.8,1.9,3.3-0.4,4.1-2.3c0.3-0.8,0.6-1.6,1-2.4c6-15,12.1-29.9,18.1-44.9c4.1-10.2,10.4-18.1,20.9-22.4
		c4.2-1.7,8.2-4.3,12.3-6.3c7-3.3,10.3-9.1,10.6-16.5c0.4-9.6-5.3-21.4-18.4-20c-0.8,0.1-2,0.6-2.5-0.8c7.2-5.6,16.2-4.9,22.6,1.6
		c8.8,9.1,8.9,25.6,0.1,34.7c-2.4,2.6-5.3,4.8-8.8,5.1c-4.3,0.3-7,3-10.1,5.2c-2.2,1.6-1.3,2.4,0.7,3c7.7,2.5,15,1.4,21.2-3.7
		c11.3-9.1,14.3-21.3,11.5-35c-2.3-11.1-8.3-19.9-19.8-22.9c-11.4-3.1-19.8,2.2-26.3,11.3c-0.6,0.9-1.4,1.5-2.5,1.4
		c-10.1-1.1-20.8,3-30.3-3.5c-0.5-0.4-1.4-0.4-2.1-0.4c-13.3,0-26.5,0-39.8,0c-1.2,0-2.7,0.1-2.3,1.7c0.9,4.6-1.4,6.4-5.4,7.2
		c-0.8,0.1-1.5,0.9-2.1,1.4c-6.1,5.1-8.5,15.5-5.6,24.3c2.6,8,7.9,11.5,16.5,11.8c11.6,0.4,18.4,8.2,18.4,19.7c0,4.1-0.9,8-2.3,11.8
		c-3,8.1-6,16.2-9.1,24.2c-1,2.4-0.6,3.6,1.8,4.6c4.3,1.7,8.6,3.4,12.7,5.5c2.7,1.4,3.6,0.7,4.5-2c4.8-13.7,9.8-27.4,14.7-41.1
		c1.3-3.5,2.5-7.1,2.7-10.9c0.4-6-1.3-8.9-6.9-11c-3.5-1.3-7.3-2.1-10.9-3.2c0-0.3,0-0.5,0-0.8C274,305.4,289,304.3,304,303.1z
		 M251.8,191.9c-5.2,0-10.4,0.1-15.5,0c-2.3,0-3.4,0.3-3,3.1c1,8,1.7,16,2.5,24c0.3,3,1.6,5.9-3.2,7.2c-3.3,0.9-2.7,4.8-2.3,7.6
		c0.4,2.6,2.8,1.4,4.3,1.4c6.3,0.1,12.7,0.1,19,0.1c1.4,0,3.1,0.3,3.1-1.9c0-2.1,0.1-3.5,2.9-3.5c3-0.1,3.2,1.6,3.2,3.8
		c0,1.3,0.8,1.7,2,1.6c1.1-0.1,1.4-0.6,1.6-1.6c0.3-1.3-0.9-3.6,1.7-3.6c3,0,1.6,2.5,1.9,3.9c0.3,1.1,0.9,1.4,1.9,1.3
		c0.8,0,1.3-0.2,1.6-1c1.2-2.8-0.3-7.7-3.2-8.4c-3.1-0.7-2.9-2.3-2.6-4.7c1-8.7,1.8-17.5,2.8-26.2c0.3-2.3-0.4-3.1-2.7-3
		C262.5,192,257.1,191.9,251.8,191.9z M251.8,242.1c-3.6,0-7.2,0-10.8,0c-10.8,0-11.5,0.8-11,11.5c0.1,2.2,0.8,3,3,3
		c5.7-0.1,11.5,0,17.3,0c6.1,0,6.2,0,6.3-6c0-2.4,0.6-3.3,3.2-3.3c2.4,0,3,1.1,2.8,3.2c-0.1,1.3,0,2.6,0,3.9c0,1.3,0.4,2.2,2,2.2
		c1.6,0,1.7-1.1,1.7-2.4c0-1.6,0-3.2,0-4.7c0-1.1,0.2-2,1.6-2c1.6-0.1,2,0.8,2,2.1c0,1.7,0,3.5,0,5.2c0,1.2,0.6,1.8,1.8,1.8
		c1.2,0,1.9-0.5,1.9-1.8c0-2.2,0.1-4.3,0-6.5c-0.2-4.6-1.7-6.1-6.4-6.1C262.2,242.1,257,242.1,251.8,242.1z"/>
	<path class="st1" d="M263,34.7c3.2,1.8,6.9,1.3,10.2,2.4c2.4,0.8,3.4,1.8,3.3,4.5c-1.7,46.6-3.3,93.3-4.7,139.9
		c-0.1,4.5-2.8,3.1-5.1,3.4c-3.1,0.4-3.5-1.1-3.4-3.8c1-42.8,1.9-85.5,2.8-128.3c0-1.5,1.3-3.7-1-4.6c-2.6-0.9-5.5-1.3-8.1-0.5
		c-1.5,0.5-0.7,2.6-0.7,3.9c0,37.6,0,75.2,0,112.8c0,5.8-0.1,11.5,0.1,17.3c0.1,2.5-0.8,3.2-3.2,3.1c-5.9-0.2-11.8-0.2-17.7,0
		c-2.7,0.1-3.4-0.8-3.5-3.4c-0.8-25.1-1.7-50.1-2.5-75.2c-0.7-21.3-1.3-42.6-2.2-63.9c-0.2-3.9,1.3-5,4.5-5.8
		c2.4-0.6,5.1-0.2,7.2-2.1c1.7,0,3.5,0,5.2,0c5.2,1.4,10.4,1.4,15.6,0C260.7,34.7,261.9,34.7,263,34.7z"/>
	<path class="st2" d="M251.8,477.3c-9.5-6.9-11.8-12.6-8.6-23.6c3.9-13.1,8.4-25.9,13-40.1c1.6,4.6,2.9,8,4,11.4c3,9,6,18,9,27
		c1.4,4,1.9,8.1,1.5,12.3c-0.6,6.2-4.7,9.8-9.5,12.9C258.1,477.3,255,477.3,251.8,477.3z"/>
	<path class="st3" d="M259.6,34.7c-5.2,1.4-10.4,1.4-15.6,0C249.2,34.7,254.4,34.7,259.6,34.7z"/>
	<path class="st4" d="M304,303.1c-15,1.2-30,2.4-45,3.5c0,0.3,0,0.5,0,0.8c3.6,1,7.4,1.9,10.9,3.2c5.6,2.1,7.3,5,6.9,11
		c-0.3,3.8-1.5,7.3-2.7,10.9c-4.9,13.7-9.9,27.4-14.7,41.1c-0.9,2.6-1.8,3.4-4.5,2c-4.1-2.1-8.4-3.8-12.7-5.5
		c-2.5-1-2.8-2.2-1.8-4.6c3.2-8,6.1-16.2,9.1-24.2c1.4-3.8,2.3-7.7,2.3-11.8c0-11.5-6.8-19.4-18.4-19.7c-8.5-0.3-13.9-3.8-16.5-11.8
		c-2.9-8.8-0.4-19.2,5.6-24.3c0.7-0.5,1.4-1.3,2.1-1.4c4.1-0.7,6.3-2.6,5.4-7.2c-0.3-1.6,1.1-1.7,2.3-1.7c13.3,0,26.5,0,39.8,0
		c0.7,0,1.5,0.1,2.1,0.4c9.5,6.6,20.2,2.4,30.3,3.5c1.1,0.1,1.9-0.5,2.5-1.4c6.5-9.1,14.9-14.3,26.3-11.3
		c11.5,3.1,17.5,11.9,19.8,22.9c2.8,13.6-0.2,25.9-11.5,35c-6.2,5-13.5,6.2-21.2,3.7c-2-0.6-2.9-1.4-0.7-3c3.1-2.3,5.8-5,10.1-5.2
		c3.5-0.2,6.4-2.5,8.8-5.1c8.8-9.1,8.7-25.6-0.1-34.7c-6.4-6.6-15.3-7.2-22.6-1.6c0.4,1.4,1.7,0.9,2.5,0.8
		c13.1-1.4,18.8,10.4,18.4,20c-0.3,7.4-3.6,13.2-10.6,16.5c-4.2,2-8.1,4.5-12.3,6.3c-10.5,4.3-16.8,12.2-20.9,22.4
		c-6,15-12.1,29.9-18.1,44.9c-0.3,0.8-0.7,1.6-1,2.4c-0.7,1.9-1.2,4.2-4.1,2.3c-2-1.3-5.8-0.9-4-5.4c7-17.2,13-34.8,20.6-51.8
		c3.9-8.7,8.7-16.5,18-20.6C304.5,303.9,304.2,303.5,304,303.1z M245.1,302.5c0.9,0,1.6,0,2.3,0c22.8-1.8,45.6-3.6,68.4-5.5
		c2.4-0.2,4.9-0.2,7.1-1.4c1.4-0.8,3.5-1.6,3.1-3.2c-0.5-2-2.7-0.8-4.1-0.7c-23.6,1.8-47.3,3.9-70.9,5.6
		C247.4,297.6,245.8,299.2,245.1,302.5z M228.6,304.3c4.8,1.2,7.4-1.1,9.4-4.3c3.7-6,3.4-15.5-0.7-20.9c-2.1-2.7-4.6-4.6-8.5-3.5
		C236.8,286.2,236.8,295.4,228.6,304.3z"/>
	<path class="st4" d="M251.8,191.9c5.3,0,10.7,0.1,16,0c2.3-0.1,3,0.7,2.7,3c-1,8.7-1.8,17.5-2.8,26.2c-0.3,2.4-0.4,3.9,2.6,4.7
		c2.9,0.7,4.4,5.6,3.2,8.4c-0.3,0.8-0.9,1-1.6,1c-1,0-1.6-0.3-1.9-1.3c-0.4-1.4,1.1-3.9-1.9-3.9c-2.6,0-1.4,2.3-1.7,3.6
		c-0.2,1-0.6,1.6-1.6,1.6c-1.2,0.1-2-0.4-2-1.6c0-2.2-0.2-3.8-3.2-3.8c-2.8,0.1-2.9,1.5-2.9,3.5c0,2.2-1.7,1.9-3.1,1.9
		c-6.3,0-12.7,0.1-19-0.1c-1.5,0-3.9,1.2-4.3-1.4c-0.4-2.8-1-6.7,2.3-7.6c4.8-1.3,3.5-4.2,3.2-7.2c-0.8-8-1.5-16-2.5-24
		c-0.3-2.8,0.8-3.1,3-3.1C241.4,192,246.6,191.9,251.8,191.9z M256.4,212.6c0,3.3,0,6.6,0,9.9c0,1.6,0.2,2.8,2.2,3
		c2.1,0.1,2.7-0.8,2.9-2.7c0.6-6.7,1.4-13.4,2.2-20.2c0.2-1.8-0.4-2.5-2.3-2.7c-3.4-0.2-5.6,0.2-5,4.5
		C256.7,207.1,256.4,209.8,256.4,212.6z"/>
	<path class="st5" d="M251.8,242.1c5.2,0,10.4,0,15.5,0c4.7,0,6.2,1.5,6.4,6.1c0.1,2.2,0,4.3,0,6.5c0,1.2-0.7,1.8-1.9,1.8
		c-1.2,0-1.8-0.6-1.8-1.8c0-1.7,0-3.5,0-5.2c0-1.4-0.4-2.2-2-2.1c-1.4,0.1-1.6,0.9-1.6,2c0,1.6,0,3.2,0,4.7c0,1.2-0.1,2.3-1.7,2.4
		c-1.5,0-2-0.9-2-2.2c0-1.3-0.1-2.6,0-3.9c0.1-2.1-0.5-3.1-2.8-3.2c-2.5,0-3.1,0.9-3.2,3.3c-0.1,6-0.2,6-6.3,6
		c-5.8,0-11.5-0.1-17.3,0c-2.2,0-2.9-0.7-3-3c-0.5-10.7,0.2-11.5,11-11.5C244.6,242.1,248.2,242.1,251.8,242.1z"/>
	<path class="st6" d="M245.1,302.5c0.7-3.4,2.3-4.9,5.8-5.2c23.7-1.8,47.3-3.8,70.9-5.6c1.4-0.1,3.6-1.3,4.1,0.7
		c0.4,1.6-1.7,2.4-3.1,3.2c-2.2,1.2-4.7,1.2-7.1,1.4c-22.8,1.9-45.6,3.7-68.4,5.5C246.7,302.6,246,302.5,245.1,302.5z"/>
	<path class="st7" d="M228.6,304.3c8.2-9,8.3-18.1,0.2-28.7c3.9-1.1,6.4,0.8,8.5,3.5c4.1,5.4,4.4,14.8,0.7,20.9
		C235.9,303.2,233.4,305.5,228.6,304.3z"/>
	<path class="st8" d="M256.4,212.6c0-2.7,0.3-5.5-0.1-8.2c-0.6-4.3,1.7-4.7,5-4.5c1.9,0.1,2.5,0.8,2.3,2.7
		c-0.8,6.7-1.5,13.4-2.2,20.2c-0.2,2-0.8,2.9-2.9,2.7c-2-0.1-2.2-1.4-2.2-3C256.4,219.2,256.4,215.9,256.4,212.6z"/>
</g>
</svg>
