<?xml version="1.0" encoding="UTF-8"?>
<svg width="512px" height="512px" viewBox="0 0 512 512" version="1.1" xmlns="http://www.w3.org/2000/svg" xmlns:xlink="http://www.w3.org/1999/xlink">
    <!-- Generator: Sketch 51.3 (57544) - http://www.bohemiancoding.com/sketch -->
    <title>icon-rxgif</title>
    <desc>Created with Sketch.</desc>
    <defs></defs>
    <g id="icon-rxgif" stroke="none" stroke-width="1" fill="none" fill-rule="evenodd">
        <rect id="Rectangle" stroke="#F5A623" stroke-width="1.875" fill="#F5A623" x="0.9375" y="0.9375" width="510.125" height="510.125"></rect>
        <path d="M72.2793088,271.6 L53,271.6 L53,246.866667 L72.6524198,246.866667 C78.599996,223.948233 99.7516874,207 124.932773,207 C150.113859,207 171.26555,223.948233 177.213126,246.866667 L209.324689,246.866667 C215.272265,223.948233 236.423956,207 261.605042,207 C286.786128,207 307.937819,223.948233 313.885395,246.866667 L356.786874,246.866667 C362.73445,223.948233 383.886141,207 409.067227,207 C434.248313,207 455.400004,223.948233 461.34758,246.866667 L481,246.866667 L481,271.6 L461.720691,271.6 C456.336098,295.29178 434.806702,313 409.067227,313 C383.327752,313 361.798355,295.29178 356.413763,271.6 L314.258506,271.6 C308.873913,295.29178 287.344517,313 261.605042,313 C235.865567,313 214.336171,295.29178 208.951578,271.6 L177.586237,271.6 C172.201645,295.29178 150.672248,313 124.932773,313 C99.1932979,313 77.6639016,295.29178 72.2793088,271.6 Z" id="Combined-Shape" stroke="#FFFFFF" stroke-width="1.25" fill="#FFFFFF"></path>
    </g>
</svg>