<?xml version="1.0" encoding="utf-8"?>
<!-- Generator: Adobe Illustrator 14.0.0, SVG Export Plug-In . SVG Version: 6.00 Build 43363)  -->
<!DOCTYPE svg PUBLIC "-//W3C//DTD SVG 1.1//EN" "http://www.w3.org/Graphics/SVG/1.1/DTD/svg11.dtd">
<svg version="1.1" id="Layer_1" xmlns="http://www.w3.org/2000/svg" xmlns:xlink="http://www.w3.org/1999/xlink" x="0px" y="0px"
	 width="331.333px" height="260.333px" viewBox="0 0 331.333 260.333" enable-background="new 0 0 331.333 260.333"
	 xml:space="preserve">
<rect x="108.618" y="62.31" fill="#E2E2E2" width="160.715" height="83.25"/>
<path fill="none" stroke="#7C7979" stroke-width="3" d="M270.767,64.135"/>
<path fill="none" stroke="#7C7979" stroke-width="3" d="M320.671,115.826"/>
<path fill="none" stroke="#7C7979" stroke-width="3" d="M268.134,36.75"/>
<path fill="none" stroke="#7C7979" stroke-width="3" d="M319.187,133.543"/>
<circle fill="none" stroke="#000000" stroke-width="7" cx="241.949" cy="228.417" r="24.59"/>
<path fill="none" stroke="#000000" stroke-width="10" stroke-linecap="round" d="M51.341,186.689
	c14.37-2.621,61.06-6.718,107.048-6.718c65.915,0,119.351,7.994,119.351,17.854"/>
<path fill="none" stroke="#000000" stroke-width="6" d="M29.673,207.4"/>
<path fill="none" stroke="#000000" stroke-width="6" d="M73.156,184.207"/>
<path fill="none" stroke="#000000" stroke-width="6" d="M31.186,54.343"/>
<path fill="none" stroke="#000000" stroke-width="10" stroke-linecap="round" d="M13.833,26.185
	c0.534-3.889,11.701-5.567,24.942-3.748c13.241,1.819,27.496,6.446,26.962,10.336"/>
<circle fill="none" stroke="#000000" stroke-width="7" cx="87.153" cy="228.417" r="24.591"/>
<circle fill="#B7B7B7" stroke="#000000" stroke-width="3" cx="86.675" cy="228.158" r="6.246"/>
<path fill="none" stroke="#000000" stroke-width="6" d="M34.022,124.616"/>
<path fill="none" stroke="#000000" stroke-width="6" d="M47.785,219.943"/>
<path fill="none" stroke="#000000" stroke-width="10" d="M58.366,27.826c13.852,0,20.619,44.834,20.619,96.791
	c0,22.333-3.044,43.192-7.8,59.59"/>
<path fill="none" stroke="#000000" stroke-width="10" d="M264.525,9.745"/>
<line fill="none" stroke="#000000" stroke-width="8" stroke-linecap="round" x1="93.525" y1="53.153" x2="275.083" y2="53.305"/>
<path fill="none" stroke="#000000" stroke-width="6" d="M321.734,152.745"/>
<path fill="none" stroke="#000000" stroke-width="10" d="M319.187,152.745"/>
<path fill="none" stroke="#000000" stroke-width="6" d="M315.31,174.495"/>
<path fill="none" stroke="#000000" stroke-width="10" stroke-linecap="round" d="M294.796,174.45"/>
<path fill="none" stroke="#000000" stroke-width="3" d="M86.952,227.68"/>
<path fill="none" stroke="#000000" stroke-width="8" stroke-linecap="round" d="M299.08,152.745"/>
<line fill="none" stroke="#000000" stroke-width="8" stroke-linecap="round" x1="97.374" y1="152.745" x2="276.08" y2="152.745"/>
<circle fill="#B7B7B7" stroke="#000000" stroke-width="3" cx="241.948" cy="227.679" r="6.247"/>
<line fill="none" stroke="#4D8C48" stroke-width="5" x1="97.849" y1="68.153" x2="144.925" y2="95.04"/>
<line fill="none" stroke="#4D8C48" stroke-width="5" x1="214.333" y1="86.458" x2="227.708" y2="102.208"/>
<line fill="none" stroke="#4D8C48" stroke-width="5" x1="229.583" y1="103.231" x2="279.35" y2="119.834"/>
<line fill="none" stroke="#4D8C48" stroke-width="5" x1="204.379" y1="86.458" x2="177.724" y2="109.922"/>
<path fill="none" stroke="#000000" stroke-width="8" stroke-linecap="round" d="M274.44,53.502c5.6,16.207,6.643,46.42,4.03,80.353
	c-0.507,6.559-1.323,12.952-2.391,19.104"/>
<path fill="none" stroke="#000000" stroke-width="8" stroke-linecap="round" d="M94.412,52.997c5.6,16.207,6.643,46.42,4.03,80.353
	c-0.507,6.559-1.323,12.953-2.391,19.105"/>
<circle fill="#FFFFFF" stroke="#4D8C48" stroke-width="4" cx="151.74" cy="96.109" r="6.906"/>
<circle fill="#FFFFFF" stroke="#4D8C48" stroke-width="4" cx="171.51" cy="112.928" r="6.906"/>
<circle fill="#FFFFFF" stroke="#4D8C48" stroke-width="4" cx="210.208" cy="82.756" r="6.906"/>
<circle fill="#FFFFFF" stroke="#4D8C48" stroke-width="4" cx="229.583" cy="103.016" r="6.906"/>
<line fill="none" stroke="#4D8C48" stroke-width="5" x1="155.833" y1="99.583" x2="166.458" y2="109.922"/>
<line fill="none" stroke="#000000" stroke-width="3" stroke-linecap="round" x1="123.333" y1="66.793" x2="123.333" y2="141.077"/>
<line fill="none" stroke="#000000" stroke-width="3" stroke-linecap="round" x1="142.583" y1="66.793" x2="142.583" y2="141.077"/>
<line fill="none" stroke="#000000" stroke-width="3" stroke-linecap="round" x1="161.833" y1="66.793" x2="161.833" y2="141.077"/>
<line fill="none" stroke="#000000" stroke-width="3" stroke-linecap="round" x1="181.083" y1="66.793" x2="181.083" y2="141.077"/>
<line fill="none" stroke="#000000" stroke-width="3" stroke-linecap="round" x1="200.583" y1="66.583" x2="200.583" y2="140.867"/>
<line fill="none" stroke="#000000" stroke-width="3" stroke-linecap="round" x1="219.833" y1="66.583" x2="219.833" y2="140.867"/>
<line fill="none" stroke="#000000" stroke-width="3" stroke-linecap="round" x1="239.083" y1="66.583" x2="239.083" y2="140.867"/>
<line fill="none" stroke="#000000" stroke-width="3" stroke-linecap="round" x1="258.333" y1="66.583" x2="258.333" y2="140.867"/>
</svg>
