<svg xmlns="http://www.w3.org/2000/svg" fill-rule="evenodd" stroke-miterlimit="1.41" viewBox="0 0 92 92" clip-rule="evenodd" stroke-linejoin="round">
    <path fill="#fff" fill-rule="nonzero"
          d="M69.03 87.1v-3.92c7.36 0 13.42-6.07 13.43-13.44h3.92c0 9.52-7.83 17.35-17.35 17.36zm13.35-31.45c-.6-.73-1.68-.83-2.4-.24-.22.2-.45.4-.7.6l.18-.6c.63-2.7-.17-5-2.25-6.4-2.3-1.6-5.6-1.3-7.6.7-2.4 2.2-3.9 6.4-2.3 9.5.9 1.55 2.4 2.57 4.1 2.7-1.9 1.85-3.9 3.2-5.3 3.4-2.6.38-4.3-2.7-5.9-6.13l-.3-.75c2.3-2.76 4.3-5.7 6-8.82 3.2-5.77 6.1-13.96 2.3-20.2-2.2-3.72-4.7-3.04-5.7-2.56-5.4 2.68-8.5 21.8-6.4 30.84-2.6 2.9-4.9 4.8-5.73 4.9-.73 0-1.9-1.15-3.05-3.6 1.3-1.7 2.37-3.6 3.24-5.55 2.98-6.7 2.7-12.3-.7-14.7-3.1-2.2-5.12-1.3-6.07-.6-4 3-2.7 13.6-.54 19.8l.2.44c-2.5 2.9-5.4 4.8-7.97 4.2l-.7-.2c.9-1.4 1.64-2.9 2.2-4.5 1.13-3.64.6-6.6-1.5-8.15-1.8-1.3-3.8-1.47-5.37-.46-2.2 1.4-3.33 4.9-2.7 8.54.3 1.9 1.1 3.67 2.35 5.1-.76.8-1.7 1.3-2.8 1.4-1.6 0-2.5-2.4-2.96-3.8-1.7-5.7-5-5.6-6.33-5.33-1.8.57-3.4 1.76-4.4 3.37l-.2-3.2c1.7-1.1 3.17-2.52 4.3-4.2 2.14-3.1 3.2-6.8 3.07-10.55-.24-4.24-2.5-6.94-5.7-6.94h-.2c-1.1.05-2.15.55-2.9 1.4-2.4 2.6-2.6 8.77-2.1 18.34-1.03.4-2.13.7-3.26.8-.9.03-1.57.8-1.57 1.7 0 .9.78 1.7 1.7 1.7h.17c1.1-.1 2.15-.3 3.2-.67.1 1.6.2 3.33.33 5.1l.36 5.5c0 .6.05 1.2.13 1.8.1.8.8 1.5 1.67 1.5h.2c.9-.1 1.6-.9 1.56-1.8l-.1-1.6c.06-4.3 2.6-8.5 4.5-8.9 1.2-.3 2 2 2.3 2.9 1.58 5.15 4.2 6.26 6.2 6.27 2.1-.16 4.1-1.13 5.5-2.7.7.35 1.46.6 2.2.8 3.5.8 7.18-1.06 10.27-4.2 1.6 2.87 3.5 4.35 5.6 4.28 1.73 0 4.34-2 7.04-4.8 1.6 3.3 4.2 8.1 9.2 7.5 3.1-.45 7.2-3.6 9.98-7.37 2.03-.7 3.95-1.74 5.7-3.02.72-.6.85-1.7.26-2.4zM13.9 37.12c.12-.15.3-.24.48-.24h.07c1.9 0 2.23 2.84 2.28 3.72.13 3.88-1.36 7.64-4.1 10.37-.3-6.62-.16-12.27 1.28-13.85zm19.5 19.45c-.4 1.23-.95 2.4-1.66 3.5-.62-.9-1.04-1.92-1.2-3-.42-2.34.26-4.5 1.14-5.07.12-.08.27-.13.42-.12.42-.03.84.12 1.15.4.7.62.8 2.27.16 4.3zM48.1 41.8c1.1 1.9 1.24 5.1-.9 9.92-.46 1-.97 1.97-1.53 2.9-1.73-6.24-1.5-12.8-.06-14.06.9-.76 2.2.76 2.5 1.25zm17.2-10.83c2.45 4.28.66 10.15-1.3 14.37-1.43 3.02-3.16 5.88-5.17 8.55-.65-7.3 1.02-18.9 4.07-23.2 1.2-1.7 1.87-.8 2.4.1zm10.8 23.57c-.35 1.3-.94 2.55-1.73 3.65-1.32.2-3.43.4-4.1-.8-.66-1.3.06-3.9 1.6-5.3.5-.6 1.18-.9 1.92-.9.5 0 1 .1 1.5.5s1.2 1 .8 2.8z"/>
    <path fill="#fff" fill-rule="nonzero" d="M43.66 30.65l4.44-9.7-7.76-15.57h4.62l5.2 11.05L55.2 5.38h4.16L47.8 30.65h-4.14zM30.78 4.95c5.1 0 7.54 2.43 7.54 7.05v11.44h-3.9v-2.5c-1.28 1.9-3.46 2.97-5.74 2.86-3.75 0-6.1-2.35-6.1-5.6 0-3.24 2.46-5.3 5.78-5.6l5.02-.5c.75-.07 1.04-.32 1.04-.83v-.4c0-1.4-1.2-2.38-3.6-2.38-2.2 0-4.05.8-4.6 2.7L23.1 9.3c.93-2.68 3.5-4.34 7.68-4.34zm3.6 10.15l-5.2.65c-1.8.22-2.6 1.15-2.6 2.35 0 1.37 1.02 2.3 2.97 2.3 3 0 4.84-2.12 4.84-4.25V15.1zM12.16 4.96c3.47 0 5.7 1.3 7.22 3.28l-2.63 2.53c-1.1-1.5-2.9-2.34-4.77-2.24-1.8 0-2.96.65-2.96 1.8 0 1.34 1.45 1.67 4.26 2.28 3.07.7 6.14 1.6 6.14 5.6s-3 5.8-7.32 5.8c-3.5 0-6.5-1.1-8.1-3.6l2.7-2.5c1.14 1.9 3.26 2.7 5.6 2.7 1.8 0 3.1-.5 3.1-1.9s-1.3-1.7-4-2.3C8.7 15.7 5 14.7 5 10.7 5 7.15 7.63 5 12.13 5z"/>
</svg>