<?xml version="1.0" encoding="UTF-8" standalone="no"?>
<svg
   xmlns:dc="http://purl.org/dc/elements/1.1/"
   xmlns:cc="http://creativecommons.org/ns#"
   xmlns:rdf="http://www.w3.org/1999/02/22-rdf-syntax-ns#"
   xmlns:svg="http://www.w3.org/2000/svg"
   xmlns="http://www.w3.org/2000/svg"
   height="425.47473"
   width="795.31616"
   xml:space="preserve"
   viewBox="0 0 795.31614 425.47474"
   y="0px"
   x="0px"
   id="Layer_1"
   version="1.1"><metadata
     id="metadata15"><rdf:RDF><cc:Work
         rdf:about=""><dc:format>image/svg+xml</dc:format><dc:type
           rdf:resource="http://purl.org/dc/dcmitype/StillImage" /><dc:title></dc:title></cc:Work></rdf:RDF></metadata><defs
     id="defs13" /><style
     id="style3"
     type="text/css">
	.st0{fill:#9B9A9A;}
	.st1{fill:#E0454C;}
</style><g
     style="image-rendering:auto"
     transform="matrix(3.3,0,0,3.3,-993.47092,-748.66526)"
     id="g5"><g
       id="g7"><path
         style="fill:#e0454c"
         id="path9"
         d="m 535.6,335.5 -23,-15.3 19.9,0 c 0.1,0 0.2,0 0.3,0 3.3,-0.2 5.1,-1.7 6.1,-3 1.5,-2 2.1,-4.6 1.5,-7.7 -0.7,-4.4 -4.7,-7.3 -5.7,-7.9 l -97.6,-71.2 c -9.8,-7.4 -20.8,-1 -22,-0.2 l -112.1,65 c -1.9,1.1 -2.5,3.5 -1.4,5.4 1.1,1.9 3.5,2.5 5.4,1.4 l 112.1,-65 c 0,0 0.1,-0.1 0.1,-0.1 0.3,-0.2 7.4,-4.5 13.2,-0.1 l 97.4,71 0,0 0,0 0.4,0.3 c 0,0 0.1,0.1 0.1,0.1 0.7,0.5 1.7,1.6 1.4,3 -0.2,0.6 -0.5,1.2 -1.8,1.4 l -29,0 -67,-44.5 c -9.1,-6.5 -19.2,-0.4 -19.6,-0.1 0,0 -0.1,0.1 -0.1,0.1 l -50.4,34.3 c -2.9,1.8 -5.8,4.1 -5.7,9.3 0.1,6 4.6,8.5 7.6,8.7 0.1,0 0.2,0 0.3,0 l 132.6,0 33,21.9 c 0.8,0.7 2.2,2.1 1.7,3.7 -0.2,0.7 -0.7,1.7 -2.5,2 l -182.1,0 c -2.2,0 -3.9,1.8 -3.9,3.9 0,2.2 1.8,3.9 3.9,3.9 l 184.8,0 c 5.1,0 7.9,-4.6 8.5,-9.2 0.6,-5.5 -3.7,-9.5 -6.4,-11.1 z M 366.2,311.3 c -0.4,-1.3 1.3,-2.3 1.3,-2.3 l 0,0 c 0.1,-0.1 0.2,-0.2 0.4,-0.2 0,0 0.1,-0.1 0.1,-0.1 l 50.4,-34.2 c 0.5,-0.3 6.2,-3.5 10.9,-0.1 0,0 0.1,0.1 0.1,0.1 l 52.2,34.7 c 0.4,0.3 1.4,1.1 1.1,2.2 -0.1,0.4 -0.4,0.9 -1.3,1.1 l -113.8,0 c -1.1,-0.3 -1.3,-0.8 -1.4,-1.2 z"
         class="st1" /></g></g></svg>