<svg xmlns="http://www.w3.org/2000/svg" viewBox="0 0 377.61 377.61"><path d="M188.8,377.61C84.7,377.61,0,292.91,0,188.8S84.7,0,188.8,0s188.8,84.7,188.8,188.8S292.91,377.61,188.8,377.61ZM188.8,4C86.9,4,4,86.9,4,188.8s82.9,184.8,184.8,184.8,184.8-82.9,184.8-184.8S290.7,4,188.8,4Z"/><path d="M351.67,201.53a4.29,4.29,0,0,1-3.1,1.17H312.86a16.55,16.55,0,0,0,6,10.62,19.08,19.08,0,0,0,17.95,3,17.51,17.51,0,0,0,5-2.54,4.87,4.87,0,0,1,3.1-1,4,4,0,0,1,2.82.94,4.11,4.11,0,0,1,1.69,3.19,3.4,3.4,0,0,1-1.5,2.82,26,26,0,0,1-7.94,4.13,28.69,28.69,0,0,1-22.88-1.74,24.19,24.19,0,0,1-9.54-9.26,26.31,26.31,0,0,1-3.43-13.44,27.78,27.78,0,0,1,3.24-13.48,23.45,23.45,0,0,1,9-9.3,25.75,25.75,0,0,1,13.11-3.34,23.63,23.63,0,0,1,12.5,3.19,21.08,21.08,0,0,1,8.08,8.93,29.43,29.43,0,0,1,2.82,13.15A3.94,3.94,0,0,1,351.67,201.53Zm-33.31-16.4a16.87,16.87,0,0,0-5.4,10.05h31.29a16.66,16.66,0,0,0-4.7-10.05,13.79,13.79,0,0,0-10.05-3.76Q322.63,181.38,318.36,185.14Z"/><path d="M67,154.5a24.17,24.17,0,0,1,9.4,9.4,6.39,6.39,0,0,1,1.13,3.38,4,4,0,0,1-1.88,3.38,4.45,4.45,0,0,1-2.44.66,5.17,5.17,0,0,1-2.63-.7,4.82,4.82,0,0,1-1.88-1.93c-1.58-2.69-2.43-4.24-6.34-6.44A18.31,18.31,0,0,0,52.72,160q-7.14,0-11.56,2.77a8.92,8.92,0,0,0-4.42,8A10.23,10.23,0,0,0,40.69,179q3.95,3.29,14.09,4.32,11.28,1.13,17.48,6.81t6.2,15a18.67,18.67,0,0,1-3.66,11.6A22.07,22.07,0,0,1,65.08,224a35.07,35.07,0,0,1-13,2.4,33.66,33.66,0,0,1-16.59-4.14Q28,218.12,25.19,211.45a5.09,5.09,0,0,1-.47-1.88,3.49,3.49,0,0,1,1-2.49,5.3,5.3,0,0,1,2.82-1.46,3.32,3.32,0,0,1,.94-.09,5.16,5.16,0,0,1,2.87.89,5.41,5.41,0,0,1,2,2.4q1.69,3.66,6.67,6.2a23.86,23.86,0,0,0,11,2.54A21.11,21.11,0,0,0,64,214.31a10.13,10.13,0,0,0,4.89-8.88,12,12,0,0,0-4.13-9.16q-4.14-3.81-12.59-4.65-11.65-1.13-18.32-6.81a17.93,17.93,0,0,1-6.67-14.24,16.31,16.31,0,0,1,3.43-10.38,21.42,21.42,0,0,1,9.4-6.67,37,37,0,0,1,13.39-2.3A28.77,28.77,0,0,1,67,154.5Z"/><path d="M124.68,176.4a19.87,19.87,0,0,1,8.08,8.22,27.09,27.09,0,0,1,2.91,13v23.12a4.79,4.79,0,1,1-9.59,0V197.64q0-7.61-4.09-11.51t-10.85-3.9a16,16,0,0,0-7.19,1.6,12.76,12.76,0,0,0-5.07,4.32,10.7,10.7,0,0,0-1.83,6.11v26.5a4.74,4.74,0,0,1-1.32,3.43,4.82,4.82,0,0,1-8.27-3.43v-63.9a4.61,4.61,0,0,1,1.36-3.48,4.77,4.77,0,0,1,8.22,3.48v23a20.88,20.88,0,0,1,7.14-4.65,23.69,23.69,0,0,1,8.83-1.64A23.94,23.94,0,0,1,124.68,176.4Z"/><path d="M223.45,164.18a13.08,13.08,0,0,0-3.2,9.21v2.54h7.31a4.52,4.52,0,0,1,3.19,1.13,3.9,3.9,0,0,1,1.22,3,3.68,3.68,0,0,1-1.22,2.82,4.52,4.52,0,0,1-3.19,1.13h-7.31v36.65a4.7,4.7,0,0,1-1.32,3.48,5,5,0,0,1-3.66,1.32,4.5,4.5,0,0,1-3.24-1.32,4.61,4.61,0,0,1-1.36-3.48V184h-4a4.52,4.52,0,0,1-3.2-1.13,3.68,3.68,0,0,1-1.22-2.82,3.9,3.9,0,0,1,1.22-3,4.53,4.53,0,0,1,3.2-1.13h4v-1.6a24.52,24.52,0,0,1,2.68-11.7,19.19,19.19,0,0,1,7.52-7.8,21.82,21.82,0,0,1,11-2.77,5,5,0,0,1,3.43,1.22,4.21,4.21,0,0,1,0,6.2,5,5,0,0,1-3.43,1.22A10.94,10.94,0,0,0,223.45,164.18Zm34.49,0a13.08,13.08,0,0,0-3.2,9.21v2.54H262a4.52,4.52,0,0,1,3.19,1.13,3.9,3.9,0,0,1,1.22,3,3.68,3.68,0,0,1-1.22,2.82A4.52,4.52,0,0,1,262,184h-7.31v36.65a4.7,4.7,0,0,1-1.32,3.48,5,5,0,0,1-3.66,1.32,4.5,4.5,0,0,1-3.24-1.32,4.61,4.61,0,0,1-1.36-3.48V184h-4a4.52,4.52,0,0,1-3.2-1.13,3.68,3.68,0,0,1-1.22-2.82,3.9,3.9,0,0,1,1.22-3,4.52,4.52,0,0,1,3.2-1.13h4v-1.6a24.53,24.53,0,0,1,2.68-11.7,19.19,19.19,0,0,1,7.52-7.8,21.82,21.82,0,0,1,11-2.77,5,5,0,0,1,3.43,1.22,4.21,4.21,0,0,1,0,6.2,5,5,0,0,1-3.43,1.22A10.94,10.94,0,0,0,257.94,164.18Zm23.2-10.81a4.7,4.7,0,0,1,8.08,3.38v51.31a11.23,11.23,0,0,0,1.32,5.73,3.87,3.87,0,0,0,3.38,2.26h2.35a3.9,3.9,0,0,1,3.05,1.32,4.89,4.89,0,0,1,1.18,3.38,4,4,0,0,1-1.79,3.38,7.56,7.56,0,0,1-4.6,1.32h-.19a12.64,12.64,0,0,1-7.28-2.21,14.39,14.39,0,0,1-5-6.2,21.75,21.75,0,0,1-1.78-9V156.76A4.58,4.58,0,0,1,281.14,153.38Z"/><path d="M191.43,175.32a4.79,4.79,0,0,0-8.22,3.43v23.12q0,7.61-4.09,11.51a14.36,14.36,0,0,1-8.91,3.8h0a11.37,11.37,0,0,1-1.53,0c-1,0-1.33,0-1.44,0h0a14.35,14.35,0,0,1-8.9-3.8q-4.09-3.9-4.09-11.51V178.75a4.79,4.79,0,1,0-9.59,0v23.12a27.07,27.07,0,0,0,2.91,13,19.85,19.85,0,0,0,8.08,8.22,23.91,23.91,0,0,0,11.58,2.82h3a23.91,23.91,0,0,0,11.59-2.82,19.85,19.85,0,0,0,8.08-8.22,27.07,27.07,0,0,0,2.91-13V178.75A4.65,4.65,0,0,0,191.43,175.32Z"/></svg>
