<?xml version="1.0" encoding="utf-8"?>
<!-- Generator: Adobe Illustrator 16.0.4, SVG Export Plug-In . SVG Version: 6.00 Build 0)  -->
<!DOCTYPE svg PUBLIC "-//W3C//DTD SVG 1.1//EN" "http://www.w3.org/Graphics/SVG/1.1/DTD/svg11.dtd">
<svg version="1.1" xmlns="http://www.w3.org/2000/svg" xmlns:xlink="http://www.w3.org/1999/xlink" x="0px" y="0px"
	 width="32.0029297px" height="32.0029297px" viewBox="0 0 32.0029297 32.0029297"
	 enable-background="new 0 0 32.0029297 32.0029297" xml:space="preserve">
<g id="Icons_Bold" display="none">
</g>
<g id="Icons_iOS" display="none">
</g>
<g id="Icons_IOS_neu">
	<path fill="white" d="M25.9765625,20.6826172c-0.4785156-0.5009766-0.6259766-0.6542969-1.1064453-1.15625
		c-0.2587891-0.2714844-0.6826172-0.2714844-0.9423828,0s-0.265625,0.7080078-0.0107422,0.9746094l-0.6210938-0.6484375
		c-0.2587891-0.2714844-0.6835938-0.2714844-0.9423828,0.0009766c-0.2587891,0.2685547-0.2597656,0.7119141,0,0.9833984
		l-0.2988281-0.3115234c-0.2578125-0.2695312-0.6826172-0.2695312-0.9414062,0
		c-0.2607422,0.2724609-0.2607422,0.7167969,0,0.9882812l-2.1455078-2.2421875C18.7080078,19,18.2851562,19,18.0253906,19.2714844
		c-0.2597656,0.2705078-0.2597656,0.7138672,0,0.984375l4.6015625,4.8115234l-1.3378906-0.8066406
		c-0.3173828-0.1923828-0.7285156-0.0771484-0.9121094,0.2539062c-0.1826172,0.3339844-0.0722656,0.7607422,0.2441406,0.953125
		l1.7333984,1.0449219c1.5136719,0.9140625,2.4277344,0.8574219,3.2353516,1.6552734
		c0.0185547,0.0175781,0.0390625,0.0371094,0.0576172,0.0556641l2.4570312-2.5664062
		C27.1699219,24.4570312,27.2421875,22.0068359,25.9765625,20.6826172z"/>
	<path fill="white" d="M24.75,16.4648438c-4.0585938-3.2021484-8.1445312-6.8476562-10.3564453-11.6201172
		c-0.1650391-0.3564453-1.3408203-1.0244141-1.4121094-0.2753906c-0.3056641,3.2197266-1.2421875,6.4111328-2.375,9.4287109
		c-1.3173828,3.5087891-3.0332031,6.9619141-5.4179688,9.8730469c-0.4667969,0.5703125,0.8212891,1.1816406,1.2714844,0.9511719
		c3.1757812-1.6289062,6.5546875-3.0458984,10.0273438-3.8974609c0.3789062-0.0927734,0.3134766-0.5224609,0.1308594-0.7607422
		c-0.2304688-0.3007812-0.6542969-0.5136719-1.0361328-0.4199219c-2.4873047,0.6103516-4.9228516,1.5117188-7.2753906,2.5683594
		c1.5390625-2.3779297,2.7373047-4.9853516,3.7294922-7.6259766c0.9238281-2.4619141,1.7246094-5.0341797,2.1621094-7.6464844
		c2.4248047,3.9775391,6.0361328,7.2001953,9.6572266,10.0556641c0.2636719,0.2080078,0.7089844,0.4414062,1.0351562,0.2109375
		C25.1962891,17.0908203,24.9785156,16.6445312,24.75,16.4648438z"/>
</g>
</svg>
