<svg xmlns="http://www.w3.org/2000/svg" viewBox="0 0 141.7 141.7"><path fill="#fff" d="M69.8 113.8c-13.1-6.9-14-24.3-8.1-30.4 2.4-2.5 4.4-5 2.4-7.1-5.3-5.7-3.9-11.5-3.9-13.4-.1-8 7-17.2 16.2-20.3 9.2-3.1 20.7-2 20.7-2 .7-12.4 1.9-20.5 2.2-23.5.1-1-.7-1.4-.7-1.4-4-2.2-20.2-11.2-35.3-11.4h-.1c-15.1.3-31.3 9.2-35.2 11.4 0 0-.9.4-.7 1.4.3 3 1.3 9.7 2 21.9h-6.5c-.8-1.5-.8-3.9-1.5-4.4-.7-.4-5.8-.4-6.1.2-.3.5-2.8 6-2.7 7-.1.9 2.4 6.5 2.7 7 .4.5 5.5.6 6.1.2.7-.5.7-2.9 1.5-4.4.6-.1 4.6 0 6.7 0 .3 5.9.5 12.1.5 18.3 0 1 0 2.9-.1 5.4h-5c-.7-1.5-.8-3.9-1.4-4.4-.7-.4-5.8-.4-6.1.2-.4.5-2.8 6-2.7 7-.1.9 2.4 6.5 2.7 7 .3.5 5.4.6 6.1.1.7-.5.7-2.9 1.4-4.4.4-.1 2.8 0 4.8 0-.2 7.4-.5 17-.6 24.6h-4.6c-.8-1.5-.8-3.9-1.5-4.4-.7-.5-5.8-.4-6.1.1-.4.5-2.8 6-2.7 7-.1.9 2.4 6.5 2.7 7 .3.5 5.4.6 6.1.1.6-.5.7-2.9 1.5-4.4.4-.1 2.6 0 4.6 0 .1 3.3.2 5.7.6 6.7 1 3.1 4.8 6.9 8.5 10.3 8.2 7.6 16.1 15.8 24.5 15.8h.1c7.1 0 17.1-8.2 25.4-15.8.4-.4.3-.2.6-.7.4-.8-8-.5-19-6.3zM125.2 81c-1.9-2.9-4.6-5.2-8.2-6.8-3.6-1.6-9-2.8-16.3-3.7-4.8-.6-10.9-1.3-12.3-2.1-1.4-.8-2.2-1.9-2.2-3.4 0-1.4.6-2.5 1.7-3.5 1.1-.9 5.9-1.4 8.4-1.4 2.4 0 4.5.6 6.3 1.9 1.3.9 2.2 2.4 2.7 4.4 0 0 3.6 4.5 11.4 4 11.4-.8 9.4-6.2 9.4-6.2-1.4-4-3.2-7.2-5.4-9.6-2.2-2.4-4.9-4.1-8.2-5.2-3.3-1.1-8.3-1.7-15.1-1.7-6.5 0-11.6.7-15.5 2.2-3.9 1.4-6.9 3.6-9.1 6.6-2.2 2.9-3.3 6.4-3.3 10.5 0 3.7 1 7 3 9.9 2 2.9 4.5 5 7.5 6.2 3 1.2 8.3 2.5 15.9 4 5.1 1 8.3 1.8 9.4 2.4 1.7.9 2.5 2.2 2.5 3.9 0 1.5-.6 2.8-1.9 3.8-1.6 1.4-3.9 2-6.9 2-2.7 0-7.8-.6-9.4-1.8-1.6-1.2.1-3.2-.8-6 0 0-3-7.2-12.9-6.3-9.9.9-8.9 8.5-8.9 8.5 1.3 5.9 4.1 10.5 8.6 13.7 4.4 3.2 11.9 4.8 22.4 4.8 7.4 0 13.3-1 17.6-3 4.3-2 7.5-4.7 9.4-8 2-3.4 3-6.8 3-10.4 0-3.6-.9-6.8-2.8-9.7z"/></svg>