<?xml version="1.0" encoding="UTF-8"?>
<svg width="512px" height="512px" viewBox="0 0 512 512" version="1.1" xmlns="http://www.w3.org/2000/svg" xmlns:xlink="http://www.w3.org/1999/xlink">
    <!-- Generator: Sketch 46.2 (44496) - http://www.bohemiancoding.com/sketch -->
    <title>Slice</title>
    <desc>Created with Sketch.</desc>
    <defs></defs>
    <g id="Page-1" stroke="none" stroke-width="1" fill="none" fill-rule="evenodd">
        <g id="1492641076_sign-check" transform="translate(19.000000, 7.000000)" fill-rule="nonzero">
            <path d="M472.380952,259.809524 C472.380952,390.257524 366.638476,496 236.190476,496 C105.7472,496 0,390.257524 0,259.809524 C0,129.366248 105.7472,23.6190476 236.190476,23.6190476 C366.638476,23.6190476 472.380952,129.366248 472.380952,259.809524 Z" id="Shape" fill="#C95757"></path>
            <path d="M472.380952,236.190476 C472.380952,366.638476 366.638476,472.380952 236.190476,472.380952 C105.7472,472.380952 0,366.638476 0,236.190476 C0,105.7472 105.7472,0 236.190476,0 C366.638476,0 472.380952,105.7472 472.380952,236.190476 Z" id="Shape" fill="#E27C7C"></path>
            <polygon id="Shape" fill="#C95757" points="330.666667 165.333333 188.952381 307.047619 129.904762 248 79.7142857 297.6 138.761905 356.647619 186 403.885714 188.952381 406.247619 380.857143 214.933333"></polygon>
            <polygon id="Shape" fill="#ECF0F1" points="330.666667 141.714286 188.952381 283.428571 129.904762 224.380952 79.7142857 273.980952 138.761905 333.028571 186 380.266667 188.952381 382.628571 380.857143 191.314286"></polygon>
        </g>
    </g>
</svg>