<?xml version="1.0" encoding="utf-8"?>
<!-- Svg Vector Icons : http://www.onlinewebfonts.com/icon -->
<!DOCTYPE svg PUBLIC "-//W3C//DTD SVG 1.1//EN" "http://www.w3.org/Graphics/SVG/1.1/DTD/svg11.dtd">
<svg version="1.1" xmlns="http://www.w3.org/2000/svg" xmlns:xlink="http://www.w3.org/1999/xlink" x="0px" y="0px" viewBox="0 0 1000 1000" enable-background="new 0 0 1000 1000" xml:space="preserve">
<metadata> Svg Vector Icons : http://www.onlinewebfonts.com/icon </metadata>
<g><g><path d="M426.5,108c-16.3,0-29.9,5.8-40.6,17.4s-16.1,25.5-16.1,41.9c0,4.8,0.5,9.5,1.5,14.3L447.9,500h-13.3l-59.2-246c-3.1-12.9-9.8-23.5-20.2-31.6c-10.4-8.2-22.2-12.3-35.5-12.3c-16,0-29.4,5.8-40.3,17.4c-10.9,11.6-16.3,25.4-16.3,41.3c0,3.7,0.7,8.7,2,14.8c1,4.4,7.7,31.8,19.9,82.2c12.3,50.4,23.8,98.3,34.7,143.9c10.9,45.6,16.3,69.1,16.3,70.4V696L179.5,578.6c-11.6-8.8-24.7-13.3-39.3-13.3c-17.7,0-32.9,6.2-45.7,18.6c-12.8,12.4-19.1,27.5-19.1,45.2c0,22.8,9.5,41.5,28.6,56.1l258.8,193.4c11.6,8.8,24.5,13.3,38.8,13.3h354.2c11.2,0,21.3-3.5,30.1-10.5c8.8-7,14.6-15.9,17.4-26.8l51-204.7c2.7-10.2,4.4-25.2,5.1-44.9c0.7-19.7,2.2-34.4,4.6-43.9l59.2-244c1-4.1,1.5-8.5,1.5-13.3c0-15.7-5.6-29.1-16.8-40.3c-11.2-11.2-24.8-16.8-40.8-16.8c-12.9,0-24.7,4.3-35.2,13s-17.4,19.3-20.4,31.9L760.8,500h-13.3l67.4-279.2c1-4.8,1.5-9.5,1.5-14.3c0-16-5.4-29.6-16.3-40.8c-10.9-11.2-24.5-16.8-40.8-16.8c-12.9,0-24.6,4.1-35,12.3c-10.4,8.2-17.1,18.7-20.2,31.6l-74,307.3h-64.8l-83.7-348.1c-3.1-12.9-9.8-23.5-20.2-31.6C451.1,112.1,439.4,108,426.5,108L426.5,108z M755.7,957.3H401.5c-28.9,0-55-8.7-78.1-26l-258.8-194c-17-12.9-30.4-28.9-40.1-48C14.8,670.3,10,650.2,10,629.1c0-35.7,12.8-66.2,38.3-91.4s56.1-37.8,91.9-37.8c8.5,0,16.9,0.9,25.3,2.8c8.3,1.9,15.4,3.7,21.2,5.6c5.8,1.9,12.8,5.4,20.9,10.5c8.2,5.1,14.1,9,17.9,11.7s10.3,7.7,19.7,15.1c9.4,7.3,15.7,12.2,19.1,14.5l-62.8-261.3c-2.4-11.9-3.6-21.9-3.6-30.1c0-31.6,10.2-59.2,30.6-82.7s46.3-36.9,77.6-40.3c4.8-29.6,18.5-54.2,41.1-73.8c22.6-19.6,49.1-29.3,79.4-29.3c28.2,0,53.4,8.8,75.5,26.3c22.1,17.5,36.6,40.1,43.4,67.6L598,355l42.4-177.6c6.8-27.6,21.3-50.1,43.4-67.6c22.1-17.5,47.3-26.3,75.5-26.3c29.6,0,55.5,9.2,77.8,27.6c22.3,18.4,36.3,42,42.1,70.9c31.6,3.4,58,16.7,79.1,39.8C979.5,245,990,272.4,990,304c0,10.2-1.2,19.9-3.6,29.1l-59.2,243.5c-1.7,7.5-2.6,18.9-2.6,34.2c0,17.4-2.2,35.7-6.6,55.1l-51.6,204.7c-6.5,25.5-20,46.4-40.6,62.5C805.3,949.3,781.9,957.3,755.7,957.3L755.7,957.3z"/></g></g>
</svg>