<?xml version="1.0" encoding="UTF-8" standalone="no"?>
<!DOCTYPE svg PUBLIC "-//W3C//DTD SVG 1.1//EN" "http://www.w3.org/Graphics/SVG/1.1/DTD/svg11.dtd">
<svg version="1.1" xmlns="http://www.w3.org/2000/svg" xmlns:xlink="http://www.w3.org/1999/xlink" preserveAspectRatio="xMidYMid meet" viewBox="92.26589233874174 96.6086956521738 461.94202898550736 435.1884057971015" width="449.94" height="423.19"><defs><path d="M327.4 102.95L333.57 103.38L339.69 103.98L345.76 104.74L351.77 105.66L357.73 106.74L363.63 107.98L369.47 109.38L375.25 110.93L380.96 112.63L386.6 114.48L392.18 116.47L397.68 118.61L403.1 120.89L408.45 123.31L413.72 125.87L418.91 128.56L424.01 131.38L429.03 134.33L433.95 137.41L438.79 140.61L443.53 143.94L448.17 147.39L452.72 150.95L457.16 154.63L461.5 158.43L465.74 162.33L469.86 166.35L473.88 170.47L477.78 174.69L481.57 179.02L485.23 183.44L488.78 187.96L492.21 192.58L495.5 197.29L498.68 202.09L501.72 206.97L504.63 211.94L507.4 217L508.55 219.19L509.67 221.39L510.76 223.61L511.83 225.85L512.88 228.1L513.9 230.36L514.89 232.63L515.85 234.92L516.79 237.23L517.7 239.54L518.59 241.87L519.45 244.21L520.28 246.57L521.08 248.93L521.85 251.31L522.6 253.7L523.32 256.1L524 258.52L524.67 260.94L525.3 263.38L525.9 265.83L526.47 268.29L527.02 270.76L527.16 271.45L541.25 271.45L541.63 271.46L542 271.49L542.38 271.54L542.74 271.61L543.1 271.7L543.45 271.8L543.79 271.93L544.12 272.07L544.45 272.23L544.76 272.4L545.06 272.59L545.36 272.79L545.64 273.01L545.91 273.24L546.17 273.49L546.41 273.75L546.65 274.02L546.86 274.3L547.07 274.59L547.26 274.9L547.43 275.21L547.59 275.54L547.73 275.87L547.85 276.21L547.96 276.56L548.05 276.92L548.12 277.28L548.17 277.65L548.2 278.03L548.21 278.41L548.21 349.99L548.2 350.38L548.17 350.75L548.12 351.12L548.05 351.49L547.96 351.85L547.85 352.2L547.73 352.54L547.59 352.87L547.43 353.19L547.26 353.51L547.07 353.81L546.86 354.11L546.65 354.39L546.41 354.66L546.17 354.92L545.91 355.16L545.64 355.4L545.36 355.61L545.06 355.82L544.76 356.01L544.45 356.18L544.12 356.34L543.79 356.48L543.45 356.6L543.1 356.71L542.74 356.8L542.38 356.87L542 356.92L541.63 356.95L541.25 356.96L527.16 356.96L525.3 365.03L523.08 373.1L520.55 381.05L517.7 388.86L514.56 396.53L511.12 404.05L507.4 411.41L503.4 418.6L499.12 425.63L494.57 432.47L489.77 439.13L484.72 445.6L479.42 451.87L473.88 457.94L468.11 463.79L462.12 469.43L455.9 474.84L449.48 480.01L442.86 484.95L436.04 489.64L429.03 494.08L421.84 498.25L414.47 502.16L406.93 505.8L399.24 509.16L391.38 512.23L383.39 515L375.25 517.48L366.97 519.64L358.58 521.5L350.06 523.03L341.43 524.23L332.69 525.1L323.86 525.62L314.93 525.8L306.01 525.62L297.17 525.1L288.44 524.23L279.81 523.03L271.29 521.5L262.89 519.64L254.62 517.48L246.48 515L238.48 512.23L230.63 509.16L222.93 505.8L215.4 502.16L208.03 498.25L200.84 494.08L193.83 489.64L187.01 484.95L180.38 480.01L173.96 474.84L167.75 469.43L161.76 463.79L155.99 457.94L150.45 451.87L145.15 445.6L140.09 439.13L135.29 432.47L130.75 425.63L126.47 418.6L122.46 411.41L118.74 404.05L115.3 396.53L112.16 388.86L109.32 381.05L106.79 373.1L104.57 365.03L102.67 356.82L101.1 348.51L99.87 340.08L98.98 331.55L98.45 322.92L98.27 314.2L98.45 305.49L98.98 296.86L99.87 288.33L101.1 279.9L102.67 271.58L104.57 263.38L106.79 255.3L109.32 247.35L112.16 239.54L115.3 231.87L118.74 224.36L122.46 217L126.47 209.8L130.75 202.78L135.29 195.93L140.09 189.27L145.15 182.8L150.45 176.53L155.99 170.47L161.76 164.61L167.75 158.98L173.96 153.57L180.38 148.39L187.01 143.46L193.83 138.77L200.84 134.33L208.03 130.15L215.4 126.24L222.93 122.6L230.63 119.25L238.48 116.18L246.48 113.4L254.62 110.93L262.89 108.76L271.29 106.91L279.81 105.38L288.44 104.18L297.17 103.31L306.01 102.79L314.93 102.61L321.19 102.7L327.4 102.95Z" id="c2eOw9xcJm"></path><path d="M451.38 314.7C451.38 309.35 451.38 306.01 451.38 304.67C451.38 301.81 449.06 299.49 446.2 299.49C443.9 299.49 442.2 299.49 439.9 299.49C437.04 299.49 434.72 297.16 434.72 294.3C434.72 288.09 434.72 274.65 434.72 268.44C434.72 265.58 432.4 263.25 429.53 263.25C427.53 263.25 426.69 263.25 424.69 263.25C421.82 263.25 419.5 260.93 419.5 258.07C419.5 255.92 419.5 254.65 419.5 252.5C419.5 249.63 417.18 247.31 414.31 247.31C412.76 247.31 413.29 247.31 411.74 247.31C408.88 247.31 406.56 244.99 406.56 242.13C406.56 239.54 406.56 236.97 406.56 234.38C406.56 231.52 404.24 229.2 401.37 229.2C399.49 229.2 399.03 229.2 397.15 229.2C394.28 229.2 391.94 231.51 391.91 234.38C391.77 246.97 391.43 279.54 391.29 292.13C391.26 295 388.93 297.31 386.05 297.31C377.18 297.31 355 297.31 319.5 297.31" id="aM0hXQHzw"></path><path d="M451.38 313.7C451.38 319.05 451.38 322.4 451.38 323.73C451.38 326.6 449.06 328.92 446.2 328.92C443.9 328.92 442.2 328.92 439.9 328.92C437.04 328.92 434.72 331.24 434.72 334.11C434.72 340.32 434.72 353.76 434.72 359.97C434.72 362.83 432.4 365.15 429.53 365.15C427.53 365.15 426.69 365.15 424.69 365.15C421.82 365.15 419.5 367.47 419.5 370.34C419.5 372.49 419.5 373.76 419.5 375.91C419.5 378.77 417.18 381.09 414.31 381.09C412.76 381.09 413.29 381.09 411.74 381.09C408.88 381.09 406.56 383.42 406.56 386.28C406.56 388.87 406.56 391.44 406.56 394.02C406.56 396.89 404.24 399.21 401.37 399.21C399.49 399.21 399.03 399.21 397.15 399.21C394.28 399.21 391.94 396.9 391.91 394.02C391.77 381.44 391.43 348.87 391.29 336.28C391.26 333.41 388.93 331.09 386.05 331.09C377.18 331.09 355 331.09 319.5 331.09" id="a3hpY5FWY7"></path><path d="M188.62 314.7C188.62 309.35 188.62 306.01 188.62 304.67C188.62 301.81 190.94 299.49 193.8 299.49C196.1 299.49 197.8 299.49 200.1 299.49C202.96 299.49 205.28 297.16 205.28 294.3C205.28 288.09 205.28 274.65 205.28 268.44C205.28 265.58 207.6 263.25 210.47 263.25C212.47 263.25 213.31 263.25 215.31 263.25C218.18 263.25 220.5 260.93 220.5 258.07C220.5 255.92 220.5 254.65 220.5 252.5C220.5 249.63 222.82 247.31 225.69 247.31C227.24 247.31 226.71 247.31 228.26 247.31C231.12 247.31 233.44 244.99 233.44 242.13C233.44 239.54 233.44 236.97 233.44 234.38C233.44 231.52 235.76 229.2 238.63 229.2C240.51 229.2 240.97 229.2 242.85 229.2C245.72 229.2 248.06 231.51 248.09 234.38C248.23 246.97 248.57 279.54 248.71 292.13C248.74 295 251.07 297.31 253.95 297.31C262.82 297.31 285 297.31 320.5 297.31" id="awYFChZDC"></path><path d="M188.62 313.7C188.62 319.05 188.62 322.4 188.62 323.73C188.62 326.6 190.94 328.92 193.8 328.92C196.1 328.92 197.8 328.92 200.1 328.92C202.96 328.92 205.28 331.24 205.28 334.11C205.28 340.32 205.28 353.76 205.28 359.97C205.28 362.83 207.6 365.15 210.47 365.15C212.47 365.15 213.31 365.15 215.31 365.15C218.18 365.15 220.5 367.47 220.5 370.34C220.5 372.49 220.5 373.76 220.5 375.91C220.5 378.77 222.82 381.09 225.69 381.09C227.24 381.09 226.71 381.09 228.26 381.09C231.12 381.09 233.44 383.42 233.44 386.28C233.44 388.87 233.44 391.44 233.44 394.02C233.44 396.89 235.76 399.21 238.63 399.21C240.51 399.21 240.97 399.21 242.85 399.21C245.72 399.21 248.06 396.9 248.09 394.02C248.23 381.44 248.57 348.87 248.71 336.28C248.74 333.41 251.07 331.09 253.95 331.09C262.82 331.09 285 331.09 320.5 331.09" id="af23yVkw4"></path></defs><g><g><use xlink:href="#c2eOw9xcJm" opacity="1" fill="#cc0dd4" fill-opacity="0"></use><g><use xlink:href="#c2eOw9xcJm" opacity="1" fill-opacity="0" stroke="#ffffff" stroke-width="12" stroke-opacity="1"></use></g></g><g><g><g><use xlink:href="#aM0hXQHzw" opacity="1" fill-opacity="0" stroke="#ffffff" stroke-width="12" stroke-opacity="1"></use></g></g><g><g><use xlink:href="#a3hpY5FWY7" opacity="1" fill-opacity="0" stroke="#ffffff" stroke-width="12" stroke-opacity="1"></use></g></g><g><g><use xlink:href="#awYFChZDC" opacity="1" fill-opacity="0" stroke="#ffffff" stroke-width="12" stroke-opacity="1"></use></g></g><g><g><use xlink:href="#af23yVkw4" opacity="1" fill-opacity="0" stroke="#ffffff" stroke-width="12" stroke-opacity="1"></use></g></g></g></g></svg>