<svg xmlns="http://www.w3.org/2000/svg" width="512" height="512" viewBox="0 0 612 612" style="enable-background:new 0 0 612 612;"><g fill="#FFF"><path d="M587.572 186.88c-32.266-75.224-87.096-129.933-162.95-162.284C386.713 8.426 346.993.168 305.498.168c-41.488 0-80.914 8.18-118.784 24.428-75.225 32.265-130.298 86.94-162.62 162.285C7.894 224.63 0 264.177 0 305.665c0 41.496 7.895 81.37 24.092 119.127 32.323 75.347 87.403 130.35 162.62 162.622 37.878 16.247 77.296 24.42 118.785 24.42 41.49 0 81.214-8.26 119.12-24.42C500.47 555.06 555.3 500.01 587.573 424.792 603.82 386.913 612 347.16 612 305.663c0-41.488-8.174-80.907-24.428-118.783zm-48.848 253.973c-24.02 41.195-56.93 73.876-98.375 98.04-41.196 24.02-86.333 36.134-134.846 36.134-36.47 0-71.27-7.024-104.4-21.415-33.13-14.384-61.733-33.294-85.66-57.215-23.93-23.928-42.974-52.81-57.215-85.997-14.2-33.065-21.08-68.258-21.08-104.735 0-48.52 11.92-93.428 35.806-134.51 23.97-41.23 56.886-73.946 98.04-98.04 41.145-24.09 85.99-36.14 134.5-36.14 48.52 0 93.65 12.12 134.846 36.14 41.446 24.165 74.283 56.88 98.375 98.04 24.092 41.153 36.135 85.99 36.135 134.51 0 48.52-11.964 93.734-36.128 135.188z"/><path d="M324.906 302.988v-173.33c0-10.37-9.037-18.737-19.41-18.737-9.7 0-18.403 8.367-18.403 18.74v176.004c0 .336.67 1.678.67 2.678-.67 6.024 1.008 11.043 5.02 15.062L392.836 423.45c6.695 6.695 19.073 6.695 25.763 0 7.693-7.695 7.187-18.86 0-26.1l-93.694-94.362z"/></g></svg>