<svg id="Layer_1_Image" data-name="Layer 1 Image" xmlns="http://www.w3.org/2000/svg" viewBox="0 0 711.04 214.74"><defs><style>.cls-1{fill:#1e3c58;}.cls-2{fill:#aa863b;}.cls-3{fill:#737373;}.cls-4{fill:#fff;}</style></defs><title>technolife</title><path class="cls-1" d="M259.55,145.43V131.69c2,0,3.94.07,5.88,0a39.62,39.62,0,0,0,11-1.85c6.42-2.21,10-7.2,9.93-13.85h-1.18c-3.53-.06-7.06,0-10.58-.21A23.47,23.47,0,0,1,263,112c-5.05-3.24-7.67-8-8.55-13.79A30.48,30.48,0,0,1,255.8,83a23.23,23.23,0,0,1,23.46-15.2c6.19.41,11.46,2.55,15.34,7.54a22.88,22.88,0,0,1,4.54,10.88c.46,3.15.64,6.34.82,9.51.12,2.15,0,4.31,0,6.49a3.45,3.45,0,0,0,.66.13c5.93,0,11.86,0,17.79-.15a13.71,13.71,0,0,0,4.46-1.06c2.42-.93,3.26-3,3.26-5.43V78.1h13.53v1.14c0,5.31.13,10.63,0,15.94-.14,4.66,3.67,6.89,6.74,7.08,1.23.07,2.46.12,3.7.11,6.85,0,13.71,0,20.57-.13a22.37,22.37,0,0,0,8.42-1.63c2.48-1.06,4.4-2.65,5-5.44a6.78,6.78,0,0,0-.86-5,107.16,107.16,0,0,0-6.54-10.54C372,73.41,367,67.38,362.21,61.22a2.16,2.16,0,0,1-.4-1.55c.61-3.19,1.28-6.37,2-9.54a1.69,1.69,0,0,1,.81-1q23.13-11.28,46.28-22.48c.18-.09.37-.16.63-.27l5.56,12.41L375.46,58c.12.22.19.37.28.5,8.38,11.11,16.71,22.26,25.17,33.31a46.86,46.86,0,0,0,6.17,6.43,16.7,16.7,0,0,0,11.54,4.13c7.58,0,15.16-.16,22.73,0,6.82.17,9-4.35,8.57-9.66a123.3,123.3,0,0,0-3.28-17.86c-.08-.33-.15-.66-.25-1.1l12.81-3.88c.48,2.12,1.06,4.16,1.41,6.23.86,5.24,1.8,10.47,2.37,15.73a21.9,21.9,0,0,1-3.21,14.68c-4.07,6.31-10.1,9.22-17.43,9.37-8.26.17-16.53.06-24.79,0s-15.21-2.78-20.82-8.87c-1-1.13-2.12-2.23-3.19-3.34,0,0-.06,0-.09,0s-.08,0-.09,0c-2.72,6-7.94,8.82-13.89,10.61A41.45,41.45,0,0,1,367.6,116q-10,0-20,0a23.41,23.41,0,0,1-11.48-2.71c-1.12-.63-2.15-1.43-3.3-2.21a18.66,18.66,0,0,1-8.49,4,54.45,54.45,0,0,1-8.05.88c-5,.14-10.08,0-15.12,0H300c-.1,1.2-.19,2.35-.31,3.49C298.35,132,291,139.3,279.49,143,273.06,145.12,266.38,145.42,259.55,145.43Zm26.9-43.11v-1c0-2.91.05-5.82-.15-8.72a21.69,21.69,0,0,0-1.1-5.4,7.88,7.88,0,0,0-7.54-5.76c-4.22-.13-7.73,1.8-9.09,5.37a20,20,0,0,0-1.19,5.88c-.3,4.71,2.29,8.07,6.87,9.23a12.63,12.63,0,0,0,2.72.43C280.08,102.35,283.19,102.32,286.45,102.32Z" transform="translate(-14.74 -16.06)"/><path class="cls-1" d="M319.84,52.74l9.85-9.5,9.62,9.64-9.51,9.51Z" transform="translate(-14.74 -16.06)"/><path class="cls-1" d="M453.56,40.54l9.21,9.25-9,8.94-9.2-8.91Z" transform="translate(-14.74 -16.06)"/><path class="cls-1" d="M421.53,50l8.94-9.32L439.79,50l-9.05,8.87Z" transform="translate(-14.74 -16.06)"/><path class="cls-2" d="M83.56,103.31c-.46-.58-.74-1-1-1.29a19.2,19.2,0,0,1-4.94-15.27,20.31,20.31,0,0,1,9.08-14.87c8-5.6,18.82-5.87,26.47-.6A20.41,20.41,0,0,1,122,86.67a20.56,20.56,0,0,1-3.79,14.75,9.2,9.2,0,0,0-.47.85,17.9,17.9,0,0,0,2,.22c10.29,0,20.57,0,30.85,0,4.81,0,7.82-3.11,7.66-8.22a71.07,71.07,0,0,0-1.29-10c-.56-3.23-1.39-6.41-2.09-9.61a7.51,7.51,0,0,1-.07-.78L167.45,70c.75,3.67,1.52,7.17,2.17,10.68a71.49,71.49,0,0,1,1.57,15.17,20.17,20.17,0,0,1-16.07,19.41,25.54,25.54,0,0,1-5.09.5c-10.66,0-21.32,0-32-.08a72.26,72.26,0,0,1-17-2.19,4.28,4.28,0,0,0-1.78,0c-3.67.63-7.3,1.53-11,1.92-5.71.6-11.45,1-17.19,1.22-6.36.18-12.74,0-19.11-.1-3,0-6-.23-9-.47a71.41,71.41,0,0,1-12.69-1.69c-7.45-2-11.84-6.92-13.77-14.21A29.18,29.18,0,0,1,16.5,86.7c.76-3.64,1.8-7.22,2.68-10.84.19-.8.54-.94,1.3-.69q5.36,1.77,10.75,3.43c.78.24.9.51.71,1.3-1,4.12-2,8.23-2.77,12.39a12.36,12.36,0,0,0,.36,5.16c.86,3.16,3.36,4.42,6.44,4.65,6.79.51,13.57,1.16,20.36,1.42,7.08.27,14.18.18,21.28.18C79.5,103.7,81.4,103.46,83.56,103.31ZM100.63,81a10.36,10.36,0,0,0-5.33,1.32c-5.18,2.8-6.16,7.74-3.42,12.11,1.85,2.93,4.86,4.32,8,5.46a1.22,1.22,0,0,0,.88-.08,40.32,40.32,0,0,0,5.33-3,8.53,8.53,0,0,0,3.21-8.7C108.57,84.14,104.38,81,100.63,81Z" transform="translate(-14.74 -16.06)"/><path class="cls-2" d="M227.9,61.51c0-7.78,0-15.56,0-23.34,0-1,.23-1.3,1.25-1.28,3.7.06,7.4,0,11.1,0,.8,0,1.08.23,1.08,1,0,14.36,0,28.72-.05,43.08a63.55,63.55,0,0,1-1.75,15.76c-2.56,9.88-9.09,15.43-18.76,17.73a52.19,52.19,0,0,1-12.21,1.3c-7.57,0-15.15,0-22.72,0-1,0-1.38-.23-1.36-1.31q.1-5.4,0-10.8c0-1,.33-1.25,1.29-1.24,7.4,0,14.8.11,22.21,0a53.11,53.11,0,0,0,9.66-1c5.76-1.2,9-5,9.62-10.81q.54-5.2.62-10.44C228,74,227.9,67.75,227.9,61.51Z" transform="translate(-14.74 -16.06)"/><path class="cls-2" d="M197.65,93.11c-1.88,0-3.77,0-5.65,0-.63,0-.93-.14-1-.84-.15-2.59-.37-5.18-.55-7.77q-.42-5.94-.81-11.88c-.15-2.32-.28-4.64-.43-7-.26-4-.54-7.92-.8-11.88-.16-2.39-.29-4.78-.44-7.17-.14-2.18-.26-4.37-.42-6.55-.06-.79.22-1,1-1.13q5.66-.59,11.29-1.32c.74-.1.88.1.92.76q.49,8.09,1,16.18t1,16q.52,7.89,1,15.77c.13,1.94.24,3.89.4,5.83.07.79-.24,1-1,1C201.42,93.08,199.54,93.11,197.65,93.11Z" transform="translate(-14.74 -16.06)"/><path class="cls-2" d="M91.35,45.67q5-4.83,9.69-9.41l9.55,9.52-9.36,9.34Z" transform="translate(-14.74 -16.06)"/><path class="cls-2" d="M169.63,136.51l-8.79,8.78-9.08-8.73,8.8-9.11Z" transform="translate(-14.74 -16.06)"/><path class="cls-2" d="M137.6,145.65c-.71-.76-1.49-1.61-2.3-2.44q-2.91-3-5.85-5.92c-.41-.41-.67-.74-.15-1.27,2.71-2.78,5.38-5.58,8.07-8.36a3.48,3.48,0,0,1,.53-.27c.82.9,1.67,1.88,2.58,2.81,1.89,1.93,3.82,3.83,5.73,5.75.33.32.68.63.2,1.1Z" transform="translate(-14.74 -16.06)"/><path class="cls-3" d="M437,205.08a10,10,0,0,1-3.23-9.88,7.9,7.9,0,0,1,3.28-5,9.37,9.37,0,0,1,12,.71,9.86,9.86,0,0,1,2.78,4.84,8.78,8.78,0,0,1-.39,5.64,54.21,54.21,0,0,1-2.9,4.87,11.14,11.14,0,0,0,6.16.83,4.35,4.35,0,0,0,3.48-6.25,34.27,34.27,0,0,0-3.66-5.54c-2.12-2.5-4.5-4.79-6.79-7.15a10.84,10.84,0,0,0-1.24-1l3.06-3.43c.19.08.31.09.37.15,3.56,3.9,7.2,7.73,10.64,11.72a9.66,9.66,0,0,1,2,9.79c-1.2,3.68-3.81,5.62-7.51,6.29a15,15,0,0,1-9.43-1.71,7.45,7.45,0,0,0-5.34-.65c-4.8,1.11-9.73,1-14.62.87a9.54,9.54,0,0,1-5.42-2,2.11,2.11,0,0,0-.36.29,7.16,7.16,0,0,1-8.33,2.62,49,49,0,0,1-6.76-2.91c-.69-.33-1.12-.37-1.67.23a5.49,5.49,0,0,1-3.94,1.76c-2.6.08-5.2,0-7.8-.12a7.29,7.29,0,0,1-5.19-2.5c-2.69,2.48-5.93,2.72-9.27,2.68-2.68,0-5.35,0-8,0a10.12,10.12,0,0,1-7.28-2.53,1.93,1.93,0,0,0-.34-.19c-5,3.68-8.89,3.7-14.06,0a9.39,9.39,0,0,1-6.81,2.69,9.9,9.9,0,0,1-6.84-2.62c-3.38,2.94-7.33,2.91-11.34,2.42a12,12,0,0,1-9.44-6.45l-.79.83a10.76,10.76,0,0,1-13.27,1.86c-3.11-1.91-4.14-4.88-4-8.35a10.77,10.77,0,0,1,5.27-8.93,43.45,43.45,0,0,1,6.86-3.42c.84-.36,1-.73.86-1.49-.1-.5-.17-1-.27-1.59,1.32-.3,2.57-.59,3.83-.86.76-.17.73.5.82.9.72,3,1.38,6,2.1,9,.66,2.72,1.31,5.45,2.06,8.15a7.65,7.65,0,0,0,7.43,6,21.82,21.82,0,0,0,4.2-.17c2.26-.33,3.26-1.54,3.31-3.85s.05-4.87,0-7.3c0-.84.27-1.1,1.06-1a18.51,18.51,0,0,0,2.47,0c.88-.07,1.1.31,1.08,1.13-.05,2.16,0,4.32,0,6.48a4.65,4.65,0,0,0,6.67,4.46,4,4,0,0,0,2.52-4c.05-2.33,0-4.66,0-7,0-.79.2-1.14,1-1.08a20,20,0,0,0,2.57,0c.76,0,1,.23,1,1-.05,2.37-.05,4.73,0,7.1,0,2.6,1.55,4.08,4.28,4.29s4.65-1.06,5.06-3.54a19.72,19.72,0,0,0,.07-2.88c0-1.67,0-3.35,0-5,0-.64.16-1,.86-.94q1.44.06,2.88,0c.69,0,.88.29.87.93,0,2.13,0,4.25,0,6.38,0,3.48,1.6,5.07,5.12,5.09,3.36,0,6.71,0,10.07,0a10.26,10.26,0,0,0,2.14-.25c2.09-.49,3-1.64,3-3.83,0-2.43,0-4.86,0-7.3,0-.74.2-1.07,1-1s1.78,0,2.67,0c.72,0,1,.24.95,1,0,2.33,0,4.66,0,7,0,2.68,1.52,4.33,4.19,4.44,2,.08,3.91,0,5.86,0a2.31,2.31,0,0,0,2.18-1.47c.64-1.5,1.11-3.08,1.7-4.6a46.88,46.88,0,0,1,2.65-6.64c3-5.27,11.13-4.84,14.41-.36a12.38,12.38,0,0,1,2.35,6.78c.05.72.07,1.44.17,2.15.33,2.3,1.66,3.91,4,4,3.61.2,7.23.05,10.85.05Zm-19.38-4.27a31.09,31.09,0,0,0-.94-4,4.71,4.71,0,0,0-4.57-3.21c-2.06,0-3.5,1.08-4.28,3.36-.68,2-1.23,4.05-1.79,6.09a.83.83,0,0,0,.29.74c2.27,1,4.51,2.13,6.86,2.93a2.71,2.71,0,0,0,3.62-2A35,35,0,0,0,417.58,200.81ZM309.07,189.55c-3.17.93-6,2.09-8.16,4.42a7.84,7.84,0,0,0-1.61,2.69,4.64,4.64,0,0,0,2.33,6,6.24,6.24,0,0,0,8.56-4.61C310.69,195.11,309.61,192.46,309.07,189.55Zm138.7,8.09a10.74,10.74,0,0,0-.6-2.14,5.21,5.21,0,0,0-7.27-1.91,4.61,4.61,0,0,0-1,6.9,20.75,20.75,0,0,0,3.88,3.09,1.07,1.07,0,0,0,.86,0A7.09,7.09,0,0,0,447.77,197.64Z" transform="translate(-14.74 -16.06)"/><path class="cls-3" d="M230.16,205c.29-.46.53-.87.79-1.25,2.32-3.35,4.52-6.79,7-10a12.89,12.89,0,0,1,7.48-5A9.45,9.45,0,0,1,257,195.8a14,14,0,0,1,.21,7.1,8.93,8.93,0,0,1-7.77,7,46.22,46.22,0,0,1-5.13.21c-3.73,0-7.47,0-11.21,0a10,10,0,0,1-6.77-2.23c-.45-.37-.75-.28-1.15,0a10.55,10.55,0,0,1-6.5,2.16c-1.71.09-3.43,0-5.14,0-.36,0-.73,0-1.13.05a27.5,27.5,0,0,1,.9,3.24c.5,3.34-.86,5.87-3.57,7.75a16.93,16.93,0,0,1-8.86,2.91c-3.63.19-7.27.17-10.9,0a14.09,14.09,0,0,1-13.32-11.25c-1.11-5.29-.11-10.33,1.78-15.27.45-1.17,1-2.32,1.52-3.62,1.3.64,2.5,1.2,3.65,1.85.15.08.15.64.06.93-.82,2.6-1.89,5.15-2.48,7.8a14,14,0,0,0,1.06,10.09,8.91,8.91,0,0,0,8,4.87c3.15.09,6.31.1,9.46,0a13,13,0,0,0,7.15-2.24c1.51-1.05,2.19-2.42,1.61-3.63a3.6,3.6,0,0,0-1.69-1.79,36.86,36.86,0,0,0-5.4-1.49,19.68,19.68,0,0,0-3.27-.23c-.55,0-.72-.26-.69-.76.08-1.09.09-2.2.24-3.28,0-.22.56-.52.86-.52,2.85,0,5.69,0,8.54,0h11a8.52,8.52,0,0,0,1.24-.05c3.13-.42,4.18-1.63,4.18-4.83,0-2.12,0-4.25,0-6.37,0-.82.2-1.23,1.09-1.15,1.08.1,2.51-.25,3.14.31s.21,2,.24,3c.06,1.95.05,3.9.16,5.85A3.17,3.17,0,0,0,230.16,205Zm5.13.47a3.38,3.38,0,0,0,.6.11c4,0,8.08.07,12.13,0a4.83,4.83,0,0,0,4.9-4.15,11.47,11.47,0,0,0,.05-2.87c-.21-2.09-.91-4-2.95-5a5.52,5.52,0,0,0-5.91.68,13.48,13.48,0,0,0-2.75,2.46c-1.88,2.47-3.62,5.05-5.41,7.6A12.27,12.27,0,0,0,235.29,205.46Z" transform="translate(-14.74 -16.06)"/><path class="cls-3" d="M83.53,209.14c-.14,1.36-.23,2.51-.39,3.65A12.7,12.7,0,0,1,71,224.16c-1.64.13-3.28.12-4.92.2-.69,0-1-.15-1-.91a25.6,25.6,0,0,0,0-2.77c0-.76.3-.89,1-.92a41.82,41.82,0,0,0,5.82-.36c4.36-.76,6.57-3.78,6.76-8.2.25-5.58.18-11.16.19-16.75,0-1,.25-1.39,1.26-1.29a15.5,15.5,0,0,0,2.26,0c.78,0,1,.3,1,1,0,2.16,0,4.32,0,6.48,0,3.34,1.54,4.9,4.9,4.9,4,0,8.07.21,12-.81A55.81,55.81,0,0,0,114,199.16a5.68,5.68,0,0,0,.78-.6c-1.61-.63-3-1.24-4.52-1.77-3.09-1.12-6.19-2.2-9.28-3.29-2.71-1-3.71.44-4.43,2.14-.18.44-.33.89-.53,1.45-1.31-.33-2.59-.63-3.86-1a.8.8,0,0,1-.33-.7c1-3.16,2.55-5.85,6.1-6.51a7.87,7.87,0,0,1,3.83.19c5.66,1.94,11.23,4.13,16.9,6,1.69.57,2.16,1.5,2.42,3.12a2.43,2.43,0,0,1-1.37,2.85c-6,3.74-12.32,6.84-19.31,8.37a41.34,41.34,0,0,1-9.28.73C88.59,210.13,86.07,210.37,83.53,209.14Z" transform="translate(-14.74 -16.06)"/><path class="cls-3" d="M14.74,207.47l2.33-4.09c.39.22.72.38,1,.57,3,1.91,6.44,2.15,9.9,1.92a16.9,16.9,0,0,0,4.1-.79c1.71-.56,2-1.59,1.25-3.21A19.26,19.26,0,0,0,32.24,200L24,187.39c-.19-.28-.36-.57-.61-1l3.76-2.48c.27.37.51.69.73,1,3.51,5.32,7,10.66,10.54,15.94a25.46,25.46,0,0,0,3.08,3.57,4.1,4.1,0,0,0,3.09,1.13c3.29,0,6.58,0,9.87,0,3,0,4.76-1.65,4.55-4.57-.22-3.08-.78-6.15-1.28-9.21-.11-.69,0-.93.64-1.09.93-.24,1.85-.53,2.75-.85.56-.2.81-.08.92.52.45,2.63,1,5.23,1.36,7.87a18.41,18.41,0,0,1,0,4.69A8.44,8.44,0,0,1,55,210.15q-5.5.06-11,0a9.14,9.14,0,0,1-5.79-2.33l-.8-.64s-.13,0-.2-.07c-3.53,3.44-8,3.57-12.46,3.31a25.06,25.06,0,0,1-5.44-.92A34.66,34.66,0,0,1,14.74,207.47Z" transform="translate(-14.74 -16.06)"/><path class="cls-3" d="M148.54,202.53c0,2.6.1,5.21,0,7.81-.17,3.66-1.09,7.1-3.69,9.87a12.86,12.86,0,0,1-8.16,3.91c-1.86.22-3.76.15-5.64.24-.62,0-.87-.19-.84-.83,0-.95,0-1.92,0-2.87,0-.68.22-.87.89-.9a41.49,41.49,0,0,0,6.12-.4,7.61,7.61,0,0,0,6.54-7.17c.2-1.8.21-3.62.23-5.43q0-6.27,0-12.54c0-.84.27-1.1,1.06-1.06a18.51,18.51,0,0,0,2.47,0c.89-.06,1.09.32,1.08,1.14,0,2.74,0,5.49,0,8.23Z" transform="translate(-14.74 -16.06)"/><path class="cls-3" d="M281.84,202.61c0,2.74.14,5.49,0,8.22-.27,4.57-1.81,8.56-5.84,11.2a15.81,15.81,0,0,1-8,2.31c-1.13.07-2.26,0-3.39,0-.79,0-1-.28-1-1a22.61,22.61,0,0,0,0-2.47c-.06-.83.22-1.11,1.09-1.13a37.59,37.59,0,0,0,5.92-.41,7.57,7.57,0,0,0,6.4-6.82,30.8,30.8,0,0,0,.32-4.4q.06-6.83,0-13.66c0-1,.28-1.39,1.28-1.3a14.21,14.21,0,0,0,2.26,0c.77,0,1,.28,1,1,0,2.81,0,5.61,0,8.42Z" transform="translate(-14.74 -16.06)"/><path class="cls-3" d="M160.29,192.15c0,5.61,0,11.23,0,16.85,0,.87-.2,1.26-1.14,1.17a26.41,26.41,0,0,0-2.67,0c-.57,0-.83-.2-.79-.77,0-.17,0-.35,0-.52q0-16.85,0-33.7c0-1,.22-1.38,1.25-1.28a16.83,16.83,0,0,0,2.46,0c.67,0,.91.21.9.88,0,1.88,0,3.77,0,5.65Z" transform="translate(-14.74 -16.06)"/><path class="cls-3" d="M263.27,192c0-5.62,0-11.24,0-16.86,0-1.08.32-1.41,1.33-1.29a8,8,0,0,0,1.95,0c1-.11,1.35.2,1.35,1.28q-.08,16.86,0,33.72c0,1.07-.32,1.4-1.34,1.28a18.11,18.11,0,0,0-2,0c-1.32,0-1.32,0-1.32-1.37Z" transform="translate(-14.74 -16.06)"/><path class="cls-3" d="M99.69,174.11l3.84,3.85-3.92,3.95L95.69,178Z" transform="translate(-14.74 -16.06)"/><path class="cls-3" d="M146.29,185.78l-4.11-3.86,3.94-3.86L150,182Z" transform="translate(-14.74 -16.06)"/><path class="cls-3" d="M247.26,182.54l-4.12-3.83,4.08-3.92c1.21,1.23,2.57,2.6,3.88,3.91Z" transform="translate(-14.74 -16.06)"/><path class="cls-3" d="M376.74,223.75l-3.85-3.5,3.86-3.65,3.57,3.58Z" transform="translate(-14.74 -16.06)"/><path class="cls-3" d="M53.53,220.15,50,223.68l-3.82-3.43L50,216.51Z" transform="translate(-14.74 -16.06)"/><path class="cls-3" d="M342.48,179.22l3.45,3.45-3.57,3.6-3.87-3.57Z" transform="translate(-14.74 -16.06)"/><path class="cls-3" d="M382.38,220.46l4-3.88,3.81,3.8c-1.07,1.05-2.25,2.23-3.47,3.36a.79.79,0,0,1-.76-.09C384.78,222.63,383.62,221.57,382.38,220.46Z" transform="translate(-14.74 -16.06)"/><path class="cls-3" d="M348.39,182.78l3.9-3.45,3.43,3.53c-1.17,1.14-2.42,2.38-3.58,3.52Z" transform="translate(-14.74 -16.06)"/><path class="cls-3" d="M59.82,223.6,56,220.19l3.81-3.76,3.58,3.66Z" transform="translate(-14.74 -16.06)"/><path class="cls-3" d="M344.21,175.26l3-3.07,3.24,3.1-3,3.27Z" transform="translate(-14.74 -16.06)"/><path class="cls-4" d="M725.78,105.72,497,136.46v25.6c24.63,19,66.59,25.57,106.41,21.23,50.16-5.47,74.28-11.22,122.38-51.88Q725.78,118.57,725.78,105.72Z" transform="translate(-14.74 -16.06)"/><path class="cls-1" d="M695,16.06c1.72.28,3.45.5,5.15.85a32.8,32.8,0,0,1,25.27,27.26,42.53,42.53,0,0,1,.37,5.52c0,18.68,0,37.36,0,56a1.87,1.87,0,0,1-.9,1.75,370,370,0,0,1-43.57,27.11,221.05,221.05,0,0,1-51.61,19.5,182.14,182.14,0,0,1-27.77,4.27,172.79,172.79,0,0,1-27.11-.06c-25.4-2.1-49.91-7.78-73.14-18.5-1.31-.6-2.56-1.31-3.87-1.91a1.31,1.31,0,0,1-.84-1.42q0-22.5,0-45c0-14.12-.06-28.24,0-42.36a32.15,32.15,0,0,1,12.51-25.9,31.68,31.68,0,0,1,17.39-6.93,5.65,5.65,0,0,0,.89-.19Z" transform="translate(-14.74 -16.06)"/><path class="cls-4" d="M550.46,108.94a20.1,20.1,0,0,0,2.74-.23,16.21,16.21,0,0,0,3.21-1c3.75-1.75,7.54-3.44,11.18-5.41,29.73-16.09,61.29-27.34,94-35.5,10.48-2.62,21.09-4.73,31.63-7.12A24.3,24.3,0,0,0,698.45,58c2.7-1.32,3.2-4.09,1.37-6.47a6.36,6.36,0,0,0-4.5-2.58,64.78,64.78,0,0,0-13.64.29c-10.15,1-20.2,2.76-30.2,4.74Q625,59.17,599,66.42c-12.52,3.49-25,7.28-36.94,12.35a76.24,76.24,0,0,0-15.79,8.48A19.47,19.47,0,0,0,540.79,93c-2.78,4.73-1.37,13.91,6.39,15.48C548.35,108.74,549.55,108.82,550.46,108.94Z" transform="translate(-14.74 -16.06)"/><path class="cls-2" d="M528.76,230.8l-3.22-.46A32.06,32.06,0,0,1,503,216.64a30.48,30.48,0,0,1-5.81-16.84c-.13-3.39-.16-6.79-.17-10.18,0-8.77,0-17.55,0-26.33v-1.23a5.37,5.37,0,0,1,.71.29,131.43,131.43,0,0,0,39.05,15.79c6.38,1.52,12.84,2.7,19.32,3.68,5.23.79,10.53,1.18,15.82,1.51q8.29.51,16.63.52c5,0,9.93-.17,14.88-.56a159.41,159.41,0,0,0,27.33-4.78,260.47,260.47,0,0,0,58.12-23.21A255.51,255.51,0,0,0,725,131.89a8,8,0,0,1,.72-.48v1.13c0,21.67,0,43.34,0,65a32.73,32.73,0,0,1-25.24,32.2c-1.72.4-3.5.53-5.26.79-.43.07-.86.18-1.29.27Z" transform="translate(-14.74 -16.06)"/></svg>