<svg xmlns="http://www.w3.org/2000/svg" width="132px" height="44px" viewBox="0 0 105 37">
  <g id="Page-1" stroke="none" stroke-width="1" fill="none" fill-rule="evenodd">
    <g id="logo" transform="translate(0.000000, -1.000000)">
      <g id="text" transform="translate(31.000000, 7.000000)">
        <g id="tefter.io">
          <path fill="#000" d="M1.5234375,8.63867188 L1.81640625,8.63867188 L1.81640625,7.03710938 C1.81640625,6.60741973 1.82779937,6.27050903 1.85058594,6.02636719 C1.87337251,5.78222534 1.93684844,5.5722665 2.04101562,5.39648438 C2.14518281,5.2141918 2.2949209,5.0660813 2.49023438,4.95214844 C2.68554785,4.83821558 2.90364463,4.78125 3.14453125,4.78125 C3.48307461,4.78125 3.78906113,4.90820186 4.0625,5.16210938 C4.24479258,5.33138105 4.36035132,5.53808472 4.40917969,5.78222656 C4.45800806,6.02636841 4.48242188,6.37304463 4.48242188,6.82226562 L4.48242188,8.63867188 L5.45898438,8.63867188 C5.83659043,8.63867188 6.12467349,8.72818921 6.32324219,8.90722656 C6.52181089,9.08626392 6.62109375,9.31575381 6.62109375,9.59570312 C6.62109375,9.95377783 6.4794936,10.2044264 6.19628906,10.3476562 C5.91308452,10.4908861 5.50781514,10.5625 4.98046875,10.5625 L4.48242188,10.5625 L4.48242188,15.4648438 C4.48242188,15.8815125 4.49707017,16.2021473 4.52636719,16.4267578 C4.55566421,16.6513683 4.63378843,16.8336582 4.76074219,16.9736328 C4.88769595,17.1136075 5.09439961,17.1835938 5.38085938,17.1835938 C5.53711016,17.1835938 5.74869658,17.1559248 6.015625,17.1005859 C6.28255342,17.0452471 6.49088467,17.0175781 6.640625,17.0175781 C6.85546982,17.0175781 7.04915278,17.1038403 7.22167969,17.2763672 C7.39420659,17.4488941 7.48046875,17.6621081 7.48046875,17.9160156 C7.48046875,18.3457053 7.24609609,18.674478 6.77734375,18.9023438 C6.30859141,19.1302095 5.63477002,19.2441406 4.75585938,19.2441406 C3.92252188,19.2441406 3.29101777,19.1041681 2.86132812,18.8242188 C2.43163848,18.5442694 2.15006577,18.1569035 2.01660156,17.6621094 C1.88313735,17.1673152 1.81640625,16.5065146 1.81640625,15.6796875 L1.81640625,10.5625 L1.46484375,10.5625 C1.08072725,10.5625 0.787761426,10.4713551 0.5859375,10.2890625 C0.384113574,10.1067699 0.283203125,9.87565244 0.283203125,9.59570312 C0.283203125,9.31575381 0.388996338,9.08626392 0.600585938,8.90722656 C0.812175537,8.72818921 1.11978965,8.63867188 1.5234375,8.63867188 Z M15.8984375,14.4785156 L10.6835938,14.4785156 C10.6901042,15.0839874 10.8121733,15.6178362 11.0498047,16.0800781 C11.2874361,16.54232 11.6031881,16.8906238 11.9970703,17.125 C12.3909525,17.3593762 12.8255185,17.4765625 13.3007812,17.4765625 C13.6197933,17.4765625 13.9111315,17.439128 14.1748047,17.3642578 C14.4384779,17.2893876 14.6940092,17.1722013 14.9414062,17.0126953 C15.1888033,16.8531893 15.4166656,16.6822926 15.625,16.5 C15.8333344,16.3177074 16.103514,16.0703141 16.4355469,15.7578125 C16.5722663,15.6406244 16.7675769,15.5820312 17.0214844,15.5820312 C17.2949232,15.5820312 17.5162752,15.6569003 17.6855469,15.8066406 C17.8548186,15.956381 17.9394531,16.1679674 17.9394531,16.4414062 C17.9394531,16.6822929 17.845053,16.9638656 17.65625,17.2861328 C17.467447,17.6084 17.1826191,17.9176417 16.8017578,18.2138672 C16.4208965,18.5100926 15.9423857,18.7558584 15.3662109,18.9511719 C14.7900362,19.1464854 14.1276079,19.2441406 13.3789062,19.2441406 C11.6666581,19.2441406 10.3352912,18.7558643 9.38476562,17.7792969 C8.43424004,16.8027295 7.95898438,15.4778729 7.95898438,13.8046875 C7.95898438,13.0169231 8.0761707,12.2861362 8.31054688,11.6123047 C8.54492305,10.9384732 8.8867165,10.3606795 9.3359375,9.87890625 C9.7851585,9.39713301 10.3385384,9.02767056 10.9960938,8.77050781 C11.6536491,8.51334507 12.3828085,8.38476562 13.1835938,8.38476562 C14.2252656,8.38476562 15.1188114,8.60448999 15.8642578,9.04394531 C16.6097042,9.48340063 17.1679669,10.0514288 17.5390625,10.7480469 C17.9101581,11.4446649 18.0957031,12.1542933 18.0957031,12.8769531 C18.0957031,13.5475294 17.9036478,13.9820954 17.5195312,14.1806641 C17.1354147,14.3792328 16.5950556,14.4785156 15.8984375,14.4785156 Z M10.6835938,12.9648438 L15.5175781,12.9648438 C15.4524736,12.0533809 15.2067079,11.3714215 14.7802734,10.9189453 C14.353839,10.4664691 13.7923212,10.2402344 13.0957031,10.2402344 C12.4316373,10.2402344 11.8863954,10.4697243 11.4599609,10.9287109 C11.0335265,11.3876976 10.77474,12.0664018 10.6835938,12.9648438 Z M20.1269531,8.63867188 L20.7617188,8.63867188 L20.7617188,7.83789062 C20.7617188,7.00455313 20.867512,6.34212485 21.0791016,5.85058594 C21.2906912,5.35904702 21.6487605,5.00097769 22.1533203,4.77636719 C22.6578801,4.55175669 23.349605,4.43945312 24.2285156,4.43945312 C25.784513,4.43945312 26.5625,4.82030869 26.5625,5.58203125 C26.5625,5.82942832 26.4811206,6.04101475 26.3183594,6.21679688 C26.1555981,6.392579 25.9635428,6.48046875 25.7421875,6.48046875 C25.6380203,6.48046875 25.4589856,6.4609377 25.2050781,6.421875 C24.9511706,6.3828123 24.736329,6.36328125 24.5605469,6.36328125 C24.0787736,6.36328125 23.7695319,6.5048814 23.6328125,6.78808594 C23.4960931,7.07129048 23.4277344,7.47655986 23.4277344,8.00390625 L23.4277344,8.63867188 L24.0820312,8.63867188 C25.0976613,8.63867188 25.6054688,8.9446584 25.6054688,9.55664062 C25.6054688,9.99284072 25.470379,10.2695307 25.2001953,10.3867188 C24.9300117,10.5039068 24.557294,10.5625 24.0820312,10.5625 L23.4277344,10.5625 L23.4277344,17.6230469 C23.4277344,18.1503933 23.3024101,18.5524075 23.0517578,18.8291016 C22.8011055,19.1057957 22.4772155,19.2441406 22.0800781,19.2441406 C21.7024721,19.2441406 21.3883476,19.1057957 21.1376953,18.8291016 C20.887043,18.5524075 20.7617188,18.1503933 20.7617188,17.6230469 L20.7617188,10.5625 L20.0292969,10.5625 C19.6321595,10.5625 19.3261729,10.4729827 19.1113281,10.2939453 C18.8964833,10.114908 18.7890625,9.88216289 18.7890625,9.59570312 C18.7890625,8.9576791 19.2350216,8.63867188 20.1269531,8.63867188 Z M27.1484375,8.63867188 L27.4414062,8.63867188 L27.4414062,7.03710938 C27.4414062,6.60741973 27.4527994,6.27050903 27.4755859,6.02636719 C27.4983725,5.78222534 27.5618484,5.5722665 27.6660156,5.39648438 C27.7701828,5.2141918 27.9199209,5.0660813 28.1152344,4.95214844 C28.3105479,4.83821558 28.5286446,4.78125 28.7695312,4.78125 C29.1080746,4.78125 29.4140611,4.90820186 29.6875,5.16210938 C29.8697926,5.33138105 29.9853513,5.53808472 30.0341797,5.78222656 C30.0830081,6.02636841 30.1074219,6.37304463 30.1074219,6.82226562 L30.1074219,8.63867188 L31.0839844,8.63867188 C31.4615904,8.63867188 31.7496735,8.72818921 31.9482422,8.90722656 C32.1468109,9.08626392 32.2460938,9.31575381 32.2460938,9.59570312 C32.2460938,9.95377783 32.1044936,10.2044264 31.8212891,10.3476562 C31.5380845,10.4908861 31.1328151,10.5625 30.6054688,10.5625 L30.1074219,10.5625 L30.1074219,15.4648438 C30.1074219,15.8815125 30.1220702,16.2021473 30.1513672,16.4267578 C30.1806642,16.6513683 30.2587884,16.8336582 30.3857422,16.9736328 C30.5126959,17.1136075 30.7193996,17.1835938 31.0058594,17.1835938 C31.1621102,17.1835938 31.3736966,17.1559248 31.640625,17.1005859 C31.9075534,17.0452471 32.1158847,17.0175781 32.265625,17.0175781 C32.4804698,17.0175781 32.6741528,17.1038403 32.8466797,17.2763672 C33.0192066,17.4488941 33.1054688,17.6621081 33.1054688,17.9160156 C33.1054688,18.3457053 32.8710961,18.674478 32.4023438,18.9023438 C31.9335914,19.1302095 31.25977,19.2441406 30.3808594,19.2441406 C29.5475219,19.2441406 28.9160178,19.1041681 28.4863281,18.8242188 C28.0566385,18.5442694 27.7750658,18.1569035 27.6416016,17.6621094 C27.5081374,17.1673152 27.4414062,16.5065146 27.4414062,15.6796875 L27.4414062,10.5625 L27.0898438,10.5625 C26.7057272,10.5625 26.4127614,10.4713551 26.2109375,10.2890625 C26.0091136,10.1067699 25.9082031,9.87565244 25.9082031,9.59570312 C25.9082031,9.31575381 26.0139963,9.08626392 26.2255859,8.90722656 C26.4371755,8.72818921 26.7447896,8.63867188 27.1484375,8.63867188 Z M41.5234375,14.4785156 L36.3085938,14.4785156 C36.3151042,15.0839874 36.4371733,15.6178362 36.6748047,16.0800781 C36.9124361,16.54232 37.2281881,16.8906238 37.6220703,17.125 C38.0159525,17.3593762 38.4505185,17.4765625 38.9257812,17.4765625 C39.2447933,17.4765625 39.5361315,17.439128 39.7998047,17.3642578 C40.0634779,17.2893876 40.3190092,17.1722013 40.5664062,17.0126953 C40.8138033,16.8531893 41.0416656,16.6822926 41.25,16.5 C41.4583344,16.3177074 41.728514,16.0703141 42.0605469,15.7578125 C42.1972663,15.6406244 42.3925769,15.5820312 42.6464844,15.5820312 C42.9199232,15.5820312 43.1412752,15.6569003 43.3105469,15.8066406 C43.4798186,15.956381 43.5644531,16.1679674 43.5644531,16.4414062 C43.5644531,16.6822929 43.470053,16.9638656 43.28125,17.2861328 C43.092447,17.6084 42.8076191,17.9176417 42.4267578,18.2138672 C42.0458965,18.5100926 41.5673857,18.7558584 40.9912109,18.9511719 C40.4150362,19.1464854 39.7526079,19.2441406 39.0039062,19.2441406 C37.2916581,19.2441406 35.9602912,18.7558643 35.0097656,17.7792969 C34.05924,16.8027295 33.5839844,15.4778729 33.5839844,13.8046875 C33.5839844,13.0169231 33.7011707,12.2861362 33.9355469,11.6123047 C34.169923,10.9384732 34.5117165,10.3606795 34.9609375,9.87890625 C35.4101585,9.39713301 35.9635384,9.02767056 36.6210938,8.77050781 C37.2786491,8.51334507 38.0078085,8.38476562 38.8085938,8.38476562 C39.8502656,8.38476562 40.7438114,8.60448999 41.4892578,9.04394531 C42.2347042,9.48340063 42.7929669,10.0514288 43.1640625,10.7480469 C43.5351581,11.4446649 43.7207031,12.1542933 43.7207031,12.8769531 C43.7207031,13.5475294 43.5286478,13.9820954 43.1445312,14.1806641 C42.7604147,14.3792328 42.2200556,14.4785156 41.5234375,14.4785156 Z M36.3085938,12.9648438 L41.1425781,12.9648438 C41.0774736,12.0533809 40.8317079,11.3714215 40.4052734,10.9189453 C39.978839,10.4664691 39.4173212,10.2402344 38.7207031,10.2402344 C38.0566373,10.2402344 37.5113954,10.4697243 37.0849609,10.9287109 C36.6585265,11.3876976 36.39974,12.0664018 36.3085938,12.9648438 Z M48.6132812,15.3964844 L48.6132812,17.6230469 C48.6132812,18.1634142 48.4863294,18.5686835 48.2324219,18.8388672 C47.9785144,19.1090508 47.656252,19.2441406 47.265625,19.2441406 C46.8815085,19.2441406 46.5657564,19.1074232 46.3183594,18.8339844 C46.0709623,18.5605455 45.9472656,18.1569037 45.9472656,17.6230469 L45.9472656,10.2011719 C45.9472656,9.00324922 46.380204,8.40429688 47.2460938,8.40429688 C47.6888043,8.40429688 48.0078115,8.54426943 48.203125,8.82421875 C48.3984385,9.10416807 48.5058593,9.51757539 48.5253906,10.0644531 C48.8444026,9.51757539 49.1715478,9.10416807 49.5068359,8.82421875 C49.8421241,8.54426943 50.2897107,8.40429688 50.8496094,8.40429688 C51.409508,8.40429688 51.9531224,8.54426943 52.4804688,8.82421875 C53.0078151,9.10416807 53.2714844,9.47525811 53.2714844,9.9375 C53.2714844,10.2630225 53.1591808,10.5315745 52.9345703,10.7431641 C52.7099598,10.9547537 52.4674492,11.0605469 52.2070312,11.0605469 C52.1093745,11.0605469 51.8733743,11.0003261 51.4990234,10.8798828 C51.1246726,10.7594395 50.7942723,10.6992188 50.5078125,10.6992188 C50.1171855,10.6992188 49.7981783,10.8017568 49.5507812,11.0068359 C49.3033842,11.2119151 49.1113288,11.516274 48.9746094,11.9199219 C48.8378899,12.3235697 48.7434898,12.8037082 48.6914062,13.3603516 C48.6393227,13.916995 48.6132812,14.5956991 48.6132812,15.3964844 Z M53.9941406,19.2441406 C53.5904928,19.2441406 53.242189,19.1139336 52.9492188,18.8535156 C52.6562485,18.5930977 52.5097656,18.228518 52.5097656,17.7597656 C52.5097656,17.3626282 52.6497382,17.0208348 52.9296875,16.734375 C53.2096368,16.4479152 53.5546854,16.3046875 53.9648438,16.3046875 C54.3750021,16.3046875 54.7249334,16.4462876 55.0146484,16.7294922 C55.3043634,17.0126967 55.4492188,17.3561178 55.4492188,17.7597656 C55.4492188,18.2220075 55.3043634,18.5849596 55.0146484,18.8486328 C54.7249334,19.112306 54.3847676,19.2441406 53.9941406,19.2441406 Z M61.1523438,9.91796875 L61.1523438,17.6230469 C61.1523438,18.1569037 61.0253919,18.5605455 60.7714844,18.8339844 C60.5175769,19.1074232 60.1953145,19.2441406 59.8046875,19.2441406 C59.4140605,19.2441406 59.0966809,19.1041681 58.8525391,18.8242188 C58.6083972,18.5442694 58.4863281,18.1438828 58.4863281,17.6230469 L58.4863281,9.99609375 C58.4863281,9.46874736 58.6083972,9.07161592 58.8525391,8.8046875 C59.0966809,8.53775908 59.4140605,8.40429688 59.8046875,8.40429688 C60.1953145,8.40429688 60.5175769,8.53775908 60.7714844,8.8046875 C61.0253919,9.07161592 61.1523438,9.44270596 61.1523438,9.91796875 Z M59.8339844,7.1640625 C59.4628888,7.1640625 59.1455091,7.05013135 58.8818359,6.82226562 C58.6181627,6.5943999 58.4863281,6.2721375 58.4863281,5.85546875 C58.4863281,5.4778627 58.6214179,5.16699341 58.8916016,4.92285156 C59.1617852,4.67870972 59.4759097,4.55664062 59.8339844,4.55664062 C60.1790382,4.55664062 60.4850247,4.6673166 60.7519531,4.88867188 C61.0188815,5.11002715 61.1523438,5.43228955 61.1523438,5.85546875 C61.1523438,6.26562705 61.0221367,6.58626187 60.7617188,6.81738281 C60.5013008,7.04850376 60.1920591,7.1640625 59.8339844,7.1640625 Z M73.8867188,13.8242188 C73.8867188,14.6184936 73.7630221,15.3509081 73.515625,16.0214844 C73.2682279,16.6920606 72.9101586,17.2682268 72.4414062,17.75 C71.9726539,18.2317732 71.4127637,18.6012357 70.7617188,18.8583984 C70.1106738,19.1155612 69.3782593,19.2441406 68.5644531,19.2441406 C67.7571574,19.2441406 67.0312532,19.1139336 66.3867188,18.8535156 C65.7421843,18.5930977 65.1839216,18.22038 64.7119141,17.7353516 C64.2399065,17.2503231 63.8818372,16.6774122 63.6376953,16.0166016 C63.3935535,15.355791 63.2714844,14.625004 63.2714844,13.8242188 C63.2714844,13.016923 63.3951811,12.2779981 63.6425781,11.6074219 C63.8899752,10.9368456 64.2447894,10.3639347 64.7070312,9.88867188 C65.1692731,9.41340908 65.7291634,9.04720181 66.3867188,8.79003906 C67.0442741,8.53287632 67.7701783,8.40429688 68.5644531,8.40429688 C69.3717488,8.40429688 70.1041634,8.53450391 70.7617188,8.79492188 C71.4192741,9.05533984 71.9824195,9.42642988 72.4511719,9.90820312 C72.9199242,10.3899764 73.276366,10.9628873 73.5205078,11.6269531 C73.7646497,12.2910189 73.8867188,13.0234335 73.8867188,13.8242188 Z M71.2109375,13.8242188 C71.2109375,12.7369737 70.9716821,11.890628 70.4931641,11.2851562 C70.014646,10.6796845 69.3717488,10.3769531 68.5644531,10.3769531 C68.0436172,10.3769531 67.5846374,10.5120429 67.1875,10.7822266 C66.7903626,11.0524102 66.4843761,11.4511692 66.2695312,11.9785156 C66.0546864,12.505862 65.9472656,13.1210902 65.9472656,13.8242188 C65.9472656,14.5208368 66.0530588,15.1295547 66.2646484,15.6503906 C66.476238,16.1712266 66.7789694,16.5699856 67.1728516,16.8466797 C67.5667337,17.1233738 68.0305963,17.2617188 68.5644531,17.2617188 C69.3717488,17.2617188 70.014646,16.9573598 70.4931641,16.3486328 C70.9716821,15.7399058 71.2109375,14.8984429 71.2109375,13.8242188 Z" id="path-1"></path>
        </g>
      </g>
      <g id="icon" fill-rule="nonzero">
        <path d="M15,0 C16.1045695,-2.02906125e-16 17,0.8954305 17,2 L17,33.9660425 C16.0995304,37.3220142 15.4328637,39 15,39 C14.5671363,39 13.9004696,37.3220142 13,33.9660425 L13,2 C13,0.8954305 13.8954305,2.02906125e-16 15,0 Z" id="Rectangle-3" fill="#BEADFA" transform="translate(15.000000, 19.500000) rotate(20.000000) translate(-15.000000, -19.500000) "></path>
        <rect id="Rectangle" fill="#A696DF" transform="translate(22.500000, 8.500000) rotate(20.000000) translate(-22.500000, -8.500000) " x="22" y="3" width="1" height="11" rx="0.5"></rect>
        <path d="M0,30 L14,30 C16.209139,30 18,28.209139 18,26 L18,12.0299862 C18,8.71627775 15.3137085,6.02998624 12,6.02998624 C11.9023413,6.02998624 11.8046971,6.03237055 11.7071548,6.03713703 L0,6.60921615 L0,30 Z" id="Path-12" fill="#DBF7FA"></path>
        <path d="M0,8.32196411 L0,30 L11.1799817,27.2848737 C13.4217207,26.7404538 15,24.7330038 15,22.426104 L15,8.2268059 C15,6.01766691 13.209139,4.2268059 11,4.2268059 C10.4907212,4.2268059 9.98612739,4.32405979 9.51333031,4.51334213 L0,8.32196411 Z" id="Path-11" fill="#9CDFE7"></path>
        <path d="M0,6.72965021 L0,30 L7.35614799,25.931135 C10.2215265,24.3462242 12,21.3301026 12,18.0556048 L12,5.14223923 C12,3.48538498 10.6568542,2.14223923 9,2.14223923 C8.48818293,2.14223923 7.98487612,2.2731836 7.53795366,2.52261703 L0,6.72965021 Z" id="Path-10" fill="#5FBEC9"></path>
      </g>
    </g>
  </g>
</svg>
