<?xml version="1.0" standalone="no"?>
<!DOCTYPE svg PUBLIC "-//W3C//DTD SVG 20010904//EN"
 "http://www.w3.org/TR/2001/REC-SVG-20010904/DTD/svg10.dtd">
<svg version="1.0" xmlns="http://www.w3.org/2000/svg"
 width="230.000000pt" height="230.000000pt" viewBox="0 0 230.000000 230.000000"
 preserveAspectRatio="xMidYMid meet">
<metadata>
Created by potrace 1.15, written by Peter Selinger 2001-2017
</metadata>
<g transform="translate(0.000000,230.000000) scale(0.100000,-0.100000)"
fill="#000000" stroke="none">
<path d="M60 1720 l0 -220 220 0 220 0 0 220 0 220 -220 0 -220 0 0 -220z
m305 90 c6 -2 22 0 38 4 39 11 77 -15 77 -54 0 -37 -16 -80 -41 -106 -19 -20
-30 -22 -177 -22 -94 0 -162 4 -169 10 -17 14 -16 58 2 102 29 68 39 73 156
71 57 -1 109 -3 114 -5z"/>
<path d="M142 1795 c-25 -18 -55 -93 -50 -126 3 -24 5 -24 116 -25 62 -1 115
2 117 7 3 4 16 3 30 -3 40 -18 74 -2 95 45 26 56 25 83 -4 102 -18 12 -30 13
-50 5 -18 -6 -34 -6 -50 1 -16 8 -29 8 -42 1 -12 -7 -25 -7 -37 0 -12 6 -28 6
-46 0 -15 -6 -34 -6 -43 -1 -9 5 -23 3 -36 -6z"/>
<path d="M1467 1825 c-18 -13 -17 -14 10 -17 26 -3 28 -6 27 -47 -1 -23 -6
-46 -13 -50 -7 -4 -11 -14 -9 -21 2 -7 -4 -15 -12 -17 -13 -4 -13 -3 0 7 12 9
12 11 1 8 -24 -7 -25 -28 -2 -28 19 0 21 -6 21 -65 l0 -65 90 0 89 0 6 33 c7
37 1 129 -9 146 -4 6 -32 11 -62 11 -52 0 -54 1 -56 28 0 15 0 37 1 48 1 16
-7 25 -30 33 -18 6 -32 11 -33 11 -1 0 -9 -7 -19 -15z"/>
<path d="M1290 1804 c-19 -8 -43 -13 -53 -10 -15 4 -18 0 -14 -15 3 -12 0 -22
-9 -26 -8 -3 -13 -12 -10 -19 3 -8 -1 -14 -9 -14 -8 0 -15 3 -15 8 0 4 -10 13
-22 21 -23 14 -23 14 -4 -8 16 -18 17 -21 3 -21 -8 0 -22 -3 -31 -6 -9 -3 -16
-1 -16 6 0 6 5 8 10 5 6 -3 10 3 10 14 0 14 -6 21 -19 21 -14 0 -18 -5 -14
-20 3 -11 -1 -28 -8 -38 -12 -15 -12 -16 2 -5 17 14 52 0 88 -36 11 -11 27
-21 34 -20 10 0 10 2 0 6 -20 8 -16 55 4 51 9 -2 18 -9 21 -16 2 -8 -3 -10
-15 -6 -13 4 -15 3 -4 -4 9 -6 13 -32 14 -76 0 -36 4 -66 8 -66 14 0 22 49 17
103 -6 59 -1 80 15 70 6 -4 8 0 4 10 -8 21 46 50 62 34 16 -16 14 35 -1 56
-12 14 -16 14 -48 1z"/>
<path d="M678 1713 c-33 -8 -18 -23 22 -23 29 0 40 -4 40 -15 0 -8 -4 -15 -10
-15 -5 0 -10 6 -10 13 0 9 -2 9 -8 0 -4 -7 -22 -13 -40 -15 -31 -2 -43 -13
-22 -20 5 -1 10 -27 11 -55 l2 -53 51 0 c52 0 86 13 73 27 -5 4 -13 1 -18 -7
-8 -12 -9 -11 -6 5 2 11 9 19 15 18 7 -2 12 2 12 7 0 5 -7 10 -16 10 -12 0
-14 10 -12 52 l3 52 57 -1 c31 0 62 -4 69 -8 8 -5 10 -4 5 3 -10 17 9 15 23
-2 9 -11 5 -15 -20 -20 -17 -3 -47 -6 -65 -6 -35 0 -42 -12 -24 -40 6 -10 10
-11 10 -2 0 6 7 12 15 12 8 0 15 -7 15 -15 0 -9 -10 -15 -26 -15 -24 0 -25 -3
-19 -27 9 -36 14 -41 26 -23 8 11 12 12 16 3 2 -7 9 -13 14 -13 6 0 7 5 4 10
-3 6 1 10 10 10 9 0 13 -4 10 -10 -3 -5 -1 -10 4 -10 6 0 11 5 11 10 0 6 5 10
10 10 6 0 10 -7 10 -15 0 -8 4 -15 9 -15 5 0 9 11 9 24 0 50 14 141 24 154 8
9 -18 12 -128 11 -77 -1 -147 -3 -156 -6z"/>
<path d="M1695 1705 c13 -11 37 -15 73 -14 30 2 58 -3 64 -9 9 -9 9 -12 0 -12
-17 0 -16 -107 1 -113 10 -4 10 -6 0 -6 -7 -1 -13 -5 -13 -11 0 -17 61 -11 85
8 27 21 85 18 85 -4 0 -8 11 -14 28 -15 15 0 60 -1 100 -2 41 -2 75 0 77 3 1
3 6 26 9 53 6 39 5 47 -8 47 -9 0 -16 7 -16 15 0 8 7 15 15 15 8 0 15 8 15 18
0 13 -2 14 -9 4 -6 -11 -9 -9 -13 6 -6 22 -51 32 -138 31 -41 0 -50 -3 -35
-10 18 -8 18 -8 -5 -7 -14 1 -31 -1 -38 -6 -8 -4 -11 -3 -10 5 2 6 -3 14 -9
16 -9 3 -13 -8 -13 -36 0 -48 -13 -53 -31 -12 -15 33 -37 40 -159 47 -69 4
-74 3 -55 -11z"/>
<path d="M1503 1120 c-28 -11 -56 -54 -51 -77 2 -10 17 -24 33 -32 51 -25 110
-71 90 -71 -14 0 -15 -3 -5 -15 21 -25 39 -17 56 26 16 40 17 40 57 34 31 -6
38 -4 35 6 -3 8 -16 15 -31 17 -16 2 -24 8 -21 16 9 22 -14 65 -43 80 -39 20
-94 27 -120 16z"/>
<path d="M757 994 c-3 -4 4 -15 16 -25 l22 -18 -25 6 c-14 3 -31 10 -37 16
-18 14 -66 -8 -90 -41 -40 -55 -43 -66 -28 -116 8 -26 14 -51 14 -54 -3 -22 3
-32 22 -32 18 0 20 4 15 28 -12 48 -19 112 -13 112 3 0 17 -5 31 -12 19 -8 23
-14 15 -24 -7 -9 -6 -14 2 -20 7 -4 15 -2 17 4 3 11 52 -38 52 -52 0 -3 -16
-6 -35 -6 -19 0 -35 -4 -35 -8 0 -5 29 -9 65 -10 36 0 65 4 65 9 0 21 38 8 44
-16 11 -43 27 -29 20 18 -17 120 -55 220 -90 236 -28 13 -38 14 -47 5z"/>
<path d="M960 670 c0 -87 -4 -140 -10 -140 -5 0 -10 -7 -10 -15 0 -8 -6 -15
-14 -15 -8 0 -17 -6 -19 -12 -3 -7 -6 0 -6 15 -1 27 -2 28 -61 26 -33 -1 -63
1 -67 4 -3 4 1 7 10 7 9 0 17 4 17 9 0 6 19 11 42 13 39 3 44 6 57 41 16 43
10 57 -15 33 -21 -21 -94 -59 -94 -48 0 4 -18 6 -40 4 -22 -2 -40 -9 -40 -14
0 -7 16 -9 40 -5 22 3 40 2 40 -3 0 -13 -34 -18 -97 -14 -39 2 -51 0 -38 -6
17 -7 17 -9 3 -9 -22 -1 -23 -14 -3 -31 8 -7 15 -28 15 -46 0 -24 -5 -34 -15
-34 -9 0 -15 -9 -15 -24 0 -20 7 -25 43 -31 23 -4 46 -7 50 -6 4 0 10 -6 13
-14 8 -19 24 -19 24 0 0 17 35 21 45 5 3 -5 20 -7 38 -5 l32 5 -29 -10 c-17
-5 -34 -16 -39 -25 -4 -8 -13 -13 -18 -9 -6 4 -6 11 2 20 21 26 -6 14 -44 -18
-28 -25 -37 -41 -37 -63 l0 -30 113 -2 c61 -1 131 -5 155 -8 l42 -6 0 -79 c0
-89 1 -90 85 -90 75 0 85 6 85 48 0 50 13 32 14 -20 l1 -43 61 -3 c94 -4 97 9
49 182 -11 39 -13 61 -6 65 9 6 -9 127 -23 149 -2 4 7 21 21 37 l24 30 -3 -75
-3 -75 73 -3 72 -3 0 -79 c0 -70 -2 -80 -18 -80 -25 0 -71 -22 -77 -37 -2 -7
0 -13 5 -13 6 0 10 -7 10 -15 0 -10 10 -15 28 -15 l27 -1 -38 -32 c-37 -32
-50 -61 -22 -51 8 4 13 10 10 14 -3 4 2 13 9 19 12 10 15 8 18 -11 l3 -23 293
-3 292 -2 0 55 c0 44 -4 57 -17 62 -10 4 -21 10 -24 15 -9 13 -92 13 -97 0 -5
-17 -52 -15 -58 3 -4 8 -17 15 -30 15 -20 0 -24 5 -24 30 0 37 18 46 61 31 27
-9 30 -8 25 5 -3 9 -6 29 -6 45 0 23 -4 29 -21 29 -21 0 -22 3 -15 80 6 79 6
81 -14 70 -11 -6 -20 -7 -20 -3 1 14 27 43 33 38 4 -3 5 -2 3 1 -3 3 -1 17 4
30 15 40 4 27 -29 -31 -17 -30 -34 -55 -37 -55 -4 0 -35 21 -71 46 -35 25 -66
44 -69 42 -2 -3 -23 12 -46 34 -23 21 -45 38 -50 38 -12 0 -10 34 4 48 24 24
1 20 -31 -5 -33 -26 -33 -26 -11 -38 22 -12 22 -12 -13 -33 -37 -24 -152 -38
-162 -22 -10 16 -22 11 -30 -12 l-8 -23 -4 23 c-2 12 -8 20 -13 17 -5 -3 -7
-12 -3 -20 3 -8 0 -15 -6 -15 -6 0 -11 12 -11 26 0 23 -3 25 -37 22 -31 -2
-39 -7 -41 -25 -5 -31 -14 -29 -36 10 -17 29 -19 30 -26 12 -5 -11 -6 -31 -3
-45 3 -14 1 -20 -4 -14 -4 6 -16 13 -25 17 -23 8 -23 23 0 29 20 5 22 13 23
90 1 42 4 48 31 57 23 8 30 7 35 -4 6 -17 63 -21 63 -4 0 6 8 8 19 4 16 -5 19
0 22 32 8 79 3 90 -48 97 -25 3 -90 6 -144 6 l-99 0 0 -140z"/>
<path d="M130 698 c-34 -24 -35 -25 -34 -91 1 -85 17 -106 39 -53 16 37 17 37
35 21 21 -19 50 -14 50 9 0 8 12 24 28 34 24 18 30 18 47 6 18 -14 18 -14 -2
-14 -16 0 -20 -5 -16 -20 6 -23 23 -27 23 -5 0 8 7 15 15 15 9 0 20 10 25 23
9 22 5 26 -58 78 -7 6 -36 13 -65 16 -44 4 -58 1 -87 -19z"/>
<path d="M2006 704 c-3 -9 -6 -26 -6 -38 0 -13 -8 -31 -19 -40 -10 -9 -27 -38
-36 -64 -10 -26 -22 -53 -28 -60 -12 -16 -13 -15 54 -51 30 -16 76 -32 102
-36 57 -9 78 -29 54 -52 -14 -15 -21 -15 -79 1 -35 10 -80 31 -100 47 -42 33
-48 35 -48 14 0 -9 15 -29 33 -44 25 -23 35 -43 45 -88 9 -43 20 -67 41 -87
28 -27 34 -28 83 -22 69 9 98 17 98 25 0 4 -33 2 -72 -5 -40 -7 -75 -11 -77
-8 -2 2 -6 26 -9 54 -5 51 -5 51 22 44 50 -12 75 2 88 51 13 47 29 54 38 16
l5 -23 23 25 c19 21 24 40 31 131 9 111 6 137 -19 173 -20 27 -87 45 -138 37
-25 -4 -42 -2 -46 5 -10 16 -33 13 -40 -5z"/>
<path d="M482 668 c-7 -7 -12 -17 -12 -23 0 -7 -9 -20 -21 -31 -31 -28 -63
-94 -51 -106 6 -6 17 -6 30 1 23 12 52 -13 52 -47 0 -42 23 -36 73 19 28 29
56 69 64 87 12 30 12 36 -7 62 -11 16 -29 32 -40 35 -27 9 -60 -3 -60 -21 0
-8 -5 -14 -12 -14 -6 0 -21 -8 -32 -17 -21 -18 -21 -18 -5 2 18 22 42 65 36
65 -1 0 -8 -5 -15 -12z"/>
<path d="M299 543 c-1 -5 -1 -11 0 -15 0 -5 -9 -8 -22 -8 -13 0 -27 -4 -32 -9
-6 -6 -30 -11 -55 -14 -39 -3 -36 -4 20 -6 56 -2 61 -4 35 -12 -16 -5 -46 -8
-65 -7 -50 2 -80 -17 -80 -49 0 -15 -9 -37 -21 -49 -20 -22 -38 -78 -39 -122
0 -19 3 -21 19 -12 12 6 22 6 25 1 3 -5 15 -7 26 -4 42 11 79 -54 48 -85 -20
-20 -24 -14 -20 27 2 21 -1 42 -7 45 -7 5 -11 -4 -11 -24 0 -26 -5 -34 -30
-43 -23 -9 -31 -19 -36 -47 -4 -19 -13 -52 -20 -72 l-13 -38 222 0 c203 0 267
7 239 24 -10 6 -38 104 -34 118 1 5 -5 8 -14 8 -8 0 -12 5 -9 10 3 6 17 10 31
10 13 0 24 5 24 10 0 6 9 10 19 10 10 0 21 7 24 14 6 16 -16 12 -40 -7 -7 -5
-28 -9 -47 -9 -20 0 -37 -6 -40 -14 -3 -8 -19 -14 -36 -14 -21 0 -29 4 -24 11
4 6 9 50 11 98 4 65 9 88 21 95 8 5 32 24 51 42 l36 33 -22 23 c-22 22 -24 22
-52 5 -36 -21 -41 -21 -41 -2 0 10 -10 15 -32 15 -29 0 -30 1 -16 18 20 23 30
52 18 52 -6 0 -11 -3 -11 -7z"/>
</g>
</svg>
