<svg xmlns="http://www.w3.org/2000/svg" width="1024" height="768" viewBox="-511.5 384.5 1024 768"><path d="M-146.4 998.5c31.2-71.6 65.7-141.8 103.3-210.3 36.8-66.9 74.7-128.6 113.7-185.2 46-66.3 82.3-114.2 108.8-143.5 17.1-18.8 33.1-34.4 48.1-46.6 8.7-7 22.5-12.2 41.3-15.7 45.7-8.4 77.6-12.6 95.7-12.6 8 0 12 2.8 12 8.4 0 5.2-4 11.5-12 18.9 -69.7 62.2-142.8 151.1-219.3 266.7C68.6 794 4 916.8-48.6 1046.7c-19.9 48.6-33.7 78.3-41.6 89.3 -7.9 11-32.3 16.5-73.5 16.5 -26.8 0-43.6-2.6-50.4-7.9 -6.8-5.2-19.1-21.8-36.9-49.8 -30.7-46.5-63.6-88.4-98.8-125.7 -18.5-19.5-27.7-34.6-27.7-45 0-14.7 10.3-29.1 30.8-43.2 20.6-14.2 37.5-21.2 50.7-21.2 18.5 0 40.7 10.4 66.7 31.2C-203.3 911.6-175.7 947.5-146.4 998.5z"/></svg>