<svg id="svg" xmlns="http://www.w3.org/2000/svg" xmlns:xlink="http://www.w3.org/1999/xlink" width="512" height="512" viewBox="0 0 500 500">
  <g>
    <path transform="matrix(0.8,0,0,0.8,29.8,62.9)" d="M 388.2 25.7 C 384.5 27.7 336.5 75.3 333.3 80.3 C 332.6 81.3 331.9 85.5 332.4 85.5 C 332.6 85.5 332.8 85.9 332.9 86.4 C 333.9 90.2 340.3 92.5 343.8 90.3 C 349.5 86.9 396.9 38.7 398 35.3 C 399.7 30 392.8 23.3 388.2 25.7 M 429.3 67.6 C 425.1 69.9 379.5 115.3 374.8 121.8 C 371.1 127.1 379.3 135.9 384.7 132.5 C 389.2 129.6 425.9 93.5 435.3 82.7 C 439.9 77.4 440 77.3 440 75.4 C 440 69.8 433.8 65.2 429.3 67.6 M 296.6 92.1 C 294.9 92.8 289.4 98.2 280 108.2 C 275.1 113.4 269.1 119.7 266.6 122.2 L 262.2 126.7 L 304.4 168.8 C 327.6 192 354.2 218.4 363.5 227.7 L 380.4 244.4 L 381.9 243 C 390.4 235.6 409.9 216.8 412.7 213.2 C 416.6 208.2 416.4 207.7 406.8 197.6 C 377.1 166.4 301.5 91.3 300.7 92.2 C 300.6 92.3 300.2 92.2 299.9 92.1 C 299.2 91.6 297.8 91.6 296.6 92.1 M 472.3 109.1 C 469.5 109.6 465.1 113.7 436.2 142.6 L 415.4 163.5 L 415.9 166.9 C 416.8 174.4 422.5 177.1 428.2 172.7 C 430.8 170.7 473 128.9 477.2 124.1 C 482.4 118.1 482.9 115.6 479.5 111.7 C 478.2 110.2 475.1 108.5 474 108.7 C 473.9 108.8 473.1 108.9 472.3 109.1 M 247.8 144.1 C 240.8 154.1 235.1 167.5 233.6 177.5 C 233.3 179.2 233 180.7 233 181 C 232.9 181.3 232.5 194.4 232.2 204.2 C 232.2 205.5 171.2 266.2 169.1 267 C 168.9 267.1 167.1 265.6 165.1 263.7 C 163.1 261.8 161.1 260 160.5 259.8 C 160 259.6 159.6 259.3 159.6 259.1 C 159.6 258.1 154 259.4 152.2 260.9 C 149.4 263.1 124.3 288.1 120 292.8 C 114 299.6 114.1 301.5 120.7 308.5 C 122.5 310.4 124 312.1 124 312.2 C 124 312.4 117.7 318.9 110.1 326.7 C 90.4 346.8 89.5 347.8 85.9 356.8 C 77.4 378 84 401.1 102.4 414.9 C 118.1 426.8 136 428.1 155.9 418.9 L 160.6 416.7 L 231.4 345.7 L 302.2 274.7 L 313.8 274.5 C 334.5 274.1 346.4 270.5 362.2 259.8 L 367.6 256.2 L 363.9 252.3 C 360.9 249.4 251.5 140 251.1 139.6 C 251 139.6 249.5 141.6 247.8 144.1" fill="#ffffff"></path>
  </g>
</svg>