<svg width="512" height="512" fill="none" xmlns="http://www.w3.org/2000/svg"><rect width="512" height="512" rx="100" fill="#F5A623"/><mask id="a" fill="#fff"><path fill-rule="evenodd" clip-rule="evenodd" d="M368.962 287h48.923c3.401 0 6.115 2.798 6.115 6.11v97.758a6.095 6.095 0 01-6.115 6.11H265"/></mask><path d="M368.962 275.622h-11.378v22.756h11.378v-22.756zM265 385.6h-11.378v22.756H265V385.6zm103.962-87.222h48.923v-22.756h-48.923v22.756zm48.923 0c-2.978 0-5.263-2.391-5.263-5.268h22.756c0-9.5-7.714-17.488-17.493-17.488v22.756zm-5.263-5.268v97.758h22.756V293.11h-22.756zm0 97.758c0-2.823 2.298-5.268 5.263-5.268v22.756c9.86 0 17.493-8.003 17.493-17.488h-22.756zm5.263-5.268H265v22.756h152.885V385.6z" fill="#000" mask="url(#a)"/><path d="M304.75 357.264l-36.692 33.604v0l36.692 33.605" stroke="#000" stroke-width="11.378"/></svg>
