 <svg xmlns="http://www.w3.org/2000/svg" viewBox="0 0 700 700" preserveAspectRatio="xMidYMid meet" width="700pt" height="700pt" version="1.0">
<metadata>
Created by potrace 1.12, written by Peter Selinger 2001-2015
</metadata>
<g fill="#000000" stroke="none" transform="translate(0 700) scale(0.1, -0.1)">
<path d="M 4245 6615 c -150 -24 -249 -70 -337 -156 c -103 -101 -145 -229 -134 -407 c 5 -78 11 -104 40 -165 c 42 -89 125 -181 214 -240 c 37 -25 159 -90 272 -145 c 169 -83 216 -110 262 -154 c 82 -79 93 -105 93 -218 c 0 -85 -3 -100 -27 -140 c -38 -65 -94 -115 -163 -147 c -56 -26 -68 -27 -195 -27 c -121 0 -144 3 -215 28 c -44 15 -122 49 -173 77 c -51 27 -104 49 -117 49 c -33 0 -45 -31 -45 -119 c 0 -86 22 -121 105 -168 c 106 -59 320 -113 449 -113 c 71 0 245 35 317 65 c 181 73 305 218 344 404 c 31 150 8 284 -71 402 c -76 115 -163 176 -438 309 c -301 145 -376 221 -376 381 c 0 122 63 208 177 244 c 44 14 78 16 171 12 c 129 -5 167 -16 297 -86 c 43 -22 86 -41 97 -41 c 47 0 62 132 23 214 c -27 57 -160 114 -328 141 c -107 17 -134 17 -242 0 Z" />
<path d="M 5805 6614 c -58 -8 -121 -26 -198 -56 c -222 -87 -383 -265 -471 -521 c -33 -95 -42 -140 -61 -287 c -18 -144 -18 -204 0 -355 c 19 -162 47 -261 105 -380 c 103 -212 260 -343 486 -406 c 106 -29 351 -33 462 -6 c 206 49 363 142 378 224 c 9 47 -1 150 -16 168 c -19 23 -36 18 -102 -26 c -289 -197 -638 -197 -830 -2 c -107 109 -163 236 -193 434 c -44 290 15 598 149 775 c 68 91 139 143 246 180 c 77 26 291 27 368 1 c 80 -27 149 -61 235 -115 c 48 -31 85 -48 97 -45 c 29 8 43 55 38 137 c -3 72 -5 77 -42 115 c -49 50 -159 105 -274 138 c -67 19 -117 25 -217 28 c -71 2 -143 1 -160 -1 Z" />
<path d="M 495 6597 l -40 -13 l -3 -699 c -3 -687 -2 -702 19 -790 c 55 -229 202 -398 409 -471 c 74 -25 235 -54 306 -54 c 112 0 286 40 390 90 c 171 83 287 232 345 445 c 21 77 22 102 26 675 c 3 327 2 641 -2 696 c -6 97 -8 102 -33 114 c -42 19 -122 22 -177 8 l -50 -13 l -6 -690 c -5 -620 -7 -696 -23 -750 c -54 -184 -175 -298 -348 -326 c -35 -6 -107 -8 -161 -5 c -85 4 -108 10 -170 40 c -88 42 -158 110 -198 192 c -58 116 -58 126 -59 760 c 0 319 -3 622 -7 673 c -5 80 -9 94 -28 107 c -31 20 -141 27 -190 11 Z" />
<path d="M 2171 6591 c -18 -5 -43 -19 -55 -30 l -21 -22 l -3 -951 c -1 -658 1 -955 8 -963 c 15 -18 133 -37 178 -29 c 20 3 47 13 60 20 l 22 14 l 0 813 l 0 812 l 73 -135 c 40 -74 95 -175 121 -225 c 27 -49 77 -142 111 -205 c 34 -63 84 -155 110 -205 c 26 -49 74 -137 105 -195 c 31 -58 81 -150 110 -205 c 30 -55 74 -138 99 -185 c 25 -47 55 -102 66 -123 c 33 -63 88 -130 124 -151 c 25 -15 58 -21 122 -24 c 107 -5 151 8 179 53 c 21 33 21 38 18 969 c -3 882 -4 936 -21 953 c -15 15 -35 18 -116 18 c -68 0 -103 -4 -114 -14 c -16 -12 -17 -80 -17 -792 c 0 -429 -3 -779 -7 -779 c -5 0 -56 96 -115 213 c -59 116 -128 250 -153 297 c -26 47 -70 130 -99 185 c -30 55 -65 120 -78 145 c -14 25 -51 95 -83 155 c -32 61 -68 128 -80 150 c -12 22 -42 76 -65 120 c -166 311 -169 314 -339 320 c -58 3 -121 0 -140 -4 Z" />
<path d="M 513 4484 c -13 -3 -32 -17 -43 -31 c -20 -25 -20 -38 -20 -978 c 0 -873 1 -954 17 -966 c 11 -10 46 -14 113 -14 c 153 0 140 -44 140 463 l 0 424 l 138 -4 c 124 -4 143 -7 197 -32 c 118 -54 189 -163 305 -466 c 115 -301 134 -346 151 -364 c 14 -15 36 -20 98 -24 c 145 -8 177 10 160 88 c -10 46 -193 496 -248 611 c -52 109 -116 197 -175 239 c -25 19 -46 34 -46 35 c 0 1 35 19 77 41 c 184 93 283 252 283 454 c 0 258 -136 424 -415 507 c -39 11 -124 16 -380 18 c -181 2 -340 1 -352 -1 Z m 538 -229 c 217 -12 328 -132 317 -342 c -11 -230 -191 -332 -543 -308 l -105 7 l 0 322 c 0 178 3 326 7 329 c 6 6 139 3 324 -8 Z" />
<path d="M 2695 4482 c -33 -12 -51 -26 -64 -49 c -8 -16 -11 -275 -11 -962 c 0 -822 2 -941 15 -955 c 32 -32 203 -33 235 -1 c 13 13 16 71 20 373 l 5 357 l 190 7 c 105 3 204 9 220 13 c 173 37 307 110 399 218 c 93 110 136 241 136 414 c 0 182 -44 299 -154 408 c -87 88 -156 125 -296 162 c -60 15 -657 29 -695 15 Z m 518 -227 c 152 -10 255 -75 311 -195 c 27 -58 30 -75 30 -165 c 1 -164 -47 -266 -163 -347 c -84 -59 -134 -69 -328 -66 l -168 3 l -3 384 c -2 301 1 386 10 393 c 12 7 125 5 311 -7 Z" />
<path d="M 3817 4478 c -21 -16 -32 -91 -23 -153 c 6 -36 13 -48 32 -55 c 13 -5 145 -12 293 -16 l 269 -7 l 6 -36 c 3 -20 6 -408 6 -863 l 0 -827 l 23 -13 c 31 -18 208 -18 230 1 c 16 12 17 86 17 877 l 0 864 l 264 0 c 164 0 275 4 294 11 c 25 8 34 19 42 49 c 15 56 2 147 -24 165 c -17 13 -123 15 -716 15 c -541 0 -700 -3 -713 -12 Z" />
<path d="M 5420 4472 c -20 -10 -37 -27 -41 -42 c -11 -40 -10 -1845 1 -1874 c 21 -56 25 -56 569 -56 l 500 0 l 16 30 c 19 37 19 110 1 155 l -15 35 l -123 0 c -68 0 -248 3 -400 7 l -278 6 l 0 344 l 0 343 l 328 0 c 241 1 331 4 343 13 c 38 29 49 88 29 156 c -17 61 -14 60 -357 61 c -171 0 -318 3 -327 6 c -14 5 -16 42 -16 305 l 0 299 l 383 0 c 320 0 386 2 403 15 c 41 28 39 172 -2 202 c -14 10 -124 13 -498 13 c -438 0 -484 -2 -516 -18 Z" />
<path d="M 2103 4465 l -33 -14 l 0 -969 l 0 -969 l 21 -19 c 30 -27 209 -28 236 -1 c 17 17 18 69 18 965 c 0 521 -3 959 -7 973 c -4 14 -19 31 -33 37 c -35 16 -163 14 -202 -3 Z" />
<path d="M 3830 2420 c -8 -5 -30 -10 -49 -10 c -33 0 -95 -14 -138 -31 c -57 -23 -71 -28 -113 -48 c -83 -39 -114 -61 -182 -125 c -105 -102 -180 -227 -228 -381 c -33 -109 -42 -184 -47 -405 c -5 -196 0 -258 28 -395 c 55 -267 199 -464 404 -555 c 28 -12 57 -25 66 -30 c 8 -4 51 -16 95 -26 c 63 -15 118 -19 269 -19 c 226 1 279 12 435 88 c 87 43 118 65 185 132 c 77 76 134 160 183 267 c 12 26 22 54 22 62 c 0 8 4 17 9 20 c 5 3 11 20 14 38 c 3 18 11 56 17 83 c 39 184 39 538 1 700 c -12 50 -26 98 -31 107 c -6 10 -10 24 -10 32 c 0 21 -71 153 -115 215 c -78 108 -234 211 -385 253 c -102 29 -400 48 -430 28 Z m 315 -55 c 350 -57 544 -256 622 -643 c 28 -136 25 -472 -5 -611 c -45 -205 -114 -342 -232 -462 c -128 -128 -300 -199 -520 -213 c -213 -15 -417 28 -554 114 c -224 141 -346 437 -346 835 c 0 441 149 753 429 898 c 166 87 390 117 606 82 Z" />
<path d="M 3825 2236 c -102 -20 -171 -50 -247 -106 c -190 -140 -278 -370 -278 -724 c 0 -519 180 -793 547 -834 c 102 -12 242 1 325 29 c 133 44 255 151 322 279 c 78 150 106 293 106 536 c 0 234 -22 354 -91 502 c -44 97 -141 204 -225 253 c -109 62 -320 92 -459 65 Z m 314 -56 c 104 -29 147 -54 222 -129 c 61 -62 111 -144 147 -246 c 56 -153 56 -615 1 -770 c -45 -125 -81 -186 -154 -260 c -68 -70 -140 -113 -236 -144 c -46 -14 -312 -14 -358 0 c -106 34 -149 58 -221 126 c -139 130 -191 306 -192 644 c -1 198 9 273 49 397 c 45 140 116 240 221 310 c 101 69 179 90 337 91 c 83 1 129 -4 184 -19 Z" />
<path d="M 4877 2423 c -15 -24 94 -368 158 -498 c 42 -88 134 -237 152 -248 c 21 -13 149 -27 189 -21 c 68 10 52 21 -39 26 c -47 3 -97 13 -114 21 c -70 37 -201 297 -267 534 c -40 142 -39 143 71 88 c 65 -33 146 -106 220 -202 c 20 -25 22 -26 23 -7 c 0 30 -50 102 -112 160 c -36 35 -90 69 -160 103 c -112 54 -114 55 -121 44 Z" />
<path d="M 2663 2396 l -33 -15 l 0 -974 c 0 -743 3 -976 12 -985 c 8 -8 48 -12 113 -12 c 86 0 104 3 118 18 c 16 17 17 99 17 979 c 0 1113 14 994 -118 1000 c -53 2 -87 -1 -109 -11 Z m 168 -53 c 12 -13 15 -174 17 -936 c 3 -856 2 -920 -14 -938 c -19 -21 -85 -26 -128 -9 l -26 10 l 0 933 c 0 712 3 936 12 945 c 19 19 123 15 139 -5 Z" />
<path d="M 490 2393 c -8 -3 -25 -15 -37 -26 l -23 -20 l 0 -934 c 0 -622 3 -941 10 -954 c 25 -45 51 -49 362 -49 c 369 0 495 18 664 95 c 250 114 413 332 463 620 c 7 39 17 94 22 124 c 12 74 11 279 -2 360 c -17 106 -48 222 -76 286 c -95 215 -266 373 -483 444 c -150 49 -188 53 -545 57 c -187 2 -347 1 -355 -3 Z m 746 -257 c 290 -93 434 -332 434 -726 c 0 -434 -151 -671 -475 -749 c -79 -19 -113 -21 -290 -19 l -200 3 l -3 764 l -2 764 l 227 -6 c 209 -5 235 -7 309 -31 Z" />
<path d="M 5308 2253 c -8 -16 4 -143 13 -143 c 5 0 12 18 15 40 c 4 22 10 43 14 45 c 12 7 208 -77 286 -123 c 103 -60 116 -80 148 -224 c 4 -16 11 -28 17 -28 c 13 0 3 97 -18 161 c -11 35 -25 54 -56 76 c -56 40 -210 118 -302 153 c -11 4 -40 17 -63 29 c -49 24 -50 24 -54 14 Z" />
<path d="M 5850 1903 c 0 -21 -3 -48 -6 -60 c -8 -28 12 -31 21 -3 c 10 32 29 24 87 -38 c 55 -59 71 -95 83 -184 c 9 -60 25 -62 25 -4 c 0 102 -19 144 -105 236 c -44 47 -85 86 -92 88 c -9 2 -13 -9 -13 -35 Z" />
<path d="M 5470 1861 c 0 -5 17 -18 38 -29 c 262 -137 562 -358 754 -554 c 36 -38 69 -65 72 -60 c 6 10 -122 272 -180 370 c -40 66 -54 77 -54 38 c 0 -13 -2 -30 -5 -38 c -3 -7 5 -17 17 -23 c 13 -6 43 -46 70 -95 c 72 -127 65 -130 -59 -27 c -122 101 -231 182 -348 259 c -162 105 -305 180 -305 159 Z" />
<path d="M 5440 1821 c 0 -5 73 -78 163 -162 c 325 -306 480 -471 440 -469 c -5 1 -60 25 -123 54 c -107 51 -115 56 -118 85 c -2 17 -6 31 -9 31 c -7 0 -48 -53 -48 -63 c 0 -4 70 -39 155 -77 c 85 -38 181 -83 212 -100 c 31 -16 59 -30 62 -30 c 18 0 -1 29 -53 84 c -32 33 -82 88 -111 121 c -66 75 -131 138 -354 345 c -184 170 -216 197 -216 181 Z" />
<path d="M 5665 1683 c 11 -11 85 -78 165 -150 c 80 -72 199 -186 265 -254 c 122 -125 164 -174 341 -397 c 106 -134 134 -147 94 -45 c -49 121 -163 266 -356 453 c -154 149 -452 386 -511 406 c -16 6 -16 5 2 -13 Z" />
<path d="M 5382 1576 l -53 -54 l 58 -43 c 82 -62 131 -83 224 -98 c 67 -11 159 -5 159 10 c 0 5 -22 9 -48 9 c -112 0 -234 39 -301 97 l -35 30 l 21 29 c 29 42 45 74 36 74 c -4 0 -32 -24 -61 -54 Z" />
<path d="M 5296 998 c -28 -39 -14 -73 37 -91 c 14 -5 18 -15 15 -44 c -3 -33 -7 -38 -38 -47 c -53 -14 -135 -72 -163 -115 c -43 -64 -52 -119 -37 -220 c 15 -101 41 -150 95 -175 c 60 -29 290 -49 415 -36 c 196 20 236 35 269 103 c 26 55 39 217 21 271 c -18 56 -104 139 -170 163 c -51 19 -55 23 -58 56 c -3 30 1 37 25 49 c 34 16 43 61 17 89 c -16 17 -33 19 -215 19 c -193 0 -198 -1 -213 -22 Z m 401 -34 c 3 -8 -3 -25 -15 -37 c -49 -54 -36 -105 38 -142 c 65 -33 126 -88 151 -136 c 21 -42 26 -153 10 -223 c -11 -46 -52 -92 -95 -105 c -69 -22 -272 -33 -382 -21 c -153 16 -162 19 -206 61 c -41 39 -49 77 -15 71 c 20 -3 21 5 2 38 c -37 65 -6 202 57 256 c 59 49 89 9 41 -54 c -40 -50 -53 -87 -57 -155 c -1 -31 -6 -60 -9 -64 c -14 -13 -6 -23 11 -14 c 13 7 21 30 29 82 c 8 52 20 85 41 115 c 42 59 47 80 26 112 c -16 25 -16 27 1 37 c 62 35 73 92 29 144 c -14 17 -23 35 -19 41 c 4 6 73 10 181 10 c 149 0 176 -2 181 -16 Z" />
<path d="M 2104 750 c -16 -5 -41 -21 -54 -35 c -21 -22 -25 -37 -28 -118 c -7 -148 21 -187 142 -203 c 59 -8 139 18 162 54 c 23 35 30 161 12 221 c -19 62 -51 83 -135 87 c -37 2 -82 -1 -99 -6 Z" />
<path d="M 6474 633 c -4 -16 -19 -49 -35 -74 c -37 -58 -37 -98 -3 -133 c 33 -33 74 -34 110 -2 c 38 32 36 77 -5 141 c -17 27 -31 59 -31 72 c 0 33 -28 29 -36 -4 Z m 38 -90 c 38 -43 28 -103 -15 -103 c -46 0 -59 38 -32 90 c 18 35 26 37 47 13 Z" />
</g>
</svg>