<?xml version="1.0" encoding="UTF-8" standalone="no"?>
<svg xmlns="http://www.w3.org/2000/svg" width="355" height="270" version="1.0">
<rect x=".5" y=".5" ry="42" width="355" height="270" fill="#fe0000"/>
<rect x="25.5" y="24" ry="18" height="222" width="304" fill="none" stroke="#fff" stroke-width="5"/>
<path fill="#fff" d="M60,53L78,53L78,69L86,69L86,53L105.8,53L105.9,69L111.9,69L112.1,53L132,53L132,80.2L120,90L120.1,127L152,127L151.9,115.1L143,107.8L142.9,79L162,79L162,93L170,93L170,79L184,79L184,93.1L192,93L192,79L212,79L212,105.1L202,115.1L202,126.9L234,127L234,89.9L224,82L224,53L242,53L242,69L249,69L249,53L268,53L268.1,69L276,69L276,53L294,53L294.1,82L286.1,88.5L286,175L295.9,183.1L296,213L59,213L59,183L68,175L68,88L60,81L60,53zM91,97v31h9v-31zM91,156v29h9v-29zM255,97v31h9v-31zM255,156v29h9v-29zM130,156v22h9v-22zM216,156v22h9v-22zM157,163v36h41v-36a20.5,18.75 0 0 0-41,0z"/>
</svg>