<?xml version="1.0" encoding="UTF-8" standalone="no"?><svg width="88" height="88" viewBox="-10 -10 212 212" xmlns="http://www.w3.org/2000/svg"><circle cx="93" cy="93" r="93" transform="translate(1.5 1.5)" fill="#00162B"/><g fill="#FAFBFB"><path d="M117.965 85c-1.846.197-5.802.744-9.494.842 5.19 14.198 15.576 15.283 16.575 25.738.292 2.344-.45 9.196-7.254 11.388-3.82 1.23-10.137-.157-10.72-4.65 7.287-.683 6.9-12.5-2.137-12.402-3.595 0-5.28 1.402-6.833 4.234-.875 1.465-1.62 4.36-1.426 6.313.68 6.152 4.69 12.784 11.2 14.835 9.917 3.734 19.99-1.26 24.07-5.753 4.372-4.883 5.094-11.008 3.692-16.21C133.31 98.098 123.31 95.157 117.966 85z"/><path d="M112.894 58.206c-7.1 4.525-7.995 9.895-6.56 18.21-3.32-.26-7-3.268-9.524-6.98-.194-2.337-.41-10.116-6.728-12.356 0 0-5.42-1.996-9.34 2.978-3.92 4.975-.87 12.9 5.507 11.23 1.162 12.466.275 23.898-4.376 37.923-4.882 14.745-11.587 14.35-11.587 14.35s-3.276-2.805-2.93-11.506c.184-4.584 1.614-40.284-.368-48.467-1.498-6.185-6.207-6.922-8.14-6.915-6.55.022-10.377 4.05-9.583 12.454 0 1.132 6.22-3.225 7.77-.997 2.82 4.056.263 40.696.805 47.553.865 10.945 7.527 15.86 7.527 15.86 4.33 1.477 8.632.163 8.632.163s9.557-2.674 14.305-12.804c3.003-6.428 5.232-14.9 6.588-23.47.582-3.897 1.334-9.854 1.72-15.405 2.706 3.407 7.505 6.545 21.405 4.106 4.907-.727 8.948-1.712 13.335-6.17 2.844-2.89 3.668-5.996 3.163-10.364-1.6-12.384-14.524-13.92-21.624-9.394zm2.485 17.83s-1.674-5.848 1.72-9.582c5.43-5.046 11.31-.247 8.578 5.013-3.387 5.477-10.3 4.57-10.3 4.57z"/></g></svg>
