<svg id="svg" version="1.1" width="400" height="400" viewBox="0 0 400 400" xmlns="http://www.w3.org/2000/svg" xmlns:xlink="http://www.w3.org/1999/xlink" ><g id="svgg"><path id="path0" d="M0.000 126.600 L 0.000 253.200 200.000 253.200 L 400.000 253.200 400.000 126.600 L 400.000 0.000 200.000 0.000 L 0.000 0.000 0.000 126.600 M126.653 63.414 C 128.950 65.165,129.622 66.961,141.989 104.400 C 148.639 124.530,154.232 141.360,154.419 141.800 C 154.606 142.240,155.149 143.860,155.626 145.400 C 156.102 146.940,156.651 148.513,156.846 148.895 C 157.041 149.277,157.200 149.916,157.200 150.315 C 157.200 150.714,157.349 151.211,157.530 151.420 C 157.712 151.629,158.090 152.610,158.369 153.600 C 158.649 154.590,159.040 155.713,159.239 156.095 C 159.438 156.477,159.600 157.141,159.600 157.571 C 159.600 158.001,159.780 158.464,160.000 158.600 C 160.220 158.736,160.405 159.242,160.412 159.724 C 160.439 161.648,161.666 158.091,174.181 119.800 C 177.201 110.560,179.836 102.687,180.036 102.305 C 180.236 101.923,180.400 101.336,180.400 101.000 C 180.400 100.664,180.567 100.077,180.771 99.695 C 180.975 99.313,183.069 93.060,185.425 85.800 C 187.781 78.540,189.846 72.240,190.014 71.800 C 190.182 71.360,190.536 70.370,190.801 69.600 C 191.777 66.763,193.002 64.692,194.374 63.561 L 195.782 62.400 211.437 62.400 L 227.091 62.400 228.145 63.455 C 229.180 64.489,229.708 68.158,228.935 68.932 C 228.672 69.195,227.712 71.725,226.558 75.200 C 226.229 76.190,225.807 77.360,225.620 77.800 C 225.434 78.240,225.064 79.230,224.800 80.000 C 224.218 81.693,223.629 83.160,223.153 84.095 C 222.959 84.477,222.800 85.116,222.800 85.515 C 222.800 85.914,222.657 86.411,222.482 86.620 C 222.307 86.829,221.934 87.720,221.653 88.600 C 221.104 90.321,219.734 94.097,219.185 95.400 C 219.000 95.840,218.190 98.090,217.385 100.400 C 215.607 105.502,214.448 108.724,212.778 113.200 C 212.080 115.070,211.418 117.008,211.307 117.506 C 211.195 118.004,210.946 118.510,210.752 118.630 C 210.559 118.749,210.400 119.199,210.400 119.629 C 210.400 120.059,210.234 120.723,210.032 121.105 C 209.830 121.487,209.275 122.880,208.800 124.200 C 208.325 125.520,207.770 126.913,207.568 127.295 C 207.366 127.677,207.200 128.316,207.200 128.715 C 207.200 129.114,207.057 129.611,206.882 129.820 C 206.707 130.029,206.335 130.920,206.055 131.800 C 205.776 132.680,205.392 133.760,205.202 134.200 C 205.012 134.640,204.381 136.350,203.799 138.000 C 203.217 139.650,201.566 144.240,200.130 148.200 C 198.694 152.160,197.373 155.850,197.195 156.400 C 197.017 156.950,196.303 158.930,195.609 160.800 C 194.915 162.670,194.080 165.010,193.753 166.000 C 193.142 167.855,192.569 169.284,191.953 170.495 C 191.759 170.877,191.600 171.464,191.600 171.800 C 191.600 172.136,191.420 172.768,191.200 173.205 C 190.980 173.642,190.620 174.358,190.400 174.795 C 190.180 175.232,190.000 175.922,190.000 176.328 C 190.000 176.734,189.881 177.186,189.735 177.332 C 189.472 177.595,188.512 180.125,187.358 183.600 C 187.029 184.590,186.597 185.760,186.399 186.200 C 186.201 186.640,184.763 190.584,183.203 194.965 C 179.942 204.128,179.614 204.801,177.283 207.100 L 175.560 208.800 160.553 208.800 C 150.425 208.800,145.263 208.657,144.674 208.359 C 143.569 207.803,141.200 205.173,141.200 204.504 C 141.200 204.227,141.064 204.000,140.898 204.000 C 140.567 204.000,139.867 202.234,136.853 193.800 C 135.752 190.720,134.288 186.670,133.600 184.800 C 132.911 182.930,132.080 180.590,131.753 179.600 C 131.427 178.610,131.007 177.440,130.820 177.000 C 130.634 176.560,130.264 175.570,130.000 174.800 C 129.736 174.030,129.376 173.040,129.200 172.600 C 129.024 172.160,128.664 171.170,128.400 170.400 C 128.136 169.630,127.776 168.640,127.600 168.200 C 127.424 167.760,127.064 166.770,126.800 166.000 C 126.536 165.230,126.175 164.240,125.999 163.800 C 125.822 163.360,125.283 161.920,124.800 160.600 C 124.317 159.280,123.769 157.840,123.581 157.400 C 123.394 156.960,122.972 155.790,122.644 154.800 C 122.104 153.169,120.498 148.686,118.343 142.800 C 117.901 141.590,117.023 139.160,116.393 137.400 C 115.764 135.640,114.686 132.670,113.998 130.800 C 113.310 128.930,112.480 126.590,112.153 125.600 C 111.827 124.610,111.407 123.440,111.220 123.000 C 111.034 122.560,110.664 121.570,110.400 120.800 C 110.136 120.030,109.757 118.995,109.560 118.500 C 109.362 118.005,109.038 117.195,108.840 116.700 C 108.643 116.205,108.264 115.170,108.000 114.400 C 107.736 113.630,107.370 112.640,107.188 112.200 C 107.006 111.760,106.416 110.140,105.878 108.600 C 103.186 100.898,97.839 86.145,97.181 84.600 C 96.994 84.160,96.571 82.990,96.242 82.000 C 95.088 78.525,94.128 75.995,93.865 75.732 C 93.719 75.586,93.600 75.134,93.600 74.728 C 93.600 74.322,93.441 73.677,93.247 73.295 C 93.052 72.913,92.715 72.150,92.496 71.600 C 92.278 71.050,91.897 70.097,91.650 69.481 C 90.917 67.659,91.095 64.871,92.027 63.562 L 92.854 62.400 109.089 62.400 L 125.324 62.400 126.653 63.414 M280.271 102.628 C 282.797 104.483,282.799 104.493,282.799 123.000 C 282.799 146.412,284.732 144.200,264.271 144.200 C 243.165 144.200,245.200 146.430,245.200 123.294 C 245.200 103.712,245.300 103.159,249.057 102.002 C 251.731 101.179,279.043 101.727,280.271 102.628 M280.138 166.922 C 282.840 168.694,282.797 168.364,282.799 187.406 C 282.801 211.060,284.850 208.731,264.000 208.769 C 243.146 208.808,245.200 211.133,245.200 187.493 C 245.200 167.000,245.174 167.117,250.000 166.260 C 253.374 165.660,279.075 166.225,280.138 166.922 M196.128 304.537 C 194.768 304.792,193.523 305.135,193.361 305.300 C 193.199 305.465,192.814 305.600,192.505 305.600 C 190.060 305.600,186.317 310.231,185.185 314.657 C 181.565 328.813,190.452 338.965,203.730 335.840 C 218.380 332.392,217.621 306.901,202.800 304.652 C 199.123 304.094,198.546 304.084,196.128 304.537 M62.910 304.762 C 58.725 305.843,56.400 308.917,56.400 313.371 C 56.400 317.631,58.639 320.157,65.212 323.311 C 73.939 327.499,68.832 333.271,59.454 329.820 C 56.091 328.582,56.000 328.634,56.000 331.775 C 56.000 334.818,56.204 335.031,59.855 335.804 C 76.338 339.297,82.913 325.370,68.338 317.835 C 63.608 315.390,63.018 314.832,63.018 312.809 C 63.018 309.939,66.810 309.049,71.591 310.797 C 73.640 311.546,73.797 311.552,74.186 310.905 C 74.719 310.020,75.966 306.636,75.816 306.484 C 74.517 305.171,65.818 304.010,62.910 304.762 M120.182 305.301 C 120.077 305.577,120.037 312.552,120.095 320.801 L 120.200 335.800 123.289 335.917 L 126.377 336.033 126.489 330.517 L 126.600 325.000 130.200 324.752 C 137.924 324.219,141.076 321.669,141.505 315.603 C 141.905 309.948,139.898 307.004,134.440 305.240 C 132.461 304.600,120.432 304.652,120.182 305.301 M258.895 320.267 L 259.000 335.800 262.200 335.800 L 265.400 335.800 265.511 329.900 L 265.621 324.000 267.199 324.000 C 268.619 324.000,272.800 328.618,272.800 330.187 C 272.800 330.309,273.636 331.667,274.659 333.205 L 276.517 336.000 279.859 336.000 C 283.596 336.000,283.904 335.709,282.261 333.731 C 280.422 331.515,275.200 323.394,275.200 322.749 C 275.200 322.388,275.695 321.778,276.300 321.394 C 280.012 319.038,281.469 314.168,279.648 310.200 C 277.753 306.068,275.234 305.110,265.695 304.892 L 258.791 304.734 258.895 320.267 M323.073 305.061 C 322.923 305.211,322.800 306.383,322.800 307.667 L 322.800 310.000 326.776 310.000 C 328.963 310.000,330.848 310.154,330.965 310.343 C 331.081 310.532,331.301 316.389,331.453 323.359 L 331.728 336.031 334.764 335.916 L 337.800 335.800 337.906 323.220 C 338.028 308.733,337.561 310.015,342.719 310.006 L 346.438 310.000 346.319 307.500 L 346.200 305.000 334.773 304.894 C 328.488 304.836,323.223 304.911,323.073 305.061 M133.184 311.054 C 136.405 312.957,135.470 317.857,131.640 319.143 C 127.446 320.552,126.400 319.656,126.400 314.655 C 126.400 309.846,128.896 308.521,133.184 311.054 M202.926 310.465 C 208.539 313.452,208.714 326.853,203.182 329.962 C 201.222 331.064,197.745 331.094,195.656 330.029 C 189.728 327.005,189.826 313.771,195.800 310.467 C 196.863 309.879,201.823 309.878,202.926 310.465 M270.200 310.441 C 276.559 312.174,274.041 318.800,267.023 318.800 L 265.600 318.800 265.600 314.667 C 265.600 309.554,265.908 309.271,270.200 310.441 " stroke="none" fill="#ffffff" fill-rule="evenodd"></path><path id="path1" d="M92.655 63.855 C 91.549 64.960,91.217 67.258,91.953 68.705 C 92.429 69.640,93.018 71.107,93.600 72.800 C 94.182 74.493,94.771 75.960,95.247 76.895 C 95.441 77.277,95.600 77.941,95.600 78.371 C 95.600 78.801,95.759 79.251,95.952 79.370 C 96.146 79.490,96.397 79.996,96.511 80.494 C 96.625 80.992,97.087 82.390,97.538 83.600 C 98.591 86.423,101.166 93.584,102.788 98.200 C 103.484 100.180,104.209 102.160,104.400 102.600 C 104.591 103.040,104.976 104.120,105.255 105.000 C 105.535 105.880,105.907 106.771,106.082 106.980 C 106.257 107.189,106.400 107.686,106.400 108.085 C 106.400 108.484,106.559 109.123,106.753 109.505 C 107.229 110.440,107.818 111.907,108.400 113.600 C 108.664 114.370,109.024 115.360,109.200 115.800 C 109.376 116.240,109.736 117.230,110.000 118.000 C 110.264 118.770,110.624 119.760,110.800 120.200 C 110.976 120.640,111.336 121.630,111.600 122.400 C 111.864 123.170,112.224 124.160,112.400 124.600 C 112.576 125.040,112.936 126.030,113.200 126.800 C 113.464 127.570,113.825 128.560,114.001 129.000 C 114.484 130.205,115.731 133.621,117.797 139.400 C 118.820 142.260,119.931 145.320,120.266 146.200 C 120.601 147.080,121.138 148.610,121.458 149.600 C 121.778 150.590,122.193 151.760,122.380 152.200 C 122.566 152.640,122.936 153.630,123.200 154.400 C 123.782 156.093,124.371 157.560,124.847 158.495 C 125.041 158.877,125.200 159.464,125.200 159.800 C 125.200 160.136,125.380 160.768,125.600 161.205 C 125.820 161.642,126.180 162.358,126.400 162.795 C 126.620 163.232,126.800 163.864,126.800 164.200 C 126.800 164.536,127.008 165.213,127.262 165.705 C 128.256 167.626,128.400 168.016,128.400 168.771 C 128.400 169.201,128.559 169.651,128.752 169.770 C 128.946 169.890,129.195 170.396,129.307 170.894 C 129.418 171.392,130.080 173.330,130.779 175.200 C 131.477 177.070,132.562 180.040,133.190 181.800 C 134.852 186.456,136.187 190.146,137.603 194.000 C 138.290 195.870,139.120 198.210,139.447 199.200 C 140.913 203.635,142.909 206.797,144.858 207.769 C 146.635 208.656,173.825 208.719,175.520 207.840 C 177.616 206.754,179.560 203.806,180.955 199.600 C 181.283 198.610,182.297 195.730,183.208 193.200 C 184.120 190.670,185.046 188.060,185.266 187.400 C 185.486 186.740,185.819 185.840,186.006 185.400 C 186.193 184.960,186.910 182.980,187.600 181.000 C 188.290 179.020,189.003 177.040,189.186 176.600 C 189.370 176.160,189.736 175.170,190.000 174.400 C 190.264 173.630,190.624 172.640,190.800 172.200 C 190.976 171.760,191.336 170.770,191.600 170.000 C 192.182 168.307,192.771 166.840,193.247 165.905 C 193.441 165.523,193.600 164.884,193.600 164.485 C 193.600 164.086,193.749 163.589,193.930 163.380 C 194.112 163.171,194.505 162.190,194.802 161.200 C 195.100 160.210,195.454 159.220,195.589 159.000 C 195.723 158.780,196.063 157.880,196.343 157.000 C 196.623 156.120,197.012 155.040,197.206 154.600 C 197.401 154.160,197.830 152.990,198.160 152.000 C 198.491 151.010,199.567 147.950,200.551 145.200 C 201.536 142.450,202.817 138.850,203.399 137.200 C 203.981 135.550,204.606 133.840,204.788 133.400 C 204.970 132.960,205.336 131.970,205.600 131.200 C 205.864 130.430,206.224 129.440,206.400 129.000 C 206.576 128.560,206.936 127.570,207.200 126.800 C 207.464 126.030,207.824 125.040,208.000 124.600 C 208.176 124.160,208.536 123.170,208.800 122.400 C 209.064 121.630,209.424 120.640,209.600 120.200 C 209.776 119.760,210.136 118.770,210.400 118.000 C 210.664 117.230,211.034 116.240,211.220 115.800 C 211.407 115.360,211.827 114.190,212.153 113.200 C 212.480 112.210,213.311 109.870,214.000 108.000 C 214.689 106.130,215.518 103.835,215.842 102.901 C 216.166 101.966,217.334 98.726,218.438 95.701 C 219.542 92.675,220.714 89.390,221.043 88.400 C 221.371 87.410,221.793 86.240,221.980 85.800 C 222.166 85.360,222.536 84.370,222.800 83.600 C 223.064 82.830,223.424 81.840,223.600 81.400 C 223.776 80.960,224.136 79.970,224.400 79.200 C 224.982 77.507,225.571 76.040,226.047 75.105 C 226.241 74.723,226.400 74.059,226.400 73.629 C 226.400 73.199,226.544 72.758,226.721 72.649 C 226.897 72.540,227.293 71.528,227.600 70.400 C 227.907 69.272,228.303 68.260,228.479 68.151 C 229.397 67.584,228.560 64.331,227.235 63.313 C 226.246 62.554,197.153 62.597,195.679 63.359 C 193.870 64.295,191.600 67.539,191.600 69.189 C 191.600 69.609,191.420 70.064,191.200 70.200 C 190.980 70.336,190.800 70.799,190.800 71.229 C 190.800 71.659,190.636 72.323,190.435 72.705 C 190.234 73.087,188.502 78.260,186.586 84.200 C 182.194 97.821,178.463 109.162,178.035 110.200 C 177.854 110.640,177.312 112.260,176.832 113.800 C 176.352 115.340,175.807 116.960,175.622 117.400 C 175.321 118.114,171.342 130.282,164.307 152.000 C 162.988 156.070,161.754 159.805,161.563 160.300 C 161.139 161.403,160.000 161.493,160.000 160.424 C 160.000 159.997,159.820 159.536,159.600 159.400 C 159.380 159.264,159.200 158.724,159.200 158.200 C 159.200 157.676,159.020 157.136,158.800 157.000 C 158.580 156.864,158.400 156.324,158.400 155.800 C 158.400 155.276,158.220 154.736,158.000 154.600 C 157.780 154.464,157.600 154.001,157.600 153.571 C 157.600 153.141,157.438 152.477,157.239 152.095 C 157.040 151.713,156.649 150.590,156.369 149.600 C 156.090 148.610,155.712 147.629,155.530 147.420 C 155.349 147.211,155.200 146.714,155.200 146.315 C 155.200 145.916,155.031 145.277,154.824 144.895 C 154.617 144.513,152.529 138.260,150.185 131.000 C 147.840 123.740,145.759 117.487,145.561 117.105 C 145.362 116.723,145.200 116.084,145.200 115.685 C 145.200 115.286,145.051 114.789,144.870 114.580 C 144.688 114.371,144.307 113.390,144.024 112.400 C 143.741 111.410,143.354 110.240,143.164 109.800 C 142.974 109.360,140.548 102.070,137.772 93.600 C 134.996 85.130,132.574 77.840,132.389 77.400 C 132.204 76.960,131.839 75.880,131.577 75.000 C 131.316 74.120,130.944 73.087,130.751 72.705 C 130.558 72.323,130.400 71.684,130.400 71.285 C 130.400 70.886,130.257 70.389,130.082 70.180 C 129.907 69.971,129.525 69.080,129.233 68.200 C 127.459 62.842,127.302 62.800,109.074 62.800 L 93.709 62.800 92.655 63.855 M248.600 167.178 C 245.784 168.331,245.600 169.571,245.602 187.360 C 245.605 206.081,245.718 206.726,249.200 207.940 C 251.125 208.611,276.840 208.576,278.772 207.900 C 282.080 206.742,282.000 207.252,282.000 187.412 C 282.000 168.042,282.059 168.485,279.331 167.345 C 277.852 166.727,250.071 166.576,248.600 167.178 " stroke="none" fill="#030304" fill-rule="evenodd"></path><path id="path2" d="M92.470 63.326 C 91.227 64.649,91.391 65.118,92.655 63.855 L 93.709 62.800 109.074 62.800 C 127.969 62.800,127.446 62.624,129.772 69.757 C 129.908 70.174,130.107 70.427,130.214 70.320 C 130.526 70.007,129.256 66.731,128.205 65.140 C 126.387 62.385,126.492 62.400,109.008 62.400 L 93.339 62.400 92.470 63.326 M195.207 63.249 C 194.441 63.718,193.582 64.393,193.299 64.751 C 192.408 65.873,191.532 67.665,191.761 67.894 C 191.882 68.015,192.102 67.774,192.250 67.357 C 193.815 62.943,194.426 62.800,211.705 62.800 C 228.125 62.800,228.042 62.788,228.580 65.311 C 228.684 65.800,228.845 66.560,228.938 67.000 C 229.044 67.500,229.125 67.334,229.154 66.559 C 229.180 65.862,228.799 64.723,228.284 63.959 L 227.368 62.600 211.984 62.499 C 196.901 62.400,196.573 62.414,195.207 63.249 M228.177 68.643 C 228.044 69.059,227.770 69.813,227.567 70.319 C 227.365 70.824,227.210 71.454,227.222 71.719 C 227.234 71.983,227.600 71.321,228.036 70.247 C 228.472 69.173,228.736 68.203,228.623 68.090 C 228.511 67.978,228.310 68.226,228.177 68.643 M91.600 68.572 C 91.600 68.693,92.067 70.008,92.638 71.496 C 93.210 72.983,94.020 75.145,94.438 76.300 C 95.546 79.353,96.692 82.504,97.567 84.900 C 97.989 86.055,98.643 87.855,99.021 88.900 C 99.399 89.945,99.786 90.800,99.881 90.800 C 100.102 90.800,99.745 89.543,98.773 86.900 C 98.348 85.745,97.626 83.765,97.168 82.500 C 96.710 81.235,96.170 79.887,95.968 79.505 C 95.766 79.123,95.600 78.536,95.600 78.200 C 95.600 77.864,95.441 77.277,95.247 76.895 C 94.650 75.722,94.076 74.274,93.545 72.600 C 93.265 71.720,92.893 70.829,92.718 70.620 C 92.543 70.411,92.400 69.927,92.400 69.544 C 92.400 69.161,92.220 68.736,92.000 68.600 C 91.780 68.464,91.600 68.452,91.600 68.572 M191.246 68.667 C 191.221 68.924,191.084 69.464,190.941 69.867 C 190.740 70.436,190.794 70.497,191.179 70.142 C 191.452 69.891,191.589 69.351,191.484 68.942 C 191.379 68.534,191.272 68.410,191.246 68.667 M130.428 71.476 C 130.413 71.958,130.580 72.464,130.800 72.600 C 131.273 72.892,131.273 72.501,130.800 71.400 C 130.469 70.629,130.455 70.631,130.428 71.476 M190.446 71.067 C 190.421 71.324,190.284 71.864,190.141 72.267 C 189.940 72.836,189.994 72.897,190.379 72.542 C 190.652 72.291,190.789 71.751,190.684 71.342 C 190.579 70.934,190.472 70.810,190.446 71.067 M226.667 72.667 C 226.520 72.813,226.411 73.308,226.425 73.767 C 226.449 74.533,226.482 74.523,226.834 73.642 C 227.226 72.663,227.144 72.189,226.667 72.667 M131.229 73.681 C 131.213 74.056,131.365 74.776,131.567 75.281 C 131.770 75.787,132.044 76.541,132.177 76.957 C 132.310 77.374,132.504 77.629,132.608 77.525 C 132.712 77.421,132.451 76.360,132.028 75.168 C 131.605 73.976,131.245 73.307,131.229 73.681 M189.429 74.229 C 189.281 74.815,189.251 75.384,189.361 75.494 C 189.471 75.604,189.681 75.215,189.829 74.629 C 189.976 74.042,190.006 73.473,189.896 73.363 C 189.786 73.253,189.576 73.642,189.429 74.229 M225.773 75.443 C 225.638 75.859,225.382 76.560,225.204 77.000 C 225.026 77.440,224.664 78.430,224.400 79.200 C 224.136 79.970,223.776 80.960,223.600 81.400 C 223.424 81.840,223.064 82.830,222.800 83.600 C 222.536 84.370,222.170 85.360,221.988 85.800 C 221.806 86.240,221.183 87.950,220.604 89.600 C 220.024 91.250,218.650 95.093,217.549 98.140 C 216.448 101.188,215.649 103.783,215.774 103.907 C 215.898 104.032,216.000 104.041,216.000 103.928 C 216.000 103.744,216.732 101.688,219.250 94.800 C 219.692 93.590,220.388 91.610,220.795 90.400 C 221.203 89.190,222.075 86.760,222.732 85.000 C 225.735 76.963,226.390 75.056,226.211 74.877 C 226.105 74.772,225.908 75.026,225.773 75.443 M188.200 78.000 C 187.825 79.129,187.604 80.137,187.708 80.241 C 187.812 80.346,188.201 79.504,188.571 78.371 C 188.942 77.239,189.163 76.230,189.063 76.130 C 188.963 76.030,188.575 76.871,188.200 78.000 M132.832 78.253 C 132.809 78.583,141.271 104.576,143.023 109.557 C 143.131 109.864,143.303 110.031,143.405 109.928 C 143.566 109.767,140.551 100.260,138.417 94.200 C 138.029 93.100,137.495 91.480,137.230 90.600 C 136.964 89.720,136.592 88.640,136.403 88.200 C 136.214 87.760,135.680 86.140,135.216 84.600 C 134.752 83.060,134.212 81.440,134.016 81.000 C 133.819 80.560,133.480 79.660,133.261 79.000 C 133.042 78.340,132.849 78.004,132.832 78.253 M187.000 81.600 C 186.850 82.073,186.817 82.550,186.927 82.660 C 187.037 82.770,187.250 82.473,187.400 82.000 C 187.550 81.527,187.583 81.050,187.473 80.940 C 187.363 80.830,187.150 81.127,187.000 81.600 M186.200 84.000 C 186.050 84.473,186.017 84.950,186.127 85.060 C 186.237 85.170,186.450 84.873,186.600 84.400 C 186.750 83.927,186.783 83.450,186.673 83.340 C 186.563 83.230,186.350 83.527,186.200 84.000 M180.597 101.090 C 177.783 109.621,175.391 116.870,175.281 117.200 C 175.151 117.593,175.216 117.662,175.469 117.400 C 175.682 117.180,176.270 115.650,176.776 114.000 C 177.281 112.350,177.849 110.640,178.037 110.200 C 178.909 108.159,186.061 85.928,185.898 85.765 C 185.797 85.663,183.411 92.560,180.597 101.090 M100.000 91.480 C 100.000 91.707,100.346 92.772,100.770 93.847 C 101.193 94.921,101.849 96.659,102.228 97.709 C 102.606 98.759,102.997 99.537,103.096 99.438 C 103.265 99.268,100.524 91.592,100.166 91.233 C 100.075 91.142,100.000 91.253,100.000 91.480 M103.212 100.400 C 103.212 100.730,103.387 101.270,103.600 101.600 C 103.945 102.133,103.988 102.133,103.988 101.600 C 103.988 101.270,103.813 100.730,103.600 100.400 C 103.255 99.867,103.212 99.867,103.212 100.400 M104.000 102.449 C 104.000 103.036,105.317 106.416,105.482 106.252 C 105.703 106.030,104.792 103.185,104.318 102.620 C 104.143 102.411,104.000 102.334,104.000 102.449 M214.615 106.215 C 214.230 107.224,213.998 108.132,214.100 108.233 C 214.201 108.335,214.600 107.593,214.985 106.585 C 215.370 105.576,215.602 104.668,215.500 104.567 C 215.399 104.465,215.000 105.207,214.615 106.215 M213.015 110.615 C 212.630 111.624,212.398 112.532,212.500 112.633 C 212.601 112.735,213.000 111.993,213.385 110.985 C 213.770 109.976,214.002 109.068,213.900 108.967 C 213.799 108.865,213.400 109.607,213.015 110.615 M143.629 110.881 C 143.613 111.256,143.765 111.976,143.967 112.481 C 144.170 112.987,144.444 113.741,144.577 114.157 C 144.710 114.574,144.904 114.829,145.008 114.725 C 145.112 114.621,144.851 113.560,144.428 112.368 C 144.005 111.176,143.645 110.507,143.629 110.881 M107.402 112.000 C 107.961 113.920,110.347 119.796,110.374 119.319 C 110.388 119.054,110.198 118.334,109.950 117.719 C 109.703 117.103,109.355 116.240,109.177 115.800 C 108.999 115.360,108.624 114.280,108.345 113.400 C 107.784 111.634,106.922 110.354,107.402 112.000 M211.800 114.000 C 211.650 114.473,211.617 114.950,211.727 115.060 C 211.837 115.170,212.050 114.873,212.200 114.400 C 212.350 113.927,212.383 113.450,212.273 113.340 C 212.163 113.230,211.950 113.527,211.800 114.000 M145.228 115.876 C 145.213 116.358,145.380 116.864,145.600 117.000 C 146.073 117.292,146.073 116.901,145.600 115.800 C 145.269 115.029,145.255 115.031,145.228 115.876 M210.972 116.243 C 210.360 118.120,209.895 119.461,209.600 120.200 C 209.424 120.640,209.064 121.630,208.800 122.400 C 208.536 123.170,208.176 124.160,208.000 124.600 C 207.824 125.040,207.464 126.030,207.200 126.800 C 206.936 127.570,206.576 128.560,206.400 129.000 C 206.224 129.440,205.864 130.430,205.600 131.200 C 205.336 131.970,204.976 132.960,204.800 133.400 C 204.624 133.840,204.293 134.740,204.064 135.400 C 203.835 136.060,202.997 138.375,202.201 140.544 C 201.405 142.713,200.850 144.584,200.968 144.701 C 201.085 144.818,201.292 144.574,201.428 144.157 C 202.040 142.280,202.505 140.939,202.800 140.200 C 202.976 139.760,203.336 138.770,203.600 138.000 C 203.864 137.230,204.224 136.240,204.400 135.800 C 204.576 135.360,204.936 134.370,205.200 133.600 C 205.464 132.830,205.834 131.840,206.020 131.400 C 206.207 130.960,206.627 129.790,206.953 128.800 C 207.280 127.810,208.115 125.470,208.809 123.600 C 211.063 117.523,211.605 115.872,211.410 115.677 C 211.305 115.572,211.108 115.826,210.972 116.243 M146.012 118.400 C 146.012 118.730,146.187 119.270,146.400 119.600 C 146.745 120.133,146.788 120.133,146.788 119.600 C 146.788 119.270,146.613 118.730,146.400 118.400 C 146.055 117.867,146.012 117.867,146.012 118.400 M173.843 121.443 C 173.231 123.324,172.812 124.946,172.913 125.046 C 173.014 125.147,173.597 123.690,174.209 121.809 C 174.821 119.927,175.239 118.306,175.139 118.206 C 175.039 118.106,174.456 119.563,173.843 121.443 M110.400 120.052 C 110.400 120.298,112.299 125.820,112.789 127.000 C 113.100 127.747,113.582 129.050,115.600 134.600 C 117.537 139.927,117.939 141.044,118.171 141.757 C 118.308 142.174,118.505 142.428,118.611 142.322 C 118.781 142.152,117.871 139.452,115.131 132.000 C 114.686 130.790,114.171 129.440,113.987 129.000 C 113.803 128.560,113.423 127.480,113.143 126.600 C 112.863 125.720,112.523 124.820,112.389 124.600 C 112.254 124.380,111.900 123.390,111.602 122.400 C 111.135 120.846,110.400 119.411,110.400 120.052 M146.800 120.625 C 146.800 121.233,148.127 124.806,148.292 124.641 C 148.499 124.434,147.240 120.400,146.968 120.400 C 146.876 120.400,146.800 120.501,146.800 120.625 M148.412 125.600 C 148.412 125.930,148.587 126.470,148.800 126.800 C 149.145 127.333,149.188 127.333,149.188 126.800 C 149.188 126.470,149.013 125.930,148.800 125.600 C 148.455 125.067,148.412 125.067,148.412 125.600 M172.200 126.400 C 172.050 126.873,172.017 127.350,172.127 127.460 C 172.237 127.570,172.450 127.273,172.600 126.800 C 172.750 126.327,172.783 125.850,172.673 125.740 C 172.563 125.630,172.350 125.927,172.200 126.400 M149.212 128.000 C 149.212 128.330,149.387 128.870,149.600 129.200 C 149.945 129.733,149.988 129.733,149.988 129.200 C 149.988 128.870,149.813 128.330,149.600 128.000 C 149.255 127.467,149.212 127.467,149.212 128.000 M171.400 128.800 C 171.250 129.273,171.217 129.750,171.327 129.860 C 171.437 129.970,171.650 129.673,171.800 129.200 C 171.950 128.727,171.983 128.250,171.873 128.140 C 171.763 128.030,171.550 128.327,171.400 128.800 M149.996 130.233 C 149.991 130.736,154.377 144.030,154.833 144.895 C 155.035 145.277,155.200 145.916,155.200 146.315 C 155.200 146.714,155.349 147.211,155.530 147.420 C 155.712 147.629,156.090 148.610,156.369 149.600 C 156.649 150.590,157.040 151.713,157.239 152.095 C 157.438 152.477,157.600 153.141,157.600 153.571 C 157.600 154.001,157.780 154.464,158.000 154.600 C 158.594 154.967,158.701 155.327,154.373 142.317 C 150.583 130.928,150.006 129.333,149.996 130.233 M170.600 131.200 C 170.450 131.673,170.417 132.150,170.527 132.260 C 170.637 132.370,170.850 132.073,171.000 131.600 C 171.150 131.127,171.183 130.650,171.073 130.540 C 170.963 130.430,170.750 130.727,170.600 131.200 M169.429 134.829 C 169.058 135.961,168.837 136.970,168.937 137.070 C 169.037 137.170,169.425 136.329,169.800 135.200 C 170.175 134.071,170.396 133.063,170.292 132.959 C 170.188 132.854,169.799 133.696,169.429 134.829 M167.418 141.076 C 166.283 144.822,165.724 146.506,165.188 147.800 C 165.005 148.240,164.008 151.260,162.972 154.511 C 160.722 161.572,160.775 161.519,159.566 157.897 C 159.037 156.315,158.543 155.353,158.466 155.755 C 158.388 156.156,158.522 156.682,158.762 156.922 C 159.003 157.163,159.200 157.763,159.200 158.256 C 159.200 158.749,159.380 159.264,159.600 159.400 C 159.820 159.536,160.000 159.997,160.000 160.424 C 160.000 161.493,161.137 161.403,161.571 160.300 C 162.696 157.438,168.856 137.923,168.688 137.755 C 168.577 137.643,168.005 139.138,167.418 141.076 M118.812 143.200 C 118.812 143.530,118.987 144.070,119.200 144.400 C 119.545 144.933,119.588 144.933,119.588 144.400 C 119.588 144.070,119.413 143.530,119.200 143.200 C 118.855 142.667,118.812 142.667,118.812 143.200 M119.612 145.337 C 119.590 145.954,121.708 151.625,121.892 151.441 C 121.992 151.341,121.674 150.121,121.187 148.730 C 120.274 146.125,119.634 144.745,119.612 145.337 M200.200 146.000 C 200.050 146.473,200.017 146.950,200.127 147.060 C 200.237 147.170,200.450 146.873,200.600 146.400 C 200.750 145.927,200.783 145.450,200.673 145.340 C 200.563 145.230,200.350 145.527,200.200 146.000 M199.015 149.415 C 198.630 150.424,198.398 151.332,198.500 151.433 C 198.601 151.535,199.000 150.793,199.385 149.785 C 199.770 148.776,200.002 147.868,199.900 147.767 C 199.799 147.665,199.400 148.407,199.015 149.415 M197.800 152.800 C 197.650 153.273,197.617 153.750,197.727 153.860 C 197.837 153.970,198.050 153.673,198.200 153.200 C 198.350 152.727,198.383 152.250,198.273 152.140 C 198.163 152.030,197.950 152.327,197.800 152.800 M122.812 154.400 C 122.812 154.730,122.987 155.270,123.200 155.600 C 123.545 156.133,123.588 156.133,123.588 155.600 C 123.588 155.270,123.413 154.730,123.200 154.400 C 122.855 153.867,122.812 153.867,122.812 154.400 M123.808 157.224 C 124.516 159.456,125.168 160.640,125.184 159.724 C 125.193 159.242,125.020 158.736,124.800 158.600 C 124.580 158.464,124.400 158.014,124.400 157.600 C 124.400 157.186,124.201 156.724,123.957 156.574 C 123.654 156.386,123.607 156.591,123.808 157.224 M196.200 157.200 C 196.050 157.673,196.017 158.150,196.127 158.260 C 196.237 158.370,196.450 158.073,196.600 157.600 C 196.750 157.127,196.783 156.650,196.673 156.540 C 196.563 156.430,196.350 156.727,196.200 157.200 M195.372 159.443 C 195.236 159.859,194.938 160.701,194.709 161.313 C 194.480 161.925,194.386 162.520,194.501 162.635 C 194.616 162.749,195.000 161.993,195.354 160.954 C 195.708 159.915,195.912 158.979,195.808 158.875 C 195.704 158.771,195.508 159.026,195.372 159.443 M125.408 161.624 C 126.116 163.856,126.768 165.040,126.784 164.124 C 126.793 163.642,126.620 163.136,126.400 163.000 C 126.180 162.864,126.000 162.414,126.000 162.000 C 126.000 161.586,125.801 161.124,125.557 160.974 C 125.254 160.786,125.207 160.991,125.408 161.624 M126.800 165.315 C 126.800 165.404,127.356 166.990,128.036 168.838 C 128.715 170.687,129.419 172.650,129.600 173.200 C 129.781 173.750,130.501 175.730,131.200 177.600 C 131.899 179.470,132.614 181.450,132.789 182.000 C 132.963 182.550,133.380 183.720,133.714 184.600 C 134.048 185.480,134.434 186.541,134.570 186.957 C 134.707 187.374,134.905 187.628,135.011 187.522 C 135.180 187.353,134.339 184.852,131.570 177.300 C 131.146 176.145,130.426 174.165,129.968 172.900 C 129.510 171.635,128.970 170.287,128.768 169.905 C 128.566 169.523,128.400 168.859,128.400 168.429 C 128.400 167.999,128.220 167.536,128.000 167.400 C 127.780 167.264,127.600 166.814,127.600 166.400 C 127.600 165.986,127.420 165.536,127.200 165.400 C 126.980 165.264,126.800 165.226,126.800 165.315 M192.973 166.243 C 192.838 166.659,192.582 167.360,192.404 167.800 C 192.226 168.240,191.864 169.230,191.600 170.000 C 191.336 170.770,190.976 171.760,190.800 172.200 C 190.624 172.640,190.264 173.630,190.000 174.400 C 189.736 175.170,189.370 176.160,189.186 176.600 C 189.003 177.040,188.290 179.020,187.600 181.000 C 186.910 182.980,186.196 184.960,186.013 185.400 C 184.771 188.382,182.729 194.462,182.909 194.642 C 183.029 194.762,183.245 194.442,183.389 193.930 C 183.533 193.419,183.802 192.640,183.988 192.200 C 184.583 190.790,185.658 187.853,186.258 186.000 C 186.578 185.010,186.993 183.840,187.180 183.400 C 187.366 182.960,187.736 181.970,188.000 181.200 C 188.264 180.430,188.634 179.440,188.820 179.000 C 189.007 178.560,189.427 177.390,189.753 176.400 C 190.344 174.611,192.298 169.255,193.168 167.045 C 193.418 166.409,193.532 165.798,193.421 165.687 C 193.310 165.576,193.108 165.826,192.973 166.243 M248.315 166.860 C 245.499 167.890,245.414 168.425,245.271 186.200 C 245.112 205.903,245.588 208.504,249.331 208.368 C 250.066 208.342,250.023 208.273,249.050 207.918 C 245.740 206.714,245.605 205.910,245.602 187.446 C 245.599 164.841,243.768 167.040,262.732 166.880 C 278.791 166.744,279.295 166.789,280.868 168.473 C 281.989 169.672,282.427 169.593,281.487 168.361 C 280.051 166.479,279.313 166.398,263.920 166.432 C 255.402 166.450,248.952 166.627,248.315 166.860 M282.028 187.326 C 282.008 199.790,281.866 205.103,281.537 205.718 C 280.904 206.900,280.161 207.599,279.529 207.606 C 279.238 207.609,278.730 207.804,278.400 208.038 C 277.945 208.362,278.090 208.401,279.000 208.203 C 280.628 207.847,281.790 206.677,282.341 204.839 C 282.888 203.013,282.942 171.861,282.400 170.600 C 282.201 170.136,282.044 177.172,282.028 187.326 M135.212 188.400 C 135.212 188.730,135.387 189.270,135.600 189.600 C 135.945 190.133,135.988 190.133,135.988 189.600 C 135.988 189.270,135.813 188.730,135.600 188.400 C 135.255 187.867,135.212 187.867,135.212 188.400 M136.059 190.800 C 136.059 191.130,136.393 192.120,136.800 193.000 C 137.207 193.880,137.541 194.330,137.541 194.000 C 137.541 193.670,137.207 192.680,136.800 191.800 C 136.393 190.920,136.059 190.470,136.059 190.800 M137.659 195.200 C 137.659 195.530,137.993 196.520,138.400 197.400 C 138.807 198.280,139.141 198.730,139.141 198.400 C 139.141 198.070,138.807 197.080,138.400 196.200 C 137.993 195.320,137.659 194.870,137.659 195.200 M181.815 197.015 C 181.430 198.024,181.198 198.932,181.300 199.033 C 181.401 199.135,181.800 198.393,182.185 197.385 C 182.570 196.376,182.802 195.468,182.700 195.367 C 182.599 195.265,182.200 196.007,181.815 197.015 M180.600 200.400 C 180.450 200.873,180.417 201.350,180.527 201.460 C 180.637 201.570,180.850 201.273,181.000 200.800 C 181.150 200.327,181.183 199.850,181.073 199.740 C 180.963 199.630,180.750 199.927,180.600 200.400 M140.004 201.900 C 140.013 202.666,142.485 206.400,143.607 207.345 C 144.853 208.393,145.873 208.766,145.400 208.000 C 145.264 207.780,144.909 207.600,144.612 207.600 C 143.865 207.600,142.144 205.472,141.181 203.359 C 140.438 201.727,139.995 201.178,140.004 201.900 M177.685 206.013 C 177.406 206.460,176.597 207.179,175.889 207.611 C 175.180 208.043,174.752 208.398,174.938 208.399 C 175.587 208.401,177.405 207.125,178.119 206.166 C 178.514 205.635,178.692 205.200,178.515 205.200 C 178.338 205.200,177.964 205.566,177.685 206.013 M153.126 208.700 C 157.155 208.765,163.635 208.765,167.526 208.699 C 171.417 208.634,168.120 208.580,160.200 208.581 C 152.280 208.581,149.097 208.634,153.126 208.700 M257.100 208.699 C 260.895 208.765,267.105 208.765,270.900 208.699 C 274.695 208.634,271.590 208.580,264.000 208.580 C 256.410 208.580,253.305 208.634,257.100 208.699 " stroke="none" fill="#616162" fill-rule="evenodd"></path><path id="path3" d="M247.680 103.394 C 245.754 105.015,245.600 106.485,245.600 123.231 C 245.600 145.789,243.642 143.599,263.809 143.600 L 279.018 143.600 280.509 142.371 L 282.000 141.142 282.000 123.184 L 282.000 105.227 280.587 103.813 L 279.173 102.400 264.017 102.400 L 248.861 102.400 247.680 103.394 M0.000 326.600 L 0.000 400.000 200.000 400.000 L 400.000 400.000 400.000 326.600 L 400.000 253.200 200.000 253.200 L 0.000 253.200 0.000 326.600 M70.200 304.011 C 75.234 305.288,76.906 306.152,76.384 307.209 C 76.224 307.534,75.892 308.295,75.646 308.900 C 74.339 312.122,73.822 312.522,72.095 311.649 C 67.817 309.488,63.600 310.100,63.600 312.882 C 63.600 314.620,64.072 315.045,68.600 317.377 C 72.155 319.208,75.200 321.507,75.200 322.361 C 75.200 322.602,75.380 322.800,75.600 322.800 C 75.820 322.800,76.000 323.149,76.000 323.576 C 76.000 324.003,76.180 324.464,76.400 324.600 C 76.620 324.736,76.800 325.996,76.800 327.400 C 76.800 328.804,76.620 330.064,76.400 330.200 C 76.180 330.336,76.000 330.797,76.000 331.224 C 76.000 331.651,75.820 332.000,75.600 332.000 C 75.380 332.000,75.200 332.201,75.200 332.447 C 75.200 335.766,64.856 337.966,58.434 336.014 C 55.340 335.073,55.212 334.898,55.212 331.600 C 55.212 328.391,55.581 327.657,56.874 328.292 C 57.383 328.542,58.520 328.961,59.400 329.223 C 60.280 329.484,61.313 329.856,61.695 330.049 C 63.278 330.849,67.402 330.462,68.379 329.422 C 70.219 327.463,69.010 325.759,64.051 323.321 C 62.373 322.496,60.820 321.680,60.600 321.506 C 60.380 321.333,59.705 320.820,59.100 320.366 C 55.243 317.475,54.693 310.820,58.000 307.064 C 60.463 304.267,65.874 302.913,70.200 304.011 M203.628 304.162 C 206.911 304.947,208.549 305.849,210.524 307.960 C 212.196 309.747,212.834 310.839,214.010 313.921 C 214.692 315.708,214.706 324.657,214.030 326.445 C 211.147 334.068,207.148 336.800,198.871 336.800 C 196.620 336.800,194.738 336.624,194.600 336.400 C 194.464 336.180,193.932 336.000,193.417 336.000 C 187.197 336.000,182.112 323.724,184.547 314.583 C 186.783 306.186,194.491 301.976,203.628 304.162 M136.508 305.342 C 138.941 306.418,141.376 308.991,141.789 310.923 C 142.354 313.562,142.476 316.484,142.039 316.921 C 141.798 317.162,141.600 317.864,141.600 318.480 C 141.600 319.096,141.420 319.600,141.200 319.600 C 140.980 319.600,140.800 319.852,140.800 320.160 C 140.800 320.888,138.088 323.600,137.360 323.600 C 137.052 323.600,136.800 323.736,136.800 323.903 C 136.800 324.530,133.496 325.200,130.406 325.200 L 127.200 325.200 127.200 330.520 C 127.200 334.124,127.045 335.995,126.720 336.320 C 126.173 336.867,120.895 336.975,120.076 336.455 C 119.307 335.968,118.839 305.917,119.586 305.017 C 120.529 303.881,133.779 304.135,136.508 305.342 M273.881 304.856 C 276.872 306.076,277.486 306.442,278.600 307.674 C 280.505 309.779,280.800 310.598,280.800 313.782 C 280.800 317.720,280.048 319.155,276.435 322.111 C 275.934 322.520,275.687 323.029,275.852 323.311 C 276.009 323.580,277.930 326.443,280.121 329.674 C 282.645 333.395,284.017 335.778,283.865 336.174 C 283.557 336.978,277.303 337.082,276.332 336.300 C 275.525 335.650,273.200 332.182,273.200 331.628 C 273.200 331.393,273.020 331.200,272.800 331.200 C 272.580 331.200,272.400 331.012,272.400 330.782 C 272.400 329.387,268.327 324.400,267.188 324.400 L 266.000 324.400 266.000 329.967 C 266.000 333.029,265.891 335.819,265.757 336.167 C 265.401 337.095,258.999 337.095,258.643 336.167 C 258.311 335.301,258.333 305.000,258.667 304.667 C 259.136 304.197,272.679 304.366,273.881 304.856 M347.117 307.237 C 347.266 310.600,347.085 310.739,342.378 310.884 L 338.600 311.000 338.400 323.800 L 338.200 336.600 334.800 336.600 L 331.400 336.600 331.200 323.800 L 331.000 311.000 326.800 310.800 L 322.600 310.600 322.479 308.042 C 322.291 304.054,321.170 304.374,334.890 304.494 L 347.000 304.600 347.117 307.237 M196.103 310.975 C 190.436 314.109,190.289 326.837,195.888 329.558 C 202.855 332.943,208.408 326.119,206.328 316.731 C 205.164 311.478,200.222 308.696,196.103 310.975 M127.392 311.276 C 127.267 311.601,127.218 313.382,127.283 315.233 L 127.400 318.600 129.939 318.594 C 133.911 318.586,135.978 314.924,133.612 312.087 C 132.637 310.918,127.773 310.284,127.392 311.276 M266.000 314.389 L 266.000 318.093 268.654 317.924 C 275.003 317.520,275.012 311.526,268.665 310.933 L 266.000 310.684 266.000 314.389 " stroke="none" fill="#fd3a00" fill-rule="evenodd"></path><path id="path4" d="M91.324 66.600 C 91.326 67.920,91.401 68.412,91.490 67.693 C 91.579 66.974,91.577 65.894,91.486 65.293 C 91.395 64.692,91.322 65.280,91.324 66.600 M249.057 102.002 C 245.300 103.159,245.200 103.712,245.200 123.294 C 245.200 146.430,243.165 144.200,264.271 144.200 C 284.732 144.200,282.799 146.412,282.799 123.000 C 282.799 99.638,284.666 101.829,264.671 101.725 C 256.712 101.684,249.686 101.808,249.057 102.002 M280.587 103.813 L 282.000 105.227 282.000 123.184 L 282.000 141.142 280.509 142.371 L 279.018 143.600 263.809 143.600 C 243.642 143.599,245.600 145.789,245.600 123.231 C 245.600 106.485,245.754 105.015,247.680 103.394 L 248.861 102.400 264.017 102.400 L 279.173 102.400 280.587 103.813 M257.300 166.299 C 260.985 166.365,267.015 166.365,270.700 166.299 C 274.385 166.233,271.370 166.179,264.000 166.179 C 256.630 166.179,253.615 166.233,257.300 166.299 M63.000 304.162 C 55.397 306.337,53.103 315.870,59.100 320.366 C 59.705 320.820,60.380 321.333,60.600 321.506 C 60.820 321.680,62.373 322.496,64.051 323.321 C 69.010 325.759,70.219 327.463,68.379 329.422 C 67.402 330.462,63.278 330.849,61.695 330.049 C 61.313 329.856,60.280 329.484,59.400 329.223 C 58.520 328.961,57.383 328.542,56.874 328.292 C 55.581 327.657,55.212 328.391,55.212 331.600 C 55.212 334.898,55.340 335.073,58.434 336.014 C 64.856 337.966,75.200 335.766,75.200 332.447 C 75.200 332.201,75.380 332.000,75.600 332.000 C 75.820 332.000,76.000 331.651,76.000 331.224 C 76.000 330.797,76.180 330.336,76.400 330.200 C 76.620 330.064,76.800 328.804,76.800 327.400 C 76.800 325.996,76.620 324.736,76.400 324.600 C 76.180 324.464,76.000 324.003,76.000 323.576 C 76.000 323.149,75.820 322.800,75.600 322.800 C 75.380 322.800,75.200 322.602,75.200 322.361 C 75.200 321.507,72.155 319.208,68.600 317.377 C 64.072 315.045,63.600 314.620,63.600 312.882 C 63.600 310.100,67.817 309.488,72.095 311.649 C 73.822 312.522,74.339 312.122,75.646 308.900 C 75.892 308.295,76.224 307.534,76.384 307.209 C 76.906 306.152,75.234 305.288,70.200 304.011 C 68.191 303.501,65.084 303.566,63.000 304.162 M194.754 304.205 C 187.367 306.230,184.016 311.297,184.005 320.458 C 183.995 328.342,188.633 336.000,193.417 336.000 C 193.932 336.000,194.464 336.180,194.600 336.400 C 194.738 336.624,196.620 336.800,198.871 336.800 C 207.148 336.800,211.147 334.068,214.030 326.445 C 214.706 324.657,214.692 315.708,214.010 313.921 C 211.772 308.055,208.995 305.445,203.628 304.162 C 200.904 303.510,197.225 303.528,194.754 304.205 M202.800 304.652 C 215.034 306.508,218.700 326.726,208.130 334.042 C 199.303 340.151,186.768 335.063,184.831 324.586 C 183.278 316.185,187.557 305.600,192.505 305.600 C 192.814 305.600,193.199 305.465,193.361 305.300 C 193.821 304.831,198.465 304.057,199.800 304.226 C 200.460 304.310,201.810 304.501,202.800 304.652 M73.551 305.563 C 76.220 306.562,76.049 306.278,75.265 308.408 C 74.041 311.737,74.085 311.708,71.591 310.797 C 66.810 309.049,63.018 309.939,63.018 312.809 C 63.018 314.832,63.608 315.390,68.338 317.835 C 82.913 325.370,76.338 339.297,59.855 335.804 C 56.204 335.031,56.000 334.818,56.000 331.775 C 56.000 328.634,56.091 328.582,59.454 329.820 C 68.832 333.271,73.939 327.499,65.212 323.311 C 57.373 319.549,54.667 315.034,56.965 309.549 C 58.912 304.901,66.750 303.017,73.551 305.563 M119.586 305.017 C 118.839 305.917,119.307 335.968,120.076 336.455 C 120.895 336.975,126.173 336.867,126.720 336.320 C 127.045 335.995,127.200 334.124,127.200 330.520 L 127.200 325.200 130.406 325.200 C 133.496 325.200,136.800 324.530,136.800 323.903 C 136.800 323.736,137.052 323.600,137.360 323.600 C 138.088 323.600,140.800 320.888,140.800 320.160 C 140.800 319.852,140.980 319.600,141.200 319.600 C 141.420 319.600,141.600 319.096,141.600 318.480 C 141.600 317.864,141.798 317.162,142.039 316.921 C 142.476 316.484,142.354 313.562,141.789 310.923 C 141.376 308.991,138.941 306.418,136.508 305.342 C 133.779 304.135,120.529 303.881,119.586 305.017 M258.667 304.667 C 258.333 305.000,258.311 335.301,258.643 336.167 C 258.999 337.095,265.401 337.095,265.757 336.167 C 265.891 335.819,266.000 333.029,266.000 329.967 L 266.000 324.400 267.188 324.400 C 268.327 324.400,272.400 329.387,272.400 330.782 C 272.400 331.012,272.580 331.200,272.800 331.200 C 273.020 331.200,273.200 331.393,273.200 331.628 C 273.200 332.182,275.525 335.650,276.332 336.300 C 277.303 337.082,283.557 336.978,283.865 336.174 C 284.017 335.778,282.645 333.395,280.121 329.674 C 277.930 326.443,276.009 323.580,275.852 323.311 C 275.687 323.029,275.934 322.520,276.435 322.111 C 280.048 319.155,280.800 317.720,280.800 313.782 C 280.800 310.598,280.505 309.779,278.600 307.674 C 277.486 306.442,276.872 306.076,273.881 304.856 C 272.679 304.366,259.136 304.197,258.667 304.667 M322.569 304.936 C 322.453 305.238,322.413 306.635,322.479 308.042 L 322.600 310.600 326.901 310.800 C 329.678 310.929,331.155 310.858,331.069 310.600 C 330.995 310.379,329.111 310.149,326.849 310.086 L 322.763 309.972 322.881 307.486 L 323.000 305.000 334.600 305.000 L 346.200 305.000 346.319 307.500 L 346.438 310.000 342.719 310.006 C 337.561 310.015,338.028 308.733,337.906 323.220 L 337.800 335.800 334.708 335.917 L 331.617 336.033 331.495 327.917 L 331.374 319.800 331.387 328.200 L 331.400 336.600 334.800 336.600 L 338.200 336.600 338.400 323.800 L 338.600 311.000 342.378 310.884 C 347.085 310.739,347.266 310.600,347.117 307.237 L 347.000 304.600 334.890 304.494 C 324.932 304.407,322.742 304.486,322.569 304.936 M134.440 305.240 C 139.898 307.004,141.905 309.948,141.505 315.603 C 141.076 321.669,137.924 324.219,130.200 324.752 L 126.600 325.000 126.489 330.517 L 126.377 336.033 123.289 335.917 L 120.200 335.800 120.095 320.801 C 120.037 312.552,120.077 305.577,120.182 305.301 C 120.432 304.652,132.461 304.600,134.440 305.240 M274.709 305.788 C 281.566 308.191,282.510 317.453,276.300 321.394 C 275.695 321.778,275.200 322.388,275.200 322.749 C 275.200 323.394,280.422 331.515,282.261 333.731 C 283.904 335.709,283.596 336.000,279.859 336.000 L 276.517 336.000 274.659 333.205 C 273.636 331.667,272.800 330.309,272.800 330.187 C 272.800 328.618,268.619 324.000,267.199 324.000 L 265.621 324.000 265.511 329.900 L 265.400 335.800 262.200 335.800 L 259.000 335.800 258.895 320.267 L 258.791 304.734 265.695 304.892 C 271.076 305.015,273.066 305.213,274.709 305.788 M127.077 310.581 C 126.290 311.367,126.096 317.484,126.814 318.826 C 128.035 321.108,133.942 319.020,134.851 315.986 C 136.023 312.076,129.864 307.793,127.077 310.581 M195.800 310.467 C 189.826 313.771,189.728 327.005,195.656 330.029 C 203.107 333.830,209.679 325.077,206.621 315.426 C 205.170 310.845,199.672 308.326,195.800 310.467 M265.867 310.267 C 265.720 310.413,265.600 312.393,265.600 314.667 L 265.600 318.800 267.023 318.800 C 274.041 318.800,276.559 312.174,270.200 310.441 C 268.401 309.950,266.269 309.865,265.867 310.267 M202.490 310.900 C 208.114 314.099,208.254 326.594,202.700 329.559 C 195.191 333.567,188.866 323.517,193.019 314.179 C 194.424 311.021,199.570 309.239,202.490 310.900 M133.612 312.087 C 135.978 314.924,133.911 318.586,129.939 318.594 L 127.400 318.600 127.283 315.233 C 127.121 310.591,127.089 310.637,130.235 310.930 C 132.287 311.122,133.016 311.372,133.612 312.087 M272.265 312.061 C 274.763 314.407,272.758 317.663,268.654 317.924 L 266.000 318.093 266.000 314.389 L 266.000 310.684 268.665 310.933 C 270.624 311.116,271.577 311.414,272.265 312.061 " stroke="none" fill="#fd835f" fill-rule="evenodd"></path></g></svg>