<svg id="svg" version="1.1" width="400" height="400" viewBox="0 0 400 400" xmlns="http://www.w3.org/2000/svg" xmlns:xlink="http://www.w3.org/1999/xlink" ><g id="svgg"><path id="path0" d="M108.135 71.964 C 104.787 72.528,104.516 73.650,106.499 78.746 C 107.484 81.280,108.301 82.614,109.865 84.246 L 111.931 86.400 134.668 86.400 L 157.405 86.400 158.002 85.100 C 159.714 81.376,158.345 73.859,155.718 72.554 C 154.128 71.764,112.398 71.247,108.135 71.964 M245.764 72.043 C 242.757 72.739,241.940 74.181,241.428 79.700 C 241.266 81.445,241.323 82.400,241.589 82.400 C 241.815 82.400,242.000 83.002,242.000 83.738 C 242.000 86.518,240.949 86.400,265.740 86.400 L 288.017 86.400 289.978 84.459 C 291.889 82.569,292.490 81.526,294.047 77.406 C 295.111 74.588,295.029 73.369,293.718 72.509 C 292.478 71.696,249.084 71.275,245.764 72.043 M144.200 234.400 C 144.477 234.848,144.729 235.788,148.220 249.400 C 149.631 254.900,152.143 264.620,153.802 271.000 C 155.461 277.380,157.703 286.020,158.783 290.200 C 168.679 328.484,167.954 326.114,170.325 327.923 L 171.738 329.000 200.000 329.000 L 228.262 329.000 229.774 327.847 C 231.884 326.237,232.195 325.351,236.452 308.800 C 238.610 300.409,240.654 292.518,243.757 280.600 C 245.188 275.100,246.987 268.170,247.755 265.200 C 251.327 251.369,253.339 243.571,253.999 241.000 C 254.394 239.460,254.980 237.255,255.300 236.100 L 255.883 234.000 253.641 234.000 C 252.409 234.001,250.140 234.264,248.599 234.585 C 244.390 235.463,234.570 237.001,229.400 237.592 C 218.584 238.829,214.890 239.000,199.000 239.000 C 188.230 239.000,180.334 238.815,177.000 238.484 C 174.140 238.200,170.900 237.884,169.800 237.782 C 167.813 237.597,164.210 237.083,160.000 236.385 C 148.425 234.464,143.887 233.894,144.200 234.400 " stroke="none" fill="#2ce3fb" fill-rule="evenodd"></path><path id="path1" d="M94.000 64.872 C 94.000 65.457,94.777 67.961,95.249 68.895 C 95.442 69.277,95.600 70.031,95.600 70.571 C 95.600 71.111,95.780 71.664,96.000 71.800 C 96.220 71.936,96.400 72.566,96.400 73.200 C 96.400 73.834,96.580 74.464,96.800 74.600 C 97.020 74.736,97.200 75.377,97.200 76.024 C 97.200 76.671,97.400 77.200,97.645 77.200 C 97.953 77.200,97.983 76.740,97.745 75.700 C 96.159 68.795,98.032 65.871,104.800 64.684 C 105.350 64.588,103.145 64.484,99.900 64.454 C 95.605 64.415,94.000 64.528,94.000 64.872 M156.277 65.002 C 161.025 66.034,162.853 67.489,164.411 71.477 C 165.342 73.859,165.450 72.637,164.622 69.082 C 164.305 67.717,163.941 66.105,163.815 65.500 L 163.585 64.400 158.692 64.432 L 153.800 64.464 156.277 65.002 M236.033 66.420 C 235.795 67.531,235.600 68.870,235.600 69.396 C 235.600 69.922,235.420 70.464,235.200 70.600 C 234.980 70.736,234.800 71.456,234.800 72.200 C 234.800 72.944,234.620 73.664,234.400 73.800 C 234.180 73.936,234.012 74.622,234.026 75.324 C 234.046 76.281,234.297 75.803,235.028 73.417 C 236.735 67.845,238.505 66.138,243.755 64.995 L 246.200 64.464 241.333 64.432 L 236.466 64.400 236.033 66.420 M295.200 64.684 C 302.301 65.929,304.075 68.824,302.197 76.100 C 302.014 76.809,302.071 77.200,302.357 77.200 C 302.600 77.200,302.800 76.671,302.800 76.024 C 302.800 75.377,302.980 74.736,303.200 74.600 C 303.420 74.464,303.600 73.911,303.600 73.371 C 303.600 72.831,303.762 72.077,303.961 71.695 C 304.160 71.313,304.537 70.190,304.800 69.200 C 305.063 68.210,305.440 67.087,305.639 66.705 C 306.776 64.518,306.475 64.396,300.100 64.454 C 296.855 64.484,294.650 64.588,295.200 64.684 M165.416 74.666 C 165.553 75.290,165.820 76.250,166.010 76.800 C 166.200 77.350,166.434 78.160,166.531 78.600 C 166.641 79.097,166.725 78.917,166.754 78.124 C 166.779 77.422,166.620 76.736,166.400 76.600 C 166.180 76.464,166.000 75.834,166.000 75.200 C 166.000 74.566,165.813 73.932,165.584 73.790 C 165.313 73.623,165.255 73.929,165.416 74.666 M233.200 78.176 C 233.200 78.933,233.020 79.664,232.800 79.800 C 232.580 79.936,232.400 80.566,232.400 81.200 C 232.400 81.834,232.240 82.452,232.044 82.573 C 231.849 82.694,231.592 83.379,231.473 84.096 C 231.209 85.693,230.072 90.348,229.249 93.200 C 228.461 95.930,227.942 97.818,227.600 99.200 C 227.409 99.970,227.044 101.320,226.789 102.200 C 226.534 103.080,226.232 104.387,226.119 105.104 C 226.005 105.821,225.751 106.506,225.556 106.627 C 225.360 106.748,225.200 107.366,225.200 108.000 C 225.200 108.634,225.020 109.264,224.800 109.400 C 224.580 109.536,224.400 110.166,224.400 110.800 C 224.400 111.434,224.220 112.064,224.000 112.200 C 223.780 112.336,223.600 112.829,223.600 113.295 C 223.600 113.762,223.432 114.696,223.227 115.372 C 223.022 116.047,222.638 117.410,222.373 118.400 C 222.108 119.390,221.737 120.740,221.547 121.400 C 221.357 122.060,220.100 126.830,218.754 132.000 C 217.407 137.170,215.415 144.640,214.328 148.600 C 213.240 152.560,211.806 157.870,211.140 160.400 C 210.474 162.930,209.777 165.540,209.592 166.200 C 209.407 166.860,208.897 168.750,208.460 170.400 C 208.023 172.050,207.112 175.470,206.436 178.000 C 205.760 180.530,204.342 185.933,203.285 190.007 C 201.162 198.186,201.078 198.400,200.000 198.400 C 199.002 198.400,198.910 198.210,197.810 193.902 C 197.291 191.866,196.411 188.490,195.857 186.400 C 192.805 174.906,191.144 168.694,189.602 163.000 C 188.886 160.360,187.717 156.040,187.004 153.400 C 186.291 150.760,185.234 146.845,184.654 144.700 C 182.008 134.908,179.156 123.999,178.929 122.800 C 178.825 122.250,178.587 121.440,178.400 121.000 C 178.042 120.156,177.685 118.659,177.327 116.496 C 177.209 115.779,176.951 115.094,176.756 114.973 C 176.560 114.852,176.400 114.234,176.400 113.600 C 176.400 112.966,176.240 112.348,176.044 112.227 C 175.849 112.106,175.595 111.421,175.481 110.704 C 175.368 109.987,175.078 108.725,174.837 107.900 C 173.980 104.960,173.542 103.381,173.200 102.000 C 173.009 101.230,172.671 99.970,172.449 99.200 C 170.943 93.982,168.729 85.485,168.514 84.096 C 168.403 83.379,168.151 82.694,167.956 82.573 C 167.760 82.452,167.600 81.834,167.600 81.200 C 167.600 80.566,167.420 79.936,167.200 79.800 C 166.711 79.498,166.712 79.759,167.208 81.800 C 167.423 82.680,167.877 84.750,168.219 86.400 C 168.561 88.050,169.271 91.200,169.796 93.400 C 175.408 116.909,180.620 140.945,184.367 160.600 C 185.038 164.120,185.765 167.900,185.984 169.000 C 186.202 170.100,186.573 172.530,186.808 174.400 C 188.269 186.012,188.366 191.959,187.111 192.864 C 186.720 193.146,186.400 193.697,186.400 194.088 C 186.400 194.762,185.200 194.800,163.833 194.800 C 146.158 194.800,141.231 194.908,141.100 195.299 C 140.888 195.935,138.000 194.463,138.000 193.718 C 138.000 193.443,137.549 192.923,136.997 192.561 C 136.110 191.980,132.400 186.031,132.400 185.190 C 132.400 185.012,131.964 183.996,131.431 182.933 C 127.837 175.760,117.320 143.708,108.223 112.200 C 107.016 108.020,105.138 101.540,104.049 97.800 C 102.960 94.060,101.199 87.940,100.135 84.200 C 98.631 78.915,98.171 77.709,98.068 78.789 C 97.995 79.553,98.130 80.243,98.368 80.323 C 98.606 80.402,98.800 81.071,98.800 81.810 C 98.800 82.548,98.980 83.264,99.200 83.400 C 99.420 83.536,99.600 84.029,99.600 84.495 C 99.600 84.962,99.782 85.896,100.005 86.572 C 100.228 87.247,101.402 91.940,102.613 97.000 C 103.825 102.060,105.102 107.280,105.451 108.600 C 105.799 109.920,106.168 111.540,106.269 112.200 C 106.371 112.860,106.609 113.760,106.797 114.200 C 106.986 114.640,107.251 115.540,107.388 116.200 C 107.689 117.660,108.194 119.662,108.800 121.800 C 109.049 122.680,109.402 124.030,109.585 124.800 C 109.767 125.570,111.839 133.760,114.189 143.000 C 116.540 152.240,118.611 160.430,118.793 161.200 C 119.084 162.437,120.444 167.887,123.833 181.400 C 129.297 203.186,131.511 212.057,133.616 220.600 C 134.971 226.100,136.387 231.140,136.762 231.800 L 137.445 233.000 142.256 233.055 C 146.539 233.104,148.631 233.366,156.200 234.801 C 159.130 235.357,172.193 237.042,178.200 237.639 C 184.962 238.311,213.244 238.309,219.600 237.637 C 226.581 236.898,233.796 236.006,237.800 235.387 C 241.398 234.830,242.645 234.614,249.400 233.374 C 252.047 232.888,254.233 232.771,257.658 232.934 C 264.022 233.238,262.505 236.529,269.979 206.200 C 271.821 198.721,280.465 164.428,287.068 138.400 C 289.607 128.390,291.776 119.613,291.887 118.896 C 291.998 118.179,292.249 117.494,292.444 117.373 C 292.640 117.252,292.800 116.544,292.800 115.800 C 292.800 115.056,292.980 114.336,293.200 114.200 C 293.420 114.064,293.600 113.571,293.600 113.105 C 293.600 112.638,293.768 111.704,293.973 111.028 C 294.543 109.149,295.096 106.946,295.988 103.000 C 296.436 101.020,296.974 98.770,297.185 98.000 C 297.637 96.345,298.560 92.641,299.627 88.200 C 300.049 86.440,300.576 84.447,300.797 83.772 C 301.019 83.096,301.200 82.076,301.200 81.505 C 301.200 80.934,301.394 80.402,301.632 80.323 C 301.870 80.243,302.005 79.555,301.932 78.793 C 301.835 77.773,300.968 80.361,298.646 88.604 C 296.911 94.762,295.264 100.520,294.985 101.400 C 294.707 102.280,293.357 106.870,291.986 111.600 C 283.095 142.264,272.597 174.397,268.726 182.800 C 265.462 189.885,264.178 192.117,263.144 192.499 C 262.693 192.666,262.242 193.119,262.140 193.506 C 261.911 194.384,259.483 195.848,259.278 195.233 C 259.176 194.929,252.331 194.800,236.367 194.800 C 215.574 194.800,213.600 194.743,213.600 194.147 C 213.600 193.788,213.250 193.190,212.822 192.819 C 212.106 192.198,212.053 191.676,212.162 186.372 C 212.275 180.900,212.462 179.149,213.845 170.600 C 215.943 157.633,223.770 120.577,229.349 97.200 C 229.900 94.890,230.734 91.290,231.201 89.200 C 231.669 87.110,232.403 83.870,232.833 82.000 C 233.262 80.130,233.704 78.195,233.814 77.700 C 233.925 77.205,233.832 76.800,233.608 76.800 C 233.383 76.800,233.200 77.419,233.200 78.176 M162.816 329.076 C 162.807 329.778,162.956 330.449,163.147 330.567 C 163.338 330.685,163.587 331.611,163.702 332.626 C 163.984 335.131,164.201 335.261,167.582 334.947 L 170.505 334.675 168.527 333.938 C 166.289 333.103,164.777 331.699,163.623 329.385 L 162.832 327.800 162.816 329.076 M236.704 328.811 C 236.206 330.642,233.717 333.100,231.537 333.914 L 229.495 334.675 232.377 334.943 C 235.782 335.260,235.897 335.210,236.215 333.286 C 236.350 332.469,236.642 331.322,236.863 330.738 C 237.084 330.154,237.201 329.254,237.122 328.738 L 236.979 327.800 236.704 328.811 " stroke="none" fill="#aef2fa" fill-rule="evenodd"></path><path id="path2" d="M104.800 64.676 C 98.107 65.906,96.133 68.686,97.604 74.815 C 97.986 76.410,97.992 76.958,97.628 77.183 C 97.316 77.376,97.258 77.874,97.459 78.638 L 97.765 79.800 97.987 78.600 C 98.163 77.649,98.608 78.809,100.139 84.200 C 101.201 87.940,102.960 94.060,104.049 97.800 C 105.138 101.540,107.016 108.020,108.223 112.200 C 117.320 143.708,127.837 175.760,131.431 182.933 C 131.964 183.996,132.400 185.012,132.400 185.190 C 132.400 186.031,136.110 191.980,136.997 192.561 C 137.549 192.923,138.000 193.443,138.000 193.718 C 138.000 194.463,140.888 195.935,141.100 195.299 C 141.231 194.908,146.158 194.800,163.833 194.800 C 185.200 194.800,186.400 194.762,186.400 194.088 C 186.400 193.697,186.720 193.146,187.111 192.864 C 188.366 191.959,188.269 186.012,186.808 174.400 C 186.573 172.530,186.202 170.100,185.984 169.000 C 185.765 167.900,185.038 164.120,184.367 160.600 C 180.620 140.945,175.408 116.909,169.796 93.400 C 169.271 91.200,168.561 88.050,168.219 86.400 C 167.877 84.750,167.423 82.680,167.208 81.800 C 166.712 79.759,166.711 79.498,167.200 79.800 C 167.420 79.936,167.600 80.566,167.600 81.200 C 167.600 81.834,167.760 82.452,167.956 82.573 C 168.151 82.694,168.399 83.379,168.506 84.096 C 168.742 85.673,171.103 94.762,172.014 97.600 C 172.190 98.150,172.448 99.116,172.587 99.747 C 172.726 100.378,172.931 100.803,173.043 100.691 C 173.252 100.481,169.700 86.560,166.538 75.200 C 166.201 73.990,165.748 72.235,165.530 71.300 C 165.007 69.047,164.765 69.142,165.023 71.500 L 165.230 73.400 164.370 71.255 C 163.185 68.297,161.111 66.334,158.178 65.393 C 155.897 64.661,108.356 64.022,104.800 64.676 M243.755 64.987 C 238.493 66.150,236.734 67.849,235.028 73.417 C 234.297 75.803,234.046 76.281,234.026 75.324 C 234.012 74.622,234.180 73.936,234.400 73.800 C 234.620 73.664,234.800 72.969,234.800 72.256 C 234.800 71.543,234.994 70.766,235.231 70.529 C 235.468 70.292,235.603 69.583,235.531 68.954 C 235.441 68.167,235.050 69.177,234.276 72.198 C 233.556 75.011,233.304 76.635,233.576 76.725 C 233.808 76.803,233.912 77.256,233.806 77.733 C 233.700 78.210,233.262 80.130,232.833 82.000 C 232.403 83.870,231.669 87.110,231.201 89.200 C 230.734 91.290,229.900 94.890,229.349 97.200 C 223.770 120.577,215.943 157.633,213.845 170.600 C 212.462 179.149,212.275 180.900,212.162 186.372 C 212.053 191.676,212.106 192.198,212.822 192.819 C 213.250 193.190,213.600 193.788,213.600 194.147 C 213.600 194.743,215.574 194.800,236.367 194.800 C 252.331 194.800,259.176 194.929,259.278 195.233 C 259.483 195.848,261.911 194.384,262.140 193.506 C 262.242 193.119,262.693 192.666,263.144 192.499 C 264.178 192.117,265.462 189.885,268.726 182.800 C 272.597 174.397,283.095 142.264,291.986 111.600 C 293.357 106.870,294.707 102.280,294.985 101.400 C 295.264 100.520,296.911 94.762,298.646 88.604 C 301.032 80.133,301.836 77.747,301.948 78.804 C 302.087 80.119,302.139 80.049,302.846 77.600 C 303.709 74.612,303.750 74.260,303.200 74.600 C 302.980 74.736,302.800 75.377,302.800 76.024 C 302.800 76.671,302.600 77.200,302.357 77.200 C 302.071 77.200,302.014 76.809,302.197 76.100 C 303.785 69.948,302.636 66.824,298.236 65.332 C 295.467 64.394,247.806 64.092,243.755 64.987 M164.068 66.800 C 164.088 67.839,164.718 69.546,164.732 68.600 C 164.738 68.160,164.589 67.440,164.400 67.000 C 164.189 66.510,164.061 66.432,164.068 66.800 M158.200 68.462 C 161.552 70.311,162.143 71.849,165.217 86.715 C 169.515 107.508,171.046 116.020,171.811 123.386 C 171.948 124.698,172.125 125.879,172.207 126.011 C 172.626 126.689,172.502 134.566,172.070 134.710 C 171.811 134.796,171.600 135.176,171.600 135.553 C 171.600 137.197,171.553 137.200,147.620 137.199 L 124.600 137.199 122.784 135.299 C 118.738 131.067,114.355 119.893,104.465 88.600 C 98.803 70.686,98.784 69.233,104.200 67.879 C 106.636 67.270,157.025 67.814,158.200 68.462 M296.725 68.215 C 301.134 69.524,300.960 72.339,295.438 89.000 C 294.709 91.200,293.442 95.160,292.624 97.800 C 288.012 112.680,283.489 124.915,280.976 129.309 C 280.445 130.239,280.007 131.315,280.005 131.700 C 280.002 132.085,279.820 132.400,279.600 132.400 C 279.380 132.400,279.200 132.608,279.200 132.863 C 279.200 133.118,278.345 134.198,277.300 135.263 L 275.400 137.199 252.471 137.199 C 228.243 137.200,228.400 137.212,228.400 135.429 C 228.400 135.083,228.220 134.800,228.000 134.800 C 227.484 134.800,227.473 127.896,227.985 124.646 C 228.197 123.301,228.578 120.580,228.831 118.600 C 229.371 114.392,230.477 108.406,233.266 94.600 C 234.378 89.100,235.522 83.430,235.809 82.000 C 237.833 71.923,239.144 69.356,242.857 68.197 C 245.606 67.340,293.832 67.356,296.725 68.215 M94.828 69.076 C 94.918 70.115,95.544 70.996,95.572 70.124 C 95.587 69.642,95.420 69.136,95.200 69.000 C 94.980 68.864,94.813 68.898,94.828 69.076 M95.628 71.876 C 95.718 72.915,96.344 73.796,96.372 72.924 C 96.387 72.442,96.220 71.936,96.000 71.800 C 95.780 71.664,95.613 71.698,95.628 71.876 M303.867 71.867 C 303.720 72.013,303.615 72.598,303.634 73.167 C 303.668 74.181,303.675 74.179,304.021 73.020 C 304.385 71.803,304.331 71.402,303.867 71.867 M166.000 75.200 C 166.000 75.834,166.180 76.464,166.400 76.600 C 166.620 76.736,166.779 77.422,166.754 78.124 C 166.725 78.917,166.641 79.097,166.531 78.600 C 166.434 78.160,166.200 77.350,166.010 76.800 C 165.342 74.865,165.152 73.523,165.584 73.790 C 165.813 73.932,166.000 74.566,166.000 75.200 M96.640 75.466 C 97.008 76.999,97.200 77.144,97.200 75.890 C 97.200 75.317,97.013 74.732,96.784 74.590 C 96.511 74.421,96.462 74.723,96.640 75.466 M232.300 79.674 C 231.485 82.769,231.468 82.929,232.000 82.600 C 232.220 82.464,232.400 81.859,232.400 81.256 C 232.400 80.653,232.594 79.966,232.831 79.729 C 233.068 79.492,233.203 78.784,233.131 78.157 C 233.028 77.258,232.851 77.581,232.300 79.674 M98.091 80.900 C 98.188 81.175,99.685 87.137,101.417 94.149 C 103.150 101.161,104.627 106.719,104.700 106.501 C 104.830 106.109,100.786 88.941,100.005 86.572 C 99.782 85.896,99.600 84.962,99.600 84.495 C 99.600 84.029,99.420 83.536,99.200 83.400 C 98.980 83.264,98.800 82.533,98.800 81.776 C 98.800 81.019,98.601 80.400,98.357 80.400 C 98.114 80.400,97.994 80.625,98.091 80.900 M301.200 81.626 C 301.200 82.301,301.041 83.156,300.846 83.526 C 300.652 83.897,300.384 85.010,300.251 86.000 C 300.041 87.570,300.062 87.646,300.417 86.600 C 301.746 82.679,302.192 80.400,301.632 80.400 C 301.394 80.400,301.200 80.952,301.200 81.626 M230.229 87.433 C 229.610 89.835,228.517 93.960,227.802 96.600 C 226.369 101.882,225.767 104.716,226.357 103.400 C 226.689 102.658,227.007 101.552,228.079 97.400 C 228.307 96.520,228.631 95.350,228.800 94.800 C 229.128 93.731,229.750 91.400,230.400 88.800 C 230.620 87.920,231.002 86.501,231.249 85.646 C 231.496 84.792,231.621 83.862,231.526 83.579 C 231.432 83.297,230.849 85.031,230.229 87.433 M299.400 89.200 C 299.248 89.891,299.214 90.547,299.324 90.657 C 299.434 90.767,299.648 90.291,299.800 89.600 C 299.952 88.909,299.986 88.253,299.876 88.143 C 299.766 88.033,299.552 88.509,299.400 89.200 M298.671 91.870 C 298.559 92.271,298.251 93.590,297.985 94.800 C 297.718 96.010,297.357 97.450,297.181 98.000 C 296.556 99.951,295.913 103.246,296.117 103.450 C 296.231 103.564,296.442 103.059,296.587 102.329 C 296.732 101.598,297.003 100.550,297.191 100.000 C 297.844 98.084,299.265 91.532,299.070 91.337 C 298.962 91.228,298.782 91.468,298.671 91.870 M173.231 101.881 C 173.214 102.366,173.368 103.176,173.572 103.681 C 173.777 104.187,174.069 105.140,174.222 105.800 C 174.374 106.460,174.566 106.820,174.648 106.600 C 174.730 106.380,174.451 105.030,174.029 103.600 C 173.607 102.170,173.247 101.397,173.231 101.881 M295.422 105.129 C 295.258 105.859,295.222 106.556,295.342 106.676 C 295.643 106.977,296.120 104.956,295.899 104.317 C 295.801 104.033,295.586 104.398,295.422 105.129 M225.462 105.347 C 225.297 105.978,225.256 106.589,225.371 106.704 C 225.693 107.027,226.087 105.738,225.915 104.923 C 225.803 104.390,225.684 104.501,225.462 105.347 M104.834 107.800 C 104.822 108.240,104.987 108.870,105.200 109.200 C 105.714 109.995,105.714 108.996,105.200 107.800 L 104.856 107.000 104.834 107.800 M174.806 107.833 C 174.809 108.255,174.995 108.870,175.218 109.200 C 175.515 109.638,175.552 109.476,175.356 108.600 C 175.027 107.129,174.798 106.810,174.806 107.833 M224.846 107.867 C 224.821 108.124,224.684 108.664,224.541 109.067 C 224.340 109.636,224.394 109.697,224.779 109.342 C 225.052 109.091,225.189 108.551,225.084 108.142 C 224.979 107.734,224.872 107.610,224.846 107.867 M294.673 108.153 C 294.523 108.545,294.411 109.166,294.425 109.533 C 294.442 109.975,294.581 109.874,294.837 109.234 C 295.049 108.703,295.161 108.082,295.085 107.854 C 295.009 107.627,294.824 107.761,294.673 108.153 M105.634 110.800 C 105.646 111.130,105.811 111.760,106.000 112.200 L 106.344 113.000 106.366 112.200 C 106.378 111.760,106.213 111.130,106.000 110.800 C 105.655 110.267,105.615 110.267,105.634 110.800 M175.628 111.076 C 175.613 111.558,175.780 112.064,176.000 112.200 C 176.473 112.492,176.473 112.101,176.000 111.000 C 175.669 110.229,175.655 110.231,175.628 111.076 M224.046 110.667 C 224.021 110.924,223.884 111.464,223.741 111.867 C 223.540 112.436,223.594 112.497,223.979 112.142 C 224.252 111.891,224.389 111.351,224.284 110.942 C 224.179 110.534,224.072 110.410,224.046 110.667 M293.800 111.600 C 293.650 112.073,293.617 112.550,293.727 112.660 C 293.837 112.770,294.050 112.473,294.200 112.000 C 294.350 111.527,294.383 111.050,294.273 110.940 C 294.163 110.830,293.950 111.127,293.800 111.600 M176.428 113.876 C 176.413 114.358,176.580 114.864,176.800 115.000 C 177.273 115.292,177.273 114.901,176.800 113.800 C 176.469 113.029,176.455 113.031,176.428 113.876 M223.000 114.400 C 222.850 114.873,222.817 115.350,222.927 115.460 C 223.037 115.570,223.250 115.273,223.400 114.800 C 223.550 114.327,223.583 113.850,223.473 113.740 C 223.363 113.630,223.150 113.927,223.000 114.400 M106.428 114.276 C 106.518 115.315,107.144 116.196,107.172 115.324 C 107.187 114.842,107.020 114.336,106.800 114.200 C 106.580 114.064,106.413 114.098,106.428 114.276 M293.067 114.267 C 292.920 114.413,292.811 114.908,292.825 115.367 C 292.849 116.133,292.882 116.123,293.234 115.242 C 293.626 114.263,293.544 113.789,293.067 114.267 M177.212 116.800 C 177.212 117.130,177.387 117.670,177.600 118.000 C 177.945 118.533,177.988 118.533,177.988 118.000 C 177.988 117.670,177.813 117.130,177.600 116.800 C 177.255 116.267,177.212 116.267,177.212 116.800 M222.229 117.429 C 222.081 118.015,222.051 118.584,222.161 118.694 C 222.271 118.804,222.481 118.415,222.629 117.829 C 222.776 117.242,222.806 116.673,222.696 116.563 C 222.586 116.453,222.376 116.842,222.229 117.429 M107.234 117.200 C 107.246 117.530,107.411 118.160,107.600 118.600 L 107.944 119.400 107.966 118.600 C 107.978 118.160,107.813 117.530,107.600 117.200 C 107.255 116.667,107.215 116.667,107.234 117.200 M292.267 117.467 C 292.120 117.613,292.011 118.108,292.025 118.567 C 292.049 119.333,292.082 119.323,292.434 118.442 C 292.826 117.463,292.744 116.989,292.267 117.467 M178.028 119.876 C 178.013 120.358,178.180 120.864,178.400 121.000 C 178.873 121.292,178.873 120.901,178.400 119.800 C 178.069 119.029,178.055 119.031,178.028 119.876 M221.400 120.400 C 221.250 120.873,221.217 121.350,221.327 121.460 C 221.437 121.570,221.650 121.273,221.800 120.800 C 221.950 120.327,221.983 119.850,221.873 119.740 C 221.763 119.630,221.550 119.927,221.400 120.400 M108.244 121.000 C 108.573 122.471,108.802 122.790,108.794 121.767 C 108.791 121.345,108.605 120.730,108.382 120.400 C 108.085 119.962,108.048 120.124,108.244 121.000 M291.473 120.670 C 290.488 124.263,289.540 128.474,289.684 128.617 C 289.781 128.714,290.337 126.870,290.919 124.519 C 291.500 122.167,291.908 120.175,291.825 120.091 C 291.741 120.008,291.583 120.268,291.473 120.670 M178.834 122.600 C 178.822 123.040,178.987 123.670,179.200 124.000 C 179.714 124.795,179.714 123.796,179.200 122.600 L 178.856 121.800 178.834 122.600 M220.679 123.070 C 219.708 126.730,219.517 127.650,219.693 127.826 C 219.804 127.938,220.197 126.830,220.565 125.365 C 220.933 123.899,221.153 122.619,221.053 122.520 C 220.954 122.421,220.786 122.668,220.679 123.070 M108.846 123.200 C 108.865 123.530,109.024 124.250,109.200 124.800 L 109.520 125.800 109.554 124.800 C 109.573 124.250,109.413 123.530,109.200 123.200 C 108.855 122.667,108.816 122.667,108.846 123.200 M179.656 125.600 C 179.656 125.930,179.811 126.560,180.000 127.000 C 180.217 127.504,180.344 127.578,180.344 127.200 C 180.344 126.870,180.189 126.240,180.000 125.800 C 179.783 125.296,179.656 125.222,179.656 125.600 M109.600 126.149 C 109.600 126.687,114.434 145.767,114.617 145.950 C 114.991 146.325,114.741 145.185,112.393 135.829 C 110.296 127.469,109.600 125.058,109.600 126.149 M180.456 128.600 C 180.456 129.040,180.611 129.760,180.800 130.200 L 181.144 131.000 181.144 130.200 C 181.144 129.760,180.989 129.040,180.800 128.600 L 180.456 127.800 180.456 128.600 M218.978 129.453 C 218.835 130.084,218.397 131.770,218.006 133.200 C 216.553 138.499,216.294 139.627,216.484 139.818 C 216.592 139.925,217.349 137.472,218.167 134.367 C 218.985 131.261,219.561 128.627,219.446 128.513 C 219.332 128.399,219.122 128.822,218.978 129.453 M287.223 137.623 C 286.084 142.278,285.225 146.158,285.312 146.246 C 285.400 146.334,286.413 142.606,287.562 137.962 C 288.712 133.319,289.571 129.438,289.472 129.339 C 289.374 129.240,288.361 132.968,287.223 137.623 M181.200 131.386 C 181.200 131.895,184.048 142.581,184.233 142.766 C 184.619 143.153,184.321 141.730,182.963 136.711 C 181.654 131.874,181.200 130.502,181.200 131.386 M215.412 143.012 C 215.021 144.455,214.786 145.720,214.890 145.823 C 214.993 145.927,215.398 144.831,215.788 143.388 C 216.179 141.945,216.414 140.680,216.310 140.577 C 216.207 140.473,215.802 141.569,215.412 143.012 M184.442 143.600 C 184.425 143.930,184.752 145.280,185.169 146.600 C 185.586 147.920,185.941 148.730,185.958 148.400 C 185.975 148.070,185.648 146.720,185.231 145.400 C 184.814 144.080,184.459 143.270,184.442 143.600 M114.868 147.000 C 114.862 147.440,115.011 148.160,115.200 148.600 C 115.638 149.619,115.638 148.568,115.200 147.200 C 114.943 146.396,114.877 146.357,114.868 147.000 M214.200 147.600 C 214.048 148.291,214.007 148.941,214.109 149.042 C 214.211 149.144,214.409 148.653,214.550 147.950 C 214.883 146.283,214.560 145.960,214.200 147.600 M284.629 147.829 C 284.481 148.415,284.451 148.984,284.561 149.094 C 284.671 149.204,284.881 148.815,285.029 148.229 C 285.176 147.642,285.206 147.073,285.096 146.963 C 284.986 146.853,284.776 147.242,284.629 147.829 M186.056 149.600 C 186.056 149.930,186.211 150.560,186.400 151.000 C 186.617 151.504,186.744 151.578,186.744 151.200 C 186.744 150.870,186.589 150.240,186.400 149.800 C 186.183 149.296,186.056 149.222,186.056 149.600 M115.668 150.200 C 115.662 150.640,115.811 151.360,116.000 151.800 C 116.438 152.819,116.438 151.768,116.000 150.400 C 115.743 149.596,115.677 149.557,115.668 150.200 M213.473 150.153 C 213.323 150.545,213.211 151.166,213.225 151.533 C 213.242 151.975,213.381 151.874,213.637 151.234 C 213.849 150.703,213.961 150.082,213.885 149.854 C 213.809 149.627,213.624 149.761,213.473 150.153 M283.829 151.029 C 283.681 151.615,283.651 152.184,283.761 152.294 C 283.871 152.404,284.081 152.015,284.229 151.429 C 284.376 150.842,284.406 150.273,284.296 150.163 C 284.186 150.053,283.976 150.442,283.829 151.029 M186.856 152.600 C 186.856 153.040,187.011 153.760,187.200 154.200 L 187.544 155.000 187.544 154.200 C 187.544 153.760,187.389 153.040,187.200 152.600 L 186.856 151.800 186.856 152.600 M212.673 152.953 C 212.523 153.345,212.411 153.966,212.425 154.333 C 212.442 154.775,212.581 154.674,212.837 154.034 C 213.049 153.503,213.161 152.882,213.085 152.654 C 213.009 152.427,212.824 152.561,212.673 152.953 M116.456 153.400 C 116.456 153.840,116.611 154.560,116.800 155.000 L 117.144 155.800 117.144 155.000 C 117.144 154.560,116.989 153.840,116.800 153.400 L 116.456 152.600 116.456 153.400 M283.029 154.229 C 282.881 154.815,282.838 155.372,282.932 155.466 C 283.027 155.560,283.224 155.158,283.371 154.571 C 283.519 153.985,283.562 153.428,283.468 153.334 C 283.373 153.240,283.176 153.642,283.029 154.229 M187.602 155.433 C 187.604 156.057,189.137 161.030,189.169 160.520 C 189.209 159.900,188.077 155.543,187.806 155.273 C 187.693 155.159,187.601 155.232,187.602 155.433 M211.849 156.215 C 211.712 156.573,211.615 157.166,211.634 157.533 C 211.653 157.900,211.827 157.669,212.021 157.020 C 212.398 155.758,212.265 155.133,211.849 156.215 M117.234 156.600 C 117.222 157.040,117.387 157.670,117.600 158.000 C 118.114 158.795,118.114 157.796,117.600 156.600 L 117.256 155.800 117.234 156.600 M282.273 156.953 C 282.123 157.345,282.011 157.966,282.025 158.333 C 282.042 158.775,282.181 158.674,282.437 158.034 C 282.649 157.503,282.761 156.882,282.685 156.654 C 282.609 156.427,282.424 156.561,282.273 156.953 M210.976 159.453 C 210.832 160.084,210.211 162.400,209.597 164.600 C 207.793 171.060,202.071 192.424,201.563 194.600 C 201.060 196.751,200.326 197.849,199.665 197.440 C 199.212 197.160,199.032 196.561,195.995 185.200 C 194.848 180.910,193.814 177.310,193.697 177.200 C 193.401 176.921,193.788 178.665,195.208 184.000 C 195.881 186.530,196.957 190.630,197.599 193.112 C 198.940 198.291,198.989 198.400,200.000 198.400 C 201.078 198.400,201.162 198.186,203.285 190.007 C 204.342 185.933,205.760 180.530,206.436 178.000 C 207.112 175.470,208.023 172.050,208.460 170.400 C 208.897 168.750,209.410 166.860,209.600 166.200 C 210.568 162.830,211.552 158.619,211.405 158.472 C 211.314 158.380,211.121 158.822,210.976 159.453 M118.046 159.600 C 118.065 159.930,118.224 160.650,118.400 161.200 L 118.720 162.200 118.754 161.200 C 118.773 160.650,118.613 159.930,118.400 159.600 C 118.055 159.067,118.016 159.067,118.046 159.600 M278.453 172.382 C 276.632 179.694,275.237 185.770,275.352 185.885 C 275.467 186.000,275.669 185.578,275.800 184.947 C 275.932 184.316,276.213 183.170,276.424 182.400 C 277.723 177.671,281.986 159.758,281.885 159.455 C 281.818 159.253,280.273 165.070,278.453 172.382 M189.449 162.344 C 189.832 164.261,191.541 169.874,191.573 169.320 C 191.588 169.055,191.314 167.795,190.965 166.520 C 190.616 165.244,190.182 163.601,190.000 162.868 C 189.566 161.117,189.118 160.691,189.449 162.344 M118.800 162.536 C 118.800 162.775,122.881 179.741,123.433 181.800 C 123.551 182.240,123.986 183.924,124.400 185.543 C 124.814 187.162,125.274 188.602,125.423 188.743 C 125.730 189.034,125.326 186.711,124.807 185.200 C 124.618 184.650,124.094 182.670,123.643 180.800 C 119.860 165.129,118.800 161.133,118.800 162.536 M191.636 170.200 C 191.608 170.836,193.169 176.504,193.444 176.764 C 193.581 176.894,193.568 176.370,193.414 175.600 C 192.923 173.140,191.674 169.347,191.636 170.200 M274.849 186.800 C 274.816 187.130,274.689 187.850,274.567 188.400 C 274.375 189.264,274.407 189.303,274.799 188.688 C 275.048 188.297,275.175 187.577,275.081 187.088 C 274.986 186.600,274.882 186.470,274.849 186.800 M125.646 190.000 C 125.627 190.550,125.787 191.270,126.000 191.600 C 126.494 192.364,126.494 191.542,126.000 190.000 L 125.680 189.000 125.646 190.000 M273.822 190.729 C 273.658 191.459,273.622 192.156,273.742 192.276 C 274.043 192.577,274.520 190.556,274.299 189.917 C 274.201 189.633,273.986 189.998,273.822 190.729 M126.434 193.200 C 126.422 193.750,126.587 194.470,126.800 194.800 C 127.309 195.587,127.309 194.184,126.800 193.000 C 126.485 192.267,126.454 192.284,126.434 193.200 M273.022 193.929 C 272.858 194.659,272.822 195.356,272.942 195.476 C 273.243 195.777,273.720 193.756,273.499 193.117 C 273.401 192.833,273.186 193.198,273.022 193.929 M127.381 197.000 C 127.543 197.880,127.761 199.140,127.865 199.800 C 127.969 200.460,128.210 201.360,128.400 201.800 C 128.590 202.240,128.837 203.140,128.948 203.800 C 129.170 205.111,129.594 206.911,130.551 210.600 C 131.815 215.469,133.594 223.220,133.513 223.506 C 133.467 223.668,133.625 224.160,133.864 224.600 C 134.103 225.040,134.232 225.805,134.152 226.300 C 134.071 226.795,134.184 227.200,134.403 227.200 C 134.621 227.200,134.800 227.920,134.800 228.800 C 134.800 229.680,134.980 230.400,135.200 230.400 C 135.420 230.400,135.600 230.642,135.600 230.938 C 135.600 231.234,135.985 231.819,136.455 232.238 L 137.309 233.000 136.703 231.800 C 136.151 230.706,134.878 225.770,129.382 203.400 C 127.639 196.307,126.703 193.313,127.381 197.000 M272.093 197.600 C 271.646 199.486,269.988 206.204,266.039 222.126 C 263.120 233.893,263.643 233.220,257.658 232.934 C 254.233 232.771,252.047 232.888,249.400 233.374 C 242.645 234.614,241.398 234.830,237.800 235.387 C 233.796 236.006,226.581 236.898,219.600 237.637 C 213.244 238.309,184.962 238.311,178.200 237.639 C 172.112 237.034,159.163 235.360,156.000 234.770 C 154.790 234.544,152.900 234.181,151.800 233.962 C 144.796 232.571,137.337 232.676,137.800 234.159 C 137.944 234.621,138.214 235.630,138.399 236.400 C 139.573 241.270,140.399 244.117,140.769 244.562 C 141.002 244.843,141.088 245.178,140.960 245.307 C 140.832 245.435,140.853 245.937,141.007 246.423 C 141.231 247.128,141.366 247.194,141.677 246.753 C 141.947 246.369,142.004 246.650,141.863 247.671 C 141.586 249.676,141.983 251.303,142.475 250.179 C 142.727 249.601,142.767 249.721,142.630 250.641 C 142.361 252.432,142.806 254.055,143.270 252.979 C 143.510 252.422,143.559 252.599,143.441 253.600 C 143.211 255.552,144.416 260.434,144.867 259.377 C 145.103 258.824,145.138 258.947,144.988 259.805 C 144.869 260.486,145.230 262.751,145.817 265.005 C 146.388 267.202,147.419 271.202,148.108 273.894 C 148.911 277.032,149.485 278.610,149.706 278.294 C 149.924 277.983,149.963 278.120,149.811 278.663 C 149.678 279.138,149.951 280.938,150.416 282.663 C 151.796 287.778,153.644 294.897,153.980 296.400 C 154.270 297.690,155.868 304.010,156.863 307.800 C 157.094 308.680,157.445 309.813,157.642 310.319 C 157.839 310.824,158.000 311.639,158.000 312.130 C 158.000 312.621,158.264 313.398,158.586 313.858 C 158.908 314.319,159.066 314.800,158.938 314.929 C 158.515 315.351,159.200 317.247,159.670 316.957 C 159.977 316.767,160.036 317.003,159.859 317.709 C 159.549 318.941,159.918 320.098,160.504 319.736 C 160.783 319.563,160.840 319.901,160.673 320.733 C 160.357 322.314,160.730 323.523,161.289 322.734 C 161.546 322.371,161.599 322.598,161.456 323.441 C 161.155 325.201,161.597 326.872,162.075 325.779 C 162.324 325.208,162.376 325.373,162.269 326.400 C 162.188 327.170,162.257 328.250,162.422 328.800 L 162.720 329.800 162.776 328.800 C 162.826 327.901,162.912 327.960,163.623 329.385 C 164.785 331.715,166.331 333.144,168.527 333.915 L 170.475 334.600 168.537 334.837 C 167.472 334.968,181.630 335.074,200.000 335.074 C 218.370 335.074,232.500 334.968,231.400 334.837 L 229.400 334.600 231.107 334.082 C 233.268 333.426,235.288 331.662,236.362 329.492 C 237.195 327.808,237.200 327.806,237.247 329.000 L 237.295 330.200 237.579 329.000 C 237.735 328.340,237.800 327.170,237.724 326.400 C 237.621 325.358,237.673 325.201,237.928 325.785 C 238.388 326.839,238.885 325.086,238.551 323.588 C 238.396 322.893,238.444 322.760,238.712 323.138 C 239.223 323.857,239.671 322.158,239.323 320.825 C 239.162 320.211,239.222 319.967,239.494 320.135 C 239.985 320.438,240.552 318.569,240.161 317.937 C 240.016 317.702,240.109 317.380,240.367 317.220 C 240.819 316.941,241.791 313.569,243.544 306.200 C 243.753 305.320,244.396 302.806,244.972 300.612 C 245.547 298.419,245.930 296.394,245.822 296.112 C 245.714 295.831,245.785 295.600,245.980 295.600 C 246.175 295.600,246.540 294.745,246.790 293.700 C 247.566 290.461,247.909 289.103,248.736 286.000 C 249.503 283.120,250.382 279.769,253.456 268.000 C 256.333 256.987,256.774 254.968,256.598 253.600 C 256.455 252.496,256.484 252.412,256.733 253.200 L 257.050 254.200 257.323 253.139 C 257.473 252.556,257.503 251.476,257.390 250.739 C 257.245 249.793,257.285 249.628,257.525 250.179 C 258.003 251.271,258.445 249.602,258.144 247.841 C 258.001 246.998,258.054 246.771,258.311 247.134 C 258.869 247.922,259.201 246.816,258.975 244.923 C 258.875 244.085,258.906 243.645,259.045 243.945 C 259.487 244.902,259.949 243.617,259.731 242.034 C 259.588 240.992,259.645 240.758,259.939 241.179 C 260.262 241.640,260.394 241.517,260.586 240.579 C 260.719 239.931,260.982 238.860,261.171 238.200 C 261.360 237.540,261.759 236.121,262.057 235.047 C 262.422 233.735,262.895 232.959,263.500 232.683 C 264.050 232.431,264.400 231.917,264.400 231.359 C 264.400 230.858,264.580 230.336,264.800 230.200 C 265.020 230.064,265.200 229.333,265.200 228.576 C 265.200 227.819,265.358 227.200,265.550 227.200 C 265.743 227.200,265.900 226.778,265.900 226.263 C 265.900 225.748,266.927 221.113,268.183 215.963 C 271.317 203.108,271.113 203.935,272.418 198.730 C 272.676 197.702,272.804 196.622,272.703 196.330 C 272.603 196.039,272.328 196.610,272.093 197.600 M153.000 234.710 C 155.420 235.152,158.750 235.710,160.400 235.950 C 162.050 236.190,164.660 236.572,166.200 236.798 C 179.002 238.680,207.096 239.286,220.400 237.967 C 230.964 236.920,243.459 235.200,247.923 234.178 C 252.229 233.193,258.328 232.946,258.634 233.745 C 258.887 234.403,257.716 239.338,253.358 256.000 C 249.196 271.911,244.179 291.303,239.595 309.200 C 234.679 328.393,234.186 329.646,230.906 331.262 L 229.000 332.200 200.000 332.200 L 171.000 332.200 169.200 331.306 C 165.949 329.691,165.502 328.627,161.425 312.800 C 158.639 301.983,155.248 288.894,149.195 265.600 C 142.233 238.808,141.129 234.362,141.316 233.874 C 141.560 233.239,147.131 233.638,153.000 234.710 M163.063 331.680 C 163.400 333.449,163.600 333.601,163.600 332.090 C 163.600 331.407,163.423 330.738,163.206 330.604 C 162.960 330.452,162.906 330.855,163.063 331.680 M236.603 331.453 C 236.473 332.084,236.211 333.185,236.020 333.901 C 235.830 334.616,235.823 335.109,236.005 334.997 C 236.396 334.755,237.302 330.768,237.028 330.494 C 236.924 330.391,236.733 330.822,236.603 331.453 " stroke="none" fill="#81ebfb" fill-rule="evenodd"></path><path id="path3" d="M92.100 62.412 C 91.237 62.760,90.791 64.400,91.560 64.400 C 91.897 64.400,92.038 65.119,92.639 69.900 C 92.770 70.945,93.040 71.971,93.239 72.180 C 93.437 72.389,93.600 73.043,93.600 73.634 C 93.600 74.225,93.884 75.674,94.231 76.854 C 94.578 78.034,95.050 79.720,95.278 80.600 C 95.507 81.480,95.792 82.470,95.911 82.800 C 96.030 83.130,96.201 83.940,96.292 84.600 C 96.384 85.260,96.625 85.971,96.829 86.180 C 97.033 86.389,97.200 87.143,97.200 87.856 C 97.200 88.569,97.380 89.264,97.600 89.400 C 97.820 89.536,98.000 90.187,98.000 90.847 C 98.000 91.545,98.167 91.944,98.400 91.800 C 98.641 91.651,98.800 92.185,98.800 93.143 C 98.800 94.018,98.972 94.793,99.182 94.867 C 99.393 94.940,99.610 95.675,99.664 96.500 C 99.719 97.325,99.907 98.000,100.082 98.000 C 100.257 98.000,100.400 98.540,100.400 99.200 C 100.400 99.860,100.580 100.400,100.800 100.400 C 101.020 100.400,101.200 101.120,101.200 102.000 C 101.200 102.880,101.380 103.600,101.600 103.600 C 101.820 103.600,102.000 104.194,102.000 104.920 C 102.000 105.646,102.163 106.411,102.361 106.620 C 102.560 106.829,102.824 107.810,102.949 108.800 C 103.444 112.744,103.700 114.015,104.042 114.226 C 104.239 114.348,104.400 114.979,104.400 115.629 C 104.400 116.279,104.608 117.213,104.862 117.705 C 105.894 119.700,106.000 120.045,106.000 121.395 C 106.000 122.168,106.180 122.800,106.400 122.800 C 106.620 122.800,106.800 123.520,106.800 124.400 C 106.800 125.280,106.980 126.000,107.200 126.000 C 107.420 126.000,107.600 126.540,107.600 127.200 C 107.600 127.860,107.780 128.400,108.000 128.400 C 108.220 128.400,108.400 129.120,108.400 130.000 C 108.400 130.880,108.580 131.600,108.800 131.600 C 109.020 131.600,109.200 132.140,109.200 132.800 C 109.200 133.460,109.357 134.000,109.548 134.000 C 109.740 134.000,110.020 135.256,110.172 136.791 C 110.323 138.326,110.616 139.686,110.823 139.814 C 111.030 139.942,111.200 140.577,111.200 141.224 C 111.200 141.871,111.380 142.400,111.600 142.400 C 111.820 142.400,112.000 143.120,112.000 144.000 C 112.000 144.880,112.161 145.600,112.358 145.600 C 112.555 145.600,112.813 146.275,112.932 147.100 C 113.051 147.925,113.352 149.500,113.600 150.600 C 113.848 151.700,114.149 153.320,114.267 154.200 C 114.385 155.080,114.644 155.971,114.841 156.180 C 115.038 156.389,115.200 157.064,115.200 157.680 C 115.200 158.296,115.380 158.800,115.600 158.800 C 115.820 158.800,116.000 159.520,116.000 160.400 C 116.000 161.280,116.180 162.000,116.400 162.000 C 116.620 162.000,116.800 162.619,116.800 163.376 C 116.800 164.133,116.980 164.864,117.200 165.000 C 117.420 165.136,117.600 165.766,117.600 166.400 C 117.600 167.034,117.780 167.664,118.000 167.800 C 118.220 167.936,118.400 168.667,118.400 169.424 C 118.400 170.181,118.580 170.800,118.800 170.800 C 119.020 170.800,119.200 171.430,119.200 172.200 C 119.200 172.970,119.380 173.600,119.600 173.600 C 119.820 173.600,120.000 174.140,120.000 174.800 C 120.000 175.460,120.180 176.000,120.400 176.000 C 120.620 176.000,120.800 176.720,120.800 177.600 C 120.800 178.480,120.980 179.200,121.200 179.200 C 121.420 179.200,121.600 179.819,121.600 180.576 C 121.600 181.333,121.780 182.064,122.000 182.200 C 122.220 182.336,122.400 183.077,122.400 183.847 C 122.400 184.679,122.562 185.147,122.800 185.000 C 123.042 184.850,123.200 185.404,123.200 186.400 C 123.200 187.396,123.358 187.950,123.600 187.800 C 123.844 187.649,124.000 188.263,124.000 189.376 C 124.000 190.565,124.174 191.202,124.500 191.206 C 124.833 191.210,124.800 191.342,124.400 191.600 C 124.000 191.858,123.967 191.990,124.300 191.994 C 124.625 191.998,124.800 192.630,124.800 193.800 C 124.800 194.790,124.980 195.600,125.200 195.600 C 125.420 195.600,125.600 196.194,125.600 196.920 C 125.600 197.646,125.765 198.411,125.966 198.620 C 126.167 198.829,126.385 199.540,126.450 200.200 C 126.516 200.860,126.689 201.580,126.834 201.800 C 126.980 202.020,127.229 203.098,127.388 204.195 C 127.547 205.292,127.898 206.642,128.168 207.195 C 128.438 207.748,128.591 208.498,128.507 208.863 C 128.424 209.227,128.546 209.643,128.778 209.786 C 129.010 209.930,129.200 210.667,129.200 211.424 C 129.200 212.181,129.380 212.800,129.600 212.800 C 129.820 212.800,130.000 213.419,130.000 214.176 C 130.000 214.933,130.180 215.664,130.400 215.800 C 130.620 215.936,130.800 216.577,130.800 217.224 C 130.800 217.871,130.980 218.400,131.200 218.400 C 131.420 218.400,131.600 219.019,131.600 219.776 C 131.600 220.533,131.780 221.264,132.000 221.400 C 132.220 221.536,132.400 222.267,132.400 223.024 C 132.400 223.781,132.580 224.400,132.800 224.400 C 133.020 224.400,133.200 224.904,133.200 225.520 C 133.200 226.136,133.369 226.811,133.575 227.020 C 133.782 227.229,134.044 228.188,134.159 229.151 C 134.444 231.544,134.800 231.733,134.800 229.490 C 134.800 228.477,134.620 227.536,134.400 227.400 C 134.180 227.264,134.000 226.553,134.000 225.819 C 134.000 225.056,133.765 224.395,133.449 224.274 C 133.094 224.138,132.971 223.686,133.102 222.998 C 133.214 222.412,133.109 221.273,132.868 220.467 C 132.627 219.660,132.150 217.740,131.808 216.200 C 131.466 214.660,131.017 212.770,130.812 212.000 C 130.606 211.230,130.061 208.980,129.600 207.000 C 129.139 205.020,128.599 202.770,128.400 202.000 C 127.892 200.037,127.570 198.445,127.326 196.697 C 127.210 195.871,126.955 195.095,126.758 194.974 C 126.561 194.852,126.400 194.144,126.400 193.400 C 126.400 192.656,126.240 191.948,126.044 191.827 C 125.849 191.706,125.592 191.021,125.473 190.304 C 125.355 189.587,125.073 188.280,124.847 187.400 C 124.621 186.520,124.265 185.080,124.056 184.200 C 123.846 183.320,122.065 176.210,120.097 168.400 C 118.129 160.590,116.415 153.750,116.288 153.200 C 116.160 152.650,115.851 151.480,115.601 150.600 C 115.351 149.720,114.996 148.370,114.811 147.600 C 114.357 145.707,106.011 112.911,105.598 111.400 C 104.920 108.914,98.708 84.540,98.411 83.200 C 98.010 81.387,94.933 69.623,94.150 66.905 C 93.818 65.753,93.659 64.628,93.797 64.405 C 94.097 63.919,162.730 63.841,163.492 64.325 C 163.763 64.497,164.452 66.429,165.023 68.619 C 166.447 74.079,167.588 78.368,168.000 79.800 C 168.190 80.460,168.700 82.350,169.134 84.000 C 169.568 85.650,170.497 89.160,171.199 91.800 C 171.901 94.440,172.984 98.580,173.606 101.000 C 175.598 108.744,177.102 114.447,178.777 120.600 C 180.659 127.515,182.407 134.017,183.616 138.600 C 186.666 150.161,187.322 152.709,187.482 153.600 C 187.580 154.150,187.813 154.960,188.000 155.400 C 188.187 155.840,188.431 156.650,188.542 157.200 C 188.653 157.750,188.954 158.920,189.209 159.800 C 189.465 160.680,189.768 161.987,189.881 162.704 C 189.995 163.421,190.249 164.106,190.444 164.227 C 190.640 164.348,190.800 164.966,190.800 165.600 C 190.800 166.234,190.960 166.852,191.156 166.973 C 191.351 167.094,191.605 167.779,191.719 168.496 C 191.832 169.213,192.134 170.520,192.389 171.400 C 192.644 172.280,193.003 173.630,193.187 174.400 C 193.498 175.705,193.824 176.893,196.039 184.800 C 197.082 188.521,197.595 190.619,197.873 192.304 C 197.992 193.021,198.249 193.706,198.444 193.827 C 198.640 193.948,198.800 194.564,198.800 195.197 C 198.800 197.252,200.921 197.343,201.329 195.305 C 201.659 193.659,202.248 191.270,202.932 188.800 C 203.267 187.590,204.029 184.800,204.626 182.600 C 205.222 180.400,206.059 177.340,206.488 175.800 C 206.916 174.260,207.623 171.650,208.061 170.000 C 208.498 168.350,209.010 166.460,209.200 165.800 C 209.390 165.140,209.930 163.160,210.400 161.400 C 210.870 159.640,211.435 157.570,211.654 156.800 C 211.874 156.030,212.209 154.770,212.400 154.000 C 212.591 153.230,212.951 151.880,213.200 151.000 C 213.449 150.120,213.797 148.770,213.974 148.000 C 214.264 146.733,216.146 139.580,217.815 133.400 C 218.171 132.080,218.795 129.740,219.200 128.200 C 219.605 126.660,220.221 124.365,220.569 123.100 C 222.606 115.678,223.524 112.214,228.228 94.200 C 229.204 90.460,230.370 86.050,230.819 84.400 C 231.268 82.750,232.183 79.330,232.853 76.800 C 233.523 74.270,234.223 71.660,234.409 71.000 C 234.594 70.340,235.060 68.581,235.442 67.090 C 236.331 63.630,232.284 63.962,272.000 64.090 L 306.200 64.200 306.158 65.200 C 306.136 65.750,305.540 68.360,304.834 71.000 C 304.128 73.640,302.204 81.110,300.557 87.600 C 298.910 94.090,296.926 101.830,296.147 104.800 C 294.081 112.681,292.067 120.453,291.794 121.600 C 291.453 123.035,290.863 125.363,290.401 127.100 C 290.181 127.925,289.387 131.120,288.635 134.200 C 287.884 137.280,286.696 141.960,285.995 144.600 C 285.294 147.240,284.579 150.030,284.405 150.800 C 284.016 152.524,280.919 164.877,280.394 166.800 C 279.973 168.339,278.382 174.724,277.404 178.800 C 277.061 180.230,276.604 181.953,276.390 182.628 C 276.175 183.304,276.000 184.238,276.000 184.705 C 276.000 185.171,275.820 185.664,275.600 185.800 C 275.380 185.936,275.200 186.656,275.200 187.400 C 275.200 188.144,275.020 188.864,274.800 189.000 C 274.580 189.136,274.400 189.629,274.400 190.095 C 274.400 190.562,274.232 191.496,274.027 192.172 C 273.491 193.939,272.960 196.080,271.987 200.400 C 270.068 208.916,267.918 217.774,267.173 220.228 C 266.968 220.904,266.800 221.928,266.800 222.505 C 266.800 223.081,266.620 223.664,266.400 223.800 C 266.180 223.936,266.000 224.787,266.000 225.690 C 266.000 227.472,266.459 227.484,266.649 225.706 C 266.713 225.104,266.953 224.549,267.183 224.472 C 267.412 224.396,267.600 223.729,267.600 222.990 C 267.600 222.252,267.780 221.536,268.000 221.400 C 268.220 221.264,268.400 220.533,268.400 219.776 C 268.400 219.019,268.560 218.400,268.756 218.400 C 269.093 218.400,269.211 217.949,269.833 214.296 C 269.973 213.469,270.249 212.694,270.444 212.573 C 270.640 212.452,270.800 211.733,270.800 210.976 C 270.800 210.219,270.980 209.600,271.200 209.600 C 271.420 209.600,271.600 208.970,271.600 208.200 C 271.600 207.430,271.760 206.800,271.956 206.800 C 272.152 206.800,272.400 206.215,272.507 205.500 C 272.614 204.785,273.179 202.437,273.764 200.283 C 274.348 198.129,274.728 196.207,274.607 196.011 C 274.486 195.815,274.570 195.542,274.793 195.404 C 275.017 195.266,275.200 194.533,275.200 193.776 C 275.200 192.945,275.398 192.398,275.700 192.394 C 276.033 192.390,276.000 192.258,275.600 192.000 C 275.200 191.742,275.167 191.610,275.500 191.606 C 275.825 191.602,276.000 190.970,276.000 189.800 C 276.000 188.810,276.180 188.000,276.400 188.000 C 276.620 188.000,276.800 187.381,276.800 186.624 C 276.800 185.867,276.980 185.136,277.200 185.000 C 277.420 184.864,277.600 184.223,277.600 183.576 C 277.600 182.929,277.780 182.400,278.000 182.400 C 278.220 182.400,278.400 181.680,278.400 180.800 C 278.400 179.920,278.580 179.200,278.800 179.200 C 279.020 179.200,279.200 178.480,279.200 177.600 C 279.200 176.720,279.380 176.000,279.600 176.000 C 279.820 176.000,280.000 175.460,280.000 174.800 C 280.000 174.140,280.180 173.600,280.400 173.600 C 280.620 173.600,280.800 172.970,280.800 172.200 C 280.800 171.430,280.980 170.800,281.200 170.800 C 281.420 170.800,281.600 170.080,281.600 169.200 C 281.600 168.320,281.780 167.600,282.000 167.600 C 282.220 167.600,282.400 167.060,282.400 166.400 C 282.400 165.740,282.580 165.200,282.800 165.200 C 283.020 165.200,283.200 164.491,283.200 163.624 C 283.200 162.757,283.380 161.936,283.600 161.800 C 283.820 161.664,284.000 161.124,284.000 160.600 C 284.000 160.076,284.180 159.536,284.400 159.400 C 284.620 159.264,284.800 158.621,284.800 157.971 C 284.800 157.321,284.959 156.477,285.153 156.095 C 285.673 155.070,286.400 151.762,286.400 150.418 C 286.400 149.774,286.580 149.136,286.800 149.000 C 287.020 148.864,287.200 148.043,287.200 147.176 C 287.200 146.309,287.380 145.600,287.600 145.600 C 287.820 145.600,288.000 144.880,288.000 144.000 C 288.000 143.120,288.180 142.400,288.400 142.400 C 288.620 142.400,288.800 141.860,288.800 141.200 C 288.800 140.540,288.980 140.000,289.200 140.000 C 289.420 140.000,289.600 139.280,289.600 138.400 C 289.600 137.520,289.780 136.800,290.000 136.800 C 290.220 136.800,290.400 136.095,290.400 135.233 C 290.400 134.372,290.578 133.607,290.796 133.533 C 291.014 133.460,291.310 132.275,291.453 130.900 C 291.597 129.525,291.868 128.400,292.057 128.400 C 292.246 128.400,292.400 127.680,292.400 126.800 C 292.400 125.920,292.580 125.200,292.800 125.200 C 293.020 125.200,293.200 124.660,293.200 124.000 C 293.200 123.340,293.380 122.800,293.600 122.800 C 293.820 122.800,294.000 122.080,294.000 121.200 C 294.000 120.320,294.180 119.600,294.400 119.600 C 294.620 119.600,294.800 119.161,294.800 118.624 C 294.800 118.087,294.980 117.536,295.200 117.400 C 295.420 117.264,295.600 116.544,295.600 115.800 C 295.600 115.056,295.780 114.336,296.000 114.200 C 296.220 114.064,296.400 113.344,296.400 112.600 C 296.400 111.856,296.580 111.136,296.800 111.000 C 297.020 110.864,297.200 109.874,297.200 108.800 C 297.200 107.726,297.380 106.736,297.600 106.600 C 297.820 106.464,298.000 105.733,298.000 104.976 C 298.000 104.219,298.180 103.600,298.400 103.600 C 298.620 103.600,298.800 102.880,298.800 102.000 C 298.800 101.120,298.980 100.400,299.200 100.400 C 299.420 100.400,299.600 99.860,299.600 99.200 C 299.600 98.540,299.780 98.000,300.000 98.000 C 300.220 98.000,300.400 97.280,300.400 96.400 C 300.400 95.520,300.580 94.800,300.800 94.800 C 301.020 94.800,301.200 94.080,301.200 93.200 C 301.200 92.320,301.380 91.600,301.600 91.600 C 301.820 91.600,302.000 91.161,302.000 90.624 C 302.000 90.087,302.180 89.536,302.400 89.400 C 302.620 89.264,302.800 88.569,302.800 87.856 C 302.800 87.143,302.974 86.386,303.187 86.173 C 303.399 85.961,303.617 85.205,303.672 84.493 C 303.726 83.782,303.912 83.200,304.085 83.200 C 304.258 83.200,304.400 82.671,304.400 82.024 C 304.400 81.377,304.580 80.736,304.800 80.600 C 305.020 80.464,305.200 79.769,305.200 79.056 C 305.200 78.343,305.360 77.589,305.556 77.380 C 305.751 77.171,306.103 76.010,306.338 74.800 C 306.573 73.590,307.053 71.340,307.404 69.800 C 308.779 63.772,308.872 63.112,308.408 62.648 C 307.797 62.037,235.033 62.007,234.422 62.618 C 234.193 62.847,233.964 63.522,233.915 64.118 C 233.866 64.713,233.685 65.200,233.513 65.200 C 233.341 65.200,233.200 65.729,233.200 66.376 C 233.200 67.023,233.020 67.664,232.800 67.800 C 232.580 67.936,232.400 68.566,232.400 69.200 C 232.400 69.834,232.240 70.452,232.044 70.573 C 231.849 70.694,231.592 71.379,231.473 72.096 C 231.355 72.813,231.076 74.120,230.853 75.000 C 230.630 75.880,230.157 77.950,229.802 79.600 C 229.447 81.250,228.986 83.153,228.778 83.828 C 228.570 84.504,228.400 85.438,228.400 85.905 C 228.400 86.371,228.230 86.858,228.023 86.986 C 227.816 87.114,227.523 88.474,227.372 90.009 C 227.220 91.544,226.940 92.800,226.748 92.800 C 226.557 92.800,226.400 93.520,226.400 94.400 C 226.400 95.280,226.220 96.000,226.000 96.000 C 225.780 96.000,225.600 96.450,225.600 97.000 C 225.600 97.550,225.420 98.000,225.200 98.000 C 224.980 98.000,224.800 98.821,224.800 99.824 C 224.800 100.937,224.644 101.551,224.400 101.400 C 224.167 101.256,224.000 101.663,224.000 102.376 C 224.000 103.049,223.820 103.600,223.600 103.600 C 223.380 103.600,223.200 104.320,223.200 105.200 C 223.200 106.080,223.020 106.800,222.800 106.800 C 222.580 106.800,222.400 107.340,222.400 108.000 C 222.400 108.660,222.220 109.200,222.000 109.200 C 221.780 109.200,221.600 109.920,221.600 110.800 C 221.600 111.680,221.420 112.400,221.200 112.400 C 220.980 112.400,220.800 113.030,220.800 113.800 C 220.800 114.570,220.620 115.200,220.400 115.200 C 220.180 115.200,220.000 115.819,220.000 116.576 C 220.000 117.333,219.839 118.052,219.642 118.174 C 219.295 118.389,219.152 119.103,218.574 123.500 C 218.422 124.655,218.141 125.600,217.949 125.600 C 217.757 125.600,217.600 126.219,217.600 126.976 C 217.600 127.733,217.420 128.464,217.200 128.600 C 216.980 128.736,216.800 129.557,216.800 130.424 C 216.800 131.291,216.620 132.000,216.400 132.000 C 216.180 132.000,216.000 132.450,216.000 133.000 C 216.000 133.550,215.820 134.000,215.600 134.000 C 215.380 134.000,215.200 134.720,215.200 135.600 C 215.200 136.480,215.020 137.200,214.800 137.200 C 214.580 137.200,214.400 137.729,214.400 138.376 C 214.400 139.023,214.220 139.664,214.000 139.800 C 213.780 139.936,213.600 140.667,213.600 141.424 C 213.600 142.181,213.420 142.800,213.200 142.800 C 212.980 142.800,212.800 143.505,212.800 144.367 C 212.800 145.228,212.657 145.993,212.482 146.067 C 212.105 146.225,210.881 150.781,210.270 154.300 C 210.031 155.675,209.693 156.800,209.518 156.800 C 209.343 156.800,209.200 157.520,209.200 158.400 C 209.200 159.280,209.020 160.000,208.800 160.000 C 208.580 160.000,208.400 160.990,208.400 162.200 C 208.400 163.410,208.220 164.400,208.000 164.400 C 207.780 164.400,207.600 165.120,207.600 166.000 C 207.600 166.880,207.420 167.600,207.200 167.600 C 206.980 167.600,206.800 168.320,206.800 169.200 C 206.800 170.080,206.620 170.800,206.400 170.800 C 206.180 170.800,206.000 171.340,206.000 172.000 C 206.000 172.660,205.820 173.200,205.600 173.200 C 205.380 173.200,205.200 173.920,205.200 174.800 C 205.200 175.680,205.020 176.400,204.800 176.400 C 204.580 176.400,204.400 176.940,204.400 177.600 C 204.400 178.260,204.220 178.800,204.000 178.800 C 203.780 178.800,203.600 179.430,203.600 180.200 C 203.600 180.970,203.420 181.600,203.200 181.600 C 202.980 181.600,202.800 182.320,202.800 183.200 C 202.800 184.080,202.620 184.800,202.400 184.800 C 202.180 184.800,202.000 185.441,202.000 186.224 C 202.000 187.007,201.857 187.559,201.683 187.451 C 201.509 187.344,201.323 187.825,201.269 188.521 C 201.216 189.217,200.999 189.961,200.787 190.173 C 200.574 190.386,200.400 191.064,200.400 191.680 C 200.400 192.296,200.220 192.800,200.000 192.800 C 199.780 192.800,199.600 192.271,199.600 191.624 C 199.600 190.977,199.420 190.336,199.200 190.200 C 198.980 190.064,198.800 189.333,198.800 188.576 C 198.800 187.819,198.620 187.200,198.400 187.200 C 198.180 187.200,198.000 186.570,198.000 185.800 C 198.000 185.030,197.820 184.400,197.600 184.400 C 197.380 184.400,197.200 183.770,197.200 183.000 C 197.200 182.230,197.020 181.600,196.800 181.600 C 196.580 181.600,196.400 180.970,196.400 180.200 C 196.400 179.430,196.220 178.800,196.000 178.800 C 195.780 178.800,195.600 178.260,195.600 177.600 C 195.600 176.940,195.420 176.400,195.200 176.400 C 194.980 176.400,194.800 175.680,194.800 174.800 C 194.800 173.920,194.620 173.200,194.400 173.200 C 194.180 173.200,194.000 172.660,194.000 172.000 C 194.000 171.340,193.820 170.800,193.600 170.800 C 193.380 170.800,193.200 170.080,193.200 169.200 C 193.200 168.320,193.020 167.600,192.800 167.600 C 192.580 167.600,192.400 166.880,192.400 166.000 C 192.400 165.120,192.220 164.400,192.000 164.400 C 191.780 164.400,191.600 163.508,191.600 162.419 C 191.600 161.329,191.441 160.024,191.247 159.519 C 191.053 159.013,190.583 157.160,190.203 155.400 C 189.823 153.640,189.365 151.840,189.186 151.400 C 188.882 150.652,188.677 149.821,188.130 147.100 C 188.009 146.495,187.750 146.000,187.555 146.000 C 187.360 146.000,187.200 145.280,187.200 144.400 C 187.200 143.520,187.020 142.800,186.800 142.800 C 186.580 142.800,186.400 142.260,186.400 141.600 C 186.400 140.940,186.220 140.400,186.000 140.400 C 185.780 140.400,185.600 139.680,185.600 138.800 C 185.600 137.920,185.420 137.200,185.200 137.200 C 184.980 137.200,184.800 136.480,184.800 135.600 C 184.800 134.720,184.620 134.000,184.400 134.000 C 184.180 134.000,184.000 133.359,184.000 132.576 C 184.000 131.729,183.838 131.253,183.600 131.400 C 183.362 131.547,183.200 131.071,183.200 130.224 C 183.200 129.441,183.020 128.800,182.800 128.800 C 182.580 128.800,182.400 128.080,182.400 127.200 C 182.400 126.320,182.243 125.600,182.051 125.600 C 181.859 125.600,181.578 124.655,181.426 123.500 C 180.848 119.103,180.705 118.389,180.358 118.174 C 180.161 118.052,180.000 117.323,180.000 116.553 C 180.000 115.721,179.838 115.253,179.600 115.400 C 179.358 115.549,179.200 115.004,179.200 114.024 C 179.200 113.131,179.020 112.400,178.800 112.400 C 178.580 112.400,178.400 111.680,178.400 110.800 C 178.400 109.920,178.220 109.200,178.000 109.200 C 177.780 109.200,177.600 108.660,177.600 108.000 C 177.600 107.340,177.420 106.800,177.200 106.800 C 176.980 106.800,176.800 106.080,176.800 105.200 C 176.800 104.320,176.620 103.600,176.400 103.600 C 176.180 103.600,176.000 103.060,176.000 102.400 C 176.000 101.740,175.846 101.200,175.657 101.200 C 175.468 101.200,175.197 100.075,175.053 98.700 C 174.910 97.325,174.614 96.140,174.396 96.067 C 174.178 95.993,174.000 95.228,174.000 94.367 C 174.000 93.505,173.820 92.800,173.600 92.800 C 173.380 92.800,173.200 92.181,173.200 91.424 C 173.200 90.667,173.020 89.936,172.800 89.800 C 172.580 89.664,172.400 88.944,172.400 88.200 C 172.400 87.456,172.220 86.736,172.000 86.600 C 171.780 86.464,171.600 85.911,171.600 85.371 C 171.600 84.831,171.435 84.077,171.233 83.695 C 171.031 83.313,170.644 81.650,170.372 80.000 C 170.100 78.350,169.725 76.829,169.538 76.620 C 169.352 76.411,169.200 75.657,169.200 74.944 C 169.200 74.231,169.020 73.536,168.800 73.400 C 168.580 73.264,168.400 72.634,168.400 72.000 C 168.400 71.366,168.220 70.736,168.000 70.600 C 167.780 70.464,167.600 69.733,167.600 68.976 C 167.600 68.219,167.420 67.600,167.200 67.600 C 166.980 67.600,166.797 67.195,166.794 66.700 C 166.784 65.152,165.722 62.655,164.944 62.349 C 163.853 61.920,93.172 61.981,92.100 62.412 M265.342 228.300 C 265.326 228.685,265.210 229.492,265.084 230.093 C 264.958 230.695,265.023 231.291,265.228 231.417 C 265.432 231.544,265.620 231.322,265.645 230.924 C 265.669 230.526,265.757 229.615,265.840 228.900 C 265.923 228.185,265.851 227.600,265.681 227.600 C 265.511 227.600,265.358 227.915,265.342 228.300 M134.956 233.400 C 135.090 234.170,135.310 235.430,135.444 236.200 C 135.578 236.970,135.848 237.600,136.044 237.600 C 136.240 237.600,136.400 238.219,136.400 238.976 C 136.400 239.733,136.580 240.464,136.800 240.600 C 137.020 240.736,137.200 241.377,137.200 242.024 C 137.200 242.671,137.380 243.200,137.600 243.200 C 137.820 243.200,138.000 243.920,138.000 244.800 C 138.000 245.680,138.180 246.400,138.400 246.400 C 138.620 246.400,138.800 246.940,138.800 247.600 C 138.800 248.260,138.980 248.800,139.200 248.800 C 139.420 248.800,139.600 249.520,139.600 250.400 C 139.600 251.280,139.780 252.000,140.000 252.000 C 140.220 252.000,140.400 252.720,140.400 253.600 C 140.400 254.480,140.580 255.200,140.800 255.200 C 141.020 255.200,141.200 255.650,141.200 256.200 C 141.200 256.750,141.380 257.200,141.600 257.200 C 141.820 257.200,142.000 257.920,142.000 258.800 C 142.000 259.680,142.180 260.400,142.400 260.400 C 142.620 260.400,142.800 261.120,142.800 262.000 C 142.800 262.880,142.957 263.600,143.148 263.600 C 143.340 263.600,143.623 264.719,143.778 266.086 C 143.933 267.453,144.181 268.758,144.329 268.986 C 144.478 269.214,144.810 270.480,145.066 271.800 C 145.323 273.120,145.829 275.460,146.191 277.000 C 146.553 278.540,146.948 280.387,147.069 281.104 C 147.190 281.821,147.449 282.506,147.644 282.627 C 147.840 282.748,148.000 283.366,148.000 284.000 C 148.000 284.634,148.180 285.264,148.400 285.400 C 148.620 285.536,148.800 286.256,148.800 287.000 C 148.800 287.744,148.980 288.464,149.200 288.600 C 149.420 288.736,149.600 289.387,149.600 290.047 C 149.600 290.745,149.767 291.144,150.000 291.000 C 150.242 290.851,150.400 291.396,150.400 292.376 C 150.400 293.269,150.580 294.000,150.800 294.000 C 151.020 294.000,151.200 294.540,151.200 295.200 C 151.200 295.890,151.412 296.403,151.700 296.406 C 152.033 296.410,152.000 296.542,151.600 296.800 C 151.200 297.058,151.167 297.190,151.500 297.194 C 151.788 297.197,152.000 297.710,152.000 298.400 C 152.000 299.060,152.180 299.600,152.400 299.600 C 152.620 299.600,152.800 300.320,152.800 301.200 C 152.800 302.080,152.980 302.800,153.200 302.800 C 153.420 302.800,153.600 303.419,153.600 304.176 C 153.600 304.933,153.780 305.664,154.000 305.800 C 154.220 305.936,154.400 306.587,154.400 307.247 C 154.400 307.907,154.557 308.350,154.750 308.231 C 154.942 308.112,155.212 308.911,155.350 310.007 C 155.487 311.103,155.713 312.904,155.852 314.008 C 155.990 315.113,156.260 316.114,156.452 316.232 C 156.643 316.350,156.800 316.977,156.800 317.624 C 156.800 318.271,156.980 318.800,157.200 318.800 C 157.420 318.800,157.600 319.419,157.600 320.176 C 157.600 320.933,157.780 321.664,158.000 321.800 C 158.220 321.936,158.400 322.677,158.400 323.447 C 158.400 324.279,158.562 324.747,158.800 324.600 C 159.041 324.451,159.200 324.985,159.200 325.943 C 159.200 326.818,159.360 327.593,159.555 327.667 C 159.751 327.740,160.035 328.878,160.186 330.196 C 160.337 331.514,160.613 332.775,160.798 332.998 C 160.983 333.221,161.194 334.027,161.267 334.789 C 161.368 335.842,161.727 336.394,162.759 337.087 L 164.118 338.000 199.885 338.000 C 225.798 338.000,235.893 337.875,236.526 337.546 C 238.010 336.775,238.800 335.687,238.800 334.417 C 238.800 333.748,238.960 333.200,239.156 333.200 C 239.352 333.200,239.614 332.615,239.737 331.900 C 240.272 328.806,240.520 327.775,240.820 327.396 C 240.995 327.174,241.266 325.869,241.421 324.496 C 241.576 323.123,241.860 322.000,242.052 322.000 C 242.243 322.000,242.400 321.370,242.400 320.600 C 242.400 319.830,242.580 319.200,242.800 319.200 C 243.020 319.200,243.200 318.581,243.200 317.824 C 243.200 317.067,243.357 316.350,243.548 316.232 C 243.740 316.114,244.003 315.158,244.133 314.108 C 244.695 309.571,244.925 308.400,245.252 308.400 C 245.443 308.400,245.600 307.871,245.600 307.224 C 245.600 306.577,245.780 305.936,246.000 305.800 C 246.220 305.664,246.400 304.933,246.400 304.176 C 246.400 303.419,246.580 302.800,246.800 302.800 C 247.020 302.800,247.200 302.080,247.200 301.200 C 247.200 300.320,247.380 299.600,247.600 299.600 C 247.820 299.600,248.000 298.869,248.000 297.976 C 248.000 296.996,248.158 296.451,248.400 296.600 C 248.638 296.747,248.800 296.271,248.800 295.424 C 248.800 294.641,248.980 294.000,249.200 294.000 C 249.420 294.000,249.600 293.280,249.600 292.400 C 249.600 291.520,249.760 290.800,249.955 290.800 C 250.290 290.800,250.542 289.912,251.063 286.900 C 251.186 286.185,251.448 285.600,251.644 285.600 C 251.840 285.600,252.000 284.981,252.000 284.224 C 252.000 283.467,252.160 282.748,252.356 282.627 C 252.551 282.506,252.805 281.821,252.919 281.104 C 253.032 280.387,253.321 279.080,253.561 278.200 C 254.304 275.467,255.199 271.043,255.200 270.100 C 255.200 269.605,255.380 269.200,255.600 269.200 C 255.820 269.200,256.000 268.480,256.000 267.600 C 256.000 266.720,256.180 266.000,256.400 266.000 C 256.620 266.000,256.800 265.381,256.800 264.624 C 256.800 263.867,256.980 263.136,257.200 263.000 C 257.420 262.864,257.600 262.223,257.600 261.576 C 257.600 260.929,257.754 260.400,257.943 260.400 C 258.132 260.400,258.403 259.275,258.547 257.900 C 258.690 256.525,258.986 255.340,259.204 255.267 C 259.422 255.193,259.600 254.428,259.600 253.567 C 259.600 252.705,259.780 252.000,260.000 252.000 C 260.220 252.000,260.400 251.269,260.400 250.376 C 260.400 249.396,260.558 248.851,260.800 249.000 C 261.038 249.147,261.200 248.671,261.200 247.824 C 261.200 247.041,261.380 246.400,261.600 246.400 C 261.820 246.400,262.000 245.680,262.000 244.800 C 262.000 243.920,262.180 243.200,262.400 243.200 C 262.620 243.200,262.800 242.660,262.800 242.000 C 262.800 241.340,262.980 240.800,263.200 240.800 C 263.420 240.800,263.600 239.979,263.600 238.976 C 263.600 237.973,263.760 237.252,263.957 237.373 C 264.153 237.494,264.423 236.965,264.557 236.197 C 265.400 231.358,265.471 231.712,263.809 232.469 C 263.228 232.734,262.684 233.385,262.557 233.969 C 262.434 234.536,262.241 235.270,262.129 235.600 C 261.818 236.517,260.991 239.678,258.152 250.800 C 255.744 260.233,254.842 263.714,252.140 274.000 C 250.873 278.824,249.438 284.378,246.665 295.200 C 245.453 299.930,243.705 306.680,242.779 310.200 C 241.854 313.720,240.055 320.642,238.781 325.581 C 237.190 331.753,236.244 334.725,235.756 335.081 C 234.735 335.829,165.286 335.847,164.278 335.100 C 163.848 334.781,162.951 332.063,161.804 327.600 C 160.814 323.750,159.480 318.620,158.840 316.200 C 156.398 306.967,150.435 283.902,149.999 282.000 C 149.822 281.230,149.404 279.610,149.070 278.400 C 148.085 274.833,140.385 245.135,138.067 235.959 C 137.319 232.998,136.674 232.000,135.507 232.000 C 134.819 232.000,134.745 232.188,134.956 233.400 " stroke="none" fill="#2c3e42" fill-rule="evenodd"></path><path id="path4" d="M112.100 64.300 C 121.505 64.360,136.895 64.360,146.300 64.300 C 155.705 64.240,148.010 64.191,129.200 64.191 C 110.390 64.191,102.695 64.240,112.100 64.300 M253.700 64.300 C 263.105 64.360,278.495 64.360,287.900 64.300 C 297.305 64.240,289.610 64.191,270.800 64.191 C 251.990 64.191,244.295 64.240,253.700 64.300 M104.200 67.879 C 98.784 69.233,98.803 70.686,104.465 88.600 C 114.355 119.893,118.738 131.067,122.784 135.299 L 124.600 137.199 147.620 137.199 C 171.553 137.200,171.600 137.197,171.600 135.553 C 171.600 135.176,171.811 134.796,172.070 134.710 C 172.502 134.566,172.626 126.689,172.207 126.011 C 172.125 125.879,171.948 124.698,171.811 123.386 C 171.046 116.020,169.515 107.508,165.217 86.715 C 162.143 71.849,161.552 70.311,158.200 68.462 C 157.025 67.814,106.636 67.270,104.200 67.879 M242.857 68.197 C 239.144 69.356,237.833 71.923,235.809 82.000 C 235.522 83.430,234.378 89.100,233.266 94.600 C 230.477 108.406,229.371 114.392,228.831 118.600 C 228.578 120.580,228.197 123.301,227.985 124.646 C 227.473 127.896,227.484 134.800,228.000 134.800 C 228.220 134.800,228.400 135.083,228.400 135.429 C 228.400 137.212,228.243 137.200,252.471 137.199 L 275.400 137.199 277.300 135.263 C 278.345 134.198,279.200 133.118,279.200 132.863 C 279.200 132.608,279.380 132.400,279.600 132.400 C 279.820 132.400,280.002 132.085,280.005 131.700 C 280.007 131.315,280.445 130.239,280.976 129.309 C 283.489 124.915,288.012 112.680,292.624 97.800 C 293.442 95.160,294.709 91.200,295.438 89.000 C 300.960 72.339,301.134 69.524,296.725 68.215 C 293.832 67.356,245.606 67.340,242.857 68.197 M155.718 72.554 C 158.345 73.859,159.714 81.376,158.002 85.100 L 157.405 86.400 134.668 86.400 L 111.931 86.400 109.865 84.246 C 106.607 80.847,104.236 74.098,105.835 72.771 C 107.548 71.349,152.895 71.152,155.718 72.554 M293.718 72.509 C 295.029 73.369,295.111 74.588,294.047 77.406 C 292.490 81.526,291.889 82.569,289.978 84.459 L 288.017 86.400 265.740 86.400 C 240.949 86.400,242.000 86.518,242.000 83.738 C 242.000 83.002,241.815 82.400,241.589 82.400 C 241.130 82.400,241.427 78.003,242.054 75.502 C 243.014 71.675,243.184 71.652,270.018 71.732 C 290.930 71.795,292.718 71.854,293.718 72.509 M300.229 87.429 C 300.081 88.015,300.038 88.572,300.132 88.666 C 300.227 88.760,300.424 88.358,300.571 87.771 C 300.719 87.185,300.762 86.628,300.668 86.534 C 300.573 86.440,300.376 86.842,300.229 87.429 M299.429 90.629 C 299.281 91.215,299.238 91.772,299.332 91.866 C 299.427 91.960,299.624 91.558,299.771 90.971 C 299.919 90.385,299.962 89.828,299.868 89.734 C 299.773 89.640,299.576 90.042,299.429 90.629 M199.200 196.876 C 199.200 197.488,200.110 197.661,200.624 197.147 C 201.087 196.684,201.020 196.600,200.186 196.600 C 199.644 196.600,199.200 196.724,199.200 196.876 M134.800 231.200 C 134.800 231.640,135.053 232.000,135.363 232.000 C 135.728 232.000,135.852 231.720,135.716 231.200 C 135.601 230.760,135.348 230.400,135.153 230.400 C 134.959 230.400,134.800 230.760,134.800 231.200 M264.400 231.200 C 264.400 231.640,264.569 232.000,264.775 232.000 C 264.981 232.000,265.123 231.640,265.090 231.200 C 265.057 230.760,264.888 230.400,264.715 230.400 C 264.542 230.400,264.400 230.760,264.400 231.200 M141.316 233.874 C 141.129 234.362,142.233 238.808,149.195 265.600 C 155.248 288.894,158.639 301.983,161.425 312.800 C 165.502 328.627,165.949 329.691,169.200 331.306 L 171.000 332.200 200.000 332.200 L 229.000 332.200 230.906 331.262 C 234.186 329.646,234.679 328.393,239.595 309.200 C 244.179 291.303,249.196 271.911,253.358 256.000 C 257.716 239.338,258.887 234.403,258.634 233.745 C 258.328 232.946,252.229 233.193,247.923 234.178 C 243.459 235.200,230.964 236.920,220.400 237.967 C 207.096 239.286,179.002 238.680,166.200 236.798 C 164.660 236.572,162.050 236.190,160.400 235.950 C 158.750 235.710,155.420 235.152,153.000 234.710 C 147.131 233.638,141.560 233.239,141.316 233.874 M152.800 235.243 C 155.550 235.670,158.790 236.184,160.000 236.385 C 164.210 237.083,167.813 237.597,169.800 237.782 C 170.900 237.884,174.140 238.200,177.000 238.484 C 180.334 238.815,188.230 239.000,199.000 239.000 C 214.890 239.000,218.584 238.829,229.400 237.592 C 234.570 237.001,244.390 235.463,248.599 234.585 C 250.140 234.264,252.409 234.001,253.641 234.000 L 255.883 234.000 255.300 236.100 C 254.980 237.255,254.394 239.460,253.999 241.000 C 253.339 243.571,251.327 251.369,247.755 265.200 C 246.987 268.170,245.188 275.100,243.757 280.600 C 240.654 292.518,238.610 300.409,236.452 308.800 C 232.195 325.351,231.884 326.237,229.774 327.847 L 228.262 329.000 200.000 329.000 L 171.738 329.000 170.325 327.923 C 167.954 326.114,168.679 328.484,158.783 290.200 C 157.703 286.020,155.461 277.380,153.802 271.000 C 152.143 264.620,149.631 254.900,148.220 249.400 C 144.729 235.788,144.477 234.848,144.200 234.400 C 143.923 233.952,145.471 234.104,152.800 235.243 M259.449 244.215 C 259.312 244.573,259.215 245.166,259.234 245.533 C 259.253 245.900,259.427 245.669,259.621 245.020 C 259.998 243.758,259.865 243.133,259.449 244.215 M141.044 247.400 C 141.373 248.871,141.602 249.190,141.594 248.167 C 141.591 247.745,141.405 247.130,141.182 246.800 C 140.885 246.362,140.848 246.524,141.044 247.400 M142.468 252.800 C 142.488 253.839,143.118 255.546,143.132 254.600 C 143.138 254.160,142.989 253.440,142.800 253.000 C 142.589 252.510,142.461 252.432,142.468 252.800 M144.056 259.200 C 144.056 259.530,144.211 260.160,144.400 260.600 C 144.617 261.104,144.744 261.178,144.744 260.800 C 144.744 260.470,144.589 259.840,144.400 259.400 C 144.183 258.896,144.056 258.822,144.056 259.200 M254.649 263.015 C 254.512 263.373,254.415 263.966,254.434 264.333 C 254.453 264.700,254.627 264.469,254.821 263.820 C 255.198 262.558,255.065 261.933,254.649 263.015 M146.644 269.400 C 146.973 270.871,147.202 271.190,147.194 270.167 C 147.191 269.745,147.005 269.130,146.782 268.800 C 146.485 268.362,146.448 268.524,146.644 269.400 M151.656 288.400 C 151.656 288.730,151.811 289.360,152.000 289.800 C 152.217 290.304,152.344 290.378,152.344 290.000 C 152.344 289.670,152.189 289.040,152.000 288.600 C 151.783 288.096,151.656 288.022,151.656 288.400 M247.849 289.015 C 247.712 289.373,247.615 289.966,247.634 290.333 C 247.653 290.700,247.827 290.469,248.021 289.820 C 248.398 288.558,248.265 287.933,247.849 289.015 M152.456 291.600 C 152.456 291.930,152.611 292.560,152.800 293.000 C 153.017 293.504,153.144 293.578,153.144 293.200 C 153.144 292.870,152.989 292.240,152.800 291.800 C 152.583 291.296,152.456 291.222,152.456 291.600 M153.444 295.400 C 153.773 296.871,154.002 297.190,153.994 296.167 C 153.991 295.745,153.805 295.130,153.582 294.800 C 153.285 294.362,153.248 294.524,153.444 295.400 M246.229 295.429 C 246.081 296.015,246.038 296.572,246.132 296.666 C 246.227 296.760,246.424 296.358,246.571 295.771 C 246.719 295.185,246.762 294.628,246.668 294.534 C 246.573 294.440,246.376 294.842,246.229 295.429 M245.429 298.629 C 245.281 299.215,245.238 299.772,245.332 299.866 C 245.427 299.960,245.624 299.558,245.771 298.971 C 245.919 298.385,245.962 297.828,245.868 297.734 C 245.773 297.640,245.576 298.042,245.429 298.629 M154.856 300.800 C 154.856 301.130,155.011 301.760,155.200 302.200 C 155.417 302.704,155.544 302.778,155.544 302.400 C 155.544 302.070,155.389 301.440,155.200 301.000 C 154.983 300.496,154.856 300.422,154.856 300.800 M244.629 301.829 C 244.481 302.415,244.438 302.972,244.532 303.066 C 244.627 303.160,244.824 302.758,244.971 302.171 C 245.119 301.585,245.162 301.028,245.068 300.934 C 244.973 300.840,244.776 301.242,244.629 301.829 M155.656 304.000 C 155.656 304.330,155.811 304.960,156.000 305.400 C 156.217 305.904,156.344 305.978,156.344 305.600 C 156.344 305.270,156.189 304.640,156.000 304.200 C 155.783 303.696,155.656 303.622,155.656 304.000 M237.850 327.650 C 237.709 328.353,237.669 329.002,237.759 329.092 C 237.850 329.183,238.048 328.691,238.200 328.000 C 238.352 327.309,238.393 326.659,238.291 326.558 C 238.189 326.456,237.991 326.947,237.850 327.650 M182.300 335.500 C 192.035 335.560,207.965 335.560,217.700 335.500 C 227.435 335.440,219.470 335.391,200.000 335.391 C 180.530 335.391,172.565 335.440,182.300 335.500 " stroke="none" fill="#54e3fb" fill-rule="evenodd"></path></g></svg>