<?xml version="1.0" standalone="no"?>
<!DOCTYPE svg PUBLIC "-//W3C//DTD SVG 20010904//EN"
 "http://www.w3.org/TR/2001/REC-SVG-20010904/DTD/svg10.dtd">
<svg version="1.0" xmlns="http://www.w3.org/2000/svg"
 width="512.000000pt" height="512.000000pt" viewBox="0 0 512.000000 512.000000"
 preserveAspectRatio="xMidYMid meet">
<metadata>
Created by potrace 1.15, written by Peter Selinger 2001-2017
</metadata>
<g transform="translate(0.000000,512.000000) scale(0.100000,-0.100000)"
fill="#000000" stroke="none">
<path d="M2329 5116 c-3 -3 -41 -7 -85 -7 -43 -1 -83 -5 -89 -9 -5 -4 -39 -13
-75 -19 -36 -7 -73 -15 -83 -18 -18 -5 -18 -4 -2 21 17 26 17 26 -7 26 -14 0
-43 -16 -68 -37 -29 -25 -70 -46 -129 -65 -47 -15 -88 -28 -90 -28 -2 0 21 27
52 59 32 33 57 62 57 65 0 3 -11 6 -25 6 -19 0 -51 -24 -118 -89 -82 -79 -105
-94 -212 -145 l-120 -57 138 139 c75 76 137 142 137 145 0 4 -12 7 -26 7 -21
0 -71 -44 -238 -207 -130 -129 -251 -237 -316 -285 -196 -142 -385 -332 -528
-528 -48 -65 -157 -186 -284 -316 -164 -167 -208 -217 -208 -238 0 -14 3 -26
7 -26 3 0 69 62 145 138 l139 137 -57 -120 c-51 -107 -66 -130 -145 -212 -65
-67 -89 -99 -89 -118 0 -14 3 -25 6 -25 3 0 32 25 65 57 32 31 59 54 59 52 0
-2 -13 -43 -28 -90 -19 -59 -40 -100 -65 -129 -21 -25 -37 -54 -37 -68 0 -24
0 -24 26 -7 25 16 26 16 21 -2 -3 -10 -11 -47 -18 -83 -6 -36 -15 -69 -19 -75
-21 -28 -19 -862 2 -849 7 5 14 -14 23 -68 6 -29 2 -44 -15 -68 -12 -16 -20
-39 -18 -51 l3 -21 27 21 26 21 12 -50 12 -50 -41 -46 c-23 -27 -41 -57 -41
-70 0 -13 2 -24 5 -24 3 0 25 18 49 40 24 23 46 37 49 33 2 -4 10 -25 17 -46
l12 -38 -66 -70 c-45 -47 -66 -77 -66 -94 0 -14 3 -25 6 -25 3 0 37 30 75 67
38 36 71 64 72 62 2 -2 11 -22 19 -44 l16 -40 -94 -97 c-69 -71 -94 -104 -94
-122 0 -15 3 -26 6 -26 4 0 51 43 105 96 l97 96 22 -42 21 -42 -125 -128 c-97
-98 -126 -134 -126 -154 0 -38 15 -27 154 113 l120 120 23 -41 24 -41 -161
-162 c-125 -127 -160 -168 -160 -189 0 -14 3 -26 7 -26 4 0 82 75 174 166
l166 166 22 -35 c11 -19 21 -38 21 -43 0 -4 -88 -96 -195 -205 -155 -155 -195
-202 -195 -223 0 -14 3 -26 7 -26 4 0 100 92 213 206 l207 205 25 -38 26 -38
-239 -241 c-194 -195 -239 -246 -239 -268 0 -22 3 -25 18 -17 9 5 123 116 252
245 129 130 237 236 240 236 3 0 16 -16 29 -36 l24 -35 -281 -283 c-230 -231
-282 -287 -282 -310 0 -22 3 -25 18 -17 9 5 143 136 297 290 l279 281 33 -32
33 -32 -330 -331 c-269 -270 -330 -336 -330 -358 0 -15 3 -27 7 -27 4 0 160
153 348 340 l340 340 31 -35 30 -34 -344 -343 c-189 -189 -348 -351 -353 -361
-8 -14 -5 -17 18 -17 22 0 88 61 373 345 l346 345 32 -33 32 -33 -296 -294
c-162 -162 -300 -303 -305 -312 -8 -15 -5 -18 17 -18 23 0 81 54 325 296 l297
296 37 -27 36 -28 -260 -262 c-144 -143 -261 -264 -261 -268 0 -4 12 -7 27 -7
21 0 75 49 278 250 138 137 255 250 260 250 6 -1 23 -12 40 -25 l30 -25 -218
-218 c-119 -120 -217 -221 -217 -225 0 -4 12 -7 27 -7 21 0 69 43 239 211
l213 212 35 -23 c20 -12 36 -25 36 -28 0 -4 -75 -81 -166 -172 -91 -91 -170
-173 -175 -182 -8 -15 -5 -18 17 -18 21 0 62 35 198 170 95 94 176 170 182
170 5 0 24 -9 43 -21 l34 -20 -142 -143 c-77 -78 -141 -146 -141 -149 0 -4 12
-7 26 -7 20 0 58 32 165 137 l139 136 40 -18 c22 -10 40 -21 40 -24 0 -4 -43
-49 -96 -101 -114 -114 -125 -130 -89 -130 20 0 53 26 134 105 l108 105 41
-17 c23 -9 42 -19 42 -22 0 -4 -30 -36 -66 -71 -83 -83 -94 -100 -59 -100 18
0 48 22 105 76 l79 76 38 -12 c21 -7 42 -15 46 -17 4 -3 -15 -29 -42 -58 -28
-30 -51 -56 -51 -59 0 -3 11 -6 24 -6 15 0 45 19 79 50 l55 50 51 -12 50 -11
-31 -36 c-32 -36 -32 -36 -9 -39 14 -2 37 8 61 27 38 30 41 31 89 20 46 -10
50 -13 41 -30 -9 -16 -7 -19 10 -19 11 0 31 6 43 14 18 11 32 12 72 4 59 -13
705 -20 720 -8 6 5 39 13 75 20 36 6 73 13 83 16 18 6 18 5 2 -20 -17 -26 -17
-26 7 -26 13 0 43 16 66 36 28 23 64 41 109 54 38 10 77 22 88 26 12 4 -1 -15
-32 -49 -29 -31 -53 -58 -53 -61 0 -3 11 -6 25 -6 18 0 50 23 110 81 76 73 96
86 196 129 l112 49 -122 -123 c-66 -68 -121 -126 -121 -129 0 -4 12 -7 26 -7
21 0 65 38 208 178 100 98 206 194 236 212 295 181 619 505 800 800 18 30 114
136 212 236 140 143 178 187 178 208 0 14 -3 26 -7 26 -3 0 -61 -55 -129 -121
l-123 -122 49 112 c43 100 56 120 129 196 58 60 81 92 81 110 0 14 -3 25 -6
25 -3 0 -30 -24 -61 -52 -34 -32 -53 -45 -49 -33 4 11 16 50 26 88 13 45 31
81 54 109 20 23 36 53 36 66 0 24 0 24 -26 7 -25 -16 -26 -16 -20 2 3 10 10
47 16 83 7 36 15 70 20 75 12 15 5 661 -8 720 -8 40 -7 54 4 72 8 12 14 32 14
43 0 17 -3 19 -19 10 -17 -9 -20 -5 -30 41 -11 48 -10 51 20 89 19 24 29 47
27 61 -3 23 -3 23 -39 -9 l-36 -31 -11 50 -12 51 50 55 c31 34 50 64 50 79 0
13 -3 24 -6 24 -3 0 -29 -23 -59 -51 -29 -27 -55 -46 -58 -42 -2 4 -10 25 -17
46 l-12 38 76 79 c54 57 76 87 76 105 0 35 -17 24 -100 -59 -35 -36 -67 -66
-71 -66 -3 0 -13 19 -22 42 l-17 41 105 108 c79 81 105 114 105 134 0 36 -16
25 -130 -89 -52 -53 -97 -96 -101 -96 -3 0 -14 18 -24 40 l-18 40 136 139
c105 107 137 145 137 165 0 14 -3 26 -7 26 -3 0 -71 -64 -149 -141 l-143 -142
-20 34 c-12 19 -21 38 -21 43 0 6 77 87 170 182 135 136 170 177 170 198 0 22
-3 25 -17 17 -10 -5 -92 -84 -183 -175 -91 -91 -168 -166 -172 -166 -3 0 -16
16 -28 36 l-23 35 212 213 c168 170 211 218 211 239 0 15 -3 27 -7 27 -4 0
-105 -98 -225 -217 l-218 -218 -25 30 c-13 17 -24 34 -25 40 0 5 113 122 250
260 201 203 250 257 250 278 0 15 -3 27 -7 27 -4 0 -125 -117 -268 -261 l-262
-260 -28 36 -27 37 296 297 c242 244 296 302 296 325 0 22 -3 25 -17 17 -10
-5 -151 -143 -313 -305 l-294 -296 -33 32 -33 32 345 346 c284 285 345 351
345 373 0 23 -3 26 -17 18 -10 -5 -172 -164 -361 -353 l-343 -344 -34 30 -35
31 340 340 c187 188 340 344 340 348 0 4 -12 7 -27 7 -22 0 -88 -61 -358 -330
l-331 -330 -32 33 -32 33 281 279 c154 154 285 288 290 298 8 14 5 17 -17 17
-23 0 -79 -52 -310 -282 l-283 -281 -35 24 c-20 13 -36 26 -36 29 0 3 106 111
236 240 129 129 240 243 245 253 8 14 5 17 -17 17 -22 0 -73 -45 -268 -239
l-241 -239 -38 26 -38 25 205 207 c114 113 206 209 206 213 0 4 -12 7 -26 7
-21 0 -68 -40 -223 -195 -109 -107 -201 -195 -205 -195 -5 0 -24 10 -43 21
l-35 22 166 166 c91 92 166 170 166 174 0 4 -12 7 -26 7 -21 0 -62 -35 -189
-160 l-162 -161 -41 24 -41 23 120 120 c140 139 151 154 113 154 -20 0 -56
-29 -154 -126 l-128 -125 -42 21 -42 22 96 97 c53 54 96 101 96 105 0 3 -11 6
-26 6 -18 0 -51 -25 -122 -94 l-97 -94 -40 16 c-22 8 -42 17 -44 19 -2 1 26
34 62 72 37 38 67 72 67 75 0 3 -11 6 -25 6 -17 0 -47 -21 -94 -66 l-70 -66
-38 12 c-21 7 -42 15 -46 17 -4 3 10 25 33 49 22 24 40 46 40 49 0 3 -11 5
-24 5 -13 0 -43 -18 -70 -41 l-46 -41 -50 12 -50 12 21 26 21 27 -21 3 c-12 2
-35 -6 -51 -18 -24 -17 -39 -21 -68 -15 -57 10 -73 16 -67 25 3 5 -23 9 -57 8
-35 0 -187 3 -338 7 -151 4 -278 4 -281 1z m531 -721 c51 -26 102 -78 127
-130 l15 -32 44 24 c53 30 141 40 201 24 100 -27 190 -123 200 -214 5 -44 5
-44 58 -56 93 -21 172 -89 205 -176 32 -81 5 -213 -57 -277 l-26 -28 28 -21
c78 -62 70 -188 -15 -246 -39 -27 -107 -30 -150 -8 l-30 16 0 -1038 c0 -711
-4 -1050 -11 -1077 -16 -56 -92 -129 -151 -144 -34 -9 -232 -12 -696 -12 -710
0 -715 0 -779 58 -61 56 -73 96 -73 240 l0 128 -130 22 c-224 37 -412 111
-481 189 -93 107 -150 362 -200 898 -26 287 -23 398 13 477 33 72 98 136 174
174 l59 29 283 3 282 3 0 55 0 54 -52 0 c-192 1 -321 217 -234 393 43 88 141
157 223 157 22 0 23 3 23 69 0 89 35 160 104 212 81 62 180 76 274 41 l48 -19
43 38 c57 51 126 73 205 66 33 -3 70 -8 81 -11 15 -5 27 4 47 34 75 108 228
146 348 85z"/>
<path d="M1222 2960 c-62 -38 -67 -66 -48 -305 38 -491 92 -812 143 -857 49
-43 237 -104 381 -123 l52 -7 0 656 0 656 -247 0 c-231 0 -250 -1 -281 -20z"/>
<path d="M203 4958 c-174 -172 -196 -198 -191 -231 3 -19 32 5 192 163 103
102 192 193 197 203 8 14 5 17 -17 17 -21 0 -60 -33 -181 -152z"/>
<path d="M303 4858 c-140 -139 -264 -265 -275 -281 -10 -15 -18 -37 -16 -50 3
-18 49 23 292 263 158 157 292 293 297 303 8 14 5 17 -17 17 -22 0 -75 -47
-281 -252z"/>
<path d="M402 4758 c-194 -194 -362 -365 -373 -381 -11 -15 -19 -37 -17 -50 4
-18 67 40 392 363 213 212 392 393 397 403 8 14 5 17 -18 17 -22 0 -89 -62
-381 -352z"/>
<path d="M502 4658 c-249 -249 -462 -465 -473 -481 -11 -15 -19 -37 -17 -50 4
-18 84 57 492 463 268 267 492 493 497 503 8 14 5 17 -18 17 -22 0 -104 -76
-481 -452z"/>
<path d="M602 4558 c-304 -304 -562 -565 -573 -581 -11 -15 -19 -37 -17 -50 4
-18 101 75 592 563 323 322 592 593 597 603 8 14 5 17 -18 17 -23 0 -118 -91
-581 -552z"/>
<path d="M702 4458 c-359 -359 -662 -665 -673 -681 -11 -15 -19 -37 -17 -50 4
-18 118 92 692 663 378 377 692 693 697 703 8 14 5 17 -18 17 -23 0 -133 -106
-681 -652z"/>
<path d="M4396 750 c-394 -393 -722 -723 -727 -732 -8 -15 -5 -18 18 -18 23 0
137 110 711 683 376 375 692 694 703 710 11 15 19 37 17 50 -4 18 -124 -97
-722 -693z"/>
<path d="M4496 650 c-339 -338 -622 -623 -627 -632 -8 -15 -5 -18 18 -18 23 0
123 95 611 583 321 320 592 594 603 610 11 15 19 37 17 50 -4 18 -106 -80
-622 -593z"/>
<path d="M4596 550 c-284 -283 -522 -523 -527 -533 -8 -14 -5 -17 18 -17 23 0
108 81 511 483 266 265 492 494 503 510 11 15 19 37 17 50 -4 18 -89 -62 -522
-493z"/>
<path d="M4696 450 c-229 -228 -422 -423 -427 -432 -8 -15 -5 -18 18 -18 22 0
93 66 411 383 211 210 392 394 403 410 11 15 19 37 17 50 -4 18 -72 -45 -422
-393z"/>
<path d="M4796 350 c-174 -173 -322 -323 -327 -332 -8 -15 -5 -18 17 -18 23 0
80 52 312 282 156 156 293 295 303 311 11 15 19 37 17 50 -4 18 -54 -28 -322
-293z"/>
<path d="M4896 250 c-119 -118 -222 -223 -227 -232 -8 -15 -5 -18 17 -18 21 0
65 37 211 183 205 202 226 227 221 260 -3 19 -37 -11 -222 -193z"/>
<path d="M4996 150 c-136 -133 -149 -150 -111 -150 18 0 49 23 111 82 102 98
127 130 122 161 -3 19 -19 7 -122 -93z"/>
</g>
</svg>
