<?xml version="1.0" encoding="utf-8"?>
<!DOCTYPE svg PUBLIC "-//W3C//DTD SVG 1.1//EN" "http://www.w3.org/Graphics/SVG/1.1/DTD/svg11.dtd">
<svg xmlns="http://www.w3.org/2000/svg" xmlns:xlink="http://www.w3.org/1999/xlink" version="1.1" baseProfile="full" width="246.907" height="246.906" viewBox="0 0 246.91 246.91" enable-background="new 0 0 246.91 246.91" xml:space="preserve">
	<path fill="#3D3D3D" fill-opacity="0.701961" stroke-width="8" stroke-linejoin="round" stroke="#FFFFFF" stroke-opacity="1" d="M 82.1948,5.39722C 96.6235,4.69867 111.052,4 124.805,4C 138.557,4 151.635,4.69867 164.711,5.39722C 205.969,5.39722 241.51,40.9384 241.51,82.1953C 242.208,95.6767 242.907,109.158 242.907,122.911C 242.907,136.663 242.208,150.687 241.51,164.711C 241.51,205.968 205.969,241.509 164.711,241.509C 151.809,242.208 138.907,242.906 125.154,242.906C 111.402,242.906 96.7983,242.208 82.1948,241.509C 40.9382,241.509 5.39746,205.968 5.39746,164.711C 4.69873,149.989 4,135.266 4,121.514C 4,107.761 4.69873,94.9781 5.39746,82.1951C 5.39746,40.9383 40.9382,5.39722 82.1948,5.39722 Z "/>
	<path fill="#987FFF" fill-opacity="0.803922" fill-rule="evenodd" stroke-width="7" stroke-linecap="round" stroke-linejoin="round" stroke="#FFFFFF" stroke-opacity="1" d="M 123.453,44.3304L 123.453,44.3304C 143.337,44.3304 159.455,60.4492 159.455,80.3326L 159.455,127.143C 159.455,147.027 143.337,163.146 123.453,163.146L 123.453,163.146C 103.57,163.146 87.4512,147.027 87.4512,127.143L 87.4512,80.3326C 87.4512,60.4492 103.57,44.3304 123.453,44.3304 Z M 173.414,103.026L 173.414,129.694C 173.414,157.286 151.046,179.654 123.453,179.654C 95.8608,179.654 73.493,157.286 73.493,129.694L 73.4929,103.068M 123.453,186.01L 123.453,195.359M 95.87,202.576L 151.036,202.576"/>
</svg>
