<svg id="svg" version="1.1" width="400" height="400" viewBox="0 0 400 400" xmlns="http://www.w3.org/2000/svg" xmlns:xlink="http://www.w3.org/1999/xlink" ><g id="svgg"><path id="path0" d="M0.000 200.000 L 0.000 400.000 97.800 400.000 C 151.590 400.000,195.594 399.865,195.588 399.700 C 195.581 399.535,195.132 398.680,194.590 397.800 L 193.604 396.200 193.602 299.149 C 193.600 219.050,193.507 202.021,193.070 201.658 C 192.700 201.351,185.047 201.185,167.770 201.109 L 143.000 201.000 141.187 200.097 C 139.050 199.032,137.339 196.641,136.999 194.245 C 136.871 193.340,136.819 155.580,136.883 110.334 L 137.000 28.069 138.205 26.334 C 138.910 25.320,140.150 24.226,141.190 23.700 L 142.970 22.800 201.059 22.800 C 262.431 22.800,260.422 22.737,262.550 24.725 C 265.422 27.408,265.181 19.467,265.191 111.913 C 265.201 201.964,265.336 196.327,263.115 198.690 C 260.800 201.155,260.280 201.200,234.159 201.200 C 218.510 201.200,210.082 201.342,209.574 201.614 C 208.812 202.022,208.800 203.529,208.790 297.914 C 208.780 396.380,208.782 396.280,207.186 398.309 C 206.754 398.858,206.400 399.464,206.400 399.654 C 206.400 399.848,248.993 400.000,303.200 400.000 L 400.000 400.000 400.000 200.000 L 400.000 0.000 200.000 0.000 L 0.000 0.000 0.000 200.000 M151.843 38.233 C 151.337 39.551,151.571 185.411,152.080 185.920 C 153.017 186.857,249.472 186.587,249.975 185.647 C 250.416 184.823,250.599 39.384,250.160 38.241 C 249.785 37.264,152.218 37.255,151.843 38.233 M249.188 39.178 C 249.472 39.708,249.603 58.508,249.597 97.967 C 249.589 163.879,249.992 156.940,246.179 156.743 C 243.535 156.606,242.905 157.422,242.735 161.200 C 242.608 164.028,242.650 164.207,243.473 164.324 C 244.592 164.484,245.340 163.150,245.001 161.603 C 244.524 159.433,247.194 158.196,249.100 159.703 C 249.745 160.212,249.825 183.233,249.186 184.426 C 248.535 185.643,153.465 185.643,152.814 184.426 C 152.046 182.991,152.257 39.800,153.029 39.029 C 154.120 37.937,248.603 38.085,249.188 39.178 M161.800 43.715 C 160.920 44.211,159.615 45.489,158.900 46.554 L 157.600 48.490 157.600 88.261 C 157.600 132.542,157.407 129.368,160.263 132.079 C 162.823 134.508,160.927 134.400,201.087 134.396 L 237.800 134.392 239.800 133.443 C 241.905 132.444,242.700 131.680,243.880 129.519 C 244.557 128.279,244.606 125.904,244.708 89.801 C 244.827 47.552,244.856 48.150,242.497 45.538 C 239.869 42.630,242.448 42.799,200.851 42.807 L 163.400 42.813 161.800 43.715 M240.233 44.820 C 240.963 45.271,241.974 46.306,242.480 47.120 L 243.400 48.600 243.508 88.101 C 243.627 131.950,243.793 129.000,241.066 131.544 C 238.967 133.503,237.629 133.571,201.000 133.580 C 164.908 133.588,163.708 133.531,161.250 131.699 C 158.421 129.590,158.614 132.471,158.476 90.400 C 158.328 45.269,158.158 47.478,161.969 44.910 L 163.318 44.000 201.112 44.000 C 238.517 44.000,238.919 44.008,240.233 44.820 M173.500 58.500 C 172.342 59.658,172.427 117.627,173.589 118.789 C 174.358 119.558,175.038 119.578,200.540 119.585 C 227.853 119.593,228.911 119.530,229.354 117.875 C 230.031 115.351,229.603 59.692,228.900 58.831 L 228.200 57.973 201.200 57.886 C 175.952 57.806,174.155 57.845,173.500 58.500 M227.920 59.280 C 228.671 60.031,228.609 117.329,227.856 117.954 C 227.460 118.282,219.987 118.378,200.556 118.303 L 173.800 118.200 173.697 89.000 C 173.640 72.940,173.679 59.575,173.784 59.300 C 174.056 58.587,227.207 58.567,227.920 59.280 M185.800 80.665 C 180.022 83.711,179.640 90.756,185.054 94.400 L 186.540 95.400 200.580 95.514 C 216.482 95.644,216.642 95.616,219.369 92.247 C 222.134 88.831,220.610 82.627,216.553 80.778 C 214.185 79.700,187.815 79.602,185.800 80.665 M217.068 82.064 C 221.706 85.135,220.827 91.958,215.507 94.181 C 213.319 95.095,188.689 95.098,186.502 94.185 C 181.571 92.125,180.557 86.167,184.509 82.479 C 186.149 80.949,187.276 80.846,201.630 80.925 L 215.460 81.000 217.068 82.064 M167.200 151.663 C 159.228 153.970,159.677 165.514,167.805 167.201 C 171.644 167.998,206.705 167.561,208.287 166.696 C 214.251 163.436,214.414 155.983,208.600 152.389 L 207.000 151.400 187.800 151.329 C 175.801 151.284,168.075 151.409,167.200 151.663 M226.007 152.007 C 217.919 155.782,220.150 166.860,229.127 167.502 C 236.270 168.013,239.488 165.900,240.779 159.848 C 241.380 157.032,240.820 156.415,238.000 156.784 C 237.556 156.842,237.591 156.719,238.134 156.311 C 242.183 153.275,231.452 149.466,226.007 152.007 M242.810 152.182 C 242.255 153.219,242.727 155.200,243.529 155.200 C 244.474 155.200,245.341 153.563,244.965 152.492 C 244.462 151.063,243.484 150.923,242.810 152.182 M207.900 153.108 C 213.480 156.089,212.892 164.316,206.981 165.957 C 204.862 166.545,169.601 166.562,167.489 165.976 C 160.173 163.944,160.963 154.270,168.600 152.363 C 171.979 151.519,206.138 152.167,207.900 153.108 M234.427 152.641 C 237.611 153.580,238.432 154.755,236.363 155.412 C 234.163 156.110,235.929 158.185,238.508 157.932 L 239.800 157.804 239.733 159.733 C 239.406 169.068,222.000 168.740,222.000 159.400 C 222.000 154.019,228.013 150.749,234.427 152.641 M310.400 214.963 C 326.725 220.062,336.826 232.479,337.483 248.259 C 337.742 254.491,337.986 254.176,332.229 255.065 C 323.273 256.448,323.601 256.594,323.598 251.224 C 323.587 235.862,313.935 227.214,296.800 227.214 C 279.417 227.214,270.000 235.722,270.000 251.429 C 270.000 265.461,276.210 272.447,295.200 279.774 C 317.794 288.493,327.094 294.118,332.594 302.390 C 340.984 315.012,341.050 334.732,332.743 347.238 C 327.494 355.140,319.688 360.596,309.800 363.275 C 304.872 364.609,287.406 364.573,282.400 363.218 C 264.855 358.469,253.610 344.056,253.602 326.309 C 253.600 322.079,253.707 321.974,259.000 321.073 C 268.079 319.526,267.598 319.287,267.605 325.349 C 267.616 336.389,272.077 344.042,281.000 348.331 C 288.847 352.102,303.451 352.124,311.400 348.376 C 329.145 340.008,329.844 313.064,312.600 302.162 C 308.237 299.403,304.332 297.669,290.600 292.388 C 263.330 281.900,255.542 272.338,256.103 250.032 C 256.574 231.293,268.800 216.954,286.600 214.263 C 289.977 213.753,308.245 214.290,310.400 214.963 M91.031 215.089 C 91.410 215.467,96.838 226.132,103.093 238.789 C 122.842 278.748,120.510 275.102,123.058 270.000 C 123.992 268.130,130.516 254.968,137.555 240.752 C 144.793 226.134,150.638 214.794,151.009 214.652 C 152.777 213.973,163.963 214.384,164.369 215.142 C 164.813 215.972,165.554 214.363,153.200 239.400 C 148.966 247.980,143.384 259.320,140.796 264.600 C 138.207 269.880,134.269 277.875,132.045 282.366 L 128.000 290.532 128.000 324.935 C 128.000 356.385,127.943 359.400,127.338 360.069 C 126.414 361.090,115.634 361.177,114.629 360.171 C 114.067 359.610,114.000 355.894,114.000 325.274 L 114.000 291.004 111.733 286.402 C 110.487 283.871,102.911 268.570,94.899 252.400 C 74.936 212.110,76.628 215.689,77.206 214.993 C 77.990 214.048,90.074 214.131,91.031 215.089 " stroke="none" fill="#043483" fill-rule="evenodd"></path><path id="path1" d="M174.145 59.800 C 174.062 60.020,174.040 73.120,174.097 88.912 L 174.200 117.623 200.719 117.623 C 215.305 117.623,227.410 117.517,227.619 117.388 C 228.081 117.103,228.138 60.836,227.677 60.111 C 227.275 59.478,174.385 59.171,174.145 59.800 M216.748 80.249 C 222.043 82.887,223.032 89.450,218.772 93.666 C 216.299 96.113,216.716 96.062,200.165 95.920 L 186.130 95.800 184.440 94.628 C 179.956 91.520,179.453 85.426,183.365 81.634 C 185.740 79.332,186.444 79.237,201.221 79.218 L 214.643 79.200 216.748 80.249 M240.455 155.087 C 240.081 155.756,241.487 157.600,242.372 157.600 C 243.363 157.600,243.574 156.475,242.773 155.457 C 241.813 154.237,241.004 154.107,240.455 155.087 M286.600 215.223 C 265.709 218.414,252.298 239.579,257.339 261.400 C 260.627 275.633,268.364 282.753,289.539 291.034 C 320.455 303.124,325.289 307.764,325.342 325.400 L 325.365 333.000 324.075 335.960 C 319.157 347.242,311.584 351.558,296.554 351.643 C 277.333 351.752,267.631 343.646,266.923 326.887 C 266.635 320.062,267.219 320.543,260.551 321.652 C 253.827 322.771,254.134 322.334,254.749 329.893 C 255.975 344.945,264.811 356.200,279.600 361.547 C 287.372 364.356,305.532 364.169,313.726 361.195 C 329.541 355.455,337.832 342.949,337.722 325.000 C 337.585 302.483,329.678 294.060,296.600 281.197 C 278.040 273.979,270.983 267.589,269.216 256.400 C 267.055 242.708,273.639 231.571,286.400 227.331 C 288.244 226.718,289.927 226.600,296.800 226.600 C 314.498 226.600,323.813 234.756,324.598 250.936 C 324.823 255.583,324.588 255.444,330.584 254.480 C 336.888 253.467,336.802 253.537,336.794 249.451 C 336.764 234.025,325.802 220.064,310.478 215.934 C 306.990 214.994,291.180 214.524,286.600 215.223 M78.160 215.759 C 77.961 216.280,83.172 226.978,105.752 272.400 L 114.600 290.200 114.707 324.567 C 114.782 348.941,114.942 359.089,115.256 359.467 C 115.851 360.184,126.009 360.231,126.720 359.520 C 127.086 359.154,127.200 350.884,127.200 324.740 L 127.200 290.440 133.453 277.720 C 136.893 270.724,142.534 259.240,145.991 252.200 C 149.447 245.160,154.842 234.224,157.979 227.897 C 161.158 221.486,163.582 216.130,163.454 215.797 C 163.223 215.194,152.927 214.869,151.491 215.420 C 151.176 215.541,147.992 221.526,144.415 228.720 C 120.207 277.419,121.878 274.200,120.800 274.200 C 119.700 274.200,120.389 275.521,100.155 234.600 C 95.368 224.920,91.094 216.595,90.656 216.100 C 89.664 214.978,78.576 214.676,78.160 215.759 " stroke="none" fill="#e2e7ef" fill-rule="evenodd"></path><path id="path2" d="M141.190 23.700 C 140.150 24.226,138.910 25.320,138.205 26.334 L 137.000 28.069 136.883 110.334 C 136.819 155.580,136.871 193.340,136.999 194.245 C 137.339 196.641,139.050 199.032,141.187 200.097 L 143.000 201.000 167.770 201.109 C 185.047 201.185,192.700 201.351,193.070 201.658 C 193.507 202.021,193.600 219.038,193.600 299.090 L 193.600 396.082 194.700 398.041 L 195.800 399.999 201.000 399.983 L 206.200 399.966 207.106 398.546 C 208.794 395.901,208.780 396.725,208.790 297.914 C 208.800 203.529,208.812 202.022,209.574 201.614 C 210.082 201.342,218.510 201.200,234.159 201.200 C 260.280 201.200,260.800 201.155,263.115 198.690 C 265.336 196.327,265.201 201.964,265.191 111.913 C 265.181 19.467,265.422 27.408,262.550 24.725 C 260.422 22.737,262.431 22.800,201.059 22.800 L 142.970 22.800 141.190 23.700 M250.160 38.241 C 250.599 39.384,250.416 184.823,249.975 185.647 C 249.472 186.587,153.017 186.857,152.080 185.920 C 151.571 185.411,151.337 39.551,151.843 38.233 C 152.218 37.255,249.785 37.264,250.160 38.241 M161.969 44.910 C 158.158 47.478,158.328 45.269,158.476 90.400 C 158.614 132.471,158.421 129.590,161.250 131.699 C 163.708 133.531,164.908 133.588,201.000 133.580 C 237.629 133.571,238.967 133.503,241.066 131.544 C 243.793 129.000,243.627 131.950,243.508 88.101 L 243.400 48.600 242.480 47.120 C 240.381 43.744,243.775 44.000,201.112 44.000 L 163.318 44.000 161.969 44.910 M228.900 58.831 C 229.603 59.692,230.031 115.351,229.354 117.875 C 228.911 119.530,227.853 119.593,200.540 119.585 C 175.038 119.578,174.358 119.558,173.589 118.789 C 172.427 117.627,172.342 59.658,173.500 58.500 C 174.155 57.845,175.952 57.806,201.200 57.886 L 228.200 57.973 228.900 58.831 M186.648 81.204 C 180.721 83.029,180.623 91.729,186.502 94.185 C 188.689 95.098,213.319 95.095,215.507 94.181 C 220.827 91.958,221.706 85.135,217.068 82.064 L 215.460 81.000 201.630 80.925 C 194.024 80.883,187.281 81.009,186.648 81.204 M168.600 152.363 C 160.963 154.270,160.173 163.944,167.489 165.976 C 169.601 166.562,204.862 166.545,206.981 165.957 C 212.892 164.316,213.480 156.089,207.900 153.108 C 206.138 152.167,171.979 151.519,168.600 152.363 M227.200 152.659 C 224.133 153.716,222.000 156.481,222.000 159.400 C 222.000 168.740,239.406 169.068,239.733 159.733 L 239.800 157.804 238.508 157.932 C 235.929 158.185,234.163 156.110,236.363 155.412 C 237.323 155.107,237.702 154.181,237.076 153.670 C 235.259 152.188,230.099 151.659,227.200 152.659 " stroke="none" fill="#040507" fill-rule="evenodd"></path><path id="path3" d="M153.029 39.029 C 152.257 39.800,152.046 182.991,152.814 184.426 C 153.220 185.185,154.179 185.200,201.000 185.200 C 247.821 185.200,248.780 185.185,249.186 184.426 C 249.825 183.233,249.745 160.212,249.100 159.703 C 247.194 158.196,244.524 159.433,245.001 161.603 C 245.340 163.150,244.592 164.484,243.473 164.324 C 242.650 164.207,242.608 164.028,242.735 161.200 C 242.905 157.422,243.535 156.606,246.179 156.743 C 249.992 156.940,249.589 163.879,249.597 97.967 C 249.603 58.508,249.472 39.708,249.188 39.178 C 248.603 38.085,154.120 37.937,153.029 39.029 M239.024 40.587 C 239.708 41.105,235.233 41.176,201.251 41.187 C 167.030 41.199,162.758 41.133,163.200 40.600 C 163.945 39.702,237.837 39.690,239.024 40.587 M161.745 42.200 C 161.618 42.530,161.242 42.800,160.908 42.800 C 160.415 42.800,160.395 42.688,160.800 42.200 C 161.074 41.870,161.450 41.600,161.636 41.600 C 161.823 41.600,161.871 41.870,161.745 42.200 M239.684 43.377 C 241.875 44.293,243.856 46.780,244.371 49.262 C 245.220 53.352,244.764 127.899,243.880 129.519 C 242.700 131.680,241.905 132.444,239.800 133.443 L 237.800 134.392 201.087 134.396 C 160.927 134.400,162.823 134.508,160.263 132.079 C 157.407 129.368,157.600 132.542,157.600 88.261 L 157.600 48.490 158.900 46.554 C 159.615 45.489,160.920 44.211,161.800 43.715 L 163.400 42.813 200.851 42.807 C 232.595 42.801,238.513 42.888,239.684 43.377 M156.800 48.000 C 156.800 48.800,156.600 49.200,156.200 49.200 C 155.491 49.200,155.484 49.156,155.990 47.826 C 156.507 46.466,156.800 46.529,156.800 48.000 M247.512 87.920 C 247.573 109.194,247.525 127.005,247.404 127.500 C 246.538 131.053,246.400 125.685,246.400 88.320 C 246.400 56.256,246.500 48.340,246.900 48.740 C 247.292 49.131,247.424 57.630,247.512 87.920 M173.867 59.067 C 173.720 59.213,173.605 59.618,173.612 59.967 C 173.623 60.509,173.682 60.501,174.026 59.911 C 174.434 59.210,225.578 58.756,227.354 59.438 C 228.333 59.814,228.346 117.381,227.367 117.757 C 227.019 117.891,214.953 118.000,200.554 118.000 L 174.374 118.000 173.991 117.100 C 173.614 116.213,173.609 116.215,173.704 117.200 L 173.800 118.200 200.556 118.303 C 219.987 118.378,227.460 118.282,227.856 117.954 C 228.609 117.329,228.671 60.031,227.920 59.280 C 227.397 58.757,174.386 58.548,173.867 59.067 M173.789 88.800 C 173.789 103.870,173.839 110.035,173.900 102.500 C 173.961 94.965,173.961 82.635,173.900 75.100 C 173.839 67.565,173.789 73.730,173.789 88.800 M187.567 79.560 C 182.431 80.608,179.271 86.636,181.533 91.069 C 182.781 93.515,186.275 96.258,187.097 95.437 C 187.227 95.306,187.068 95.200,186.744 95.200 C 185.790 95.200,183.501 93.306,182.308 91.529 C 179.892 87.932,181.461 82.927,185.684 80.761 C 187.982 79.583,213.959 79.597,216.553 80.778 C 222.232 83.366,222.145 91.649,216.406 94.684 C 215.453 95.188,214.990 95.600,215.375 95.600 C 215.761 95.600,216.644 95.199,217.338 94.709 C 222.929 90.760,222.556 83.478,216.600 80.263 C 214.924 79.359,191.351 78.788,187.567 79.560 M194.074 95.899 C 197.745 95.965,203.865 95.965,207.674 95.899 C 211.483 95.834,208.480 95.780,201.000 95.780 C 193.520 95.779,190.403 95.833,194.074 95.899 M156.800 128.824 C 156.800 130.238,156.187 130.089,155.903 128.606 C 155.774 127.930,155.889 127.600,156.255 127.600 C 156.596 127.600,156.800 128.058,156.800 128.824 M238.000 136.000 C 238.000 136.264,225.475 136.400,201.224 136.400 C 177.137 136.400,164.362 136.262,164.200 136.000 C 164.036 135.734,176.396 135.600,200.976 135.600 C 225.392 135.600,238.000 135.736,238.000 136.000 M244.000 148.582 C 244.000 148.902,243.550 149.828,243.000 150.638 C 241.780 152.436,241.728 153.947,242.839 155.358 C 243.514 156.217,243.583 156.539,243.190 157.012 C 242.664 157.645,241.600 157.814,241.600 157.264 C 241.600 157.080,241.130 156.714,240.556 156.453 C 239.681 156.054,239.554 155.799,239.773 154.888 C 239.917 154.290,240.019 153.038,239.999 152.107 C 239.980 151.177,240.164 150.041,240.408 149.585 C 241.138 148.220,244.000 147.422,244.000 148.582 M205.141 149.457 C 211.423 150.114,205.974 150.400,187.200 150.400 C 174.787 150.400,166.800 150.253,166.800 150.025 C 166.800 149.304,199.101 148.826,205.141 149.457 M233.344 149.454 C 236.644 149.907,235.316 150.400,230.800 150.400 C 228.353 150.400,226.400 150.235,226.400 150.028 C 226.400 149.322,230.132 149.014,233.344 149.454 M248.000 151.795 C 248.000 152.074,247.717 152.537,247.371 152.824 C 246.811 153.289,246.855 153.407,247.771 153.886 C 249.120 154.593,249.118 155.833,247.766 156.173 C 245.678 156.697,244.425 155.541,245.823 154.381 C 246.185 154.081,246.413 153.345,246.365 152.632 C 246.320 151.954,246.316 150.950,246.355 150.400 L 246.427 149.400 247.213 150.344 C 247.646 150.864,248.000 151.517,248.000 151.795 M208.600 152.389 C 214.414 155.983,214.251 163.436,208.287 166.696 C 206.705 167.561,171.644 167.998,167.805 167.201 C 161.164 165.822,159.104 157.150,164.453 153.090 C 166.792 151.315,167.606 151.254,187.800 151.329 L 207.000 151.400 208.600 152.389 M236.800 152.420 C 238.829 153.536,239.473 155.319,238.187 156.259 C 237.554 156.722,237.559 156.754,238.253 156.706 C 240.451 156.553,241.294 157.164,241.032 158.718 C 240.809 160.042,240.842 160.124,241.344 159.487 C 241.871 158.820,241.924 158.841,242.167 159.812 C 242.555 161.355,241.247 165.737,240.568 165.173 C 240.190 164.859,240.149 164.460,240.422 163.743 C 240.630 163.196,240.782 162.175,240.759 161.474 L 240.718 160.200 240.424 161.428 C 238.120 171.058,221.026 169.254,221.144 159.394 C 221.225 152.555,229.969 148.660,236.800 152.420 M244.965 152.492 C 245.341 153.563,244.474 155.200,243.529 155.200 C 242.727 155.200,242.255 153.219,242.810 152.182 C 243.484 150.923,244.462 151.063,244.965 152.492 M214.613 156.508 C 215.015 158.111,214.641 162.923,214.100 163.101 C 213.435 163.321,213.426 160.734,214.090 160.070 C 214.477 159.683,214.477 159.415,214.090 158.795 C 213.505 157.859,213.436 155.600,213.992 155.600 C 214.208 155.600,214.487 156.009,214.613 156.508 M160.000 159.400 C 160.000 159.730,159.730 160.000,159.400 160.000 C 159.070 160.000,158.800 159.730,158.800 159.400 C 158.800 159.070,159.070 158.800,159.400 158.800 C 159.730 158.800,160.000 159.070,160.000 159.400 M247.941 160.355 C 248.357 160.619,248.380 160.890,248.041 161.523 C 247.799 161.976,247.600 162.787,247.600 163.325 C 247.600 165.606,246.521 165.284,246.278 162.930 C 245.978 160.028,246.398 159.377,247.941 160.355 M208.700 168.700 C 208.814 169.043,208.386 169.196,207.333 169.187 C 205.885 169.175,205.844 169.141,206.592 168.576 C 207.488 167.898,208.452 167.955,208.700 168.700 M227.600 168.836 C 228.014 169.070,227.741 169.179,226.724 169.188 C 225.289 169.200,224.553 168.780,225.082 168.251 C 225.356 167.977,226.588 168.264,227.600 168.836 M168.400 168.800 C 168.847 169.089,168.624 169.189,167.524 169.194 C 166.712 169.197,165.936 169.020,165.800 168.800 C 165.481 168.284,167.602 168.284,168.400 168.800 M236.400 168.800 C 236.400 169.020,235.849 169.200,235.176 169.200 C 234.463 169.200,234.056 169.033,234.200 168.800 C 234.336 168.580,234.887 168.400,235.424 168.400 C 235.961 168.400,236.400 168.580,236.400 168.800 M248.000 182.963 C 248.000 183.728,247.836 183.882,247.200 183.716 C 246.214 183.458,246.149 182.524,247.100 182.276 C 247.485 182.175,247.845 182.072,247.900 182.046 C 247.955 182.021,248.000 182.433,248.000 182.963 M155.200 183.000 C 155.200 183.330,155.020 183.600,154.800 183.600 C 154.580 183.600,154.400 183.330,154.400 183.000 C 154.400 182.670,154.580 182.400,154.800 182.400 C 155.020 182.400,155.200 182.670,155.200 183.000 M286.600 214.263 C 268.800 216.954,256.574 231.293,256.103 250.032 C 255.542 272.338,263.330 281.900,290.600 292.388 C 304.332 297.669,308.237 299.403,312.600 302.162 C 329.844 313.064,329.145 340.008,311.400 348.376 C 303.451 352.124,288.847 352.102,281.000 348.331 C 272.077 344.042,267.616 336.389,267.605 325.349 C 267.598 319.287,268.079 319.526,259.000 321.073 C 253.707 321.974,253.600 322.079,253.602 326.309 C 253.610 344.056,264.855 358.469,282.400 363.218 C 290.000 365.275,308.020 364.454,314.600 361.750 C 330.673 355.146,338.613 343.047,338.587 325.200 C 338.563 309.302,333.770 299.969,321.454 291.842 C 317.017 288.914,307.243 284.421,295.200 279.774 C 276.210 272.447,270.000 265.461,270.000 251.429 C 270.000 235.722,279.417 227.214,296.800 227.214 C 313.935 227.214,323.587 235.862,323.598 251.224 C 323.601 256.594,323.273 256.448,332.229 255.065 C 337.986 254.176,337.742 254.491,337.483 248.259 C 336.826 232.479,326.725 220.062,310.400 214.963 C 308.245 214.290,289.977 213.753,286.600 214.263 M77.206 214.993 C 76.628 215.689,74.936 212.110,94.899 252.400 C 102.911 268.570,110.487 283.871,111.733 286.402 L 114.000 291.004 114.000 325.274 C 114.000 355.894,114.067 359.610,114.629 360.171 C 115.634 361.177,126.414 361.090,127.338 360.069 C 127.943 359.400,128.000 356.385,128.000 324.935 L 128.000 290.532 132.045 282.366 C 134.269 277.875,138.207 269.880,140.796 264.600 C 143.384 259.320,148.966 247.980,153.200 239.400 C 165.554 214.363,164.813 215.972,164.369 215.142 C 163.963 214.384,152.777 213.973,151.009 214.652 C 150.638 214.794,144.793 226.134,137.555 240.752 C 130.516 254.968,123.992 268.130,123.058 270.000 C 120.510 275.102,122.842 278.748,103.093 238.789 C 96.838 226.132,91.410 215.467,91.031 215.089 C 90.074 214.131,77.990 214.048,77.206 214.993 M309.957 215.595 C 325.106 219.294,336.062 232.583,337.050 248.453 C 337.375 253.674,337.395 253.653,331.034 254.591 C 328.633 254.944,326.563 255.295,326.434 255.370 C 325.187 256.094,324.400 254.733,324.400 251.848 C 324.400 235.745,314.543 226.817,296.752 226.805 C 278.968 226.793,269.237 235.505,269.207 251.465 C 269.179 266.271,275.521 272.683,299.600 282.191 C 330.823 294.521,338.577 303.755,337.899 327.800 C 337.464 343.230,329.795 354.534,315.600 360.672 C 306.324 364.682,287.187 364.870,277.651 361.044 C 263.621 355.415,255.049 343.445,254.503 328.718 L 254.285 322.835 255.243 322.460 C 255.769 322.254,257.640 321.859,259.400 321.582 C 261.160 321.305,263.379 320.952,264.330 320.798 C 266.990 320.367,267.200 320.782,267.200 326.466 C 267.200 342.641,277.570 351.600,296.291 351.600 C 309.091 351.600,316.485 348.251,321.613 340.133 C 326.449 332.475,326.766 319.115,322.298 311.240 C 317.947 303.570,312.140 299.990,290.800 291.821 C 268.949 283.456,260.771 276.237,257.404 262.339 C 252.033 240.172,264.632 218.973,285.400 215.231 C 291.444 214.142,304.818 214.341,309.957 215.595 M90.595 215.596 C 90.915 215.861,94.219 222.226,97.938 229.739 C 122.056 278.465,120.211 274.987,121.412 273.990 C 121.749 273.710,124.342 268.783,127.174 263.041 C 140.922 235.170,150.440 216.189,150.896 215.734 C 151.535 215.095,163.076 214.916,163.695 215.535 C 163.976 215.816,162.676 218.835,159.590 225.073 C 157.106 230.093,151.796 240.860,147.790 249.000 C 143.784 257.140,137.557 269.740,133.953 277.000 L 127.400 290.200 127.293 324.787 C 127.234 344.057,127.031 359.529,126.834 359.726 C 126.134 360.426,115.458 360.057,114.900 359.313 C 114.509 358.793,114.400 351.201,114.400 324.528 L 114.400 290.410 104.153 269.705 C 82.691 226.342,77.600 216.005,77.600 215.793 C 77.600 214.885,89.520 214.704,90.595 215.596 " stroke="none" fill="#4b91e6" fill-rule="evenodd"></path><path id="path4" d="M163.200 40.600 C 162.758 41.133,167.030 41.199,201.251 41.187 C 235.233 41.176,239.708 41.105,239.024 40.587 C 237.837 39.690,163.945 39.702,163.200 40.600 M160.800 42.200 C 160.395 42.688,160.415 42.800,160.908 42.800 C 161.242 42.800,161.618 42.530,161.745 42.200 C 161.871 41.870,161.823 41.600,161.636 41.600 C 161.450 41.600,161.074 41.870,160.800 42.200 M155.990 47.826 C 155.484 49.156,155.491 49.200,156.200 49.200 C 156.600 49.200,156.800 48.800,156.800 48.000 C 156.800 46.529,156.507 46.466,155.990 47.826 M246.400 88.320 C 246.400 125.685,246.538 131.053,247.404 127.500 C 247.902 125.459,247.414 49.254,246.900 48.740 C 246.500 48.340,246.400 56.256,246.400 88.320 M189.129 59.500 C 196.240 59.561,207.760 59.561,214.729 59.500 C 221.698 59.438,215.880 59.388,201.800 59.388 C 187.720 59.388,182.018 59.439,189.129 59.500 M188.100 117.900 C 195.085 117.961,206.515 117.961,213.500 117.900 C 220.485 117.839,214.770 117.788,200.800 117.788 C 186.830 117.788,181.115 117.839,188.100 117.900 M155.903 128.606 C 156.187 130.089,156.800 130.238,156.800 128.824 C 156.800 128.058,156.596 127.600,156.255 127.600 C 155.889 127.600,155.774 127.930,155.903 128.606 M164.200 136.000 C 164.362 136.262,177.137 136.400,201.224 136.400 C 225.475 136.400,238.000 136.264,238.000 136.000 C 238.000 135.736,225.392 135.600,200.976 135.600 C 176.396 135.600,164.036 135.734,164.200 136.000 M241.726 148.403 C 240.541 148.880,239.926 150.157,240.027 151.927 C 240.074 152.737,239.974 153.908,239.805 154.529 C 239.637 155.150,239.656 155.783,239.849 155.936 C 240.042 156.089,240.161 156.142,240.114 156.054 C 239.847 155.559,240.964 154.349,241.547 154.502 C 242.097 154.646,242.198 154.445,242.081 153.440 C 241.983 152.592,242.263 151.720,242.969 150.682 C 244.606 148.272,244.146 147.428,241.726 148.403 M168.100 149.489 C 167.385 149.578,166.800 149.819,166.800 150.025 C 166.800 150.253,174.787 150.400,187.200 150.400 C 205.974 150.400,211.423 150.114,205.141 149.457 C 202.544 149.186,170.321 149.214,168.100 149.489 M227.300 149.482 C 224.997 149.926,226.806 150.400,230.800 150.400 C 233.220 150.400,235.200 150.244,235.200 150.054 C 235.200 149.392,229.798 149.001,227.300 149.482 M246.355 150.400 C 246.316 150.950,246.320 151.954,246.365 152.632 C 246.413 153.345,246.185 154.081,245.823 154.381 C 244.425 155.541,245.678 156.697,247.766 156.173 C 249.118 155.833,249.120 154.593,247.771 153.886 C 246.855 153.407,246.811 153.289,247.371 152.824 C 248.205 152.132,248.164 151.486,247.213 150.344 L 246.427 149.400 246.355 150.400 M213.600 156.805 C 213.600 157.468,213.820 158.364,214.090 158.795 C 214.477 159.415,214.477 159.683,214.090 160.070 C 213.426 160.734,213.435 163.321,214.100 163.101 C 214.641 162.923,215.015 158.111,214.613 156.508 C 214.283 155.193,213.600 155.393,213.600 156.805 M158.800 159.400 C 158.800 159.730,159.070 160.000,159.400 160.000 C 159.730 160.000,160.000 159.730,160.000 159.400 C 160.000 159.070,159.730 158.800,159.400 158.800 C 159.070 158.800,158.800 159.070,158.800 159.400 M241.293 159.600 C 241.022 160.034,240.800 160.920,240.800 161.569 C 240.800 162.217,240.630 163.196,240.422 163.743 C 240.148 164.463,240.190 164.860,240.575 165.179 C 241.288 165.771,242.624 161.046,242.121 159.705 C 241.793 158.828,241.777 158.825,241.293 159.600 M246.245 160.327 C 245.754 161.122,246.503 165.212,247.056 164.753 C 247.355 164.505,247.600 163.862,247.600 163.325 C 247.600 162.787,247.799 161.976,248.041 161.523 C 248.626 160.430,246.894 159.277,246.245 160.327 M206.592 168.576 C 205.844 169.141,205.885 169.175,207.333 169.187 C 208.386 169.196,208.814 169.043,208.700 168.700 C 208.452 167.955,207.488 167.898,206.592 168.576 M225.082 168.251 C 224.553 168.780,225.289 169.200,226.724 169.188 C 227.741 169.179,228.014 169.070,227.600 168.836 C 226.588 168.264,225.356 167.977,225.082 168.251 M165.800 168.800 C 165.936 169.020,166.712 169.197,167.524 169.194 C 168.624 169.189,168.847 169.089,168.400 168.800 C 167.602 168.284,165.481 168.284,165.800 168.800 M234.200 168.800 C 234.056 169.033,234.463 169.200,235.176 169.200 C 235.849 169.200,236.400 169.020,236.400 168.800 C 236.400 168.580,235.961 168.400,235.424 168.400 C 234.887 168.400,234.336 168.580,234.200 168.800 M247.100 182.276 C 246.149 182.524,246.214 183.458,247.200 183.716 C 247.836 183.882,248.000 183.728,248.000 182.963 C 248.000 182.433,247.955 182.021,247.900 182.046 C 247.845 182.072,247.485 182.175,247.100 182.276 M154.400 183.000 C 154.400 183.330,154.580 183.600,154.800 183.600 C 155.020 183.600,155.200 183.330,155.200 183.000 C 155.200 182.670,155.020 182.400,154.800 182.400 C 154.580 182.400,154.400 182.670,154.400 183.000 M293.718 214.698 C 295.433 214.773,298.133 214.772,299.718 214.697 C 301.303 214.621,299.900 214.559,296.600 214.560 C 293.300 214.561,292.003 214.622,293.718 214.698 M286.900 215.076 C 287.285 215.176,287.915 215.176,288.300 215.076 C 288.685 214.975,288.370 214.893,287.600 214.893 C 286.830 214.893,286.515 214.975,286.900 215.076 M149.265 218.217 C 148.595 219.688,148.723 220.002,149.447 218.665 C 149.786 218.040,149.988 217.454,149.896 217.363 C 149.805 217.271,149.521 217.656,149.265 218.217 M266.587 225.300 L 264.200 227.800 266.700 225.413 C 268.075 224.099,269.200 222.974,269.200 222.913 C 269.200 222.617,268.805 222.978,266.587 225.300 M326.400 225.000 C 327.146 225.770,327.847 226.400,327.957 226.400 C 328.067 226.400,327.546 225.770,326.800 225.000 C 326.054 224.230,325.353 223.600,325.243 223.600 C 325.133 223.600,325.654 224.230,326.400 225.000 M293.300 226.698 C 295.225 226.771,298.375 226.771,300.300 226.698 C 302.225 226.625,300.650 226.565,296.800 226.565 C 292.950 226.565,291.375 226.625,293.300 226.698 M275.385 234.100 L 273.400 236.200 275.500 234.215 C 277.451 232.371,277.783 232.000,277.485 232.000 C 277.422 232.000,276.477 232.945,275.385 234.100 M316.400 232.525 C 316.400 232.594,316.985 233.179,317.700 233.825 L 319.000 235.000 317.825 233.700 C 316.730 232.488,316.400 232.216,316.400 232.525 M336.878 249.820 C 336.835 251.371,336.621 252.857,336.401 253.121 C 336.182 253.386,336.281 253.362,336.621 253.067 C 337.097 252.655,337.207 251.894,337.098 249.766 L 336.957 247.000 336.878 249.820 M268.942 251.400 C 268.941 253.380,269.008 254.240,269.092 253.312 C 269.176 252.384,269.177 250.764,269.095 249.712 C 269.012 248.660,268.943 249.420,268.942 251.400 M324.501 251.400 C 324.505 252.280,324.587 252.593,324.683 252.095 C 324.779 251.598,324.775 250.878,324.675 250.495 C 324.575 250.113,324.496 250.520,324.501 251.400 M256.493 257.600 C 256.493 258.370,256.575 258.685,256.676 258.300 C 256.776 257.915,256.776 257.285,256.676 256.900 C 256.575 256.515,256.493 256.830,256.493 257.600 M275.583 269.300 C 277.241 271.066,277.600 271.384,277.600 271.083 C 277.600 271.019,276.745 270.164,275.700 269.183 L 273.800 267.400 275.583 269.300 M265.800 278.000 C 266.659 278.880,267.452 279.600,267.562 279.600 C 267.672 279.600,267.059 278.880,266.200 278.000 C 265.341 277.120,264.548 276.400,264.438 276.400 C 264.328 276.400,264.941 277.120,265.800 278.000 M306.800 285.400 C 307.350 285.714,307.980 285.972,308.200 285.972 C 308.420 285.972,308.150 285.714,307.600 285.400 C 307.050 285.086,306.420 284.828,306.200 284.828 C 305.980 284.828,306.250 285.086,306.800 285.400 M114.591 324.800 C 114.591 343.610,114.640 351.305,114.700 341.900 C 114.760 332.495,114.760 317.105,114.700 307.700 C 114.640 298.295,114.591 305.990,114.591 324.800 M325.200 295.325 C 325.200 295.394,325.785 295.979,326.500 296.625 L 327.800 297.800 326.625 296.500 C 325.530 295.288,325.200 295.016,325.200 295.325 M318.000 305.800 C 319.195 307.010,320.263 308.000,320.373 308.000 C 320.483 308.000,319.595 307.010,318.400 305.800 C 317.205 304.590,316.137 303.600,316.027 303.600 C 315.917 303.600,316.805 304.590,318.000 305.800 M337.720 320.800 C 337.720 322.010,337.795 322.505,337.887 321.900 C 337.978 321.295,337.978 320.305,337.887 319.700 C 337.795 319.095,337.720 319.590,337.720 320.800 M266.950 325.800 C 266.951 328.220,267.016 329.158,267.096 327.885 C 267.176 326.612,267.175 324.632,267.094 323.485 C 267.014 322.338,266.949 323.380,266.950 325.800 M325.346 325.800 C 325.347 328.000,325.414 328.849,325.495 327.687 C 325.576 326.524,325.576 324.724,325.493 323.687 C 325.411 322.649,325.345 323.600,325.346 325.800 M254.520 330.000 C 254.520 331.210,254.595 331.705,254.687 331.100 C 254.778 330.495,254.778 329.505,254.687 328.900 C 254.595 328.295,254.520 328.790,254.520 330.000 M337.709 330.800 C 337.709 331.790,337.787 332.195,337.882 331.700 C 337.978 331.205,337.978 330.395,337.882 329.900 C 337.787 329.405,337.709 329.810,337.709 330.800 M318.378 344.300 L 317.000 345.800 318.500 344.422 C 319.896 343.138,320.184 342.800,319.878 342.800 C 319.812 342.800,319.137 343.475,318.378 344.300 M265.600 353.325 C 265.600 353.394,266.185 353.979,266.900 354.625 L 268.200 355.800 267.025 354.500 C 265.930 353.288,265.600 353.016,265.600 353.325 M286.900 363.476 C 287.285 363.576,287.915 363.576,288.300 363.476 C 288.685 363.375,288.370 363.293,287.600 363.293 C 286.830 363.293,286.515 363.375,286.900 363.476 M304.100 363.476 C 304.485 363.576,305.115 363.576,305.500 363.476 C 305.885 363.375,305.570 363.293,304.800 363.293 C 304.030 363.293,303.715 363.375,304.100 363.476 " stroke="none" fill="#589ded" fill-rule="evenodd"></path></g></svg>