<?xml version="1.0" encoding="utf-8"?>
<!-- Generator: Adobe Illustrator 16.0.0, SVG Export Plug-In . SVG Version: 6.00 Build 0)  -->
<!DOCTYPE svg PUBLIC "-//W3C//DTD SVG 1.1//EN" "http://www.w3.org/Graphics/SVG/1.1/DTD/svg11.dtd">
<svg version="1.1" id="Layer_1" xmlns="http://www.w3.org/2000/svg" xmlns:xlink="http://www.w3.org/1999/xlink" x="0px" y="0px"
	 width="111.1px" height="200px" viewBox="0 0 111.1 200" enable-background="new 0 0 111.1 200" xml:space="preserve">
<g>
	<path fill-rule="evenodd" clip-rule="evenodd" fill="#F7B01B" d="M55.791,51.853c6.382,0.154,11.978,0.894,17.533,1.986
		c7.902,1.555,15.607,3.803,23.145,6.633c0.955,0.359,1.875,0.824,2.848,1.132c1.984,0.631,2.934,2.124,3.566,3.964
		c1.834,5.324,2.975,10.819,4.068,16.325c1.206,6.06,2.235,12.151,3.093,18.267c0.496,3.521,1.262,7.032,1.006,10.625
		c-0.24,3.408-1.693,6.08-4.747,7.795c-5.189,2.916-10.525,5.547-15.838,8.219c-9.379,4.717-18.807,9.338-28.145,14.133
		c-4.6,2.361-8.957,2.332-13.559-0.025c-11.004-5.639-22.097-11.102-33.146-16.654c-3.626-1.822-7.243-3.66-10.78-5.652
		c-3.722-2.1-5.063-5.523-4.804-9.493c0.39-5.976,1.472-11.877,2.457-17.784c0.955-5.722,2-11.424,3.329-17.069
		c0.79-3.357,1.59-6.713,2.951-9.907c0.531-1.248,1.376-1.99,2.667-2.4c7.336-2.333,14.797-4.194,22.275-5.991
		c5.527-1.328,11.073-2.583,16.691-3.478C52.422,52.155,54.439,51.742,55.791,51.853z M79.374,106.783
		c0-3.492,0.012-6.983-0.01-10.473c-0.006-0.869,0.184-1.177,0.99-0.564c0.689,0.523,1.428,0.396,2.152,0.066
		c0.738-0.336,1.305-0.898,1.865-1.469c1.264-1.286,1.219-2.641-0.168-3.809c-0.668-0.562-1.377-1.071-2.068-1.604
		c-7.988-6.153-15.971-12.313-23.966-18.456c-1.776-1.364-3.321-1.379-5.07,0.012c-4.507,3.586-8.98,7.213-13.468,10.823
		c-4.194,3.373-8.389,6.746-12.581,10.121c-1.539,1.239-1.605,2.703-0.194,4.064c1.716,1.655,3.183,1.669,5.353,0.083
		c0.283-0.207,0.522-0.707,0.931-0.48c0.371,0.207,0.185,0.699,0.186,1.061c0.011,6.905,0.003,13.811,0.01,20.716
		c0.002,2.117,1.075,3.232,3.197,3.25c3.264,0.029,6.527,0.025,9.79-0.006c1.476-0.014,2.677-0.561,3.176-2.086
		c0.134-0.408,0.388-0.523,0.762-0.523c3.908,0.002,7.816,0.002,11.723,0.008c0.365,0,0.666,0.117,0.764,0.533
		c0.377,1.592,1.58,2.055,3.004,2.068c3.49,0.033,6.982,0.037,10.473-0.002c2.08-0.025,3.145-1.148,3.15-3.203
		C79.382,113.537,79.376,110.16,79.374,106.783z"/>
	<path fill-rule="evenodd" clip-rule="evenodd" fill="#515151" d="M18.422,43.341c0.084-3.852-0.203-8.292,0.541-12.707
		C21.924,13.052,37.437-0.042,55.309,0C73.292,0.042,88.515,12.485,92.04,30.025c0.588,2.919,0.736,5.872,0.625,8.837
		c-0.152,4.085-3.432,7.148-7.529,7.098c-3.961-0.049-7.209-3.255-7.244-7.288c-0.023-2.861-0.162-5.681-1.074-8.427
		c-3.195-9.645-13.037-16.278-22.916-15.419c-10.753,0.937-18.957,8.626-20.459,19.202c-0.284,1.999-0.115,4.018-0.128,6.027
		c-0.021,3.378-0.027,6.756,0.012,10.133c0.008,0.757-0.137,1.123-0.971,1.3c-4.38,0.934-8.702,2.102-12.957,3.5
		c-0.777,0.256-0.997,0.114-0.99-0.705C18.44,50.83,18.422,47.376,18.422,43.341z"/>
	<path fill-rule="evenodd" clip-rule="evenodd" fill="#515151" d="M84.112,183.291c0.303-2.65,2.43-4.877,4.99-5.252
		c1.85-0.271,3.713-0.104,5.568-0.127c2.012-0.025,4.021-0.039,6.031,0c3.928,0.076,6.57,2.641,6.656,6.574
		c0.082,3.678,0.057,7.359,0.01,11.039c-0.037,2.779-1.533,4.348-4.297,4.385c-5.918,0.082-11.836,0.119-17.752,0.064
		c-3.396-0.033-4.852-1.645-4.861-5.064c-0.004-1.25-0.027-2.506,0.072-3.752c0.168-2.076,1.426-3.422,3.473-3.779
		c0.705-0.123,1.432-0.174,2.148-0.176c4.971-0.014,9.939-0.027,14.908,0.014c0.9,0.008,1.162-0.246,1.154-1.15
		c-0.025-2.943,0.01-2.939-2.973-2.908c-4.666,0.049-9.33,0.09-13.996,0.133C84.87,183.294,84.495,183.291,84.112,183.291z
		 M94.085,192.382c-2.234,0-4.471,0-6.707,0c-1.773,0-1.744,0-1.723,1.785c0.008,0.635,0.182,0.844,0.832,0.842
		c4.926-0.025,9.854-0.047,14.779,0.008c1.166,0.012,0.918-0.693,0.922-1.334c0.004-0.654,0.219-1.363-0.939-1.324
		C98.862,192.437,96.474,192.382,94.085,192.382z"/>
	<path fill-rule="evenodd" clip-rule="evenodd" fill="#515151" d="M28.184,183.128c0.622-3.135,2.838-5.127,5.981-5.188
		c3.677-0.072,7.357-0.08,11.035-0.014c3.393,0.063,6.043,2.51,6.177,5.918c0.16,4.088,0.111,8.189,0.016,12.283
		c-0.054,2.244-1.619,3.717-3.937,3.748c-6.104,0.08-12.212,0.121-18.316,0.049c-3.099-0.037-4.581-1.729-4.59-4.863
		c-0.004-1.365-0.059-2.742,0.106-4.088c0.254-2.076,1.458-3.254,3.507-3.625c0.666-0.121,1.355-0.168,2.034-0.168
		c4.969-0.016,9.938-0.041,14.905,0.018c1.037,0.014,1.259-0.297,1.236-1.277c-0.063-2.805-0.02-2.797-2.868-2.795
		C38.39,183.134,33.309,183.128,28.184,183.128z M38.013,194.927c0-0.002,0-0.004,0-0.004c2.239,0,4.479,0.02,6.718-0.008
		c1.777-0.021,1.54,0.396,1.597-1.643c0.02-0.672-0.157-0.934-0.881-0.928c-4.935,0.027-9.869,0.045-14.803-0.006
		c-1.199-0.014-0.877,0.742-0.89,1.355c-0.013,0.596-0.253,1.287,0.858,1.254C33.078,194.878,35.546,194.927,38.013,194.927z"/>
	<path fill-rule="evenodd" clip-rule="evenodd" fill="#F7B01B" d="M90.37,151.275c3.605,0,7.213-0.031,10.818,0.01
		c3.111,0.033,5.668,2.363,6.152,5.508c0.54,3.484-1.107,6.732-3.949,7.797c-0.943,0.354-1.93,0.348-2.918,0.379
		c-2.611,0.08-5.236-0.234-7.834,0.27c-0.539,0.104-1.035,0.285-1.439,0.637c-0.584,0.506-1.229,1.18-1.01,1.91
		c0.188,0.627,1.072,0.273,1.635,0.277c4.326,0.029,8.654,0.047,12.982-0.002c1.1-0.014,1.295,0.445,1.148,1.377
		c-0.402,2.566-1.953,3.975-4.588,3.99c-5.43,0.029-10.857,0.01-16.285,0.006c-0.4,0-0.912,0.115-0.92-0.535
		c-0.025-2.424-0.184-4.852,0.654-7.209c1.322-3.717,4.201-5.326,7.857-5.818c2.602-0.352,5.232-0.115,7.85-0.168
		c1.316-0.025,1.826-0.682,1.611-1.969c-0.152-0.908-0.672-1.133-1.52-1.129c-5.619,0.025-11.238,0.012-16.855,0.014
		c-1.232,0-2.41-0.193-3.486-0.852c-1.375-0.842-1.789-2.193-1.961-3.664c-0.102-0.873,0.525-0.84,1.123-0.84
		c3.645,0.006,7.289,0.002,10.934,0.002C90.37,151.269,90.37,151.271,90.37,151.275z"/>
	<path fill-rule="evenodd" clip-rule="evenodd" fill="#515151" d="M70.831,177.906c4.035,0,7.375,0.041,10.713-0.025
		c0.992-0.02,1.137,0.357,1.027,1.189c-0.33,2.523-2.186,4.037-5.061,4.047c-4.932,0.016-9.863,0.016-14.795,0.025
		c-0.49,0.002-0.984,0.02-1.475,0.055c-1.355,0.098-1.803,0.547-1.816,1.938c-0.023,2.541-0.029,5.084-0.002,7.627
		c0.016,1.465,0.496,1.928,1.918,1.932c3.643,0.01,7.285-0.016,10.928,0.021c0.734,0.008,0.963-0.178,0.957-0.939
		c-0.02-2.236,0.018-2.236-2.182-2.234c-0.797,0.002-1.594,0.008-2.377-0.189c-1.902-0.482-3.326-2.553-3.119-4.492
		c0.045-0.41,0.23-0.508,0.584-0.502c2.842,0.037,5.695-0.17,8.527,0.131c2.244,0.24,3.527,1.674,3.643,3.959
		c0.09,1.74,0.088,3.492-0.006,5.23c-0.143,2.604-1.697,4.18-4.291,4.225c-4.438,0.078-8.881,0.105-13.316-0.004
		c-3.566-0.088-6.387-3.119-6.473-6.793c-0.065-2.768-0.067-5.541-0.001-8.309c0.087-3.613,2.669-6.428,6.277-6.762
		C64.161,177.695,67.849,177.994,70.831,177.906z"/>
	<path fill-rule="evenodd" clip-rule="evenodd" fill="#515151" d="M17.329,173.332c-2.086,0-4.171,0.021-6.257-0.004
		c-4.463-0.057-7.307-2.928-7.323-7.375c-0.009-2.504,0.039-5.006-0.01-7.508c-0.079-4.025,3.33-7.063,6.952-7.057
		c4.437,0.008,8.874-0.037,13.31,0.016c3.987,0.049,6.888,2.926,6.976,6.893c0.062,2.73,0.062,5.463-0.006,8.191
		c-0.095,3.818-2.866,6.643-6.703,6.801c-2.31,0.096-4.625,0.018-6.938,0.018C17.329,173.316,17.329,173.324,17.329,173.332z
		 M17.399,156.636c-2.16,0-4.32-0.008-6.48,0.002c-1.485,0.008-1.97,0.48-1.98,1.977c-0.017,2.463-0.014,4.926-0.003,7.391
		c0.007,1.574,0.458,2.088,2.005,2.096c4.319,0.02,8.639,0.008,12.959-0.027c1.37-0.012,1.854-0.5,1.872-1.863
		c0.034-2.576,0.033-5.154,0.001-7.73c-0.017-1.344-0.556-1.834-1.894-1.842C21.719,156.628,19.559,156.636,17.399,156.636z"/>
	<path fill-rule="evenodd" clip-rule="evenodd" fill="#515151" d="M80.001,159.89c-0.555,3.064-2.789,4.979-5.828,4.994
		c-3.15,0.018-6.299,0.053-9.449,0.023c-0.82-0.008-1.131,0.188-1.117,1.072c0.031,2.209-0.014,2.211,2.242,2.189
		c4.971-0.043,9.939-0.072,14.91-0.145c0.826-0.01,1.088,0.146,0.752,1.004c-0.967,2.457-2.574,4.188-5.318,4.307
		c-4.547,0.199-9.104,0.281-13.646-0.055c-2.371-0.174-3.588-1.443-3.994-3.797c-0.071-0.41-0.122-0.828-0.122-1.244
		c-0.005-3.945-0.056-7.893,0.025-11.838c0.071-3.484,1.587-4.928,5.087-4.973c3.832-0.049,7.664-0.01,11.496-0.059
		c0.896-0.012,1.021,0.26,0.744,1.051c-0.912,2.611-3.096,4.213-5.838,4.213c-1.785,0.002-3.568,0.027-5.352-0.012
		c-0.691-0.014-0.992,0.117-0.986,0.916c0.016,2.246-0.027,2.246,2.191,2.246c4.365,0,8.729-0.004,13.092,0.002
		C79.261,159.789,79.646,159.701,80.001,159.89z"/>
	<path fill-rule="evenodd" clip-rule="evenodd" fill="#515151" d="M38.155,158.802c0,2.654,0,5.029,0,7.402
		c0,0.873,0.007,1.746-0.002,2.619c-0.028,2.9-1.493,4.385-4.402,4.543c-0.618,0.033-0.792-0.152-0.789-0.746
		c0.024-5.84-0.011-11.68,0.061-17.518c0.028-2.34,2.512-4.146,4.82-3.697c0.462,0.09,0.701,0.432,0.975,0.734
		c3.55,3.947,7.094,7.9,10.642,11.848c0.479,0.535,0.971,1.059,1.471,1.602c0.436-0.316,0.261-0.725,0.262-1.066
		c0.015-2.922-0.001-5.844,0.013-8.766c0.013-2.717,1.588-4.273,4.321-4.355c0.619-0.018,0.889,0.117,0.886,0.801
		c-0.024,5.805,0.021,11.611-0.043,17.416c-0.025,2.357-2.611,4.244-4.908,3.752c-0.457-0.098-0.666-0.473-0.938-0.779
		c-3.907-4.391-7.813-8.783-11.721-13.174C38.676,159.279,38.53,159.158,38.155,158.802z"/>
	<path fill-rule="evenodd" clip-rule="evenodd" fill="#515151" d="M22.74,186.105c0.001,2.162-0.052,4.324,0.012,6.484
		c0.134,4.586-3.607,7.482-7.352,7.379c-3.563-0.1-7.13-0.045-10.693-0.002c-0.85,0.012-1.028-0.273-0.916-1.051
		c0.334-2.32,1.634-3.689,3.96-4.031c2.527-0.373,5.074-0.131,7.611-0.18c1.682-0.033,2.117-0.41,2.126-2.059
		c0.015-2.844-0.021-5.689,0.016-8.533c0.009-0.691-0.176-0.916-0.885-0.91c-1.513,0.008-3.035,0.148-4.541-0.115
		c-2.002-0.352-3.595-2.73-3.213-4.715c0.096-0.496,0.403-0.467,0.746-0.467c4.134,0,8.268,0.012,12.401-0.014
		c0.646-0.004,0.741,0.271,0.736,0.818C22.728,181.175,22.74,183.64,22.74,186.105z"/>
	<path fill-rule="evenodd" clip-rule="evenodd" fill="#515151" d="M79.374,106.783c0.002,3.377,0.008,6.754,0,10.131
		c-0.006,2.055-1.07,3.178-3.15,3.203c-3.49,0.039-6.982,0.035-10.473,0.002c-1.424-0.014-2.627-0.477-3.004-2.068
		c-0.098-0.416-0.398-0.533-0.764-0.533c-3.907-0.006-7.815-0.006-11.723-0.008c-0.374,0-0.628,0.115-0.762,0.523
		c-0.499,1.525-1.7,2.072-3.176,2.086c-3.263,0.031-6.526,0.035-9.79,0.006c-2.122-0.018-3.195-1.133-3.197-3.25
		c-0.007-6.905,0.001-13.811-0.01-20.716c-0.001-0.361,0.186-0.854-0.186-1.061c-0.408-0.227-0.647,0.273-0.931,0.48
		c-2.17,1.586-3.637,1.572-5.353-0.083c-1.411-1.361-1.345-2.825,0.194-4.064c4.192-3.375,8.387-6.748,12.581-10.121
		c4.487-3.61,8.961-7.237,13.468-10.823c1.749-1.391,3.294-1.376,5.07-0.012c7.995,6.144,15.978,12.303,23.966,18.456
		c0.691,0.532,1.4,1.042,2.068,1.604c1.387,1.168,1.432,2.522,0.168,3.809c-0.561,0.57-1.127,1.133-1.865,1.469
		c-0.725,0.329-1.463,0.457-2.152-0.066c-0.807-0.612-0.996-0.305-0.99,0.564C79.386,99.8,79.374,103.291,79.374,106.783z
		 M52.708,103.104c0,0.53,0,1.062,0,1.593c0,3.673,0.085,3.755,3.769,3.662c1.349-0.034,1.931-0.604,1.94-1.953
		c0.014-2.01,0.029-4.02-0.005-6.03c-0.02-1.162,0.296-2.114,1.148-2.962c1.293-1.288,1.98-2.884,1.75-4.74
		c-0.318-2.563-2.152-4.525-4.591-5.027c-2.387-0.491-4.838,0.609-6.132,2.752c-1.232,2.041-1.056,4.786,0.69,6.652
		c1.145,1.223,1.566,2.526,1.439,4.12C52.665,101.811,52.708,102.458,52.708,103.104z"/>
	<path fill-rule="evenodd" clip-rule="evenodd" fill="#F7B01B" d="M52.708,103.104c0-0.646-0.043-1.293,0.009-1.934
		c0.127-1.594-0.295-2.897-1.439-4.12c-1.746-1.866-1.923-4.611-0.69-6.652c1.294-2.143,3.745-3.243,6.132-2.752
		c2.439,0.502,4.273,2.464,4.591,5.027c0.23,1.856-0.457,3.452-1.75,4.74c-0.853,0.848-1.168,1.8-1.148,2.962
		c0.034,2.01,0.019,4.02,0.005,6.03c-0.009,1.349-0.591,1.919-1.94,1.953c-3.684,0.094-3.769,0.012-3.769-3.662
		C52.708,104.165,52.708,103.634,52.708,103.104z"/>
</g>
</svg>
